<svg version="1.1" viewBox="0.0 0.0 600.0 371.0" fill="none" stroke="none" stroke-linecap="square" stroke-miterlimit="10" width="600" height="371" xmlns:xlink="http://www.w3.org/1999/xlink" xmlns="http://www.w3.org/2000/svg"><path fill="#ffffff" d="M0 0L600.0 0L600.0 371.0L0 371.0L0 0Z" fill-rule="nonzero"/><path stroke="#333333" stroke-width="1.0" stroke-linecap="butt" d="M84.5 300.5L581.5 300.5" fill-rule="nonzero"/><path stroke="#cccccc" stroke-width="1.0" stroke-linecap="butt" d="M84.5 252.5L581.5 252.5" fill-rule="nonzero"/><path stroke="#cccccc" stroke-width="1.0" stroke-linecap="butt" d="M84.5 205.5L581.5 205.5" fill-rule="nonzero"/><path stroke="#cccccc" stroke-width="1.0" stroke-linecap="butt" d="M84.5 157.5L581.5 157.5" fill-rule="nonzero"/><path stroke="#cccccc" stroke-width="1.0" stroke-linecap="butt" d="M84.5 109.5L581.5 109.5" fill-rule="nonzero"/><path stroke="#cccccc" stroke-width="1.0" stroke-linecap="butt" d="M84.5 61.5L581.5 61.5" fill-rule="nonzero"/><clipPath id="id_0"><path d="M84.55 61.916668L581.45 61.916668L581.45 300.45L84.55 300.45L84.55 61.916668Z" clip-rule="nonzero"/></clipPath><path stroke="#000000" stroke-width="2.0" stroke-linecap="butt" stroke-opacity="0.0" clip-path="url(#id_0)" d="M177.0 300.0L117.0 300.0L117.0 271.0C117.0 269.89542 117.89543 269.0 119.0 269.0L175.0 269.0C176.10457 269.0 177.0 269.89542 177.0 271.0Z" fill-rule="nonzero"/><path fill="#4285f4" clip-path="url(#id_0)" d="M177.0 300.0L117.0 300.0L117.0 271.0C117.0 269.89542 117.89543 269.0 119.0 269.0L175.0 269.0C176.10457 269.0 177.0 269.89542 177.0 271.0Z" fill-rule="nonzero"/><path stroke="#000000" stroke-width="2.0" stroke-linecap="butt" stroke-opacity="0.0" clip-path="url(#id_0)" d="M270.0 300.0L210.0 300.0L210.0 238.0C210.0 236.89543 210.89543 236.0 212.0 236.0L268.0 236.0C269.10458 236.0 270.0 236.89543 270.0 238.0Z" fill-rule="nonzero"/><path fill="#4285f4" clip-path="url(#id_0)" d="M270.0 300.0L210.0 300.0L210.0 238.0C210.0 236.89543 210.89543 236.0 212.0 236.0L268.0 236.0C269.10458 236.0 270.0 236.89543 270.0 238.0Z" fill-rule="nonzero"/><path stroke="#000000" stroke-width="2.0" stroke-linecap="butt" stroke-opacity="0.0" clip-path="url(#id_0)" d="M363.0 300.0L303.0 300.0L303.0 193.0C303.0 191.89543 303.89542 191.0 305.0 191.0L361.0 191.0C362.10458 191.0 363.0 191.89543 363.0 193.0Z" fill-rule="nonzero"/><path fill="#4285f4" clip-path="url(#id_0)" d="M363.0 300.0L303.0 300.0L303.0 193.0C303.0 191.89543 303.89542 191.0 305.0 191.0L361.0 191.0C362.10458 191.0 363.0 191.89543 363.0 193.0Z" fill-rule="nonzero"/><path stroke="#000000" stroke-width="2.0" stroke-linecap="butt" stroke-opacity="0.0" clip-path="url(#id_0)" d="M456.0 300.0L396.0 300.0L396.0 233.0C396.0 231.89543 396.89542 231.0 398.0 231.0L454.0 231.0C455.10458 231.0 456.0 231.89543 456.0 233.0Z" fill-rule="nonzero"/><path fill="#4285f4" clip-path="url(#id_0)" d="M456.0 300.0L396.0 300.0L396.0 233.0C396.0 231.89543 396.89542 231.0 398.0 231.0L454.0 231.0C455.10458 231.0 456.0 231.89543 456.0 233.0Z" fill-rule="nonzero"/><path stroke="#000000" stroke-width="2.0" stroke-linecap="butt" stroke-opacity="0.0" clip-path="url(#id_0)" d="M549.0 300.0L489.0 300.0L489.0 111.0C489.0 109.89543 489.89542 109.0 491.0 109.0L547.0 109.0C548.10455 109.0 549.0 109.89543 549.0 111.0Z" fill-rule="nonzero"/><path fill="#4285f4" clip-path="url(#id_0)" d="M549.0 300.0L489.0 300.0L489.0 111.0C489.0 109.89543 489.89542 109.0 491.0 109.0L547.0 109.0C548.10455 109.0 549.0 109.89543 549.0 111.0Z" fill-rule="nonzero"/><path fill="#000000" d="M323.84375 349.45L323.84375 345.8094L320.53125 340.85626L321.92188 340.85626L323.60938 343.45Q324.07812 344.16876 324.48438 344.90314Q324.875 344.23126 325.42188 343.3875L327.09375 340.85626L328.40625 340.85626L324.98438 345.8094L324.98438 349.45L323.84375 349.45ZM332.54688 347.45L333.64062 347.575Q333.39062 348.52814 332.6875 349.0594Q331.98438 349.59064 330.90625 349.59064Q329.54688 349.59064 328.73438 348.7469Q327.9375 347.90314 327.9375 346.3875Q327.9375 344.825 328.75 343.96564Q329.5625 343.09064 330.84375 343.09064Q332.09375 343.09064 332.875 343.9344Q333.67188 344.77814 333.67188 346.325Q333.67188 346.41876 333.67188 346.60626L329.03125 346.60626Q329.09375 347.6375 329.60938 348.1844Q330.125 348.71564 330.90625 348.71564Q331.48438 348.71564 331.89062 348.41876Q332.3125 348.10626 332.54688 347.45ZM329.09375 345.7469L332.5625 345.7469Q332.5 344.95 332.17188 344.5594Q331.65625 343.95 330.85938 343.95Q330.125 343.95 329.625 344.4344Q329.14062 344.91876 329.09375 345.7469ZM339.35938 348.6844Q338.76562 349.1844 338.21875 349.3875Q337.6875 349.59064 337.0625 349.59064Q336.03125 349.59064 335.48438 349.09064Q334.9375 348.59064 334.9375 347.8094Q334.9375 347.35626 335.14062 346.98126Q335.34375 346.59064 335.6875 346.3719Q336.03125 346.1375 336.45312 346.02814Q336.75 345.9344 337.39062 345.85626Q338.65625 345.71564 339.26562 345.4969Q339.26562 345.27814 339.26562 345.23126Q339.26562 344.575 338.96875 344.3094Q338.5625 343.96564 337.76562 343.96564Q337.03125 343.96564 336.67188 344.23126Q336.3125 344.48126 336.14062 345.1375L335.10938 344.9969Q335.25 344.34064 335.57812 343.9344Q335.90625 343.52814 336.51562 343.3094Q337.125 343.09064 337.92188 343.09064Q338.71875 343.09064 339.21875 343.27814Q339.71875 343.46564 339.95312 343.7469Q340.1875 344.02814 340.28125 344.46564Q340.32812 344.73126 340.32812 345.4344L340.32812 346.84064Q340.32812 348.3094 340.39062 348.7Q340.46875 349.09064 340.67188 349.45L339.5625 349.45Q339.40625 349.1219 339.35938 348.6844ZM339.26562 346.325Q338.6875 346.5594 337.54688 346.73126Q336.89062 346.825 336.625 346.95Q336.35938 347.0594 336.20312 347.27814Q336.0625 347.4969 336.0625 347.77814Q336.0625 348.2 336.375 348.48126Q336.70312 348.7625 337.3125 348.7625Q337.92188 348.7625 338.39062 348.4969Q338.875 348.23126 339.09375 347.7625Q339.26562 347.40314 339.26562 346.71564L339.26562 346.325ZM342.28125 349.45L342.28125 343.23126L343.23438 343.23126L343.23438 344.16876Q343.59375 343.5125 343.89062 343.3094Q344.20312 343.09064 344.57812 343.09064Q345.10938 343.09064 345.65625 343.41876L345.29688 344.40314Q344.90625 344.16876 344.53125 344.16876Q344.17188 344.16876 343.89062 344.3875Q343.625 344.59064 343.51562 344.96564Q343.32812 345.52814 343.32812 346.1844L343.32812 349.45L342.28125 349.45Z" fill-rule="nonzero"/><path fill="#000000" d="M29.550013 269.76147L20.956263 269.76147L20.956263 268.60522L27.706263 264.0896L20.956263 264.0896L20.956263 262.99585L29.550013 262.99585L29.550013 264.16772L22.800013 268.68335L29.550013 268.68335L29.550013 269.76147ZM29.550013 256.80835L28.628138 256.80835Q29.690638 257.54272 29.690638 258.79272Q29.690638 259.3396 29.487513 259.82397Q29.268763 260.29272 28.956263 260.5271Q28.628138 260.76147 28.159388 260.85522Q27.862513 260.91772 27.175013 260.91772L23.331263 260.91772L23.331263 259.85522L26.784388 259.85522Q27.596888 259.85522 27.893763 259.79272Q28.300013 259.69897 28.550013 259.38647Q28.784388 259.05835 28.784388 258.57397Q28.784388 258.10522 28.550013 257.69897Q28.300013 257.2771 27.878138 257.10522Q27.456263 256.91772 26.659388 256.91772L23.331263 256.91772L23.331263 255.87083L29.550013 255.87083L29.550013 256.80835ZM29.550013 253.88646L23.331263 253.88646L23.331263 252.94896L24.206263 252.94896Q23.737513 252.65208 23.471888 252.16771Q23.190638 251.68333 23.190638 251.05833Q23.190638 250.37083 23.471888 249.93333Q23.753138 249.48021 24.268763 249.30833Q23.190638 248.55833 23.190638 247.38646Q23.190638 246.44896 23.706263 245.96458Q24.206263 245.46458 25.284388 245.46458L29.550013 245.46458L29.550013 246.51146L25.628138 246.51146Q25.003138 246.51146 24.721888 246.62083Q24.440638 246.71458 24.268763 246.98021Q24.096888 247.24583 24.096888 247.62083Q24.096888 248.27708 24.534388 248.71458Q24.971888 249.13646 25.940638 249.13646L29.550013 249.13646L29.550013 250.19896L25.503138 250.19896Q24.800013 250.19896 24.456263 250.46458Q24.096888 250.71458 24.096888 251.29271Q24.096888 251.74583 24.331263 252.12083Q24.565638 252.49583 25.018763 252.66771Q25.471888 252.83958 26.315638 252.83958L29.550013 252.83958L29.550013 253.88646ZM29.550013 241.91771L29.550013 242.90208L20.956263 242.90208L20.956263 241.83958L24.018763 241.83958Q23.190638 241.16771 23.190638 240.13646Q23.190638 239.55833 23.425013 239.05833Q23.643763 238.54271 24.065638 238.21458Q24.487513 237.87083 25.081263 237.68333Q25.675013 237.49583 26.346888 237.49583Q27.940638 237.49583 28.815638 238.29271Q29.690638 239.08958 29.690638 240.18333Q29.690638 241.29271 28.768763 241.91771L29.550013 241.91771ZM26.393763 241.93333Q27.503138 241.93333 28.003138 241.62083Q28.815638 241.12083 28.815638 240.27708Q28.815638 239.58958 28.221888 239.08958Q27.628138 238.57396 26.425013 238.57396Q25.206263 238.57396 24.628138 239.05833Q24.050013 239.54271 24.050013 240.23021Q24.050013 240.91771 24.659388 241.43333Q25.253138 241.93333 26.393763 241.93333ZM27.550013 231.63646L27.675013 230.54271Q28.628138 230.79271 29.159388 231.49583Q29.690638 232.19896 29.690638 233.27708Q29.690638 234.63646 28.846888 235.44896Q28.003138 236.24583 26.487513 236.24583Q24.925013 236.24583 24.065638 235.43333Q23.190638 234.62083 23.190638 233.33958Q23.190638 232.08958 24.034388 231.30833Q24.878138 230.51146 26.425013 230.51146Q26.518763 230.51146 26.706263 230.51146L26.706263 235.15208Q27.737513 235.08958 28.284388 234.57396Q28.815638 234.05833 28.815638 233.27708Q28.815638 232.69896 28.518763 232.29271Q28.206263 231.87083 27.550013 231.63646ZM25.846888 235.08958L25.846888 231.62083Q25.050013 231.68333 24.659388 232.01146Q24.050013 232.52708 24.050013 233.32396Q24.050013 234.05833 24.534388 234.55833Q25.018763 235.04271 25.846888 235.08958ZM29.550013 228.90208L23.331263 228.90208L23.331263 227.94896L24.268763 227.94896Q23.612513 227.58958 23.409388 227.29271Q23.190638 226.98021 23.190638 226.60521Q23.190638 226.07396 23.518763 225.52708L24.503138 225.88646Q24.268763 226.27708 24.268763 226.65208Q24.268763 227.01146 24.487513 227.29271Q24.690638 227.55833 25.065638 227.66771Q25.628138 227.85521 26.284388 227.85521L29.550013 227.85521L29.550013 228.90208ZM26.440638 222.27708Q24.706263 222.27708 23.878138 221.32396Q23.190638 220.52708 23.190638 219.37083Q23.190638 218.08958 24.034388 217.27708Q24.862513 216.44896 26.346888 216.44896Q27.550013 216.44896 28.237513 216.80833Q28.925013 217.16771 29.315638 217.87083Q29.690638 218.55833 29.690638 219.37083Q29.690638 220.66771 28.862513 221.48021Q28.018763 222.27708 26.440638 222.27708ZM26.440638 221.19896Q27.628138 221.19896 28.221888 220.68333Q28.815638 220.15208 28.815638 219.37083Q28.815638 218.57396 28.221888 218.05833Q27.628138 217.54271 26.409388 217.54271Q25.253138 217.54271 24.659388 218.07396Q24.065638 218.58958 24.065638 219.37083Q24.065638 220.15208 24.659388 220.68333Q25.237513 221.19896 26.440638 221.19896ZM29.550013 214.63646L24.143763 214.63646L24.143763 215.57396L23.331263 215.57396L23.331263 214.63646L22.659388 214.63646Q22.034388 214.63646 21.737513 214.52708Q21.315638 214.37083 21.065638 213.99583Q20.815638 213.60521 20.815638 212.91771Q20.815638 212.46458 20.925013 211.93333L21.831263 212.08958Q21.784388 212.41771 21.784388 212.71458Q21.784388 213.19896 21.987513 213.40208Q22.190638 213.58958 22.753138 213.58958L23.331263 213.58958L23.331263 212.37083L24.143763 212.37083L24.143763 213.58958L29.550013 213.58958L29.550013 214.63646ZM29.550013 208.80833L20.956263 208.80833L20.956263 205.57396Q20.956263 204.58958 21.221888 203.99583Q21.487513 203.40208 22.034388 203.07396Q22.565638 202.73021 23.159388 202.73021Q23.706263 202.73021 24.190638 203.02708Q24.675013 203.32396 24.971888 203.93333Q25.206263 203.15208 25.768763 202.74583Q26.315638 202.32396 27.065638 202.32396Q27.659388 202.32396 28.190638 202.57396Q28.706263 202.82396 28.987513 203.19896Q29.268763 203.57396 29.409388 204.15208Q29.550013 204.71458 29.550013 205.52708L29.550013 208.80833ZM24.565638 207.66771L24.565638 205.80833Q24.565638 205.05833 24.471888 204.73021Q24.346888 204.29271 24.050013 204.07396Q23.737513 203.85521 23.284388 203.85521Q22.862513 203.85521 22.534388 204.05833Q22.206263 204.26146 22.096888 204.65208Q21.971888 205.02708 21.971888 205.94896L21.971888 207.66771L24.565638 207.66771ZM28.534388 207.66771L28.534388 205.52708Q28.534388 204.98021 28.487513 204.76146Q28.425013 204.35521 28.268763 204.10521Q28.096888 203.83958 27.784388 203.66771Q27.471888 203.49583 27.065638 203.49583Q26.581263 203.49583 26.221888 203.74583Q25.862513 203.98021 25.721888 204.41771Q25.581263 204.85521 25.581263 205.68333L25.581263 207.66771L28.534388 207.66771ZM28.784388 196.82396Q29.284388 197.41771 29.487513 197.96458Q29.690638 198.49583 29.690638 199.12083Q29.690638 200.15208 29.190638 200.69896Q28.690638 201.24583 27.909388 201.24583Q27.456263 201.24583 27.081263 201.04271Q26.690638 200.83958 26.471888 200.49583Q26.237513 200.15208 26.128138 199.73021Q26.034388 199.43333 25.956263 198.79271Q25.815638 197.52708 25.596888 196.91771Q25.378138 196.91771 25.331263 196.91771Q24.675013 196.91771 24.409388 197.21458Q24.065638 197.62083 24.065638 198.41771Q24.065638 199.15208 24.331263 199.51146Q24.581263 199.87083 25.237513 200.04271L25.096888 201.07396Q24.440638 200.93333 24.034388 200.60521Q23.628138 200.27708 23.409388 199.66771Q23.190638 199.05833 23.190638 198.26146Q23.190638 197.46458 23.378138 196.96458Q23.565638 196.46458 23.846888 196.23021Q24.128138 195.99583 24.565638 195.90208Q24.831263 195.85521 25.534388 195.85521L26.940638 195.85521Q28.409388 195.85521 28.800013 195.79271Q29.190638 195.71458 29.550013 195.51146L29.550013 196.62083Q29.221888 196.77708 28.784388 196.82396ZM26.425013 196.91771Q26.659388 197.49583 26.831263 198.63646Q26.925013 199.29271 27.050013 199.55833Q27.159388 199.82396 27.378138 199.98021Q27.596888 200.12083 27.878138 200.12083Q28.300013 200.12083 28.581263 199.80833Q28.862513 199.48021 28.862513 198.87083Q28.862513 198.26146 28.596888 197.79271Q28.331263 197.30833 27.862513 197.08958Q27.503138 196.91771 26.815638 196.91771L26.425013 196.91771ZM29.550013 193.88646L23.331263 193.88646L23.331263 192.94896L24.206263 192.94896Q23.190638 192.26146 23.190638 190.96458Q23.190638 190.40208 23.393763 189.93333Q23.596888 189.44896 23.925013 189.21458Q24.253138 188.98021 24.690638 188.88646Q24.987513 188.83958 25.721888 188.83958L29.550013 188.83958L29.550013 189.88646L25.768763 189.88646Q25.112513 189.88646 24.800013 190.01146Q24.487513 190.13646 24.300013 190.44896Q24.096888 190.76146 24.096888 191.18333Q24.096888 191.85521 24.534388 192.35521Q24.956263 192.83958 26.143763 192.83958L29.550013 192.83958L29.550013 193.88646ZM29.550013 186.88646L20.956263 186.88646L20.956263 185.82396L25.862513 185.82396L23.331263 183.33958L23.331263 181.96458L25.628138 184.35521L29.550013 181.73021L29.550013 183.02708L26.362513 185.08958L27.081263 185.82396L29.550013 185.82396L29.550013 186.88646ZM26.784388 178.13646L26.690638 177.07396Q27.346888 176.99583 27.753138 176.71458Q28.159388 176.43333 28.425013 175.85521Q28.675013 175.26146 28.675013 174.52708Q28.675013 173.88646 28.487513 173.38646Q28.284388 172.88646 27.956263 172.65208Q27.612513 172.40208 27.221888 172.40208Q26.815638 172.40208 26.518763 172.63646Q26.206263 172.87083 26.003138 173.40208Q25.862513 173.76146 25.581263 174.94896Q25.300013 176.12083 25.050013 176.58958Q24.721888 177.21458 24.253138 177.51146Q23.768763 177.80833 23.175013 177.80833Q22.534388 177.80833 21.971888 177.44896Q21.393763 177.07396 21.112513 176.37083Q20.815638 175.65208 20.815638 174.79271Q20.815638 173.83958 21.128138 173.10521Q21.425013 172.37083 22.034388 171.98021Q22.628138 171.58958 23.378138 171.55833L23.456263 172.65208Q22.643763 172.74583 22.237513 173.26146Q21.815638 173.76146 21.815638 174.74583Q21.815638 175.77708 22.190638 176.24583Q22.565638 176.71458 23.096888 176.71458Q23.565638 176.71458 23.862513 176.38646Q24.159388 176.05833 24.471888 174.68333Q24.784388 173.29271 25.018763 172.77708Q25.378138 172.02708 25.909388 171.66771Q26.425013 171.30833 27.128138 171.30833Q27.815638 171.30833 28.425013 171.69896Q29.018763 172.08958 29.362513 172.82396Q29.690638 173.55833 29.690638 174.48021Q29.690638 175.65208 29.362513 176.44896Q29.018763 177.23021 28.331263 177.68333Q27.643763 178.12083 26.784388 178.13646ZM29.550013 165.80833L28.628138 165.80833Q29.690638 166.54271 29.690638 167.79271Q29.690638 168.33958 29.487513 168.82396Q29.268763 169.29271 28.956263 169.52708Q28.628138 169.76146 28.159388 169.85521Q27.862513 169.91771 27.175013 169.91771L23.331263 169.91771L23.331263 168.85521L26.784388 168.85521Q27.596888 168.85521 27.893763 168.79271Q28.300013 168.69896 28.550013 168.38646Q28.784388 168.05833 28.784388 167.57396Q28.784388 167.10521 28.550013 166.69896Q28.300013 166.27708 27.878138 166.10521Q27.456263 165.91771 26.659388 165.91771L23.331263 165.91771L23.331263 164.87083L29.550013 164.87083L29.550013 165.80833ZM27.690638 163.30833L27.534388 162.27708Q28.159388 162.18333 28.487513 161.79271Q28.815638 161.38646 28.815638 160.65208Q28.815638 159.93333 28.534388 159.58958Q28.237513 159.23021 27.831263 159.23021Q27.471888 159.23021 27.268763 159.54271Q27.128138 159.76146 26.909388 160.62083Q26.612513 161.77708 26.409388 162.23021Q26.190638 162.66771 25.815638 162.90208Q25.440638 163.13646 24.971888 163.13646Q24.565638 163.13646 24.206263 162.94896Q23.846888 162.76146 23.612513 162.43333Q23.440638 162.18333 23.315638 161.76146Q23.190638 161.33958 23.190638 160.83958Q23.190638 160.12083 23.409388 159.57396Q23.612513 159.01146 23.971888 158.74583Q24.331263 158.48021 24.925013 158.38646L25.065638 159.41771Q24.596888 159.48021 24.331263 159.82396Q24.050013 160.15208 24.050013 160.77708Q24.050013 161.49583 24.300013 161.80833Q24.534388 162.12083 24.862513 162.12083Q25.065638 162.12083 25.221888 161.99583Q25.393763 161.85521 25.503138 161.58958Q25.565638 161.43333 25.768763 160.65208Q26.081263 159.52708 26.268763 159.08958Q26.456263 158.65208 26.815638 158.40208Q27.175013 158.15208 27.721888 158.15208Q28.253138 158.15208 28.721888 158.46458Q29.175013 158.76146 29.440638 159.33958Q29.690638 159.91771 29.690638 160.65208Q29.690638 161.87083 29.190638 162.51146Q28.675013 163.13646 27.690638 163.30833ZM31.940638 155.88646L23.331263 155.88646L23.331263 154.93333L24.128138 154.93333Q23.659388 154.58958 23.425013 154.16771Q23.190638 153.73021 23.190638 153.12083Q23.190638 152.32396 23.596888 151.71458Q24.003138 151.10521 24.753138 150.80833Q25.503138 150.49583 26.393763 150.49583Q27.346888 150.49583 28.112513 150.83958Q28.878138 151.16771 29.284388 151.82396Q29.690638 152.48021 29.690638 153.19896Q29.690638 153.73021 29.471888 154.15208Q29.237513 154.57396 28.909388 154.83958L31.940638 154.83958L31.940638 155.88646ZM26.471888 154.93333Q27.675013 154.93333 28.253138 154.44896Q28.815638 153.96458 28.815638 153.27708Q28.815638 152.57396 28.221888 152.07396Q27.628138 151.57396 26.378138 151.57396Q25.190638 151.57396 24.612513 152.05833Q24.018763 152.54271 24.018763 153.23021Q24.018763 153.90208 24.643763 154.41771Q25.268763 154.93333 26.471888 154.93333ZM27.550013 144.63646L27.675013 143.54271Q28.628138 143.79271 29.159388 144.49583Q29.690638 145.19896 29.690638 146.27708Q29.690638 147.63646 28.846888 148.44896Q28.003138 149.24583 26.487513 149.24583Q24.925013 149.24583 24.065638 148.43333Q23.190638 147.62083 23.190638 146.33958Q23.190638 145.08958 24.034388 144.30833Q24.878138 143.51146 26.425013 143.51146Q26.518763 143.51146 26.706263 143.51146L26.706263 148.15208Q27.737513 148.08958 28.284388 147.57396Q28.815638 147.05833 28.815638 146.27708Q28.815638 145.69896 28.518763 145.29271Q28.206263 144.87083 27.550013 144.63646ZM25.846888 148.08958L25.846888 144.62083Q25.050013 144.68333 24.659388 145.01146Q24.050013 145.52708 24.050013 146.32396Q24.050013 147.05833 24.534388 147.55833Q25.018763 148.04271 25.846888 148.08958ZM29.550013 141.88646L23.331263 141.88646L23.331263 140.94896L24.206263 140.94896Q23.190638 140.26146 23.190638 138.96458Q23.190638 138.40208 23.393763 137.93333Q23.596888 137.44896 23.925013 137.21458Q24.253138 136.98021 24.690638 136.88646Q24.987513 136.83958 25.721888 136.83958L29.550013 136.83958L29.550013 137.88646L25.768763 137.88646Q25.112513 137.88646 24.800013 138.01146Q24.487513 138.13646 24.300013 138.44896Q24.096888 138.76146 24.096888 139.18333Q24.096888 139.85521 24.534388 140.35521Q24.956263 140.83958 26.143763 140.83958L29.550013 140.83958L29.550013 141.88646ZM27.690638 135.30833L27.534388 134.27708Q28.159388 134.18333 28.487513 133.79271Q28.815638 133.38646 28.815638 132.65208Q28.815638 131.93333 28.534388 131.58958Q28.237513 131.23021 27.831263 131.23021Q27.471888 131.23021 27.268763 131.54271Q27.128138 131.76146 26.909388 132.62083Q26.612513 133.77708 26.409388 134.23021Q26.190638 134.66771 25.815638 134.90208Q25.440638 135.13646 24.971888 135.13646Q24.565638 135.13646 24.206263 134.94896Q23.846888 134.76146 23.612513 134.43333Q23.440638 134.18333 23.315638 133.76146Q23.190638 133.33958 23.190638 132.83958Q23.190638 132.12083 23.409388 131.57396Q23.612513 131.01146 23.971888 130.74583Q24.331263 130.48021 24.925013 130.38646L25.065638 131.41771Q24.596888 131.48021 24.331263 131.82396Q24.050013 132.15208 24.050013 132.77708Q24.050013 133.49583 24.300013 133.80833Q24.534388 134.12083 24.862513 134.12083Q25.065638 134.12083 25.221888 133.99583Q25.393763 133.85521 25.503138 133.58958Q25.565638 133.43333 25.768763 132.65208Q26.081263 131.52708 26.268763 131.08958Q26.456263 130.65208 26.815638 130.40208Q27.175013 130.15208 27.721888 130.15208Q28.253138 130.15208 28.721888 130.46458Q29.175013 130.76146 29.440638 131.33958Q29.690638 131.91771 29.690638 132.65208Q29.690638 133.87083 29.190638 134.51146Q28.675013 135.13646 27.690638 135.30833ZM22.175013 127.88646L20.956263 127.88646L20.956263 126.82396L22.175013 126.82396L22.175013 127.88646ZM29.550013 127.88646L23.331263 127.88646L23.331263 126.82396L29.550013 126.82396L29.550013 127.88646ZM26.440638 125.277084Q24.706263 125.277084 23.878138 124.32396Q23.190638 123.527084 23.190638 122.370834Q23.190638 121.089584 24.034388 120.277084Q24.862513 119.44896 26.346888 119.44896Q27.550013 119.44896 28.237513 119.808334Q28.925013 120.16771 29.315638 120.870834Q29.690638 121.558334 29.690638 122.370834Q29.690638 123.66771 28.862513 124.48021Q28.018763 125.277084 26.440638 125.277084ZM26.440638 124.19896Q27.628138 124.19896 28.221888 123.683334Q28.815638 123.152084 28.815638 122.370834Q28.815638 121.57396 28.221888 121.058334Q27.628138 120.54271 26.409388 120.54271Q25.253138 120.54271 24.659388 121.07396Q24.065638 121.589584 24.065638 122.370834Q24.065638 123.152084 24.659388 123.683334Q25.237513 124.19896 26.440638 124.19896ZM29.550013 117.88646L23.331263 117.88646L23.331263 116.94896L24.206263 116.94896Q23.190638 116.26146 23.190638 114.964584Q23.190638 114.402084 23.393763 113.933334Q23.596888 113.44896 23.925013 113.214584Q24.253138 112.98021 24.690638 112.88646Q24.987513 112.839584 25.721888 112.839584L29.550013 112.839584L29.550013 113.88646L25.768763 113.88646Q25.112513 113.88646 24.800013 114.01146Q24.487513 114.13646 24.300013 114.44896Q24.096888 114.76146 24.096888 115.183334Q24.096888 115.85521 24.534388 116.35521Q24.956263 116.839584 26.143763 116.839584L29.550013 116.839584L29.550013 117.88646ZM27.690638 111.308334L27.534388 110.277084Q28.159388 110.183334 28.487513 109.79271Q28.815638 109.38646 28.815638 108.652084Q28.815638 107.933334 28.534388 107.589584Q28.237513 107.23021 27.831263 107.23021Q27.471888 107.23021 27.268763 107.54271Q27.128138 107.76146 26.909388 108.620834Q26.612513 109.777084 26.409388 110.23021Q26.190638 110.66771 25.815638 110.902084Q25.440638 111.13646 24.971888 111.13646Q24.565638 111.13646 24.206263 110.94896Q23.846888 110.76146 23.612513 110.433334Q23.440638 110.183334 23.315638 109.76146Q23.190638 109.339584 23.190638 108.839584Q23.190638 108.120834 23.409388 107.57396Q23.612513 107.01146 23.971888 106.745834Q24.331263 106.48021 24.925013 106.38646L25.065638 107.41771Q24.596888 107.48021 24.331263 107.82396Q24.050013 108.152084 24.050013 108.777084Q24.050013 109.495834 24.300013 109.808334Q24.534388 110.120834 24.862513 110.120834Q25.065638 110.120834 25.221888 109.995834Q25.393763 109.85521 25.503138 109.589584Q25.565638 109.433334 25.768763 108.652084Q26.081263 107.527084 26.268763 107.089584Q26.456263 106.652084 26.815638 106.402084Q27.175013 106.152084 27.721888 106.152084Q28.253138 106.152084 28.721888 106.464584Q29.175013 106.76146 29.440638 107.339584Q29.690638 107.91771 29.690638 108.652084Q29.690638 109.870834 29.190638 110.51146Q28.675013 111.13646 27.690638 111.308334Z" fill-rule="nonzero"/><path fill="#000000" d="M72.05 300.21564Q72.05 298.6844 72.3625 297.7625Q72.675 296.825 73.28438 296.325Q73.90938 295.825 74.84688 295.825Q75.53438 295.825 76.05 296.10626Q76.58125 296.3875 76.925 296.91876Q77.26875 297.4344 77.45625 298.1844Q77.64375 298.9344 77.64375 300.21564Q77.64375 301.73126 77.33125 302.65314Q77.03438 303.575 76.40938 304.09064Q75.8 304.59064 74.84688 304.59064Q73.6125 304.59064 72.89375 303.7Q72.05 302.6375 72.05 300.21564ZM73.12813 300.21564Q73.12813 302.325 73.62813 303.02814Q74.12813 303.73126 74.84688 303.73126Q75.58125 303.73126 76.06563 303.02814Q76.56563 302.325 76.56563 300.21564Q76.56563 298.09064 76.06563 297.40314Q75.58125 296.7 74.83125 296.7Q74.1125 296.7 73.675 297.3094Q73.12813 298.09064 73.12813 300.21564Z" fill-rule="nonzero"/><path fill="#000000" d="M55.01875 256.74335L53.971874 256.74335L53.971874 250.0246Q53.58125 250.38397 52.95625 250.75897Q52.346874 251.11835 51.8625 251.29022L51.8625 250.2746Q52.7375 249.85272 53.39375 249.2746Q54.065624 248.68085 54.346874 248.11835L55.01875 248.11835L55.01875 256.74335ZM58.05 252.50897Q58.05 250.97772 58.3625 250.05585Q58.675 249.11835 59.284374 248.61835Q59.909374 248.11835 60.846874 248.11835Q61.534374 248.11835 62.05 248.3996Q62.58125 248.68085 62.925 249.2121Q63.26875 249.72772 63.45625 250.47772Q63.64375 251.22772 63.64375 252.50897Q63.64375 254.0246 63.33125 254.94647Q63.034374 255.86835 62.409374 256.38397Q61.8 256.88397 60.846874 256.88397Q59.6125 256.88397 58.89375 255.99335Q58.05 254.93085 58.05 252.50897ZM59.128124 252.50897Q59.128124 254.61835 59.628124 255.32147Q60.128124 256.0246 60.846874 256.0246Q61.58125 256.0246 62.065624 255.32147Q62.565624 254.61835 62.565624 252.50897Q62.565624 250.38397 62.065624 249.69647Q61.58125 248.99335 60.83125 248.99335Q60.1125 248.99335 59.675 249.60272Q59.128124 250.38397 59.128124 252.50897ZM65.05 252.50897Q65.05 250.97772 65.3625 250.05585Q65.675 249.11835 66.28438 248.61835Q66.90938 248.11835 67.84688 248.11835Q68.53438 248.11835 69.05 248.3996Q69.58125 248.68085 69.925 249.2121Q70.26875 249.72772 70.45625 250.47772Q70.64375 251.22772 70.64375 252.50897Q70.64375 254.0246 70.33125 254.94647Q70.03438 255.86835 69.40938 256.38397Q68.8 256.88397 67.84688 256.88397Q66.6125 256.88397 65.89375 255.99335Q65.05 254.93085 65.05 252.50897ZM66.12813 252.50897Q66.12813 254.61835 66.62813 255.32147Q67.12813 256.0246 67.84688 256.0246Q68.58125 256.0246 69.06563 255.32147Q69.56563 254.61835 69.56563 252.50897Q69.56563 250.38397 69.06563 249.69647Q68.58125 248.99335 67.83125 248.99335Q67.1125 248.99335 66.675 249.60272Q66.12813 250.38397 66.12813 252.50897ZM72.05 252.50897Q72.05 250.97772 72.3625 250.05585Q72.675 249.11835 73.28438 248.61835Q73.90938 248.11835 74.84688 248.11835Q75.53438 248.11835 76.05 248.3996Q76.58125 248.68085 76.925 249.2121Q77.26875 249.72772 77.45625 250.47772Q77.64375 251.22772 77.64375 252.50897Q77.64375 254.0246 77.33125 254.94647Q77.03438 255.86835 76.40938 256.38397Q75.8 256.88397 74.84688 256.88397Q73.6125 256.88397 72.89375 255.99335Q72.05 254.93085 72.05 252.50897ZM73.12813 252.50897Q73.12813 254.61835 73.62813 255.32147Q74.12813 256.0246 74.84688 256.0246Q75.58125 256.0246 76.06563 255.32147Q76.56563 254.61835 76.56563 252.50897Q76.56563 250.38397 76.06563 249.69647Q75.58125 248.99335 74.83125 248.99335Q74.1125 248.99335 73.675 249.60272Q73.12813 250.38397 73.12813 252.50897Z" fill-rule="nonzero"/><path fill="#000000" d="M56.596874 208.02104L56.596874 209.03667L50.909374 209.03667Q50.909374 208.66167 51.034374 208.30229Q51.253124 207.72417 51.721874 207.16167Q52.20625 206.59917 53.1125 205.86479Q54.51875 204.70854 55.003124 204.03667Q55.503124 203.36479 55.503124 202.77104Q55.503124 202.14604 55.05 201.72417Q54.596874 201.28667 53.878124 201.28667Q53.1125 201.28667 52.659374 201.73979Q52.20625 202.19292 52.190624 203.00542L51.1125 202.89604Q51.221874 201.67729 51.940624 201.05229Q52.675 200.41167 53.909374 200.41167Q55.14375 200.41167 55.8625 201.09917Q56.58125 201.78667 56.58125 202.80229Q56.58125 203.31792 56.3625 203.81792Q56.159374 204.30229 55.659374 204.86479Q55.175 205.41167 54.05 206.36479Q53.096874 207.16167 52.815624 207.45854Q52.55 207.73979 52.378124 208.02104L56.596874 208.02104ZM58.05 204.80229Q58.05 203.27104 58.3625 202.34917Q58.675 201.41167 59.284374 200.91167Q59.909374 200.41167 60.846874 200.41167Q61.534374 200.41167 62.05 200.69292Q62.58125 200.97417 62.925 201.50542Q63.26875 202.02104 63.45625 202.77104Q63.64375 203.52104 63.64375 204.80229Q63.64375 206.31792 63.33125 207.23979Q63.034374 208.16167 62.409374 208.67729Q61.8 209.17729 60.846874 209.17729Q59.6125 209.17729 58.89375 208.28667Q58.05 207.22417 58.05 204.80229ZM59.128124 204.80229Q59.128124 206.91167 59.628124 207.61479Q60.128124 208.31792 60.846874 208.31792Q61.58125 208.31792 62.065624 207.61479Q62.565624 206.91167 62.565624 204.80229Q62.565624 202.67729 62.065624 201.98979Q61.58125 201.28667 60.83125 201.28667Q60.1125 201.28667 59.675 201.89604Q59.128124 202.67729 59.128124 204.80229ZM65.05 204.80229Q65.05 203.27104 65.3625 202.34917Q65.675 201.41167 66.28438 200.91167Q66.90938 200.41167 67.84688 200.41167Q68.53438 200.41167 69.05 200.69292Q69.58125 200.97417 69.925 201.50542Q70.26875 202.02104 70.45625 202.77104Q70.64375 203.52104 70.64375 204.80229Q70.64375 206.31792 70.33125 207.23979Q70.03438 208.16167 69.40938 208.67729Q68.8 209.17729 67.84688 209.17729Q66.6125 209.17729 65.89375 208.28667Q65.05 207.22417 65.05 204.80229ZM66.12813 204.80229Q66.12813 206.91167 66.62813 207.61479Q67.12813 208.31792 67.84688 208.31792Q68.58125 208.31792 69.06563 207.61479Q69.56563 206.91167 69.56563 204.80229Q69.56563 202.67729 69.06563 201.98979Q68.58125 201.28667 67.83125 201.28667Q67.1125 201.28667 66.675 201.89604Q66.12813 202.67729 66.12813 204.80229ZM72.05 204.80229Q72.05 203.27104 72.3625 202.34917Q72.675 201.41167 73.28438 200.91167Q73.90938 200.41167 74.84688 200.41167Q75.53438 200.41167 76.05 200.69292Q76.58125 200.97417 76.925 201.50542Q77.26875 202.02104 77.45625 202.77104Q77.64375 203.52104 77.64375 204.80229Q77.64375 206.31792 77.33125 207.23979Q77.03438 208.16167 76.40938 208.67729Q75.8 209.17729 74.84688 209.17729Q73.6125 209.17729 72.89375 208.28667Q72.05 207.22417 72.05 204.80229ZM73.12813 204.80229Q73.12813 206.91167 73.62813 207.61479Q74.12813 208.31792 74.84688 208.31792Q75.58125 208.31792 76.06563 207.61479Q76.56563 206.91167 76.56563 204.80229Q76.56563 202.67729 76.06563 201.98979Q75.58125 201.28667 74.83125 201.28667Q74.1125 201.28667 73.675 201.89604Q73.12813 202.67729 73.12813 204.80229Z" fill-rule="nonzero"/><path fill="#000000" d="M51.05 159.06438L52.1125 158.92375Q52.284374 159.81438 52.721874 160.22063Q53.159374 160.61125 53.784374 160.61125Q54.534374 160.61125 55.05 160.09563Q55.565624 159.58 55.565624 158.81438Q55.565624 158.09563 55.08125 157.62688Q54.6125 157.1425 53.878124 157.1425Q53.58125 157.1425 53.128124 157.2675L53.253124 156.33Q53.3625 156.34563 53.425 156.34563Q54.096874 156.34563 54.628124 156.00188Q55.175 155.6425 55.175 154.90813Q55.175 154.33 54.784374 153.955Q54.39375 153.56438 53.76875 153.56438Q53.159374 153.56438 52.7375 153.955Q52.33125 154.34563 52.221874 155.11125L51.159374 154.92375Q51.346874 153.87688 52.034374 153.29875Q52.721874 152.705 53.7375 152.705Q54.440624 152.705 55.034374 153.0175Q55.628124 153.31438 55.940624 153.83Q56.253124 154.34563 56.253124 154.93938Q56.253124 155.48625 55.95625 155.955Q55.659374 156.40813 55.08125 156.67375Q55.83125 156.84563 56.253124 157.40813Q56.675 157.955 56.675 158.79875Q56.675 159.92375 55.846874 160.705Q55.034374 161.48625 53.784374 161.48625Q52.659374 161.48625 51.909374 160.81438Q51.159374 160.12688 51.05 159.06438ZM58.05 157.09563Q58.05 155.56438 58.3625 154.6425Q58.675 153.705 59.284374 153.205Q59.909374 152.705 60.846874 152.705Q61.534374 152.705 62.05 152.98625Q62.58125 153.2675 62.925 153.79875Q63.26875 154.31438 63.45625 155.06438Q63.64375 155.81438 63.64375 157.09563Q63.64375 158.61125 63.33125 159.53313Q63.034374 160.455 62.409374 160.97063Q61.8 161.47063 60.846874 161.47063Q59.6125 161.47063 58.89375 160.58Q58.05 159.5175 58.05 157.09563ZM59.128124 157.09563Q59.128124 159.205 59.628124 159.90813Q60.128124 160.61125 60.846874 160.61125Q61.58125 160.61125 62.065624 159.90813Q62.565624 159.205 62.565624 157.09563Q62.565624 154.97063 62.065624 154.28313Q61.58125 153.58 60.83125 153.58Q60.1125 153.58 59.675 154.18938Q59.128124 154.97063 59.128124 157.09563ZM65.05 157.09563Q65.05 155.56438 65.3625 154.6425Q65.675 153.705 66.28438 153.205Q66.90938 152.705 67.84688 152.705Q68.53438 152.705 69.05 152.98625Q69.58125 153.2675 69.925 153.79875Q70.26875 154.31438 70.45625 155.06438Q70.64375 155.81438 70.64375 157.09563Q70.64375 158.61125 70.33125 159.53313Q70.03438 160.455 69.40938 160.97063Q68.8 161.47063 67.84688 161.47063Q66.6125 161.47063 65.89375 160.58Q65.05 159.5175 65.05 157.09563ZM66.12813 157.09563Q66.12813 159.205 66.62813 159.90813Q67.12813 160.61125 67.84688 160.61125Q68.58125 160.61125 69.06563 159.90813Q69.56563 159.205 69.56563 157.09563Q69.56563 154.97063 69.06563 154.28313Q68.58125 153.58 67.83125 153.58Q67.1125 153.58 66.675 154.18938Q66.12813 154.97063 66.12813 157.09563ZM72.05 157.09563Q72.05 155.56438 72.3625 154.6425Q72.675 153.705 73.28438 153.205Q73.90938 152.705 74.84688 152.705Q75.53438 152.705 76.05 152.98625Q76.58125 153.2675 76.925 153.79875Q77.26875 154.31438 77.45625 155.06438Q77.64375 155.81438 77.64375 157.09563Q77.64375 158.61125 77.33125 159.53313Q77.03438 160.455 76.40938 160.97063Q75.8 161.47063 74.84688 161.47063Q73.6125 161.47063 72.89375 160.58Q72.05 159.5175 72.05 157.09563ZM73.12813 157.09563Q73.12813 159.205 73.62813 159.90813Q74.12813 160.61125 74.84688 160.61125Q75.58125 160.61125 76.06563 159.90813Q76.56563 159.205 76.56563 157.09563Q76.56563 154.97063 76.06563 154.28313Q75.58125 153.58 74.83125 153.58Q74.1125 153.58 73.675 154.18938Q73.12813 154.97063 73.12813 157.09563Z" fill-rule="nonzero"/><path fill="#000000" d="M54.425 113.62334L54.425 111.56084L50.70625 111.56084L50.70625 110.59209L54.628124 105.02959L55.4875 105.02959L55.4875 110.59209L56.64375 110.59209L56.64375 111.56084L55.4875 111.56084L55.4875 113.62334L54.425 113.62334ZM54.425 110.59209L54.425 106.73271L51.7375 110.59209L54.425 110.59209ZM58.05 109.38896Q58.05 107.85771 58.3625 106.93584Q58.675 105.99834 59.284374 105.49834Q59.909374 104.99834 60.846874 104.99834Q61.534374 104.99834 62.05 105.27959Q62.58125 105.56084 62.925 106.09209Q63.26875 106.60771 63.45625 107.35771Q63.64375 108.10771 63.64375 109.38896Q63.64375 110.90459 63.33125 111.82646Q63.034374 112.74834 62.409374 113.26396Q61.8 113.76396 60.846874 113.76396Q59.6125 113.76396 58.89375 112.87334Q58.05 111.81084 58.05 109.38896ZM59.128124 109.38896Q59.128124 111.49834 59.628124 112.20146Q60.128124 112.90459 60.846874 112.90459Q61.58125 112.90459 62.065624 112.20146Q62.565624 111.49834 62.565624 109.38896Q62.565624 107.26396 62.065624 106.57646Q61.58125 105.87334 60.83125 105.87334Q60.1125 105.87334 59.675 106.48271Q59.128124 107.26396 59.128124 109.38896ZM65.05 109.38896Q65.05 107.85771 65.3625 106.93584Q65.675 105.99834 66.28438 105.49834Q66.90938 104.99834 67.84688 104.99834Q68.53438 104.99834 69.05 105.27959Q69.58125 105.56084 69.925 106.09209Q70.26875 106.60771 70.45625 107.35771Q70.64375 108.10771 70.64375 109.38896Q70.64375 110.90459 70.33125 111.82646Q70.03438 112.74834 69.40938 113.26396Q68.8 113.76396 67.84688 113.76396Q66.6125 113.76396 65.89375 112.87334Q65.05 111.81084 65.05 109.38896ZM66.12813 109.38896Q66.12813 111.49834 66.62813 112.20146Q67.12813 112.90459 67.84688 112.90459Q68.58125 112.90459 69.06563 112.20146Q69.56563 111.49834 69.56563 109.38896Q69.56563 107.26396 69.06563 106.57646Q68.58125 105.87334 67.83125 105.87334Q67.1125 105.87334 66.675 106.48271Q66.12813 107.26396 66.12813 109.38896ZM72.05 109.38896Q72.05 107.85771 72.3625 106.93584Q72.675 105.99834 73.28438 105.49834Q73.90938 104.99834 74.84688 104.99834Q75.53438 104.99834 76.05 105.27959Q76.58125 105.56084 76.925 106.09209Q77.26875 106.60771 77.45625 107.35771Q77.64375 108.10771 77.64375 109.38896Q77.64375 110.90459 77.33125 111.82646Q77.03438 112.74834 76.40938 113.26396Q75.8 113.76396 74.84688 113.76396Q73.6125 113.76396 72.89375 112.87334Q72.05 111.81084 72.05 109.38896ZM73.12813 109.38896Q73.12813 111.49834 73.62813 112.20146Q74.12813 112.90459 74.84688 112.90459Q75.58125 112.90459 76.06563 112.20146Q76.56563 111.49834 76.56563 109.38896Q76.56563 107.26396 76.06563 106.57646Q75.58125 105.87334 74.83125 105.87334Q74.1125 105.87334 73.675 106.48271Q73.12813 107.26396 73.12813 109.38896Z" fill-rule="nonzero"/><path fill="#000000" d="M51.05 63.666664L52.159374 63.572914Q52.284374 64.385414 52.721874 64.791664Q53.175 65.197914 53.815624 65.197914Q54.565624 65.197914 55.096874 64.61979Q55.628124 64.041664 55.628124 63.104164Q55.628124 62.197914 55.1125 61.68229Q54.6125 61.15104 53.784374 61.15104Q53.284374 61.15104 52.8625 61.385414Q52.45625 61.61979 52.221874 61.979164L51.2375 61.854164L52.065624 57.447914L56.346874 57.447914L56.346874 58.447914L52.909374 58.447914L52.45625 60.760414Q53.221874 60.21354 54.065624 60.21354Q55.190624 60.21354 55.95625 60.99479Q56.7375 61.77604 56.7375 63.010414Q56.7375 64.166664 56.065624 65.02604Q55.2375 66.05729 53.815624 66.05729Q52.64375 66.05729 51.89375 65.40104Q51.159374 64.74479 51.05 63.666664ZM58.05 61.68229Q58.05 60.15104 58.3625 59.229164Q58.675 58.291664 59.284374 57.791664Q59.909374 57.291664 60.846874 57.291664Q61.534374 57.291664 62.05 57.572914Q62.58125 57.854164 62.925 58.385414Q63.26875 58.90104 63.45625 59.65104Q63.64375 60.40104 63.64375 61.68229Q63.64375 63.197914 63.33125 64.11979Q63.034374 65.041664 62.409374 65.55729Q61.8 66.05729 60.846874 66.05729Q59.6125 66.05729 58.89375 65.166664Q58.05 64.104164 58.05 61.68229ZM59.128124 61.68229Q59.128124 63.791664 59.628124 64.49479Q60.128124 65.197914 60.846874 65.197914Q61.58125 65.197914 62.065624 64.49479Q62.565624 63.791664 62.565624 61.68229Q62.565624 59.55729 62.065624 58.86979Q61.58125 58.166664 60.83125 58.166664Q60.1125 58.166664 59.675 58.77604Q59.128124 59.55729 59.128124 61.68229ZM65.05 61.68229Q65.05 60.15104 65.3625 59.229164Q65.675 58.291664 66.28438 57.791664Q66.90938 57.291664 67.84688 57.291664Q68.53438 57.291664 69.05 57.572914Q69.58125 57.854164 69.925 58.385414Q70.26875 58.90104 70.45625 59.65104Q70.64375 60.40104 70.64375 61.68229Q70.64375 63.197914 70.33125 64.11979Q70.03438 65.041664 69.40938 65.55729Q68.8 66.05729 67.84688 66.05729Q66.6125 66.05729 65.89375 65.166664Q65.05 64.104164 65.05 61.68229ZM66.12813 61.68229Q66.12813 63.791664 66.62813 64.49479Q67.12813 65.197914 67.84688 65.197914Q68.58125 65.197914 69.06563 64.49479Q69.56563 63.791664 69.56563 61.68229Q69.56563 59.55729 69.06563 58.86979Q68.58125 58.166664 67.83125 58.166664Q67.1125 58.166664 66.675 58.77604Q66.12813 59.55729 66.12813 61.68229ZM72.05 61.68229Q72.05 60.15104 72.3625 59.229164Q72.675 58.291664 73.28438 57.791664Q73.90938 57.291664 74.84688 57.291664Q75.53438 57.291664 76.05 57.572914Q76.58125 57.854164 76.925 58.385414Q77.26875 58.90104 77.45625 59.65104Q77.64375 60.40104 77.64375 61.68229Q77.64375 63.197914 77.33125 64.11979Q77.03438 65.041664 76.40938 65.55729Q75.8 66.05729 74.84688 66.05729Q73.6125 66.05729 72.89375 65.166664Q72.05 64.104164 72.05 61.68229ZM73.12813 61.68229Q73.12813 63.791664 73.62813 64.49479Q74.12813 65.197914 74.84688 65.197914Q75.58125 65.197914 76.06563 64.49479Q76.56563 63.791664 76.56563 61.68229Q76.56563 59.55729 76.06563 58.86979Q75.58125 58.166664 74.83125 58.166664Q74.1125 58.166664 73.675 58.77604Q73.12813 59.55729 73.12813 61.68229Z" fill-rule="nonzero"/><path fill="#000000" d="M137.71175 317.45L136.66487 317.45L136.66487 310.73126Q136.27425 311.09064 135.64925 311.46564Q135.03987 311.825 134.5555 311.9969L134.5555 310.98126Q135.4305 310.5594 136.08675 309.98126Q136.75862 309.3875 137.03987 308.825L137.71175 308.825L137.71175 317.45ZM140.89925 315.46564L141.91487 315.3719Q142.03987 316.09064 142.39925 316.41876Q142.77425 316.73126 143.33675 316.73126Q143.82112 316.73126 144.1805 316.5125Q144.5555 316.27814 144.78987 315.91876Q145.02425 315.54376 145.1805 314.91876Q145.33675 314.27814 145.33675 313.6219Q145.33675 313.54376 145.33675 313.40314Q145.02425 313.90314 144.47737 314.23126Q143.9305 314.54376 143.28987 314.54376Q142.21175 314.54376 141.47737 313.77814Q140.743 312.9969 140.743 311.73126Q140.743 310.41876 141.50862 309.6219Q142.28987 308.825 143.44612 308.825Q144.27425 308.825 144.96175 309.27814Q145.66487 309.73126 146.02425 310.575Q146.38362 311.40314 146.38362 312.98126Q146.38362 314.6219 146.02425 315.60626Q145.6805 316.575 144.96175 317.09064Q144.25862 317.59064 143.32112 317.59064Q142.3055 317.59064 141.66487 317.04376Q141.02425 316.48126 140.89925 315.46564ZM145.21175 311.66876Q145.21175 310.7625 144.72737 310.23126Q144.25862 309.7 143.57112 309.7Q142.868 309.7 142.33675 310.27814Q141.82112 310.84064 141.82112 311.7625Q141.82112 312.575 142.32112 313.09064Q142.82112 313.60626 143.53987 313.60626Q144.27425 313.60626 144.743 313.09064Q145.21175 312.575 145.21175 311.66876ZM153.28987 316.4344L153.28987 317.45L147.60237 317.45Q147.60237 317.075 147.72737 316.71564Q147.94612 316.1375 148.41487 315.575Q148.89925 315.0125 149.8055 314.27814Q151.21175 313.1219 151.69612 312.45Q152.19612 311.77814 152.19612 311.1844Q152.19612 310.5594 151.743 310.1375Q151.28987 309.7 150.57112 309.7Q149.8055 309.7 149.35237 310.15314Q148.89925 310.60626 148.88362 311.41876L147.8055 311.3094Q147.91487 310.09064 148.63362 309.46564Q149.368 308.825 150.60237 308.825Q151.83675 308.825 152.5555 309.5125Q153.27425 310.2 153.27425 311.21564Q153.27425 311.73126 153.0555 312.23126Q152.85237 312.71564 152.35237 313.27814Q151.868 313.825 150.743 314.77814Q149.78987 315.575 149.50862 315.8719Q149.243 316.15314 149.07112 316.4344L153.28987 316.4344ZM154.89925 315.46564L155.91487 315.3719Q156.03987 316.09064 156.39925 316.41876Q156.77425 316.73126 157.33675 316.73126Q157.82112 316.73126 158.1805 316.5125Q158.5555 316.27814 158.78987 315.91876Q159.02425 315.54376 159.1805 314.91876Q159.33675 314.27814 159.33675 313.6219Q159.33675 313.54376 159.33675 313.40314Q159.02425 313.90314 158.47737 314.23126Q157.9305 314.54376 157.28987 314.54376Q156.21175 314.54376 155.47737 313.77814Q154.743 312.9969 154.743 311.73126Q154.743 310.41876 155.50862 309.6219Q156.28987 308.825 157.44612 308.825Q158.27425 308.825 158.96175 309.27814Q159.66487 309.73126 160.02425 310.575Q160.38362 311.40314 160.38362 312.98126Q160.38362 314.6219 160.02425 315.60626Q159.6805 316.575 158.96175 317.09064Q158.25862 317.59064 157.32112 317.59064Q156.3055 317.59064 155.66487 317.04376Q155.02425 316.48126 154.89925 315.46564ZM159.21175 311.66876Q159.21175 310.7625 158.72737 310.23126Q158.25862 309.7 157.57112 309.7Q156.868 309.7 156.33675 310.27814Q155.82112 310.84064 155.82112 311.7625Q155.82112 312.575 156.32112 313.09064Q156.82112 313.60626 157.53987 313.60626Q158.27425 313.60626 158.743 313.09064Q159.21175 312.575 159.21175 311.66876Z" fill-rule="nonzero"/><path fill="#000000" d="M230.59024 317.45L229.54337 317.45L229.54337 310.73126Q229.15274 311.09064 228.52774 311.46564Q227.91837 311.825 227.43399 311.9969L227.43399 310.98126Q228.30899 310.5594 228.96524 309.98126Q229.63712 309.3875 229.91837 308.825L230.59024 308.825L230.59024 317.45ZM233.77774 315.46564L234.79337 315.3719Q234.91837 316.09064 235.27774 316.41876Q235.65274 316.73126 236.21524 316.73126Q236.69962 316.73126 237.05899 316.5125Q237.43399 316.27814 237.66837 315.91876Q237.90274 315.54376 238.05899 314.91876Q238.21524 314.27814 238.21524 313.6219Q238.21524 313.54376 238.21524 313.40314Q237.90274 313.90314 237.35587 314.23126Q236.80899 314.54376 236.16837 314.54376Q235.09024 314.54376 234.35587 313.77814Q233.62149 312.9969 233.62149 311.73126Q233.62149 310.41876 234.38712 309.6219Q235.16837 308.825 236.32462 308.825Q237.15274 308.825 237.84024 309.27814Q238.54337 309.73126 238.90274 310.575Q239.26212 311.40314 239.26212 312.98126Q239.26212 314.6219 238.90274 315.60626Q238.55899 316.575 237.84024 317.09064Q237.13712 317.59064 236.19962 317.59064Q235.18399 317.59064 234.54337 317.04376Q233.90274 316.48126 233.77774 315.46564ZM238.09024 311.66876Q238.09024 310.7625 237.60587 310.23126Q237.13712 309.7 236.44962 309.7Q235.74649 309.7 235.21524 310.27814Q234.69962 310.84064 234.69962 311.7625Q234.69962 312.575 235.19962 313.09064Q235.69962 313.60626 236.41837 313.60626Q237.15274 313.60626 237.62149 313.09064Q238.09024 312.575 238.09024 311.66876ZM240.62149 315.1844L241.68399 315.04376Q241.85587 315.9344 242.29337 316.34064Q242.73087 316.73126 243.35587 316.73126Q244.10587 316.73126 244.62149 316.21564Q245.13712 315.7 245.13712 314.9344Q245.13712 314.21564 244.65274 313.7469Q244.18399 313.2625 243.44962 313.2625Q243.15274 313.2625 242.69962 313.3875L242.82462 312.45Q242.93399 312.46564 242.99649 312.46564Q243.66837 312.46564 244.19962 312.1219Q244.74649 311.7625 244.74649 311.02814Q244.74649 310.45 244.35587 310.075Q243.96524 309.6844 243.34024 309.6844Q242.73087 309.6844 242.30899 310.075Q241.90274 310.46564 241.79337 311.23126L240.73087 311.04376Q240.91837 309.9969 241.60587 309.41876Q242.29337 308.825 243.30899 308.825Q244.01212 308.825 244.60587 309.1375Q245.19962 309.4344 245.51212 309.95Q245.82462 310.46564 245.82462 311.0594Q245.82462 311.60626 245.52774 312.075Q245.23087 312.52814 244.65274 312.79376Q245.40274 312.96564 245.82462 313.52814Q246.24649 314.075 246.24649 314.91876Q246.24649 316.04376 245.41837 316.825Q244.60587 317.60626 243.35587 317.60626Q242.23087 317.60626 241.48087 316.9344Q240.73087 316.2469 240.62149 315.1844ZM247.62149 313.21564Q247.62149 311.6844 247.93399 310.7625Q248.24649 309.825 248.85587 309.325Q249.48087 308.825 250.41837 308.825Q251.10587 308.825 251.62149 309.10626Q252.15274 309.3875 252.49649 309.91876Q252.84024 310.4344 253.02774 311.1844Q253.21524 311.9344 253.21524 313.21564Q253.21524 314.73126 252.90274 315.65314Q252.60587 316.575 251.98087 317.09064Q251.37149 317.59064 250.41837 317.59064Q249.18399 317.59064 248.46524 316.7Q247.62149 315.6375 247.62149 313.21564ZM248.69962 313.21564Q248.69962 315.325 249.19962 316.02814Q249.69962 316.73126 250.41837 316.73126Q251.15274 316.73126 251.63712 316.02814Q252.13712 315.325 252.13712 313.21564Q252.13712 311.09064 251.63712 310.40314Q251.15274 309.7 250.40274 309.7Q249.68399 309.7 249.24649 310.3094Q248.69962 311.09064 248.69962 313.21564Z" fill-rule="nonzero"/><path fill="#000000" d="M323.46875 317.45L322.42188 317.45L322.42188 310.73126Q322.03125 311.09064 321.40625 311.46564Q320.79688 311.825 320.3125 311.9969L320.3125 310.98126Q321.1875 310.5594 321.84375 309.98126Q322.51562 309.3875 322.79688 308.825L323.46875 308.825L323.46875 317.45ZM326.65625 315.46564L327.67188 315.3719Q327.79688 316.09064 328.15625 316.41876Q328.53125 316.73126 329.09375 316.73126Q329.57812 316.73126 329.9375 316.5125Q330.3125 316.27814 330.54688 315.91876Q330.78125 315.54376 330.9375 314.91876Q331.09375 314.27814 331.09375 313.6219Q331.09375 313.54376 331.09375 313.40314Q330.78125 313.90314 330.23438 314.23126Q329.6875 314.54376 329.04688 314.54376Q327.96875 314.54376 327.23438 313.77814Q326.5 312.9969 326.5 311.73126Q326.5 310.41876 327.26562 309.6219Q328.04688 308.825 329.20312 308.825Q330.03125 308.825 330.71875 309.27814Q331.42188 309.73126 331.78125 310.575Q332.14062 311.40314 332.14062 312.98126Q332.14062 314.6219 331.78125 315.60626Q331.4375 316.575 330.71875 317.09064Q330.01562 317.59064 329.07812 317.59064Q328.0625 317.59064 327.42188 317.04376Q326.78125 316.48126 326.65625 315.46564ZM330.96875 311.66876Q330.96875 310.7625 330.48438 310.23126Q330.01562 309.7 329.32812 309.7Q328.625 309.7 328.09375 310.27814Q327.57812 310.84064 327.57812 311.7625Q327.57812 312.575 328.07812 313.09064Q328.57812 313.60626 329.29688 313.60626Q330.03125 313.60626 330.5 313.09064Q330.96875 312.575 330.96875 311.66876ZM333.5 315.1844L334.5625 315.04376Q334.73438 315.9344 335.17188 316.34064Q335.60938 316.73126 336.23438 316.73126Q336.98438 316.73126 337.5 316.21564Q338.01562 315.7 338.01562 314.9344Q338.01562 314.21564 337.53125 313.7469Q337.0625 313.2625 336.32812 313.2625Q336.03125 313.2625 335.57812 313.3875L335.70312 312.45Q335.8125 312.46564 335.875 312.46564Q336.54688 312.46564 337.07812 312.1219Q337.625 311.7625 337.625 311.02814Q337.625 310.45 337.23438 310.075Q336.84375 309.6844 336.21875 309.6844Q335.60938 309.6844 335.1875 310.075Q334.78125 310.46564 334.67188 311.23126L333.60938 311.04376Q333.79688 309.9969 334.48438 309.41876Q335.17188 308.825 336.1875 308.825Q336.89062 308.825 337.48438 309.1375Q338.07812 309.4344 338.39062 309.95Q338.70312 310.46564 338.70312 311.0594Q338.70312 311.60626 338.40625 312.075Q338.10938 312.52814 337.53125 312.79376Q338.28125 312.96564 338.70312 313.52814Q339.125 314.075 339.125 314.91876Q339.125 316.04376 338.29688 316.825Q337.48438 317.60626 336.23438 317.60626Q335.10938 317.60626 334.35938 316.9344Q333.60938 316.2469 333.5 315.1844ZM344.46875 317.45L343.42188 317.45L343.42188 310.73126Q343.03125 311.09064 342.40625 311.46564Q341.79688 311.825 341.3125 311.9969L341.3125 310.98126Q342.1875 310.5594 342.84375 309.98126Q343.51562 309.3875 343.79688 308.825L344.46875 308.825L344.46875 317.45Z" fill-rule="nonzero"/><path fill="#000000" d="M416.34726 317.45L415.30038 317.45L415.30038 310.73126Q414.90976 311.09064 414.28476 311.46564Q413.67538 311.825 413.191 311.9969L413.191 310.98126Q414.066 310.5594 414.72226 309.98126Q415.39413 309.3875 415.67538 308.825L416.34726 308.825L416.34726 317.45ZM419.53476 315.46564L420.55038 315.3719Q420.67538 316.09064 421.03476 316.41876Q421.40976 316.73126 421.97226 316.73126Q422.45663 316.73126 422.816 316.5125Q423.191 316.27814 423.42538 315.91876Q423.65976 315.54376 423.816 314.91876Q423.97226 314.27814 423.97226 313.6219Q423.97226 313.54376 423.97226 313.40314Q423.65976 313.90314 423.11288 314.23126Q422.566 314.54376 421.92538 314.54376Q420.84726 314.54376 420.11288 313.77814Q419.3785 312.9969 419.3785 311.73126Q419.3785 310.41876 420.14413 309.6219Q420.92538 308.825 422.08163 308.825Q422.90976 308.825 423.59726 309.27814Q424.30038 309.73126 424.65976 310.575Q425.01913 311.40314 425.01913 312.98126Q425.01913 314.6219 424.65976 315.60626Q424.316 316.575 423.59726 317.09064Q422.89413 317.59064 421.95663 317.59064Q420.941 317.59064 420.30038 317.04376Q419.65976 316.48126 419.53476 315.46564ZM423.84726 311.66876Q423.84726 310.7625 423.36288 310.23126Q422.89413 309.7 422.20663 309.7Q421.5035 309.7 420.97226 310.27814Q420.45663 310.84064 420.45663 311.7625Q420.45663 312.575 420.95663 313.09064Q421.45663 313.60626 422.17538 313.60626Q422.90976 313.60626 423.3785 313.09064Q423.84726 312.575 423.84726 311.66876ZM426.3785 315.1844L427.441 315.04376Q427.61288 315.9344 428.05038 316.34064Q428.48788 316.73126 429.11288 316.73126Q429.86288 316.73126 430.3785 316.21564Q430.89413 315.7 430.89413 314.9344Q430.89413 314.21564 430.40976 313.7469Q429.941 313.2625 429.20663 313.2625Q428.90976 313.2625 428.45663 313.3875L428.58163 312.45Q428.691 312.46564 428.7535 312.46564Q429.42538 312.46564 429.95663 312.1219Q430.5035 311.7625 430.5035 311.02814Q430.5035 310.45 430.11288 310.075Q429.72226 309.6844 429.09726 309.6844Q428.48788 309.6844 428.066 310.075Q427.65976 310.46564 427.55038 311.23126L426.48788 311.04376Q426.67538 309.9969 427.36288 309.41876Q428.05038 308.825 429.066 308.825Q429.76913 308.825 430.36288 309.1375Q430.95663 309.4344 431.26913 309.95Q431.58163 310.46564 431.58163 311.0594Q431.58163 311.60626 431.28476 312.075Q430.98788 312.52814 430.40976 312.79376Q431.15976 312.96564 431.58163 313.52814Q432.0035 314.075 432.0035 314.91876Q432.0035 316.04376 431.17538 316.825Q430.36288 317.60626 429.11288 317.60626Q427.98788 317.60626 427.23788 316.9344Q426.48788 316.2469 426.3785 315.1844ZM438.92538 316.4344L438.92538 317.45L433.23788 317.45Q433.23788 317.075 433.36288 316.71564Q433.58163 316.1375 434.05038 315.575Q434.53476 315.0125 435.441 314.27814Q436.84726 313.1219 437.33163 312.45Q437.83163 311.77814 437.83163 311.1844Q437.83163 310.5594 437.3785 310.1375Q436.92538 309.7 436.20663 309.7Q435.441 309.7 434.98788 310.15314Q434.53476 310.60626 434.51913 311.41876L433.441 311.3094Q433.55038 310.09064 434.26913 309.46564Q435.0035 308.825 436.23788 308.825Q437.47226 308.825 438.191 309.5125Q438.90976 310.2 438.90976 311.21564Q438.90976 311.73126 438.691 312.23126Q438.48788 312.71564 437.98788 313.27814Q437.5035 313.825 436.3785 314.77814Q435.42538 315.575 435.14413 315.8719Q434.8785 316.15314 434.70663 316.4344L438.92538 316.4344Z" fill-rule="nonzero"/><path fill="#000000" d="M509.22577 317.45L508.1789 317.45L508.1789 310.73126Q507.78827 311.09064 507.16327 311.46564Q506.5539 311.825 506.06952 311.9969L506.06952 310.98126Q506.94452 310.5594 507.60077 309.98126Q508.27264 309.3875 508.5539 308.825L509.22577 308.825L509.22577 317.45ZM512.41327 315.46564L513.4289 315.3719Q513.5539 316.09064 513.91327 316.41876Q514.28827 316.73126 514.85077 316.73126Q515.33514 316.73126 515.6945 316.5125Q516.0695 316.27814 516.3039 315.91876Q516.53827 315.54376 516.6945 314.91876Q516.85077 314.27814 516.85077 313.6219Q516.85077 313.54376 516.85077 313.40314Q516.53827 313.90314 515.9914 314.23126Q515.4445 314.54376 514.8039 314.54376Q513.72577 314.54376 512.9914 313.77814Q512.257 312.9969 512.257 311.73126Q512.257 310.41876 513.02264 309.6219Q513.8039 308.825 514.96014 308.825Q515.78827 308.825 516.47577 309.27814Q517.1789 309.73126 517.53827 310.575Q517.89764 311.40314 517.89764 312.98126Q517.89764 314.6219 517.53827 315.60626Q517.1945 316.575 516.47577 317.09064Q515.77264 317.59064 514.83514 317.59064Q513.8195 317.59064 513.1789 317.04376Q512.53827 316.48126 512.41327 315.46564ZM516.72577 311.66876Q516.72577 310.7625 516.2414 310.23126Q515.77264 309.7 515.08514 309.7Q514.382 309.7 513.85077 310.27814Q513.33514 310.84064 513.33514 311.7625Q513.33514 312.575 513.83514 313.09064Q514.33514 313.60626 515.0539 313.60626Q515.78827 313.60626 516.257 313.09064Q516.72577 312.575 516.72577 311.66876ZM519.257 315.1844L520.3195 315.04376Q520.4914 315.9344 520.9289 316.34064Q521.3664 316.73126 521.9914 316.73126Q522.7414 316.73126 523.257 316.21564Q523.77264 315.7 523.77264 314.9344Q523.77264 314.21564 523.28827 313.7469Q522.8195 313.2625 522.08514 313.2625Q521.78827 313.2625 521.33514 313.3875L521.46014 312.45Q521.5695 312.46564 521.632 312.46564Q522.3039 312.46564 522.83514 312.1219Q523.382 311.7625 523.382 311.02814Q523.382 310.45 522.9914 310.075Q522.60077 309.6844 521.97577 309.6844Q521.3664 309.6844 520.9445 310.075Q520.53827 310.46564 520.4289 311.23126L519.3664 311.04376Q519.5539 309.9969 520.2414 309.41876Q520.9289 308.825 521.9445 308.825Q522.64764 308.825 523.2414 309.1375Q523.83514 309.4344 524.14764 309.95Q524.46014 310.46564 524.46014 311.0594Q524.46014 311.60626 524.16327 312.075Q523.8664 312.52814 523.28827 312.79376Q524.03827 312.96564 524.46014 313.52814Q524.882 314.075 524.882 314.91876Q524.882 316.04376 524.0539 316.825Q523.2414 317.60626 521.9914 317.60626Q520.8664 317.60626 520.1164 316.9344Q519.3664 316.2469 519.257 315.1844ZM526.257 315.1844L527.3195 315.04376Q527.4914 315.9344 527.9289 316.34064Q528.3664 316.73126 528.9914 316.73126Q529.7414 316.73126 530.257 316.21564Q530.77264 315.7 530.77264 314.9344Q530.77264 314.21564 530.28827 313.7469Q529.8195 313.2625 529.08514 313.2625Q528.78827 313.2625 528.33514 313.3875L528.46014 312.45Q528.5695 312.46564 528.632 312.46564Q529.3039 312.46564 529.83514 312.1219Q530.382 311.7625 530.382 311.02814Q530.382 310.45 529.9914 310.075Q529.60077 309.6844 528.97577 309.6844Q528.3664 309.6844 527.9445 310.075Q527.53827 310.46564 527.4289 311.23126L526.3664 311.04376Q526.5539 309.9969 527.2414 309.41876Q527.9289 308.825 528.9445 308.825Q529.64764 308.825 530.2414 309.1375Q530.83514 309.4344 531.14764 309.95Q531.46014 310.46564 531.46014 311.0594Q531.46014 311.60626 531.16327 312.075Q530.8664 312.52814 530.28827 312.79376Q531.03827 312.96564 531.46014 313.52814Q531.882 314.075 531.882 314.91876Q531.882 316.04376 531.0539 316.825Q530.2414 317.60626 528.9914 317.60626Q527.8664 317.60626 527.1164 316.9344Q526.3664 316.2469 526.257 315.1844Z" fill-rule="nonzero"/><path fill="#757575" d="M20.08125 37.55L20.08125 23.2375L22.01875 23.2375L29.534374 34.471874L29.534374 23.2375L31.346874 23.2375L31.346874 37.55L29.409374 37.55L21.89375 26.3L21.89375 37.55L20.08125 37.55ZM39.659374 37.55L39.659374 36.01875Q38.45625 37.784374 36.378124 37.784374Q35.45625 37.784374 34.659374 37.440624Q33.8625 37.08125 33.471874 36.55Q33.096874 36.01875 32.940624 35.2375Q32.83125 34.721874 32.83125 33.596874L32.83125 27.175L34.58125 27.175L34.58125 32.925Q34.58125 34.3 34.690624 34.784374Q34.8625 35.471874 35.39375 35.878124Q35.940624 36.26875 36.721874 36.26875Q37.51875 36.26875 38.20625 35.8625Q38.909374 35.45625 39.190624 34.76875Q39.4875 34.065624 39.4875 32.7375L39.4875 27.175L41.2375 27.175L41.2375 37.55L39.659374 37.55ZM42.8625 37.55L42.8625 27.175L44.440624 27.175L44.440624 28.628124Q44.925 27.878124 45.7375 27.409374Q46.55 26.940624 47.58125 26.940624Q48.7375 26.940624 49.471874 27.425Q50.20625 27.89375 50.51875 28.753124Q51.753124 26.940624 53.721874 26.940624Q55.26875 26.940624 56.096874 27.8Q56.925 28.659374 56.925 30.425L56.925 37.55L55.175 37.55L55.175 31.01875Q55.175 29.95625 55.003124 29.503124Q54.83125 29.034374 54.378124 28.753124Q53.940624 28.471874 53.33125 28.471874Q52.2375 28.471874 51.503124 29.20625Q50.784374 29.925 50.784374 31.51875L50.784374 37.55L49.034374 37.55L49.034374 30.815624Q49.034374 29.64375 48.596874 29.065624Q48.175 28.471874 47.190624 28.471874Q46.45625 28.471874 45.815624 28.8625Q45.190624 29.253124 44.909374 30.003124Q44.628124 30.753124 44.628124 32.175L44.628124 37.55L42.8625 37.55ZM60.4875 37.55L58.8625 37.55L58.8625 23.2375L60.6125 23.2375L60.6125 28.346874Q61.7375 26.940624 63.45625 26.940624Q64.40938 26.940624 65.26875 27.33125Q66.12813 27.721874 66.675 28.425Q67.22188 29.1125 67.53438 30.096874Q67.84688 31.08125 67.84688 32.20625Q67.84688 34.878124 66.53438 36.33125Q65.22188 37.784374 63.378124 37.784374Q61.534374 37.784374 60.4875 36.253124L60.4875 37.55ZM60.471874 32.284374Q60.471874 34.14375 60.971874 34.9875Q61.815624 36.33125 63.221874 36.33125Q64.37813 36.33125 65.20625 35.33125Q66.05 34.33125 66.05 32.346874Q66.05 30.315624 65.2375 29.3625Q64.44063 28.39375 63.3 28.39375Q62.14375 28.39375 61.3 29.39375Q60.471874 30.39375 60.471874 32.284374ZM76.97188 34.20625L78.78438 34.440624Q78.3625 36.01875 77.19063 36.909374Q76.03438 37.784374 74.22188 37.784374Q71.95625 37.784374 70.6125 36.39375Q69.28438 34.9875 69.28438 32.45625Q69.28438 29.83125 70.62813 28.39375Q71.97188 26.940624 74.12813 26.940624Q76.20625 26.940624 77.51875 28.3625Q78.84688 29.76875 78.84688 32.346874Q78.84688 32.503124 78.83125 32.815624L71.09688 32.815624Q71.19063 34.51875 72.06563 35.425Q72.94063 36.33125 74.2375 36.33125Q75.20625 36.33125 75.87813 35.83125Q76.56563 35.315624 76.97188 34.20625ZM71.19063 31.3625L76.9875 31.3625Q76.87813 30.065624 76.33125 29.409374Q75.4875 28.39375 74.14375 28.39375Q72.94063 28.39375 72.1125 29.20625Q71.28438 30.003124 71.19063 31.3625ZM80.84688 37.55L80.84688 27.175L82.425 27.175L82.425 28.753124Q83.03438 27.64375 83.55 27.3Q84.06563 26.940624 84.675 26.940624Q85.56563 26.940624 86.4875 27.503124L85.87813 29.14375Q85.2375 28.753124 84.59688 28.753124Q84.01875 28.753124 83.55 29.1125Q83.09688 29.45625 82.89375 30.065624Q82.6125 31.003124 82.6125 32.1125L82.6125 37.55L80.84688 37.55ZM93.22188 32.3625Q93.22188 29.4875 94.81563 28.096874Q96.15938 26.940624 98.08125 26.940624Q100.22188 26.940624 101.56563 28.346874Q102.925 29.753124 102.925 32.221874Q102.925 34.221874 102.33125 35.378124Q101.7375 36.51875 100.58125 37.159374Q99.44063 37.784374 98.08125 37.784374Q95.89375 37.784374 94.55 36.39375Q93.22188 34.9875 93.22188 32.3625ZM95.01875 32.3625Q95.01875 34.3625 95.87813 35.346874Q96.75313 36.33125 98.08125 36.33125Q99.39375 36.33125 100.25313 35.346874Q101.12813 34.346874 101.12813 32.3Q101.12813 30.378124 100.25313 29.39375Q99.37813 28.39375 98.08125 28.39375Q96.75313 28.39375 95.87813 29.39375Q95.01875 30.378124 95.01875 32.3625ZM105.28438 37.55L105.28438 28.55L103.7375 28.55L103.7375 27.175L105.28438 27.175L105.28438 26.08125Q105.28438 25.034374 105.47188 24.51875Q105.72188 23.83125 106.3625 23.409374Q107.00313 22.9875 108.15938 22.9875Q108.90938 22.9875 109.8 23.159374L109.53438 24.690624Q108.9875 24.596874 108.50313 24.596874Q107.70625 24.596874 107.3625 24.940624Q107.03438 25.284374 107.03438 26.221874L107.03438 27.175L109.06563 27.175L109.06563 28.55L107.03438 28.55L107.03438 37.55L105.28438 37.55ZM117.01875 37.55L117.01875 23.2375L122.39375 23.2375Q124.03438 23.2375 125.01875 23.675Q126.00313 24.096874 126.56563 25.003124Q127.12813 25.909374 127.12813 26.89375Q127.12813 27.815624 126.62813 28.628124Q126.14375 29.440624 125.12813 29.925Q126.425 30.315624 127.12813 31.2375Q127.83125 32.14375 127.83125 33.39375Q127.83125 34.409374 127.39375 35.26875Q126.97188 36.128124 126.34688 36.596874Q125.72188 37.065624 124.78438 37.315624Q123.84688 37.55 122.47188 37.55L117.01875 37.55ZM118.90938 29.253124L122.00313 29.253124Q123.26875 29.253124 123.81563 29.08125Q124.53438 28.8625 124.89375 28.378124Q125.26875 27.878124 125.26875 27.1125Q125.26875 26.409374 124.925 25.8625Q124.58125 25.315624 123.94063 25.128124Q123.31563 24.925 121.76875 24.925L118.90938 24.925L118.90938 29.253124ZM118.90938 35.8625L122.47188 35.8625Q123.39375 35.8625 123.76875 35.784374Q124.425 35.675 124.8625 35.409374Q125.3 35.128124 125.58125 34.6125Q125.8625 34.08125 125.8625 33.39375Q125.8625 32.596874 125.45625 32.003124Q125.05 31.409374 124.31563 31.175Q123.58125 30.940624 122.22188 30.940624L118.90938 30.940624L118.90938 35.8625ZM136.64375 36.26875Q135.65938 37.096874 134.75313 37.440624Q133.84688 37.784374 132.81563 37.784374Q131.1125 37.784374 130.19063 36.95625Q129.26875 36.1125 129.26875 34.815624Q129.26875 34.05 129.6125 33.425Q129.97188 32.8 130.53438 32.425Q131.09688 32.034374 131.8 31.83125Q132.31563 31.70625 133.3625 31.565624Q135.4875 31.315624 136.4875 30.971874Q136.50313 30.6125 136.50313 30.503124Q136.50313 29.440624 136.00313 28.9875Q135.33125 28.39375 134.00313 28.39375Q132.75313 28.39375 132.15938 28.83125Q131.58125 29.26875 131.3 30.378124L129.58125 30.14375Q129.81563 29.034374 130.34688 28.3625Q130.87813 27.675 131.89375 27.315624Q132.90938 26.940624 134.25313 26.940624Q135.58125 26.940624 136.40938 27.253124Q137.2375 27.565624 137.62813 28.05Q138.01875 28.51875 138.175 29.2375Q138.26875 29.690624 138.26875 30.8625L138.26875 33.20625Q138.26875 35.659374 138.37813 36.315624Q138.4875 36.95625 138.83125 37.55L136.9875 37.55Q136.72188 37.003124 136.64375 36.26875ZM136.4875 32.346874Q135.53438 32.7375 133.6125 33.003124Q132.53438 33.159374 132.08125 33.3625Q131.64375 33.55 131.39375 33.925Q131.14375 34.3 131.14375 34.76875Q131.14375 35.471874 131.675 35.940624Q132.20625 36.409374 133.2375 36.409374Q134.25313 36.409374 135.03438 35.971874Q135.83125 35.51875 136.20625 34.753124Q136.4875 34.14375 136.4875 32.9875L136.4875 32.346874ZM140.8625 37.55L140.8625 27.175L142.45625 27.175L142.45625 28.659374Q143.59688 26.940624 145.75313 26.940624Q146.69063 26.940624 147.47188 27.284374Q148.26875 27.6125 148.65938 28.159374Q149.05 28.70625 149.20625 29.45625Q149.3 29.95625 149.3 31.175L149.3 37.55L147.53438 37.55L147.53438 31.2375Q147.53438 30.159374 147.33125 29.628124Q147.12813 29.096874 146.59688 28.784374Q146.08125 28.471874 145.37813 28.471874Q144.25313 28.471874 143.44063 29.190624Q142.62813 29.89375 142.62813 31.878124L142.62813 37.55L140.8625 37.55ZM150.87813 37.55L150.87813 23.2375L152.64375 23.2375L152.64375 31.39375L156.8 27.175L159.06563 27.175L155.1125 31.01875L159.47188 37.55L157.3 37.55L153.87813 32.253124L152.64375 33.440624L152.64375 37.55L150.87813 37.55ZM166.45625 32.95625L168.2375 32.8Q168.3625 33.8625 168.81563 34.55Q169.28438 35.2375 170.25313 35.675Q171.2375 36.096874 172.47188 36.096874Q173.55 36.096874 174.37813 35.784374Q175.20625 35.45625 175.6125 34.89375Q176.01875 34.33125 176.01875 33.659374Q176.01875 32.9875 175.62813 32.4875Q175.2375 31.9875 174.34688 31.64375Q173.76875 31.409374 171.78438 30.940624Q169.81563 30.471874 169.03438 30.05Q168.00313 29.51875 167.50313 28.721874Q167.00313 27.925 167.00313 26.940624Q167.00313 25.846874 167.6125 24.909374Q168.22188 23.971874 169.40938 23.4875Q170.59688 22.9875 172.03438 22.9875Q173.62813 22.9875 174.84688 23.503124Q176.06563 24.01875 176.70625 25.01875Q177.3625 26.003124 177.40938 27.26875L175.59688 27.409374Q175.45625 26.05 174.6125 25.3625Q173.76875 24.659374 172.1125 24.659374Q170.39375 24.659374 169.59688 25.3Q168.81563 25.925 168.81563 26.8Q168.81563 27.58125 169.37813 28.08125Q169.925 28.58125 172.2375 29.096874Q174.55 29.6125 175.40938 30.003124Q176.65938 30.58125 177.25313 31.471874Q177.84688 32.346874 177.84688 33.503124Q177.84688 34.64375 177.19063 35.659374Q176.53438 36.675 175.3 37.2375Q174.08125 37.8 172.55 37.8Q170.6125 37.8 169.3 37.2375Q167.9875 36.659374 167.2375 35.51875Q166.4875 34.378124 166.45625 32.95625ZM186.65938 37.55L186.65938 36.01875Q185.45625 37.784374 183.37813 37.784374Q182.45625 37.784374 181.65938 37.440624Q180.8625 37.08125 180.47188 36.55Q180.09688 36.01875 179.94063 35.2375Q179.83125 34.721874 179.83125 33.596874L179.83125 27.175L181.58125 27.175L181.58125 32.925Q181.58125 34.3 181.69063 34.784374Q181.8625 35.471874 182.39375 35.878124Q182.94063 36.26875 183.72188 36.26875Q184.51875 36.26875 185.20625 35.8625Q185.90938 35.45625 186.19063 34.76875Q186.4875 34.065624 186.4875 32.7375L186.4875 27.175L188.2375 27.175L188.2375 37.55L186.65938 37.55ZM189.15938 34.45625L190.90938 34.175Q191.05 35.221874 191.72188 35.784374Q192.39375 36.33125 193.59688 36.33125Q194.8 36.33125 195.37813 35.846874Q195.97188 35.346874 195.97188 34.690624Q195.97188 34.096874 195.45625 33.753124Q195.09688 33.51875 193.65938 33.159374Q191.72188 32.659374 190.97188 32.315624Q190.2375 31.95625 189.84688 31.33125Q189.45625 30.690624 189.45625 29.925Q189.45625 29.2375 189.76875 28.64375Q190.09688 28.05 190.64375 27.659374Q191.05 27.3625 191.75313 27.159374Q192.47188 26.940624 193.28438 26.940624Q194.50313 26.940624 195.425 27.3Q196.34688 27.64375 196.78438 28.253124Q197.22188 28.846874 197.39375 29.846874L195.675 30.08125Q195.55 29.284374 194.9875 28.846874Q194.425 28.39375 193.40938 28.39375Q192.19063 28.39375 191.675 28.8Q191.15938 29.190624 191.15938 29.721874Q191.15938 30.065624 191.37813 30.346874Q191.58125 30.628124 192.05 30.815624Q192.31563 30.909374 193.59688 31.253124Q195.47188 31.753124 196.20625 32.08125Q196.94063 32.39375 197.3625 33.003124Q197.78438 33.596874 197.78438 34.503124Q197.78438 35.378124 197.26875 36.159374Q196.75313 36.940624 195.78438 37.3625Q194.81563 37.784374 193.59688 37.784374Q191.58125 37.784374 190.51875 36.940624Q189.45625 36.096874 189.15938 34.45625ZM199.8625 41.51875L199.8625 27.175L201.47188 27.175L201.47188 28.51875Q202.03438 27.7375 202.7375 27.346874Q203.45625 26.940624 204.47188 26.940624Q205.8 26.940624 206.81563 27.628124Q207.83125 28.315624 208.34688 29.565624Q208.87813 30.8 208.87813 32.284374Q208.87813 33.878124 208.3 35.159374Q207.7375 36.425 206.64375 37.1125Q205.55 37.784374 204.34688 37.784374Q203.47188 37.784374 202.76875 37.409374Q202.08125 37.034374 201.62813 36.471874L201.62813 41.51875L199.8625 41.51875ZM201.45625 32.425Q201.45625 34.425 202.26875 35.378124Q203.08125 36.33125 204.2375 36.33125Q205.40938 36.33125 206.2375 35.346874Q207.08125 34.3625 207.08125 32.26875Q207.08125 30.3 206.25313 29.315624Q205.44063 28.315624 204.31563 28.315624Q203.19063 28.315624 202.31563 29.378124Q201.45625 30.425 201.45625 32.425ZM217.97188 34.20625L219.78438 34.440624Q219.3625 36.01875 218.19063 36.909374Q217.03438 37.784374 215.22188 37.784374Q212.95625 37.784374 211.6125 36.39375Q210.28438 34.9875 210.28438 32.45625Q210.28438 29.83125 211.62813 28.39375Q212.97188 26.940624 215.12813 26.940624Q217.20625 26.940624 218.51875 28.3625Q219.84688 29.76875 219.84688 32.346874Q219.84688 32.503124 219.83125 32.815624L212.09688 32.815624Q212.19063 34.51875 213.06563 35.425Q213.94063 36.33125 215.2375 36.33125Q216.20625 36.33125 216.87813 35.83125Q217.56563 35.315624 217.97188 34.20625ZM212.19063 31.3625L217.9875 31.3625Q217.87813 30.065624 217.33125 29.409374Q216.4875 28.39375 215.14375 28.39375Q213.94063 28.39375 213.1125 29.20625Q212.28438 30.003124 212.19063 31.3625ZM221.8625 37.55L221.8625 27.175L223.45625 27.175L223.45625 28.659374Q224.59688 26.940624 226.75313 26.940624Q227.69063 26.940624 228.47188 27.284374Q229.26875 27.6125 229.65938 28.159374Q230.05 28.70625 230.20625 29.45625Q230.3 29.95625 230.3 31.175L230.3 37.55L228.53438 37.55L228.53438 31.2375Q228.53438 30.159374 228.33125 29.628124Q228.12813 29.096874 227.59688 28.784374Q227.08125 28.471874 226.37813 28.471874Q225.25313 28.471874 224.44063 29.190624Q223.62813 29.89375 223.62813 31.878124L223.62813 37.55L221.8625 37.55ZM231.15938 34.45625L232.90938 34.175Q233.05 35.221874 233.72188 35.784374Q234.39375 36.33125 235.59688 36.33125Q236.8 36.33125 237.37813 35.846874Q237.97188 35.346874 237.97188 34.690624Q237.97188 34.096874 237.45625 33.753124Q237.09688 33.51875 235.65938 33.159374Q233.72188 32.659374 232.97188 32.315624Q232.2375 31.95625 231.84688 31.33125Q231.45625 30.690624 231.45625 29.925Q231.45625 29.2375 231.76875 28.64375Q232.09688 28.05 232.64375 27.659374Q233.05 27.3625 233.75313 27.159374Q234.47188 26.940624 235.28438 26.940624Q236.50313 26.940624 237.425 27.3Q238.34688 27.64375 238.78438 28.253124Q239.22188 28.846874 239.39375 29.846874L237.675 30.08125Q237.55 29.284374 236.9875 28.846874Q236.425 28.39375 235.40938 28.39375Q234.19063 28.39375 233.675 28.8Q233.15938 29.190624 233.15938 29.721874Q233.15938 30.065624 233.37813 30.346874Q233.58125 30.628124 234.05 30.815624Q234.31563 30.909374 235.59688 31.253124Q237.47188 31.753124 238.20625 32.08125Q238.94063 32.39375 239.3625 33.003124Q239.78438 33.596874 239.78438 34.503124Q239.78438 35.378124 239.26875 36.159374Q238.75313 36.940624 237.78438 37.3625Q236.81563 37.784374 235.59688 37.784374Q233.58125 37.784374 232.51875 36.940624Q231.45625 36.096874 231.15938 34.45625ZM241.87813 25.253124L241.87813 23.2375L243.64375 23.2375L243.64375 25.253124L241.87813 25.253124ZM241.87813 37.55L241.87813 27.175L243.64375 27.175L243.64375 37.55L241.87813 37.55ZM245.22188 32.3625Q245.22188 29.4875 246.81563 28.096874Q248.15938 26.940624 250.08125 26.940624Q252.22188 26.940624 253.56563 28.346874Q254.925 29.753124 254.925 32.221874Q254.925 34.221874 254.33125 35.378124Q253.7375 36.51875 252.58125 37.159374Q251.44063 37.784374 250.08125 37.784374Q247.89375 37.784374 246.55 36.39375Q245.22188 34.9875 245.22188 32.3625ZM247.01875 32.3625Q247.01875 34.3625 247.87813 35.346874Q248.75313 36.33125 250.08125 36.33125Q251.39375 36.33125 252.25313 35.346874Q253.12813 34.346874 253.12813 32.3Q253.12813 30.378124 252.25313 29.39375Q251.37813 28.39375 250.08125 28.39375Q248.75313 28.39375 247.87813 29.39375Q247.01875 30.378124 247.01875 32.3625ZM256.8625 37.55L256.8625 27.175L258.45624 27.175L258.45624 28.659374Q259.59686 26.940624 261.7531 26.940624Q262.6906 26.940624 263.47186 27.284374Q264.26874 27.6125 264.65936 28.159374Q265.05 28.70625 265.20624 29.45625Q265.3 29.95625 265.3 31.175L265.3 37.55L263.53436 37.55L263.53436 31.2375Q263.53436 30.159374 263.33124 29.628124Q263.1281 29.096874 262.59686 28.784374Q262.08124 28.471874 261.3781 28.471874Q260.2531 28.471874 259.4406 29.190624Q258.6281 29.89375 258.6281 31.878124L258.6281 37.55L256.8625 37.55ZM266.15936 34.45625L267.90936 34.175Q268.05 35.221874 268.72186 35.784374Q269.39374 36.33125 270.59686 36.33125Q271.8 36.33125 272.3781 35.846874Q272.97186 35.346874 272.97186 34.690624Q272.97186 34.096874 272.45624 33.753124Q272.09686 33.51875 270.65936 33.159374Q268.72186 32.659374 267.97186 32.315624Q267.2375 31.95625 266.84686 31.33125Q266.45624 30.690624 266.45624 29.925Q266.45624 29.2375 266.76874 28.64375Q267.09686 28.05 267.64374 27.659374Q268.05 27.3625 268.7531 27.159374Q269.47186 26.940624 270.28436 26.940624Q271.5031 26.940624 272.425 27.3Q273.34686 27.64375 273.78436 28.253124Q274.22186 28.846874 274.39374 29.846874L272.675 30.08125Q272.55 29.284374 271.9875 28.846874Q271.425 28.39375 270.40936 28.39375Q269.1906 28.39375 268.675 28.8Q268.15936 29.190624 268.15936 29.721874Q268.15936 30.065624 268.3781 30.346874Q268.58124 30.628124 269.05 30.815624Q269.3156 30.909374 270.59686 31.253124Q272.47186 31.753124 273.20624 32.08125Q273.9406 32.39375 274.3625 33.003124Q274.78436 33.596874 274.78436 34.503124Q274.78436 35.378124 274.26874 36.159374Q273.7531 36.940624 272.78436 37.3625Q271.8156 37.784374 270.59686 37.784374Q268.58124 37.784374 267.51874 36.940624Q266.45624 36.096874 266.15936 34.45625ZM285.7531 37.55L281.8 27.175L283.65936 27.175L285.89374 33.39375Q286.2531 34.39375 286.55 35.471874Q286.78436 34.659374 287.20624 33.503124L289.5031 27.175L291.3156 27.175L287.39374 37.55L285.7531 37.55ZM291.15936 34.45625L292.90936 34.175Q293.05 35.221874 293.72186 35.784374Q294.39374 36.33125 295.59686 36.33125Q296.8 36.33125 297.3781 35.846874Q297.97186 35.346874 297.97186 34.690624Q297.97186 34.096874 297.45624 33.753124Q297.09686 33.51875 295.65936 33.159374Q293.72186 32.659374 292.97186 32.315624Q292.2375 31.95625 291.84686 31.33125Q291.45624 30.690624 291.45624 29.925Q291.45624 29.2375 291.76874 28.64375Q292.09686 28.05 292.64374 27.659374Q293.05 27.3625 293.7531 27.159374Q294.47186 26.940624 295.28436 26.940624Q296.5031 26.940624 297.425 27.3Q298.34686 27.64375 298.78436 28.253124Q299.22186 28.846874 299.39374 29.846874L297.675 30.08125Q297.55 29.284374 296.9875 28.846874Q296.425 28.39375 295.40936 28.39375Q294.1906 28.39375 293.675 28.8Q293.15936 29.190624 293.15936 29.721874Q293.15936 30.065624 293.3781 30.346874Q293.58124 30.628124 294.05 30.815624Q294.3156 30.909374 295.59686 31.253124Q297.47186 31.753124 298.20624 32.08125Q298.9406 32.39375 299.3625 33.003124Q299.78436 33.596874 299.78436 34.503124Q299.78436 35.378124 299.26874 36.159374Q298.7531 36.940624 297.78436 37.3625Q296.8156 37.784374 295.59686 37.784374Q293.58124 37.784374 292.51874 36.940624Q291.45624 36.096874 291.15936 34.45625ZM302.3625 37.55L302.3625 35.55L304.3625 35.55L304.3625 37.55L302.3625 37.55ZM318.1281 37.55L318.1281 31.4875L312.6125 23.2375L314.90936 23.2375L317.7375 27.55Q318.51874 28.753124 319.1906 29.971874Q319.83124 28.846874 320.7531 27.440624L323.53436 23.2375L325.7375 23.2375L320.01874 31.4875L320.01874 37.55L318.1281 37.55ZM334.97186 34.20625L336.78436 34.440624Q336.3625 36.01875 335.1906 36.909374Q334.03436 37.784374 332.22186 37.784374Q329.95624 37.784374 328.6125 36.39375Q327.28436 34.9875 327.28436 32.45625Q327.28436 29.83125 328.6281 28.39375Q329.97186 26.940624 332.1281 26.940624Q334.20624 26.940624 335.51874 28.3625Q336.84686 29.76875 336.84686 32.346874Q336.84686 32.503124 336.83124 32.815624L329.09686 32.815624Q329.1906 34.51875 330.0656 35.425Q330.9406 36.33125 332.2375 36.33125Q333.20624 36.33125 333.8781 35.83125Q334.5656 35.315624 334.97186 34.20625ZM329.1906 31.3625L334.9875 31.3625Q334.8781 30.065624 334.33124 29.409374Q333.4875 28.39375 332.14374 28.39375Q330.9406 28.39375 330.1125 29.20625Q329.28436 30.003124 329.1906 31.3625ZM345.64374 36.26875Q344.65936 37.096874 343.7531 37.440624Q342.84686 37.784374 341.8156 37.784374Q340.1125 37.784374 339.1906 36.95625Q338.26874 36.1125 338.26874 34.815624Q338.26874 34.05 338.6125 33.425Q338.97186 32.8 339.53436 32.425Q340.09686 32.034374 340.8 31.83125Q341.3156 31.70625 342.3625 31.565624Q344.4875 31.315624 345.4875 30.971874Q345.5031 30.6125 345.5031 30.503124Q345.5031 29.440624 345.0031 28.9875Q344.33124 28.39375 343.0031 28.39375Q341.7531 28.39375 341.15936 28.83125Q340.58124 29.26875 340.3 30.378124L338.58124 30.14375Q338.8156 29.034374 339.34686 28.3625Q339.8781 27.675 340.89374 27.315624Q341.90936 26.940624 343.2531 26.940624Q344.58124 26.940624 345.40936 27.253124Q346.2375 27.565624 346.6281 28.05Q347.01874 28.51875 347.175 29.2375Q347.26874 29.690624 347.26874 30.8625L347.26874 33.20625Q347.26874 35.659374 347.3781 36.315624Q347.4875 36.95625 347.83124 37.55L345.9875 37.55Q345.72186 37.003124 345.64374 36.26875ZM345.4875 32.346874Q344.53436 32.7375 342.6125 33.003124Q341.53436 33.159374 341.08124 33.3625Q340.64374 33.55 340.39374 33.925Q340.14374 34.3 340.14374 34.76875Q340.14374 35.471874 340.675 35.940624Q341.20624 36.409374 342.2375 36.409374Q343.2531 36.409374 344.03436 35.971874Q344.83124 35.51875 345.20624 34.753124Q345.4875 34.14375 345.4875 32.9875L345.4875 32.346874ZM349.84686 37.55L349.84686 27.175L351.425 27.175L351.425 28.753124Q352.03436 27.64375 352.55 27.3Q353.0656 26.940624 353.675 26.940624Q354.5656 26.940624 355.4875 27.503124L354.8781 29.14375Q354.2375 28.753124 353.59686 28.753124Q353.01874 28.753124 352.55 29.1125Q352.09686 29.45625 351.89374 30.065624Q351.6125 31.003124 351.6125 32.1125L351.6125 37.55L349.84686 37.55Z" fill-rule="nonzero"/></svg>
