<svg xmlns="http://www.w3.org/2000/svg" xmlns:xlink="http://www.w3.org/1999/xlink" width="500" zoomAndPan="magnify" viewBox="0 0 375 374.999991" height="500" preserveAspectRatio="xMidYMid meet" version="1.0"><defs><clipPath id="54bf4f958e"><path d="M 196.011719 171.464844 L 223.382812 171.464844 L 223.382812 198.832031 L 196.011719 198.832031 Z M 196.011719 171.464844 " clip-rule="nonzero"/></clipPath><clipPath id="73bf113f8c"><path d="M 209.695312 171.464844 C 202.140625 171.464844 196.011719 177.59375 196.011719 185.148438 C 196.011719 192.707031 202.140625 198.832031 209.695312 198.832031 C 217.253906 198.832031 223.382812 192.707031 223.382812 185.148438 C 223.382812 177.59375 217.253906 171.464844 209.695312 171.464844 Z M 209.695312 171.464844 " clip-rule="nonzero"/></clipPath><clipPath id="32df57f474"><path d="M 0.0117188 0.464844 L 27.382812 0.464844 L 27.382812 27.832031 L 0.0117188 27.832031 Z M 0.0117188 0.464844 " clip-rule="nonzero"/></clipPath><clipPath id="1b5302fae4"><path d="M 13.695312 0.464844 C 6.140625 0.464844 0.0117188 6.59375 0.0117188 14.148438 C 0.0117188 21.707031 6.140625 27.832031 13.695312 27.832031 C 21.253906 27.832031 27.382812 21.707031 27.382812 14.148438 C 27.382812 6.59375 21.253906 0.464844 13.695312 0.464844 Z M 13.695312 0.464844 " clip-rule="nonzero"/></clipPath><clipPath id="15a20f0795"><rect x="0" width="28" y="0" height="28"/></clipPath><clipPath id="30df191d8a"><path d="M 135 158 L 240 158 L 240 374.8125 L 135 374.8125 Z M 135 158 " clip-rule="nonzero"/></clipPath><clipPath id="38820d5f89"><path d="M 146 10.3125 L 229 10.3125 L 229 95 L 146 95 Z M 146 10.3125 " clip-rule="nonzero"/></clipPath></defs><g clip-path="url(#54bf4f958e)"><g clip-path="url(#73bf113f8c)"><g transform="matrix(1, 0, 0, 1, 196, 171)"><g clip-path="url(#15a20f0795)"><g clip-path="url(#32df57f474)"><g clip-path="url(#1b5302fae4)"><path fill="#ffffff" d="M 0.0117188 0.464844 L 27.382812 0.464844 L 27.382812 27.832031 L 0.0117188 27.832031 Z M 0.0117188 0.464844 " fill-opacity="1" fill-rule="nonzero"/></g></g></g></g></g></g><path fill="#000000" d="M 136.699219 101.296875 C 136.8125 100.253906 136.882812 99.199219 136.882812 98.128906 C 136.882812 94.523438 136.191406 91.085938 134.980469 87.902344 C 135.683594 87.183594 136.074219 86.421875 136.179688 85.636719 C 139.554688 85.757812 142.152344 85.21875 143.296875 83.414062 C 147.125 77.382812 137.3125 52.195312 108.003906 52.195312 C 78.695312 52.195312 68.882812 77.382812 72.710938 83.414062 C 73.855469 85.21875 76.453125 85.757812 79.828125 85.636719 C 79.933594 86.421875 80.324219 87.183594 81.023438 87.902344 C 79.816406 91.085938 79.125 94.523438 79.125 98.128906 C 79.125 114.074219 92.054688 126.996094 108.003906 126.996094 C 111.753906 126.996094 115.328125 126.257812 118.617188 124.957031 C 120.355469 119.359375 123.144531 114.210938 126.925781 109.699219 C 129.648438 106.398438 132.976562 103.574219 136.699219 101.296875 Z M 108.003906 57.449219 C 110.722656 57.449219 112.984375 59.332031 113.601562 61.859375 C 116.839844 61.40625 120.839844 60.761719 120.839844 60.761719 C 120.839844 60.761719 117.09375 63.8125 113.375 65.304688 C 112.539062 67.460938 110.457031 68.992188 108.003906 68.992188 C 105.550781 68.992188 103.46875 67.460938 102.632812 65.304688 C 98.914062 63.816406 95.167969 60.761719 95.167969 60.761719 C 95.167969 60.761719 99.167969 61.40625 102.40625 61.859375 C 103.023438 59.332031 105.285156 57.449219 108.003906 57.449219 Z M 108.003906 71.988281 C 123.597656 71.988281 136.242188 76.007812 136.242188 80.96875 C 136.242188 81.707031 135.929688 82.421875 135.402344 83.109375 C 132.382812 79.183594 121.277344 76.265625 108.003906 76.265625 C 94.730469 76.265625 83.625 79.183594 80.605469 83.109375 C 80.074219 82.421875 79.765625 81.707031 79.765625 80.96875 C 79.765625 76.007812 92.40625 71.988281 108.003906 71.988281 Z M 108.003906 71.988281 " fill-opacity="1" fill-rule="nonzero"/><path fill="#000000" d="M 137.816406 223.015625 L 139.5 202.414062 L 139.5 176.617188 C 138.675781 176.308594 137.875 175.960938 137.101562 175.570312 C 130.203125 172.09375 124.628906 166.359375 121.015625 159 C 118.035156 152.925781 116.515625 146.222656 116.503906 139.085938 C 116.507812 137.691406 116.566406 136.308594 116.679688 134.949219 L 83.207031 134.949219 C 82.96875 134.949219 82.734375 134.96875 82.503906 134.984375 C 82.003906 135 81.441406 135.042969 80.824219 135.109375 Z M 137.816406 223.015625 " fill-opacity="1" fill-rule="nonzero"/><path fill="#000000" d="M 136.964844 233.492188 L 73.351562 135.382812 L 35.917969 99.878906 L 34.257812 101.484375 L 5.710938 72.011719 L 0.289062 77.261719 L 28.835938 106.734375 L 27.175781 108.339844 L 61.308594 146.71875 C 47.285156 163.800781 41.664062 197.84375 44.605469 248.097656 C 44.925781 253.550781 49.449219 257.761719 54.847656 257.761719 C 55.046875 257.761719 55.253906 257.753906 55.457031 257.742188 C 61.117188 257.410156 65.4375 252.554688 65.105469 246.898438 C 64.222656 231.796875 64.21875 219.089844 64.804688 208.375 C 66.847656 207.5 69.980469 205.851562 73.289062 204.027344 L 73.289062 232.417969 L 55.375 355.261719 C 54.109375 363.933594 60.117188 371.984375 68.789062 373.246094 C 77.460938 374.507812 85.519531 368.507812 86.785156 359.835938 L 103.890625 242.523438 L 112.113281 242.523438 L 127.574219 348.542969 Z M 66.714844 189.410156 C 68.382812 178.75 70.773438 171.183594 73.289062 165.933594 L 73.289062 185.207031 C 71.121094 186.667969 68.863281 188.097656 66.714844 189.410156 Z M 66.714844 189.410156 " fill-opacity="1" fill-rule="nonzero"/><path fill="#000000" d="M 248.15625 109.761719 C 251.910156 114.238281 254.6875 119.371094 256.417969 124.960938 C 259.707031 126.257812 263.273438 126.996094 267.023438 126.996094 C 282.972656 126.996094 295.902344 114.074219 295.902344 98.132812 C 295.902344 94.523438 295.210938 91.085938 294.003906 87.902344 C 294.703125 87.183594 295.09375 86.421875 295.199219 85.636719 C 298.574219 85.757812 301.171875 85.21875 302.316406 83.414062 C 306.144531 77.382812 296.332031 52.195312 267.023438 52.195312 C 237.714844 52.195312 227.902344 77.382812 231.730469 83.414062 C 232.875 85.21875 235.472656 85.757812 238.847656 85.636719 C 238.953125 86.421875 239.34375 87.183594 240.046875 87.902344 C 238.835938 91.085938 238.144531 94.523438 238.144531 98.132812 C 238.144531 99.203125 238.214844 100.257812 238.328125 101.296875 C 242.066406 103.589844 245.410156 106.429688 248.15625 109.761719 Z M 267.023438 57.449219 C 269.742188 57.449219 272.003906 59.332031 272.621094 61.859375 C 275.859375 61.40625 279.859375 60.761719 279.859375 60.761719 C 279.859375 60.761719 276.113281 63.816406 272.398438 65.304688 C 271.558594 67.460938 269.476562 68.992188 267.023438 68.992188 C 264.570312 68.992188 262.488281 67.460938 261.652344 65.304688 C 257.933594 63.8125 254.1875 60.761719 254.1875 60.761719 C 254.1875 60.761719 258.1875 61.40625 261.425781 61.859375 C 262.042969 59.332031 264.308594 57.449219 267.023438 57.449219 Z M 267.023438 71.988281 C 282.621094 71.988281 295.261719 76.007812 295.261719 80.96875 C 295.261719 81.707031 294.953125 82.421875 294.421875 83.109375 C 291.402344 79.183594 280.296875 76.265625 267.023438 76.265625 C 253.75 76.265625 242.644531 79.183594 239.625 83.109375 C 239.097656 82.421875 238.785156 81.707031 238.785156 80.96875 C 238.785156 76.007812 251.429688 71.988281 267.023438 71.988281 Z M 267.023438 71.988281 " fill-opacity="1" fill-rule="nonzero"/><path fill="#000000" d="M 254.011719 159 C 250.390625 166.359375 244.820312 172.09375 237.890625 175.589844 C 237.132812 175.972656 236.339844 176.316406 235.527344 176.621094 L 235.527344 202.414062 L 237.207031 223.015625 L 294.203125 135.109375 C 293.585938 135.039062 293.023438 135 292.523438 134.984375 C 292.289062 134.96875 292.054688 134.949219 291.816406 134.949219 L 258.347656 134.949219 C 258.460938 136.296875 258.519531 137.660156 258.527344 139.039062 C 258.511719 146.222656 256.992188 152.921875 254.011719 159 Z M 254.011719 159 " fill-opacity="1" fill-rule="nonzero"/><path fill="#000000" d="M 306.238281 373.242188 C 314.90625 371.980469 320.917969 363.933594 319.652344 355.261719 L 301.738281 232.417969 L 301.738281 204.027344 C 305.042969 205.851562 308.179688 207.5 310.21875 208.371094 C 310.804688 219.085938 310.800781 231.792969 309.917969 246.894531 C 309.585938 252.554688 313.910156 257.410156 319.570312 257.742188 C 319.773438 257.753906 319.976562 257.757812 320.179688 257.757812 C 325.574219 257.761719 330.101562 253.546875 330.421875 248.09375 C 333.363281 197.84375 327.742188 163.800781 313.71875 146.71875 L 347.847656 108.335938 L 346.191406 106.734375 L 374.738281 77.257812 L 369.3125 72.011719 L 340.765625 101.484375 L 339.109375 99.878906 L 301.671875 135.378906 L 238.0625 233.488281 L 247.449219 348.539062 L 262.910156 242.519531 L 271.132812 242.519531 L 288.242188 359.835938 C 289.507812 368.507812 297.5625 374.507812 306.238281 373.242188 Z M 301.738281 185.207031 L 301.738281 165.9375 C 304.253906 171.183594 306.644531 178.75 308.3125 189.414062 C 306.160156 188.097656 303.90625 186.667969 301.738281 185.207031 Z M 301.738281 185.207031 " fill-opacity="1" fill-rule="nonzero"/><g clip-path="url(#30df191d8a)"><path fill="#000000" d="M 239.203125 354.65625 L 226.8125 202.769531 L 226.8125 172.710938 C 226.792969 172.710938 226.769531 172.714844 226.753906 172.714844 L 226.621094 172.714844 C 222.300781 172.664062 219.203125 171.503906 216.628906 170.417969 C 214.097656 169.300781 211.964844 168.089844 210.085938 167.027344 L 209.324219 166.589844 C 205.789062 164.574219 202.132812 162.484375 198.128906 160.914062 C 196.414062 160.238281 194.910156 159.265625 193.621094 158.097656 C 192.980469 158.066406 192.332031 158.019531 191.691406 158.019531 C 180.707031 158.074219 173.46875 162.175781 165.808594 166.523438 C 164.535156 167.246094 163.261719 167.964844 161.980469 168.664062 L 160.878906 169.21875 C 157.949219 170.695312 154.296875 172.535156 148.464844 172.707031 L 148.253906 172.707031 C 148.242188 172.707031 148.230469 172.707031 148.21875 172.707031 L 148.21875 202.765625 L 135.824219 354.652344 C 135.019531 364.539062 142.382812 373.199219 152.269531 374.007812 C 162.15625 374.8125 170.828125 367.457031 171.632812 357.570312 L 182.429688 225.300781 L 192.601562 225.300781 L 203.394531 357.570312 C 204.199219 367.457031 212.871094 374.8125 222.757812 374.007812 C 232.644531 373.199219 240.007812 364.539062 239.203125 354.65625 Z M 239.203125 354.65625 " fill-opacity="1" fill-rule="nonzero"/></g><path fill="#000000" d="M 193.035156 103.75 L 181.992188 103.75 L 179.230469 114.640625 L 179.65625 115.308594 C 181.929688 117.199219 184.710938 118.148438 187.511719 118.152344 C 190.3125 118.148438 193.101562 117.199219 195.375 115.304688 L 195.796875 114.640625 Z M 193.035156 103.75 " fill-opacity="1" fill-rule="nonzero"/><path fill="#000000" d="M 194.316406 128.449219 L 193.363281 121.433594 C 191.484375 122.140625 189.503906 122.507812 187.523438 122.507812 L 187.511719 122.507812 C 185.527344 122.511719 183.546875 122.140625 181.660156 121.4375 L 180.585938 129.335938 C 184.226562 128.734375 187.878906 128.398438 191.574219 128.398438 C 192.492188 128.398438 193.40625 128.414062 194.316406 128.449219 Z M 194.316406 128.449219 " fill-opacity="1" fill-rule="nonzero"/><path fill="#000000" d="M 200.972656 158.664062 C 204.785156 160.320312 208.25 162.300781 211.660156 164.25 C 213.628906 165.363281 215.585938 166.46875 217.875 167.476562 C 220.160156 168.445312 222.863281 169.476562 226.65625 169.523438 C 226.6875 169.523438 226.71875 169.523438 226.75 169.523438 C 228.996094 169.523438 231.617188 169.003906 233.960938 167.8125 C 239.691406 164.917969 243.710938 160.1875 246.183594 155.164062 C 248.667969 150.097656 249.792969 144.613281 249.804688 139.066406 C 249.78125 130.90625 247.332031 122.351562 241.425781 115.300781 C 235.945312 108.65625 227.042969 104.058594 216.867188 103.617188 C 216.441406 103.570312 216.015625 103.539062 215.578125 103.539062 L 203.054688 103.539062 C 204.007812 108.917969 205.6875 119.738281 205.933594 130.148438 C 208.320312 131.105469 210.363281 132.65625 211.929688 134.59375 C 215.652344 136.234375 218.917969 137.980469 221.902344 139.664062 C 222.382812 139.9375 222.839844 140.199219 223.289062 140.453125 L 226.21875 142.289062 C 226 143.289062 225.691406 144.179688 225.335938 144.878906 C 225.28125 144.984375 225.230469 145.085938 225.175781 145.179688 C 223.902344 144.484375 222.234375 143.535156 220.332031 142.449219 C 218.613281 141.476562 216.660156 140.402344 214.496094 139.324219 C 215.1875 141.4375 215.421875 143.734375 215.070312 146.078125 C 214.015625 153.082031 208.007812 158.398438 200.972656 158.664062 Z M 200.972656 158.664062 " fill-opacity="1" fill-rule="nonzero"/><path fill="#000000" d="M 125.21875 139.066406 C 125.230469 144.605469 126.355469 150.097656 128.84375 155.164062 C 131.308594 160.191406 135.339844 164.925781 141.0625 167.808594 C 143.402344 169 146.019531 169.519531 148.25 169.519531 C 148.289062 169.519531 148.332031 169.519531 148.371094 169.515625 C 154.109375 169.347656 157.335938 167.386719 160.449219 165.859375 C 169.449219 160.960938 177.917969 154.890625 191.691406 154.828125 C 193.871094 154.828125 196.1875 154.988281 198.683594 155.363281 C 205.03125 156.316406 210.953125 151.945312 211.90625 145.601562 C 212.859375 139.25 208.488281 133.339844 202.136719 132.386719 C 198.507812 131.839844 195.023438 131.589844 191.691406 131.589844 C 177.546875 131.566406 166.417969 136.167969 158.660156 140.273438 C 154.96875 142.21875 151.949219 144.050781 149.84375 145.179688 C 149.792969 145.085938 149.738281 144.980469 149.683594 144.875 C 149.332031 144.175781 149.023438 143.285156 148.804688 142.285156 L 151.738281 140.449219 C 153.292969 139.558594 155.144531 138.511719 157.167969 137.445312 C 161.15625 135.335938 165.109375 133.628906 169.0625 132.265625 C 169.105469 121.238281 170.957031 109.28125 171.96875 103.539062 L 159.445312 103.539062 C 159.011719 103.539062 158.585938 103.566406 158.164062 103.617188 C 147.988281 104.0625 139.082031 108.65625 133.609375 115.296875 C 127.695312 122.347656 125.242188 130.910156 125.21875 139.066406 Z M 125.21875 139.066406 " fill-opacity="1" fill-rule="nonzero"/><g clip-path="url(#38820d5f89)"><path fill="#000000" d="M 190.714844 94.824219 C 207.265625 93.214844 220.207031 79.277344 220.207031 62.308594 C 220.207031 58.222656 219.449219 54.3125 218.078125 50.707031 C 218.855469 49.898438 219.324219 49.046875 219.445312 48.164062 C 223.25 48.300781 226.175781 47.6875 227.464844 45.648438 C 231.796875 38.820312 220.6875 10.3125 187.515625 10.3125 C 154.339844 10.3125 143.230469 38.820312 147.566406 45.648438 C 148.855469 47.6875 151.78125 48.300781 155.585938 48.164062 C 155.703125 49.046875 156.171875 49.898438 156.953125 50.707031 C 155.582031 54.3125 154.824219 58.21875 154.824219 62.308594 C 154.824219 79.277344 167.761719 93.214844 184.3125 94.824219 C 185.367188 94.925781 186.433594 94.984375 187.515625 94.984375 C 188.59375 94.984375 189.664062 94.925781 190.714844 94.824219 Z M 187.515625 16.257812 C 190.589844 16.257812 193.152344 18.390625 193.847656 21.25 C 197.515625 20.738281 202.042969 20.011719 202.042969 20.011719 C 202.042969 20.011719 197.804688 23.464844 193.597656 25.152344 C 192.648438 27.59375 190.289062 29.328125 187.515625 29.328125 C 184.738281 29.328125 182.382812 27.59375 181.433594 25.152344 C 177.226562 23.464844 172.984375 20.011719 172.984375 20.011719 C 172.984375 20.011719 177.511719 20.738281 181.179688 21.25 C 181.875 18.390625 184.4375 16.257812 187.515625 16.257812 Z M 187.515625 32.71875 C 205.167969 32.71875 219.476562 37.269531 219.476562 42.882812 C 219.476562 43.71875 219.15625 44.527344 218.558594 45.304688 C 215.140625 40.859375 202.542969 37.558594 187.515625 37.558594 C 172.484375 37.558594 159.886719 40.859375 156.46875 45.304688 C 155.875 44.527344 155.550781 43.71875 155.550781 42.882812 C 155.550781 37.269531 169.859375 32.71875 187.515625 32.71875 Z M 171.199219 74.367188 C 171.367188 74.230469 188.21875 60.855469 205.371094 73.835938 L 202.734375 77.3125 C 188.285156 66.367188 174.089844 77.636719 173.949219 77.75 Z M 171.199219 74.367188 " fill-opacity="1" fill-rule="nonzero"/></g></svg>