<svg xmlns="http://www.w3.org/2000/svg" xmlns:xlink="http://www.w3.org/1999/xlink" width="2000" zoomAndPan="magnify" viewBox="0 0 1500 1499.999933" height="2000" preserveAspectRatio="xMidYMid meet" version="1.0"><defs><clipPath id="3afce2210c"><path d="M 639.277344 750 L 672.703125 750 L 672.703125 783.425781 L 639.277344 783.425781 Z M 639.277344 750 " clip-rule="nonzero"/></clipPath><clipPath id="d948ca98db"><path d="M 655.988281 750 C 646.757812 750 639.277344 757.484375 639.277344 766.714844 C 639.277344 775.945312 646.757812 783.425781 655.988281 783.425781 C 665.21875 783.425781 672.703125 775.945312 672.703125 766.714844 C 672.703125 757.484375 665.21875 750 655.988281 750 Z M 655.988281 750 " clip-rule="nonzero"/></clipPath><clipPath id="742a74af87"><path d="M 0.277344 0 L 33.703125 0 L 33.703125 33.425781 L 0.277344 33.425781 Z M 0.277344 0 " clip-rule="nonzero"/></clipPath><clipPath id="952d01b0a2"><path d="M 16.988281 0 C 7.757812 0 0.277344 7.484375 0.277344 16.714844 C 0.277344 25.945312 7.757812 33.425781 16.988281 33.425781 C 26.21875 33.425781 33.703125 25.945312 33.703125 16.714844 C 33.703125 7.484375 26.21875 0 16.988281 0 Z M 16.988281 0 " clip-rule="nonzero"/></clipPath><clipPath id="63c3c90e4a"><rect x="0" width="34" y="0" height="34"/></clipPath></defs><g clip-path="url(#3afce2210c)"><g clip-path="url(#d948ca98db)"><g transform="matrix(1, 0, 0, 1, 639, 750)"><g clip-path="url(#63c3c90e4a)"><g clip-path="url(#742a74af87)"><g clip-path="url(#952d01b0a2)"><path fill="#2d2726" d="M 0.277344 0 L 33.703125 0 L 33.703125 33.425781 L 0.277344 33.425781 Z M 0.277344 0 " fill-opacity="1" fill-rule="nonzero"/></g></g></g></g></g></g><path fill="#9c6035" d="M 611.820312 840.480469 C 608.773438 813.914062 587.003906 804.917969 569.984375 781.367188 C 555.023438 760.667969 552.726562 738.824219 548.140625 695.140625 C 544.519531 660.730469 542.703125 606.414062 556.851562 538.460938 C 664.90625 523.492188 772.953125 508.507812 881.011719 493.539062 C 912.429688 530.585938 943.84375 567.644531 975.261719 604.695312 C 973.339844 632.347656 970.046875 656.605469 965.65625 671.214844 C 951.003906 719.898438 870.21875 827.328125 870.398438 841.667969 C 870.582031 856.039062 915.984375 1494.957031 915.984375 1494.957031 L 530.199219 1499.875 C 530.199219 1499.875 582.601562 1096.089844 603.472656 920.421875 C 616.679688 809.179688 599.765625 952.332031 608.324219 878.566406 C 612.03125 846.570312 612.277344 844.53125 611.820312 840.480469 Z M 611.820312 840.480469 " fill-opacity="1" fill-rule="nonzero"/><path fill="#333333" d="M 747.851562 545.128906 L 688.554688 579.089844 C 667.523438 591.132812 640.617188 583.824219 628.585938 562.792969 C 616.542969 541.761719 623.851562 514.855469 644.882812 502.824219 L 704.179688 468.863281 C 725.207031 456.820312 752.117188 464.128906 764.148438 485.160156 C 776.191406 506.179688 768.882812 533.085938 747.851562 545.128906 Z M 655.183594 520.808594 C 644.078125 527.167969 640.210938 541.378906 646.582031 552.480469 C 652.9375 563.585938 667.152344 567.453125 678.253906 561.082031 L 737.550781 527.125 C 748.652344 520.765625 752.523438 506.554688 746.152344 495.449219 C 739.792969 484.347656 725.582031 480.480469 714.480469 486.847656 Z M 655.183594 520.808594 " fill-opacity="1" fill-rule="nonzero"/><path fill="#333333" d="M 579.109375 618.425781 L 519.8125 652.386719 C 498.78125 664.429688 471.875 657.121094 459.84375 636.089844 C 447.808594 615.058594 455.109375 588.152344 476.136719 576.117188 L 535.433594 542.160156 C 556.464844 530.117188 583.371094 537.425781 595.40625 558.457031 C 607.449219 579.472656 600.140625 606.382812 579.109375 618.425781 Z M 486.4375 594.113281 C 475.335938 600.472656 471.46875 614.683594 477.835938 625.789062 C 484.195312 636.890625 498.40625 640.757812 509.511719 634.390625 L 568.808594 600.429688 C 579.910156 594.070312 583.777344 579.859375 577.410156 568.757812 C 571.050781 557.652344 556.839844 553.785156 545.734375 560.152344 Z M 486.4375 594.113281 " fill-opacity="1" fill-rule="nonzero"/><path fill="#333333" d="M 374.226562 653.644531 L 306.1875 647.320312 C 282.058594 645.074219 264.253906 623.617188 266.5 599.5 C 268.742188 575.382812 290.199219 557.566406 314.320312 559.8125 L 382.355469 566.136719 C 406.488281 568.382812 424.289062 589.839844 422.046875 613.957031 C 419.800781 638.078125 398.355469 655.890625 374.226562 653.644531 Z M 312.394531 580.457031 C 299.65625 579.273438 288.320312 588.675781 287.132812 601.421875 C 285.949219 614.160156 295.351562 625.5 308.101562 626.683594 L 376.136719 633.011719 C 388.875 634.199219 400.214844 624.792969 401.398438 612.046875 C 402.585938 599.308594 393.183594 587.96875 380.433594 586.785156 Z M 312.394531 580.457031 " fill-opacity="1" fill-rule="nonzero"/><path fill="#333333" d="M 243.351562 677.390625 L 193.757812 724.410156 C 176.171875 741.078125 148.300781 740.34375 131.628906 722.753906 C 114.960938 705.164062 115.699219 677.292969 133.285156 660.625 L 182.882812 613.605469 C 200.46875 596.933594 228.339844 597.671875 245.007812 615.261719 C 261.679688 632.851562 260.933594 660.71875 243.351562 677.390625 Z M 147.554688 675.671875 C 138.265625 684.476562 137.871094 699.199219 146.675781 708.488281 C 155.480469 717.773438 170.207031 718.167969 179.492188 709.363281 L 229.085938 662.34375 C 238.375 653.539062 238.769531 638.8125 229.964844 629.527344 C 221.160156 620.242188 206.433594 619.847656 197.148438 628.652344 Z M 147.554688 675.671875 " fill-opacity="1" fill-rule="nonzero"/><path fill="#333333" d="M 915.976562 489.660156 C 913.304688 491.1875 910.441406 492.449219 907.4375 493.410156 L 842.328125 514.140625 C 831.183594 517.6875 819.277344 516.671875 808.828125 511.265625 C 798.375 505.859375 790.671875 496.742188 787.125 485.597656 C 783.574219 474.453125 784.589844 462.546875 789.996094 452.109375 C 795.40625 441.644531 804.519531 433.941406 815.664062 430.394531 L 880.777344 409.652344 C 903.867188 402.300781 928.628906 415.113281 935.980469 438.195312 C 939.527344 449.351562 938.5 461.246094 933.105469 471.695312 C 929.152344 479.335938 923.222656 485.5 915.976562 489.660156 Z M 817.472656 452.109375 C 813.644531 454.296875 810.503906 457.566406 808.410156 461.609375 C 805.558594 467.144531 805 473.414062 806.871094 479.292969 C 808.742188 485.171875 812.8125 489.980469 818.347656 492.832031 C 823.871094 495.695312 830.15625 496.242188 836.035156 494.371094 L 901.144531 473.640625 C 907.019531 471.757812 911.820312 467.699219 914.683594 462.164062 C 917.535156 456.628906 918.089844 450.34375 916.222656 444.476562 C 912.332031 432.285156 899.25 425.519531 887.058594 429.398438 L 821.949219 450.128906 C 820.378906 450.632812 818.871094 451.296875 817.472656 452.109375 Z M 817.472656 452.109375 " fill-opacity="1" fill-rule="nonzero"/><path fill="#333333" d="M 1089.035156 452.289062 C 1084.3125 454.992188 1079.078125 456.808594 1073.542969 457.609375 L 1005.921875 467.386719 C 994.335938 469.066406 982.773438 466.105469 973.347656 459.0625 C 963.921875 452.023438 957.8125 441.761719 956.132812 430.191406 C 954.457031 418.605469 957.417969 407.042969 964.457031 397.621094 C 971.5 388.195312 981.75 382.082031 993.34375 380.402344 L 1060.972656 370.625 C 1072.558594 368.949219 1084.121094 371.910156 1093.546875 378.949219 C 1102.96875 385.992188 1109.082031 396.25 1110.75 407.835938 C 1112.425781 419.410156 1109.476562 430.980469 1102.425781 440.40625 C 1098.75 445.320312 1094.199219 449.339844 1089.035156 452.289062 Z M 1070.582031 437.09375 C 1083.234375 435.265625 1092.058594 423.46875 1090.222656 410.796875 C 1089.347656 404.695312 1086.109375 399.285156 1081.128906 395.558594 C 1076.148438 391.828125 1070.035156 390.265625 1063.933594 391.144531 L 996.300781 400.921875 C 990.210938 401.808594 984.804688 405.035156 981.0625 410.027344 C 977.335938 415.015625 975.773438 421.117188 976.660156 427.21875 C 977.539062 433.320312 980.777344 438.730469 985.765625 442.457031 C 990.757812 446.1875 996.859375 447.746094 1002.960938 446.871094 Z M 1070.582031 437.09375 " fill-opacity="1" fill-rule="nonzero"/><path fill="#333333" d="M 1244.582031 453.039062 C 1239.25 454.117188 1233.714844 454.179688 1228.199219 453.199219 L 1160.941406 441.132812 C 1149.421875 439.070312 1139.378906 432.617188 1132.667969 422.957031 C 1125.945312 413.296875 1123.382812 401.636719 1125.445312 390.117188 C 1127.507812 378.597656 1133.960938 368.554688 1143.621094 361.84375 C 1153.28125 355.121094 1164.929688 352.554688 1176.457031 354.628906 L 1243.714844 366.695312 C 1255.234375 368.757812 1265.28125 375.222656 1271.992188 384.871094 C 1278.714844 394.53125 1281.277344 406.191406 1279.203125 417.710938 C 1277.140625 429.21875 1270.6875 439.261719 1261.027344 445.984375 C 1255.996094 449.488281 1250.417969 451.863281 1244.582031 453.039062 Z M 1231.867188 432.789062 C 1244.453125 435.042969 1256.550781 426.644531 1258.804688 414.035156 C 1259.894531 407.964844 1258.539062 401.808594 1254.980469 396.699219 C 1251.421875 391.59375 1246.121094 388.171875 1240.0625 387.082031 L 1172.804688 375.019531 C 1166.746094 373.929688 1160.601562 375.296875 1155.472656 378.84375 C 1150.363281 382.402344 1146.953125 387.703125 1145.863281 393.761719 C 1144.773438 399.832031 1146.132812 405.988281 1149.691406 411.09375 C 1153.25 416.203125 1158.550781 419.621094 1164.609375 420.710938 Z M 1231.867188 432.789062 " fill-opacity="1" fill-rule="nonzero"/><path fill="#333333" d="M 1360.761719 573.960938 C 1355.460938 572.710938 1350.40625 570.464844 1345.8125 567.269531 L 1289.730469 528.234375 C 1280.125 521.554688 1273.691406 511.488281 1271.617188 499.917969 C 1269.542969 488.34375 1272.078125 476.675781 1278.757812 467.066406 C 1285.445312 457.460938 1295.5 451.027344 1307.085938 448.957031 C 1318.667969 446.882812 1330.328125 449.414062 1339.933594 456.105469 L 1396.023438 495.140625 C 1405.621094 501.828125 1412.066406 511.886719 1414.136719 523.457031 C 1416.210938 535.042969 1413.679688 546.710938 1406.988281 556.308594 C 1400.308594 565.914062 1390.253906 572.347656 1378.671875 574.421875 C 1372.621094 575.488281 1366.550781 575.316406 1360.761719 573.960938 Z M 1357.660156 550.25 C 1368.15625 557.558594 1382.65625 554.960938 1389.964844 544.457031 C 1393.492188 539.402344 1394.828125 533.234375 1393.726562 527.113281 C 1392.625 520.988281 1389.238281 515.667969 1384.175781 512.152344 L 1328.082031 473.117188 C 1323.027344 469.601562 1316.875 468.277344 1310.730469 469.355469 C 1304.605469 470.457031 1299.285156 473.84375 1295.769531 478.90625 C 1292.242188 483.960938 1290.917969 490.128906 1292.007812 496.25 C 1293.109375 502.375 1296.496094 507.695312 1301.558594 511.210938 Z M 1357.660156 550.25 " fill-opacity="1" fill-rule="nonzero"/><path fill="#333333" d="M 828.648438 480.863281 C 827.421875 481.570312 826.019531 482.027344 824.523438 482.179688 C 794.316406 485.171875 766.027344 495.023438 740.789062 511.445312 C 736.066406 514.558594 729.566406 513.210938 726.449219 508.402344 C 723.328125 503.605469 724.695312 497.179688 729.492188 494.0625 C 757.597656 475.820312 788.972656 464.855469 822.492188 461.542969 C 828.191406 460.976562 833.265625 465.144531 833.832031 470.839844 C 834.226562 475.039062 832.078125 478.898438 828.648438 480.863281 Z M 828.648438 480.863281 " fill-opacity="1" fill-rule="nonzero"/><path fill="#333333" d="M 660.855469 546.699219 C 659.628906 547.40625 658.226562 547.863281 656.730469 548.015625 C 626.523438 551.007812 598.238281 560.859375 572.996094 577.285156 C 568.273438 580.394531 561.777344 579.046875 558.65625 574.238281 C 555.535156 569.441406 556.902344 563.019531 561.703125 559.898438 C 589.804688 541.65625 621.179688 530.691406 654.703125 527.378906 C 660.398438 526.8125 665.472656 530.980469 666.039062 536.675781 C 666.445312 540.875 664.296875 544.734375 660.855469 546.699219 Z M 660.855469 546.699219 " fill-opacity="1" fill-rule="nonzero"/><path fill="#333333" d="M 483.585938 625.359375 C 482.175781 625.519531 480.710938 625.382812 479.269531 624.921875 C 450.363281 615.648438 420.484375 613.445312 390.800781 618.480469 C 385.230469 619.449219 379.804688 615.636719 378.851562 609.984375 C 377.902344 604.339844 381.707031 598.988281 387.347656 598.035156 C 420.390625 592.46875 453.527344 594.894531 485.605469 605.183594 C 491.054688 606.9375 494.058594 612.773438 492.316406 618.222656 C 491.035156 622.238281 487.53125 624.921875 483.585938 625.359375 Z M 483.585938 625.359375 " fill-opacity="1" fill-rule="nonzero"/><path fill="#333333" d="M 303.953125 612.441406 C 302.875 613.359375 301.59375 614.074219 300.140625 614.503906 C 271.007812 623.050781 245.050781 637.992188 223.296875 658.820312 C 219.234375 662.75 212.597656 662.632812 208.632812 658.488281 C 204.679688 654.351562 204.820312 647.789062 208.964844 643.824219 C 233.203125 620.679688 261.980469 604.085938 294.304688 594.605469 C 299.796875 592.992188 305.558594 596.132812 307.171875 601.636719 C 308.355469 605.675781 306.96875 609.867188 303.953125 612.441406 Z M 303.953125 612.441406 " fill-opacity="1" fill-rule="nonzero"/><path fill="#333333" d="M 166.832031 712.589844 C 166.316406 713.914062 165.515625 715.144531 164.449219 716.214844 C 142.828125 737.519531 127.023438 762.976562 117.71875 791.613281 C 115.996094 797 110.097656 800.035156 104.648438 798.261719 C 99.210938 796.488281 96.226562 790.640625 98 785.191406 C 108.398438 753.335938 125.902344 725.09375 149.894531 701.445312 C 153.964844 697.425781 160.535156 697.46875 164.554688 701.550781 C 167.515625 704.542969 168.261719 708.902344 166.832031 712.589844 Z M 166.832031 712.589844 " fill-opacity="1" fill-rule="nonzero"/><path fill="#333333" d="M 994.914062 436.28125 C 993.300781 437.199219 991.417969 437.703125 989.429688 437.636719 C 962.671875 436.761719 936.707031 441.390625 912.265625 451.402344 C 909.007812 452.738281 905.792969 454.171875 902.585938 455.699219 C 897.414062 458.167969 891.226562 455.976562 888.769531 450.804688 C 886.300781 445.640625 888.460938 439.496094 893.652344 436.976562 C 897.199219 435.289062 900.78125 433.695312 904.402344 432.210938 C 931.566406 421.085938 960.398438 415.933594 990.117188 416.90625 C 995.832031 417.101562 1000.320312 421.886719 1000.140625 427.613281 C 1000.011719 431.34375 997.9375 434.550781 994.914062 436.28125 Z M 994.914062 436.28125 " fill-opacity="1" fill-rule="nonzero"/><path fill="#333333" d="M 1168.914062 407.085938 C 1167.300781 408.007812 1165.417969 408.507812 1163.433594 408.445312 C 1136.675781 407.566406 1110.707031 412.195312 1086.269531 422.207031 C 1083.007812 423.542969 1079.792969 424.976562 1076.585938 426.503906 C 1071.414062 428.972656 1065.226562 426.78125 1062.769531 421.609375 C 1060.300781 416.449219 1062.460938 410.3125 1067.652344 407.78125 C 1071.199219 406.09375 1074.78125 404.5 1078.402344 403.015625 C 1105.566406 391.890625 1134.398438 386.742188 1164.117188 387.714844 C 1169.832031 387.90625 1174.320312 392.691406 1174.140625 398.421875 C 1174.011719 402.148438 1171.929688 405.355469 1168.914062 407.085938 Z M 1168.914062 407.085938 " fill-opacity="1" fill-rule="nonzero"/><path fill="#333333" d="M 1316.636719 492.949219 C 1314.886719 492.320312 1313.292969 491.207031 1312.042969 489.648438 C 1295.371094 468.691406 1275.027344 451.914062 1251.558594 439.785156 C 1248.429688 438.171875 1245.253906 436.644531 1242.015625 435.191406 C 1236.792969 432.851562 1234.453125 426.71875 1236.792969 421.492188 C 1239.121094 416.265625 1245.191406 413.9375 1250.492188 416.257812 C 1254.082031 417.859375 1257.609375 419.558594 1261.082031 421.351562 C 1287.15625 434.839844 1309.765625 453.464844 1328.273438 476.71875 C 1331.832031 481.195312 1331.097656 487.722656 1326.617188 491.28125 C 1323.691406 493.632812 1319.90625 494.125 1316.636719 492.949219 Z M 1316.636719 492.949219 " fill-opacity="1" fill-rule="nonzero"/><path fill="#333333" d="M 1414.449219 640.738281 C 1413.207031 639.347656 1412.34375 637.617188 1411.988281 635.652344 C 1407.339844 609.277344 1397.457031 584.828125 1382.625 562.976562 C 1380.648438 560.058594 1378.585938 557.203125 1376.4375 554.394531 C 1372.953125 549.84375 1373.828125 543.335938 1378.371094 539.863281 C 1382.914062 536.378906 1389.355469 537.234375 1392.90625 541.796875 C 1395.289062 544.914062 1397.585938 548.101562 1399.777344 551.328125 C 1416.265625 575.617188 1427.238281 602.769531 1432.410156 632.039062 C 1433.40625 637.671875 1429.644531 643.054688 1424 644.050781 C 1420.324219 644.710938 1416.753906 643.335938 1414.449219 640.738281 Z M 1414.449219 640.738281 " fill-opacity="1" fill-rule="nonzero"/><path fill="#915933" d="M 583.820312 775.382812 C 572.238281 761.90625 562.632812 736.675781 551.027344 721.34375 C 554.382812 748.515625 558.355469 765.285156 569.972656 781.367188 C 586.984375 804.90625 608.75 813.90625 611.808594 840.480469 C 612.300781 844.722656 611.863281 846.816406 608.3125 878.566406 C 607 890.308594 605.363281 904.414062 603.460938 920.421875 C 582.601562 1096.082031 530.1875 1499.875 530.1875 1499.875 L 681.460938 1497.949219 C 632.730469 1347.738281 611.082031 1188.066406 630.335938 1031.578125 C 634.023438 1001.636719 639.835938 970.371094 658.988281 947.0625 C 693.566406 904.960938 760.707031 901.328125 794.5625 858.625 C 716.210938 869.472656 634.902344 834.796875 583.820312 775.382812 Z M 583.820312 775.382812 " fill-opacity="1" fill-rule="nonzero"/><path fill="#77492a" d="M 614.734375 831.171875 C 619.011719 835.800781 623.90625 839.828125 628.96875 843.546875 C 654.316406 862.078125 685.796875 870.445312 716.914062 871.160156 C 729.449219 871.492188 742.039062 870.710938 754.636719 869.332031 C 741.601562 872.710938 728.070312 874.527344 714.511719 874.675781 C 696.109375 874.878906 677.546875 871.835938 660.417969 864.984375 C 643.3125 858.15625 625.410156 846.390625 614.734375 831.171875 Z M 614.734375 831.171875 " fill-opacity="1" fill-rule="nonzero"/><path fill="#9c6035" d="M 896.183594 440.800781 C 893.492188 401.445312 898.3125 394.550781 891.035156 372.410156 C 886.589844 358.894531 882.398438 346.132812 869.789062 337.574219 C 853.292969 326.363281 828.167969 326.269531 813.035156 338.75 C 808.207031 342.734375 803.847656 348.464844 799.210938 362.175781 C 798.078125 365.507812 796.132812 371.695312 794.519531 380.351562 C 789.046875 362.121094 785.0625 353.113281 775.773438 346.894531 C 756.691406 334.101562 725.175781 339.734375 709.371094 357.042969 C 698.589844 368.851562 696.589844 383.910156 695.457031 400.941406 C 694.839844 400.460938 694.199219 399.992188 693.523438 399.554688 C 676.332031 388.203125 648.332031 395 632.175781 410.101562 C 618.273438 423.085938 615.257812 440.183594 613.890625 447.972656 C 612.671875 454.875 612.953125 462.601562 614.210938 473.949219 C 612.695312 472.28125 610.972656 470.914062 608.921875 469.75 C 593.941406 461.203125 569.578125 467.945312 557.554688 482.636719 C 549.882812 492.007812 548.953125 502.523438 547.167969 522.625 C 545.640625 539.882812 547.039062 552.738281 547.714844 557.289062 C 549.167969 567.109375 551.390625 574.238281 554.285156 583.515625 C 556.089844 589.285156 559.148438 598.996094 564.0625 609.714844 C 573.488281 630.296875 579.484375 640.191406 590.199219 648.792969 C 602.5 658.667969 621.574219 662.035156 634.613281 652.128906 C 650.597656 639.988281 649.722656 616.277344 646.878906 596.839844 C 646.207031 592.246094 645.566406 587.808594 644.914062 583.429688 C 651.046875 595.289062 656.390625 602.714844 663.464844 609.105469 C 677.582031 621.867188 700 627.574219 715.867188 617.078125 C 734.164062 604.972656 735.265625 579.421875 733.234375 557.128906 C 737.488281 563.519531 741.996094 568.679688 747.542969 573.726562 C 763.132812 587.875 787.605469 594.542969 804.617188 583.472656 C 825.464844 569.910156 824.886719 539.445312 821.683594 514.226562 C 821.480469 512.589844 821.265625 510.976562 821.0625 509.375 C 822.367188 511.554688 823.734375 513.746094 825.164062 515.957031 C 830.175781 523.695312 836.035156 531.546875 846.292969 535.246094 C 862.097656 540.941406 876.738281 532.550781 877.828125 531.898438 C 890.925781 524.121094 895 510.347656 897.671875 500.824219 C 902.90625 482.125 898.492188 474.601562 896.183594 440.800781 Z M 896.183594 440.800781 " fill-opacity="1" fill-rule="nonzero"/><path fill="#ffd6ba" d="M 587.859375 628.886719 C 589.367188 633.535156 591.367188 638.097656 594.238281 641.65625 C 594.292969 641.722656 594.335938 641.785156 594.390625 641.839844 C 603.324219 652.652344 620.132812 653.070312 630.691406 644.5625 C 639.144531 637.746094 642.261719 625.617188 640.765625 613.722656 C 624.492188 622.753906 606.347656 627.925781 587.859375 628.886719 Z M 587.859375 628.886719 " fill-opacity="1" fill-rule="nonzero"/><path fill="#ffd6ba" d="M 670.175781 591.957031 C 671.683594 596.605469 673.679688 601.167969 676.554688 604.726562 C 676.609375 604.789062 676.652344 604.855469 676.703125 604.90625 C 685.636719 615.722656 702.445312 616.136719 713.003906 607.632812 C 721.457031 600.816406 724.578125 588.6875 723.082031 576.792969 C 706.808594 585.820312 688.664062 591.003906 670.175781 591.957031 Z M 670.175781 591.957031 " fill-opacity="1" fill-rule="nonzero"/><path fill="#ffd6ba" d="M 757.425781 558.292969 C 758.933594 562.941406 760.933594 567.507812 763.804688 571.066406 C 763.859375 571.128906 763.902344 571.191406 763.957031 571.246094 C 772.890625 582.0625 789.699219 582.476562 800.257812 573.972656 C 808.710938 567.152344 811.828125 555.023438 810.332031 543.132812 C 794.058594 552.160156 775.902344 557.332031 757.425781 558.292969 Z M 757.425781 558.292969 " fill-opacity="1" fill-rule="nonzero"/><path fill="#ffd6ba" d="M 832.304688 509.097656 C 833.8125 513.746094 835.808594 518.308594 838.683594 521.867188 C 838.738281 521.929688 838.78125 521.996094 838.832031 522.046875 C 847.765625 532.863281 864.574219 533.277344 875.132812 524.773438 C 883.585938 517.953125 886.707031 505.828125 885.210938 493.933594 C 868.9375 502.960938 850.789062 508.132812 832.304688 509.097656 Z M 832.304688 509.097656 " fill-opacity="1" fill-rule="nonzero"/><path fill="#77492a" d="M 614.210938 473.9375 C 618.464844 508.390625 626.757812 542.523438 640.9375 574.269531 C 642.914062 578.84375 645.148438 583.289062 647.296875 587.832031 C 646.546875 586.828125 645.832031 585.800781 645.09375 584.785156 C 643.632812 582.765625 642.285156 580.597656 640.9375 578.503906 C 634.996094 568.882812 630.132812 558.539062 626.222656 547.941406 C 621.050781 533.757812 617.449219 518.960938 615.503906 504.007812 C 614.253906 494.050781 613.539062 483.972656 614.210938 473.9375 Z M 614.210938 473.9375 " fill-opacity="1" fill-rule="nonzero"/><path fill="#77492a" d="M 695.609375 403.410156 C 701.507812 453.132812 711.660156 502.632812 729.171875 549.628906 C 730.261719 552.664062 731.628906 556.007812 732.730469 559.042969 C 731.183594 556.210938 729.460938 553.039062 728.039062 550.109375 C 714.617188 522.925781 706.125 493.441406 700.84375 463.648438 C 697.445312 443.804688 695.210938 423.574219 695.609375 403.410156 Z M 695.609375 403.410156 " fill-opacity="1" fill-rule="nonzero"/><path fill="#77492a" d="M 794.070312 378.726562 C 800.214844 423.363281 808.472656 467.71875 821.683594 510.871094 C 820.796875 509.0625 819.832031 506.949219 818.976562 505.101562 C 817.675781 502.117188 816.09375 498.355469 814.917969 495.277344 C 807.265625 475.445312 802.074219 454.660156 798.578125 433.71875 C 795.628906 415.570312 793.695312 397.117188 794.070312 378.726562 Z M 794.070312 378.726562 " fill-opacity="1" fill-rule="nonzero"/><path fill="#77492a" d="M 550.203125 577.699219 C 554.636719 594.628906 561.347656 610.699219 570.484375 625.433594 C 578.148438 637.703125 587.390625 649.980469 600.683594 656.394531 C 607.703125 659.671875 615.773438 661.082031 623.425781 659.535156 C 632.742188 657.726562 639.761719 651.101562 644.089844 642.84375 C 647.703125 636.078125 649.414062 628.554688 650.566406 621 C 651.101562 617.625 651.613281 612.890625 652.042969 609.460938 C 652.050781 617.28125 651.914062 625.09375 650.34375 632.796875 C 647.617188 646.785156 638.972656 660.261719 624.289062 663.5 C 615.257812 665.5625 605.632812 663.863281 597.433594 659.707031 C 590.925781 656.371094 585.265625 651.550781 580.421875 646.113281 C 564.289062 627.210938 553.6875 602.140625 550.203125 577.699219 Z M 550.203125 577.699219 " fill-opacity="1" fill-rule="nonzero"/><path fill="#77492a" d="M 648.589844 591.957031 C 656.605469 610.238281 673.722656 623.683594 694.113281 623.542969 C 707.171875 623.425781 721.039062 618.296875 729.183594 607.75 C 734.632812 600.503906 736.3125 591.261719 737.058594 582.414062 C 737.570312 576.289062 737.199219 570.101562 736.109375 564.054688 C 737.636719 568.480469 738.585938 573.105469 739.003906 577.777344 C 739.28125 580.90625 739.261719 584.058594 739.121094 587.199219 C 738.757812 595.195312 736.972656 603.390625 732.324219 610.046875 C 724.878906 620.605469 712.140625 626.398438 699.519531 627.636719 C 692.082031 628.332031 684.460938 627.371094 677.515625 624.589844 C 663.433594 619.003906 652.523438 606.511719 648.589844 591.957031 Z M 648.589844 591.957031 " fill-opacity="1" fill-rule="nonzero"/><path fill="#77492a" d="M 737.25 565.359375 C 741.410156 571.203125 746.546875 576.34375 752.328125 580.574219 C 758.625 585.128906 765.902344 588.460938 773.617188 589.617188 C 774.3125 589.734375 775.21875 589.851562 775.902344 589.914062 C 776.597656 589.988281 777.515625 590.074219 778.199219 590.085938 C 778.882812 590.117188 779.804688 590.171875 780.476562 590.148438 C 788.148438 589.945312 795.898438 588.226562 802.789062 584.808594 C 811.027344 580.808594 817.707031 573.820312 821.125 565.316406 C 822.855469 561.082031 823.949219 556.296875 824.867188 551.753906 C 825.742188 547.105469 826.160156 542.382812 826.105469 537.636719 C 826.042969 531.257812 825.132812 524.902344 823.574219 518.679688 C 824.664062 521.277344 825.5625 523.992188 826.308594 526.71875 C 829 536.582031 829.238281 547.0625 827.261719 557.097656 C 826.394531 562.003906 825.039062 566.90625 822.71875 571.351562 C 817.683594 581.25 808.238281 588.332031 797.746094 591.59375 C 791.847656 593.429688 785.679688 594.359375 779.492188 594.179688 C 778.636719 594.105469 777.515625 594.039062 776.671875 593.945312 C 775.957031 593.835938 774.886719 593.71875 774.183594 593.589844 C 773.476562 593.441406 772.410156 593.269531 771.714844 593.109375 C 762.394531 591.015625 753.910156 585.875 747.273438 579.078125 C 743.300781 575.007812 739.816406 570.421875 737.25 565.359375 Z M 737.25 565.359375 " fill-opacity="1" fill-rule="nonzero"/><path fill="#77492a" d="M 825.496094 521.246094 C 835.636719 532.605469 851.238281 540.4375 866.636719 537.265625 C 878.457031 534.742188 888.265625 525.808594 893.917969 515.359375 C 896.023438 511.363281 897.402344 506.894531 898.484375 502.460938 C 901.847656 488.769531 902.480469 474.515625 901.613281 460.476562 C 901.410156 457.3125 901.101562 454.171875 900.8125 451.007812 C 901.976562 455.601562 902.929688 460.347656 903.570312 465.046875 C 904.863281 474.546875 905.085938 484.285156 903.996094 493.816406 C 903.632812 497 903.121094 500.226562 902.445312 503.359375 C 901.433594 508.175781 900.0625 512.890625 897.808594 517.355469 C 893.972656 524.742188 888.234375 531.054688 881.277344 535.597656 C 871.363281 542.148438 858.859375 543.292969 847.796875 539.101562 C 838.695312 535.738281 830.851562 529.292969 825.496094 521.246094 Z M 825.496094 521.246094 " fill-opacity="1" fill-rule="nonzero"/><path fill="#9c6035" d="M 894.6875 774.132812 C 894.6875 774.175781 894.699219 774.21875 894.742188 774.238281 C 895.898438 774.878906 915.140625 744.585938 922.375 733.183594 C 958.046875 676.941406 975.882812 648.816406 983.125 630.320312 C 993.386719 604.136719 1002.585938 578.875 996.953125 547.832031 C 995.683594 540.800781 993.097656 530.53125 975.089844 497.628906 C 946.023438 444.53125 931.492188 417.988281 916.90625 411.445312 C 891.492188 400.046875 856.605469 414.707031 786.835938 444.039062 C 772.71875 449.96875 782.644531 447.074219 753.472656 461.832031 C 741.195312 468.039062 734.515625 471.03125 732.773438 477.851562 C 730.882812 485.253906 735.550781 493.582031 737.582031 496.445312 C 740.800781 500.976562 744.035156 504.289062 746.472656 506.53125 C 749.625 509.417969 756.046875 515.242188 766.433594 518.851562 C 771.402344 520.582031 782.027344 523.746094 801.121094 520.648438 C 813.207031 518.679688 833.832031 513.660156 857.128906 498.859375 C 858.675781 503.433594 860.601562 508.359375 863.027344 513.53125 C 866.820312 521.621094 870.976562 528.535156 874.953125 534.285156 C 864.628906 541.914062 850.140625 553.230469 833.90625 568.09375 C 803.65625 595.804688 781.84375 612.269531 772.171875 639.457031 C 768.039062 651.070312 745.5 696.59375 765.558594 733.8125 C 784.984375 769.847656 838.03125 787.882812 894.6875 774.132812 Z M 894.6875 774.132812 " fill-opacity="1" fill-rule="nonzero"/><path fill="#ffd6ba" d="M 801.410156 446.082031 C 796.75 444.980469 744.957031 466.789062 741.910156 475.105469 C 738.863281 483.40625 755.652344 494.0625 772.730469 493.367188 C 789.804688 492.671875 813.65625 473.789062 814.394531 464.34375 C 815.140625 454.875 805.203125 446.976562 801.410156 446.082031 Z M 801.410156 446.082031 " fill-opacity="1" fill-rule="nonzero"/><path fill="#77492a" d="M 752.394531 464.84375 C 753.066406 464.503906 753.761719 464.160156 754.464844 463.796875 C 769.992188 455.953125 774.492188 453.078125 777.472656 451.179688 C 779.964844 449.597656 781.214844 448.792969 787.691406 446.070312 C 843.757812 422.507812 877.164062 408.464844 900.875 409.886719 L 900.714844 405.453125 C 875.976562 404.171875 842.167969 418.382812 785.96875 442 C 779.140625 444.863281 777.699219 445.78125 775.089844 447.449219 C 772.183594 449.308594 767.792969 452.109375 752.457031 459.855469 C 751.753906 460.207031 751.058594 460.558594 750.382812 460.902344 C 739.226562 466.523438 732.496094 469.910156 730.617188 477.304688 C 728.210938 486.730469 734.984375 496.636719 735.765625 497.726562 C 738.46875 501.53125 741.558594 505.035156 744.96875 508.15625 C 747.894531 510.839844 754.753906 517.132812 765.699219 520.9375 C 769.425781 522.230469 780.785156 526.183594 801.464844 522.816406 C 820.269531 519.761719 838.585938 512.824219 855.941406 502.183594 C 857.4375 506.339844 859.148438 510.464844 861.015625 514.449219 C 864.136719 521.105469 867.804688 527.59375 871.925781 533.75 C 858.269531 543.933594 844.988281 554.929688 832.410156 566.449219 C 828.039062 570.445312 823.871094 574.195312 819.84375 577.816406 C 795.863281 599.359375 778.542969 614.921875 770.089844 638.695312 C 769.652344 639.925781 768.976562 641.613281 768.1875 643.582031 C 764.8125 652.011719 759.148438 666.117188 756.539062 682.507812 C 756.003906 685.84375 755.632812 689.113281 755.40625 692.308594 L 759.839844 691.871094 C 761.359375 672.519531 768.371094 655.003906 772.292969 645.238281 C 773.125 643.152344 773.789062 641.507812 774.257812 640.191406 C 782.335938 617.472656 799.316406 602.226562 822.804688 581.121094 C 826.84375 577.488281 831.023438 573.734375 835.402344 569.730469 C 848.386719 557.835938 862.140625 546.507812 876.265625 536.058594 L 877.988281 534.785156 L 876.769531 533.023438 C 872.289062 526.546875 868.335938 519.675781 865.023438 512.589844 C 862.832031 507.898438 860.878906 503.046875 859.222656 498.144531 L 858.3125 495.472656 L 855.941406 496.976562 C 838.394531 508.132812 819.832031 515.359375 800.769531 518.457031 C 783.222656 521.308594 773.1875 518.851562 767.160156 516.757812 C 757.085938 513.253906 750.929688 507.609375 747.96875 504.898438 C 744.796875 501.988281 741.910156 498.710938 739.390625 495.160156 C 736.996094 491.796875 733.363281 484.476562 734.921875 478.394531 C 736.300781 472.945312 742.015625 470.070312 752.394531 464.84375 Z M 752.394531 464.84375 " fill-opacity="1" fill-rule="nonzero"/><path fill="#333333" d="M 1440.242188 755.546875 L 1429.867188 706.488281 L 1413.550781 734.410156 L 1408.539062 767.527344 Z M 1440.242188 755.546875 " fill-opacity="1" fill-rule="nonzero"/><path fill="#333333" d="M 1472.953125 724.742188 L 1475.261719 672.847656 L 1499.925781 704.597656 Z M 1472.953125 724.742188 " fill-opacity="1" fill-rule="nonzero"/><path fill="#333333" d="M 1484.664062 749.359375 L 1459.820312 733.515625 L 1459.863281 745.011719 L 1453.046875 749.5 L 1458.730469 767.058594 Z M 1484.664062 749.359375 " fill-opacity="1" fill-rule="nonzero"/><path fill="#333333" d="M 33.117188 914.578125 L 50.929688 867.710938 L 22.097656 882.359375 L -0.03125 907.503906 Z M 33.117188 914.578125 " fill-opacity="1" fill-rule="nonzero"/><path fill="#333333" d="M 77.304688 906.359375 L 107.296875 863.957031 L 110.867188 904.007812 Z M 77.304688 906.359375 " fill-opacity="1" fill-rule="nonzero"/><path fill="#333333" d="M 73.828125 933.394531 L 61.5 906.628906 L 55.320312 916.332031 L 47.15625 916.417969 L 42.433594 934.261719 Z M 73.828125 933.394531 " fill-opacity="1" fill-rule="nonzero"/><path fill="#333333" d="M 125.058594 747.621094 C 114.277344 742.136719 101.964844 741.195312 90.402344 744.96875 C 78.839844 748.742188 69.460938 756.757812 63.976562 767.550781 L 39.175781 816.375 C 40.394531 816.738281 41.632812 817.066406 42.851562 817.421875 L 47.863281 814.417969 L 50.03125 819.738281 C 51.515625 820.261719 52.992188 820.796875 54.457031 821.351562 L 59.082031 818.394531 L 62.492188 822.828125 L 85.113281 778.277344 C 87.722656 773.136719 92.210938 769.3125 97.757812 767.507812 C 103.300781 765.691406 109.179688 766.136719 114.320312 768.746094 C 121.757812 772.527344 126.09375 780.03125 126.203125 787.851562 C 126.246094 791.25 125.496094 794.710938 123.851562 797.949219 L 101.292969 842.363281 C 101.859375 842.609375 102.425781 842.851562 102.980469 843.097656 L 108.835938 841.914062 L 110.128906 846.039062 C 111.070312 846.402344 112.023438 846.765625 112.972656 847.117188 C 114.585938 845.066406 116.839844 842.542969 117.601562 843.335938 C 118.230469 843.984375 119.46875 846.9375 120.527344 849.671875 C 121.585938 849.992188 122.644531 850.300781 123.703125 850.601562 L 144.988281 808.691406 C 156.335938 786.386719 147.402344 758.96875 125.058594 747.621094 Z M 125.058594 747.621094 " fill-opacity="1" fill-rule="nonzero"/><path fill="#333333" d="M 1462.632812 653.988281 L 1469.960938 656.894531 C 1470.859375 656.433594 1471.746094 655.945312 1472.644531 655.464844 L 1472.738281 650.410156 L 1481.054688 650.570312 C 1481.0625 650.558594 1481.074219 650.558594 1481.085938 650.546875 L 1464.136719 606.703125 C 1455.117188 583.355469 1428.757812 571.664062 1405.386719 580.703125 C 1394.101562 585.0625 1385.179688 593.589844 1380.253906 604.714844 C 1375.335938 615.839844 1375.027344 628.179688 1379.386719 639.464844 L 1399.125 690.546875 C 1400.460938 689.722656 1401.785156 688.855469 1403.121094 688.035156 L 1404.382812 681.761719 L 1414.136719 681.941406 C 1416.105469 680.9375 1418.082031 679.945312 1420.078125 678.984375 L 1401.496094 630.90625 C 1399.421875 625.53125 1399.574219 619.632812 1401.933594 614.3125 C 1404.285156 608.980469 1408.550781 604.898438 1413.925781 602.824219 C 1421.714844 599.820312 1430.1875 601.617188 1436.074219 606.757812 C 1438.628906 608.988281 1440.703125 611.863281 1442.019531 615.25 L 1459.96875 661.714844 C 1460.816406 661.328125 1461.660156 660.921875 1462.503906 660.539062 Z M 1462.632812 653.988281 " fill-opacity="1" fill-rule="nonzero"/></svg>