<svg xmlns="http://www.w3.org/2000/svg" xmlns:xlink="http://www.w3.org/1999/xlink" width="500" zoomAndPan="magnify" viewBox="0 0 375 374.999991" height="500" preserveAspectRatio="xMidYMid meet" version="1.0"><defs><clipPath id="d0adee7945"><path d="M 196.011719 171.464844 L 223.382812 171.464844 L 223.382812 198.832031 L 196.011719 198.832031 Z M 196.011719 171.464844 " clip-rule="nonzero"/></clipPath><clipPath id="c1d3ba943e"><path d="M 209.695312 171.464844 C 202.140625 171.464844 196.011719 177.59375 196.011719 185.148438 C 196.011719 192.707031 202.140625 198.832031 209.695312 198.832031 C 217.253906 198.832031 223.382812 192.707031 223.382812 185.148438 C 223.382812 177.59375 217.253906 171.464844 209.695312 171.464844 Z M 209.695312 171.464844 " clip-rule="nonzero"/></clipPath><clipPath id="84e1786471"><path d="M 0.0117188 0.464844 L 27.382812 0.464844 L 27.382812 27.832031 L 0.0117188 27.832031 Z M 0.0117188 0.464844 " clip-rule="nonzero"/></clipPath><clipPath id="adc5553a11"><path d="M 13.695312 0.464844 C 6.140625 0.464844 0.0117188 6.59375 0.0117188 14.148438 C 0.0117188 21.707031 6.140625 27.832031 13.695312 27.832031 C 21.253906 27.832031 27.382812 21.707031 27.382812 14.148438 C 27.382812 6.59375 21.253906 0.464844 13.695312 0.464844 Z M 13.695312 0.464844 " clip-rule="nonzero"/></clipPath><clipPath id="31401b5606"><rect x="0" width="28" y="0" height="28"/></clipPath></defs><g clip-path="url(#d0adee7945)"><g clip-path="url(#c1d3ba943e)"><g transform="matrix(1, 0, 0, 1, 196, 171)"><g clip-path="url(#31401b5606)"><g clip-path="url(#84e1786471)"><g clip-path="url(#adc5553a11)"><path fill="#ffffff" d="M 0.0117188 0.464844 L 27.382812 0.464844 L 27.382812 27.832031 L 0.0117188 27.832031 Z M 0.0117188 0.464844 " fill-opacity="1" fill-rule="nonzero"/></g></g></g></g></g></g><path stroke-linecap="round" transform="matrix(0.482315, 0, 0, 0.482315, 0.0000045, 15.168815)" fill-opacity="1" fill="#c9c9c9" fill-rule="nonzero" stroke-linejoin="round" d="M 740.528332 530.164219 C 733.789998 529.613489 726.743903 539.972058 736.284478 539.704793 C 745.825052 539.437527 750.336172 530.957917 740.528332 530.164219 Z M 740.528332 530.164219 " stroke="#000000" stroke-width="1.217" stroke-opacity="1" stroke-miterlimit="4"/><path stroke-linecap="round" transform="matrix(0.482315, 0, 0, 0.482315, 0.0000045, 15.168815)" fill-opacity="1" fill="#c9c9c9" fill-rule="nonzero" stroke-linejoin="round" d="M 750.603438 539.712892 C 744.804583 541.664741 740.382551 544.215913 746.019427 544.47508 C 751.664401 544.742345 752.093646 539.210756 750.603438 539.712892 Z M 750.603438 539.712892 " stroke="#000000" stroke-width="1.217" stroke-opacity="1" stroke-miterlimit="4"/><path stroke-linecap="round" transform="matrix(0.482315, 0, 0, 0.482315, 0.0000045, 15.168815)" fill-opacity="1" fill="#c9c9c9" fill-rule="nonzero" stroke-linejoin="round" d="M 693.602962 627.457016 C 686.905123 624.719568 684.054289 631.16634 688.832675 632.227303 C 693.602962 633.288267 699.434213 629.846209 693.602962 627.457016 Z M 693.602962 627.457016 " stroke="#000000" stroke-width="1.217" stroke-opacity="1" stroke-miterlimit="4"/><path stroke-linecap="round" transform="matrix(0.482315, 0, 0, 0.482315, 0.0000045, 15.168815)" fill-opacity="1" fill="#c9c9c9" fill-rule="nonzero" stroke-linejoin="round" d="M 661.79025 671.734027 C 666.641527 672.211865 670.537126 668.016605 672.391788 671.734027 C 674.246449 675.44335 679.818533 678.342778 680.612231 672.122777 C 681.405929 665.894677 678.75757 667.222907 674.513715 664.574547 C 670.26986 661.918088 671.59809 664.833714 666.827803 667.222907 C 662.057516 669.6121 658.736942 671.426266 661.79025 671.734027 Z M 661.79025 671.734027 " stroke="#000000" stroke-width="1.217" stroke-opacity="1" stroke-miterlimit="4"/><path stroke-linecap="round" transform="matrix(0.482315, 0, 0, 0.482315, 0.0000045, 15.168815)" fill-opacity="1" fill="#c9c9c9" fill-rule="nonzero" stroke-linejoin="round" d="M 748.740677 683.258846 C 758.807683 686.223065 767.165809 690.159159 765.181564 683.922961 C 763.18922 677.694861 761.601824 674.908819 758.151668 672.657308 C 754.70961 670.405798 757.495652 674.779236 752.458099 673.451006 C 747.420547 672.130876 739.864218 668.680719 745.169036 673.451006 C 750.465755 678.229392 751.397136 680.084054 749.939323 681.145018 C 748.48151 682.205981 747.955078 683.032075 748.740677 683.258846 Z M 748.740677 683.258846 " stroke="#000000" stroke-width="1.217" stroke-opacity="1" stroke-miterlimit="4"/><path stroke-linecap="round" transform="matrix(0.482315, 0, 0, 0.482315, 0.0000045, 15.168815)" fill-opacity="1" fill="#c9c9c9" fill-rule="nonzero" stroke-linejoin="round" d="M 733.765701 669.636396 C 736.551743 672.924574 735.547472 672.138975 738.900441 671.005121 C 742.245312 669.871266 741.718879 663.780849 737.871874 665.238662 C 734.032967 666.696474 733.765701 669.636396 733.765701 669.636396 Z M 733.765701 669.636396 " stroke="#000000" stroke-width="1.217" stroke-opacity="1" stroke-miterlimit="4"/><path stroke-linecap="round" transform="matrix(0.482315, 0, 0, 0.482315, 0.0000045, 15.168815)" fill-opacity="1" fill="#c9c9c9" fill-rule="nonzero" stroke-linejoin="round" d="M 755.770574 695.326295 C 757.398464 698.177129 758.556616 699.165202 759.212631 701.554395 C 759.876746 703.943588 752.231328 708.811062 757.179792 712.87674 C 762.136356 716.934319 762.395522 708.446609 767.036226 709.37799 C 771.67693 710.301271 780.026957 713.087313 775.653519 708.713875 C 771.280081 704.340437 763.11633 704.340437 765.473127 700.631114 C 767.829924 696.913691 773.134742 694.532597 766.906643 695.326295 C 760.670444 696.119993 759.350314 697.577806 758.556616 694.265332 C 757.754819 690.952857 754.183178 692.540253 755.770574 695.326295 Z M 755.770574 695.326295 " stroke="#000000" stroke-width="1.217" stroke-opacity="1" stroke-miterlimit="4"/><path stroke-linecap="round" transform="matrix(0.482315, 0, 0, 0.482315, 0.0000045, 15.168815)" fill-opacity="1" fill="#c9c9c9" fill-rule="nonzero" stroke-linejoin="round" d="M 404.364829 638.32582 C 401.983735 640.97418 397.343032 644.424336 398.930428 645.752565 C 400.525923 647.072696 403.838397 645.218034 407.685403 644.950769 C 411.524309 644.691602 404.364829 638.32582 404.364829 638.32582 Z M 404.364829 638.32582 " stroke="#000000" stroke-width="1.217" stroke-opacity="1" stroke-miterlimit="4"/><path stroke-linecap="round" transform="matrix(0.482315, 0, 0, 0.482315, 0.0000045, 15.168815)" fill-opacity="1" fill="#c9c9c9" fill-rule="nonzero" stroke-linejoin="round" d="M 312.644116 627.521808 C 316.434429 638.269127 342.464484 642.237617 345.250526 643.630638 C 348.036568 645.023659 351.21136 639.848424 354.394251 635.580273 C 357.577142 631.304022 364.534148 629.911001 359.164538 625.934412 C 353.803027 621.957823 339.678442 612.40915 328.347998 615.794515 C 317.017554 619.171781 311.44547 624.144542 312.644116 627.521808 Z M 312.644116 627.521808 " stroke="#000000" stroke-width="1.217" stroke-opacity="1" stroke-miterlimit="4"/><path stroke-linecap="round" transform="matrix(0.482315, 0, 0, 0.482315, 0.0000045, 15.168815)" fill-opacity="1" fill="#c9c9c9" fill-rule="nonzero" stroke-linejoin="round" d="M 731.182133 587.164694 C 727.796768 585.374824 718.653043 583.38248 714.676454 581.795084 C 710.699865 580.199589 711.096714 577.818495 714.279605 575.631776 C 717.462496 573.445057 717.260022 576.425474 718.256194 580.402063 C 719.252366 584.378652 725.018825 578.215344 731.578982 576.619849 C 738.139139 575.032453 728.995414 571.655187 725.415674 569.06352 C 721.835934 566.479952 726.014997 560.713493 722.629632 557.336227 C 719.252366 553.958961 715.8751 558.923623 712.505933 558.923623 C 709.136766 558.923623 709.703693 556.14568 709.703693 551.569768 C 709.703693 546.993856 715.275777 537.850131 710.699865 536.262735 C 706.132052 534.66724 707.322599 539.243152 706.132052 544.215913 C 704.933406 549.180575 693.400488 549.779898 693.602962 550.379221 C 693.797337 550.970445 696.583379 554.153336 698.972572 562.308988 C 701.353666 570.456541 698.575723 573.242583 693.206113 574.238755 C 687.836503 575.234927 689.02705 576.223 691.416243 581.795084 C 693.797337 587.359069 692.007467 586.565371 688.832675 584.176178 C 685.649784 581.795084 687.634029 580.596438 686.249107 576.822323 C 684.856086 573.040109 679.089627 573.841906 675.307413 573.445057 C 671.533298 573.040109 668.552881 573.242583 666.560537 567.281749 C 664.576292 561.312816 653.440223 559.72542 651.447879 555.149508 C 649.463634 550.573596 653.837072 544.807137 654.428296 543.414116 C 655.027619 542.029194 656.623114 542.029194 661.393401 543.414116 C 666.163688 544.807137 673.517543 540.239324 674.716189 538.052605 C 675.906736 535.865886 683.511659 526.414401 683.511659 524.972786 C 683.511659 523.531171 680.976685 522.640286 680.70132 521.344452 C 680.425955 520.056718 676.506059 520.550754 676.506059 520.550754 L 675.307413 521.012395 C 675.307413 521.012395 674.513715 523.004739 673.8496 526.714062 C 673.185486 530.431484 666.430954 532.682995 664.171344 532.682995 C 661.919833 532.682995 664.309026 528.309557 662.316682 527.378177 C 660.332437 526.454895 658.477776 532.286146 655.821317 534.804922 C 653.172957 537.323699 651.447879 529.896953 648.135405 527.645442 C 644.82293 525.393932 630.50397 541.956303 626.92423 544.880028 C 623.34449 547.795653 593.920971 549.253466 589.41795 548.9862 C 584.90683 548.718934 564.627036 535.201771 563.298806 531.484349 C 561.978676 527.775026 559.192634 519.157733 564.894301 513.464165 C 570.58787 507.762497 580.266126 496.756012 585.303679 489.466948 C 590.341231 482.177885 593.524122 482.574734 598.828941 481.384187 C 604.12566 480.19364 620.566547 490.00148 626.92423 494.771767 C 633.290012 499.542054 628.382043 499.809319 635.015091 505.243721 C 641.640039 510.678123 636.73207 502.724945 641.510456 501.663981 C 646.280743 500.603017 641.907305 503.518643 646.548009 503.389059 C 651.180613 503.251377 657.27913 503.785908 653.043374 505.243721 C 648.799519 506.701534 650.783764 506.167002 651.844728 509.617159 C 652.905692 513.067316 669.046918 519.060546 671.727673 519.263019 C 674.416528 519.457395 677.494132 520.153905 679.284002 520.453567 C 681.073872 520.753228 683.762727 518.86617 685.649784 518.266848 C 687.536842 517.667525 701.952989 518.566509 701.952989 518.566509 C 701.952989 518.566509 702.349838 515.083957 699.369421 514.387446 C 696.389004 513.690936 696.389004 515.780467 691.91028 515.577993 C 687.439654 515.383618 687.042805 508.029763 686.937519 506.531456 C 686.840331 505.041247 682.264419 500.173772 681.576008 497.590204 C 680.879497 495.006636 684.7508 492.414969 684.856086 490.527912 C 684.953274 488.640854 680.677023 483.271244 677.996268 479.893978 C 675.307413 476.508613 675.704262 471.543951 675.113038 468.263873 C 674.513715 464.975695 670.04309 463.485487 667.054574 461.598429 C 664.074157 459.711372 664.171344 459.711372 663.280459 456.034444 C 662.381474 452.349418 661.490589 452.057855 658.704547 451.061683 C 655.926604 450.065511 658.307698 448.67249 659.101396 447.481943 C 659.903193 446.291396 656.42064 445.991735 654.727958 442.314807 C 653.043374 438.63788 654.428296 440.128088 652.938088 437.941369 C 651.447879 435.75465 654.533583 435.349702 655.926604 434.256343 C 657.311526 433.162983 653.043374 432.17491 651.747541 431.4784 C 650.451707 430.781889 651.253504 429.882905 652.541239 428.392696 C 653.837072 426.902488 651.253504 422.828711 651.747541 420.641992 C 652.241577 418.455273 654.533583 417.953138 655.626942 417.256627 C 656.720302 416.560117 655.124807 414.575872 652.938088 411.895116 C 650.751369 409.206262 654.533583 407.513579 654.833244 406.525506 C 655.124807 405.529334 657.716474 403.140141 660.00038 402.249256 C 662.284287 401.350271 659.401057 399.665688 659.101396 398.175479 C 658.809833 396.677172 661.190927 396.280323 662.681136 395.486625 C 664.171344 394.692927 661.190927 392.903057 661.288115 390.910713 C 661.393401 388.926468 664.576292 388.626806 664.471006 387.735921 C 664.373818 386.836936 662.88361 385.840764 664.373818 384.852691 C 665.864027 383.856519 665.961214 382.860347 665.167516 381.766988 C 664.373818 380.673628 668.050746 377.093888 669.346579 375.004357 C 670.634314 372.922924 669.346579 369.14071 669.346579 369.14071 L 373.086649 369.14071 C 373.086649 369.14071 372.390138 368.743861 374.876519 367.650502 C 377.362899 366.557142 384.716754 361.786855 384.51428 358.701152 C 384.319905 355.623547 376.26954 349.954276 375.467743 347.27352 C 374.674045 344.584666 381.137014 336.833962 380.043655 335.141279 C 378.950295 333.448597 370.106232 326.88844 371.393966 323.413986 C 372.6898 319.931434 373.880347 323.017137 384.319905 322.118153 C 394.759464 321.227267 394.062953 315.161147 392.273083 311.378933 C 390.483213 307.604818 387.996833 308.398516 387.599984 304.624401 C 387.203135 300.842187 388.790531 301.838359 386.709098 300.048489 C 384.619567 298.258619 382.035999 298.355806 382.627223 294.776066 C 383.226546 291.204425 387.105947 292.192498 389.689515 294.776066 C 392.273083 297.367733 391.479385 300.939374 395.156313 302.332395 C 398.83324 303.725416 397.942355 297.764582 397.04337 296.169087 C 396.152485 294.581691 392.070609 287.624685 391.576573 282.554737 C 391.082536 277.484788 392.669932 274.301897 395.650349 272.811689 C 398.638865 271.313381 407.78259 268.8351 407.976965 266.745568 C 408.179439 264.656037 397.642693 264.558849 392.872406 262.768979 C 388.09402 260.979109 392.969594 252.232233 398.13673 254.912989 C 403.303866 257.601843 407.280455 258.395541 409.070325 255.909161 C 410.860195 253.42278 411.661992 250.045514 409.766835 244.578717 C 407.879778 239.10382 413.945898 234.236346 414.439935 233.539835 C 414.94207 232.843325 425.778478 233.142986 429.058556 233.240174 C 432.338635 233.337361 431.042801 231.652778 430.151916 229.360772 C 429.252931 227.076866 416.829128 231.353116 415.638581 230.753793 C 414.439935 230.162569 415.832956 227.773376 416.335091 222.703428 C 416.829128 217.633479 421.696602 212.563531 425.276342 213.162854 C 428.856082 213.754078 425.972853 218.524365 427.463061 220.81637 C 428.95327 223.100277 431.43965 222.006917 433.626369 220.81637 C 435.813088 219.617724 430.346291 214.150927 430.249103 212.263869 C 430.151916 210.376812 433.22952 210.174338 434.825015 209.477827 C 436.412411 208.781317 442.276058 204.910014 443.175042 203.419806 C 444.065928 201.921498 441.684834 197.054024 443.27223 193.077435 C 444.859626 189.100846 451.427882 190.890716 455.007622 189.594882 C 458.579263 188.307148 459.081398 186.42009 459.777909 184.824595 C 460.474419 183.237199 459.178586 181.147668 452.019106 180.054308 C 444.867725 178.960949 445.75861 172.595167 450.43171 173.396964 C 455.104809 174.190662 458.182414 179.26061 459.38106 178.661287 C 460.571607 178.061964 455.898507 176.571756 463.357649 171.704281 C 470.808691 166.828708 471.610488 158.681155 470.913978 157.482509 C 470.217467 156.291962 463.754498 155.29579 463.851685 157.78217 C 463.948873 160.268551 463.948873 164.544801 462.555852 164.447614 C 461.17093 164.342327 446.85197 163.248968 446.252647 160.867874 C 443.871553 151.319201 452.22158 146.945763 457.688377 146.848575 C 463.155175 146.751388 461.664966 145.755216 463.851685 144.062533 C 466.038404 142.37795 471.610488 148.735633 474.08877 149.334956 C 476.57515 149.934279 475.781452 145.358367 475.587077 143.268835 C 475.384603 141.179304 475.084942 135.21847 475.781452 134.319485 C 476.477963 133.4286 480.551739 134.424772 483.240594 133.525787 C 485.921349 132.634902 484.925177 126.366307 484.528328 124.681724 C 484.131479 122.989041 471.610488 123.086229 471.707676 121.798494 C 471.804863 120.502661 471.108353 111.059274 469.820618 109.666253 C 468.524785 108.273232 455.80132 101.713075 455.007622 97.639298 C 454.205825 93.565522 457.59119 88.892422 460.968456 90.577006 C 464.345722 92.269688 467.828274 103.106096 472.898223 99.129507 C 477.968171 95.152918 461.17093 86.900078 459.875096 85.806719 C 458.579263 84.713359 470.112181 79.149374 470.614316 76.063671 C 471.108353 72.986066 468.621972 67.616456 467.731087 70.200024 C 466.832102 72.783592 456.692205 79.740598 453.614601 79.740598 C 450.528897 79.740598 448.042517 73.974139 448.244991 70.200024 C 448.439366 66.41781 463.65731 54.390856 463.65731 54.390856 C 463.65731 54.390856 464.151347 53.994007 459.178586 53.896819 C 454.205825 53.799632 446.058272 46.834527 447.054444 40.574031 C 448.042517 34.313536 459.178586 25.161712 462.159003 19.298065 C 465.147519 13.434419 457.388716 7.465486 454.408299 6.671788 C 451.427882 5.87809 450.43171 10.948038 450.731371 16.317648 C 451.031033 21.687258 448.844314 22.278482 441.782021 21.087935 C 434.719729 19.897388 445.99348 3.262126 445.99348 3.262126 L 0.607413 0.605667 L 0.607413 188.307148 C 0.607413 188.307148 2.462074 188.169465 4.713585 189.100846 C 6.973195 190.032226 8.431007 199.175951 12.53718 201.557045 C 16.643352 203.946238 24.199681 208.586942 25.657494 216.272854 C 27.115306 223.958766 30.962312 224.096449 33.213823 226.882491 C 35.473432 229.660434 32.290541 232.843325 33.084239 234.697986 C 33.877937 236.552648 37.854526 241.063768 37.587261 242.788847 C 37.328094 244.505826 34.274786 246.230904 34.412469 247.8183 C 34.542052 249.413795 35.999865 252.459004 35.473432 254.451348 C 34.938901 256.435593 32.954656 260.809031 33.748354 263.991922 C 34.542052 267.174813 40.640568 273.006064 42.762496 272.87648 C 44.884423 272.738798 49.257861 274.067027 50.845257 277.776351 C 52.440752 281.493773 46.07497 280.959242 45.945387 282.554737 C 45.807704 284.142133 49.921976 285.203096 52.035804 286.393643 C 54.157731 287.592289 52.30307 289.179685 52.594632 293.285858 C 52.878096 297.400129 54.295414 295.675051 57.340622 296.736014 C 60.39393 297.796978 60.256248 301.506301 60.39393 303.360963 C 60.523513 305.215625 56.546924 308.398516 55.88281 311.046875 C 55.218695 313.703334 56.417341 315.161147 58.798435 317.283074 C 61.187628 319.405001 64.500102 319.534585 65.690649 320.725132 C 66.889295 321.923778 67.415728 328.411044 68.347108 330.800237 C 69.270389 333.18943 70.064087 338.486149 71.262733 338.882998 C 72.45328 339.287946 79.215911 335.708206 80.139193 337.028337 C 81.070573 338.356566 77.223567 340.478493 77.223567 341.66904 C 77.223567 342.859587 77.223567 348.958104 76.03302 351.47688 C 74.842473 353.995656 77.36125 352.40826 79.078229 354.789354 C 80.803307 357.178547 82.131537 361.819251 82.131537 363.941178 C 82.131537 366.063106 73.246978 367.124069 73.376562 369.642846 C 73.514244 372.161622 79.078229 375.077247 80.803307 379.580269 C 82.528386 384.091389 78.154948 379.847534 77.887682 383.289592 C 77.620416 386.739749 74.575208 387.266181 73.911093 391.24277 C 73.246978 395.219359 75.765755 398.539933 75.498489 401.455558 C 75.239322 404.371183 70.064087 408.21009 68.079842 412.186679 C 66.087498 416.163268 67.148462 420.941654 65.690649 424.254128 C 64.232837 427.566603 58.004737 432.207306 56.417341 434.191551 C 54.821846 436.183895 57.470206 440.160484 56.417341 442.282412 C 55.356377 444.39624 48.593746 447.579131 48.72333 451.296553 C 48.861012 455.005877 55.089112 457.386971 54.295414 467.065227 C 53.493617 476.743483 45.807704 473.431009 44.082626 482.704317 C 42.365647 491.985725 49.517028 493.176272 52.173486 496.626428 C 54.821846 500.076585 52.30307 499.274788 51.112523 507.624815 C 49.921976 515.982941 53.096768 512.135935 53.364033 518.898566 C 53.631299 525.653098 48.196897 529.629687 48.72333 534.140808 C 49.257861 538.643829 49.517028 537.186016 49.784293 541.82672 C 50.051559 546.467424 45.14359 546.467424 44.220308 547.528387 C 43.288928 548.589351 44.884423 561.312816 44.220308 563.037894 C 43.556194 564.762973 41.434266 572.311203 40.907834 575.097245 C 40.373303 577.883287 34.671635 583.584954 28.443536 585.042767 C 22.215436 586.500579 22.612285 586.630163 23.673249 588.087975 C 24.734212 589.545788 27.649838 595.377039 29.374916 597.895815 C 31.091895 600.414591 33.213823 604.925712 33.213823 604.925712 C 37.724943 604.39118 47.800048 598.292664 67.682993 593.125528 C 87.565938 587.958392 119.775499 587.958392 136.475553 590.339486 C 153.175607 592.728679 192.941498 608.238186 210.443349 617.381911 C 227.937101 626.525636 262.139006 633.685116 269.88971 632.697043 C 277.648513 631.700871 306.278334 623.448032 309.6556 621.560974 C 313.040965 619.665818 314.628361 615.397666 311.550756 616.385739 C 308.465053 617.381911 300.309401 617.381911 298.722005 614.595869 C 297.134609 611.817926 304.28599 604.455972 297.928307 603.662274 C 291.562525 602.868576 289.877941 600.876232 290.866014 597.401779 C 291.862186 593.919226 291.465337 593.328002 288.881769 588.946465 C 286.298201 584.573027 290.866014 586.468184 295.344739 588.05558 C 299.815364 589.642976 293.15802 593.222716 297.928307 596.802456 C 302.698594 600.382196 305.784297 592.234643 319.503934 588.258054 C 333.223571 584.281465 322.8812 580.701725 324.371409 578.515006 C 325.861617 576.328287 325.561956 573.841906 322.281877 571.452713 C 319.001799 569.06352 322.18469 568.666671 325.067919 568.375109 C 327.951149 568.075447 329.044508 567.378937 330.405133 568.334614 C 332.543259 569.857218 326.954977 578.94425 330.6643 582.783157 C 334.381722 586.630163 330.931566 581.325344 332.389378 580.798912 C 333.847191 580.264381 339.419275 580.928495 340.739405 578.806568 C 342.067635 576.69274 342.3349 572.448885 345.776958 574.700396 C 349.227115 576.951906 352.410006 579.737948 346.311489 579.737948 C 340.212973 579.737948 344.98326 585.698782 342.861333 589.545788 C 340.739405 593.392794 334.511306 593.789643 336.236384 594.583341 C 337.961462 595.377039 339.281593 601.613237 341.800369 602.406935 C 344.319145 603.200633 350.952193 595.644304 352.806855 594.98019 C 354.661516 594.316075 369.774174 596.041153 374.94131 596.575685 C 380.108446 597.102117 377.460087 603.597482 376.002274 608.367769 C 374.544461 613.138056 373.750763 615.397666 375.070894 616.717796 C 376.399123 618.046026 376.666389 615.527249 383.558603 615.794515 C 390.450817 616.061781 388.199307 621.3585 388.993005 623.877276 C 389.786703 626.396053 389.122588 631.16634 391.244515 631.563189 C 393.366443 631.968137 395.617953 632.494569 394.953839 636.203892 C 394.297823 639.921315 396.411651 643.630638 398.274412 641.241445 C 400.129074 638.860351 400.258657 635.944726 402.113319 632.227303 C 403.96798 628.51798 405.166626 627.060167 405.028944 623.877276 C 404.899361 620.694385 407.280455 615.259984 410.066497 617.114645 C 412.852539 618.977406 408.211835 622.686729 407.021288 626.396053 C 405.822642 630.105376 407.021288 634.219647 415.768164 640.715013 C 424.51504 647.210378 428.758895 640.050898 429.423009 637.135273 C 430.087124 634.219647 429.155744 630.769491 431.941786 629.846209 C 434.719729 628.914829 436.177542 626.930584 436.444807 625.472771 C 436.712073 624.014959 434.193296 622.022615 434.460562 619.503838 C 434.719729 616.985062 438.299469 621.755349 439.757282 622.549047 C 441.215094 623.350844 441.48236 619.900687 441.215094 616.985062 C 440.955927 614.069437 442.146474 612.611624 446.123063 611.55066 C 450.099653 610.489697 449.435538 614.466286 450.626085 615.794515 C 451.824731 617.114645 453.54171 615.1304 455.930903 615.000817 C 458.320096 614.863135 459.243378 611.421077 459.777909 612.214775 C 460.304341 613.008473 461.098039 614.863135 460.037076 616.588213 C 458.984211 618.313291 448.64184 622.28988 445.726214 623.213162 C 442.810589 624.144542 444.397985 625.472771 448.107309 627.327433 C 451.824731 629.182095 455.137205 631.16634 458.052831 632.624152 C 460.968456 634.081965 453.946658 638.196236 452.618429 639.783632 C 451.2902 641.379127 443.077855 637.661705 441.749625 636.203892 C 440.421396 634.74608 446.252647 633.021002 447.451293 631.16634 C 448.64184 629.311678 446.123063 628.388397 444.397985 627.457016 C 442.672907 626.533735 442.543323 629.044412 443.604287 631.700871 C 444.665251 634.349231 439.498115 633.952382 439.894964 632.761835 C 440.291813 631.563189 440.559078 630.769491 439.894964 628.914829 C 439.230849 627.060167 441.215094 624.541391 440.688662 624.808657 C 440.154131 625.067823 438.696318 627.060167 436.444807 628.785246 C 434.193296 630.510324 430.880822 636.074309 431.544937 638.32582 C 432.200952 640.577331 433.132333 645.4853 434.590145 647.736811 C 436.047958 649.988321 439.992151 651.381342 440.785849 655.260744 C 441.579547 659.140145 440.486188 661.229677 441.684834 662.023375 C 442.875381 662.817073 450.132048 666.890849 453.412127 670.673063 C 456.692205 674.447178 454.805148 679.120278 454.602674 682.700018 C 454.408299 686.279758 449.33835 684.886737 447.054444 684.3927 C 444.762438 683.890565 445.264574 680.310825 447.054444 673.847855 C 448.844314 667.392985 443.871553 671.264287 442.081683 671.563949 C 440.291813 671.86361 438.696318 666.988037 437.011734 664.307281 C 435.319052 661.626526 432.638296 661.12439 430.848426 663.707958 C 429.058556 666.299625 428.556421 671.369574 427.171499 672.163272 C 425.778478 672.95697 421.105378 672.560121 421.801889 674.050329 C 422.498399 675.540538 426.474988 681.703846 429.252931 684.190226 C 432.038973 686.676607 446.85197 689.260175 447.742855 689.260175 C 448.64184 689.260175 453.112465 689.559836 455.995695 690.750383 C 458.878924 691.949029 461.268117 695.625957 463.649211 694.427311 C 466.038404 693.236764 463.754498 690.952857 463.252362 687.170643 C 462.758326 683.396528 461.567779 681.606658 466.532441 683.096867 C 471.505202 684.587075 464.847857 686.579419 464.945045 689.657024 C 465.042232 692.742727 465.544368 690.353534 470.913978 691.147232 C 476.275489 691.949029 471.804863 692.540253 469.520957 695.423483 C 467.228951 698.306712 472.104525 697.116165 476.275489 697.415827 C 480.454552 697.707389 476.477963 695.52067 478.170645 696.419655 C 479.855229 697.31054 480.948588 698.209525 481.450724 696.022806 C 481.94476 693.836087 486.415386 691.949029 484.228667 690.450722 C 482.041948 688.960513 479.158718 693.7308 478.761869 691.446894 C 478.36502 689.162987 478.170645 688.863326 475.481791 688.660852 C 472.801035 688.466477 472.404186 684.789549 473.894395 682.205981 C 475.384603 679.614314 476.380775 683.69619 478.664682 684.587075 C 480.948588 685.48606 481.847573 681.90632 483.03812 681.112622 C 483.370177 680.885851 492.68398 680.11645 494.077001 682.003507 C 495.470022 683.890565 497.551455 685.48606 501.827705 687.073456 C 506.103956 688.660852 498.847288 689.462649 496.960231 690.85567 C 495.065074 692.240592 492.287131 692.937102 487.516844 693.236764 C 482.738458 693.536425 483.831818 694.427311 484.131479 699.497259 C 484.431141 704.567208 494.967887 704.972156 495.364736 704.866869 C 495.761585 704.769682 495.56721 699.302884 495.664397 697.909863 C 495.761585 696.516842 496.660569 697.610202 500.240309 698.606374 C 503.820049 699.602546 510.574581 707.053588 511.473566 707.158875 C 512.364451 707.256062 520.617291 703.676322 522.010312 699.302884 C 523.403333 694.929446 522.80401 687.97244 524.399505 685.48606 C 525.986901 682.999679 530.66 683.194054 533.146381 684.190226 C 535.632761 685.186398 536.02961 685.089211 536.329272 684.3927 C 536.620834 683.69619 533.446042 679.322752 532.749532 677.030746 C 532.053021 674.74684 534.434115 670.276214 538.807553 671.661136 C 543.18909 673.054157 544.28245 672.066084 546.266695 668.680719 C 548.259039 665.303453 547.165679 664.104807 551.239456 662.817073 C 555.313232 661.521239 552.130341 666.696474 553.823024 667.789834 C 555.515706 668.883193 556.803441 668.486344 557.305576 668.381058 C 557.799613 668.28387 559.589483 665.79749 561.282165 664.404469 C 562.966749 663.011448 561.379353 660.031031 563.26641 658.63801 C 565.153468 657.253088 571.422062 663.513583 572.312948 665.400641 C 573.211932 667.287698 567.542661 668.777907 566.052452 667.392985 C 564.562244 665.999964 561.873389 665.79749 562.472712 667.58736 C 563.072035 669.37723 565.752791 672.066084 566.651775 673.556293 C 567.542661 675.046501 564.35977 680.707674 566.546489 680.81296 C 568.733208 680.910148 572.912271 673.65348 574.00563 672.754496 C 575.09899 671.86361 578.281881 678.925903 580.962637 684.3927 C 583.651491 689.859498 583.748678 687.97244 583.449017 685.680435 C 583.149356 683.396528 584.842038 680.310825 588.421778 683.194054 C 592.001518 686.077284 584.74485 697.31054 587.425606 700.695905 C 590.106362 704.073171 590.705685 704.672494 587.919643 708.746271 C 585.141699 712.820047 589.013002 713.022521 593.289253 712.820047 C 597.565503 712.625672 619.035844 694.629785 619.732355 692.240592 C 620.428865 689.859498 611.487614 693.236764 609.49527 691.544081 C 607.511025 689.859498 610.191781 686.077284 611.487614 681.606658 C 612.775349 677.136033 605.324306 675.637725 607.405739 674.050329 C 609.49527 672.462933 605.615869 666.793662 605.421494 665.003792 C 605.21902 663.213922 606.911702 665.003792 609.398083 666.793662 C 611.884463 668.583532 611.082666 664.606943 614.16837 663.910432 C 617.254073 663.213922 618.44462 666.299625 620.931001 666.097151 C 623.417381 665.894677 619.53798 660.128218 619.141131 653.171212 C 618.744282 646.214206 617.351261 649.000248 615.755766 648.198451 C 614.16837 647.404753 608.895947 647.210378 599.355373 642.237617 C 589.814799 637.264856 592.098706 638.463502 591.402195 635.474986 C 590.705685 632.494569 602.238603 626.630923 603.42915 622.654334 C 604.627796 618.677745 594.382612 606.747978 593.588914 607.444488 C 592.795216 608.140999 579.772089 611.518265 574.499667 609.525921 C 569.235343 607.541676 572.815083 599.888159 573.803157 597.199305 C 574.799328 594.518549 590.608497 588.258054 595.872821 585.771673 C 601.145243 583.285293 599.152899 581.892272 597.662691 581.195761 C 596.172482 580.499251 583.149356 581.098574 582.655319 579.899928 C 582.153184 578.709381 588.316492 574.238755 590.308836 573.242583 C 592.293081 572.246411 599.355373 577.421646 602.141415 579.503079 C 604.919358 581.59261 603.331962 588.75209 603.534436 592.234643 C 603.728811 595.709096 596.868993 597.304591 595.581258 600.884331 C 594.285425 604.455972 600.246259 607.242014 603.825999 608.635035 C 607.405739 610.028056 609.098421 608.635035 609.300895 612.117588 C 609.49527 615.592041 607.106077 630.801887 608.701572 632.891418 C 610.288968 634.98095 631.168085 644.821185 635.841185 646.41668 C 640.514284 648.004076 638.627227 644.221862 640.117435 642.334805 C 641.607644 640.447747 648.167801 642.83694 654.031447 645.420508 C 659.903193 648.004076 658.008036 654.264572 660.591604 654.863895 C 663.183271 655.463218 668.447595 653.96491 669.144105 655.260744 C 669.840616 656.556577 668.747256 658.743296 669.443767 659.33452 C 670.140277 659.933843 686.443482 658.63801 688.832675 659.33452 C 691.213769 660.031031 689.926035 665.603115 690.81692 667.789834 C 691.715905 669.976553 694.39666 666.396813 695.287546 665.206266 C 696.18653 664.00762 703.143536 667.190511 704.836219 670.170928 C 706.528901 673.159444 706.528901 673.451006 708.71562 670.770251 C 710.902339 668.089495 715.867001 667.58736 720.248538 669.182855 C 724.621976 670.770251 727.100258 678.820616 724.119841 682.400356 C 721.139424 685.980096 710.400204 675.143689 708.513146 675.937387 C 706.626089 676.731085 706.528901 678.626241 706.22924 683.995851 C 705.929578 689.357362 711.995699 699.602546 717.365309 702.785437 C 722.72682 705.960229 722.030309 703.279473 721.536273 701.886452 C 721.042236 700.493431 716.369137 698.703561 716.369137 696.622129 C 716.369137 694.532597 721.63346 697.018978 723.026481 695.723144 C 724.419502 694.427311 725.715336 687.373117 726.30656 686.18257 C 726.905883 684.983924 733.46604 687.373117 734.16255 687.170643 C 734.859061 686.976268 733.46604 685.380773 730.388435 682.003507 C 727.302732 678.626241 727.399919 677.136033 731.578982 680.11645 C 735.749946 683.096867 737.248254 683.590903 736.948592 681.112622 C 736.648931 678.626241 735.652759 674.844027 733.960076 672.657308 C 732.275493 670.470589 727.302732 669.579704 722.832106 667.287698 C 718.353382 665.003792 717.656871 662.420224 714.028537 659.4884 C 710.400204 656.556577 707.071531 657.496056 705.581323 658.143973 C 704.091114 658.79189 700.462781 660.824729 699.669083 659.682775 C 698.867286 658.540822 695.886869 659.33452 694.647728 658.241161 C 693.400488 657.147801 694.744915 653.470874 696.040749 651.235561 C 697.328483 649.000248 698.575723 647.858295 697.482364 647.404753 C 683.592648 641.727383 669.346579 623.747693 667.751084 622.654334 C 666.163688 621.560974 666.260876 620.961651 668.147933 620.66199 C 682.693664 618.369984 679.186815 609.031884 679.680851 608.035712 C 680.182987 607.047639 682.33731 607.841337 686.046633 610.627379 C 689.755956 613.405322 699.166947 613.802171 699.960645 612.085192 C 700.762442 610.360113 693.602962 609.825582 687.107597 605.055295 C 680.612231 600.285008 681.535513 598.55993 683.65744 595.247455 C 685.779367 591.934981 686.443482 596.438002 688.298144 599.094461 C 690.152805 601.742821 689.229524 596.575685 691.351451 593.919226 C 693.46528 591.270866 694.923092 594.583341 698.243666 595.514721 C 701.55614 596.438002 709.906167 605.71941 712.554527 606.780373 C 715.210985 607.841337 716.271949 605.322561 716.927965 603.467899 C 717.59208 601.613237 699.831062 588.023184 705.864786 591.732507 C 711.890412 595.449929 713.421115 593.984018 713.615491 592.33183 C 713.817964 590.671543 710.50549 586.500579 712.951376 585.042767 C 715.405361 583.584954 715.939892 589.813054 717.924137 591.141283 C 719.916481 592.461413 720.507705 587.82071 722.362367 587.229486 C 724.225127 586.630163 731.708566 591.934981 737.078176 590.671543 C 742.447786 589.416205 734.559399 588.954564 731.182133 587.164694 Z M 257.368719 599.094461 C 256.307755 602.204461 251.002937 605.055295 241.259889 610.821754 C 241.259889 610.821754 236.951242 606.909957 233.573976 603.799956 C 230.188611 600.681857 224.025303 598.098289 222.769965 595.579513 C 221.506527 593.060736 222.437907 590.874017 224.689418 588.087975 C 226.940929 585.301933 235.363846 584.176178 237.412883 585.698782 C 239.470019 587.229486 240.530982 592.858262 242.320852 592.728679 C 244.110722 592.599096 253.189656 587.8936 255.109109 588.549616 C 257.036661 589.213731 258.429682 595.976362 257.368719 599.094461 Z M 257.368719 599.094461 " stroke="#000000" stroke-width="1.217" stroke-opacity="1" stroke-miterlimit="4"/></svg>