<svg xmlns="http://www.w3.org/2000/svg" xmlns:xlink="http://www.w3.org/1999/xlink" width="2000" zoomAndPan="magnify" viewBox="0 0 1500 1499.999933" height="2000" preserveAspectRatio="xMidYMid meet" version="1.0"><defs><clipPath id="8b8e38ddc6"><path d="M 750 733.285156 L 783.425781 733.285156 L 783.425781 766.714844 L 750 766.714844 Z M 750 733.285156 " clip-rule="nonzero"/></clipPath><clipPath id="30d885cad1"><path d="M 766.714844 733.285156 C 757.484375 733.285156 750 740.769531 750 750 C 750 759.230469 757.484375 766.714844 766.714844 766.714844 C 775.945312 766.714844 783.425781 759.230469 783.425781 750 C 783.425781 740.769531 775.945312 733.285156 766.714844 733.285156 Z M 766.714844 733.285156 " clip-rule="nonzero"/></clipPath><clipPath id="dc2749dafe"><path d="M 0 0.285156 L 33.425781 0.285156 L 33.425781 33.714844 L 0 33.714844 Z M 0 0.285156 " clip-rule="nonzero"/></clipPath><clipPath id="56cc69a457"><path d="M 16.714844 0.285156 C 7.484375 0.285156 0 7.769531 0 17 C 0 26.230469 7.484375 33.714844 16.714844 33.714844 C 25.945312 33.714844 33.425781 26.230469 33.425781 17 C 33.425781 7.769531 25.945312 0.285156 16.714844 0.285156 Z M 16.714844 0.285156 " clip-rule="nonzero"/></clipPath><clipPath id="bde6e64c72"><rect x="0" width="34" y="0" height="34"/></clipPath><clipPath id="94cfe98db4"><path d="M 203.4375 375 L 1296.9375 375 L 1296.9375 1499 L 203.4375 1499 Z M 203.4375 375 " clip-rule="nonzero"/></clipPath></defs><g clip-path="url(#8b8e38ddc6)"><g clip-path="url(#30d885cad1)"><g transform="matrix(1, 0, 0, 1, 750, 733)"><g clip-path="url(#bde6e64c72)"><g clip-path="url(#dc2749dafe)"><g clip-path="url(#56cc69a457)"><path fill="#2d2726" d="M 0 0.285156 L 33.425781 0.285156 L 33.425781 33.714844 L 0 33.714844 Z M 0 0.285156 " fill-opacity="1" fill-rule="nonzero"/></g></g></g></g></g></g><path fill="#000000" d="M 724.722656 1158.082031 L 724.722656 977.386719 L 491.125 977.386719 C 493.074219 1050.058594 503.347656 1118.550781 520.214844 1179.71875 C 582.863281 1167.148438 652.011719 1159.53125 724.722656 1158.082031 Z M 724.722656 1158.082031 " fill-opacity="1" fill-rule="evenodd"/><path fill="#000000" d="M 724.722656 1445.082031 L 724.722656 1208.992188 C 657.167969 1210.363281 593.296875 1217.1875 535.566406 1228.398438 C 545.890625 1257.257812 557.785156 1284.007812 571.035156 1308.242188 C 612.210938 1383.542969 665.933594 1433.722656 724.722656 1445.082031 Z M 724.722656 1445.082031 " fill-opacity="1" fill-rule="evenodd"/><path fill="#000000" d="M 775.648438 1208.992188 L 775.648438 1445.082031 C 834.441406 1433.722656 888.171875 1383.554688 929.339844 1308.246094 C 942.585938 1284.011719 954.484375 1257.253906 964.808594 1228.398438 C 907.074219 1217.179688 843.199219 1210.363281 775.648438 1208.992188 Z M 775.648438 1208.992188 " fill-opacity="1" fill-rule="evenodd"/><path fill="#000000" d="M 775.648438 977.386719 L 775.648438 1158.078125 C 848.359375 1159.527344 917.511719 1167.148438 980.160156 1179.71875 C 997.027344 1118.550781 1007.296875 1050.058594 1009.25 977.386719 Z M 775.648438 977.386719 " fill-opacity="1" fill-rule="evenodd"/><path fill="#000000" d="M 1245.304688 926.480469 C 1240.453125 830.3125 1208.273438 741.453125 1156.40625 667.550781 C 1119.910156 685.28125 1077.171875 700.589844 1029.714844 712.832031 C 1031.222656 718.359375 1032.675781 723.933594 1034.082031 729.550781 L 1034.105469 729.546875 C 1049.230469 790.128906 1058.386719 856.632812 1060.183594 926.480469 Z M 1245.304688 926.480469 " fill-opacity="1" fill-rule="evenodd"/><path fill="#000000" d="M 1156.289062 1236.269531 C 1208.222656 1162.269531 1240.445312 1073.4375 1245.304688 977.386719 L 1060.1875 977.386719 C 1058.222656 1053.730469 1047.460938 1126.042969 1029.699219 1191.039062 C 1077.125 1203.285156 1119.828125 1218.574219 1156.289062 1236.269531 Z M 1156.289062 1236.269531 " fill-opacity="1" fill-rule="evenodd"/><path fill="#000000" d="M 910.832031 1420.929688 C 983.125 1396.191406 1047.878906 1355.226562 1100.746094 1302.378906 C 1108.859375 1294.269531 1116.691406 1285.875 1124.226562 1277.21875 C 1092.363281 1262.652344 1055.484375 1249.945312 1014.675781 1239.554688 C 1002.972656 1273.203125 989.277344 1304.367188 973.894531 1332.503906 C 955.253906 1366.605469 934.070312 1396.371094 910.832031 1420.929688 Z M 910.832031 1420.929688 " fill-opacity="1" fill-rule="evenodd"/><path fill="#000000" d="M 376.148438 1277.21875 C 383.683594 1285.875 391.511719 1294.269531 399.625 1302.378906 C 452.492188 1355.226562 517.257812 1396.191406 589.550781 1420.929688 C 566.316406 1396.371094 545.128906 1366.605469 526.476562 1332.503906 C 511.101562 1304.367188 497.414062 1273.203125 485.699219 1239.554688 C 444.894531 1249.945312 408.007812 1262.652344 376.148438 1277.21875 Z M 376.148438 1277.21875 " fill-opacity="1" fill-rule="evenodd"/><path fill="#000000" d="M 255.0625 977.386719 C 259.925781 1073.4375 292.152344 1162.269531 344.085938 1236.269531 C 380.546875 1218.574219 423.25 1203.285156 470.675781 1191.039062 C 452.910156 1126.042969 442.152344 1053.730469 440.1875 977.386719 Z M 255.0625 977.386719 " fill-opacity="1" fill-rule="evenodd"/><path fill="#000000" d="M 343.96875 667.550781 C 292.097656 741.453125 259.917969 830.304688 255.0625 926.480469 L 440.191406 926.480469 C 441.992188 856.6875 451.148438 790.234375 466.269531 729.644531 C 467.683594 723.988281 469.148438 718.390625 470.664062 712.835938 C 423.207031 700.589844 380.46875 685.28125 343.96875 667.550781 Z M 343.96875 667.550781 " fill-opacity="1" fill-rule="evenodd"/><path fill="#000000" d="M 791.277344 632.488281 C 780.765625 621.980469 766.230469 615.476562 750.183594 615.476562 C 734.140625 615.476562 719.605469 621.980469 709.097656 632.488281 C 698.585938 642.996094 692.078125 657.527344 692.078125 673.5625 C 692.078125 689.601562 698.585938 704.132812 709.097656 714.640625 C 719.605469 725.148438 734.140625 731.65625 750.183594 731.65625 C 766.230469 731.65625 780.765625 725.148438 791.277344 714.640625 C 801.789062 704.132812 808.292969 689.601562 808.292969 673.5625 C 808.292969 657.527344 801.789062 642.996094 791.277344 632.488281 Z M 791.277344 632.488281 " fill-opacity="1" fill-rule="evenodd"/><path fill="#000000" d="M 724.722656 779.570312 C 704.84375 774.8125 687.074219 764.613281 673.089844 750.632812 C 670.722656 748.273438 668.46875 745.804688 666.328125 743.230469 C 614.886719 739.816406 565.808594 733.300781 520.226562 724.15625 C 518.625 729.964844 517.078125 735.835938 515.597656 741.777344 C 501.476562 798.335938 492.894531 860.679688 491.125 926.480469 L 724.722656 926.480469 Z M 724.722656 779.570312 " fill-opacity="1" fill-rule="evenodd"/><path fill="#000000" d="M 834.039062 743.230469 C 831.898438 745.804688 829.644531 748.273438 827.285156 750.632812 C 813.296875 764.613281 795.53125 774.816406 775.648438 779.570312 L 775.648438 926.480469 L 1009.25 926.480469 C 1007.480469 860.734375 998.894531 798.425781 984.777344 741.867188 L 984.796875 741.863281 L 984.777344 741.773438 C 983.296875 735.835938 981.753906 729.964844 980.148438 724.15625 C 934.566406 733.300781 885.488281 739.816406 834.039062 743.230469 Z M 834.039062 743.230469 " fill-opacity="1" fill-rule="evenodd"/><path fill="#000000" d="M 833.21875 482.839844 L 833.257812 482.757812 C 859.242188 493.675781 883.070312 509.871094 903.933594 530.746094 L 903.984375 530.691406 L 903.996094 530.699219 C 907.910156 534.613281 913.058594 536.578125 918.199219 536.578125 C 923.382812 536.578125 928.539062 534.628906 932.457031 530.746094 L 932.410156 530.699219 L 932.414062 530.691406 L 932.417969 530.691406 L 932.464844 530.734375 C 936.410156 526.761719 938.402344 521.605469 938.402344 516.484375 L 938.304688 516.484375 C 938.304688 511.34375 936.332031 506.199219 932.417969 502.28125 L 932.414062 502.273438 C 907.691406 477.5625 879.316406 458.390625 848.488281 445.507812 C 817.9375 432.730469 784.777344 425.996094 750.183594 425.996094 C 715.589844 425.996094 682.4375 432.730469 651.886719 445.507812 C 621.066406 458.398438 592.679688 477.5625 567.960938 502.273438 L 567.957031 502.28125 C 563.972656 506.261719 561.976562 511.40625 561.976562 516.484375 L 562.074219 516.484375 C 562.074219 521.667969 564.023438 526.828125 567.910156 530.734375 L 567.957031 530.691406 L 567.960938 530.691406 L 567.960938 530.695312 L 567.914062 530.746094 L 567.957031 530.789062 C 571.863281 534.648438 577.011719 536.582031 582.175781 536.582031 C 587.316406 536.582031 592.464844 534.613281 596.386719 530.695312 L 596.386719 530.691406 L 596.441406 530.746094 C 617.304688 509.871094 641.128906 493.675781 667.113281 482.757812 C 692.957031 471.902344 720.917969 466.183594 750.183594 466.183594 C 779.28125 466.183594 807.234375 471.9375 833.21875 482.839844 Z M 833.21875 482.839844 " fill-opacity="1" fill-rule="evenodd"/><path fill="#000000" d="M 904.421875 310.367188 C 952.878906 330.585938 997.296875 360.4375 1035.792969 398.835938 L 1035.890625 398.9375 C 1039.742188 402.796875 1044.898438 404.722656 1050.105469 404.722656 C 1055.246094 404.722656 1060.398438 402.757812 1064.320312 398.835938 C 1068.238281 394.917969 1070.203125 389.769531 1070.203125 384.628906 C 1070.203125 379.441406 1068.253906 374.28125 1064.367188 370.363281 L 1064.320312 370.414062 C 1036.488281 342.597656 1006.046875 318.890625 973.300781 299.699219 C 940.785156 280.632812 905.738281 265.761719 868.457031 255.453125 C 849.363281 250.171875 829.820312 246.15625 809.980469 243.472656 C 790.636719 240.855469 770.660156 239.515625 750.183594 239.515625 C 729.714844 239.515625 709.738281 240.855469 690.394531 243.472656 C 670.554688 246.15625 651.015625 250.171875 631.910156 255.453125 C 594.640625 265.757812 559.589844 280.628906 527.070312 299.695312 C 494.324219 318.890625 463.882812 342.597656 436.054688 370.414062 L 436.003906 370.363281 C 432.109375 374.28125 430.164062 379.441406 430.164062 384.628906 C 430.164062 389.769531 432.128906 394.910156 436.054688 398.835938 L 436.054688 398.9375 C 439.910156 402.796875 445.0625 404.722656 450.269531 404.722656 C 455.410156 404.722656 460.566406 402.757812 464.484375 398.835938 C 502.832031 360.511719 547.289062 330.667969 595.863281 310.40625 C 644.070312 290.296875 696.160156 279.710938 750.183594 279.710938 C 804.234375 279.710938 856.269531 290.285156 904.421875 310.367188 Z M 904.421875 310.367188 " fill-opacity="1" fill-rule="evenodd"/><path fill="#000000" d="M 999.984375 434.828125 C 966.21875 401.144531 927.3125 374.984375 884.925781 357.296875 C 843.019531 339.820312 797.5625 330.617188 750.183594 330.617188 C 702.832031 330.617188 657.324219 339.828125 615.359375 357.339844 C 573.09375 374.96875 534.222656 401.117188 500.492188 434.828125 C 486.621094 448.695312 468.445312 455.628906 450.269531 455.628906 C 432.183594 455.628906 414.023438 448.679688 400.101562 434.777344 L 400.050781 434.828125 C 386.183594 420.96875 379.242188 402.800781 379.242188 384.628906 C 379.242188 366.523438 386.179688 348.394531 400.050781 334.523438 L 400.050781 334.421875 C 430.585938 303.890625 464.484375 277.589844 501.410156 255.945312 C 537.789062 234.617188 576.886719 218.015625 618.386719 206.535156 C 639.757812 200.632812 661.554688 196.140625 683.628906 193.160156 C 705.875 190.144531 728.113281 188.609375 750.183594 188.609375 C 772.253906 188.609375 794.5 190.144531 816.746094 193.160156 C 838.820312 196.148438 860.617188 200.632812 881.980469 206.535156 C 923.484375 218.019531 962.589844 234.621094 998.964844 255.945312 C 1035.882812 277.589844 1069.78125 303.890625 1100.324219 334.421875 L 1100.324219 334.523438 C 1114.195312 348.394531 1121.132812 366.527344 1121.132812 384.628906 C 1121.132812 402.800781 1114.195312 420.96875 1100.324219 434.828125 C 1086.457031 448.695312 1068.273438 455.628906 1050.105469 455.628906 C 1032.035156 455.628906 1013.902344 448.695312 999.984375 434.828125 Z M 999.984375 434.828125 " fill-opacity="1" fill-rule="evenodd"/><path fill="#000000" d="M 1010.632812 52.871094 C 1092.179688 86.640625 1166.882812 136.429688 1231.230469 200.757812 L 1231.234375 200.765625 L 1231.195312 200.808594 C 1245.0625 214.269531 1252.246094 232.136719 1252.632812 250.171875 C 1253.03125 268.253906 1246.527344 286.515625 1233.023438 300.660156 L 1233.027344 300.660156 L 1232.925781 300.773438 L 1232.636719 301.15625 L 1232.632812 301.160156 L 1232.589844 301.117188 C 1231.960938 301.769531 1231.316406 302.402344 1230.671875 303.015625 C 1216.96875 316.105469 1199.3125 322.664062 1181.699219 322.664062 C 1164.125 322.664062 1146.488281 316.117188 1132.746094 303.011719 L 1132.742188 303.015625 C 1132.097656 302.402344 1131.457031 301.769531 1130.828125 301.117188 L 1130.789062 301.160156 C 1080.035156 250.425781 1020.726562 211 956.320312 184.335938 C 891.835938 157.636719 821.972656 143.566406 750.183594 143.566406 C 678.398438 143.566406 608.53125 157.636719 544.050781 184.335938 C 479.640625 211.007812 420.339844 250.425781 369.582031 301.160156 L 369.535156 301.117188 C 368.953125 301.722656 368.34375 302.324219 367.730469 302.917969 C 353.96875 316.082031 336.289062 322.671875 318.675781 322.671875 C 301.066406 322.671875 283.40625 316.113281 269.703125 303.019531 C 269.058594 302.40625 268.410156 301.769531 267.78125 301.117188 L 267.738281 301.160156 L 267.601562 300.9375 L 267.339844 300.660156 L 267.390625 300.613281 C 253.867188 286.453125 247.347656 268.222656 247.734375 250.171875 C 248.121094 232.136719 255.3125 214.265625 269.179688 200.808594 L 269.140625 200.761719 L 269.140625 200.757812 L 269.1875 200.804688 L 269.539062 200.464844 C 333.746094 136.269531 408.3125 86.597656 489.59375 52.9375 C 571.113281 19.183594 659.210938 1.558594 750.183594 1.558594 C 841.234375 1.558594 929.207031 19.15625 1010.632812 52.871094 Z M 1010.632812 52.871094 " fill-opacity="1" fill-rule="evenodd"/><path fill="#000000" d="M 575.785156 587.199219 C 560.640625 613.578125 547.136719 643.191406 535.585938 675.46875 C 569.316406 682.019531 605.101562 687.078125 642.449219 690.433594 C 641.597656 684.9375 641.152344 679.300781 641.152344 673.5625 C 641.152344 643.472656 653.359375 616.21875 673.089844 596.496094 C 687.074219 582.511719 704.84375 572.320312 724.722656 567.558594 L 724.722656 519.015625 C 711.542969 521.03125 698.859375 524.625 686.804688 529.691406 C 666.738281 538.121094 648.378906 550.578125 632.398438 566.585938 L 632.398438 566.683594 L 632.390625 566.6875 C 618.527344 580.546875 600.351562 587.488281 582.175781 587.488281 C 580.039062 587.488281 577.910156 587.390625 575.785156 587.199219 Z M 575.785156 587.199219 " fill-opacity="1" fill-rule="evenodd"/><path fill="#000000" d="M 511.15625 517.578125 C 459.890625 545.8125 414.171875 582.832031 376.039062 626.589844 C 407.90625 641.171875 444.820312 653.898438 485.679688 664.308594 C 498.304688 628.019531 513.25 594.597656 530.152344 564.71875 C 517.753906 551.40625 511.421875 534.515625 511.15625 517.578125 Z M 511.15625 517.578125 " fill-opacity="1" fill-rule="evenodd"/><g clip-path="url(#94cfe98db4)"><path fill="#000000" d="M 935.894531 437.839844 C 1034.625 473.484375 1120.1875 536.828125 1183.207031 618.523438 C 1183.839844 619.257812 1184.4375 620.03125 1184.996094 620.851562 C 1188.96875 626.058594 1192.851562 631.335938 1196.640625 636.6875 C 1259.765625 725.875 1296.871094 834.652344 1296.871094 951.929688 L 1296.871094 951.933594 L 1296.867188 952.589844 C 1296.691406 1103.242188 1235.535156 1239.617188 1136.753906 1338.371094 C 1037.828125 1437.265625 901.144531 1498.441406 750.183594 1498.441406 C 599.226562 1498.441406 462.546875 1437.265625 363.621094 1338.371094 C 264.839844 1239.617188 203.683594 1103.242188 203.507812 952.589844 L 203.503906 951.933594 L 203.503906 951.929688 C 203.503906 834.644531 240.605469 725.875 303.734375 636.6875 C 307.523438 631.335938 311.40625 626.058594 315.378906 620.851562 C 315.9375 620.03125 316.53125 619.257812 317.167969 618.523438 C 380.195312 536.828125 465.753906 473.472656 564.496094 437.832031 C 585.515625 421.820312 608.285156 408.65625 632.390625 398.578125 C 669.167969 383.195312 708.902344 375.09375 750.183594 375.09375 C 791.472656 375.09375 831.207031 383.195312 867.984375 398.578125 C 892.097656 408.65625 914.871094 421.828125 935.894531 437.839844 Z M 935.894531 437.839844 " fill-opacity="1" fill-rule="evenodd"/></g><path fill="#000000" d="M 970.222656 564.71875 C 987.117188 594.59375 1002.070312 628.019531 1014.695312 664.308594 C 1055.554688 653.898438 1092.464844 641.171875 1124.335938 626.589844 C 1086.183594 582.800781 1040.429688 545.765625 989.117188 517.519531 C 988.871094 534.53125 982.5625 551.449219 970.222656 564.71875 Z M 970.222656 564.71875 " fill-opacity="1" fill-rule="evenodd"/><path fill="#000000" d="M 775.648438 518.980469 L 775.648438 567.558594 C 795.53125 572.3125 813.296875 582.511719 827.285156 596.496094 C 847.011719 616.21875 859.214844 643.472656 859.214844 673.5625 C 859.214844 679.300781 858.769531 684.9375 857.917969 690.433594 C 895.273438 687.082031 931.0625 682.023438 964.785156 675.46875 C 953.242188 643.191406 939.734375 613.574219 924.589844 587.195312 C 922.464844 587.386719 920.335938 587.484375 918.199219 587.484375 C 900.023438 587.484375 881.851562 580.554688 867.988281 566.695312 L 867.976562 566.683594 L 867.976562 566.585938 C 851.996094 550.578125 833.636719 538.121094 813.5625 529.691406 L 813.5625 529.585938 C 801.578125 524.550781 788.894531 520.980469 775.648438 518.980469 Z M 775.648438 518.980469 " fill-opacity="1" fill-rule="evenodd"/><path fill="#000000" d="M 1195.222656 236.75 C 1135.441406 176.992188 1066.40625 130.882812 991.335938 99.800781 C 916.226562 68.695312 834.773438 52.464844 750.183594 52.464844 C 665.667969 52.464844 584.097656 68.726562 508.882812 99.871094 C 433.703125 131 364.652344 177.054688 305.144531 236.652344 L 305.144531 236.753906 L 304.746094 237.054688 C 300.683594 240.941406 298.574219 246.058594 298.464844 251.167969 C 298.351562 256.226562 300.074219 261.300781 303.65625 265.25 L 303.742188 265.164062 L 303.75 265.164062 L 304.144531 265.667969 L 304.707031 266.230469 C 308.566406 269.914062 313.605469 271.761719 318.675781 271.761719 C 323.738281 271.761719 328.738281 269.945312 332.519531 266.332031 L 333.179688 265.667969 L 333.574219 265.164062 C 388.902344 209.863281 453.890625 166.746094 524.757812 137.40625 C 595.535156 108.097656 671.941406 92.660156 750.183594 92.660156 C 828.429688 92.660156 904.835938 108.097656 975.617188 137.40625 C 1046.480469 166.742188 1111.464844 209.863281 1166.792969 265.164062 L 1167.191406 265.667969 L 1167.746094 266.222656 L 1167.851562 266.324219 C 1171.632812 269.945312 1176.632812 271.761719 1181.699219 271.761719 C 1186.769531 271.761719 1191.808594 269.910156 1195.667969 266.226562 L 1196.222656 265.667969 L 1196.625 265.164062 L 1196.628906 265.160156 L 1196.667969 265.195312 C 1200.277344 261.242188 1202.015625 256.183594 1201.90625 251.167969 C 1201.800781 246.058594 1199.691406 240.949219 1195.625 237.054688 L 1195.230469 236.761719 Z M 1195.222656 236.75 " fill-opacity="1" fill-rule="evenodd"/><path fill="#8ac9fe" d="M 984.796875 741.863281 Z M 775.648438 779.566406 L 775.648438 926.480469 L 1009.246094 926.480469 C 1007.480469 860.738281 998.894531 798.425781 984.796875 741.863281 L 980.148438 724.160156 C 934.566406 733.300781 885.488281 739.820312 834.042969 743.230469 C 819.179688 761.085938 798.789062 774.035156 775.648438 779.566406 Z M 775.648438 779.566406 " fill-opacity="1" fill-rule="evenodd"/><path fill="#8ac9fe" d="M 1034.105469 729.542969 C 1049.230469 790.132812 1058.386719 856.628906 1060.183594 926.480469 L 1245.308594 926.480469 C 1240.453125 830.308594 1208.273438 741.453125 1156.40625 667.546875 C 1119.90625 685.28125 1077.171875 700.589844 1029.714844 712.832031 Z M 1034.105469 729.542969 " fill-opacity="1" fill-rule="evenodd"/><path fill="#8ac9fe" d="M 1245.308594 977.386719 L 1060.1875 977.386719 C 1058.21875 1053.726562 1047.460938 1126.042969 1029.699219 1191.039062 C 1077.125 1203.28125 1119.824219 1218.570312 1156.285156 1236.265625 C 1208.222656 1162.273438 1240.445312 1073.433594 1245.308594 977.386719 Z M 1245.308594 977.386719 " fill-opacity="1" fill-rule="evenodd"/><path fill="#8ac9fe" d="M 980.160156 1179.714844 C 997.027344 1118.550781 1007.296875 1050.058594 1009.246094 977.386719 L 775.648438 977.386719 L 775.648438 1158.078125 C 848.359375 1159.527344 917.511719 1167.144531 980.160156 1179.714844 Z M 980.160156 1179.714844 " fill-opacity="1" fill-rule="evenodd"/><path fill="#8ac9fe" d="M 964.808594 1228.398438 C 907.074219 1217.179688 843.203125 1210.363281 775.648438 1208.992188 L 775.648438 1445.078125 C 866.050781 1427.617188 930.523438 1324.210938 964.808594 1228.398438 Z M 964.808594 1228.398438 " fill-opacity="1" fill-rule="evenodd"/><path fill="#8ac9fe" d="M 1014.675781 1239.550781 C 991.375 1306.523438 957.289062 1371.835938 910.832031 1420.929688 C 994.03125 1392.460938 1067.40625 1342.460938 1124.226562 1277.21875 C 1092.363281 1262.652344 1055.484375 1249.945312 1014.675781 1239.550781 Z M 1014.675781 1239.550781 " fill-opacity="1" fill-rule="evenodd"/><path fill="#8ac9fe" d="M 724.722656 1445.078125 L 724.722656 1208.992188 C 657.167969 1210.367188 593.292969 1217.183594 535.566406 1228.402344 C 569.835938 1324.203125 634.351562 1427.621094 724.722656 1445.078125 Z M 724.722656 1445.078125 " fill-opacity="1" fill-rule="evenodd"/><path fill="#8ac9fe" d="M 520.214844 1179.714844 C 582.863281 1167.148438 652.011719 1159.53125 724.722656 1158.082031 L 724.722656 977.386719 L 491.125 977.386719 C 493.078125 1050.058594 503.347656 1118.550781 520.214844 1179.714844 Z M 520.214844 1179.714844 " fill-opacity="1" fill-rule="evenodd"/><path fill="#8ac9fe" d="M 491.125 926.480469 L 724.722656 926.480469 L 724.722656 779.566406 C 701.613281 774.039062 681.160156 761.078125 666.328125 743.230469 C 614.886719 739.820312 565.808594 733.300781 520.226562 724.160156 C 503.011719 786.570312 493.042969 855.058594 491.125 926.480469 Z M 491.125 926.480469 " fill-opacity="1" fill-rule="evenodd"/><path fill="#8ac9fe" d="M 535.585938 675.46875 C 569.316406 682.019531 605.101562 687.078125 642.449219 690.433594 C 633.648438 633.738281 670.035156 580.648438 724.722656 567.5625 L 724.722656 519.015625 C 711.542969 521.035156 698.859375 524.625 686.808594 529.6875 C 666.734375 538.121094 648.378906 550.574219 632.394531 566.585938 L 632.394531 566.6875 C 617.011719 582.0625 596.183594 589.039062 575.785156 587.199219 C 560.644531 613.574219 547.136719 643.191406 535.585938 675.46875 Z M 535.585938 675.46875 " fill-opacity="1" fill-rule="evenodd"/><path fill="#8ac9fe" d="M 485.679688 664.308594 C 498.304688 628.019531 513.253906 594.597656 530.15625 564.722656 C 517.757812 551.40625 511.421875 534.511719 511.160156 517.574219 C 459.890625 545.8125 414.167969 582.832031 376.039062 626.59375 C 407.90625 641.171875 444.820312 653.894531 485.679688 664.308594 Z M 485.679688 664.308594 " fill-opacity="1" fill-rule="evenodd"/><path fill="#8ac9fe" d="M 470.664062 712.835938 C 423.207031 700.589844 380.46875 685.28125 343.96875 667.546875 C 292.097656 741.453125 259.917969 830.304688 255.066406 926.480469 L 440.191406 926.480469 C 442.128906 851.480469 452.632812 778.785156 470.664062 712.835938 Z M 470.664062 712.835938 " fill-opacity="1" fill-rule="evenodd"/><path fill="#8ac9fe" d="M 440.1875 977.386719 L 255.066406 977.386719 C 259.925781 1073.4375 292.152344 1162.273438 344.085938 1236.265625 C 380.550781 1218.570312 423.246094 1203.28125 470.675781 1191.039062 C 452.914062 1126.042969 442.152344 1053.726562 440.1875 977.386719 Z M 440.1875 977.386719 " fill-opacity="1" fill-rule="evenodd"/><path fill="#8ac9fe" d="M 485.703125 1239.550781 C 444.894531 1249.945312 408.007812 1262.652344 376.148438 1277.21875 C 432.96875 1342.464844 506.347656 1392.457031 589.550781 1420.929688 C 543.074219 1371.816406 509.015625 1306.546875 485.703125 1239.550781 Z M 485.703125 1239.550781 " fill-opacity="1" fill-rule="evenodd"/><path fill="#6cf5c2" d="M 692.078125 673.566406 C 692.078125 725.160156 754.769531 751.132812 791.273438 714.640625 C 813.964844 691.957031 813.964844 655.171875 791.273438 632.488281 C 754.769531 595.996094 692.078125 621.972656 692.078125 673.566406 Z M 692.078125 673.566406 " fill-opacity="1" fill-rule="evenodd"/><path fill="#6cf5c2" d="M 1064.367188 370.367188 Z M 464.484375 398.835938 C 580.246094 283.132812 752.957031 247.195312 904.421875 310.367188 C 952.785156 330.546875 997.515625 360.558594 1035.890625 398.9375 C 1054.449219 417.5 1083.058594 389.195312 1064.320312 370.414062 C 889.496094 195.679688 610.859375 195.667969 436.054688 370.414062 L 436.003906 370.367188 C 428.242188 378.179688 428.179688 390.964844 436.054688 398.835938 C 436.054688 400.617188 452.171875 411.140625 464.484375 398.835938 Z M 464.484375 398.835938 " fill-opacity="1" fill-rule="evenodd"/><path fill="#6cf5c2" d="M 1196.632812 265.160156 Z M 524.757812 137.40625 C 668.867188 77.734375 831.503906 77.738281 975.613281 137.40625 C 1046.476562 166.746094 1111.46875 209.859375 1166.792969 265.167969 C 1174.492188 273.785156 1187.535156 274.253906 1196.667969 265.195312 C 1204.085938 257.074219 1203.789062 245.316406 1195.222656 236.753906 C 1075.636719 117.210938 919.296875 52.464844 750.183594 52.464844 C 665.671875 52.464844 584.097656 68.726562 508.882812 99.871094 C 433.703125 131 364.652344 177.054688 305.148438 236.652344 L 305.148438 236.753906 C 296.558594 245.339844 296.3125 257.140625 303.65625 265.25 L 303.742188 265.164062 C 312.839844 274.257812 325.875 273.785156 333.574219 265.167969 C 388.902344 209.859375 453.894531 166.75 524.757812 137.40625 Z M 524.757812 137.40625 " fill-opacity="1" fill-rule="evenodd"/><path fill="#8ac9fe" d="M 867.980469 566.585938 C 851.996094 550.574219 833.636719 538.121094 813.5625 529.6875 L 813.5625 529.585938 C 801.578125 524.550781 788.890625 520.980469 775.648438 518.980469 L 775.648438 567.5625 C 830.320312 580.636719 866.71875 633.738281 857.917969 690.433594 C 895.273438 687.082031 931.0625 682.023438 964.785156 675.46875 C 953.242188 643.191406 939.734375 613.570312 924.59375 587.195312 C 904.1875 589.03125 883.371094 582.070312 867.980469 566.6875 Z M 867.980469 566.585938 " fill-opacity="1" fill-rule="evenodd"/><path fill="#8ac9fe" d="M 970.21875 564.71875 C 987.117188 594.59375 1002.070312 628.019531 1014.695312 664.308594 C 1055.554688 653.898438 1092.464844 641.171875 1124.332031 626.59375 C 1086.183594 582.800781 1040.429688 545.765625 989.121094 517.523438 C 988.867188 534.53125 982.558594 551.449219 970.21875 564.71875 Z M 970.21875 564.71875 " fill-opacity="1" fill-rule="evenodd"/><path fill="#6cf5c2" d="M 596.441406 530.746094 L 599.050781 528.179688 L 599.398438 527.84375 L 599.414062 527.824219 L 599.671875 527.574219 C 619.75 508.21875 642.453125 493.105469 667.113281 482.757812 C 679.960938 477.359375 693.335938 473.230469 707.128906 470.445312 C 743.511719 462.898438 781.742188 464.898438 818.402344 477.253906 L 819.648438 477.679688 L 820.898438 478.109375 L 822.140625 478.546875 L 823.382812 478.996094 L 824.621094 479.449219 L 825.53125 479.785156 L 825.859375 479.914062 L 826.0625 479.992188 L 829.382812 481.273438 L 829.550781 481.34375 C 830.78125 481.824219 832.007812 482.328125 833.21875 482.839844 L 833.257812 482.757812 C 859.242188 493.675781 883.070312 509.871094 903.933594 530.746094 L 903.984375 530.691406 L 903.996094 530.699219 L 904.179688 530.878906 L 904.355469 531.050781 L 904.367188 531.058594 L 904.550781 531.234375 L 904.738281 531.40625 L 904.742188 531.410156 L 904.933594 531.582031 L 905.125 531.746094 L 905.128906 531.746094 L 905.320312 531.910156 L 905.515625 532.070312 L 905.515625 532.078125 L 905.71875 532.234375 L 905.914062 532.390625 L 906.320312 532.695312 L 906.519531 532.84375 L 906.726562 532.988281 L 906.734375 532.988281 L 906.933594 533.128906 L 907.140625 533.265625 L 907.351562 533.40625 L 907.5625 533.542969 L 907.570312 533.542969 L 907.777344 533.671875 L 907.996094 533.800781 L 908.203125 533.921875 L 908.417969 534.046875 L 908.429688 534.046875 L 908.851562 534.277344 L 908.867188 534.28125 L 909.074219 534.390625 L 909.734375 534.714844 L 909.757812 534.722656 L 909.960938 534.820312 L 910.183594 534.917969 L 910.203125 534.921875 L 911.089844 535.285156 L 911.113281 535.289062 L 911.550781 535.449219 L 911.578125 535.453125 L 912.480469 535.746094 L 912.503906 535.753906 L 913.414062 536 L 913.441406 536.003906 L 913.648438 536.054688 C 914.210938 536.1875 914.78125 536.289062 915.351562 536.371094 L 915.554688 536.402344 L 915.832031 536.433594 L 916.03125 536.460938 L 916.273438 536.484375 L 916.3125 536.484375 L 916.511719 536.507812 L 916.753906 536.527344 L 916.796875 536.527344 L 916.992188 536.542969 L 918.199219 536.578125 L 918.441406 536.578125 L 918.683594 536.570312 L 918.730469 536.566406 L 919.167969 536.558594 L 919.214844 536.550781 L 919.410156 536.542969 L 919.652344 536.527344 L 919.695312 536.519531 L 919.894531 536.507812 L 920.140625 536.484375 L 920.179688 536.484375 L 920.382812 536.464844 L 920.621094 536.433594 L 920.660156 536.433594 L 920.867188 536.40625 L 921.101562 536.371094 L 921.140625 536.367188 L 921.34375 536.335938 L 921.582031 536.300781 L 921.617188 536.292969 L 921.824219 536.257812 L 922.0625 536.210938 L 922.09375 536.207031 L 922.300781 536.164062 L 922.542969 536.113281 L 922.566406 536.109375 L 922.777344 536.0625 L 923.015625 536.003906 L 923.042969 536 L 923.25 535.949219 L 923.484375 535.886719 L 923.511719 535.882812 L 923.722656 535.824219 L 923.953125 535.757812 L 923.980469 535.746094 L 924.1875 535.6875 L 924.425781 535.613281 L 924.445312 535.609375 L 924.65625 535.535156 L 924.882812 535.457031 L 924.910156 535.453125 L 925.117188 535.375 L 925.347656 535.292969 L 925.367188 535.289062 L 925.574219 535.207031 L 925.800781 535.117188 L 925.820312 535.109375 L 926.027344 535.027344 L 926.257812 534.929688 L 926.277344 534.921875 L 926.484375 534.828125 L 926.703125 534.730469 L 926.726562 534.722656 L 926.925781 534.628906 L 927.148438 534.519531 L 927.167969 534.511719 L 927.371094 534.414062 L 927.589844 534.300781 L 927.605469 534.289062 L 927.808594 534.179688 L 928.023438 534.0625 L 928.242188 533.941406 L 928.457031 533.820312 L 928.472656 533.808594 L 928.667969 533.691406 L 928.886719 533.5625 L 928.902344 533.550781 L 929.304688 533.292969 L 929.320312 533.285156 L 929.722656 533.015625 L 929.738281 533.003906 L 929.929688 532.871094 L 930.128906 532.726562 L 930.144531 532.714844 L 930.328125 532.578125 L 930.53125 532.421875 L 930.734375 532.269531 L 930.933594 532.113281 L 930.945312 532.101562 L 931.128906 531.953125 L 931.320312 531.789062 L 931.335938 531.777344 L 931.515625 531.625 L 931.707031 531.453125 L 931.71875 531.441406 L 931.898438 531.277344 L 932.082031 531.101562 L 932.09375 531.089844 L 932.269531 530.925781 L 932.457031 530.746094 L 932.410156 530.699219 L 932.414062 530.691406 L 932.417969 530.691406 L 932.464844 530.734375 C 936.410156 526.761719 938.402344 521.605469 938.402344 516.484375 L 938.304688 516.484375 C 938.304688 511.34375 936.332031 506.199219 932.417969 502.28125 L 932.414062 502.273438 C 930.867188 500.726562 929.308594 499.207031 927.734375 497.707031 L 927.589844 497.574219 C 890.347656 462.128906 845.777344 439.824219 799.3125 430.65625 L 799.179688 430.632812 L 799.128906 430.621094 C 797.894531 430.378906 796.65625 430.167969 795.417969 429.941406 C 780.691406 427.332031 765.582031 425.996094 750.183594 425.996094 C 734.769531 425.996094 719.636719 427.335938 704.894531 429.953125 C 703.722656 430.164062 702.546875 430.363281 701.375 430.597656 L 701.191406 430.632812 L 701.0625 430.65625 C 654.589844 439.820312 610.015625 462.136719 572.777344 497.578125 L 572.640625 497.707031 C 571.066406 499.207031 569.503906 500.734375 567.957031 502.28125 C 563.972656 506.261719 561.976562 511.40625 561.976562 516.484375 L 562.074219 516.484375 L 562.074219 516.726562 L 562.082031 516.96875 L 562.085938 517.210938 L 562.109375 517.695312 L 562.167969 518.421875 L 562.1875 518.667969 L 562.21875 518.90625 L 562.246094 519.148438 L 562.28125 519.386719 L 562.316406 519.628906 L 562.355469 519.867188 L 562.394531 520.109375 L 562.441406 520.347656 L 562.488281 520.589844 L 562.539062 520.824219 L 562.589844 521.0625 L 562.648438 521.300781 L 562.703125 521.539062 L 562.765625 521.769531 L 562.828125 522.007812 L 562.894531 522.238281 L 562.96875 522.476562 L 563.039062 522.707031 L 563.117188 522.941406 L 563.195312 523.171875 L 563.277344 523.398438 L 563.277344 523.40625 L 563.359375 523.632812 L 563.449219 523.859375 L 563.449219 523.863281 L 563.535156 524.089844 L 563.628906 524.316406 L 563.726562 524.539062 L 563.726562 524.542969 L 563.824219 524.765625 L 563.921875 524.992188 L 564.023438 525.214844 L 564.03125 525.214844 L 564.132812 525.4375 L 564.242188 525.65625 L 564.246094 525.65625 L 564.355469 525.875 L 564.355469 525.878906 L 564.472656 526.09375 L 564.59375 526.3125 L 564.710938 526.527344 L 564.835938 526.738281 L 564.835938 526.746094 L 564.964844 526.957031 L 564.964844 526.960938 L 565.09375 527.167969 L 565.09375 527.171875 L 565.222656 527.378906 L 565.226562 527.382812 L 565.359375 527.589844 L 565.359375 527.597656 L 565.496094 527.796875 L 565.5 527.800781 L 565.640625 528.003906 L 565.640625 528.007812 L 565.785156 528.210938 L 565.785156 528.214844 L 565.929688 528.417969 L 565.933594 528.421875 L 566.078125 528.617188 L 566.082031 528.621094 L 566.234375 528.816406 L 566.234375 528.824219 L 566.527344 529.195312 L 566.542969 529.214844 L 566.546875 529.21875 L 566.703125 529.410156 L 566.707031 529.414062 L 566.867188 529.605469 L 566.871094 529.613281 L 567.03125 529.796875 L 567.039062 529.808594 L 567.203125 529.988281 L 567.207031 530 L 567.726562 530.550781 L 567.734375 530.5625 L 567.910156 530.734375 L 567.957031 530.691406 L 567.960938 530.691406 L 567.960938 530.695312 L 567.914062 530.746094 L 567.957031 530.789062 C 571.183594 533.972656 575.253906 535.851562 579.476562 536.40625 L 579.519531 536.414062 L 579.664062 536.429688 C 585.332031 537.046875 591.4375 535.390625 596 531.066406 L 596.011719 531.054688 L 596.386719 530.695312 L 596.386719 530.691406 Z M 596.441406 530.746094 " fill-opacity="1" fill-rule="evenodd"/></svg>