<svg xmlns="http://www.w3.org/2000/svg" xmlns:xlink="http://www.w3.org/1999/xlink" width="2000" zoomAndPan="magnify" viewBox="0 0 1500 1499.999933" height="2000" preserveAspectRatio="xMidYMid meet" version="1.0"><path fill="#a6a6a6" d="M 1465.898438 1120 C 1465.148438 1117.148438 1463.601562 1112.101562 1460.898438 1116.398438 C 1439.949219 1141.398438 1411.949219 1170.75 1378.050781 1173.050781 C 1369.050781 1163.550781 1372.699219 1151.5 1371.75 1140.5 C 1368.050781 1097.648438 1355.199219 1087.148438 1312 1092.699219 C 1266.148438 1092.699219 1272.648438 1136.199219 1275.648438 1169.601562 C 1276.800781 1177.601562 1278.699219 1186.101562 1270.949219 1192.398438 C 1263.949219 1180.949219 1248.648438 1187.398438 1237 1184.449219 C 1225.550781 1169.75 1232.949219 1148.449219 1230.949219 1131 C 1230.949219 1096.449219 1226.75 1092.398438 1191.398438 1091.75 C 1167.351562 1089.75 1139.050781 1093.449219 1133.699219 1121.5 C 1131.417969 1130.089844 1130.011719 1138.820312 1129.472656 1147.691406 C 1128.933594 1156.5625 1129.277344 1165.398438 1130.5 1174.199219 C 1131.851562 1182.800781 1134.300781 1191.851562 1127.101562 1199.199219 C 1098.75 1211.949219 1062.101562 1194.5 1034.851562 1207.5 C 768.78125 1216.898438 502.648438 1225.332031 236.449219 1232.800781 C 166.449219 1235.949219 92.851562 1216.5 50.75 1156.699219 C 45.300781 1149.351562 38.148438 1141.699219 44.148438 1131 C 48.25 1127.75 63.601562 422.898438 101 334.449219 C 120.148438 363.800781 88.648438 403.699219 148 404.449219 C 233.648438 411.148438 199.550781 351.949219 211.550781 296.550781 L 249.699219 296.148438 C 263.398438 326.148438 226.601562 391.949219 273.148438 404.398438 C 388.148438 420.148438 347.699219 379.75 352.800781 296.398438 C 528.199219 284.351562 706.699219 294.699219 882.25 284.949219 C 936.199219 284.351562 989.601562 283.648438 1043.148438 277.648438 C 1099.800781 276.851562 1157.25 276.601562 1213.601562 270.800781 C 1231.949219 267.300781 1252.101562 272.601562 1270.449219 269.148438 C 1301.601562 268.648438 1333.699219 255.101562 1364.050781 266.699219 C 1367.601562 268.148438 1371.148438 269.898438 1374.300781 265.898438 C 1385.398438 262.300781 1392.300781 269.699219 1399.300781 275.898438 C 1526.449219 390.25 1459.898438 576.199219 1472.550781 725.648438 C 1473.550781 851.5 1486.550781 978.449219 1477.550781 1103.851562 C 1475.300781 1110.699219 1475 1118.5 1465.898438 1120 Z M 1465.898438 1120 " fill-opacity="1" fill-rule="nonzero"/><path fill="#000000" d="M 1465.898438 1120 C 1481.550781 1057.148438 1471.25 988.101562 1471.75 923.550781 C 1467.382812 828.148438 1465.417969 732.5 1465.851562 636.601562 C 1467.300781 511.199219 1500.5 344.050781 1374.101562 266.300781 C 1373.679688 265.695312 1373.195312 265.148438 1372.640625 264.660156 C 1372.089844 264.171875 1371.488281 263.761719 1370.832031 263.421875 C 1370.179688 263.082031 1369.496094 262.824219 1368.777344 262.652344 C 1368.0625 262.480469 1367.335938 262.394531 1366.601562 262.398438 C 1268.601562 217.398438 1125 245.300781 1018.101562 250.449219 C 816.398438 257.449219 616.199219 271.199219 413.898438 270.449219 C 380.449219 272.898438 388.050781 249.148438 417.898438 251.351562 C 592.898438 247.800781 767.148438 238.898438 941.800781 229.351562 C 1051.800781 227.050781 1161.449219 212.351562 1271.800781 213.398438 C 1407.101562 214.199219 1501.800781 333.398438 1495.949219 464.199219 C 1492.800781 579.199219 1490 695.050781 1493.351562 810.449219 C 1495.148438 870.050781 1494.148438 929.699219 1497.050781 989.148438 C 1503.949219 1068.199219 1505.550781 1169.949219 1421.449219 1208.550781 C 1411.449219 1214.199219 1404.851562 1199.699219 1410.601562 1193.101562 C 1435.398438 1173.75 1457.050781 1151.101562 1465.898438 1120 Z M 1465.898438 1120 " fill-opacity="1" fill-rule="nonzero"/><path fill="#000000" d="M 43.949219 1131.199219 C 81.351562 1222.800781 195.25 1231.199219 281 1225.898438 C 343.25 1217.199219 406.851562 1227.5 468.949219 1219 C 600.601562 1219.601562 731.148438 1212.5 862.300781 1207.398438 C 901.800781 1203.351562 941.851562 1205.101562 981.699219 1201.050781 C 999.050781 1200.351562 1020.648438 1194.949219 1034.648438 1207.699219 C 1034.648438 1241.699219 944.101562 1218.800781 919.648438 1229.101562 C 791.5 1233.648438 662.898438 1241.25 534.050781 1241.699219 C 456.851562 1243.949219 379.699219 1245.601562 302.199219 1248.300781 C 218.5 1252.5 121.148438 1258.699219 59.300781 1191 C -18.398438 1123.949219 5 1011.398438 2.5 920.050781 C 7.5 815.050781 5 709.5 5.449219 604.25 C 8.851562 502.75 -34.300781 334.25 77.199219 278.75 C 93.648438 281.5 73.050781 302.648438 67.601562 309.050781 C 2.601562 379.050781 29.050781 485.25 25.851562 572.199219 C 31.898438 690.851562 25 809.199219 25 927.75 C 28.800781 994.898438 12.050781 1069.550781 43.949219 1131.199219 Z M 43.949219 1131.199219 " fill-opacity="1" fill-rule="nonzero"/><path fill="#000000" d="M 352.601562 296.800781 C 367.601562 324.101562 357.601562 358 360.300781 388 C 359.949219 395.699219 362.050781 409.449219 351.550781 410.25 C 329.050781 410.800781 306.550781 419.300781 284 412 C 268.699219 409.800781 252.550781 414.898438 247.351562 393.550781 C 230.300781 334.800781 260 201.550781 331.601562 193.5 C 376.550781 204.351562 320 253.5 315.25 277.25 C 299.449219 306.300781 335 294.199219 352.601562 296.800781 Z M 352.601562 296.800781 " fill-opacity="1" fill-rule="nonzero"/><path fill="#000000" d="M 1126.898438 1199.398438 C 1114.75 1122 1123.699219 1068.101562 1216.898438 1088.101562 C 1235.050781 1093.101562 1236.898438 1094.800781 1236.898438 1114.101562 C 1238.25 1166.601562 1238.101562 1222.75 1206.898438 1267.648438 C 1191.300781 1287.648438 1168.199219 1308.699219 1141 1306.25 C 1132.851562 1305.648438 1122.601562 1295.800781 1128.5 1287.75 C 1134.949219 1274.300781 1193.25 1208.851562 1168.050781 1203.449219 C 1154.398438 1201.75 1139.25 1206.699219 1126.898438 1199.398438 Z M 1126.898438 1199.398438 " fill-opacity="1" fill-rule="nonzero"/><path fill="#000000" d="M 211.351562 296.949219 C 217.199219 335.75 230.398438 408.5 174 410.898438 C 146.550781 412.101562 104 416.25 101.148438 378.199219 C 96.050781 311.699219 118.550781 213.5 190.800781 193.5 C 233.25 204.300781 183.050781 251.199219 175.449219 273.5 C 155.75 304.550781 192.699219 295.601562 211.351562 296.949219 Z M 211.351562 296.949219 " fill-opacity="1" fill-rule="nonzero"/><path fill="#000000" d="M 1270.75 1192.398438 C 1273.101562 1160.75 1250.351562 1101.199219 1292.25 1089.199219 C 1375.148438 1075.148438 1379.800781 1096.601562 1377.851562 1173.050781 C 1370.550781 1226.648438 1352.351562 1294.449219 1290.398438 1305.550781 C 1289.222656 1305.699219 1288.046875 1305.742188 1286.863281 1305.683594 C 1285.679688 1305.628906 1284.507812 1305.46875 1283.355469 1305.207031 C 1282.199219 1304.945312 1281.074219 1304.585938 1279.980469 1304.128906 C 1278.886719 1303.671875 1277.84375 1303.125 1276.847656 1302.484375 C 1275.847656 1301.84375 1274.914062 1301.125 1274.042969 1300.324219 C 1273.171875 1299.519531 1272.375 1298.648438 1271.65625 1297.707031 C 1270.933594 1296.769531 1270.300781 1295.773438 1269.753906 1294.722656 C 1269.207031 1293.667969 1268.757812 1292.578125 1268.398438 1291.449219 C 1268.175781 1290.53125 1268.085938 1289.601562 1268.136719 1288.65625 C 1268.183594 1287.710938 1268.371094 1286.796875 1268.691406 1285.90625 C 1269.011719 1285.015625 1269.453125 1284.191406 1270.015625 1283.433594 C 1270.578125 1282.675781 1271.242188 1282.011719 1272 1281.449219 C 1282 1272.898438 1330.449219 1208.398438 1309.398438 1203.800781 C 1296.898438 1202.050781 1275 1208.5 1270.75 1192.398438 Z M 1270.75 1192.398438 " fill-opacity="1" fill-rule="nonzero"/><path fill="#a6a6a6" d="M 1362.648438 259.050781 L 1366.601562 262.398438 Z M 1362.648438 259.050781 " fill-opacity="1" fill-rule="nonzero"/><path fill="#a6a6a6" d="M 1370.25 262.949219 L 1374.050781 266.300781 Z M 1370.25 262.949219 " fill-opacity="1" fill-rule="nonzero"/><path fill="#a6a6a6" d="M 43.949219 1131.199219 L 40.601562 1127.300781 Z M 43.949219 1131.199219 " fill-opacity="1" fill-rule="nonzero"/><path fill="#a6a6a6" d="M 1465.898438 1120 C 1465.148438 1117.148438 1463.601562 1112.101562 1460.898438 1116.398438 C 1439.949219 1141.398438 1411.949219 1170.75 1378.050781 1173.050781 C 1369.050781 1163.550781 1372.699219 1151.5 1371.75 1140.5 C 1368.050781 1097.648438 1355.199219 1087.148438 1312 1092.699219 C 1266.148438 1092.699219 1272.648438 1136.199219 1275.648438 1169.601562 C 1276.800781 1177.601562 1278.699219 1186.101562 1270.949219 1192.398438 C 1263.949219 1180.949219 1248.648438 1187.398438 1237 1184.449219 C 1225.550781 1169.75 1232.949219 1148.449219 1230.949219 1131 C 1230.949219 1096.449219 1226.75 1092.398438 1191.398438 1091.75 C 1167.351562 1089.75 1139.050781 1093.449219 1133.699219 1121.5 C 1131.417969 1130.089844 1130.011719 1138.820312 1129.472656 1147.691406 C 1128.933594 1156.5625 1129.277344 1165.398438 1130.5 1174.199219 C 1131.851562 1182.800781 1134.300781 1191.851562 1127.101562 1199.199219 C 1098.75 1211.949219 1062.101562 1194.5 1034.851562 1207.5 C 768.78125 1216.898438 502.648438 1225.332031 236.449219 1232.800781 C 166.449219 1235.949219 92.851562 1216.5 50.75 1156.699219 C 45.300781 1149.351562 38.148438 1141.699219 44.148438 1131 C 48.25 1127.75 63.601562 422.898438 101 334.449219 C 120.148438 363.800781 88.648438 403.699219 148 404.449219 C 233.648438 411.148438 199.550781 351.949219 211.550781 296.550781 L 249.699219 296.148438 C 263.398438 326.148438 226.601562 391.949219 273.148438 404.398438 C 388.148438 420.148438 347.699219 379.75 352.800781 296.398438 C 528.199219 284.351562 706.699219 294.699219 882.25 284.949219 C 936.199219 284.351562 989.601562 283.648438 1043.148438 277.648438 C 1099.800781 276.851562 1157.25 276.601562 1213.601562 270.800781 C 1231.949219 267.300781 1252.101562 272.601562 1270.449219 269.148438 C 1301.601562 268.648438 1333.699219 255.101562 1364.050781 266.699219 C 1367.601562 268.148438 1371.148438 269.898438 1374.300781 265.898438 C 1385.398438 262.300781 1392.300781 269.699219 1399.300781 275.898438 C 1526.449219 390.25 1459.898438 576.199219 1472.550781 725.648438 C 1473.550781 851.5 1486.550781 978.449219 1477.550781 1103.851562 C 1475.300781 1110.699219 1475 1118.5 1465.898438 1120 Z M 1465.898438 1120 " fill-opacity="1" fill-rule="nonzero"/><path fill="#000000" d="M 1465.898438 1120 C 1481.550781 1057.148438 1471.25 988.101562 1471.75 923.550781 C 1467.382812 828.148438 1465.417969 732.5 1465.851562 636.601562 C 1467.300781 511.199219 1500.5 344.050781 1374.101562 266.300781 C 1373.679688 265.695312 1373.195312 265.148438 1372.640625 264.660156 C 1372.089844 264.171875 1371.488281 263.761719 1370.832031 263.421875 C 1370.179688 263.082031 1369.496094 262.824219 1368.777344 262.652344 C 1368.0625 262.480469 1367.335938 262.394531 1366.601562 262.398438 C 1268.601562 217.398438 1125 245.300781 1018.101562 250.449219 C 816.398438 257.449219 616.199219 271.199219 413.898438 270.449219 C 380.449219 272.898438 388.050781 249.148438 417.898438 251.351562 C 592.898438 247.800781 767.148438 238.898438 941.800781 229.351562 C 1051.800781 227.050781 1161.449219 212.351562 1271.800781 213.398438 C 1407.101562 214.199219 1501.800781 333.398438 1495.949219 464.199219 C 1492.800781 579.199219 1490 695.050781 1493.351562 810.449219 C 1495.148438 870.050781 1494.148438 929.699219 1497.050781 989.148438 C 1503.949219 1068.199219 1505.550781 1169.949219 1421.449219 1208.550781 C 1411.449219 1214.199219 1404.851562 1199.699219 1410.601562 1193.101562 C 1435.398438 1173.75 1457.050781 1151.101562 1465.898438 1120 Z M 1465.898438 1120 " fill-opacity="1" fill-rule="nonzero"/><path fill="#000000" d="M 43.949219 1131.199219 C 81.351562 1222.800781 195.25 1231.199219 281 1225.898438 C 343.25 1217.199219 406.851562 1227.5 468.949219 1219 C 600.601562 1219.601562 731.148438 1212.5 862.300781 1207.398438 C 901.800781 1203.351562 941.851562 1205.101562 981.699219 1201.050781 C 999.050781 1200.351562 1020.648438 1194.949219 1034.648438 1207.699219 C 1034.648438 1241.699219 944.101562 1218.800781 919.648438 1229.101562 C 791.5 1233.648438 662.898438 1241.25 534.050781 1241.699219 C 456.851562 1243.949219 379.699219 1245.601562 302.199219 1248.300781 C 218.5 1252.5 121.148438 1258.699219 59.300781 1191 C -18.398438 1123.949219 5 1011.398438 2.5 920.050781 C 7.5 815.050781 5 709.5 5.449219 604.25 C 8.851562 502.75 -34.300781 334.25 77.199219 278.75 C 93.648438 281.5 73.050781 302.648438 67.601562 309.050781 C 2.601562 379.050781 29.050781 485.25 25.851562 572.199219 C 31.898438 690.851562 25 809.199219 25 927.75 C 28.800781 994.898438 12.050781 1069.550781 43.949219 1131.199219 Z M 43.949219 1131.199219 " fill-opacity="1" fill-rule="nonzero"/><path fill="#000000" d="M 352.601562 296.800781 C 367.601562 324.101562 357.601562 358 360.300781 388 C 359.949219 395.699219 362.050781 409.449219 351.550781 410.25 C 329.050781 410.800781 306.550781 419.300781 284 412 C 268.699219 409.800781 252.550781 414.898438 247.351562 393.550781 C 230.300781 334.800781 260 201.550781 331.601562 193.5 C 376.550781 204.351562 320 253.5 315.25 277.25 C 299.449219 306.300781 335 294.199219 352.601562 296.800781 Z M 352.601562 296.800781 " fill-opacity="1" fill-rule="nonzero"/><path fill="#000000" d="M 1126.898438 1199.398438 C 1114.75 1122 1123.699219 1068.101562 1216.898438 1088.101562 C 1235.050781 1093.101562 1236.898438 1094.800781 1236.898438 1114.101562 C 1238.25 1166.601562 1238.101562 1222.75 1206.898438 1267.648438 C 1191.300781 1287.648438 1168.199219 1308.699219 1141 1306.25 C 1132.851562 1305.648438 1122.601562 1295.800781 1128.5 1287.75 C 1134.949219 1274.300781 1193.25 1208.851562 1168.050781 1203.449219 C 1154.398438 1201.75 1139.25 1206.699219 1126.898438 1199.398438 Z M 1126.898438 1199.398438 " fill-opacity="1" fill-rule="nonzero"/><path fill="#000000" d="M 211.351562 296.949219 C 217.199219 335.75 230.398438 408.5 174 410.898438 C 146.550781 412.101562 104 416.25 101.148438 378.199219 C 96.050781 311.699219 118.550781 213.5 190.800781 193.5 C 233.25 204.300781 183.050781 251.199219 175.449219 273.5 C 155.75 304.550781 192.699219 295.601562 211.351562 296.949219 Z M 211.351562 296.949219 " fill-opacity="1" fill-rule="nonzero"/><path fill="#000000" d="M 1270.75 1192.398438 C 1273.101562 1160.75 1250.351562 1101.199219 1292.25 1089.199219 C 1375.148438 1075.148438 1379.800781 1096.601562 1377.851562 1173.050781 C 1370.550781 1226.648438 1352.351562 1294.449219 1290.398438 1305.550781 C 1289.222656 1305.699219 1288.046875 1305.742188 1286.863281 1305.683594 C 1285.679688 1305.628906 1284.507812 1305.46875 1283.355469 1305.207031 C 1282.199219 1304.945312 1281.074219 1304.585938 1279.980469 1304.128906 C 1278.886719 1303.671875 1277.84375 1303.125 1276.847656 1302.484375 C 1275.847656 1301.84375 1274.914062 1301.125 1274.042969 1300.324219 C 1273.171875 1299.519531 1272.375 1298.648438 1271.65625 1297.707031 C 1270.933594 1296.769531 1270.300781 1295.773438 1269.753906 1294.722656 C 1269.207031 1293.667969 1268.757812 1292.578125 1268.398438 1291.449219 C 1268.175781 1290.53125 1268.085938 1289.601562 1268.136719 1288.65625 C 1268.183594 1287.710938 1268.371094 1286.796875 1268.691406 1285.90625 C 1269.011719 1285.015625 1269.453125 1284.191406 1270.015625 1283.433594 C 1270.578125 1282.675781 1271.242188 1282.011719 1272 1281.449219 C 1282 1272.898438 1330.449219 1208.398438 1309.398438 1203.800781 C 1296.898438 1202.050781 1275 1208.5 1270.75 1192.398438 Z M 1270.75 1192.398438 " fill-opacity="1" fill-rule="nonzero"/><path fill="#a6a6a6" d="M 1362.648438 259.050781 L 1366.601562 262.398438 Z M 1362.648438 259.050781 " fill-opacity="1" fill-rule="nonzero"/><path fill="#a6a6a6" d="M 1370.25 262.949219 L 1374.050781 266.300781 Z M 1370.25 262.949219 " fill-opacity="1" fill-rule="nonzero"/><path fill="#a6a6a6" d="M 43.949219 1131.199219 L 40.601562 1127.300781 Z M 43.949219 1131.199219 " fill-opacity="1" fill-rule="nonzero"/></svg>