<svg xmlns="http://www.w3.org/2000/svg" xmlns:xlink="http://www.w3.org/1999/xlink" width="500" zoomAndPan="magnify" viewBox="0 0 375 374.999991" height="500" preserveAspectRatio="xMidYMid meet" version="1.0"><defs><clipPath id="3340ed65c1"><path d="M 196.011719 171.464844 L 223.382812 171.464844 L 223.382812 198.832031 L 196.011719 198.832031 Z M 196.011719 171.464844 " clip-rule="nonzero"/></clipPath><clipPath id="2e32945226"><path d="M 209.695312 171.464844 C 202.140625 171.464844 196.011719 177.59375 196.011719 185.148438 C 196.011719 192.707031 202.140625 198.832031 209.695312 198.832031 C 217.253906 198.832031 223.382812 192.707031 223.382812 185.148438 C 223.382812 177.59375 217.253906 171.464844 209.695312 171.464844 Z M 209.695312 171.464844 " clip-rule="nonzero"/></clipPath><clipPath id="53aee4d476"><path d="M 0.0117188 0.464844 L 27.382812 0.464844 L 27.382812 27.832031 L 0.0117188 27.832031 Z M 0.0117188 0.464844 " clip-rule="nonzero"/></clipPath><clipPath id="85adf907ca"><path d="M 13.695312 0.464844 C 6.140625 0.464844 0.0117188 6.59375 0.0117188 14.148438 C 0.0117188 21.707031 6.140625 27.832031 13.695312 27.832031 C 21.253906 27.832031 27.382812 21.707031 27.382812 14.148438 C 27.382812 6.59375 21.253906 0.464844 13.695312 0.464844 Z M 13.695312 0.464844 " clip-rule="nonzero"/></clipPath><clipPath id="4f6dd9f039"><rect x="0" width="28" y="0" height="28"/></clipPath></defs><g clip-path="url(#3340ed65c1)"><g clip-path="url(#2e32945226)"><g transform="matrix(1, 0, 0, 1, 196, 171)"><g clip-path="url(#4f6dd9f039)"><g clip-path="url(#53aee4d476)"><g clip-path="url(#85adf907ca)"><path fill="#ffffff" d="M 0.0117188 0.464844 L 27.382812 0.464844 L 27.382812 27.832031 L 0.0117188 27.832031 Z M 0.0117188 0.464844 " fill-opacity="1" fill-rule="nonzero"/></g></g></g></g></g></g><path fill="#000000" d="M 187.5 0 C 83.90625 0 0 83.90625 0 187.5 C 0 291.035156 83.90625 375 187.5 375 C 291.035156 375 375 291.035156 375 187.5 C 375 83.90625 291.035156 0 187.5 0 Z M 271.933594 88.007812 C 269.082031 79.042969 276.003906 69.609375 285.644531 69.609375 C 293.144531 69.609375 299.238281 75.351562 299.882812 82.617188 C 305.621094 77.496094 315.585938 81.445312 315.585938 89.882812 C 315.585938 90.9375 315.292969 91.933594 315 92.929688 L 260.332031 92.929688 C 260.332031 85.992188 267.988281 83.875 271.933594 88.007812 Z M 167.203125 359.035156 L 169.59375 334.539062 L 206.191406 334.539062 L 208.566406 358.972656 C 193.085938 360.890625 179.964844 360.640625 167.203125 359.035156 Z M 87.855469 328.714844 L 164.277344 328.714844 L 161.390625 358.25 C 134.953125 354.3125 109.742188 344.21875 87.855469 328.714844 Z M 266.371094 180.140625 L 266.371094 168.003906 L 276.144531 158.992188 L 285.917969 168.003906 L 285.917969 180.140625 C 285.316406 180.140625 265.769531 180.140625 266.371094 180.140625 Z M 272.195312 186 L 280.09375 186 C 280.09375 189.929688 280.09375 205.425781 280.09375 204.824219 L 272.195312 204.824219 Z M 324.316406 290.917969 L 241.054688 290.917969 L 241.054688 226.410156 L 324.316406 226.410156 Z M 224.054688 290.917969 L 224.054688 230.386719 C 224.054688 229.304688 223.460938 228.3125 222.511719 227.804688 C 200.351562 215.917969 177.585938 215.25 153.34375 227.78125 C 152.371094 228.285156 151.757812 229.292969 151.757812 230.386719 L 151.757812 290.917969 L 140.621094 290.917969 C 140.621094 267.675781 140.621094 191.890625 140.621094 164.820312 L 235.195312 164.820312 C 235.195312 191.886719 235.195312 267.546875 235.195312 290.917969 Z M 195.546875 225.007812 L 196.222656 231.9375 L 179.597656 231.9375 L 180.265625 225.085938 C 185.386719 224.371094 189.570312 224.238281 195.546875 225.007812 Z M 176.667969 261.984375 L 199.140625 261.984375 L 200.921875 280.308594 L 174.878906 280.308594 Z M 198.570312 256.125 L 177.238281 256.125 L 179.023438 237.796875 L 196.792969 237.796875 Z M 174.308594 286.167969 L 201.492188 286.167969 L 203.273438 304.496094 L 172.519531 304.496094 Z M 167.976562 290.917969 L 157.617188 290.917969 L 157.617188 232.1875 C 163.667969 229.203125 168.746094 227.480469 174.3125 226.15625 Z M 171.949219 310.355469 L 203.839844 310.355469 L 205.621094 328.679688 L 170.164062 328.679688 C 170.246094 327.839844 172.035156 309.480469 171.949219 310.355469 Z M 207.839844 290.917969 L 201.535156 226.054688 C 206.714844 227.265625 211.5625 228.773438 218.195312 232.160156 L 218.195312 290.917969 Z M 51.503906 290.917969 L 51.503906 226.410156 L 134.761719 226.410156 L 134.761719 290.917969 Z M 95.714844 186 L 103.613281 186 C 103.613281 189.929688 103.613281 205.425781 103.613281 204.824219 L 95.714844 204.824219 C 95.714844 204.046875 95.714844 185.136719 95.714844 186 Z M 109.4375 180.140625 C 104.714844 180.140625 89.296875 180.140625 89.898438 180.140625 L 89.898438 168.003906 L 99.664062 158.992188 L 109.4375 168.003906 Z M 92.785156 210.683594 L 106.542969 210.683594 C 108.160156 210.683594 109.472656 209.375 109.472656 207.753906 L 109.472656 198.164062 L 134.761719 198.164062 L 134.761719 220.550781 L 54.550781 220.550781 L 71.925781 198.164062 L 89.855469 198.164062 L 89.855469 207.753906 C 89.855469 209.375 91.167969 210.683594 92.785156 210.683594 Z M 222.441406 108.808594 L 153.378906 108.808594 L 187.910156 82.832031 Z M 235.195312 114.667969 L 235.195312 123.457031 L 140.621094 123.457031 L 140.621094 114.667969 C 210.46875 114.667969 190.652344 114.667969 235.195312 114.667969 Z M 132.246094 158.960938 L 132.246094 153.339844 C 135.609375 153.339844 251.636719 153.339844 243.574219 153.339844 L 243.574219 158.960938 C 210.867188 158.960938 164.964844 158.960938 132.246094 158.960938 Z M 235.195312 147.480469 L 223.300781 147.480469 L 223.300781 136.355469 C 223.300781 134.734375 221.992188 133.425781 220.371094 133.425781 C 218.75 133.425781 217.441406 134.734375 217.441406 136.355469 L 217.441406 147.480469 L 201.652344 147.480469 L 201.652344 136.355469 C 201.652344 134.734375 200.34375 133.425781 198.722656 133.425781 C 197.105469 133.425781 195.792969 134.734375 195.792969 136.355469 L 195.792969 147.480469 L 180.011719 147.480469 L 180.011719 136.355469 C 180.011719 134.734375 178.703125 133.425781 177.082031 133.425781 C 175.464844 133.425781 174.152344 134.734375 174.152344 136.355469 L 174.152344 147.480469 L 158.367188 147.480469 L 158.367188 136.355469 C 158.367188 134.734375 157.054688 133.425781 155.4375 133.425781 C 153.816406 133.425781 152.507812 134.734375 152.507812 136.355469 L 152.507812 147.480469 L 140.621094 147.480469 L 140.621094 129.316406 L 235.195312 129.316406 Z M 232.1875 108.808594 L 189.671875 76.824219 C 188.628906 76.03125 187.1875 76.03125 186.148438 76.824219 L 143.632812 108.808594 C 142.96875 108.808594 129.191406 108.808594 130.046875 108.808594 C 141.914062 99.875 99.792969 131.589844 187.914062 65.242188 L 245.769531 108.808594 C 245.101562 108.808594 231.316406 108.808594 232.1875 108.808594 Z M 167.402344 296.796875 L 164.851562 322.855469 L 80.054688 322.855469 C 70.414062 315.261719 61.539062 306.511719 53.609375 296.777344 C 54.238281 296.777344 168.09375 296.796875 167.402344 296.796875 Z M 211.511719 328.714844 L 287.136719 328.714844 C 265.472656 344.03125 240.535156 354.09375 214.375 358.171875 Z M 294.945312 322.855469 L 210.941406 322.855469 L 208.410156 296.796875 C 316.640625 296.769531 143.039062 296.777344 321.382812 296.777344 C 313.519531 306.414062 304.652344 315.167969 294.945312 322.855469 Z M 241.054688 220.550781 L 241.054688 198.164062 L 266.335938 198.164062 L 266.335938 207.753906 C 266.335938 209.375 267.648438 210.683594 269.265625 210.683594 L 283.023438 210.683594 C 284.640625 210.683594 285.953125 209.375 285.953125 207.753906 L 285.953125 198.164062 L 303.894531 198.164062 L 321.269531 220.550781 Z M 184.570312 60.410156 L 184.570312 43.242188 C 184.570312 41.601562 185.859375 40.3125 187.5 40.3125 C 189.082031 40.3125 190.429688 41.601562 190.429688 43.242188 L 190.429688 59.808594 L 189.65625 59.234375 C 188.625 58.460938 187.1875 58.464844 186.160156 59.238281 M 36.386719 134.765625 C 36.386719 131.015625 39.433594 127.96875 43.125 127.96875 C 45.058594 127.96875 46.816406 128.789062 48.046875 130.136719 C 47.636719 128.789062 47.402344 127.5 47.402344 126.035156 C 47.402344 118.125 53.847656 111.738281 61.757812 111.738281 C 69.199219 111.738281 75.351562 117.421875 75.996094 124.6875 C 77.636719 123.28125 79.804688 122.402344 82.148438 122.402344 C 87.421875 122.402344 91.699219 126.679688 91.699219 131.953125 C 91.699219 133.066406 91.40625 134.0625 91.054688 135 L 36.445312 135 C 36.445312 134.941406 36.386719 134.824219 36.386719 134.765625 Z M 36.386719 134.765625 " fill-opacity="1" fill-rule="nonzero"/><path fill="#000000" d="M 153.378906 198.917969 L 167.292969 198.917969 C 168.914062 198.917969 170.222656 197.609375 170.222656 195.988281 L 170.222656 175.5625 C 170.222656 173.941406 168.914062 172.632812 167.292969 172.632812 L 153.378906 172.632812 C 151.757812 172.632812 150.449219 173.941406 150.449219 175.5625 L 150.449219 195.988281 C 150.449219 197.609375 151.757812 198.917969 153.378906 198.917969 Z M 156.308594 178.492188 L 164.363281 178.492188 L 164.363281 193.058594 L 156.308594 193.058594 Z M 156.308594 178.492188 " fill-opacity="1" fill-rule="nonzero"/><path fill="#000000" d="M 208.515625 198.917969 L 222.429688 198.917969 C 224.050781 198.917969 225.359375 197.609375 225.359375 195.988281 L 225.359375 175.5625 C 225.359375 173.941406 224.050781 172.632812 222.429688 172.632812 L 208.515625 172.632812 C 206.894531 172.632812 205.585938 173.941406 205.585938 175.5625 L 205.585938 195.988281 C 205.585938 197.609375 206.894531 198.917969 208.515625 198.917969 Z M 211.445312 178.492188 L 219.5 178.492188 L 219.5 193.058594 L 211.445312 193.058594 Z M 211.445312 178.492188 " fill-opacity="1" fill-rule="nonzero"/><path fill="#000000" d="M 226.773438 220.070312 C 201.460938 206.351562 175.316406 206.339844 149.074219 220.046875 C 147.636719 220.796875 147.082031 222.5625 147.832031 224 C 148.5625 225.398438 150.304688 226 151.785156 225.242188 C 176.550781 212.316406 200.167969 212.316406 223.980469 225.21875 C 225.40625 225.980469 227.175781 225.464844 227.953125 224.039062 C 228.726562 222.613281 228.199219 220.839844 226.773438 220.070312 Z M 226.773438 220.070312 " fill-opacity="1" fill-rule="nonzero"/><path fill="#000000" d="M 253.726562 274.683594 L 274.929688 274.683594 C 276.550781 274.683594 277.859375 273.375 277.859375 271.753906 L 277.859375 249.195312 C 277.859375 247.933594 277.183594 246.75 276.082031 246.085938 C 268.292969 241.496094 260.386719 241.476562 252.585938 246.082031 C 251.480469 246.722656 250.796875 247.917969 250.796875 249.195312 L 250.796875 271.753906 C 250.796875 273.375 252.105469 274.683594 253.726562 274.683594 Z M 256.65625 250.519531 C 261.808594 247.847656 266.855469 247.847656 272 250.519531 L 272 268.824219 L 256.65625 268.824219 Z M 256.65625 250.519531 " fill-opacity="1" fill-rule="nonzero"/><path fill="#000000" d="M 290.558594 274.683594 L 311.757812 274.683594 C 313.378906 274.683594 314.6875 273.375 314.6875 271.753906 L 314.6875 249.195312 C 314.6875 247.933594 314.019531 246.746094 312.914062 246.085938 C 305.121094 241.484375 297.199219 241.476562 289.382812 246.097656 C 288.296875 246.746094 287.628906 247.933594 287.628906 249.195312 L 287.628906 271.753906 C 287.628906 273.375 288.9375 274.683594 290.558594 274.683594 Z M 293.488281 250.519531 C 298.636719 247.835938 303.691406 247.847656 308.828125 250.515625 L 308.828125 268.824219 L 293.488281 268.824219 Z M 293.488281 250.519531 " fill-opacity="1" fill-rule="nonzero"/><path fill="#000000" d="M 62.90625 246.097656 C 61.820312 246.746094 61.148438 247.933594 61.148438 249.195312 L 61.148438 271.753906 C 61.148438 273.375 62.460938 274.683594 64.078125 274.683594 L 85.285156 274.683594 C 86.902344 274.683594 88.214844 273.375 88.214844 271.753906 L 88.214844 249.195312 C 88.214844 247.933594 87.539062 246.75 86.433594 246.085938 C 78.625 241.480469 70.714844 241.492188 62.90625 246.097656 Z M 82.355469 268.824219 L 67.007812 268.824219 L 67.007812 250.519531 C 72.164062 247.847656 77.210938 247.847656 82.355469 250.519531 Z M 82.355469 268.824219 " fill-opacity="1" fill-rule="nonzero"/><path fill="#000000" d="M 99.738281 246.097656 C 98.652344 246.75 97.976562 247.933594 97.976562 249.195312 L 97.980469 271.753906 C 97.980469 273.375 99.292969 274.683594 100.910156 274.683594 L 122.113281 274.683594 C 123.730469 274.683594 125.042969 273.375 125.042969 271.753906 L 125.042969 249.195312 C 125.042969 247.933594 124.371094 246.746094 123.269531 246.085938 C 115.46875 241.480469 107.550781 241.492188 99.738281 246.097656 Z M 119.183594 268.824219 L 103.839844 268.824219 L 103.835938 250.519531 C 108.992188 247.847656 114.039062 247.84375 119.183594 250.515625 Z M 119.183594 268.824219 " fill-opacity="1" fill-rule="nonzero"/></svg>