<svg xmlns="http://www.w3.org/2000/svg" xmlns:xlink="http://www.w3.org/1999/xlink" width="2000" zoomAndPan="magnify" viewBox="0 0 1500 1499.999933" height="2000" preserveAspectRatio="xMidYMid meet" version="1.0"><defs><clipPath id="e36b6c3f61"><path d="M 413 339 L 1246 339 L 1246 1225.390625 L 413 1225.390625 Z M 413 339 " clip-rule="nonzero"/></clipPath><clipPath id="68ecc4110c"><path d="M 1024 703 L 1499.640625 703 L 1499.640625 1078 L 1024 1078 Z M 1024 703 " clip-rule="nonzero"/></clipPath><clipPath id="98d972e8ff"><path d="M 981 274.390625 L 1444 274.390625 L 1444 622 L 981 622 Z M 981 274.390625 " clip-rule="nonzero"/></clipPath><clipPath id="858c41a372"><path d="M 1024 703 L 1499.640625 703 L 1499.640625 1018 L 1024 1018 Z M 1024 703 " clip-rule="nonzero"/></clipPath></defs><path fill="#000000" d="M 1429.203125 621.855469 C 1371.722656 452.386719 1185.277344 334.78125 981.34375 334.78125 L 984.226562 682.246094 L 1443.765625 682.246094 L 1443.765625 621.839844 L 1429.1875 621.839844 Z M 1429.203125 621.855469 " fill-opacity="1" fill-rule="nonzero"/><g clip-path="url(#e36b6c3f61)"><path fill="#000000" d="M 1212.070312 1048.417969 L 888.402344 763.703125 L 895.636719 400.003906 L 895.636719 339.597656 L 888.871094 400.070312 C 659.179688 402.996094 450.550781 554.839844 417.65625 763.703125 C 379.765625 1004.273438 584.113281 1225.628906 879.222656 1225.628906 C 1026.769531 1225.628906 1157.3125 1167.816406 1245.597656 1077.902344 L 1245.597656 1017.496094 L 1212.070312 1048.402344 Z M 1212.070312 1048.417969 " fill-opacity="1" fill-rule="nonzero"/></g><g clip-path="url(#68ecc4110c)"><path fill="#000000" d="M 1499.753906 812.816406 L 1495.265625 703.296875 L 1024.519531 703.296875 L 1024.519531 763.703125 L 1394.210938 1077.914062 C 1463.585938 1004.285156 1501.796875 911.179688 1499.65625 812.816406 Z M 1499.753906 812.816406 " fill-opacity="1" fill-rule="nonzero"/></g><path fill="#545454" d="M 994.511719 611.503906 L 991.792969 284.839844 C 1097.15625 286.949219 1199.371094 320.894531 1280.675781 380.96875 C 1362.007812 441.070312 1415.234375 522.550781 1431.589844 611.503906 Z M 994.511719 611.503906 " fill-opacity="1" fill-rule="nonzero"/><g clip-path="url(#98d972e8ff)"><path fill="#000000" d="M 1002.226562 295.523438 C 1101.683594 299.582031 1197.660156 332.515625 1274.503906 389.289062 C 1314.976562 419.203125 1348.339844 454.375 1373.671875 493.824219 C 1395.339844 527.574219 1410.5 563.574219 1418.90625 601.148438 L 1004.753906 601.148438 L 1002.214844 295.523438 M 981.34375 274.390625 L 984.226562 621.855469 L 1443.765625 621.855469 C 1414.40625 420.570312 1208.730469 274.390625 981.34375 274.390625 Z M 981.34375 274.390625 " fill-opacity="1" fill-rule="nonzero"/></g><path fill="#545454" d="M 1052.691406 713.648438 L 1486.320312 713.648438 C 1493.320312 766.253906 1488.53125 818.335938 1472.089844 868.582031 C 1456.023438 917.667969 1429.546875 962.902344 1393.355469 1003.167969 L 1052.707031 713.648438 Z M 1052.691406 713.648438 " fill-opacity="1" fill-rule="nonzero"/><g clip-path="url(#858c41a372)"><path fill="#000000" d="M 1477.128906 724.003906 C 1482.25 771.996094 1477.265625 819.46875 1462.234375 865.367188 C 1447.617188 910.019531 1424.121094 951.429688 1392.261719 988.6875 L 1080.851562 724.015625 L 1477.128906 724.015625 M 1495.265625 703.296875 L 1024.519531 703.296875 L 1394.210938 1017.507812 C 1475.042969 931.71875 1513.570312 819.496094 1495.265625 703.296875 Z M 1495.265625 703.296875 " fill-opacity="1" fill-rule="nonzero"/></g><path fill="#ffffff" d="M 879.222656 1154.882812 C 731.953125 1154.882812 598.523438 1097.613281 513.164062 997.757812 C 441.605469 914.039062 411.320312 810.039062 427.871094 704.910156 C 443.34375 606.699219 500.269531 516.410156 588.171875 450.648438 C 672.238281 387.757812 777.296875 352.242188 885.074219 350.0625 L 877.953125 707.90625 L 1230.441406 1017.980469 C 1188.023438 1059.15625 1137.683594 1091.953125 1080.671875 1115.53125 C 1017.535156 1141.644531 949.757812 1154.882812 879.222656 1154.882812 Z M 879.222656 1154.882812 " fill-opacity="1" fill-rule="nonzero"/><path fill="#000000" d="M 874.515625 360.746094 L 867.710938 702.894531 L 867.515625 712.503906 L 874.738281 718.851562 L 1215.078125 1018.242188 C 1175.53125 1054.601562 1128.117188 1084.707031 1076.726562 1105.964844 C 1014.84375 1131.554688 948.394531 1144.53125 879.222656 1144.53125 C 805.082031 1144.53125 735.386719 1130.285156 672.097656 1102.179688 C 613.003906 1075.941406 560.757812 1037.511719 521.015625 991.019531 C 487.019531 951.253906 462.503906 906.667969 448.132812 858.519531 C 433.378906 809.074219 429.996094 757.933594 438.097656 706.527344 C 445.746094 657.953125 463.582031 611.570312 491.105469 568.683594 C 517.691406 527.246094 552.433594 490.320312 594.371094 458.945312 C 673.90625 399.449219 772.65625 364.957031 874.515625 360.746094 M 895.648438 339.597656 C 663.292969 339.597656 450.867188 492.390625 417.65625 703.296875 C 379.765625 943.867188 584.113281 1165.222656 879.222656 1165.222656 C 1026.769531 1165.222656 1157.3125 1107.414062 1245.597656 1017.496094 L 888.414062 703.28125 L 895.648438 339.582031 Z M 895.648438 339.597656 " fill-opacity="1" fill-rule="nonzero"/><path fill="#545454" d="M 601.027344 701.472656 C 606.839844 702.085938 633.71875 708.109375 635.476562 713.414062 L 628.480469 800.53125 L 608.394531 804.644531 L 612.597656 796.269531 L 574.707031 789.949219 L 605.273438 802.527344 L 603.746094 849.511719 C 602.910156 852.363281 599.996094 854.375 597.722656 856.128906 C 595.617188 857.753906 569.46875 874.027344 567.835938 874.679688 C 561.671875 877.140625 555.773438 876.261719 549.414062 876.265625 C 543.070312 961.789062 526.40625 1046.484375 519.964844 1132.175781 C 512.097656 1236.757812 519.140625 1341.34375 484.59375 1442.195312 C 497.238281 1458.667969 512.28125 1467.722656 507.003906 1491.996094 C 506.300781 1494.78125 504.445312 1494.992188 502.023438 1495.433594 C 486.910156 1498.195312 427.742188 1500.019531 415.988281 1493.464844 C 413.125 1491.863281 415.738281 1485.796875 412.675781 1483.71875 C 409.195312 1481.347656 388.648438 1481.097656 385.027344 1483.761719 C 381.972656 1486.007812 384.304688 1491.773438 381.804688 1493.582031 C 374.464844 1498.894531 295.308594 1499.375 288.140625 1494.515625 C 279.25 1471.621094 296.921875 1457.628906 309.234375 1441.839844 C 302.457031 1417.007812 294.617188 1392.214844 289.300781 1367 C 276.136719 1304.621094 278.183594 1241.792969 275.65625 1178.464844 C 271.101562 1064.480469 257.90625 951.144531 247.992188 837.574219 L 244.691406 834.558594 C 224.226562 828.8125 202.316406 824.234375 182.453125 816.761719 C 177.191406 814.78125 160.058594 809.523438 159.894531 803.785156 C 172.929688 747.128906 188.351562 690.859375 200.902344 634.105469 C 216.285156 564.566406 236.503906 486.601562 193.523438 422.402344 C 146.117188 412.15625 63.894531 408.417969 26.125 377.097656 C 3.226562 358.109375 0.0351562 341.292969 15.277344 315.796875 C 31.019531 289.457031 43.625 279.859375 67.007812 262.226562 C 71.660156 258.71875 83.527344 246.097656 87.179688 244.476562 C 92.859375 241.964844 87.917969 253.171875 88.035156 255.984375 C 88.878906 276.023438 129.863281 309.195312 151.390625 305.515625 C 147.191406 299.65625 139.003906 299.589844 132.566406 295.925781 C 111.335938 283.835938 95.320312 267.027344 90.378906 242.523438 L 160.472656 191.28125 C 167.8125 187.007812 176.289062 194.628906 182.480469 195.648438 C 197.238281 198.085938 232.664062 162.222656 248.164062 154.851562 C 256.242188 151.007812 265.382812 150.164062 273.496094 146.484375 C 288.792969 139.554688 303.292969 130.867188 318.84375 124.429688 L 295.84375 105.273438 C 271.996094 74.398438 298.210938 40.59375 326.359375 24.550781 C 369.417969 0.0078125 434.648438 0.507812 476.367188 27.9375 C 506.242188 47.585938 524.097656 87.082031 489.886719 112.253906 C 480.054688 119.488281 473.128906 117.617188 468.714844 131.097656 C 466.796875 136.949219 467.167969 143.742188 465.183594 149.671875 L 473.636719 149.671875 C 473.523438 160.714844 474.578125 180.175781 468.296875 189.640625 C 465.21875 194.28125 459.636719 192.890625 458.8125 195.339844 C 457.300781 199.855469 451.257812 222.316406 450.648438 226.726562 C 448.160156 244.496094 458.117188 253.957031 471.492188 264.480469 C 499.308594 286.375 559.816406 286.671875 591.023438 308.15625 C 597.84375 319.371094 595.613281 334.449219 598.363281 346.105469 C 603.46875 367.761719 619.046875 393.878906 620.898438 416.421875 C 624.28125 457.640625 632.71875 494.808594 635.6875 538.335938 C 639.476562 593.929688 643.03125 648.078125 635.773438 703.574219 C 634.613281 704.796875 607.742188 695.144531 603.132812 695.144531 L 570.488281 695.144531 L 570.488281 701.460938 C 580.328125 702.199219 591.367188 700.441406 601.027344 701.460938 Z M 392.984375 34.269531 C 380.164062 38.101562 374.859375 66.117188 389.242188 70.835938 C 426.5 83.058594 420.6875 25.992188 392.984375 34.269531 Z M 475.472656 103.59375 C 426.933594 81.328125 371.023438 80.050781 323.28125 105.246094 L 321.992188 118.09375 C 327.320312 117.824219 329.5 113.03125 334.59375 110.707031 C 373.410156 93.011719 439.804688 92.992188 475.695312 118.097656 L 475.472656 103.585938 Z M 454.648438 126.550781 L 400.941406 133.027344 L 345.117188 127.578125 C 373.457031 137.164062 414.757812 138.390625 443.796875 131.460938 C 446.683594 130.769531 454.226562 130.039062 454.648438 126.542969 Z M 364.097656 236.019531 C 355.273438 225.65625 347.367188 219.699219 341.964844 206.582031 C 340.621094 203.324219 341.53125 198.902344 339.898438 195.859375 C 338.984375 194.15625 335.363281 195.464844 333.535156 194.023438 C 324.925781 187.269531 323.332031 172.359375 320.9375 162.339844 L 298.808594 179.214844 C 312.941406 197.617188 288.746094 202.105469 277.878906 209.847656 C 261.75 221.335938 264.402344 231.644531 238.5625 235.804688 C 233.941406 236.546875 223.457031 234.933594 221.207031 236.371094 C 220.707031 236.683594 218.882812 242.957031 216.699219 245.53125 C 199.191406 266.136719 176.605469 283.992188 159.816406 305.507812 L 203.457031 296.519531 C 209.089844 291.0625 214.335938 275.714844 219.738281 271.738281 C 226.875 266.488281 250.613281 266.882812 259.816406 267.660156 C 276.769531 269.085938 299.507812 279.933594 315.75 275.089844 C 327.289062 271.648438 353.945312 241.503906 349.375 227.617188 Z M 214.574219 236.019531 C 210.558594 230.078125 202.652344 227.308594 197.75 222.332031 C 184.804688 209.195312 187.570312 189.488281 164.039062 202.375 C 161.796875 205.480469 171.675781 212.855469 173.871094 214.625 C 184.660156 223.304688 201.210938 232.507812 214.578125 236.019531 Z M 378.839844 318.179688 C 378.097656 321.125 376.695312 323.945312 377.203125 327.121094 L 385.140625 345.542969 C 385.96875 332.316406 399.265625 322.015625 384.101562 311.867188 C 382.101562 314.652344 382.171875 316.011719 378.847656 318.179688 C 381.785156 306.507812 389.226562 296.4375 395.695312 286.625 L 347.277344 248.675781 C 346.527344 257.332031 350.207031 265.40625 353.195312 273.277344 C 356.832031 282.863281 368.628906 310.601562 373.640625 318.144531 C 375.667969 321.191406 376.386719 319.785156 378.847656 318.179688 Z M 423.042969 353.976562 C 430.980469 329.597656 442.25 306.277344 448.183594 281.164062 C 450.832031 269.96875 454.195312 260.042969 450.421875 248.691406 L 431.519531 268.710938 L 406.253906 287.625 L 427.261719 321.351562 C 421.132812 325.550781 422.3125 313.039062 415.929688 314.066406 C 413.671875 314.425781 410.730469 318.929688 410.375 321.460938 C 409.625 326.785156 418.460938 349.675781 423.050781 353.976562 Z M 336.707031 290.804688 C 326.464844 292.320312 319.832031 292.929688 315.660156 303.414062 L 332.625 304.640625 L 336.699219 290.804688 Z M 488.023438 297.453125 C 486.007812 296.242188 475.359375 297.078125 471.511719 295.03125 L 477.105469 307.746094 L 492.570312 307.628906 C 490.898438 305.660156 488.859375 297.953125 488.03125 297.453125 Z M 330.386719 404.527344 L 332.605469 384.441406 L 267.226562 375.023438 C 268.710938 380.523438 262.195312 391.96875 267.105469 395.164062 L 330.386719 404.519531 Z M 541.015625 400.300781 L 463.097656 394.003906 L 463.074219 404.535156 C 489.054688 406.589844 515.039062 408.59375 541.003906 410.851562 Z M 296.558594 427.832031 C 290.160156 423.21875 279.613281 435.816406 286.503906 440.023438 C 296.863281 446.339844 301.246094 431.210938 296.558594 427.832031 Z M 407.53125 445.320312 C 407.53125 439.777344 403.042969 435.289062 397.5 435.289062 C 391.957031 435.289062 387.46875 439.777344 387.46875 445.320312 C 387.46875 450.863281 391.957031 455.351562 397.5 455.351562 C 403.042969 455.351562 407.53125 450.863281 407.53125 445.320312 Z M 509.0625 447.742188 C 509.0625 443.859375 505.917969 440.707031 502.027344 440.707031 C 498.140625 440.707031 494.992188 443.851562 494.992188 447.742188 C 494.992188 451.632812 498.140625 454.777344 502.027344 454.777344 C 505.917969 454.777344 509.0625 451.632812 509.0625 447.742188 Z M 405.023438 501.144531 C 405.023438 495.40625 400.371094 490.753906 394.628906 490.753906 C 388.890625 490.753906 384.238281 495.40625 384.238281 501.144531 C 384.238281 506.882812 388.890625 511.539062 394.628906 511.539062 C 400.371094 511.539062 405.023438 506.882812 405.023438 501.144531 Z M 559.941406 707.78125 C 556.167969 655.585938 558.347656 600.867188 548.765625 549.453125 C 547.921875 544.917969 547.527344 534.941406 543.136719 533 L 538.945312 590.878906 Z M 401.6875 557.773438 C 401.6875 552.269531 397.222656 547.816406 391.726562 547.816406 C 386.234375 547.816406 381.769531 552.277344 381.769531 557.773438 C 381.769531 563.269531 386.234375 567.730469 391.726562 567.730469 C 397.222656 567.730469 401.6875 563.269531 401.6875 557.773438 Z M 398.578125 613.90625 C 398.578125 608.589844 394.269531 604.277344 388.949219 604.277344 C 383.632812 604.277344 379.320312 608.589844 379.320312 613.90625 C 379.320312 619.222656 383.632812 623.535156 388.949219 623.535156 C 394.269531 623.535156 398.578125 619.222656 398.578125 613.90625 Z M 399.890625 1278.511719 C 400.140625 1223.265625 409.058594 1168.558594 406.320312 1113.097656 L 398.851562 998.402344 C 395.117188 1030.128906 395.136719 1062.25 393.566406 1094.222656 C 390.8125 1149.914062 392.773438 1188.605469 395.671875 1243.792969 C 396.203125 1253.890625 394.464844 1265.835938 395.691406 1275.398438 C 396.085938 1278.472656 397.296875 1281.925781 399.894531 1278.511719 Z M 399.890625 1278.511719 " fill-opacity="1" fill-rule="nonzero"/></svg>