<svg xmlns="http://www.w3.org/2000/svg" xmlns:xlink="http://www.w3.org/1999/xlink" width="500" zoomAndPan="magnify" viewBox="0 0 375 374.999991" height="500" preserveAspectRatio="xMidYMid meet" version="1.0"><defs><clipPath id="5fc8cccbf8"><path d="M 196.011719 171.464844 L 223.382812 171.464844 L 223.382812 198.832031 L 196.011719 198.832031 Z M 196.011719 171.464844 " clip-rule="nonzero"/></clipPath><clipPath id="9963eaaf08"><path d="M 209.695312 171.464844 C 202.140625 171.464844 196.011719 177.59375 196.011719 185.148438 C 196.011719 192.707031 202.140625 198.832031 209.695312 198.832031 C 217.253906 198.832031 223.382812 192.707031 223.382812 185.148438 C 223.382812 177.59375 217.253906 171.464844 209.695312 171.464844 Z M 209.695312 171.464844 " clip-rule="nonzero"/></clipPath><clipPath id="ec0fbbdcc9"><path d="M 0.0117188 0.464844 L 27.382812 0.464844 L 27.382812 27.832031 L 0.0117188 27.832031 Z M 0.0117188 0.464844 " clip-rule="nonzero"/></clipPath><clipPath id="ec516f0650"><path d="M 13.695312 0.464844 C 6.140625 0.464844 0.0117188 6.59375 0.0117188 14.148438 C 0.0117188 21.707031 6.140625 27.832031 13.695312 27.832031 C 21.253906 27.832031 27.382812 21.707031 27.382812 14.148438 C 27.382812 6.59375 21.253906 0.464844 13.695312 0.464844 Z M 13.695312 0.464844 " clip-rule="nonzero"/></clipPath><clipPath id="ac175912ce"><rect x="0" width="28" y="0" height="28"/></clipPath></defs><g clip-path="url(#5fc8cccbf8)"><g clip-path="url(#9963eaaf08)"><g transform="matrix(1, 0, 0, 1, 196, 171)"><g clip-path="url(#ac175912ce)"><g clip-path="url(#ec0fbbdcc9)"><g clip-path="url(#ec516f0650)"><path fill="#ffffff" d="M 0.0117188 0.464844 L 27.382812 0.464844 L 27.382812 27.832031 L 0.0117188 27.832031 Z M 0.0117188 0.464844 " fill-opacity="1" fill-rule="nonzero"/></g></g></g></g></g></g><path fill="#000000" d="M 187.5 8.894531 C 158.402344 8.894531 130.925781 15.855469 106.648438 28.203125 L 125.027344 40.304688 C 127.695312 42.0625 129.171875 44.8125 129.171875 48.007812 L 129.171875 58.886719 C 129.171875 63.480469 132.472656 67.316406 137.011719 68.003906 L 145.191406 69.246094 C 147.742188 69.632812 149.796875 70.890625 151.300781 72.988281 C 152.804688 75.085938 153.335938 77.433594 152.882812 79.976562 C 152.535156 81.9375 152.195312 83.601562 151.855469 84.964844 C 151.347656 87.019531 150.308594 88.636719 148.65625 89.957031 L 108.621094 121.890625 C 107.1875 123.035156 105.671875 123.65625 103.847656 123.851562 L 85.835938 125.765625 L 85.136719 125.8125 C 81.726562 125.914062 78.597656 127.777344 76.886719 130.746094 C 75.125 133.796875 75.125 137.558594 76.886719 140.613281 C 78.195312 142.882812 80.328125 144.503906 82.777344 145.1875 C 84.816406 145.757812 86.402344 146.84375 87.671875 148.535156 L 98.820312 163.394531 C 100.617188 165.792969 103.199219 167.082031 106.195312 167.082031 L 129.851562 167.082031 L 129.851562 176.03125 C 129.851562 181.109375 133.992188 185.25 139.070312 185.25 L 154.949219 185.25 C 158.609375 185.25 161.742188 187.242188 163.292969 190.554688 L 165.269531 194.757812 C 166.824219 198.070312 169.957031 200.058594 173.613281 200.058594 L 186.351562 200.058594 C 191.433594 200.058594 195.574219 204.199219 195.574219 209.277344 L 195.574219 236.964844 C 195.574219 240.078125 194.175781 242.753906 191.621094 244.535156 L 168.578125 260.566406 C 166.019531 262.34375 164.621094 265.023438 164.621094 268.136719 L 164.621094 282.59375 C 164.621094 285.269531 163.609375 287.574219 161.640625 289.386719 L 151.003906 299.160156 C 149.035156 300.96875 148.023438 303.273438 148.023438 305.949219 L 148.023438 319.71875 C 148.023438 321.34375 148.378906 322.738281 149.164062 324.164062 L 150.375 326.367188 C 151.992188 329.300781 151.941406 332.617188 150.234375 335.503906 C 148.527344 338.390625 145.648438 340.03125 142.296875 340.03125 L 132.480469 340.03125 C 128.539062 340.03125 125.179688 337.6875 123.824219 333.984375 L 116.253906 313.335938 L 116.101562 312.886719 L 108.953125 289.765625 C 108.667969 288.84375 108.542969 288.011719 108.542969 287.042969 L 108.542969 260.488281 C 108.542969 257.636719 107.386719 255.183594 105.183594 253.367188 L 73.769531 227.496094 C 71.566406 225.683594 70.410156 223.230469 70.410156 220.378906 L 70.410156 193.191406 C 70.410156 192.347656 70.503906 191.625 70.722656 190.808594 L 71.964844 186.175781 C 72.839844 182.90625 71.972656 179.664062 69.582031 177.273438 L 46.1875 153.855469 C 44.394531 152.058594 43.488281 149.875 43.488281 147.335938 L 43.488281 128.316406 C 43.488281 125.105469 41.996094 122.34375 39.300781 120.589844 C 33.132812 116.574219 28.550781 113.730469 25.558594 112.066406 C 14.867188 134.980469 8.894531 160.542969 8.894531 187.5 C 8.894531 236.820312 28.886719 281.472656 61.207031 313.792969 C 93.527344 346.113281 138.179688 366.105469 187.5 366.105469 C 236.820312 366.105469 281.472656 346.113281 313.792969 313.792969 C 316.992188 310.59375 320.070312 307.265625 323.023438 303.832031 C 303.523438 298.496094 293.429688 284.628906 292.75 262.230469 C 292.726562 261.488281 292.78125 260.851562 292.925781 260.121094 C 295.496094 247.414062 290.988281 228.832031 279.402344 204.378906 L 279.109375 203.8125 C 269.308594 186.351562 279.714844 170.34375 310.332031 155.792969 C 313.621094 154.226562 315.59375 151.109375 315.59375 147.464844 L 315.59375 134.648438 C 315.59375 129.789062 311.839844 125.773438 306.988281 125.449219 L 289.035156 124.25 C 287.121094 124.125 285.515625 123.511719 284.003906 122.339844 C 275.28125 115.585938 264.964844 112.519531 253.054688 113.136719 C 249.429688 113.324219 246.222656 111.527344 244.484375 108.34375 L 239.3125 98.863281 C 237.621094 95.765625 237.785156 92.230469 239.753906 89.300781 L 244.261719 82.597656 C 245.328125 81.007812 245.828125 79.367188 245.828125 77.453125 L 245.828125 67.984375 C 245.828125 66.554688 246.105469 65.324219 246.722656 64.03125 L 253.316406 50.148438 C 254.027344 48.648438 254.300781 47.203125 254.1875 45.550781 L 252.476562 21.085938 C 232.339844 13.214844 210.425781 8.894531 187.5 8.894531 Z M 54.929688 54.929688 C 88.855469 21 135.730469 0.015625 187.5 0.015625 C 239.273438 0.015625 286.144531 21 320.070312 54.929688 C 354 88.855469 374.984375 135.730469 374.984375 187.5 C 374.984375 239.273438 354 286.144531 320.070312 320.070312 C 286.144531 354 239.273438 374.984375 187.5 374.984375 C 135.730469 374.984375 88.855469 354 54.929688 320.070312 C 21 286.144531 0.015625 239.273438 0.015625 187.5 C 0.015625 135.730469 21 88.855469 54.929688 54.929688 Z M 54.929688 54.929688 " fill-opacity="1" fill-rule="evenodd"/></svg>