<svg xmlns="http://www.w3.org/2000/svg" xmlns:xlink="http://www.w3.org/1999/xlink" width="500" zoomAndPan="magnify" viewBox="0 0 375 374.999991" height="500" preserveAspectRatio="xMidYMid meet" version="1.0"><defs><clipPath id="f5d862b6f4"><path d="M 196.011719 171.464844 L 223.382812 171.464844 L 223.382812 198.832031 L 196.011719 198.832031 Z M 196.011719 171.464844 " clip-rule="nonzero"/></clipPath><clipPath id="7d0e01d2fd"><path d="M 209.695312 171.464844 C 202.140625 171.464844 196.011719 177.59375 196.011719 185.148438 C 196.011719 192.707031 202.140625 198.832031 209.695312 198.832031 C 217.253906 198.832031 223.382812 192.707031 223.382812 185.148438 C 223.382812 177.59375 217.253906 171.464844 209.695312 171.464844 Z M 209.695312 171.464844 " clip-rule="nonzero"/></clipPath><clipPath id="209ed45beb"><path d="M 0.0117188 0.464844 L 27.382812 0.464844 L 27.382812 27.832031 L 0.0117188 27.832031 Z M 0.0117188 0.464844 " clip-rule="nonzero"/></clipPath><clipPath id="b47e85c370"><path d="M 13.695312 0.464844 C 6.140625 0.464844 0.0117188 6.59375 0.0117188 14.148438 C 0.0117188 21.707031 6.140625 27.832031 13.695312 27.832031 C 21.253906 27.832031 27.382812 21.707031 27.382812 14.148438 C 27.382812 6.59375 21.253906 0.464844 13.695312 0.464844 Z M 13.695312 0.464844 " clip-rule="nonzero"/></clipPath><clipPath id="a07376fe46"><rect x="0" width="28" y="0" height="28"/></clipPath><clipPath id="7c96599169"><path d="M 44.0625 0 L 331 0 L 331 375 L 44.0625 375 Z M 44.0625 0 " clip-rule="nonzero"/></clipPath></defs><g clip-path="url(#f5d862b6f4)"><g clip-path="url(#7d0e01d2fd)"><g transform="matrix(1, 0, 0, 1, 196, 171)"><g clip-path="url(#a07376fe46)"><g clip-path="url(#209ed45beb)"><g clip-path="url(#b47e85c370)"><path fill="#ffffff" d="M 0.0117188 0.464844 L 27.382812 0.464844 L 27.382812 27.832031 L 0.0117188 27.832031 Z M 0.0117188 0.464844 " fill-opacity="1" fill-rule="nonzero"/></g></g></g></g></g></g><path fill="#facc15" d="M 82 37.160156 L 293.40625 37.160156 L 293.40625 338.234375 L 82 338.234375 Z M 82 37.160156 " fill-opacity="1" fill-rule="nonzero"/><path fill="#f2f2f2" d="M 48.550781 70.570312 L 114.738281 4.464844 L 134.996094 24.699219 L 68.808594 90.800781 Z M 48.550781 70.570312 " fill-opacity="1" fill-rule="nonzero"/><path fill="#f2f2f2" d="M 240.410156 24.699219 L 260.667969 4.464844 L 326.855469 70.570312 L 306.597656 90.800781 Z M 240.410156 24.699219 " fill-opacity="1" fill-rule="nonzero"/><path fill="#f2f2f2" d="M 68.808594 284.59375 L 67.34375 301.707031 L 48.550781 304.828125 L 114.738281 370.929688 L 134.996094 350.699219 Z M 68.808594 284.59375 " fill-opacity="1" fill-rule="nonzero"/><path fill="#f2f2f2" d="M 306.597656 284.59375 L 326.855469 304.828125 L 260.667969 370.929688 L 258.371094 352.988281 L 240.410156 350.699219 Z M 306.597656 284.59375 " fill-opacity="1" fill-rule="nonzero"/><path fill="#f97316" d="M 224.945312 142.667969 C 193.828125 140.09375 149.683594 165.710938 149.683594 165.710938 L 134.917969 141.960938 C 134.917969 141.960938 177.851562 113.984375 188.972656 84.808594 L 224.945312 142.664062 Z M 224.945312 142.667969 " fill-opacity="1" fill-rule="nonzero"/><path fill="#3b82f6" d="M 149.777344 165.859375 L 134.824219 141.8125 C 134.554688 141.378906 134.378906 140.910156 134.296875 140.40625 C 134.214844 139.90625 134.230469 139.40625 134.347656 138.910156 C 134.460938 138.414062 134.667969 137.957031 134.96875 137.542969 C 135.265625 137.128906 135.628906 136.785156 136.0625 136.519531 L 147.964844 129.140625 C 148.398438 128.871094 148.863281 128.695312 149.367188 128.613281 C 149.871094 128.527344 150.371094 128.546875 150.871094 128.660156 C 151.367188 128.777344 151.824219 128.984375 152.238281 129.28125 C 152.652344 129.578125 152.992188 129.945312 153.261719 130.375 L 168.214844 154.425781 C 168.484375 154.859375 168.660156 155.324219 168.742188 155.828125 C 168.828125 156.332031 168.808594 156.832031 168.695312 157.328125 C 168.578125 157.824219 168.371094 158.28125 168.074219 158.695312 C 167.777344 159.109375 167.410156 159.449219 166.976562 159.71875 L 155.078125 167.097656 C 154.644531 167.367188 154.175781 167.542969 153.671875 167.625 C 153.167969 167.707031 152.667969 167.691406 152.171875 167.574219 C 151.671875 167.457031 151.21875 167.253906 150.804688 166.953125 C 150.386719 166.65625 150.046875 166.292969 149.777344 165.859375 Z M 149.777344 165.859375 " fill-opacity="1" fill-rule="nonzero"/><path fill="#f97316" d="M 178.085938 203.71875 L 155.25 166.992188 L 166.804688 159.824219 L 189.640625 196.550781 Z M 178.085938 203.71875 " fill-opacity="1" fill-rule="nonzero"/><g clip-path="url(#7c96599169)"><path fill="#000000" d="M 309.476562 281.726562 C 307.945312 280.199219 305.238281 280.199219 303.710938 281.726562 L 297.5 287.929688 L 297.5 87.46875 L 303.710938 93.667969 C 304.472656 94.433594 305.511719 94.859375 306.59375 94.859375 C 307.671875 94.859375 308.710938 94.433594 309.476562 93.667969 L 329.738281 73.429688 C 331.328125 71.839844 331.328125 69.261719 329.738281 67.671875 L 263.566406 1.585938 C 261.972656 -0.00390625 259.394531 -0.00390625 257.800781 1.585938 L 237.539062 21.824219 C 235.945312 23.414062 235.945312 25.992188 237.539062 27.582031 L 243.054688 33.089844 L 132.351562 33.089844 L 137.867188 27.582031 C 139.460938 25.992188 139.460938 23.414062 137.867188 21.824219 L 117.605469 1.585938 C 116.011719 -0.00390625 113.433594 -0.00390625 111.839844 1.585938 L 45.667969 67.671875 C 44.074219 69.261719 44.074219 71.839844 45.667969 73.429688 L 65.929688 93.667969 C 66.695312 94.433594 67.730469 94.859375 68.8125 94.859375 C 69.894531 94.859375 70.929688 94.433594 71.695312 93.667969 L 77.902344 87.46875 L 77.902344 287.929688 L 71.695312 281.726562 C 70.574219 280.609375 68.902344 280.242188 67.414062 280.78125 C 65.925781 281.324219 64.882812 282.679688 64.75 284.257812 L 63.550781 298.214844 L 47.878906 300.828125 C 46.371094 301.078125 45.132812 302.148438 44.667969 303.601562 C 44.203125 305.054688 44.585938 306.644531 45.667969 307.722656 L 111.839844 373.808594 C 112.601562 374.570312 113.640625 375 114.722656 375 C 115.800781 375 116.839844 374.570312 117.605469 373.808594 L 137.867188 353.570312 C 139.457031 351.980469 139.457031 349.402344 137.867188 347.8125 L 132.347656 342.304688 L 243.054688 342.304688 L 237.535156 347.8125 C 236.4375 348.910156 236.058594 350.539062 236.5625 352.007812 C 237.066406 353.480469 238.359375 354.535156 239.902344 354.730469 L 254.71875 356.613281 L 256.636719 371.449219 C 256.835938 372.992188 257.894531 374.285156 259.367188 374.785156 C 259.796875 374.929688 260.242188 375 260.683594 375 C 261.746094 375 262.789062 374.585938 263.5625 373.808594 L 329.734375 307.722656 C 331.328125 306.132812 331.328125 303.554688 329.734375 301.964844 L 309.472656 281.726562 Z M 260.683594 10.222656 L 321.089844 70.550781 L 306.59375 85.03125 L 296.308594 74.761719 C 296.308594 74.761719 296.308594 74.757812 296.304688 74.757812 L 255.78125 34.285156 C 255.78125 34.285156 255.777344 34.28125 255.777344 34.28125 L 246.1875 24.703125 Z M 68.8125 85.03125 L 54.316406 70.550781 L 114.722656 10.222656 L 129.21875 24.703125 L 119.625 34.28125 C 119.625 34.28125 119.625 34.28125 119.625 34.285156 L 79.097656 74.757812 C 79.097656 74.757812 79.097656 74.761719 79.097656 74.761719 Z M 114.722656 365.171875 L 57.03125 307.558594 L 68.015625 305.726562 C 69.855469 305.417969 71.25 303.910156 71.410156 302.054688 L 72.128906 293.675781 L 79.097656 300.636719 L 119.625 341.109375 L 129.21875 350.691406 Z M 124.195312 334.160156 L 86.058594 296.070312 L 86.058594 79.324219 L 124.195312 41.234375 L 251.207031 41.234375 L 289.347656 79.324219 L 289.347656 296.074219 L 251.207031 334.160156 Z M 263.664062 362.195312 L 262.402344 352.453125 C 262.167969 350.613281 260.714844 349.167969 258.875 348.933594 L 249.183594 347.703125 L 306.59375 290.363281 L 321.089844 304.84375 L 263.664062 362.191406 Z M 263.664062 362.195312 " fill-opacity="1" fill-rule="nonzero"/></g><path fill="#000000" d="M 131.449219 144.101562 C 131.453125 144.101562 131.453125 144.105469 131.453125 144.105469 L 146.222656 167.859375 C 146.222656 167.859375 146.222656 167.859375 146.222656 167.863281 L 146.3125 168.007812 C 147.429688 169.804688 149.179688 171.058594 151.242188 171.539062 C 151.847656 171.679688 152.457031 171.75 153.0625 171.75 C 153.171875 171.75 153.273438 171.710938 153.382812 171.707031 L 174.621094 205.863281 C 175.191406 206.78125 176.105469 207.4375 177.15625 207.679688 C 177.464844 207.753906 177.773438 207.789062 178.085938 207.789062 C 178.839844 207.789062 179.585938 207.578125 180.234375 207.175781 L 191.789062 200.011719 C 193.703125 198.824219 194.292969 196.316406 193.105469 194.402344 L 171.867188 160.246094 C 172.078125 159.859375 172.253906 159.457031 172.402344 159.03125 C 186.917969 152.71875 206.523438 145.945312 222.601562 146.613281 L 224.53125 149.71875 C 225.304688 150.960938 226.636719 151.644531 228 151.644531 C 228.734375 151.644531 229.476562 151.445312 230.144531 151.03125 C 231.390625 150.261719 232.074219 148.929688 232.074219 147.566406 C 232.074219 146.832031 231.875 146.09375 231.460938 145.425781 L 189.386719 77.757812 C 188.195312 75.84375 185.679688 75.253906 183.769531 76.445312 C 182.527344 77.214844 181.839844 78.546875 181.84375 79.910156 C 181.84375 80.644531 182.042969 81.382812 182.457031 82.050781 L 184.402344 85.183594 C 178.058594 99.941406 163.296875 114.453125 151.148438 124.613281 C 149.355469 124.347656 147.46875 124.652344 145.8125 125.679688 L 133.910156 133.058594 C 130.199219 135.363281 129.058594 140.25 131.363281 143.957031 L 131.453125 144.101562 Z M 151.097656 160.265625 L 140.441406 143.128906 C 143.003906 141.339844 146.867188 138.539062 151.359375 134.988281 L 163.453125 154.085938 C 158.179688 156.542969 153.871094 158.769531 151.097656 160.265625 Z M 179.398438 198.109375 L 160.863281 168.304688 L 165.273438 165.566406 L 165.492188 165.433594 L 184.027344 195.238281 Z M 189.496094 93.375 L 217.539062 138.472656 C 201.746094 139.136719 184.304688 145.054688 170.773438 150.820312 L 157.699219 129.792969 C 168.921875 120.269531 182 107.289062 189.496094 93.375 Z M 189.496094 93.375 " fill-opacity="1" fill-rule="nonzero"/><path fill="#000000" d="M 211.179688 86.128906 C 211.578125 86.25 211.980469 86.308594 212.378906 86.308594 C 214.121094 86.308594 215.734375 85.179688 216.273438 83.429688 L 220.257812 70.476562 C 220.917969 68.328125 219.710938 66.050781 217.554688 65.390625 C 215.417969 64.730469 213.125 65.933594 212.460938 68.089844 L 208.476562 81.039062 C 207.816406 83.1875 209.027344 85.46875 211.179688 86.128906 Z M 211.179688 86.128906 " fill-opacity="1" fill-rule="nonzero"/><path fill="#000000" d="M 233.597656 122.183594 C 233.234375 124.402344 234.742188 126.492188 236.964844 126.855469 L 250.355469 129.035156 C 250.578125 129.070312 250.800781 129.089844 251.015625 129.089844 C 252.980469 129.089844 254.710938 127.667969 255.035156 125.671875 C 255.398438 123.453125 253.890625 121.359375 251.667969 121 L 238.277344 118.820312 C 236.050781 118.441406 233.957031 119.964844 233.597656 122.183594 Z M 233.597656 122.183594 " fill-opacity="1" fill-rule="nonzero"/><path fill="#000000" d="M 214.691406 175.8125 C 212.632812 176.726562 211.707031 179.132812 212.625 181.1875 L 221.242188 200.53125 C 221.917969 202.050781 223.410156 202.949219 224.96875 202.949219 C 225.523438 202.949219 226.085938 202.835938 226.625 202.597656 C 228.683594 201.679688 229.609375 199.277344 228.691406 197.21875 L 220.074219 177.875 C 219.160156 175.820312 216.75 174.902344 214.691406 175.8125 Z M 214.691406 175.8125 " fill-opacity="1" fill-rule="nonzero"/><path fill="#000000" d="M 242.835938 190.65625 C 243.722656 190.65625 244.617188 190.367188 245.363281 189.777344 C 247.128906 188.382812 247.429688 185.824219 246.035156 184.058594 L 234.539062 169.523438 C 233.144531 167.757812 230.574219 167.460938 228.8125 168.851562 C 227.042969 170.246094 226.746094 172.804688 228.140625 174.570312 L 239.636719 189.105469 C 240.441406 190.125 241.632812 190.65625 242.835938 190.65625 Z M 242.835938 190.65625 " fill-opacity="1" fill-rule="nonzero"/><path fill="#000000" d="M 163.015625 75.199219 C 163.820312 76.226562 165.019531 76.765625 166.230469 76.765625 C 167.109375 76.765625 167.992188 76.480469 168.734375 75.902344 C 170.511719 74.519531 170.828125 71.957031 169.441406 70.1875 L 156.394531 53.5 C 155.007812 51.726562 152.445312 51.414062 150.671875 52.792969 C 148.894531 54.179688 148.582031 56.738281 149.96875 58.507812 Z M 163.015625 75.199219 " fill-opacity="1" fill-rule="nonzero"/><path fill="#000000" d="M 141.390625 86.96875 L 158.328125 94.515625 C 158.867188 94.757812 159.429688 94.875 159.988281 94.875 C 161.546875 94.875 163.035156 93.972656 163.710938 92.460938 C 164.628906 90.40625 163.707031 88 161.652344 87.082031 L 144.714844 79.53125 C 142.648438 78.613281 140.246094 79.539062 139.328125 81.589844 C 138.410156 83.644531 139.332031 86.050781 141.390625 86.96875 Z M 141.390625 86.96875 " fill-opacity="1" fill-rule="nonzero"/><path fill="#000000" d="M 227.378906 105.148438 C 228.113281 105.148438 228.855469 104.953125 229.523438 104.535156 L 239.789062 98.167969 C 241.703125 96.984375 242.292969 94.472656 241.105469 92.5625 C 239.914062 90.648438 237.398438 90.058594 235.488281 91.25 L 225.226562 97.617188 C 223.3125 98.804688 222.722656 101.316406 223.910156 103.222656 C 224.683594 104.464844 226.015625 105.148438 227.378906 105.148438 Z M 227.378906 105.148438 " fill-opacity="1" fill-rule="nonzero"/><path fill="#000000" d="M 115.277344 239.207031 L 168.882812 239.207031 C 171.136719 239.207031 172.960938 237.382812 172.960938 235.132812 C 172.960938 232.886719 171.136719 231.0625 168.882812 231.0625 L 115.277344 231.0625 C 113.023438 231.0625 111.199219 232.886719 111.199219 235.132812 C 111.199219 237.382812 113.023438 239.207031 115.277344 239.207031 Z M 115.277344 239.207031 " fill-opacity="1" fill-rule="nonzero"/><path fill="#000000" d="M 115.277344 262.3125 L 198.222656 262.3125 C 200.476562 262.3125 202.300781 260.488281 202.300781 258.242188 C 202.300781 255.992188 200.476562 254.167969 198.222656 254.167969 L 115.277344 254.167969 C 113.023438 254.167969 111.199219 255.992188 111.199219 258.242188 C 111.199219 260.488281 113.023438 262.3125 115.277344 262.3125 Z M 115.277344 262.3125 " fill-opacity="1" fill-rule="nonzero"/><path fill="#000000" d="M 115.277344 285.421875 L 153.828125 285.421875 C 156.082031 285.421875 157.90625 283.597656 157.90625 281.351562 C 157.90625 279.101562 156.082031 277.277344 153.828125 277.277344 L 115.277344 277.277344 C 113.023438 277.277344 111.199219 279.101562 111.199219 281.351562 C 111.199219 283.597656 113.023438 285.421875 115.277344 285.421875 Z M 115.277344 285.421875 " fill-opacity="1" fill-rule="nonzero"/><path fill="#000000" d="M 260.128906 254.167969 L 217.785156 254.167969 C 215.535156 254.167969 213.707031 255.992188 213.707031 258.242188 C 213.707031 260.488281 215.535156 262.3125 217.785156 262.3125 L 260.128906 262.3125 C 262.382812 262.3125 264.207031 260.488281 264.207031 258.242188 C 264.207031 255.992188 262.382812 254.167969 260.128906 254.167969 Z M 260.128906 254.167969 " fill-opacity="1" fill-rule="nonzero"/><path fill="#000000" d="M 260.128906 277.277344 L 173.949219 277.277344 C 171.699219 277.277344 169.875 279.101562 169.875 281.347656 C 169.875 283.597656 171.699219 285.421875 173.949219 285.421875 L 260.128906 285.421875 C 262.382812 285.421875 264.207031 283.597656 264.207031 281.347656 C 264.207031 279.101562 262.382812 277.277344 260.128906 277.277344 Z M 260.128906 277.277344 " fill-opacity="1" fill-rule="nonzero"/><path fill="#000000" d="M 260.128906 300.386719 L 115.277344 300.386719 C 113.023438 300.386719 111.199219 302.210938 111.199219 304.457031 C 111.199219 306.707031 113.023438 308.53125 115.277344 308.53125 L 260.128906 308.53125 C 262.382812 308.53125 264.207031 306.707031 264.207031 304.457031 C 264.207031 302.210938 262.382812 300.386719 260.128906 300.386719 Z M 260.128906 300.386719 " fill-opacity="1" fill-rule="nonzero"/></svg>