<svg xmlns="http://www.w3.org/2000/svg" xmlns:xlink="http://www.w3.org/1999/xlink" width="500" zoomAndPan="magnify" viewBox="0 0 375 374.999991" height="500" preserveAspectRatio="xMidYMid meet" version="1.0"><defs><clipPath id="24f7c475d0"><path d="M 196.011719 171.464844 L 223.382812 171.464844 L 223.382812 198.832031 L 196.011719 198.832031 Z M 196.011719 171.464844 " clip-rule="nonzero"/></clipPath><clipPath id="7a1e8906c8"><path d="M 209.695312 171.464844 C 202.140625 171.464844 196.011719 177.59375 196.011719 185.148438 C 196.011719 192.707031 202.140625 198.832031 209.695312 198.832031 C 217.253906 198.832031 223.382812 192.707031 223.382812 185.148438 C 223.382812 177.59375 217.253906 171.464844 209.695312 171.464844 Z M 209.695312 171.464844 " clip-rule="nonzero"/></clipPath><clipPath id="a7b77ae0e8"><path d="M 0.0117188 0.464844 L 27.382812 0.464844 L 27.382812 27.832031 L 0.0117188 27.832031 Z M 0.0117188 0.464844 " clip-rule="nonzero"/></clipPath><clipPath id="ecd4c4c3a2"><path d="M 13.695312 0.464844 C 6.140625 0.464844 0.0117188 6.59375 0.0117188 14.148438 C 0.0117188 21.707031 6.140625 27.832031 13.695312 27.832031 C 21.253906 27.832031 27.382812 21.707031 27.382812 14.148438 C 27.382812 6.59375 21.253906 0.464844 13.695312 0.464844 Z M 13.695312 0.464844 " clip-rule="nonzero"/></clipPath><clipPath id="7e216a6204"><rect x="0" width="28" y="0" height="28"/></clipPath><clipPath id="2a49561e04"><path d="M 37.5 187 L 247 187 L 247 274 L 37.5 274 Z M 37.5 187 " clip-rule="nonzero"/></clipPath><clipPath id="fd980e183e"><path d="M 37.5 101 L 146 101 L 146 264 L 37.5 264 Z M 37.5 101 " clip-rule="nonzero"/></clipPath><clipPath id="ef564b448c"><path d="M 136.355469 188.066406 L 296.765625 188.066406 L 296.765625 375 L 136.355469 375 Z M 136.355469 188.066406 " clip-rule="nonzero"/></clipPath><clipPath id="05e3cd50d1"><path d="M 144 101.328125 L 353.226562 101.328125 L 353.226562 188 L 144 188 Z M 144 101.328125 " clip-rule="nonzero"/></clipPath><clipPath id="1d27a5f578"><path d="M 246 112.679688 L 353.226562 112.679688 L 353.226562 273.996094 L 246 273.996094 Z M 246 112.679688 " clip-rule="nonzero"/></clipPath></defs><g clip-path="url(#24f7c475d0)"><g clip-path="url(#7a1e8906c8)"><g transform="matrix(1, 0, 0, 1, 196, 171)"><g clip-path="url(#7e216a6204)"><g clip-path="url(#a7b77ae0e8)"><g clip-path="url(#ecd4c4c3a2)"><path fill="#ffffff" d="M 0.0117188 0.464844 L 27.382812 0.464844 L 27.382812 27.832031 L 0.0117188 27.832031 Z M 0.0117188 0.464844 " fill-opacity="1" fill-rule="nonzero"/></g></g></g></g></g></g><path fill="#757368" d="M 196.640625 184.230469 L 194.105469 184.230469 L 194.105469 159.503906 L 196.640625 159.503906 L 196.640625 184.230469 " fill-opacity="1" fill-rule="nonzero"/><g clip-path="url(#2a49561e04)"><path fill="#f9e280" d="M 246.242188 263.707031 L 240.550781 273.570312 L 37.515625 273.570312 L 87.175781 187.507812 L 94.1875 199.652344 L 57.230469 263.707031 L 246.242188 263.707031 " fill-opacity="1" fill-rule="nonzero"/></g><g clip-path="url(#fd980e183e)"><path fill="#eac62f" d="M 145.285156 263.707031 L 131.140625 263.707031 L 94.1875 199.652344 L 87.175781 187.507812 L 37.515625 101.445312 L 136.839844 101.445312 L 130.332031 112.71875 L 58.167969 112.71875 L 94.246094 175.25 L 101.257812 187.394531 L 145.285156 263.707031 " fill-opacity="1" fill-rule="nonzero"/></g><g clip-path="url(#ef564b448c)"><path fill="#eac62f" d="M 296.484375 199.785156 L 259.601562 263.707031 L 253.902344 273.570312 L 195.371094 375.015625 L 136.839844 273.570312 L 150.976562 273.570312 L 195.765625 351.1875 L 240.550781 273.570312 L 246.242188 263.707031 L 289.808594 188.214844 L 296.484375 199.785156 " fill-opacity="1" fill-rule="nonzero"/></g><g clip-path="url(#05e3cd50d1)"><path fill="#eac62f" d="M 353.222656 101.445312 L 303.5625 187.507812 L 296.890625 175.9375 L 333.367188 112.71875 L 144.347656 112.71875 L 150.851562 101.445312 L 353.222656 101.445312 " fill-opacity="1" fill-rule="nonzero"/></g><path fill="#f9e280" d="M 253.902344 101.445312 L 239.734375 101.445312 L 195.292969 24.421875 L 150.851562 101.445312 L 144.347656 112.71875 L 101.257812 187.394531 L 94.246094 175.25 L 130.332031 112.71875 L 136.839844 101.445312 L 195.371094 0 L 253.902344 101.445312 " fill-opacity="1" fill-rule="nonzero"/><g clip-path="url(#1d27a5f578)"><path fill="#f9e280" d="M 259.601562 263.707031 L 333.367188 263.707031 L 296.484375 199.785156 L 289.808594 188.214844 L 246.242188 112.71875 L 260.40625 112.71875 L 296.890625 175.9375 L 303.5625 187.507812 L 353.222656 273.570312 L 253.902344 273.570312 L 259.601562 263.707031 " fill-opacity="1" fill-rule="nonzero"/></g><path fill="#f9e280" d="M 208.675781 239.386719 L 182.0625 239.386719 L 182.0625 179.789062 L 208.675781 179.789062 L 208.675781 239.386719 " fill-opacity="1" fill-rule="nonzero"/><path fill="#f7ae6d" d="M 196.335938 125.898438 C 196.335938 125.898438 176.816406 141.1875 182.753906 159.015625 C 183.273438 160.578125 184.402344 164.21875 187.847656 166.5 C 193.730469 170.398438 201.332031 167.089844 202.273438 166.660156 C 205.125 164.503906 208.621094 161.066406 209.0625 156.472656 C 209.480469 152.199219 206.964844 149.230469 203.976562 143.734375 C 201.792969 139.726562 198.917969 133.785156 196.335938 125.898438 " fill-opacity="1" fill-rule="nonzero"/></svg>