<svg xmlns="http://www.w3.org/2000/svg" xmlns:xlink="http://www.w3.org/1999/xlink" width="500" zoomAndPan="magnify" viewBox="0 0 375 374.999991" height="500" preserveAspectRatio="xMidYMid meet" version="1.0"><defs><clipPath id="06ef3242d2"><path d="M 196.011719 171.464844 L 223.382812 171.464844 L 223.382812 198.832031 L 196.011719 198.832031 Z M 196.011719 171.464844 " clip-rule="nonzero"/></clipPath><clipPath id="d42cac89f6"><path d="M 209.695312 171.464844 C 202.140625 171.464844 196.011719 177.59375 196.011719 185.148438 C 196.011719 192.707031 202.140625 198.832031 209.695312 198.832031 C 217.253906 198.832031 223.382812 192.707031 223.382812 185.148438 C 223.382812 177.59375 217.253906 171.464844 209.695312 171.464844 Z M 209.695312 171.464844 " clip-rule="nonzero"/></clipPath><clipPath id="47931c419f"><path d="M 0.0117188 0.464844 L 27.382812 0.464844 L 27.382812 27.832031 L 0.0117188 27.832031 Z M 0.0117188 0.464844 " clip-rule="nonzero"/></clipPath><clipPath id="c4b14a05b9"><path d="M 13.695312 0.464844 C 6.140625 0.464844 0.0117188 6.59375 0.0117188 14.148438 C 0.0117188 21.707031 6.140625 27.832031 13.695312 27.832031 C 21.253906 27.832031 27.382812 21.707031 27.382812 14.148438 C 27.382812 6.59375 21.253906 0.464844 13.695312 0.464844 Z M 13.695312 0.464844 " clip-rule="nonzero"/></clipPath><clipPath id="53a265e310"><rect x="0" width="28" y="0" height="28"/></clipPath><clipPath id="1142449b29"><path d="M 134 4.457031 L 258 4.457031 L 258 129 L 134 129 Z M 134 4.457031 " clip-rule="nonzero"/></clipPath><clipPath id="59fd58f104"><path d="M 131 140 L 261 140 L 261 365.957031 L 131 365.957031 Z M 131 140 " clip-rule="nonzero"/></clipPath><clipPath id="7e5085aa41"><path d="M 12.566406 62 L 156 62 L 156 329 L 12.566406 329 Z M 12.566406 62 " clip-rule="nonzero"/></clipPath><clipPath id="c1a5b98501"><path d="M 236 4.457031 L 375 4.457031 L 375 292 L 236 292 Z M 236 4.457031 " clip-rule="nonzero"/></clipPath></defs><g clip-path="url(#06ef3242d2)"><g clip-path="url(#d42cac89f6)"><g transform="matrix(1, 0, 0, 1, 196, 171)"><g clip-path="url(#53a265e310)"><g clip-path="url(#47931c419f)"><g clip-path="url(#c4b14a05b9)"><path fill="#ffffff" d="M 0.0117188 0.464844 L 27.382812 0.464844 L 27.382812 27.832031 L 0.0117188 27.832031 Z M 0.0117188 0.464844 " fill-opacity="1" fill-rule="nonzero"/></g></g></g></g></g></g><g clip-path="url(#1142449b29)"><path fill="#000000" d="M 195.980469 128.046875 C 230.101562 128.046875 257.734375 100.394531 257.734375 66.25 C 257.734375 32.109375 230.101562 4.457031 195.980469 4.457031 C 161.863281 4.457031 134.230469 32.109375 134.230469 66.25 C 134.230469 100.394531 161.863281 128.046875 195.980469 128.046875 Z M 237.125 66.25 C 237.125 89.039062 218.675781 107.421875 195.980469 107.421875 C 188.109375 107.421875 180.773438 105.257812 174.523438 101.398438 L 231.105469 44.777344 C 234.964844 51.035156 237.125 58.371094 237.125 66.25 Z M 195.980469 25.082031 C 203.855469 25.082031 211.1875 27.242188 217.441406 31.105469 L 160.859375 87.726562 C 157.078125 81.46875 154.839844 74.128906 154.839844 66.25 C 154.839844 43.464844 173.210938 25.082031 195.980469 25.082031 Z M 195.980469 25.082031 " fill-opacity="1" fill-rule="nonzero"/></g><g clip-path="url(#59fd58f104)"><path fill="#000000" d="M 233.035156 322.699219 L 229.945312 322.699219 L 229.945312 313.429688 C 229.945312 304.933594 223 297.980469 214.507812 297.980469 L 211.421875 297.980469 L 211.421875 140.25 L 205.246094 140.25 L 205.246094 297.980469 L 186.71875 297.980469 L 186.71875 140.25 L 180.542969 140.25 L 180.542969 297.980469 L 177.457031 297.980469 C 168.964844 297.980469 162.015625 304.933594 162.015625 313.429688 L 162.015625 322.699219 L 158.929688 322.699219 C 143.570312 322.699219 131.140625 335.136719 131.140625 350.507812 L 131.140625 362.867188 C 131.140625 364.566406 132.53125 365.957031 134.230469 365.957031 L 257.734375 365.957031 C 259.433594 365.957031 260.824219 364.566406 260.824219 362.867188 L 260.824219 350.507812 C 260.824219 335.136719 248.394531 322.699219 233.035156 322.699219 Z M 168.191406 313.429688 C 168.191406 308.332031 172.359375 304.160156 177.457031 304.160156 L 214.507812 304.160156 C 219.601562 304.160156 223.769531 308.332031 223.769531 313.429688 L 223.769531 322.699219 L 168.191406 322.699219 Z M 168.191406 313.429688 " fill-opacity="1" fill-rule="nonzero"/></g><g clip-path="url(#7e5085aa41)"><path fill="#000000" d="M 155.84375 301.070312 C 155.84375 300.761719 155.765625 300.453125 155.6875 300.144531 L 92.3125 92.589844 L 123.035156 87.105469 L 121.957031 81.003906 L 51.09375 93.59375 C 37.042969 96.066406 23.535156 87.492188 19.597656 74.054688 L 33.417969 71.582031 C 43.144531 77.992188 54.722656 80.386719 66.144531 78.300781 L 122.648438 68.257812 L 121.570312 62.15625 L 65.066406 72.199219 C 54.796875 74.054688 44.378906 71.734375 35.886719 65.789062 C 35.191406 65.324219 34.421875 65.167969 33.570312 65.246094 L 15.277344 68.570312 C 14.503906 68.722656 13.734375 69.1875 13.269531 69.804688 C 12.804688 70.5 12.652344 71.273438 12.730469 72.121094 C 15.738281 88.652344 30.097656 100.238281 46.230469 100.238281 C 48.160156 100.238281 50.167969 100.082031 52.175781 99.699219 L 76.488281 95.371094 L 13.964844 300.144531 C 13.886719 300.453125 13.808594 300.761719 13.808594 301.070312 C 13.808594 316.441406 26.238281 328.878906 41.597656 328.878906 L 128.054688 328.878906 C 143.414062 328.878906 155.84375 316.441406 155.84375 301.070312 Z M 69.386719 257.351562 C 69.234375 256.347656 68.617188 255.496094 67.691406 255.035156 L 57.347656 249.859375 L 61.898438 222.359375 C 62.441406 218.960938 64.832031 216.179688 68.074219 215.097656 L 79.578125 211.238281 C 80.425781 210.929688 81.121094 210.308594 81.429688 209.460938 C 81.738281 208.609375 81.738281 207.683594 81.351562 206.910156 L 80.734375 205.597656 C 77.339844 198.800781 75.5625 191.152344 75.5625 183.585938 C 75.5625 178.484375 79.730469 174.316406 84.824219 174.316406 C 89.921875 174.316406 94.089844 178.484375 94.089844 183.585938 C 94.089844 191.152344 92.3125 198.800781 88.917969 205.597656 L 88.300781 206.910156 C 87.914062 207.683594 87.835938 208.609375 88.222656 209.460938 C 88.53125 210.308594 89.226562 210.929688 90.074219 211.238281 L 101.578125 215.097656 C 104.820312 216.179688 107.210938 218.960938 107.753906 222.359375 L 112.304688 249.859375 L 101.960938 255.035156 C 101.035156 255.496094 100.417969 256.347656 100.265625 257.351562 L 94.476562 297.980469 L 75.175781 297.980469 Z M 86.214844 93.671875 L 148.585938 297.980469 L 100.726562 297.980469 L 106.207031 259.824219 L 117.09375 254.339844 C 118.328125 253.722656 118.945312 252.410156 118.789062 251.09375 L 113.851562 221.355469 C 112.921875 215.71875 108.910156 211.082031 103.507812 209.230469 L 95.402344 206.527344 C 98.644531 199.34375 100.339844 191.464844 100.339844 183.660156 C 100.339844 175.164062 93.394531 168.210938 84.902344 168.210938 C 76.414062 168.210938 69.464844 175.164062 69.464844 183.660156 C 69.464844 191.539062 71.164062 199.417969 74.40625 206.527344 L 66.300781 209.230469 C 60.898438 211.003906 56.882812 215.71875 55.957031 221.355469 L 51.015625 251.09375 C 50.785156 252.410156 51.480469 253.722656 52.714844 254.339844 L 63.597656 259.824219 L 69.078125 297.980469 L 21.21875 297.980469 L 83.28125 94.214844 Z M 86.214844 93.671875 " fill-opacity="1" fill-rule="nonzero"/></g><g clip-path="url(#c1a5b98501)"><path fill="#000000" d="M 378 263.066406 L 313.929688 53.195312 L 350.132812 46.785156 C 359.085938 45.164062 366.882812 40.21875 372.054688 32.804688 C 377.226562 25.390625 379.234375 16.351562 377.691406 7.390625 C 377.382812 5.691406 375.761719 4.609375 374.140625 4.917969 L 355.769531 8.164062 C 354.996094 8.320312 354.222656 8.78125 353.761719 9.398438 C 347.816406 17.972656 338.863281 23.691406 328.519531 25.542969 L 263.214844 37.128906 L 264.296875 43.234375 L 329.601562 31.644531 C 341.101562 29.636719 351.136719 23.382812 358.007812 14.035156 L 371.824219 11.5625 C 372.75 25.464844 363.023438 38.210938 348.976562 40.761719 L 269.855469 54.820312 L 270.933594 60.921875 L 299.574219 55.824219 L 236.277344 263.144531 C 236.199219 263.453125 236.121094 263.761719 236.121094 264.070312 C 236.121094 279.445312 248.550781 291.878906 263.910156 291.878906 L 350.363281 291.878906 C 365.726562 291.878906 378.152344 279.445312 378.152344 264.070312 C 378.152344 263.6875 378.078125 263.375 378 263.066406 Z M 291.699219 220.273438 C 291.542969 219.269531 290.925781 218.421875 290 217.957031 L 279.65625 212.78125 L 284.210938 185.285156 C 284.75 181.886719 287.144531 179.105469 290.386719 178.023438 L 301.886719 174.160156 C 302.738281 173.851562 303.433594 173.234375 303.742188 172.382812 C 304.050781 171.535156 304.050781 170.605469 303.664062 169.835938 L 303.046875 168.523438 C 299.648438 161.722656 297.875 154.078125 297.875 146.507812 C 297.875 141.410156 302.042969 137.238281 307.136719 137.238281 C 312.230469 137.238281 316.398438 141.410156 316.398438 146.507812 C 316.398438 154.078125 314.625 161.722656 311.230469 168.523438 L 310.609375 169.835938 C 310.226562 170.605469 310.148438 171.535156 310.535156 172.382812 C 310.84375 173.234375 311.539062 173.851562 312.386719 174.160156 L 323.886719 178.023438 C 327.128906 179.105469 329.523438 181.886719 330.0625 185.285156 L 334.617188 212.78125 L 324.273438 217.957031 C 323.347656 218.421875 322.730469 219.269531 322.574219 220.273438 L 316.785156 260.90625 L 297.410156 260.90625 Z M 307.832031 54.355469 L 370.898438 260.90625 L 323.039062 260.90625 L 328.519531 222.746094 L 339.402344 217.261719 C 340.636719 216.644531 341.257812 215.332031 341.101562 214.019531 L 336.160156 184.28125 C 335.234375 178.640625 331.222656 174.007812 325.816406 172.152344 L 317.710938 169.449219 C 320.953125 162.265625 322.652344 154.386719 322.652344 146.585938 C 322.652344 138.085938 315.707031 131.136719 307.214844 131.136719 C 298.722656 131.136719 291.777344 138.085938 291.777344 146.585938 C 291.777344 154.464844 293.472656 162.34375 296.714844 169.449219 L 288.613281 172.152344 C 283.207031 173.929688 279.195312 178.640625 278.269531 184.28125 L 273.328125 214.019531 C 273.097656 215.332031 273.789062 216.644531 275.027344 217.261719 L 285.910156 222.746094 L 291.390625 260.90625 L 243.53125 260.90625 L 306.367188 54.585938 Z M 307.832031 54.355469 " fill-opacity="1" fill-rule="nonzero"/></g></svg>