<svg xmlns="http://www.w3.org/2000/svg" xmlns:xlink="http://www.w3.org/1999/xlink" width="2000" zoomAndPan="magnify" viewBox="0 0 1500 1499.999933" height="2000" preserveAspectRatio="xMidYMid meet" version="1.0"><defs><clipPath id="ff6828b1be"><path d="M 37 137 L 1500 137 L 1500 1382.625 L 37 1382.625 Z M 37 137 " clip-rule="nonzero"/></clipPath><clipPath id="6f4a3f375a"><path d="M 37 150 L 1500 150 L 1500 1395.75 L 37 1395.75 Z M 37 150 " clip-rule="nonzero"/></clipPath></defs><g clip-path="url(#ff6828b1be)"><path fill="#1d1d1b" d="M 48.886719 708.339844 L 49.390625 709.46875 L 571.773438 1262.367188 C 571.921875 1263.023438 572.011719 1263.40625 572.011719 1263.46875 L 572.636719 1263.320312 L 672.730469 1369.261719 L 673.414062 1370.003906 L 674.277344 1370.507812 C 674.605469 1370.71875 694.410156 1382.105469 722.359375 1382.105469 C 742.492188 1382.105469 766.875 1376.1875 791.261719 1355.910156 L 1516.148438 916.148438 L 1524 911.363281 L 1478.980469 867.476562 C 1476.71875 830.011719 1464.855469 807.828125 1460.660156 801.050781 L 1503.957031 774.765625 L 861.707031 140.875 L 857.960938 137.15625 L 103.960938 544.65625 C -0.0898438 594.578125 48.382812 707.210938 48.886719 708.339844 Z M 185.347656 643.847656 L 201.941406 661.390625 C 146.125 702.898438 138.484375 755.171875 139.136719 783.746094 L 127.925781 771.882812 C 125.757812 760.613281 116.390625 693.832031 185.347656 643.847656 Z M 620.988281 1104.273438 L 637.582031 1121.816406 C 580.636719 1161.839844 570.347656 1211.046875 569.929688 1239.679688 L 557.976562 1227.042969 C 555.746094 1216.011719 547.210938 1154.582031 620.988281 1104.273438 Z M 542.277344 1210.394531 L 155.105469 800.632812 C 153.648438 793.945312 140.476562 723.890625 211.84375 671.855469 L 611.085938 1093.808594 C 552.238281 1134.808594 542.335938 1183.007812 542.277344 1210.394531 Z M 667.914062 1293.199219 C 662.324219 1307.621094 660.597656 1322.578125 662.769531 1337.921875 L 584.949219 1255.558594 C 582.332031 1239.085938 578.523438 1179.558594 647.453125 1132.222656 L 734.554688 1224.277344 C 717.8125 1233.40625 682.1875 1256.359375 667.914062 1293.199219 Z M 683.464844 1359.238281 C 674.574219 1337.980469 673.800781 1317.523438 681.175781 1298.433594 C 693.011719 1267.808594 722.984375 1247.351562 738.925781 1238.253906 C 739.519531 1292.816406 766.164062 1334.054688 777.164062 1348.804688 C 733.660156 1381.242188 692.804688 1363.9375 683.464844 1359.238281 Z M 1474.757812 924.535156 L 1478.144531 903.75 L 1478.207031 903.304688 C 1478.742188 897.832031 1479.066406 892.601562 1479.246094 887.546875 L 1500.894531 908.65625 Z M 1464.019531 901.667969 L 1458.726562 934.226562 L 788.851562 1340.625 C 778.710938 1327.007812 751.265625 1284.816406 753.285156 1230.492188 L 1448.46875 808.363281 C 1452.425781 814.847656 1469.523438 846.304688 1464.019531 901.667969 Z M 1480.941406 772 L 747.546875 1217.292969 L 118.828125 552.804688 L 855.433594 154.699219 Z M 105.714844 559.703125 L 175.476562 633.410156 C 119.839844 674.535156 111.691406 726.359375 112.167969 755.199219 L 61.464844 701.5 C 56.765625 690.144531 23.847656 602.546875 105.714844 559.703125 Z M 105.714844 559.703125 " fill-opacity="1" fill-rule="nonzero"/></g><path fill="#1d1d1b" d="M 384.136719 580.039062 C 379.824219 583.191406 375.066406 586.34375 369.921875 589.40625 C 340.246094 607.039062 333.289062 645.453125 336.675781 675.542969 C 339.917969 704.328125 353.867188 736.824219 377.714844 744.527344 C 385.296875 746.964844 393.472656 747.828125 401.769531 747.203125 C 426.394531 780.921875 469.660156 809.761719 476.648438 814.28125 L 484.410156 802.328125 C 468.46875 791.980469 437.605469 768.699219 417.648438 744.230469 C 428.117188 741.105469 438.257812 735.726562 447.058594 728.320312 C 461.542969 716.101562 469.066406 700.878906 467.160156 687.617188 C 464.84375 671.558594 448.546875 658.953125 429.246094 658.296875 C 412.179688 657.703125 391.71875 667.308594 385.59375 695.972656 C 383.007812 708.042969 386.277344 720.679688 392.851562 733.050781 C 389.28125 732.78125 385.683594 732.097656 382.113281 730.9375 C 367.15625 726.121094 354.015625 702.125 350.832031 673.9375 C 347.949219 648.277344 353.359375 615.808594 377.207031 601.65625 C 386.695312 596.007812 394.929688 590.179688 401.859375 584.171875 C 409.652344 585.003906 418.75 584.886719 429.367188 583.519531 C 455.296875 580.160156 474.148438 569.664062 485.421875 552.328125 C 498.445312 532.316406 499.160156 506.539062 495.472656 483.078125 C 529.816406 465.566406 559.136719 418.40625 560.863281 415.613281 L 548.730469 408.148438 C 539.003906 423.996094 516.019531 454.832031 492.617188 468.449219 C 491.574219 464.019531 490.414062 459.765625 489.226562 455.753906 C 485.925781 444.601562 476.675781 436.398438 465.082031 434.375 C 453.898438 432.414062 442.867188 436.78125 436.265625 445.761719 C 431.390625 452.363281 431.300781 458.429688 432.101562 462.355469 C 433.648438 470.113281 439.773438 477.132812 450.808594 483.761719 C 460.945312 489.859375 471.445312 490.75 481.792969 488.25 C 484.347656 507.164062 483.8125 528.628906 473.496094 544.539062 C 464.605469 558.214844 449.140625 566.570312 427.523438 569.367188 C 423.242188 569.929688 419.167969 570.257812 415.300781 570.375 C 423.300781 560.386719 427.789062 550.128906 428.5625 539.871094 C 429.367188 528.988281 426.183594 512.632812 406.441406 496.488281 C 396.6875 488.519531 384.761719 488.28125 374.503906 495.804688 C 359.605469 506.746094 349.644531 533.386719 358.5625 555.597656 C 361.714844 563.417969 368.675781 574.035156 384.136719 580.039062 Z M 399.539062 698.945312 C 404.566406 675.457031 420.296875 672.511719 427.820312 672.511719 C 428.148438 672.511719 428.472656 672.511719 428.773438 672.542969 C 441.082031 672.957031 451.757812 680.480469 453.066406 689.636719 C 454.257812 697.875 448.425781 708.519531 437.871094 717.410156 C 430.675781 723.476562 420.265625 729.332031 408.667969 731.890625 C 401.355469 720.324219 397.398438 708.933594 399.539062 698.945312 Z M 458.179688 471.601562 C 448.605469 465.832031 446.496094 461.609375 446.109375 459.589844 C 445.898438 458.546875 445.839844 456.851562 447.773438 454.238281 C 450.65625 450.339844 455 448.171875 459.785156 448.171875 C 460.738281 448.171875 461.691406 448.261719 462.640625 448.4375 C 467.519531 449.300781 473.464844 452.71875 475.578125 459.828125 C 476.796875 463.988281 478.105469 468.835938 479.265625 474.160156 C 471.890625 476.03125 464.722656 475.527344 458.179688 471.601562 Z M 382.949219 507.28125 C 385.414062 505.46875 387.792969 504.574219 390.144531 504.574219 C 392.582031 504.574219 394.992188 505.558594 397.398438 507.519531 C 409.441406 517.359375 415.152344 527.886719 414.320312 538.800781 C 413.605469 548.523438 407.71875 558.808594 397.25 569.007812 C 384.433594 566.363281 375.664062 560.027344 371.738281 550.277344 C 365.609375 534.902344 372.597656 514.894531 382.949219 507.28125 Z M 382.949219 507.28125 " fill-opacity="1" fill-rule="nonzero"/><path fill="#1d1d1b" d="M 1093.207031 884.691406 C 1061.597656 885.105469 1025.761719 885.554688 1025.761719 918.734375 C 1025.761719 933.304688 1030.015625 943.355469 1038.429688 948.617188 C 1042.921875 951.441406 1047.859375 952.394531 1052.496094 952.394531 C 1061.566406 952.394531 1069.507812 948.738281 1070.785156 948.113281 L 1064.570312 935.296875 C 1061.566406 936.753906 1051.664062 940.113281 1045.984375 936.546875 C 1041.046875 933.453125 1040.007812 925.160156 1040.007812 918.734375 C 1040.007812 901.519531 1057.105469 899.410156 1093.382812 898.933594 C 1108.253906 898.753906 1123.65625 898.546875 1137.039062 895.574219 C 1156.84375 891.171875 1167.339844 880.5 1172.871094 870.773438 C 1201.210938 863.042969 1230.5 842.203125 1240.699219 820.882812 C 1245.339844 811.1875 1248.3125 800.8125 1251.195312 790.761719 C 1251.492188 789.78125 1251.761719 788.800781 1252.027344 787.820312 C 1257.292969 792.425781 1264.90625 794.925781 1275.164062 795.460938 C 1289.707031 796.203125 1300.023438 793.496094 1306.714844 787.222656 C 1311.679688 782.554688 1314.238281 776.253906 1314.328125 768.492188 C 1314.476562 753.59375 1305.226562 741.078125 1290.746094 736.558594 C 1280.664062 733.40625 1270.4375 734.832031 1262.230469 740.035156 C 1267.402344 717.171875 1273.558594 688.925781 1257.886719 665.019531 C 1237.785156 634.394531 1216.910156 631.0625 1205.492188 632.164062 C 1205.34375 631.984375 1205.164062 631.777344 1205.015625 631.597656 C 1192.109375 616.582031 1177.449219 599.546875 1177.152344 581.824219 L 1162.910156 582.0625 C 1163.265625 602.996094 1177.65625 621.457031 1190.652344 636.742188 C 1181.761719 641.558594 1174.683594 649.644531 1171.472656 659.28125 C 1167.695312 670.609375 1172.097656 680.957031 1182.683594 685.683594 C 1195.203125 691.273438 1214.738281 687.617188 1222.796875 673.492188 C 1227.4375 665.316406 1224.375 656.871094 1218.039062 647.742188 C 1227.675781 651.015625 1237.308594 659.578125 1245.992188 672.839844 C 1258.511719 691.925781 1253.039062 716.21875 1248.191406 737.628906 C 1245.726562 748.539062 1243.464844 758.589844 1243.613281 767.363281 C 1241.265625 773.695312 1239.359375 780.324219 1237.488281 786.835938 C 1234.78125 796.324219 1231.957031 806.105469 1227.824219 814.726562 C 1220.597656 829.832031 1199.988281 845.472656 1178.847656 853.738281 C 1180.871094 841.398438 1178.222656 829.800781 1174 822.933594 C 1169.242188 815.234375 1159.578125 811.101562 1147.445312 811.753906 C 1134.957031 812.378906 1119.730469 818.445312 1113.8125 830.605469 C 1111.40625 835.601562 1108.726562 845.886719 1117.886719 858.792969 C 1124.964844 868.722656 1136.382812 873.898438 1151.132812 873.898438 C 1151.222656 873.898438 1151.3125 873.898438 1151.429688 873.898438 C 1147.117188 877.136719 1141.4375 879.933594 1133.945312 881.597656 C 1122.019531 884.304688 1107.390625 884.511719 1093.207031 884.691406 Z M 1264.101562 757.816406 C 1270.109375 748.898438 1279.953125 748.125 1286.554688 750.175781 C 1293.183594 752.226562 1300.203125 758.085938 1300.113281 768.34375 C 1300.082031 772.117188 1299.042969 774.914062 1296.992188 776.847656 C 1293.394531 780.238281 1286.105469 781.753906 1275.9375 781.246094 C 1267.9375 780.832031 1262.675781 779.015625 1260.238281 775.804688 C 1259.015625 774.199219 1258.363281 772.089844 1258.066406 769.5625 C 1259.789062 765.308594 1261.753906 761.355469 1264.101562 757.816406 Z M 1210.425781 666.503906 C 1206.324219 673.699219 1195.292969 675.753906 1188.511719 672.75 C 1184.585938 670.996094 1183.546875 668.347656 1185.03125 663.890625 C 1187.085938 657.734375 1192.40625 651.074219 1200.226562 648.039062 C 1206.472656 655.59375 1212.152344 663.441406 1210.425781 666.503906 Z M 1129.515625 850.585938 C 1125.765625 845.292969 1124.785156 840.683594 1126.628906 836.878906 C 1129.453125 831.082031 1138.496094 826.53125 1148.128906 826.027344 C 1148.664062 825.996094 1149.171875 825.996094 1149.675781 825.996094 C 1155.472656 825.996094 1160.144531 827.691406 1161.839844 830.457031 C 1165.40625 836.253906 1166.863281 847.820312 1162.910156 858.496094 C 1160.5 858.972656 1158.121094 859.296875 1155.800781 859.507812 C 1147.207031 860.21875 1135.699219 859.269531 1129.515625 850.585938 Z M 1129.515625 850.585938 " fill-opacity="1" fill-rule="nonzero"/><path fill="#1d1d1b" d="M 551.347656 789.394531 L 638.742188 896.347656 L 649.773438 887.335938 L 618.34375 848.863281 C 628.511719 841.816406 646.207031 827.007812 649.269531 807.859375 C 651.230469 795.550781 647.039062 783.746094 636.777344 772.773438 C 626.074219 761.296875 614.03125 755.855469 600.976562 756.570312 C 575.074219 757.996094 555.507812 783.863281 554.675781 784.964844 Z M 601.808594 770.78125 C 610.523438 770.246094 618.582031 774.140625 626.371094 782.496094 C 633.539062 790.195312 636.453125 797.75 635.203125 805.597656 C 632.914062 820.109375 617.449219 832.300781 609.300781 837.800781 L 569.664062 789.304688 C 575.523438 782.941406 587.921875 771.523438 601.808594 770.78125 Z M 601.808594 770.78125 " fill-opacity="1" fill-rule="nonzero"/><path fill="#1d1d1b" d="M 653.550781 740.183594 L 653.789062 740.929688 C 654.976562 744.527344 681.890625 824.421875 725.75 824.421875 C 728.488281 824.421875 731.3125 824.125 734.167969 823.4375 C 748.410156 820.167969 758.519531 812.617188 764.289062 801.019531 C 774.90625 779.613281 766.964844 749.9375 760.574219 735.785156 C 750.550781 713.484375 723.996094 677.417969 688.28125 683.691406 C 656.941406 689.164062 651.796875 722.554688 653.433594 739.410156 Z M 690.75 697.726562 C 717.929688 692.9375 739.816406 724.367188 747.605469 741.640625 C 753.40625 754.488281 759.203125 779.226562 751.53125 794.714844 C 747.726562 802.417969 740.976562 807.292969 730.984375 809.582031 C 701.277344 816.421875 675.464844 760.492188 667.617188 737.300781 C 667.257812 732.007812 666.425781 701.976562 690.75 697.726562 Z M 690.75 697.726562 " fill-opacity="1" fill-rule="nonzero"/><path fill="#1d1d1b" d="M 803.097656 745.539062 L 803.839844 746.160156 C 804.492188 746.636719 817.070312 755.558594 831.078125 755.558594 C 834.824219 755.558594 838.691406 754.902344 842.46875 753.296875 C 854.152344 748.242188 861.410156 735.515625 864.054688 715.445312 L 849.929688 713.601562 C 848.59375 723.710938 845.261719 736.558594 836.847656 740.183594 C 828.519531 743.8125 816.835938 737.777344 812.550781 734.832031 C 808.390625 730.847656 804.554688 726.804688 801.015625 722.703125 C 810.917969 714.585938 832.265625 695.167969 835.269531 676.824219 C 837.351562 663.976562 833.339844 650.390625 824.507812 640.488281 C 814.632812 629.425781 799.644531 623.808594 782.28125 624.640625 C 770.414062 625.207031 761.644531 631.449219 757.628906 642.183594 C 748.082031 667.8125 767.203125 711.253906 803.097656 745.539062 Z M 770.980469 647.238281 C 772.972656 641.855469 776.777344 639.238281 782.964844 638.941406 C 783.914062 638.914062 784.835938 638.882812 785.757812 638.882812 C 800.65625 638.882812 809.25 644.859375 813.890625 650.0625 C 819.898438 656.78125 822.632812 665.941406 821.207031 674.59375 C 819.183594 686.960938 802.203125 703.257812 792.09375 711.640625 C 773.03125 685.742188 766.015625 660.527344 770.980469 647.238281 Z M 770.980469 647.238281 " fill-opacity="1" fill-rule="nonzero"/><path fill="#1d1d1b" d="M 915.171875 694.929688 L 869.644531 614.5625 C 869.171875 608.761719 868.21875 584.648438 885.226562 580.128906 C 896.972656 577.007812 928.199219 623.449219 948.863281 667.070312 L 961.742188 660.976562 C 953.980469 644.589844 933.253906 603.320312 911.605469 580.902344 C 911.128906 575.667969 909.761719 550.839844 927.15625 546.203125 C 938.933594 543.140625 970.125 589.523438 990.792969 633.144531 L 1003.667969 627.046875 C 992.21875 602.90625 952.671875 524.644531 923.46875 532.4375 C 903.664062 537.699219 898.429688 556.074219 897.332031 569.367188 C 891.859375 566.304688 886.535156 565.023438 881.480469 566.363281 C 866.644531 570.316406 859.980469 581.617188 857.128906 592.617188 L 855.433594 589.644531 L 843.03125 596.660156 L 902.683594 701.949219 Z M 915.171875 694.929688 " fill-opacity="1" fill-rule="nonzero"/><path fill="#1d1d1b" d="M 1052.4375 531.664062 C 1064.835938 525.300781 1069.980469 531.246094 1071.648438 533.179688 C 1079.644531 542.425781 1081.042969 565.234375 1070.753906 579.625 C 1062.753906 590.832031 1049.820312 593.269531 1033.347656 586.671875 L 1028.054688 599.902344 C 1035.785156 602.992188 1043.1875 604.511719 1050.058594 604.511719 C 1063.292969 604.511719 1074.53125 598.859375 1082.351562 587.890625 C 1095.703125 569.1875 1095.734375 539.273438 1082.410156 523.84375 C 1073.429688 513.4375 1060.109375 511.652344 1045.894531 518.9375 C 1018.773438 532.824219 998.882812 530.800781 991.148438 522.625 C 986.71875 517.925781 986.539062 511.175781 990.703125 504.160156 C 1003.015625 483.316406 1028.738281 487.835938 1029.808594 488.042969 L 1032.484375 474.039062 C 1030.996094 473.742188 995.878906 467.320312 978.421875 496.933594 C 971.046875 509.453125 971.941406 523.039062 980.773438 532.40625 C 991.863281 544.179688 1016.457031 550.097656 1052.4375 531.664062 Z M 1052.4375 531.664062 " fill-opacity="1" fill-rule="nonzero"/><g clip-path="url(#6f4a3f375a)"><path fill="#1d1d1b" d="M 48.886719 721.464844 L 49.390625 722.59375 L 571.773438 1275.492188 C 571.921875 1276.148438 572.011719 1276.53125 572.011719 1276.59375 L 572.636719 1276.445312 L 672.730469 1382.386719 L 673.414062 1383.128906 L 674.277344 1383.632812 C 674.605469 1383.84375 694.410156 1395.230469 722.359375 1395.230469 C 742.492188 1395.230469 766.875 1389.3125 791.261719 1369.035156 L 1516.148438 929.273438 L 1524 924.488281 L 1478.980469 880.601562 C 1476.71875 843.136719 1464.855469 820.953125 1460.660156 814.175781 L 1503.957031 787.890625 L 861.707031 154 L 857.960938 150.28125 L 103.960938 557.78125 C -0.0898438 607.703125 48.382812 720.335938 48.886719 721.464844 Z M 185.347656 656.972656 L 201.941406 674.515625 C 146.125 716.023438 138.484375 768.296875 139.136719 796.871094 L 127.925781 785.007812 C 125.757812 773.738281 116.390625 706.957031 185.347656 656.972656 Z M 620.988281 1117.398438 L 637.582031 1134.941406 C 580.636719 1174.964844 570.347656 1224.171875 569.929688 1252.804688 L 557.976562 1240.167969 C 555.746094 1229.136719 547.210938 1167.707031 620.988281 1117.398438 Z M 542.277344 1223.519531 L 155.105469 813.757812 C 153.648438 807.070312 140.476562 737.015625 211.84375 684.980469 L 611.085938 1106.933594 C 552.238281 1147.933594 542.335938 1196.132812 542.277344 1223.519531 Z M 667.914062 1306.324219 C 662.324219 1320.746094 660.597656 1335.703125 662.769531 1351.046875 L 584.949219 1268.683594 C 582.332031 1252.210938 578.523438 1192.683594 647.453125 1145.347656 L 734.554688 1237.402344 C 717.8125 1246.53125 682.1875 1269.484375 667.914062 1306.324219 Z M 683.464844 1372.363281 C 674.574219 1351.105469 673.800781 1330.648438 681.175781 1311.558594 C 693.011719 1280.933594 722.984375 1260.476562 738.925781 1251.378906 C 739.519531 1305.941406 766.164062 1347.179688 777.164062 1361.929688 C 733.660156 1394.367188 692.804688 1377.0625 683.464844 1372.363281 Z M 1474.757812 937.660156 L 1478.144531 916.875 L 1478.207031 916.429688 C 1478.742188 910.957031 1479.066406 905.726562 1479.246094 900.671875 L 1500.894531 921.78125 Z M 1464.019531 914.792969 L 1458.726562 947.351562 L 788.851562 1353.75 C 778.710938 1340.132812 751.265625 1297.941406 753.285156 1243.617188 L 1448.46875 821.488281 C 1452.425781 827.972656 1469.523438 859.429688 1464.019531 914.792969 Z M 1480.941406 785.125 L 747.546875 1230.417969 L 118.828125 565.929688 L 855.433594 167.824219 Z M 105.714844 572.828125 L 175.476562 646.535156 C 119.839844 687.660156 111.691406 739.484375 112.167969 768.324219 L 61.464844 714.625 C 56.765625 703.269531 23.847656 615.671875 105.714844 572.828125 Z M 105.714844 572.828125 " fill-opacity="1" fill-rule="nonzero"/></g><path fill="#1d1d1b" d="M 384.136719 593.164062 C 379.824219 596.316406 375.066406 599.46875 369.921875 602.53125 C 340.246094 620.164062 333.289062 658.578125 336.675781 688.667969 C 339.917969 717.453125 353.867188 749.949219 377.714844 757.652344 C 385.296875 760.089844 393.472656 760.953125 401.769531 760.328125 C 426.394531 794.046875 469.660156 822.886719 476.648438 827.40625 L 484.410156 815.453125 C 468.46875 805.105469 437.605469 781.824219 417.648438 757.355469 C 428.117188 754.230469 438.257812 748.851562 447.058594 741.445312 C 461.542969 729.226562 469.066406 714.003906 467.160156 700.742188 C 464.84375 684.683594 448.546875 672.078125 429.246094 671.421875 C 412.179688 670.828125 391.71875 680.433594 385.59375 709.097656 C 383.007812 721.167969 386.277344 733.804688 392.851562 746.175781 C 389.28125 745.90625 385.683594 745.222656 382.113281 744.0625 C 367.15625 739.246094 354.015625 715.25 350.832031 687.0625 C 347.949219 661.402344 353.359375 628.933594 377.207031 614.78125 C 386.695312 609.132812 394.929688 603.304688 401.859375 597.296875 C 409.652344 598.128906 418.75 598.011719 429.367188 596.644531 C 455.296875 593.285156 474.148438 582.789062 485.421875 565.453125 C 498.445312 545.441406 499.160156 519.664062 495.472656 496.203125 C 529.816406 478.691406 559.136719 431.53125 560.863281 428.738281 L 548.730469 421.273438 C 539.003906 437.121094 516.019531 467.957031 492.617188 481.574219 C 491.574219 477.144531 490.414062 472.890625 489.226562 468.878906 C 485.925781 457.726562 476.675781 449.523438 465.082031 447.5 C 453.898438 445.539062 442.867188 449.90625 436.265625 458.886719 C 431.390625 465.488281 431.300781 471.554688 432.101562 475.480469 C 433.648438 483.238281 439.773438 490.257812 450.808594 496.886719 C 460.945312 502.984375 471.445312 503.875 481.792969 501.375 C 484.347656 520.289062 483.8125 541.753906 473.496094 557.664062 C 464.605469 571.339844 449.140625 579.695312 427.523438 582.492188 C 423.242188 583.054688 419.167969 583.382812 415.300781 583.5 C 423.300781 573.511719 427.789062 563.253906 428.5625 552.996094 C 429.367188 542.113281 426.183594 525.757812 406.441406 509.613281 C 396.6875 501.644531 384.761719 501.40625 374.503906 508.929688 C 359.605469 519.871094 349.644531 546.511719 358.5625 568.722656 C 361.714844 576.542969 368.675781 587.160156 384.136719 593.164062 Z M 399.539062 712.070312 C 404.566406 688.582031 420.296875 685.636719 427.820312 685.636719 C 428.148438 685.636719 428.472656 685.636719 428.773438 685.667969 C 441.082031 686.082031 451.757812 693.605469 453.066406 702.761719 C 454.257812 711 448.425781 721.644531 437.871094 730.535156 C 430.675781 736.601562 420.265625 742.457031 408.667969 745.015625 C 401.355469 733.449219 397.398438 722.058594 399.539062 712.070312 Z M 458.179688 484.726562 C 448.605469 478.957031 446.496094 474.734375 446.109375 472.714844 C 445.898438 471.671875 445.839844 469.976562 447.773438 467.363281 C 450.65625 463.464844 455 461.296875 459.785156 461.296875 C 460.738281 461.296875 461.691406 461.386719 462.640625 461.5625 C 467.519531 462.425781 473.464844 465.84375 475.578125 472.953125 C 476.796875 477.113281 478.105469 481.960938 479.265625 487.285156 C 471.890625 489.15625 464.722656 488.652344 458.179688 484.726562 Z M 382.949219 520.40625 C 385.414062 518.59375 387.792969 517.699219 390.144531 517.699219 C 392.582031 517.699219 394.992188 518.683594 397.398438 520.644531 C 409.441406 530.484375 415.152344 541.011719 414.320312 551.925781 C 413.605469 561.648438 407.71875 571.933594 397.25 582.132812 C 384.433594 579.488281 375.664062 573.152344 371.738281 563.402344 C 365.609375 548.027344 372.597656 528.019531 382.949219 520.40625 Z M 382.949219 520.40625 " fill-opacity="1" fill-rule="nonzero"/><path fill="#1d1d1b" d="M 1093.207031 897.816406 C 1061.597656 898.230469 1025.761719 898.679688 1025.761719 931.859375 C 1025.761719 946.429688 1030.015625 956.480469 1038.429688 961.742188 C 1042.921875 964.566406 1047.859375 965.519531 1052.496094 965.519531 C 1061.566406 965.519531 1069.507812 961.863281 1070.785156 961.238281 L 1064.570312 948.421875 C 1061.566406 949.878906 1051.664062 953.238281 1045.984375 949.671875 C 1041.046875 946.578125 1040.007812 938.285156 1040.007812 931.859375 C 1040.007812 914.644531 1057.105469 912.535156 1093.382812 912.058594 C 1108.253906 911.878906 1123.65625 911.671875 1137.039062 908.699219 C 1156.84375 904.296875 1167.339844 893.625 1172.871094 883.898438 C 1201.210938 876.167969 1230.5 855.328125 1240.699219 834.007812 C 1245.339844 824.3125 1248.3125 813.9375 1251.195312 803.886719 C 1251.492188 802.90625 1251.761719 801.925781 1252.027344 800.945312 C 1257.292969 805.550781 1264.90625 808.050781 1275.164062 808.585938 C 1289.707031 809.328125 1300.023438 806.621094 1306.714844 800.347656 C 1311.679688 795.679688 1314.238281 789.378906 1314.328125 781.617188 C 1314.476562 766.71875 1305.226562 754.203125 1290.746094 749.683594 C 1280.664062 746.53125 1270.4375 747.957031 1262.230469 753.160156 C 1267.402344 730.296875 1273.558594 702.050781 1257.886719 678.144531 C 1237.785156 647.519531 1216.910156 644.1875 1205.492188 645.289062 C 1205.34375 645.109375 1205.164062 644.902344 1205.015625 644.722656 C 1192.109375 629.707031 1177.449219 612.671875 1177.152344 594.949219 L 1162.910156 595.1875 C 1163.265625 616.121094 1177.65625 634.582031 1190.652344 649.867188 C 1181.761719 654.683594 1174.683594 662.769531 1171.472656 672.40625 C 1167.695312 683.734375 1172.097656 694.082031 1182.683594 698.808594 C 1195.203125 704.398438 1214.738281 700.742188 1222.796875 686.617188 C 1227.4375 678.441406 1224.375 669.996094 1218.039062 660.867188 C 1227.675781 664.140625 1237.308594 672.703125 1245.992188 685.964844 C 1258.511719 705.050781 1253.039062 729.34375 1248.191406 750.753906 C 1245.726562 761.664062 1243.464844 771.714844 1243.613281 780.488281 C 1241.265625 786.820312 1239.359375 793.449219 1237.488281 799.960938 C 1234.78125 809.449219 1231.957031 819.230469 1227.824219 827.851562 C 1220.597656 842.957031 1199.988281 858.597656 1178.847656 866.863281 C 1180.871094 854.523438 1178.222656 842.925781 1174 836.058594 C 1169.242188 828.359375 1159.578125 824.226562 1147.445312 824.878906 C 1134.957031 825.503906 1119.730469 831.570312 1113.8125 843.730469 C 1111.40625 848.726562 1108.726562 859.011719 1117.886719 871.917969 C 1124.964844 881.847656 1136.382812 887.023438 1151.132812 887.023438 C 1151.222656 887.023438 1151.3125 887.023438 1151.429688 887.023438 C 1147.117188 890.261719 1141.4375 893.058594 1133.945312 894.722656 C 1122.019531 897.429688 1107.390625 897.636719 1093.207031 897.816406 Z M 1264.101562 770.941406 C 1270.109375 762.023438 1279.953125 761.25 1286.554688 763.300781 C 1293.183594 765.351562 1300.203125 771.210938 1300.113281 781.46875 C 1300.082031 785.242188 1299.042969 788.039062 1296.992188 789.972656 C 1293.394531 793.363281 1286.105469 794.878906 1275.9375 794.371094 C 1267.9375 793.957031 1262.675781 792.140625 1260.238281 788.929688 C 1259.015625 787.324219 1258.363281 785.214844 1258.066406 782.6875 C 1259.789062 778.433594 1261.753906 774.480469 1264.101562 770.941406 Z M 1210.425781 679.628906 C 1206.324219 686.824219 1195.292969 688.878906 1188.511719 685.875 C 1184.585938 684.121094 1183.546875 681.472656 1185.03125 677.015625 C 1187.085938 670.859375 1192.40625 664.199219 1200.226562 661.164062 C 1206.472656 668.71875 1212.152344 676.566406 1210.425781 679.628906 Z M 1129.515625 863.710938 C 1125.765625 858.417969 1124.785156 853.808594 1126.628906 850.003906 C 1129.453125 844.207031 1138.496094 839.65625 1148.128906 839.152344 C 1148.664062 839.121094 1149.171875 839.121094 1149.675781 839.121094 C 1155.472656 839.121094 1160.144531 840.816406 1161.839844 843.582031 C 1165.40625 849.378906 1166.863281 860.945312 1162.910156 871.621094 C 1160.5 872.097656 1158.121094 872.421875 1155.800781 872.632812 C 1147.207031 873.34375 1135.699219 872.394531 1129.515625 863.710938 Z M 1129.515625 863.710938 " fill-opacity="1" fill-rule="nonzero"/><path fill="#1d1d1b" d="M 551.347656 802.519531 L 638.742188 909.472656 L 649.773438 900.460938 L 618.34375 861.988281 C 628.511719 854.941406 646.207031 840.132812 649.269531 820.984375 C 651.230469 808.675781 647.039062 796.871094 636.777344 785.898438 C 626.074219 774.421875 614.03125 768.980469 600.976562 769.695312 C 575.074219 771.121094 555.507812 796.988281 554.675781 798.089844 Z M 601.808594 783.90625 C 610.523438 783.371094 618.582031 787.265625 626.371094 795.621094 C 633.539062 803.320312 636.453125 810.875 635.203125 818.722656 C 632.914062 833.234375 617.449219 845.425781 609.300781 850.925781 L 569.664062 802.429688 C 575.523438 796.066406 587.921875 784.648438 601.808594 783.90625 Z M 601.808594 783.90625 " fill-opacity="1" fill-rule="nonzero"/><path fill="#1d1d1b" d="M 653.550781 753.308594 L 653.789062 754.054688 C 654.976562 757.652344 681.890625 837.546875 725.75 837.546875 C 728.488281 837.546875 731.3125 837.25 734.167969 836.5625 C 748.410156 833.292969 758.519531 825.742188 764.289062 814.144531 C 774.90625 792.738281 766.964844 763.0625 760.574219 748.910156 C 750.550781 726.609375 723.996094 690.542969 688.28125 696.816406 C 656.941406 702.289062 651.796875 735.679688 653.433594 752.535156 Z M 690.75 710.851562 C 717.929688 706.0625 739.816406 737.492188 747.605469 754.765625 C 753.40625 767.613281 759.203125 792.351562 751.53125 807.839844 C 747.726562 815.542969 740.976562 820.417969 730.984375 822.707031 C 701.277344 829.546875 675.464844 773.617188 667.617188 750.425781 C 667.257812 745.132812 666.425781 715.101562 690.75 710.851562 Z M 690.75 710.851562 " fill-opacity="1" fill-rule="nonzero"/><path fill="#1d1d1b" d="M 803.097656 758.664062 L 803.839844 759.285156 C 804.492188 759.761719 817.070312 768.683594 831.078125 768.683594 C 834.824219 768.683594 838.691406 768.027344 842.46875 766.421875 C 854.152344 761.367188 861.410156 748.640625 864.054688 728.570312 L 849.929688 726.726562 C 848.59375 736.835938 845.261719 749.683594 836.847656 753.308594 C 828.519531 756.9375 816.835938 750.902344 812.550781 747.957031 C 808.390625 743.972656 804.554688 739.929688 801.015625 735.828125 C 810.917969 727.710938 832.265625 708.292969 835.269531 689.949219 C 837.351562 677.101562 833.339844 663.515625 824.507812 653.613281 C 814.632812 642.550781 799.644531 636.933594 782.28125 637.765625 C 770.414062 638.332031 761.644531 644.574219 757.628906 655.308594 C 748.082031 680.9375 767.203125 724.378906 803.097656 758.664062 Z M 770.980469 660.363281 C 772.972656 654.980469 776.777344 652.363281 782.964844 652.066406 C 783.914062 652.039062 784.835938 652.007812 785.757812 652.007812 C 800.65625 652.007812 809.25 657.984375 813.890625 663.1875 C 819.898438 669.90625 822.632812 679.066406 821.207031 687.71875 C 819.183594 700.085938 802.203125 716.382812 792.09375 724.765625 C 773.03125 698.867188 766.015625 673.652344 770.980469 660.363281 Z M 770.980469 660.363281 " fill-opacity="1" fill-rule="nonzero"/><path fill="#1d1d1b" d="M 915.171875 708.054688 L 869.644531 627.6875 C 869.171875 621.886719 868.21875 597.773438 885.226562 593.253906 C 896.972656 590.132812 928.199219 636.574219 948.863281 680.195312 L 961.742188 674.101562 C 953.980469 657.714844 933.253906 616.445312 911.605469 594.027344 C 911.128906 588.792969 909.761719 563.964844 927.15625 559.328125 C 938.933594 556.265625 970.125 602.648438 990.792969 646.269531 L 1003.667969 640.171875 C 992.21875 616.03125 952.671875 537.769531 923.46875 545.5625 C 903.664062 550.824219 898.429688 569.199219 897.332031 582.492188 C 891.859375 579.429688 886.535156 578.148438 881.480469 579.488281 C 866.644531 583.441406 859.980469 594.742188 857.128906 605.742188 L 855.433594 602.769531 L 843.03125 609.785156 L 902.683594 715.074219 Z M 915.171875 708.054688 " fill-opacity="1" fill-rule="nonzero"/><path fill="#1d1d1b" d="M 1052.4375 544.789062 C 1064.835938 538.425781 1069.980469 544.371094 1071.648438 546.304688 C 1079.644531 555.550781 1081.042969 578.359375 1070.753906 592.75 C 1062.753906 603.957031 1049.820312 606.394531 1033.347656 599.796875 L 1028.054688 613.027344 C 1035.785156 616.117188 1043.1875 617.636719 1050.058594 617.636719 C 1063.292969 617.636719 1074.53125 611.984375 1082.351562 601.015625 C 1095.703125 582.3125 1095.734375 552.398438 1082.410156 536.96875 C 1073.429688 526.5625 1060.109375 524.777344 1045.894531 532.0625 C 1018.773438 545.949219 998.882812 543.925781 991.148438 535.75 C 986.71875 531.050781 986.539062 524.300781 990.703125 517.285156 C 1003.015625 496.441406 1028.738281 500.960938 1029.808594 501.167969 L 1032.484375 487.164062 C 1030.996094 486.867188 995.878906 480.445312 978.421875 510.058594 C 971.046875 522.578125 971.941406 536.164062 980.773438 545.53125 C 991.863281 557.304688 1016.457031 563.222656 1052.4375 544.789062 Z M 1052.4375 544.789062 " fill-opacity="1" fill-rule="nonzero"/></svg>