<svg xmlns="http://www.w3.org/2000/svg" xmlns:xlink="http://www.w3.org/1999/xlink" width="500" zoomAndPan="magnify" viewBox="0 0 375 374.999991" height="500" preserveAspectRatio="xMidYMid meet" version="1.0"><defs><clipPath id="2f79592294"><path d="M 196.011719 171.464844 L 223.382812 171.464844 L 223.382812 198.832031 L 196.011719 198.832031 Z M 196.011719 171.464844 " clip-rule="nonzero"/></clipPath><clipPath id="26b743d01a"><path d="M 209.695312 171.464844 C 202.140625 171.464844 196.011719 177.59375 196.011719 185.148438 C 196.011719 192.707031 202.140625 198.832031 209.695312 198.832031 C 217.253906 198.832031 223.382812 192.707031 223.382812 185.148438 C 223.382812 177.59375 217.253906 171.464844 209.695312 171.464844 Z M 209.695312 171.464844 " clip-rule="nonzero"/></clipPath><clipPath id="fd5a46048e"><path d="M 0.0117188 0.464844 L 27.382812 0.464844 L 27.382812 27.832031 L 0.0117188 27.832031 Z M 0.0117188 0.464844 " clip-rule="nonzero"/></clipPath><clipPath id="672e7623b2"><path d="M 13.695312 0.464844 C 6.140625 0.464844 0.0117188 6.59375 0.0117188 14.148438 C 0.0117188 21.707031 6.140625 27.832031 13.695312 27.832031 C 21.253906 27.832031 27.382812 21.707031 27.382812 14.148438 C 27.382812 6.59375 21.253906 0.464844 13.695312 0.464844 Z M 13.695312 0.464844 " clip-rule="nonzero"/></clipPath><clipPath id="b4162d1e3f"><rect x="0" width="28" y="0" height="28"/></clipPath><clipPath id="8f213e09f5"><path d="M 0 0 L 369.75 0 L 369.75 375 L 0 375 Z M 0 0 " clip-rule="nonzero"/></clipPath></defs><g clip-path="url(#2f79592294)"><g clip-path="url(#26b743d01a)"><g transform="matrix(1, 0, 0, 1, 196, 171)"><g clip-path="url(#b4162d1e3f)"><g clip-path="url(#fd5a46048e)"><g clip-path="url(#672e7623b2)"><path fill="#ffffff" d="M 0.0117188 0.464844 L 27.382812 0.464844 L 27.382812 27.832031 L 0.0117188 27.832031 Z M 0.0117188 0.464844 " fill-opacity="1" fill-rule="nonzero"/></g></g></g></g></g></g><g clip-path="url(#8f213e09f5)"><path fill="#000000" d="M 348.535156 308.824219 L 342.097656 308.824219 L 342.097656 299.632812 C 342.097656 280.375 326.417969 264.707031 307.152344 264.707031 L 292.4375 264.707031 L 292.4375 209.558594 L 317.265625 209.558594 C 340.085938 209.558594 358.652344 191.003906 358.652344 168.199219 C 358.652344 145.390625 340.085938 126.839844 317.265625 126.839844 L 187.597656 126.839844 L 187.597656 93.75 L 225.8125 93.75 C 244.292969 93.75 259.328125 78.722656 259.328125 60.25 L 259.328125 33.5 C 259.328125 15.027344 244.292969 0 225.8125 0 L 138.347656 0 C 119.867188 0 104.828125 15.027344 104.828125 33.5 L 104.828125 60.25 C 104.828125 78.722656 119.867188 93.75 138.347656 93.75 L 176.5625 93.75 L 176.5625 126.839844 L 46.890625 126.839844 C 24.070312 126.839844 5.507812 145.394531 5.507812 168.199219 C 5.507812 191.007812 24.070312 209.558594 46.890625 209.558594 L 71.722656 209.558594 L 71.722656 264.707031 L 62.527344 264.707031 C 43.257812 264.707031 27.578125 280.375 27.578125 299.632812 L 27.578125 308.824219 L 21.140625 308.824219 C 9.480469 308.824219 -0.0117188 318.304688 -0.0117188 329.964844 L -0.0117188 353.859375 C -0.0117188 365.515625 9.480469 375 21.140625 375 L 45.050781 375 C 56.714844 375 66.203125 365.515625 66.203125 353.859375 L 66.203125 329.964844 C 66.203125 318.304688 56.714844 308.824219 45.050781 308.824219 L 38.613281 308.824219 L 38.613281 299.632812 C 38.613281 286.457031 49.339844 275.734375 62.527344 275.734375 L 97.472656 275.734375 C 110.65625 275.734375 121.382812 286.457031 121.382812 299.632812 L 121.382812 308.824219 L 114.945312 308.824219 C 103.28125 308.824219 93.792969 318.304688 93.792969 329.964844 L 93.792969 353.859375 C 93.792969 365.515625 103.28125 375 114.945312 375 L 138.855469 375 C 150.519531 375 160.007812 365.515625 160.007812 353.859375 L 160.007812 329.964844 C 160.007812 318.304688 150.519531 308.824219 138.855469 308.824219 L 132.417969 308.824219 L 132.417969 299.632812 C 132.417969 280.375 116.742188 264.707031 97.472656 264.707031 L 82.757812 264.707031 L 82.757812 209.558594 L 281.402344 209.558594 L 281.402344 264.707031 L 272.203125 264.707031 C 252.933594 264.707031 237.257812 280.375 237.257812 299.632812 L 237.257812 308.824219 L 230.820312 308.824219 C 219.15625 308.824219 209.667969 318.304688 209.667969 329.964844 L 209.667969 353.859375 C 209.667969 365.515625 219.15625 375 230.820312 375 L 254.730469 375 C 266.394531 375 275.882812 365.515625 275.882812 353.859375 L 275.882812 329.964844 C 275.882812 318.304688 266.394531 308.824219 254.730469 308.824219 L 248.292969 308.824219 L 248.292969 299.632812 C 248.292969 286.457031 259.019531 275.734375 272.203125 275.734375 L 307.152344 275.734375 C 320.335938 275.734375 331.0625 286.457031 331.0625 299.632812 L 331.0625 308.824219 L 324.625 308.824219 C 312.960938 308.824219 303.472656 318.304688 303.472656 329.964844 L 303.472656 353.859375 C 303.472656 365.515625 312.960938 375 324.625 375 L 348.535156 375 C 360.199219 375 369.6875 365.515625 369.6875 353.859375 L 369.6875 329.964844 C 369.6875 318.304688 360.199219 308.824219 348.535156 308.824219 Z M 115.863281 60.25 L 115.863281 33.5 C 115.863281 21.109375 125.949219 11.03125 138.347656 11.03125 L 225.8125 11.03125 C 238.207031 11.03125 248.292969 21.109375 248.292969 33.5 L 248.292969 60.25 C 248.292969 72.640625 238.207031 82.722656 225.8125 82.722656 L 138.347656 82.722656 C 125.949219 82.71875 115.863281 72.640625 115.863281 60.25 Z M 55.167969 329.964844 L 55.167969 353.859375 C 55.167969 359.433594 50.628906 363.96875 45.050781 363.96875 L 21.140625 363.96875 C 15.5625 363.96875 11.027344 359.433594 11.027344 353.859375 L 11.027344 329.964844 C 11.027344 324.386719 15.5625 319.851562 21.140625 319.851562 L 45.050781 319.851562 C 50.628906 319.851562 55.167969 324.386719 55.167969 329.964844 Z M 148.972656 329.964844 L 148.972656 353.859375 C 148.972656 359.433594 144.433594 363.96875 138.855469 363.96875 L 114.945312 363.96875 C 109.367188 363.96875 104.828125 359.433594 104.828125 353.859375 L 104.828125 329.964844 C 104.828125 324.386719 109.367188 319.851562 114.945312 319.851562 L 138.855469 319.851562 C 144.433594 319.851562 148.972656 324.386719 148.972656 329.964844 Z M 264.847656 329.964844 L 264.847656 353.859375 C 264.847656 359.433594 260.308594 363.96875 254.730469 363.96875 L 230.820312 363.96875 C 225.242188 363.96875 220.703125 359.433594 220.703125 353.859375 L 220.703125 329.964844 C 220.703125 324.386719 225.242188 319.851562 230.820312 319.851562 L 254.730469 319.851562 C 260.308594 319.851562 264.847656 324.386719 264.847656 329.964844 Z M 358.652344 353.859375 C 358.652344 359.433594 354.113281 363.96875 348.535156 363.96875 L 324.625 363.96875 C 319.046875 363.96875 314.507812 359.433594 314.507812 353.859375 L 314.507812 329.964844 C 314.507812 324.386719 319.046875 319.851562 324.625 319.851562 L 348.535156 319.851562 C 354.113281 319.851562 358.652344 324.386719 358.652344 329.964844 Z M 358.652344 353.859375 " fill-opacity="1" fill-rule="nonzero"/></g></svg>