<svg xmlns="http://www.w3.org/2000/svg" xmlns:xlink="http://www.w3.org/1999/xlink" width="2000" zoomAndPan="magnify" viewBox="0 0 1500 1499.999933" height="2000" preserveAspectRatio="xMidYMid meet" version="1.0"><defs><clipPath id="9d4c4c7139"><path d="M 750 733.285156 L 783.425781 733.285156 L 783.425781 766.714844 L 750 766.714844 Z M 750 733.285156 " clip-rule="nonzero"/></clipPath><clipPath id="37972da54b"><path d="M 766.714844 733.285156 C 757.484375 733.285156 750 740.769531 750 750 C 750 759.230469 757.484375 766.714844 766.714844 766.714844 C 775.945312 766.714844 783.425781 759.230469 783.425781 750 C 783.425781 740.769531 775.945312 733.285156 766.714844 733.285156 Z M 766.714844 733.285156 " clip-rule="nonzero"/></clipPath><clipPath id="7da5a3f945"><path d="M 0 0.285156 L 33.425781 0.285156 L 33.425781 33.714844 L 0 33.714844 Z M 0 0.285156 " clip-rule="nonzero"/></clipPath><clipPath id="d35384c225"><path d="M 16.714844 0.285156 C 7.484375 0.285156 0 7.769531 0 17 C 0 26.230469 7.484375 33.714844 16.714844 33.714844 C 25.945312 33.714844 33.425781 26.230469 33.425781 17 C 33.425781 7.769531 25.945312 0.285156 16.714844 0.285156 Z M 16.714844 0.285156 " clip-rule="nonzero"/></clipPath><clipPath id="736967e7e2"><rect x="0" width="34" y="0" height="34"/></clipPath><clipPath id="b90cec398a"><path d="M 1138 717 L 1438.5 717 L 1438.5 719 L 1138 719 Z M 1138 717 " clip-rule="nonzero"/></clipPath></defs><g clip-path="url(#9d4c4c7139)"><g clip-path="url(#37972da54b)"><g transform="matrix(1, 0, 0, 1, 750, 733)"><g clip-path="url(#736967e7e2)"><g clip-path="url(#7da5a3f945)"><g clip-path="url(#d35384c225)"><path fill="#2d2726" d="M 0 0.285156 L 33.425781 0.285156 L 33.425781 33.714844 L 0 33.714844 Z M 0 0.285156 " fill-opacity="1" fill-rule="nonzero"/></g></g></g></g></g></g><path fill="#78358d" d="M 811.28125 215.984375 C 810.859375 215.875 810.445312 215.75 810.019531 215.628906 L 826.25 144.753906 L 826.46875 144.800781 Z M 811.28125 215.984375 " fill-opacity="1" fill-rule="nonzero"/><path fill="#78358d" d="M 1051.375 491.742188 C 1054.363281 489.785156 1057.363281 487.832031 1060.351562 485.875 L 1082.851562 471.53125 L 1105.46875 457.371094 L 1195.886719 400.644531 L 1196.019531 400.839844 L 1106.453125 458.914062 L 1084.066406 473.4375 L 1061.578125 487.792969 C 1059.488281 489.09375 1057.410156 490.382812 1055.335938 491.679688 C 1053.988281 491.679688 1052.675781 491.707031 1051.375 491.742188 Z M 1051.375 491.742188 " fill-opacity="1" fill-rule="nonzero"/><path fill="#78358d" d="M 1276.21875 843.125 L 1171.820312 820.863281 L 1145.714844 815.316406 L 1119.65625 809.570312 C 1103.5625 805.816406 1087.453125 802.101562 1071.441406 797.996094 C 1071.589844 797.863281 1071.746094 797.730469 1071.890625 797.582031 C 1088.023438 800.605469 1104.085938 803.996094 1120.144531 807.347656 L 1146.203125 813.117188 L 1172.222656 819.078125 L 1276.28125 842.90625 Z M 1276.21875 843.125 " fill-opacity="1" fill-rule="nonzero"/><path fill="#78358d" d="M 1020.117188 1212.570312 L 962.039062 1123.027344 L 947.496094 1100.65625 L 933.140625 1078.164062 C 923.75 1063.054688 914.320312 1047.972656 905.296875 1032.621094 L 905.488281 1032.5 C 915.609375 1047.144531 925.316406 1062.046875 935.058594 1076.9375 L 949.40625 1099.429688 L 963.570312 1122.042969 L 1020.3125 1212.449219 Z M 1020.117188 1212.570312 " fill-opacity="1" fill-rule="nonzero"/><path fill="#78358d" d="M 208.308594 1036.921875 L 208.175781 1036.726562 L 297.742188 978.648438 L 320.128906 964.125 L 337.878906 952.792969 C 337.355469 954.019531 336.832031 955.257812 336.3125 956.484375 L 321.34375 966.03125 L 298.726562 980.191406 Z M 208.308594 1036.921875 " fill-opacity="1" fill-rule="nonzero"/><path fill="#78358d" d="M 336.382812 640.734375 C 318.867188 637.527344 301.457031 633.847656 284.050781 630.214844 L 257.992188 624.449219 L 231.972656 618.472656 L 127.914062 594.65625 L 127.960938 594.4375 L 232.371094 616.6875 L 258.480469 622.238281 L 284.535156 627.980469 C 301.859375 632.027344 319.207031 636.035156 336.433594 640.503906 Z M 336.382812 640.734375 " fill-opacity="1" fill-rule="nonzero"/><path fill="#78358d" d="M 445.667969 323.574219 L 440.613281 315.519531 L 383.882812 225.117188 L 384.078125 224.992188 L 442.15625 314.539062 L 447.222656 322.335938 C 446.699219 322.746094 446.1875 323.160156 445.667969 323.574219 Z M 445.667969 323.574219 " fill-opacity="1" fill-rule="nonzero"/><path fill="#78358d" d="M 615.589844 284.03125 C 614.753906 283.691406 613.914062 283.363281 613.078125 283.023438 L 611.328125 274.035156 L 606.421875 247.8125 L 586.714844 142.917969 L 586.945312 142.882812 L 608.21875 247.460938 L 613.539062 273.609375 Z M 615.589844 284.03125 " fill-opacity="1" fill-rule="nonzero"/><path fill="#78358d" d="M 965.632812 320.914062 L 967.554688 318.121094 L 1027.808594 230.023438 L 1028 230.15625 L 969.074219 319.140625 L 967.894531 320.902344 C 967.699219 320.902344 967.503906 320.902344 967.3125 320.902344 C 966.753906 320.902344 966.191406 320.914062 965.632812 320.914062 Z M 965.632812 320.914062 " fill-opacity="1" fill-rule="nonzero"/><path fill="#78358d" d="M 1099.613281 639.324219 C 1100.0625 638.65625 1100.523438 637.964844 1101 637.261719 C 1107.582031 635.875 1114.167969 634.515625 1120.761719 633.144531 L 1146.953125 628.03125 L 1173.183594 623.125 L 1278.105469 603.4375 L 1278.152344 603.65625 L 1173.535156 624.921875 L 1147.378906 630.253906 L 1121.199219 635.378906 C 1113.996094 636.703125 1106.816406 638.023438 1099.613281 639.324219 Z M 1099.613281 639.324219 " fill-opacity="1" fill-rule="nonzero"/><path fill="#78358d" d="M 817.246094 1294.679688 L 795.988281 1190.101562 L 790.644531 1163.953125 L 785.515625 1137.769531 C 782.296875 1120.269531 779.054688 1102.792969 776.285156 1085.207031 L 776.503906 1085.160156 C 780.5625 1102.488281 784.144531 1119.917969 787.753906 1137.332031 L 792.867188 1163.515625 L 797.773438 1189.75 L 817.476562 1294.644531 Z M 817.246094 1294.679688 " fill-opacity="1" fill-rule="nonzero"/><path fill="#78358d" d="M 126.089844 834.125 L 126.042969 833.90625 L 230.660156 812.644531 L 256.800781 807.3125 L 282.992188 802.175781 C 300.5 798.96875 317.992188 795.710938 335.582031 792.945312 L 335.617188 793.175781 C 318.285156 797.21875 300.851562 800.800781 283.429688 804.421875 L 257.238281 809.523438 L 231.011719 814.429688 Z M 126.089844 834.125 " fill-opacity="1" fill-rule="nonzero"/><path fill="#78358d" d="M 358.054688 491.621094 C 353.863281 488.875 349.671875 486.117188 345.484375 483.375 L 323.347656 468.472656 L 301.335938 453.402344 L 213.214844 393.148438 L 213.335938 392.96875 L 302.355469 451.882812 L 324.613281 466.589844 L 346.757812 481.480469 C 350.574219 484.113281 354.386719 486.738281 358.203125 489.375 C 358.152344 490.125 358.105469 490.855469 358.054688 491.621094 Z M 358.054688 491.621094 " fill-opacity="1" fill-rule="nonzero"/><path fill="#78358d" d="M 698.585938 278.515625 L 698.597656 276.695312 L 699.328125 0 L 699.691406 0 L 700.421875 275.769531 C 699.800781 276.695312 699.195312 277.605469 698.585938 278.515625 Z M 698.585938 278.515625 " fill-opacity="1" fill-rule="nonzero"/><path fill="#78358d" d="M 1044.023438 373.34375 C 1043.820312 372.808594 1043.601562 372.285156 1043.382812 371.761719 L 1222.757812 193.382812 L 1222.914062 193.550781 Z M 1044.023438 373.34375 " fill-opacity="1" fill-rule="nonzero"/><g clip-path="url(#b90cec398a)"><path fill="#78358d" d="M 1138.039062 718.824219 C 1138.28125 718.21875 1138.511719 717.621094 1138.730469 717.015625 L 1438.335938 717.804688 L 1438.335938 718.035156 Z M 1138.039062 718.824219 " fill-opacity="1" fill-rule="nonzero"/></g><path fill="#78358d" d="M 1219.707031 1241.183594 L 1005.722656 1028.394531 L 917.808594 940.769531 C 918.355469 940.273438 918.902344 939.785156 919.449219 939.300781 L 1007.023438 1027.105469 L 1219.867188 1241.023438 Z M 1219.707031 1241.183594 " fill-opacity="1" fill-rule="nonzero"/><path fill="#78358d" d="M 695.304688 1456.558594 L 695.074219 1456.558594 L 694.285156 1154.820312 L 694.128906 1056.230469 C 694.832031 1056.414062 695.550781 1056.59375 696.253906 1056.753906 L 696.109375 1154.820312 Z M 695.304688 1456.558594 " fill-opacity="1" fill-rule="nonzero"/><path fill="#78358d" d="M 171.949219 1238.148438 L 171.792969 1237.976562 L 173.769531 1235.984375 C 173.527344 1236.347656 173.25 1236.738281 172.992188 1237.101562 Z M 171.949219 1238.148438 " fill-opacity="1" fill-rule="nonzero"/><path fill="#78358d" d="M 360.789062 714.671875 L 258.175781 714.511719 L 0.152344 713.832031 L 0.152344 713.371094 L 258.175781 712.691406 L 360.667969 712.535156 C 360.703125 713.25 360.753906 713.964844 360.789062 714.671875 Z M 360.789062 714.671875 " fill-opacity="1" fill-rule="nonzero"/><path fill="#78358d" d="M 375.839844 392.507812 L 174.839844 190.503906 L 175 190.332031 L 376.640625 390.855469 C 376.363281 391.402344 376.105469 391.9375 375.839844 392.507812 Z M 375.839844 392.507812 " fill-opacity="1" fill-rule="nonzero"/><path fill="#78358d" d="M 881.074219 274.703125 C 880.769531 274.023438 880.464844 273.34375 880.148438 272.6875 L 979.847656 30.910156 L 980.066406 31.003906 Z M 881.074219 274.703125 " fill-opacity="1" fill-rule="nonzero"/><path fill="#78358d" d="M 1133.128906 536.335938 C 1132.996094 535.789062 1132.851562 535.257812 1132.703125 534.710938 L 1381.496094 431.199219 L 1381.578125 431.417969 Z M 1133.128906 536.335938 " fill-opacity="1" fill-rule="nonzero"/><path fill="#78358d" d="M 1382.296875 998.398438 L 1102.664062 884.878906 L 1013.070312 848.382812 L 1014.6875 846.757812 L 1103.355469 883.179688 L 1382.382812 998.179688 Z M 1382.296875 998.398438 " fill-opacity="1" fill-rule="nonzero"/><path fill="#78358d" d="M 981.777344 1399.816406 L 864.332031 1121.859375 L 820.199219 1017.074219 C 820.820312 1016.675781 821.4375 1016.273438 822.058594 1015.875 L 866.019531 1121.15625 L 981.984375 1399.734375 Z M 981.777344 1399.816406 " fill-opacity="1" fill-rule="nonzero"/><path fill="#78358d" d="M 13.210938 1000.316406 L 13.113281 1000.109375 L 291.144531 882.707031 L 370.714844 849.210938 C 370.554688 850.035156 370.398438 850.839844 370.238281 851.664062 L 291.847656 884.394531 Z M 13.210938 1000.316406 " fill-opacity="1" fill-rule="nonzero"/><path fill="#78358d" d="M 356.027344 574.910156 L 291.351562 548.335938 L 12.324219 433.335938 L 12.410156 433.132812 L 292.042969 546.648438 L 356.015625 572.710938 C 356.027344 573.4375 356.027344 574.179688 356.027344 574.910156 Z M 356.027344 574.910156 " fill-opacity="1" fill-rule="nonzero"/><path fill="#78358d" d="M 515.722656 279.234375 L 412.722656 31.796875 L 412.929688 31.710938 L 517.230469 278.589844 C 516.730469 278.808594 516.222656 279.027344 515.722656 279.230469 Z M 515.722656 279.234375 " fill-opacity="1" fill-rule="nonzero"/><path fill="#fbc71d" d="M 370.921875 848.082031 C 370.921875 848.082031 329.96875 436.410156 383.808594 380.300781 C 437.648438 324.179688 527.894531 256.898438 570.875 268.484375 C 613.867188 280.058594 679.027344 312.386719 679.027344 312.386719 C 679.027344 312.386719 720.417969 225.746094 771.777344 213.882812 C 823.152344 202.003906 917.03125 258.320312 880.878906 354.054688 C 880.878906 354.054688 964.613281 286.796875 1024.003906 343.867188 C 1083.394531 400.933594 1023.824219 494.800781 1023.824219 494.800781 C 1023.824219 494.800781 1100.550781 477.652344 1128.015625 523.753906 C 1155.496094 569.855469 1090.015625 652.683594 1090.015625 652.683594 C 1090.015625 652.683594 1134.394531 662.351562 1141.234375 693.515625 C 1151.679688 741.183594 1048.433594 816.089844 1025.5 836.117188 C 1002.574219 856.132812 794.191406 1090.539062 689.535156 1054.859375 L 492.507812 1499.976562 L 0.152344 1499.976562 L 0.152344 1464.101562 L 0.1875 1464.050781 L 0.917969 1463.164062 L 5.339844 1457.796875 L 7.136719 1455.609375 L 11.230469 1450.605469 L 12.894531 1448.554688 C 14.414062 1446.707031 15.945312 1444.8125 17.511719 1442.894531 L 18.898438 1441.183594 C 20.683594 1438.984375 22.492188 1436.75 24.339844 1434.464844 L 26.648438 1431.601562 C 28.238281 1429.632812 29.84375 1427.628906 31.484375 1425.589844 L 33.4375 1423.148438 C 35.015625 1421.179688 36.597656 1419.199219 38.210938 1417.183594 L 40.375 1414.464844 C 42.050781 1412.363281 43.738281 1410.226562 45.453125 1408.074219 L 47.335938 1405.695312 Z M 377.796875 839.375 L 378.085938 839.007812 L 378.769531 838.132812 C 380.941406 835.378906 383.128906 832.585938 385.339844 829.765625 L 387.234375 827.324219 C 389.007812 825.042969 390.792969 822.757812 392.605469 820.441406 L 395.179688 817.125 C 397.085938 814.648438 399.03125 812.144531 400.972656 809.617188 L 402.6875 807.394531 C 405.3125 803.984375 407.960938 800.535156 410.632812 797.035156 L 410.910156 796.671875 C 413.425781 793.382812 415.953125 790.066406 418.492188 786.714844 L 420.570312 783.957031 C 422.5 781.417969 424.433594 778.855469 426.375 776.28125 L 429.074219 772.6875 C 431.066406 770.027344 433.070312 767.355469 435.074219 764.671875 L 437.136719 761.914062 C 439.871094 758.234375 442.628906 754.519531 445.398438 750.777344 L 446.296875 749.550781 C 448.703125 746.296875 451.121094 743.015625 453.539062 739.703125 L 456.1875 736.082031 C 458.03125 733.542969 459.890625 731.003906 461.75 728.441406 L 464.824219 724.191406 C 466.804688 721.460938 468.796875 718.703125 470.777344 715.945312 L 473.070312 712.753906 C 475.855469 708.878906 478.636719 704.980469 481.417969 701.058594 L 482.996094 698.808594 C 485.21875 695.675781 487.441406 692.519531 489.667969 689.359375 L 492.558594 685.230469 C 494.476562 682.5 496.382812 679.765625 498.292969 677.011719 L 501.035156 673.0625 C 503.222656 669.90625 505.398438 666.734375 507.585938 663.554688 L 509.417969 660.894531 C 512.210938 656.8125 514.996094 652.707031 517.789062 648.589844 L 519.464844 646.101562 C 521.664062 642.835938 523.875 639.554688 526.0625 636.265625 L 528.683594 632.328125 C 530.652344 629.367188 532.621094 626.402344 534.578125 623.425781 L 537.117188 619.566406 C 539.316406 616.214844 541.511719 612.863281 543.6875 609.484375 C 544.234375 608.660156 544.78125 607.820312 545.328125 606.984375 C 548.035156 602.78125 550.746094 598.578125 553.429688 594.351562 C 554.027344 593.429688 554.597656 592.507812 555.191406 591.582031 C 557.28125 588.292969 559.371094 584.988281 561.4375 581.6875 L 563.9375 577.691406 C 565.832031 574.667969 567.714844 571.628906 569.585938 568.59375 C 570.378906 567.320312 571.167969 566.042969 571.945312 564.769531 C 574.082031 561.28125 576.207031 557.796875 578.308594 554.3125 C 578.796875 553.523438 579.28125 552.71875 579.765625 551.929688 C 582.304688 547.703125 584.832031 543.492188 587.324219 539.265625 C 587.96875 538.183594 588.597656 537.101562 589.242188 536.019531 C 591.101562 532.863281 592.949219 529.707031 594.769531 526.546875 C 595.597656 525.128906 596.421875 523.707031 597.25 522.273438 C 598.960938 519.308594 600.648438 516.335938 602.339844 513.371094 C 603.089844 512.035156 603.84375 510.710938 604.597656 509.386719 C 606.578125 505.867188 608.535156 502.355469 610.476562 498.847656 C 610.878906 498.117188 611.292969 497.390625 611.691406 496.660156 C 614.023438 492.433594 616.308594 488.21875 618.566406 484.019531 C 619.140625 482.960938 619.699219 481.90625 620.269531 480.835938 C 621.945312 477.691406 623.609375 474.558594 625.25 471.410156 C 625.976562 470.027344 626.695312 468.628906 627.421875 467.246094 C 628.953125 464.28125 630.472656 461.320312 631.980469 458.367188 C 632.625 457.09375 633.277344 455.816406 633.910156 454.542969 C 635.746094 450.910156 637.542969 447.292969 639.316406 443.671875 C 639.582031 443.125 639.851562 442.578125 640.117188 442.03125 C 642.148438 437.890625 644.113281 433.761719 646.058594 429.644531 C 646.582031 428.550781 647.078125 427.460938 647.589844 426.367188 C 648.988281 423.367188 650.371094 420.367188 651.730469 417.378906 C 652.363281 415.96875 652.996094 414.574219 653.613281 413.175781 C 654.878906 410.371094 656.105469 407.578125 657.332031 404.785156 C 657.890625 403.484375 658.472656 402.175781 659.019531 400.875 C 660.5625 397.28125 662.070312 393.710938 663.539062 390.152344 C 663.722656 389.726562 663.902344 389.289062 664.074219 388.863281 C 665.714844 384.878906 667.28125 380.933594 668.8125 376.996094 C 669.25 375.867188 669.675781 374.75 670.097656 373.632812 C 671.191406 370.78125 672.261719 367.949219 673.304688 365.121094 C 673.78125 363.820312 674.253906 362.519531 674.714844 361.234375 C 675.710938 358.476562 676.671875 355.746094 677.605469 353.011719 C 678.007812 351.835938 678.421875 350.65625 678.820312 349.488281 C 680.023438 345.90625 681.191406 342.347656 682.296875 338.816406 C 682.367188 338.558594 682.464844 338.304688 682.539062 338.050781 C 683.71875 334.285156 684.8125 330.554688 685.867188 326.851562 C 686.183594 325.757812 686.476562 324.679688 686.777344 323.585938 C 687.507812 320.949219 688.210938 318.339844 688.878906 315.738281 C 689.207031 314.464844 689.523438 313.203125 689.828125 311.9375 C 690.460938 309.425781 691.042969 306.921875 691.601562 304.433594 C 691.867188 303.292969 692.125 302.148438 692.378906 301.019531 C 693.15625 297.472656 693.859375 293.953125 694.503906 290.464844 Z M 377.796875 839.375 " fill-opacity="1" fill-rule="nonzero"/><path fill="#e73a39" d="M 1100.039062 638.691406 C 1064.007812 653.851562 794.410156 770.085938 727.195312 885.171875 C 685.042969 957.324219 535.597656 1260.578125 418.757812 1499.976562 L 492.507812 1499.976562 L 689.535156 1054.859375 C 794.191406 1090.539062 1002.578125 856.132812 1025.5 836.117188 C 1048.433594 816.09375 1151.679688 741.183594 1141.234375 693.515625 C 1134.394531 662.351562 1090.015625 652.683594 1090.015625 652.683594 C 1090.015625 652.683594 1094.21875 647.363281 1100.039062 638.691406 Z M 1100.039062 638.691406 " fill-opacity="1" fill-rule="nonzero"/><path fill="#f18c26" d="M 1033.203125 493.222656 C 990.332031 525.152344 903 593.453125 848.578125 624.230469 C 778.582031 663.820312 732.453125 763.273438 691.953125 851.445312 C 667.136719 905.441406 489.242188 1244.960938 355.089844 1499.976562 L 443.589844 1499.976562 C 510.414062 1354.980469 591.890625 1186.289062 668.691406 1048.847656 C 745.804688 910.832031 829.601562 809.15625 869.433594 786.421875 C 959.914062 734.792969 1043.503906 699.515625 1100.890625 656.011719 C 1094.523438 653.667969 1090.015625 652.683594 1090.015625 652.683594 C 1090.015625 652.683594 1155.496094 569.855469 1128.015625 523.753906 C 1106.453125 487.550781 1054.507812 490.34375 1033.203125 493.222656 Z M 1033.203125 493.222656 " fill-opacity="1" fill-rule="nonzero"/><path fill="#50b23f" d="M 893.597656 345.25 C 868.984375 401.773438 816.871094 493.976562 717.828125 567.621094 C 717.828125 567.621094 704.648438 580.265625 693.179688 605.429688 C 681.714844 630.582031 645.597656 849.5625 589.851562 931.515625 C 553.054688 985.609375 379.496094 1295.519531 265.730469 1499.976562 L 197.339844 1499.976562 C 239.539062 1418.339844 293.828125 1313.007812 349.976562 1203.183594 C 484.042969 940.976562 628.105469 653.074219 630.023438 595.46875 L 601.816406 505.539062 C 601.816406 505.539062 618.542969 470.960938 621.957031 448.191406 C 621.957031 448.191406 775.265625 503.035156 807.042969 465.207031 C 838.808594 427.375 838.808594 427.375 838.808594 427.375 C 838.808594 427.375 784.921875 362.484375 679.027344 312.386719 C 679.027344 312.386719 720.417969 225.746094 771.777344 213.882812 C 823.152344 202.003906 917.03125 258.320312 880.878906 354.054688 C 880.878906 354.054688 885.605469 350.265625 893.597656 345.25 Z M 893.597656 345.25 " fill-opacity="1" fill-rule="nonzero"/><path fill="#92569d" d="M 677.402344 312.933594 C 677.402344 312.933594 781.386719 360.941406 837.4375 425.796875 L 824.914062 443.925781 C 824.914062 443.925781 704.382812 466.675781 552.96875 347.097656 C 552.96875 347.097656 512.941406 434.210938 505.738281 582.402344 C 498.535156 730.59375 507.0625 718.3125 465.734375 804.589844 C 424.40625 890.855469 392.871094 1025.6875 326.980469 1128.332031 C 284.632812 1194.304688 175.265625 1377.496094 102.511719 1499.976562 L 0.152344 1499.976562 L 0.152344 1464.101562 C 95.855469 1348.09375 335.207031 1042.617188 370.921875 848.082031 C 370.921875 848.082031 329.96875 436.410156 383.808594 380.300781 C 437.648438 324.179688 527.894531 256.898438 570.875 268.484375 C 605.082031 277.703125 653.347656 300.0625 671.628906 308.804688 C 673.5625 310.203125 675.457031 311.488281 677.402344 312.933594 Z M 677.402344 312.933594 " fill-opacity="1" fill-rule="nonzero"/><path fill="#0f9bd5" d="M 824.914062 443.925781 C 824.914062 443.925781 790.351562 507.335938 665.664062 466.019531 L 621.957031 448.191406 C 621.957031 448.191406 624.105469 468.75 601.816406 505.539062 C 601.816406 505.539062 619.089844 581.625 631.75 601.882812 C 631.75 601.882812 581.84375 764.304688 537.214844 844.511719 C 505.871094 900.851562 310.363281 1279.597656 196.792969 1499.976562 L 102.390625 1499.976562 C 107.238281 1491.863281 112.289062 1483.421875 117.539062 1474.679688 C 251.324219 1251.675781 493.84375 826.257812 503.042969 647.085938 C 503.222656 643.441406 503.125 639.410156 503.113281 635.972656 C 502.398438 398.53125 552.96875 347.097656 552.96875 347.097656 C 552.96875 347.097656 682.804688 455.332031 824.914062 443.929688 Z M 824.914062 443.925781 " fill-opacity="1" fill-rule="nonzero"/><path fill="#0f9bd5" d="M 485.574219 595.835938 C 484.902344 608.050781 479.839844 617.71875 474.261719 617.414062 C 468.6875 617.113281 469.269531 607.191406 469.9375 594.972656 C 470.617188 582.742188 471.128906 572.820312 476.703125 573.136719 C 482.28125 573.4375 486.253906 583.605469 485.574219 595.835938 Z M 485.574219 595.835938 " fill-opacity="1" fill-rule="nonzero"/><path fill="#f18c26" d="M 782.515625 921.859375 C 774.011719 930.675781 763.855469 934.671875 759.835938 930.800781 C 755.816406 926.925781 762.738281 919.808594 771.242188 910.992188 C 779.746094 902.175781 786.609375 895.007812 790.632812 898.882812 C 794.652344 902.757812 791.019531 913.042969 782.515625 921.859375 Z M 782.515625 921.859375 " fill-opacity="1" fill-rule="nonzero"/><path fill="#f18c26" d="M 999.308594 495.53125 C 990.804688 504.347656 980.648438 508.34375 976.628906 504.46875 C 972.605469 500.59375 979.53125 493.476562 988.035156 484.660156 C 996.539062 475.855469 1003.402344 468.679688 1007.421875 472.554688 C 1011.445312 476.425781 1007.8125 486.714844 999.308594 495.53125 Z M 999.308594 495.53125 " fill-opacity="1" fill-rule="nonzero"/><path fill="#0f9bd5" d="M 493.953125 641.839844 C 493.625 647.691406 491.210938 652.320312 488.535156 652.175781 C 485.863281 652.027344 486.144531 647.28125 486.472656 641.425781 C 486.789062 635.558594 487.03125 630.8125 489.703125 630.957031 C 492.375 631.101562 494.28125 635.972656 493.953125 641.839844 Z M 493.953125 641.839844 " fill-opacity="1" fill-rule="nonzero"/><path fill="#2b2138" d="M 1011.554688 849.902344 C 1012.0625 849.378906 1012.5625 848.871094 1013.046875 848.371094 L 1013.070312 848.382812 L 1011.625 849.816406 Z M 1014.6875 846.757812 L 1014.652344 846.746094 C 1018.332031 843.015625 1021.285156 840.066406 1023.433594 838.011719 Z M 1027.359375 834.527344 C 1031.597656 830.933594 1037.71875 826.027344 1044.972656 820.113281 Z M 1027.359375 834.527344 " fill-opacity="1" fill-rule="nonzero"/><path fill="#4b2d61" d="M 1013.070312 848.382812 L 1013.046875 848.371094 C 1013.59375 847.8125 1014.140625 847.265625 1014.652344 846.746094 L 1014.6875 846.757812 Z M 1013.070312 848.382812 " fill-opacity="1" fill-rule="nonzero"/><path fill="#9a7925" d="M 645.960938 921.011719 C 667.246094 856.242188 668.714844 787.84375 662.726562 728.84375 C 677.65625 668.363281 687.96875 616.867188 693.179688 605.429688 C 695.125 601.152344 697.117188 597.242188 699.097656 593.695312 C 698.671875 599.210938 698.828125 604.941406 699.921875 610.589844 C 701.78125 622.382812 707.613281 633.375 720.683594 640.417969 C 729.089844 645.117188 740.738281 646.976562 753.882812 646.976562 C 779.382812 646.964844 810.46875 640.003906 834.207031 633.410156 C 805.550781 653.863281 781.070312 684.417969 759.300781 719.46875 C 748.695312 732.414062 645.960938 921.011719 645.960938 921.011719 Z M 630.023438 595.480469 C 630.011719 595.457031 630.011719 595.445312 630.011719 595.433594 L 630.023438 595.46875 C 630.023438 595.46875 630.023438 595.46875 630.023438 595.480469 Z M 630.023438 595.480469 " fill-opacity="1" fill-rule="nonzero"/><path fill="#97262d" d="M 943.960938 882.597656 C 902.210938 882.597656 840.558594 872.25 838.152344 811.597656 C 850.265625 799.855469 860.847656 791.328125 869.398438 786.445312 C 868.5 788.023438 867.636719 789.628906 866.847656 791.269531 C 866.628906 791.644531 863.507812 797.183594 861.78125 804.699219 C 859 811.988281 848.734375 847.789062 914.175781 852.066406 L 976.871094 853 L 1006.183594 838.800781 C 1026.617188 830.253906 1045.238281 819.894531 1045.238281 819.894531 L 1044.972656 820.113281 C 1037.71875 826.027344 1031.597656 830.933594 1027.359375 834.527344 L 1025 836.457031 L 1023.433594 838.011719 C 1021.285156 840.066406 1018.332031 843.015625 1014.652344 846.746094 C 1014.140625 847.265625 1013.59375 847.8125 1013.046875 848.371094 C 1012.5625 848.871094 1012.0625 849.378906 1011.554688 849.902344 L 981.828125 879.839844 C 981.828125 879.839844 965.5625 882.597656 943.960938 882.597656 Z M 943.960938 882.597656 " fill-opacity="1" fill-rule="nonzero"/><path fill="#9a5828" d="M 838.152344 811.597656 C 837.8125 802.953125 838.675781 793.285156 840.972656 782.464844 C 840.972656 782.464844 838.785156 782.644531 835.117188 782.644531 C 816.261719 782.644531 758.4375 777.859375 760.175781 718.996094 C 760.175781 718.847656 760.152344 718.777344 760.066406 718.777344 C 759.933594 718.777344 759.679688 719.007812 759.300781 719.46875 C 781.070312 684.417969 805.550781 653.863281 834.207031 633.410156 C 855.5625 627.484375 870.964844 621.835938 870.964844 621.835938 C 870.964844 621.835938 868.925781 623.136719 865.488281 625.40625 C 859.949219 628.917969 854.335938 632.863281 848.929688 636.894531 C 835.96875 646.273438 819.917969 658.839844 808.367188 671.082031 C 807.675781 671.75 806.777344 672.699219 805.71875 673.972656 C 800.921875 679.390625 797.140625 684.699219 795.027344 689.578125 C 795.027344 689.578125 793.21875 694.023438 792.148438 700.546875 C 790.144531 706.523438 790.460938 712.253906 792.066406 717.488281 C 793.8125 727.449219 799.425781 737.832031 813.382812 744.4375 C 818.910156 747.632812 825.933594 749.453125 833.9375 750.230469 C 837.402344 750.714844 841.140625 751.070312 845.164062 751.25 L 851.785156 750.460938 C 859.472656 750.023438 867.578125 749.003906 875.847656 747.582031 L 911.429688 743.320312 C 911.429688 743.320312 909.972656 744.269531 907.554688 746.027344 C 898.652344 751.785156 890.996094 759.046875 884.800781 766.066406 C 879.226562 772.019531 873.734375 778.890625 869.398438 786.445312 C 860.847656 791.328125 850.265625 799.855469 838.152344 811.597656 Z M 838.152344 811.597656 " fill-opacity="1" fill-rule="nonzero"/><path fill="#158040" d="M 662.726562 728.84375 C 659.761719 699.660156 654.976562 672.785156 649.859375 649.792969 C 643.3125 637.03125 637.140625 621.289062 631.734375 601.894531 C 631.75 601.894531 631.75 601.882812 631.75 601.882812 C 631.734375 601.882812 631.734375 601.882812 631.734375 601.882812 C 631.152344 599.792969 630.582031 597.65625 630.023438 595.480469 C 630.023438 595.46875 630.023438 595.46875 630.023438 595.46875 L 630.011719 595.433594 C 627.691406 586.496094 625.539062 576.816406 623.574219 566.359375 C 623.574219 566.359375 628.992188 572.210938 641.710938 574.433594 C 644.347656 575.03125 647.210938 575.332031 650.285156 575.332031 C 651.039062 575.332031 651.804688 575.308594 652.582031 575.273438 C 665.957031 575.140625 684.457031 571.058594 709.070312 557.96875 C 709.023438 558.089844 708.972656 558.199219 708.925781 558.320312 C 708.925781 558.320312 700.554688 574.640625 699.097656 593.695312 C 697.117188 597.242188 695.125 601.152344 693.179688 605.429688 C 687.96875 616.867188 677.65625 668.363281 662.726562 728.84375 Z M 662.726562 728.84375 " fill-opacity="1" fill-rule="nonzero"/><path fill="#066383" d="M 631.734375 601.894531 C 631.734375 601.894531 631.734375 601.882812 631.734375 601.882812 C 631.734375 601.882812 631.734375 601.882812 631.75 601.882812 C 631.75 601.882812 631.75 601.894531 631.734375 601.894531 Z M 631.734375 601.894531 " fill-opacity="1" fill-rule="nonzero"/><path fill="#866a26" d="M 763.382812 478.515625 C 772.589844 477.167969 780.5625 474.980469 787.425781 472.371094 C 795.273438 470.9375 799.742188 469.710938 799.742188 469.710938 C 798.042969 471.132812 796.328125 472.480469 794.566406 473.753906 C 786.199219 477.105469 775.433594 478.503906 763.382812 478.515625 Z M 763.382812 478.515625 " fill-opacity="1" fill-rule="nonzero"/><path fill="#14703c" d="M 602.058594 505.660156 C 607.804688 499.34375 612.117188 489.09375 615.238281 478.890625 C 623.039062 459.085938 621.96875 448.3125 621.957031 448.191406 L 633.703125 452.988281 C 644.320312 458.429688 655.074219 462.703125 665.738281 466.042969 C 696.351562 476.183594 721.523438 480.007812 742.074219 480.007812 C 749.828125 480.007812 756.910156 479.464844 763.382812 478.515625 C 775.433594 478.503906 786.199219 477.105469 794.566406 473.753906 C 773.832031 488.863281 749.582031 493.953125 726.34375 493.953125 C 690.484375 493.941406 657.039062 481.84375 642.667969 475.84375 C 640.226562 474.800781 637.761719 473.707031 635.269531 472.566406 C 627.824219 490.964844 602.058594 505.660156 602.058594 505.660156 Z M 602.058594 505.660156 " fill-opacity="1" fill-rule="nonzero"/><path fill="#0d5673" d="M 742.074219 480.007812 C 721.523438 480.007812 696.351562 476.183594 665.738281 466.042969 C 685.320312 472.175781 704.585938 475.117188 722.140625 476.183594 C 727.703125 476.683594 733.011719 476.925781 738.066406 476.925781 C 742.402344 476.925781 746.546875 476.753906 750.53125 476.425781 C 765.957031 475.769531 778.75 473.949219 787.425781 472.371094 C 780.5625 474.980469 772.589844 477.167969 763.382812 478.515625 C 756.910156 479.464844 749.828125 480.007812 742.074219 480.007812 Z M 615.238281 478.890625 C 619.273438 465.738281 621.324219 452.671875 621.957031 448.191406 C 621.96875 448.3125 623.039062 459.085938 615.238281 478.890625 Z M 633.703125 452.988281 L 621.957031 448.191406 C 622.101562 447.15625 622.175781 446.574219 622.175781 446.574219 C 625.992188 448.871094 629.839844 451.007812 633.703125 452.988281 Z M 633.703125 452.988281 " fill-opacity="1" fill-rule="nonzero"/><path fill="#201c22" d="M 370.921875 848.082031 C 370.058594 844.960938 368.476562 825.492188 366.730469 800.292969 C 369.097656 829.742188 370.921875 848.082031 370.921875 848.082031 Z M 370.921875 848.082031 " fill-opacity="1" fill-rule="nonzero"/><path fill="#0da945" d="M 525.355469 992.894531 C 503.246094 989.359375 484.261719 983.324219 467.980469 975.6875 C 470.921875 970.050781 473.800781 964.539062 476.605469 959.144531 C 504.085938 984.589844 525.355469 992.894531 525.355469 992.894531 Z M 525.355469 992.894531 " fill-opacity="1" fill-rule="nonzero"/><path fill="#7b4494" d="M 410.667969 932.488281 C 376.070312 892.324219 370.921875 848.082031 370.921875 848.082031 C 370.921875 848.082031 369.097656 829.742188 366.730469 800.292969 C 362.890625 745.335938 358.203125 663.03125 358.203125 663.03125 C 366.667969 772.359375 395.191406 847.035156 426.328125 897.28125 C 421.273438 908.890625 416.0625 920.609375 410.667969 932.488281 Z M 410.667969 932.488281 " fill-opacity="1" fill-rule="nonzero"/><path fill="#1952a1" d="M 467.980469 975.6875 C 443.101562 964.015625 424.527344 948.578125 410.667969 932.488281 C 416.0625 920.609375 421.273438 908.890625 426.328125 897.28125 C 443.25 924.570312 460.9375 944.644531 476.605469 959.144531 C 473.800781 964.539062 470.921875 970.050781 467.980469 975.6875 Z M 467.980469 975.6875 " fill-opacity="1" fill-rule="nonzero"/><path fill="#cea420" d="M 747.53125 645.6875 C 737.289062 645.6875 728.375 644.316406 721.8125 641.011719 C 721.425781 640.820312 721.058594 640.613281 720.683594 640.417969 C 719.578125 639.796875 718.535156 639.128906 717.550781 638.414062 C 707.066406 630.785156 701.925781 620.851562 699.921875 610.589844 C 698.988281 604.664062 699.058594 598.53125 699.703125 592.605469 C 709.128906 575.964844 717.828125 567.621094 717.828125 567.621094 C 743.472656 548.554688 765.972656 528.25 785.664062 507.625 C 796.21875 526.125 824.925781 570.085938 864.320312 580.519531 C 866.640625 581.140625 869.167969 581.429688 871.890625 581.429688 C 919.617188 581.417969 1025.339844 492.265625 1025.339844 492.265625 C 1015.027344 503.242188 980.46875 531.34375 946.839844 557.96875 C 912.355469 583.289062 876.226562 608.597656 848.578125 624.230469 C 848.578125 624.242188 848.566406 624.242188 848.566406 624.242188 C 821.839844 633.132812 778.582031 645.6875 747.53125 645.6875 Z M 747.53125 645.6875 " fill-opacity="1" fill-rule="nonzero"/><path fill="#d07526" d="M 848.566406 624.242188 C 848.566406 624.242188 848.578125 624.242188 848.578125 624.230469 C 876.226562 608.597656 912.355469 583.289062 946.839844 557.96875 C 909.28125 587.722656 872.886719 615.605469 872.886719 615.605469 C 872.886719 615.605469 863.203125 619.371094 848.566406 624.242188 Z M 848.566406 624.242188 " fill-opacity="1" fill-rule="nonzero"/><path fill="#14aa44" d="M 699.703125 592.605469 C 701.308594 577.992188 706.457031 564.574219 708.925781 558.320312 L 711.027344 556.921875 C 710.371094 557.273438 709.726562 557.625 709.070312 557.96875 C 710.589844 554.613281 715.3125 549.636719 721.679688 543.976562 C 729.234375 538.425781 737.121094 532.109375 745.296875 524.992188 C 763.324219 511.417969 781.230469 499.367188 781.230469 499.367188 C 781.230469 499.367188 782.757812 502.527344 785.664062 507.625 C 765.972656 528.25 743.472656 548.554688 717.828125 567.621094 C 717.828125 567.621094 709.132812 575.964844 699.703125 592.605469 Z M 699.703125 592.605469 " fill-opacity="1" fill-rule="nonzero"/><path fill="#7d6226" d="M 720.683594 640.417969 C 707.613281 633.375 701.78125 622.382812 699.921875 610.589844 C 701.925781 620.851562 707.066406 630.785156 717.550781 638.414062 C 718.535156 639.128906 719.578125 639.796875 720.683594 640.417969 Z M 720.683594 640.417969 " fill-opacity="1" fill-rule="nonzero"/><path fill="#11693a" d="M 708.925781 558.320312 C 708.972656 558.199219 709.023438 558.089844 709.070312 557.96875 C 709.726562 557.625 710.371094 557.273438 711.027344 556.921875 Z M 708.925781 558.320312 " fill-opacity="1" fill-rule="nonzero"/><path fill="#d07526" d="M 843.925781 750.691406 C 840.460938 750.691406 837.121094 750.546875 833.9375 750.230469 C 825.617188 749.050781 818.851562 747.035156 813.382812 744.4375 C 813.359375 744.4375 813.347656 744.425781 813.324219 744.414062 C 813.324219 744.414062 796.875 733.203125 792.066406 717.488281 C 790.984375 711.355469 791.359375 705.378906 792.148438 700.546875 C 792.148438 700.546875 792.148438 700.546875 792.148438 700.535156 C 796.886719 686.445312 802.171875 678.296875 805.71875 673.972656 C 806.582031 673.015625 807.457031 672.054688 808.367188 671.082031 C 809.316406 670.183594 809.863281 669.796875 809.863281 669.796875 C 809.863281 669.796875 827.925781 652.574219 848.929688 636.894531 C 855.621094 632.050781 861.492188 628.066406 865.488281 625.40625 C 869.484375 622.878906 873.445312 620.574219 877.269531 618.605469 C 907.019531 603.304688 908.734375 598.3125 908.734375 598.3125 C 908.734375 598.3125 926.894531 663.882812 952.671875 679.597656 C 956.679688 682.039062 962.78125 683.070312 970.191406 683.070312 C 1010.472656 683.070312 1090.015625 652.683594 1090.015625 652.683594 L 973.96875 718.496094 C 973.96875 718.496094 968.453125 720.753906 959.402344 724.070312 C 953.460938 725.976562 946.867188 728.238281 940.136719 730.785156 C 921.78125 736.859375 898.296875 743.707031 875.847656 747.582031 L 851.785156 750.460938 C 849.113281 750.605469 846.488281 750.691406 843.925781 750.691406 Z M 843.925781 750.691406 " fill-opacity="1" fill-rule="nonzero"/><path fill="#7e4825" d="M 851.785156 750.460938 L 875.847656 747.582031 C 867.578125 749.003906 859.472656 750.023438 851.785156 750.460938 Z M 833.9375 750.230469 C 825.933594 749.453125 818.910156 747.632812 813.382812 744.4375 C 818.851562 747.035156 825.617188 749.050781 833.9375 750.230469 Z M 792.066406 717.488281 C 790.460938 712.253906 790.144531 706.523438 792.148438 700.546875 C 791.359375 705.378906 790.984375 711.355469 792.066406 717.488281 Z M 805.71875 673.972656 C 806.777344 672.699219 807.675781 671.75 808.367188 671.082031 C 807.457031 672.054688 806.582031 673.015625 805.71875 673.972656 Z M 848.929688 636.894531 C 854.335938 632.863281 859.949219 628.917969 865.488281 625.40625 C 861.492188 628.066406 855.621094 632.050781 848.929688 636.894531 Z M 848.929688 636.894531 " fill-opacity="1" fill-rule="nonzero"/><path fill="#352649" d="M 1045.253906 819.894531 C 1052.988281 813.578125 1061.992188 806.132812 1071.320312 797.972656 C 1071.359375 797.984375 1071.394531 797.996094 1071.441406 797.996094 C 1062.453125 806.183594 1053.171875 814.136719 1045.253906 819.894531 Z M 1071.890625 797.582031 C 1071.855469 797.582031 1071.820312 797.570312 1071.78125 797.570312 C 1072.925781 796.5625 1074.066406 795.554688 1075.222656 794.535156 C 1074.117188 795.554688 1073.011719 796.574219 1071.890625 797.582031 Z M 1071.890625 797.582031 " fill-opacity="1" fill-rule="nonzero"/><path fill="#642f7f" d="M 1071.441406 797.996094 C 1071.394531 797.996094 1071.359375 797.984375 1071.320312 797.972656 C 1071.480469 797.839844 1071.625 797.703125 1071.78125 797.570312 C 1071.820312 797.570312 1071.855469 797.582031 1071.890625 797.582031 C 1071.746094 797.730469 1071.589844 797.863281 1071.441406 797.996094 Z M 1071.441406 797.996094 " fill-opacity="1" fill-rule="nonzero"/><path fill="#c92831" d="M 928.460938 850.730469 C 909.535156 850.730469 889.5625 848.820312 874.550781 839.179688 C 859.691406 829.621094 859.363281 815.21875 861.78125 804.699219 C 862.097656 803.863281 862.316406 803.414062 862.316406 803.414062 C 863.386719 799.234375 864.941406 795.179688 866.847656 791.269531 C 866.847656 791.253906 866.859375 791.242188 866.859375 791.242188 C 866.859375 791.242188 867.867188 789.324219 869.8125 786.203125 C 909.71875 763.457031 948.25 743.878906 983.808594 725.371094 C 983.457031 742.347656 985.300781 779.9375 1007.484375 792.796875 C 1011.808594 795.3125 1017.09375 796.378906 1022.960938 796.378906 C 1056.453125 796.378906 1108.859375 761.609375 1108.859375 761.609375 C 1108.859375 761.609375 1093.113281 777.96875 1075.222656 794.535156 C 1074.066406 795.554688 1072.925781 796.5625 1071.78125 797.570312 C 1071.625 797.703125 1071.480469 797.839844 1071.320312 797.972656 C 1061.992188 806.132812 1052.988281 813.578125 1045.25 819.894531 C 1045.25 819.894531 1045.238281 819.894531 1045.238281 819.894531 L 1006.183594 838.800781 C 991.800781 844.828125 976.519531 849.964844 966.21875 849.964844 C 966 849.964844 965.792969 849.964844 965.574219 849.964844 C 964.515625 849.9375 963.433594 849.925781 962.328125 849.925781 C 957.445312 849.925781 952.054688 850.121094 946.332031 850.328125 C 940.621094 850.523438 934.597656 850.730469 928.460938 850.730469 Z M 928.460938 850.730469 " fill-opacity="1" fill-rule="nonzero"/><path fill="#d07526" d="M 869.8125 786.203125 C 872.777344 781.453125 877.867188 773.925781 884.800781 766.066406 C 893.597656 756.679688 902.609375 749.636719 907.554688 746.027344 C 909.753906 744.609375 912.011719 743.285156 914.347656 742.082031 C 922.472656 737.878906 931.425781 734.089844 940.136719 730.785156 C 947.523438 728.347656 954.070312 726.027344 959.402344 724.070312 C 973.664062 719.480469 984.234375 716.867188 984.234375 716.867188 C 984.234375 716.867188 983.917969 720.148438 983.808594 725.371094 C 948.25 743.878906 909.71875 763.457031 869.8125 786.203125 Z M 869.8125 786.203125 " fill-opacity="1" fill-rule="nonzero"/><path fill="#7a2329" d="M 1006.183594 838.800781 L 1045.238281 819.894531 C 1045.238281 819.894531 1026.617188 830.253906 1006.183594 838.800781 Z M 861.78125 804.699219 C 863.507812 797.183594 866.628906 791.644531 866.847656 791.269531 C 864.941406 795.179688 863.386719 799.234375 862.316406 803.414062 C 862.316406 803.414062 862.097656 803.863281 861.78125 804.699219 Z M 861.78125 804.699219 " fill-opacity="1" fill-rule="nonzero"/><path fill="#7e4825" d="M 884.800781 766.066406 C 890.996094 759.046875 898.652344 751.785156 907.554688 746.027344 C 902.609375 749.636719 893.597656 756.679688 884.800781 766.066406 Z M 884.800781 766.066406 " fill-opacity="1" fill-rule="nonzero"/><path fill="#aa6028" d="M 940.136719 730.785156 C 946.867188 728.238281 953.460938 725.976562 959.402344 724.070312 C 954.070312 726.027344 947.523438 728.347656 940.136719 730.785156 Z M 940.136719 730.785156 " fill-opacity="1" fill-rule="nonzero"/><path fill="#cea420" d="M 614.996094 547.570312 C 611.074219 539.457031 608.167969 530.761719 606.117188 523.425781 C 604.78125 518.09375 603.710938 513.613281 602.96875 510.46875 C 602.679688 509.085938 602.460938 507.941406 602.3125 507.128906 Z M 795.367188 473.425781 C 798.296875 471.179688 799.742188 469.710938 799.742188 469.710938 C 798.902344 470.671875 798.078125 471.628906 797.25 472.566406 C 796.632812 472.867188 796 473.148438 795.367188 473.425781 Z M 795.367188 473.425781 " fill-opacity="1" fill-rule="nonzero"/><path fill="#14aa44" d="M 651.902344 575.273438 C 648.074219 575.273438 644.6875 574.957031 641.710938 574.433594 C 641.636719 574.421875 641.5625 574.398438 641.492188 574.386719 C 629.769531 571.667969 621.144531 560.296875 614.996094 547.570312 L 602.3125 507.128906 C 602.132812 506.183594 602.058594 505.660156 602.058594 505.660156 C 630.15625 489.617188 635.269531 472.566406 635.269531 472.566406 C 635.269531 472.566406 637.933594 473.875 642.667969 475.84375 C 675.191406 489.785156 702.511719 494.621094 724.765625 494.621094 C 762.984375 494.621094 786.28125 480.375 795.367188 473.425781 C 796 473.148438 796.632812 472.867188 797.253906 472.566406 C 778.96875 493.417969 761.5625 510.796875 745.296875 524.992188 C 736.839844 531.34375 728.359375 538.039062 721.679688 543.976562 C 693.582031 564.574219 669.953125 574.460938 652.582031 575.273438 C 652.351562 575.273438 652.132812 575.273438 651.902344 575.273438 Z M 651.902344 575.273438 " fill-opacity="1" fill-rule="nonzero"/><path fill="#0781af" d="M 606.117188 523.425781 C 604.644531 518.203125 603.613281 513.664062 602.96875 510.46875 C 603.710938 513.613281 604.78125 518.09375 606.117188 523.425781 Z M 606.117188 523.425781 " fill-opacity="1" fill-rule="nonzero"/><path fill="#11693a" d="M 650.285156 575.332031 C 647.210938 575.332031 644.347656 575.03125 641.710938 574.433594 C 644.6875 574.957031 648.074219 575.273438 651.902344 575.273438 C 652.132812 575.273438 652.351562 575.273438 652.582031 575.273438 C 651.804688 575.308594 651.039062 575.332031 650.285156 575.332031 Z M 650.285156 575.332031 " fill-opacity="1" fill-rule="nonzero"/><path fill="#1b5c35" d="M 642.667969 475.84375 C 637.933594 473.875 635.269531 472.566406 635.269531 472.566406 C 637.761719 473.707031 640.226562 474.800781 642.667969 475.84375 Z M 642.667969 475.84375 " fill-opacity="1" fill-rule="nonzero"/><path fill="#158d43" d="M 721.679688 543.976562 C 728.359375 538.039062 736.839844 531.34375 745.296875 524.992188 C 737.121094 532.109375 729.234375 538.425781 721.679688 543.976562 Z M 721.679688 543.976562 " fill-opacity="1" fill-rule="nonzero"/><path fill="#884997" d="M 803.667969 444.765625 C 779.589844 444.765625 756.035156 441.597656 733.609375 436.386719 C 737.132812 436.496094 740.703125 436.554688 744.347656 436.554688 C 771.207031 436.554688 801.25 433.398438 834.632812 425.710938 C 834.632812 425.710938 831.070312 434.140625 821.839844 444.160156 C 815.753906 444.570312 809.703125 444.765625 803.667969 444.765625 Z M 803.667969 444.765625 " fill-opacity="1" fill-rule="nonzero"/><path fill="#0885b5" d="M 738.566406 476.683594 C 733.304688 476.683594 727.8125 476.535156 722.140625 476.183594 C 695.148438 473.765625 662.214844 465.109375 622.175781 446.574219 C 622.175781 446.574219 565.710938 414.707031 564.632812 369.417969 C 564.632812 369.417969 617.304688 432.65625 733.609375 436.386719 C 756.035156 441.597656 779.589844 444.765625 803.667969 444.765625 C 809.703125 444.765625 815.753906 444.570312 821.839844 444.160156 C 809.628906 457.410156 787.496094 473.4375 750.53125 476.425781 C 746.691406 476.597656 742.707031 476.683594 738.566406 476.683594 Z M 738.566406 476.683594 " fill-opacity="1" fill-rule="nonzero"/><path fill="#0b4a61" d="M 738.066406 476.925781 C 733.015625 476.925781 727.703125 476.683594 722.140625 476.183594 C 727.8125 476.535156 733.304688 476.683594 738.566406 476.683594 C 742.707031 476.683594 746.691406 476.597656 750.53125 476.425781 C 746.546875 476.753906 742.402344 476.925781 738.066406 476.925781 Z M 622.175781 446.574219 Z M 622.175781 446.574219 " fill-opacity="1" fill-rule="nonzero"/><path fill="#fbe724" d="M 790.972656 382.355469 C 790.496094 382.027344 790.011719 381.699219 789.515625 381.359375 C 748.914062 349.878906 704.832031 326.523438 686.351562 317.28125 C 686.511719 316.953125 686.695312 316.578125 686.898438 316.1875 C 731.226562 337.976562 765.972656 362.144531 790.972656 382.355469 Z M 790.972656 382.355469 " fill-opacity="1" fill-rule="nonzero"/><path fill="#6bb941" d="M 802.183594 390.066406 C 802.183594 390.066406 798.003906 387.113281 790.972656 382.355469 C 765.972656 362.144531 731.226562 337.976562 686.898438 316.1875 C 693.167969 303.605469 715.738281 261.027344 743.195312 240.40625 C 755.730469 230.992188 770.707031 226.644531 785.699219 226.644531 C 809.484375 226.644531 833.292969 237.574219 847.3125 256.484375 C 870.1875 287.320312 802.183594 390.066406 802.183594 390.066406 Z M 802.183594 390.066406 " fill-opacity="1" fill-rule="nonzero"/><path fill="#ae6eaa" d="M 789.515625 381.359375 C 767.515625 366.492188 721.15625 336.203125 685.152344 319.757812 C 685.152344 319.757812 685.5625 318.871094 686.351562 317.28125 C 704.832031 326.523438 748.914062 349.878906 789.515625 381.359375 Z M 789.515625 381.359375 " fill-opacity="1" fill-rule="nonzero"/><path fill="#fbe724" d="M 881.632812 537.78125 C 836.539062 537.78125 806.617188 494.765625 806.617188 494.765625 C 806.617188 494.765625 883.199219 402.84375 905.660156 370.683594 C 919.046875 351.519531 941.21875 338.425781 964.785156 338.425781 C 980.757812 338.425781 997.378906 344.4375 1012.34375 358.648438 C 1049.382812 393.804688 942.578125 529.742188 891.847656 537.054688 C 888.375 537.550781 884.960938 537.78125 881.632812 537.78125 Z M 881.632812 537.78125 " fill-opacity="1" fill-rule="nonzero"/><path fill="#fccb17" d="M 975.132812 650.132812 C 971.429688 650.132812 968.269531 649.707031 965.78125 648.835938 C 938.144531 639.046875 930.695312 601.6875 930.695312 601.6875 C 930.695312 601.6875 1019.023438 515.289062 1041.28125 508.671875 C 1044.597656 507.6875 1048.761719 507.175781 1053.425781 507.175781 C 1080.082031 507.175781 1122.851562 523.890625 1113.886719 564.246094 C 1104.289062 607.371094 1012.441406 650.132812 975.132812 650.132812 Z M 975.132812 650.132812 " fill-opacity="1" fill-rule="nonzero"/><path fill="#e84956" d="M 1042.421875 757.578125 C 1019.621094 757.578125 1000.644531 747.851562 997.800781 721.472656 C 997.800781 721.472656 1049.636719 692.410156 1078.320312 671.898438 C 1082.617188 669.066406 1086.808594 666.214844 1090.890625 663.335938 C 1097.171875 664.753906 1126.960938 673.125 1131.613281 704.699219 C 1134.929688 727.265625 1082.691406 757.578125 1042.421875 757.578125 Z M 1042.421875 757.578125 " fill-opacity="1" fill-rule="nonzero"/><path fill="#efe904" d="M 1078.320312 671.898438 C 1082.777344 668.703125 1086.675781 665.726562 1089.726562 663.09375 C 1089.726562 663.09375 1090.140625 663.164062 1090.890625 663.335938 C 1086.808594 666.214844 1082.617188 669.066406 1078.320312 671.898438 Z M 1078.320312 671.898438 " fill-opacity="1" fill-rule="nonzero"/><path fill="#61307a" d="M 393.941406 370.027344 C 405.300781 358.648438 423.8125 340.988281 445.667969 323.574219 L 446.089844 324.253906 C 427.515625 338.753906 409.585938 354.589844 393.941406 370.027344 Z M 447.671875 323.027344 L 447.222656 322.335938 C 468.1875 305.757812 492.121094 289.519531 515.722656 279.230469 L 515.855469 279.558594 C 494.269531 289.738281 470.519531 305.332031 447.671875 323.027344 Z M 517.351562 278.867188 L 517.230469 278.589844 C 520.011719 277.410156 522.757812 276.316406 525.515625 275.308594 C 522.84375 276.402344 520.121094 277.582031 517.351562 278.867188 Z M 594.769531 276.097656 C 589.15625 274.082031 583.628906 272.238281 578.335938 270.621094 C 583.507812 271.992188 589.035156 273.890625 594.769531 276.097656 Z M 594.769531 276.097656 " fill-opacity="1" fill-rule="nonzero"/><path fill="#924c98" d="M 446.089844 324.253906 L 445.667969 323.574219 C 446.1875 323.160156 446.699219 322.746094 447.222656 322.335938 L 447.671875 323.027344 C 447.148438 323.4375 446.625 323.839844 446.089844 324.253906 Z M 446.089844 324.253906 " fill-opacity="1" fill-rule="nonzero"/><path fill="#924c98" d="M 515.855469 279.558594 L 515.722656 279.234375 C 516.222656 279.027344 516.730469 278.808594 517.230469 278.589844 L 517.351562 278.867188 C 516.851562 279.097656 516.355469 279.328125 515.855469 279.558594 Z M 515.855469 279.558594 " fill-opacity="1" fill-rule="nonzero"/><path fill="#ae6eaa" d="M 810.335938 407.894531 C 794.019531 407.894531 743.765625 397.839844 676.136719 359.679688 C 625.042969 330.835938 599.679688 316.941406 577.835938 316.941406 C 562.445312 316.941406 548.800781 323.851562 529.148438 337.296875 C 494.453125 361.015625 451.703125 402.695312 416.730469 402.695312 C 403.78125 402.695312 391.898438 396.988281 381.890625 382.523438 C 381.890625 382.523438 386.289062 377.703125 393.941406 370.027344 C 409.585938 354.589844 427.515625 338.753906 446.089844 324.253906 C 446.625 323.839844 447.148438 323.4375 447.671875 323.027344 C 470.519531 305.332031 494.269531 289.738281 515.855469 279.558594 C 516.355469 279.328125 516.851562 279.097656 517.351562 278.867188 C 520.121094 277.582031 522.84375 276.402344 525.515625 275.308594 C 537.734375 270.875 549.738281 268.253906 561.058594 268.253906 C 562.773438 268.253906 564.472656 268.3125 566.160156 268.449219 C 569.925781 268.714844 574.007812 269.480469 578.335938 270.621094 C 583.628906 272.238281 589.15625 274.082031 594.769531 276.097656 C 603.285156 279.378906 612.289062 283.347656 621.363281 287.308594 C 702.777344 322.785156 810.84375 401.398438 815.609375 405.816406 C 816.933594 407.054688 815.046875 407.894531 810.335938 407.894531 Z M 810.335938 407.894531 " fill-opacity="1" fill-rule="nonzero"/><path fill="#fbe724" d="M 630.921875 972.347656 C 626.71875 958.199219 629.707031 944.253906 642.667969 933.277344 C 648.292969 928.503906 656.941406 916.992188 666.890625 902.101562 C 657.027344 921.570312 644.855469 945.324219 630.921875 972.347656 Z M 630.921875 972.347656 " fill-opacity="1" fill-rule="nonzero"/><path fill="#e84147" d="M 727.996094 1038.109375 C 725.140625 1038.109375 722.421875 1037.878906 719.84375 1037.417969 C 706.519531 1034.988281 693.8125 1030.59375 682.367188 1024.871094 C 731.289062 940.769531 781.691406 872.066406 820.917969 829.390625 C 824.597656 858.5 847.035156 901.480469 946.949219 903.242188 C 946.949219 903.242188 797.835938 1038.109375 727.996094 1038.109375 Z M 788.03125 897.800781 C 783.925781 897.800781 778.117188 903.863281 771.242188 910.992188 C 762.738281 919.808594 755.816406 926.925781 759.835938 930.800781 C 760.882812 931.808594 762.328125 932.28125 764.0625 932.28125 C 769.007812 932.28125 776.210938 928.394531 782.515625 921.859375 C 791.019531 913.042969 794.652344 902.757812 790.632812 898.882812 C 789.867188 898.140625 788.992188 897.800781 788.03125 897.800781 Z M 788.03125 897.800781 " fill-opacity="1" fill-rule="nonzero"/><path fill="#fccb17" d="M 682.367188 1024.871094 C 656.324219 1011.851562 636.730469 991.910156 630.921875 972.347656 C 644.855469 945.324219 657.027344 921.570312 666.890625 902.101562 C 699.984375 852.660156 747.617188 766.042969 747.617188 766.042969 C 747.617188 766.042969 784.800781 804.433594 813.261719 804.433594 C 816.335938 804.433594 819.300781 803.984375 822.117188 803 C 822.117188 803 819.007812 814.332031 820.917969 829.390625 C 781.691406 872.066406 731.289062 940.769531 682.367188 1024.871094 Z M 682.367188 1024.871094 " fill-opacity="1" fill-rule="nonzero"/><path fill="#fccb17" d="M 764.0625 932.28125 C 762.328125 932.28125 760.882812 931.808594 759.835938 930.800781 C 755.816406 926.925781 762.738281 919.808594 771.242188 910.992188 C 778.117188 903.863281 783.925781 897.800781 788.03125 897.800781 C 788.992188 897.800781 789.867188 898.140625 790.632812 898.882812 C 794.652344 902.757812 791.019531 913.042969 782.515625 921.859375 C 776.210938 928.394531 769.007812 932.28125 764.0625 932.28125 Z M 764.0625 932.28125 " fill-opacity="1" fill-rule="nonzero"/><path fill="#fbe724" d="M 572.550781 958.902344 C 579.851562 946.902344 585.71875 937.589844 589.851562 931.515625 C 603.117188 912.023438 615.265625 884.769531 626.234375 854.226562 C 625.867188 866.214844 625.1875 877.460938 624.167969 887.648438 C 619.332031 935.679688 596.363281 953.65625 572.550781 958.902344 Z M 448.097656 845.277344 C 448.316406 844.730469 448.535156 844.195312 448.753906 843.648438 C 448.546875 844.183594 448.316406 844.742188 448.097656 845.277344 Z M 503.042969 647.085938 C 503.066406 646.378906 503.089844 645.675781 503.113281 644.972656 C 503.101562 645.6875 503.078125 646.394531 503.042969 647.085938 Z M 503.042969 647.085938 " fill-opacity="1" fill-rule="nonzero"/><path fill="#6bb941" d="M 554.949219 960.722656 C 532.402344 960.722656 513.136719 952.734375 513.136719 952.734375 C 504.800781 947.0625 497.003906 940.792969 489.75 934.015625 C 512.746094 890.054688 529.695312 858.027344 537.214844 844.511719 C 565.480469 793.695312 595.875 709.910156 614.351562 655.308594 C 622.210938 715.070312 628.078125 794.097656 626.234375 854.226562 C 615.265625 884.769531 603.117188 912.023438 589.851562 931.515625 C 585.71875 937.589844 579.851562 946.902344 572.550781 958.902344 C 566.648438 960.214844 560.695312 960.722656 554.949219 960.722656 Z M 554.949219 960.722656 " fill-opacity="1" fill-rule="nonzero"/><path fill="#ae6eaa" d="M 439.847656 865.507812 C 359.9375 705.71875 407.945312 446.210938 407.945312 446.210938 C 418.042969 453.304688 429.121094 456.230469 440.527344 456.230469 C 469.730469 456.21875 501.023438 437.078125 523.035156 420.085938 C 512.273438 464.039062 502.796875 532.269531 503.113281 635.972656 C 503.125 638.753906 503.1875 641.921875 503.113281 644.972656 C 503.089844 645.675781 503.066406 646.378906 503.042969 647.085938 C 500.488281 696.832031 479.960938 765.53125 448.753906 843.648438 C 448.535156 844.195312 448.316406 844.730469 448.097656 845.277344 C 445.421875 851.957031 442.664062 858.707031 439.847656 865.507812 Z M 489.582031 630.957031 C 487.019531 630.957031 486.789062 635.65625 486.472656 641.425781 C 486.144531 647.28125 485.863281 652.027344 488.535156 652.171875 C 488.574219 652.171875 488.621094 652.171875 488.65625 652.171875 C 491.28125 652.171875 493.640625 647.59375 493.953125 641.839844 C 494.28125 635.972656 492.375 631.101562 489.703125 630.957031 C 489.667969 630.957031 489.617188 630.957031 489.582031 630.957031 Z M 476.449219 573.125 C 471.117188 573.125 470.605469 582.925781 469.9375 594.972656 C 469.269531 607.191406 468.6875 617.113281 474.261719 617.414062 C 474.347656 617.414062 474.433594 617.425781 474.519531 617.425781 C 479.996094 617.425781 484.917969 607.871094 485.574219 595.835938 C 486.253906 583.605469 482.28125 573.4375 476.703125 573.136719 C 476.621094 573.125 476.535156 573.125 476.449219 573.125 Z M 476.449219 573.125 " fill-opacity="1" fill-rule="nonzero"/><path fill="#43bddb" d="M 489.75 934.015625 C 469.222656 914.839844 452.847656 891.5 439.847656 865.507812 C 442.664062 858.707031 445.421875 851.957031 448.097656 845.277344 C 448.316406 844.742188 448.546875 844.183594 448.753906 843.648438 C 479.960938 765.53125 500.488281 696.832031 503.042969 647.085938 C 503.078125 646.394531 503.101562 645.6875 503.113281 644.972656 C 503.1875 641.921875 503.125 638.753906 503.113281 635.972656 C 502.796875 532.269531 512.273438 464.039062 523.035156 420.085938 C 540.601562 406.535156 552.265625 394.351562 552.265625 394.351562 C 552.203125 420.632812 609.042969 453.886719 609.042969 453.886719 C 582.5 540.613281 515.285156 544.121094 515.285156 544.121094 C 542.277344 568.519531 560.695312 574.945312 573.039062 574.945312 C 583.242188 574.945312 589.292969 570.5625 592.609375 568.3125 C 592.910156 568.109375 593.226562 568 593.554688 568 C 599.617188 568 607.695312 604.773438 614.351562 655.308594 C 595.875 709.910156 565.480469 793.695312 537.214844 844.511719 C 529.695312 858.027344 512.746094 890.054688 489.75 934.015625 Z M 489.75 934.015625 " fill-opacity="1" fill-rule="nonzero"/><path fill="#43bddb" d="M 474.519531 617.425781 C 474.433594 617.425781 474.347656 617.414062 474.261719 617.414062 C 468.6875 617.113281 469.269531 607.191406 469.9375 594.972656 C 470.605469 582.925781 471.117188 573.125 476.449219 573.125 C 476.535156 573.125 476.621094 573.125 476.703125 573.136719 C 482.28125 573.4375 486.253906 583.605469 485.574219 595.835938 C 484.917969 607.871094 479.996094 617.425781 474.519531 617.425781 Z M 474.519531 617.425781 " fill-opacity="1" fill-rule="nonzero"/><path fill="#43bddb" d="M 488.65625 652.175781 C 488.621094 652.175781 488.574219 652.175781 488.535156 652.175781 C 485.863281 652.027344 486.144531 647.28125 486.472656 641.425781 C 486.789062 635.65625 487.019531 630.957031 489.582031 630.957031 C 489.617188 630.957031 489.667969 630.957031 489.703125 630.957031 C 492.375 631.101562 494.28125 635.972656 493.953125 641.839844 C 493.636719 647.59375 491.28125 652.175781 488.65625 652.175781 Z M 488.65625 652.175781 " fill-opacity="1" fill-rule="nonzero"/><path fill="#fbe724" d="M 355.089844 1499.976562 L 265.730469 1499.976562 C 350.902344 1346.902344 469.574219 1134.757812 539.289062 1015.070312 C 550.371094 1014.292969 561.996094 1012.351562 574.203125 1009.035156 C 574.203125 1009.035156 582.988281 1022.261719 597.6875 1036.554688 C 528.515625 1169.832031 434.210938 1349.585938 355.089844 1499.976562 Z M 197.339844 1499.976562 L 196.792969 1499.976562 C 240.464844 1415.230469 296.257812 1307.054688 350.171875 1202.804688 C 350.109375 1202.925781 350.039062 1203.058594 349.976562 1203.183594 C 293.828125 1312.996094 239.539062 1418.351562 197.339844 1499.976562 Z M 117.722656 1474.386719 C 127.707031 1457.589844 138.179688 1440.003906 148.917969 1421.96875 C 138.019531 1440.429688 127.585938 1457.941406 117.722656 1474.386719 Z M 117.722656 1474.386719 " fill-opacity="1" fill-rule="nonzero"/><path fill="#e84147" d="M 472.113281 1499.976562 L 443.589844 1499.976562 C 506.941406 1362.507812 583.484375 1203.703125 656.710938 1070.453125 C 660.296875 1071.09375 663.953125 1071.484375 667.65625 1071.570312 Z M 472.113281 1499.976562 " fill-opacity="1" fill-rule="nonzero"/><path fill="#fccb17" d="M 443.589844 1499.976562 L 355.089844 1499.976562 C 434.210938 1349.585938 528.515625 1169.832031 597.6875 1036.554688 C 612.398438 1050.863281 633.035156 1066.238281 656.710938 1070.453125 C 583.484375 1203.703125 506.941406 1362.507812 443.589844 1499.976562 Z M 443.589844 1499.976562 " fill-opacity="1" fill-rule="nonzero"/><path fill="#6bb941" d="M 265.730469 1499.976562 L 197.339844 1499.976562 C 239.539062 1418.351562 293.828125 1312.996094 349.976562 1203.183594 C 350.039062 1203.058594 350.109375 1202.925781 350.171875 1202.804688 C 388.183594 1129.316406 425.257812 1057.773438 456.492188 997.753906 C 476.605469 1008.308594 500.394531 1015.472656 527.894531 1015.472656 C 531.636719 1015.472656 535.425781 1015.351562 539.289062 1015.070312 C 469.574219 1134.757812 350.902344 1346.902344 265.730469 1499.976562 Z M 265.730469 1499.976562 " fill-opacity="1" fill-rule="nonzero"/><path fill="#ae6eaa" d="M 102.390625 1499.976562 L 1.148438 1499.976562 C 73.890625 1420.246094 271.539062 1187.683594 372.683594 912.289062 C 372.683594 912.289062 382.109375 931.40625 401.15625 953.183594 C 327.003906 1112.859375 226.503906 1290.660156 148.917969 1421.96875 C 138.179688 1440.003906 127.707031 1457.589844 117.722656 1474.386719 C 117.660156 1474.472656 117.597656 1474.582031 117.539062 1474.679688 C 112.289062 1483.421875 107.25 1491.863281 102.390625 1499.976562 Z M 102.390625 1499.976562 " fill-opacity="1" fill-rule="nonzero"/><path fill="#43bddb" d="M 196.792969 1499.976562 L 102.390625 1499.976562 C 107.25 1491.863281 112.289062 1483.421875 117.539062 1474.679688 C 117.597656 1474.582031 117.660156 1474.472656 117.722656 1474.386719 C 127.585938 1457.941406 138.019531 1440.429688 148.917969 1421.96875 C 226.503906 1290.660156 327.003906 1112.859375 401.15625 953.183594 C 414.703125 968.667969 433.117188 985.5 456.492188 997.753906 C 425.257812 1057.773438 388.183594 1129.316406 350.171875 1202.804688 C 296.257812 1307.054688 240.464844 1415.230469 196.792969 1499.976562 Z M 196.792969 1499.976562 " fill-opacity="1" fill-rule="nonzero"/><path fill="#3f2a56" d="M 619.273438 285.523438 C 619.273438 285.523438 723.878906 328.40625 778.324219 368.691406 C 814.285156 395.277344 840.425781 425.746094 840.425781 425.746094 C 840.425781 425.746094 813.785156 508.332031 696.132812 477.582031 C 579.972656 447.207031 573.230469 399.5625 573.230469 399.5625 C 573.230469 399.5625 594.574219 442.347656 663.441406 462.714844 C 771.558594 494.691406 813.929688 465.789062 834.632812 425.710938 C 834.632812 425.710938 799.328125 372.746094 619.273438 285.523438 Z M 619.273438 285.523438 " fill-opacity="1" fill-rule="nonzero"/><path fill="#3f2a56" d="M 880.878906 354.054688 C 880.878906 354.054688 831.328125 465.886719 720.0625 539.519531 C 720.0625 539.519531 666.40625 584.359375 638.601562 570.5625 C 610.792969 556.777344 602.835938 507.347656 602.835938 507.347656 C 602.835938 507.347656 605.617188 565.835938 639.828125 578.746094 C 674.023438 591.65625 733.304688 540.136719 733.304688 540.136719 C 733.304688 540.136719 835.675781 469.675781 880.878906 354.054688 Z M 880.878906 354.054688 " fill-opacity="1" fill-rule="nonzero"/><path fill="#3f2a56" d="M 708.925781 558.320312 C 708.925781 558.320312 688.175781 606.523438 712.859375 630.410156 C 737.542969 654.300781 829.664062 627.445312 854.6875 619.566406 C 879.710938 611.683594 1025.339844 492.265625 1025.339844 492.265625 C 1025.339844 492.265625 915.171875 610.601562 855.355469 628.019531 C 795.550781 645.445312 730.535156 665.15625 707.671875 635.949219 C 684.8125 606.742188 708.925781 558.320312 708.925781 558.320312 Z M 708.925781 558.320312 " fill-opacity="1" fill-rule="nonzero"/><path fill="#3f2a56" d="M 1090.015625 652.683594 C 1093.589844 650.351562 1006.765625 704.75 920.433594 732.558594 C 850.070312 755.234375 819.640625 755.636719 798.394531 724.800781 C 777.148438 693.964844 816.75 663.273438 816.75 663.273438 C 816.75 663.273438 777.390625 691.4375 791.832031 728.734375 C 803.289062 758.257812 853.191406 760.007812 918.039062 743.914062 C 982.882812 727.8125 1090.015625 652.683594 1090.015625 652.683594 Z M 1090.015625 652.683594 " fill-opacity="1" fill-rule="nonzero"/><path fill="#3f2a56" d="M 873.066406 780.519531 C 873.066406 780.519531 854.75 809.59375 864.503906 829.050781 C 874.257812 848.507812 954.289062 854.152344 981.28125 845.566406 C 1010.21875 836.375 1047.160156 818.328125 1047.160156 818.328125 C 1047.160156 818.328125 1018.039062 840.261719 977.722656 852.746094 C 941.339844 864.015625 873.941406 854.03125 860.058594 834.550781 C 846.171875 815.082031 873.066406 780.519531 873.066406 780.519531 Z M 873.066406 780.519531 " fill-opacity="1" fill-rule="nonzero"/><path fill="#3f2a56" d="M 608.167969 537.042969 C 606.613281 534.320312 694.054688 759.921875 645.097656 924.011719 C 645.097656 924.011719 722.675781 738.351562 608.167969 537.042969 Z M 608.167969 537.042969 " fill-opacity="1" fill-rule="nonzero"/><path fill="#3f2a56" d="M 370.921875 848.082031 C 370.921875 848.082031 376.945312 977.738281 525.355469 992.894531 C 525.355469 992.894531 400.34375 967.695312 370.921875 848.082031 Z M 370.921875 848.082031 " fill-opacity="1" fill-rule="nonzero"/><path fill="#3f2a56" d="M 611.691406 991.339844 C 611.691406 991.339844 616.125 1023.851562 689.535156 1054.859375 C 689.535156 1054.859375 629.902344 1060.175781 611.691406 991.339844 Z M 611.691406 991.339844 " fill-opacity="1" fill-rule="nonzero"/><path fill="#3f2a56" d="M 618.363281 446.417969 C 618.363281 446.417969 611.800781 530.738281 542.21875 543.320312 C 542.21875 543.320312 609.3125 541.253906 625.917969 451.054688 Z M 618.363281 446.417969 " fill-opacity="1" fill-rule="nonzero"/><path fill="#3f2a56" d="M 860.25 617.085938 C 860.25 617.085938 792.039062 580.3125 781.640625 531.101562 C 781.640625 531.101562 789.429688 593.964844 854.6875 619.566406 Z M 860.25 617.085938 " fill-opacity="1" fill-rule="nonzero"/><path fill="#3f2a56" d="M 932.09375 728.648438 C 932.09375 728.648438 900.132812 691.644531 893.523438 659.132812 C 893.523438 659.132812 896.304688 709.289062 925.472656 730.910156 Z M 932.09375 728.648438 " fill-opacity="1" fill-rule="nonzero"/><path fill="#3f2a56" d="M 951.773438 849.378906 C 951.773438 849.378906 928.921875 817.972656 933.808594 781.964844 C 933.808594 781.964844 943.34375 829.425781 964.078125 848.664062 Z M 951.773438 849.378906 " fill-opacity="1" fill-rule="nonzero"/><path fill="#3f2a56" d="M 756.714844 515.046875 C 754.46875 514.113281 698.429688 484.40625 677.402344 469.503906 C 677.402344 469.503906 713.808594 509.132812 748.164062 522.46875 Z M 756.714844 515.046875 " fill-opacity="1" fill-rule="nonzero"/><path fill="#3f2a56" d="M 635.816406 629.753906 C 635.816406 629.753906 652.605469 712.96875 616.84375 802.441406 C 616.84375 802.441406 654.695312 712.945312 647.054688 657.90625 Z M 635.816406 629.753906 " fill-opacity="1" fill-rule="nonzero"/><path fill="#3f2a56" d="M 618.363281 446.417969 C 618.363281 446.417969 603.382812 449.246094 575.359375 426.234375 C 575.359375 426.234375 599.351562 451.917969 619.273438 449.988281 Z M 618.363281 446.417969 " fill-opacity="1" fill-rule="nonzero"/><path fill="#3f2a56" d="M 602.3125 508.453125 C 602.3125 508.453125 594.40625 529.160156 572.953125 566.25 L 603.855469 513.992188 Z M 602.3125 508.453125 " fill-opacity="1" fill-rule="nonzero"/><path fill="#78358d" d="M 221.925781 478.976562 C 214.722656 478.976562 208.878906 473.136719 208.878906 465.933594 C 208.878906 458.746094 214.722656 452.902344 221.925781 452.902344 C 229.128906 452.902344 234.972656 458.746094 234.972656 465.933594 C 234.972656 473.136719 229.128906 478.976562 221.925781 478.976562 Z M 221.925781 478.976562 " fill-opacity="1" fill-rule="nonzero"/><path fill="#78358d" d="M 269.835938 514.695312 C 266.859375 514.695312 264.457031 512.277344 264.457031 509.304688 C 264.457031 506.328125 266.859375 503.921875 269.835938 503.921875 C 272.8125 503.921875 275.230469 506.328125 275.230469 509.304688 C 275.230469 512.277344 272.8125 514.695312 269.835938 514.695312 Z M 269.835938 514.695312 " fill-opacity="1" fill-rule="nonzero"/><path fill="#78358d" d="M 219.09375 760.164062 C 213.445312 760.164062 208.878906 755.597656 208.878906 749.964844 C 208.878906 744.328125 213.445312 739.761719 219.09375 739.761719 C 224.730469 739.761719 229.300781 744.328125 229.300781 749.964844 C 229.300781 755.597656 224.730469 760.164062 219.09375 760.164062 Z M 219.09375 760.164062 " fill-opacity="1" fill-rule="nonzero"/><path fill="#78358d" d="M 219.09375 879.21875 C 213.445312 879.21875 208.878906 874.652344 208.878906 869.019531 C 208.878906 863.382812 213.445312 858.816406 219.09375 858.816406 C 224.730469 858.816406 229.300781 863.382812 229.300781 869.019531 C 229.300781 874.652344 224.730469 879.21875 219.09375 879.21875 Z M 219.09375 879.21875 " fill-opacity="1" fill-rule="nonzero"/><path fill="#78358d" d="M 541.1875 193.246094 C 534.917969 193.246094 529.839844 188.171875 529.839844 181.902344 C 529.839844 175.648438 534.917969 170.574219 541.1875 170.574219 C 547.453125 170.574219 552.53125 175.648438 552.53125 181.902344 C 552.53125 188.171875 547.453125 193.246094 541.1875 193.246094 Z M 541.1875 193.246094 " fill-opacity="1" fill-rule="nonzero"/><path fill="#78358d" d="M 649.21875 217.621094 C 645.925781 217.621094 643.253906 214.960938 643.253906 211.671875 C 643.253906 208.390625 645.925781 205.71875 649.21875 205.71875 C 652.496094 205.71875 655.167969 208.390625 655.167969 211.671875 C 655.167969 214.960938 652.496094 217.621094 649.21875 217.621094 Z M 649.21875 217.621094 " fill-opacity="1" fill-rule="nonzero"/><path fill="#78358d" d="M 768.582031 156.972656 C 761.378906 156.972656 755.535156 151.128906 755.535156 143.925781 C 755.535156 136.726562 761.378906 130.882812 768.582031 130.882812 C 775.785156 130.882812 781.617188 136.726562 781.617188 143.925781 C 781.617188 151.128906 775.785156 156.972656 768.582031 156.972656 Z M 768.582031 156.972656 " fill-opacity="1" fill-rule="nonzero"/><path fill="#78358d" d="M 1048.714844 299.828125 C 1044.644531 299.828125 1041.339844 296.527344 1041.339844 292.457031 C 1041.339844 288.390625 1044.644531 285.085938 1048.714844 285.085938 C 1052.785156 285.085938 1056.089844 288.390625 1056.089844 292.457031 C 1056.089844 296.527344 1052.785156 299.828125 1048.714844 299.828125 Z M 1048.714844 299.828125 " fill-opacity="1" fill-rule="nonzero"/><path fill="#78358d" d="M 1129.523438 395.640625 C 1126.546875 395.640625 1124.128906 393.222656 1124.128906 390.246094 C 1124.128906 387.285156 1126.546875 384.867188 1129.523438 384.867188 C 1132.5 384.867188 1134.902344 387.285156 1134.902344 390.246094 C 1134.902344 393.222656 1132.5 395.640625 1129.523438 395.640625 Z M 1129.523438 395.640625 " fill-opacity="1" fill-rule="nonzero"/><path fill="#78358d" d="M 1217.414062 325.347656 C 1215.382812 325.347656 1213.730469 323.695312 1213.730469 321.652344 C 1213.730469 319.625 1215.382812 317.972656 1217.414062 317.972656 C 1219.453125 317.972656 1221.105469 319.625 1221.105469 321.652344 C 1221.105469 323.695312 1219.453125 325.347656 1217.414062 325.347656 Z M 1217.414062 325.347656 " fill-opacity="1" fill-rule="nonzero"/><path fill="#78358d" d="M 1201.253906 571.945312 C 1194.367188 571.945312 1188.78125 566.371094 1188.78125 559.484375 C 1188.78125 552.585938 1194.367188 547.011719 1201.253906 547.011719 C 1208.144531 547.011719 1213.730469 552.585938 1213.730469 559.484375 C 1213.730469 566.371094 1208.144531 571.945312 1201.253906 571.945312 Z M 1201.253906 571.945312 " fill-opacity="1" fill-rule="nonzero"/><path fill="#78358d" d="M 1243.214844 664.925781 C 1238.828125 664.925781 1235.28125 661.378906 1235.28125 656.996094 C 1235.28125 652.609375 1238.828125 649.050781 1243.214844 649.050781 C 1247.601562 649.050781 1251.160156 652.609375 1251.160156 656.996094 C 1251.160156 661.378906 1247.601562 664.925781 1243.214844 664.925781 Z M 1243.214844 664.925781 " fill-opacity="1" fill-rule="nonzero"/><path fill="#78358d" d="M 1207.5 789.652344 C 1204.050781 789.652344 1201.253906 786.859375 1201.253906 783.410156 C 1201.253906 779.972656 1204.050781 777.179688 1207.5 777.179688 C 1210.9375 777.179688 1213.730469 779.972656 1213.730469 783.410156 C 1213.730469 786.859375 1210.9375 789.652344 1207.5 789.652344 Z M 1207.5 789.652344 " fill-opacity="1" fill-rule="nonzero"/><path fill="#78358d" d="M 820.1875 1101.457031 C 815.800781 1101.457031 812.242188 1097.898438 812.242188 1093.527344 C 812.242188 1089.140625 815.800781 1085.585938 820.1875 1085.585938 C 824.558594 1085.585938 828.121094 1089.140625 828.121094 1093.527344 C 828.121094 1097.898438 824.558594 1101.457031 820.1875 1101.457031 Z M 820.1875 1101.457031 " fill-opacity="1" fill-rule="nonzero"/><path fill="#78358d" d="M 808.839844 1134.332031 C 806.957031 1134.332031 805.441406 1132.816406 805.441406 1130.933594 C 805.441406 1129.0625 806.957031 1127.53125 808.839844 1127.53125 C 810.722656 1127.53125 812.242188 1129.0625 812.242188 1130.933594 C 812.242188 1132.816406 810.722656 1134.332031 808.839844 1134.332031 Z M 808.839844 1134.332031 " fill-opacity="1" fill-rule="nonzero"/><path fill="#78358d" d="M 918.574219 1119.03125 C 916.214844 1119.03125 914.320312 1117.125 914.320312 1114.78125 C 914.320312 1112.4375 916.214844 1110.53125 918.574219 1110.53125 C 920.917969 1110.53125 922.824219 1112.4375 922.824219 1114.78125 C 922.824219 1117.125 920.917969 1119.03125 918.574219 1119.03125 Z M 918.574219 1119.03125 " fill-opacity="1" fill-rule="nonzero"/><path fill="#78358d" d="M 737.386719 1162.121094 C 733.949219 1162.121094 731.15625 1159.328125 731.15625 1155.878906 C 731.15625 1152.441406 733.949219 1149.648438 737.386719 1149.648438 C 740.835938 1149.648438 743.632812 1152.441406 743.632812 1155.878906 C 743.632812 1159.328125 740.835938 1162.121094 737.386719 1162.121094 Z M 737.386719 1162.121094 " fill-opacity="1" fill-rule="nonzero"/><path fill="#78358d" d="M 1118.601562 855.417969 C 1116.488281 855.417969 1114.773438 853.703125 1114.773438 851.589844 C 1114.773438 849.476562 1116.488281 847.765625 1118.601562 847.765625 C 1120.714844 847.765625 1122.429688 849.476562 1122.429688 851.589844 C 1122.429688 853.703125 1120.714844 855.417969 1118.601562 855.417969 Z M 1118.601562 855.417969 " fill-opacity="1" fill-rule="nonzero"/><path fill="#78358d" d="M 1087.695312 915.21875 C 1084.332031 915.21875 1081.597656 912.484375 1081.597656 909.121094 C 1081.597656 905.769531 1084.332031 903.035156 1087.695312 903.035156 C 1091.0625 903.035156 1093.78125 905.769531 1093.78125 909.121094 C 1093.78125 912.484375 1091.0625 915.21875 1087.695312 915.21875 Z M 1087.695312 915.21875 " fill-opacity="1" fill-rule="nonzero"/><path fill="#78358d" d="M 142.539062 669.46875 C 139.089844 669.46875 136.296875 666.675781 136.296875 663.226562 C 136.296875 659.789062 139.089844 656.996094 142.539062 656.996094 C 145.976562 656.996094 148.769531 659.789062 148.769531 663.226562 C 148.769531 666.675781 145.976562 669.46875 142.539062 669.46875 Z M 142.539062 669.46875 " fill-opacity="1" fill-rule="nonzero"/></svg>