<svg xmlns="http://www.w3.org/2000/svg" xmlns:xlink="http://www.w3.org/1999/xlink" width="500" zoomAndPan="magnify" viewBox="0 0 375 374.999991" height="500" preserveAspectRatio="xMidYMid meet" version="1.0"><defs><clipPath id="1bb78b2b0f"><path d="M 196.011719 171.464844 L 223.382812 171.464844 L 223.382812 198.832031 L 196.011719 198.832031 Z M 196.011719 171.464844 " clip-rule="nonzero"/></clipPath><clipPath id="10a4136020"><path d="M 209.695312 171.464844 C 202.140625 171.464844 196.011719 177.59375 196.011719 185.148438 C 196.011719 192.707031 202.140625 198.832031 209.695312 198.832031 C 217.253906 198.832031 223.382812 192.707031 223.382812 185.148438 C 223.382812 177.59375 217.253906 171.464844 209.695312 171.464844 Z M 209.695312 171.464844 " clip-rule="nonzero"/></clipPath><clipPath id="a7b17d442d"><path d="M 0.0117188 0.464844 L 27.382812 0.464844 L 27.382812 27.832031 L 0.0117188 27.832031 Z M 0.0117188 0.464844 " clip-rule="nonzero"/></clipPath><clipPath id="606b704ef0"><path d="M 13.695312 0.464844 C 6.140625 0.464844 0.0117188 6.59375 0.0117188 14.148438 C 0.0117188 21.707031 6.140625 27.832031 13.695312 27.832031 C 21.253906 27.832031 27.382812 21.707031 27.382812 14.148438 C 27.382812 6.59375 21.253906 0.464844 13.695312 0.464844 Z M 13.695312 0.464844 " clip-rule="nonzero"/></clipPath><clipPath id="6fc1900d2e"><rect x="0" width="28" y="0" height="28"/></clipPath><clipPath id="bff707162c"><path d="M 62 0 L 329 0 L 329 374.960938 L 62 374.960938 Z M 62 0 " clip-rule="nonzero"/></clipPath></defs><g clip-path="url(#1bb78b2b0f)"><g clip-path="url(#10a4136020)"><g transform="matrix(1, 0, 0, 1, 196, 171)"><g clip-path="url(#6fc1900d2e)"><g clip-path="url(#a7b17d442d)"><g clip-path="url(#606b704ef0)"><path fill="#ffffff" d="M 0.0117188 0.464844 L 27.382812 0.464844 L 27.382812 27.832031 L 0.0117188 27.832031 Z M 0.0117188 0.464844 " fill-opacity="1" fill-rule="nonzero"/></g></g></g></g></g></g><g clip-path="url(#bff707162c)"><path fill="#ffffff" d="M 268.175781 16.859375 C 236.738281 -0.691406 200.410156 -5.9375 160.519531 1.40625 C 136.710938 5.699219 116.015625 14.921875 99.011719 28.785156 C 73.648438 49.421875 61.695312 78.390625 62.394531 117.472656 C 62.777344 133.273438 71.996094 145.835938 86.933594 151.050781 C 106.132812 157.886719 123.804688 161.417969 141.730469 161.796875 C 144.179688 161.796875 146.53125 161.574219 148.820312 161.160156 C 141.097656 170.066406 135.695312 180.9375 132.863281 193.5 C 128.953125 211.433594 130.226562 228.921875 132.230469 245.171875 C 133.5625 255.730469 139.410156 262.566406 147.199219 267.367188 C 141.574219 272.011719 136.359375 277.222656 132.703125 283.585938 C 124.761719 297.449219 122.820312 313.761719 127.269531 329.535156 C 134.550781 355.164062 153.90625 371.058594 181.816406 374.367188 C 184.867188 374.6875 187.886719 374.878906 190.871094 374.878906 C 228.792969 374.878906 255.398438 349.058594 255.527344 311.917969 C 255.398438 292.296875 246.945312 275.761719 232.925781 265.171875 C 238.679688 260.054688 242.523438 252.742188 243.636719 243.390625 L 244.71875 235.695312 C 246.246094 224.851562 250.757812 221.003906 254.890625 218.714844 C 260.039062 215.855469 265.347656 213.121094 273.039062 209.175781 C 310.960938 188.984375 330.191406 155.753906 328.632812 113.144531 C 327.234375 71.523438 306.351562 38.230469 268.175781 16.859375 Z M 268.175781 16.859375 " fill-opacity="1" fill-rule="nonzero"/></g><path fill="#0e0b07" d="M 188.234375 257.476562 C 180.289062 257.476562 172.214844 257.761719 164.207031 257.382812 C 154.605469 256.78125 149.585938 252.707031 148.375 243.136719 C 146.5 227.8125 145.386719 212.417969 148.757812 196.964844 C 153.175781 177.476562 164.746094 164.023438 183.117188 156.328125 C 191.792969 152.765625 200.726562 149.492188 208.515625 143.992188 C 221.992188 134.355469 225.167969 117.40625 215.15625 105.863281 C 206.542969 95.6875 194.75 93.78125 182.511719 96.515625 C 172.40625 98.773438 166.429688 105.863281 164.207031 115.914062 C 163.1875 120.652344 162.203125 125.324219 160.960938 129.9375 C 158.449219 139.761719 151.457031 145.675781 141.320312 145.515625 C 124.441406 145.136719 108.195312 141.351562 92.367188 135.722656 C 83.816406 132.734375 78.890625 126.054688 78.667969 117.058594 C 78.128906 87.613281 85.3125 60.933594 109.277344 41.410156 C 125.074219 28.53125 143.480469 21.027344 163.410156 17.433594 C 197.007812 11.296875 229.84375 14.09375 260.230469 31.074219 C 292.363281 49.074219 311.117188 76.484375 312.359375 113.6875 C 313.691406 150 297.929688 177.476562 265.378906 194.804688 C 259.273438 197.953125 253.046875 201.132812 247.039062 204.4375 C 235.65625 210.769531 230.351562 220.972656 228.601562 233.4375 C 228.1875 236.300781 227.679688 239.101562 227.425781 241.929688 C 226.28125 251.371094 221.480469 256.367188 211.726562 256.871094 C 203.96875 257.253906 196.117188 256.871094 188.234375 256.871094 C 188.234375 257.035156 188.234375 257.253906 188.234375 257.476562 Z M 188.234375 257.476562 " fill-opacity="1" fill-rule="nonzero"/><path fill="#0e0b07" d="M 239.25 312.042969 C 239.125 345.238281 212.648438 361.390625 183.625 358.152344 C 163.3125 355.800781 148.691406 345.367188 142.9375 325.078125 C 135.914062 300.214844 150.820312 276.398438 176.792969 269.71875 C 190.585938 266.222656 203.871094 267.808594 216.746094 273.726562 C 231.019531 280.46875 239.125 294.460938 239.25 312.042969 Z M 239.25 312.042969 " fill-opacity="1" fill-rule="nonzero"/><path fill="#ff4834" d="M 186.613281 245.933594 C 180.382812 245.933594 174.152344 245.777344 167.921875 245.933594 C 163.917969 246.15625 161.25 244.503906 160.710938 240.496094 C 158.675781 224.058594 156.765625 207.523438 163.472656 191.496094 C 168.207031 180.558594 176.21875 172.929688 186.902344 167.679688 C 196.753906 163.003906 206.765625 159.15625 216.171875 153.496094 C 236.898438 141.222656 236.804688 113.589844 226.980469 100.042969 C 220.210938 90.695312 210.292969 87.039062 199.613281 84.878906 C 181.6875 81.378906 165 87.835938 156.542969 101.445312 C 153.046875 106.976562 151.742188 113.242188 150.316406 119.507812 C 149.710938 122.082031 149.074219 124.65625 148.28125 127.199219 C 146.820312 131.78125 143.769531 133.847656 139 133.304688 C 126.222656 132.128906 113.539062 130.09375 101.429688 125.738281 C 93.863281 123.097656 91.226562 119.347656 91.351562 111.367188 C 91.734375 78.835938 104.128906 53.078125 134.773438 39.4375 C 177.363281 20.488281 220.019531 21.183594 260.324219 45.988281 C 285.214844 61.28125 298.660156 85.003906 299.867188 114.324219 C 301.105469 146.246094 286.582031 169.746094 258.546875 184.878906 C 252.222656 188.347656 245.671875 191.496094 239.25 195.089844 C 225.457031 202.878906 218.621094 215.152344 216.683594 230.605469 C 216.332031 232.710938 216.046875 234.808594 215.695312 236.9375 C 214.746094 244.40625 214.140625 245.011719 206.449219 245.296875 C 199.773438 245.519531 193.257812 245.296875 186.613281 245.296875 C 186.613281 245.519531 186.613281 245.777344 186.613281 245.933594 Z M 186.613281 245.933594 " fill-opacity="1" fill-rule="nonzero"/><path fill="#ff4834" d="M 192.496094 346.640625 C 173.742188 346.640625 160.519531 337.738281 155.621094 323.425781 C 149.585938 306 158.894531 287.652344 176.472656 282.121094 C 194.050781 276.527344 212.648438 281.105469 221.007812 293.375 C 228.695312 304.539062 229.207031 316.433594 223.101562 328.328125 C 216.238281 341.425781 204.507812 346.128906 192.496094 346.640625 Z M 192.496094 346.640625 " fill-opacity="1" fill-rule="nonzero"/></svg>