<svg xmlns="http://www.w3.org/2000/svg" xmlns:xlink="http://www.w3.org/1999/xlink" width="500" zoomAndPan="magnify" viewBox="0 0 375 374.999991" height="500" preserveAspectRatio="xMidYMid meet" version="1.0"><defs><clipPath id="651b1261bb"><path d="M 196.011719 171.464844 L 223.382812 171.464844 L 223.382812 198.832031 L 196.011719 198.832031 Z M 196.011719 171.464844 " clip-rule="nonzero"/></clipPath><clipPath id="e62f2002ee"><path d="M 209.695312 171.464844 C 202.140625 171.464844 196.011719 177.59375 196.011719 185.148438 C 196.011719 192.707031 202.140625 198.832031 209.695312 198.832031 C 217.253906 198.832031 223.382812 192.707031 223.382812 185.148438 C 223.382812 177.59375 217.253906 171.464844 209.695312 171.464844 Z M 209.695312 171.464844 " clip-rule="nonzero"/></clipPath><clipPath id="d83d30f383"><path d="M 0.0117188 0.464844 L 27.382812 0.464844 L 27.382812 27.832031 L 0.0117188 27.832031 Z M 0.0117188 0.464844 " clip-rule="nonzero"/></clipPath><clipPath id="e05396b307"><path d="M 13.695312 0.464844 C 6.140625 0.464844 0.0117188 6.59375 0.0117188 14.148438 C 0.0117188 21.707031 6.140625 27.832031 13.695312 27.832031 C 21.253906 27.832031 27.382812 21.707031 27.382812 14.148438 C 27.382812 6.59375 21.253906 0.464844 13.695312 0.464844 Z M 13.695312 0.464844 " clip-rule="nonzero"/></clipPath><clipPath id="1c0cb7d204"><rect x="0" width="28" y="0" height="28"/></clipPath><clipPath id="ae8b9133bc"><path d="M 55.3125 4 L 319 4 L 319 375 L 55.3125 375 Z M 55.3125 4 " clip-rule="nonzero"/></clipPath></defs><g clip-path="url(#651b1261bb)"><g clip-path="url(#e62f2002ee)"><g transform="matrix(1, 0, 0, 1, 196, 171)"><g clip-path="url(#1c0cb7d204)"><g clip-path="url(#d83d30f383)"><g clip-path="url(#e05396b307)"><path fill="#ffffff" d="M 0.0117188 0.464844 L 27.382812 0.464844 L 27.382812 27.832031 L 0.0117188 27.832031 Z M 0.0117188 0.464844 " fill-opacity="1" fill-rule="nonzero"/></g></g></g></g></g></g><g clip-path="url(#ae8b9133bc)"><path fill="#ffffff" d="M 258.90625 22.539062 C 227.910156 5.265625 192.085938 0.101562 152.753906 7.328125 C 129.277344 11.554688 108.875 20.632812 92.109375 34.277344 C 67.09375 54.589844 55.3125 83.101562 56 121.566406 C 56.378906 137.121094 65.464844 149.484375 80.195312 154.617188 C 99.128906 161.34375 116.554688 164.820312 134.230469 165.195312 C 136.644531 165.195312 138.964844 164.976562 141.21875 164.570312 C 133.601562 173.332031 128.277344 184.035156 125.484375 196.398438 C 121.632812 214.046875 122.886719 231.261719 124.859375 247.257812 C 126.175781 257.648438 131.941406 264.378906 139.621094 269.101562 C 134.074219 273.671875 128.933594 278.800781 125.328125 285.066406 C 117.496094 298.710938 115.582031 314.765625 119.96875 330.289062 C 127.148438 355.515625 146.234375 371.160156 173.753906 374.417969 C 176.761719 374.734375 179.738281 374.917969 182.683594 374.917969 C 220.074219 374.917969 246.308594 349.507812 246.433594 312.953125 C 246.308594 293.640625 237.972656 277.363281 224.148438 266.941406 C 229.824219 261.902344 233.617188 254.707031 234.710938 245.503906 L 235.777344 237.929688 C 237.28125 227.257812 241.734375 223.46875 245.808594 221.214844 C 250.882812 218.402344 256.117188 215.710938 263.703125 211.828125 C 301.09375 191.953125 320.058594 159.246094 318.519531 117.308594 C 317.140625 76.339844 296.546875 43.574219 258.90625 22.539062 Z M 258.90625 22.539062 " fill-opacity="1" fill-rule="nonzero"/></g><path fill="#0e0b07" d="M 180.085938 259.367188 C 172.25 259.367188 164.285156 259.648438 156.390625 259.277344 C 146.925781 258.683594 141.972656 254.675781 140.777344 245.25 C 138.933594 230.167969 137.835938 215.019531 141.15625 199.808594 C 145.511719 180.625 156.921875 167.386719 175.035156 159.8125 C 183.59375 156.304688 192.402344 153.082031 200.082031 147.667969 C 213.367188 138.183594 216.5 121.503906 206.628906 110.140625 C 198.136719 100.128906 186.507812 98.25 174.441406 100.941406 C 164.476562 103.164062 158.582031 110.140625 156.390625 120.03125 C 155.386719 124.695312 154.414062 129.296875 153.191406 133.835938 C 150.714844 143.503906 143.820312 149.328125 133.824219 149.167969 C 117.179688 148.792969 101.164062 145.070312 85.554688 139.53125 C 77.125 136.589844 72.265625 130.015625 72.046875 121.160156 C 71.515625 92.179688 78.597656 65.917969 102.230469 46.703125 C 117.804688 34.027344 135.953125 26.640625 155.605469 23.105469 C 188.734375 17.0625 221.109375 19.816406 251.074219 36.53125 C 282.757812 54.246094 301.25 81.222656 302.472656 117.839844 C 303.789062 153.582031 288.246094 180.625 256.148438 197.683594 C 250.132812 200.78125 243.988281 203.910156 238.066406 207.164062 C 226.84375 213.394531 221.609375 223.4375 219.886719 235.707031 C 219.480469 238.527344 218.980469 241.28125 218.726562 244.0625 C 217.597656 253.359375 212.867188 258.273438 203.246094 258.773438 C 195.597656 259.148438 187.855469 258.773438 180.085938 258.773438 C 180.085938 258.933594 180.085938 259.148438 180.085938 259.367188 Z M 180.085938 259.367188 " fill-opacity="1" fill-rule="nonzero"/><path fill="#0e0b07" d="M 230.386719 313.074219 C 230.261719 345.75 204.15625 361.648438 175.539062 358.457031 C 155.511719 356.140625 141.09375 345.875 135.421875 325.90625 C 128.492188 301.433594 143.191406 277.988281 168.800781 271.417969 C 182.402344 267.976562 195.503906 269.539062 208.199219 275.359375 C 222.269531 281.996094 230.261719 295.769531 230.386719 313.074219 Z M 230.386719 313.074219 " fill-opacity="1" fill-rule="nonzero"/><path fill="#ff4834" d="M 178.484375 248.007812 C 172.339844 248.007812 166.199219 247.851562 160.054688 248.007812 C 156.105469 248.226562 153.472656 246.597656 152.941406 242.65625 C 150.933594 226.476562 149.054688 210.199219 155.667969 194.425781 C 160.335938 183.660156 168.238281 176.148438 178.769531 170.984375 C 188.484375 166.382812 198.355469 162.597656 207.632812 157.027344 C 228.066406 144.945312 227.972656 117.746094 218.289062 104.414062 C 211.613281 95.214844 201.835938 91.613281 191.304688 89.484375 C 173.628906 86.042969 157.171875 92.398438 148.835938 105.792969 C 145.386719 111.238281 144.101562 117.402344 142.691406 123.570312 C 142.097656 126.105469 141.472656 128.640625 140.6875 131.144531 C 139.246094 135.648438 136.238281 137.683594 131.535156 137.152344 C 118.933594 135.992188 106.429688 133.992188 94.488281 129.703125 C 87.027344 127.105469 84.429688 123.414062 84.554688 115.558594 C 84.929688 83.539062 97.152344 58.1875 127.367188 44.761719 C 169.363281 26.109375 211.425781 26.796875 251.164062 51.207031 C 275.707031 66.261719 288.964844 89.609375 290.15625 118.46875 C 291.378906 149.890625 277.054688 173.019531 249.410156 187.914062 C 243.175781 191.328125 236.71875 194.425781 230.386719 197.964844 C 216.785156 205.628906 210.046875 217.710938 208.132812 232.921875 C 207.789062 234.988281 207.507812 237.054688 207.160156 239.152344 C 206.222656 246.503906 205.628906 247.097656 198.042969 247.378906 C 191.460938 247.597656 185.035156 247.378906 178.484375 247.378906 C 178.484375 247.597656 178.484375 247.851562 178.484375 248.007812 Z M 178.484375 248.007812 " fill-opacity="1" fill-rule="nonzero"/><path fill="#ff4834" d="M 184.285156 347.128906 C 165.792969 347.128906 152.753906 338.363281 147.925781 324.28125 C 141.972656 307.128906 151.152344 289.066406 168.488281 283.621094 C 185.820312 278.117188 204.15625 282.625 212.398438 294.703125 C 219.980469 305.691406 220.484375 317.394531 214.464844 329.101562 C 207.695312 341.996094 196.128906 346.625 184.285156 347.128906 Z M 184.285156 347.128906 " fill-opacity="1" fill-rule="nonzero"/></svg>