<svg version="1.1" viewBox="0.0 0.0 600.0 371.0" fill="none" stroke="none" stroke-linecap="square" stroke-miterlimit="10" width="600" height="371" xmlns:xlink="http://www.w3.org/1999/xlink" xmlns="http://www.w3.org/2000/svg"><path fill="#ffffff" d="M0 0L600.0 0L600.0 371.0L0 371.0L0 0Z" fill-rule="nonzero"/><path stroke="#333333" stroke-width="1.0" stroke-linecap="butt" d="M111.5 300.5L581.5 300.5" fill-rule="nonzero"/><path stroke="#cccccc" stroke-width="1.0" stroke-linecap="butt" d="M111.5 240.5L581.5 240.5" fill-rule="nonzero"/><path stroke="#cccccc" stroke-width="1.0" stroke-linecap="butt" d="M111.5 181.5L581.5 181.5" fill-rule="nonzero"/><path stroke="#cccccc" stroke-width="1.0" stroke-linecap="butt" d="M111.5 121.5L581.5 121.5" fill-rule="nonzero"/><path stroke="#cccccc" stroke-width="1.0" stroke-linecap="butt" d="M111.5 61.5L581.5 61.5" fill-rule="nonzero"/><clipPath id="id_0"><path d="M111.55 61.916668L581.45 61.916668L581.45 300.45L111.55 300.45L111.55 61.916668Z" clip-rule="nonzero"/></clipPath><path stroke="#000000" stroke-width="2.0" stroke-linecap="butt" stroke-opacity="0.0" clip-path="url(#id_0)" d="M200.0 300.0L143.0 300.0L143.0 75.0C143.0 73.89543 143.89543 73.0 145.0 73.0L198.0 73.0C199.10457 73.0 200.0 73.89543 200.0 75.0Z" fill-rule="nonzero"/><path fill="#4285f4" clip-path="url(#id_0)" d="M200.0 300.0L143.0 300.0L143.0 75.0C143.0 73.89543 143.89543 73.0 145.0 73.0L198.0 73.0C199.10457 73.0 200.0 73.89543 200.0 75.0Z" fill-rule="nonzero"/><path stroke="#000000" stroke-width="2.0" stroke-linecap="butt" stroke-opacity="0.0" clip-path="url(#id_0)" d="M288.0 300.0L231.0 300.0L231.0 97.0C231.0 95.89543 231.89543 95.0 233.0 95.0L286.0 95.0C287.10458 95.0 288.0 95.89543 288.0 97.0Z" fill-rule="nonzero"/><path fill="#4285f4" clip-path="url(#id_0)" d="M288.0 300.0L231.0 300.0L231.0 97.0C231.0 95.89543 231.89543 95.0 233.0 95.0L286.0 95.0C287.10458 95.0 288.0 95.89543 288.0 97.0Z" fill-rule="nonzero"/><path stroke="#000000" stroke-width="2.0" stroke-linecap="butt" stroke-opacity="0.0" clip-path="url(#id_0)" d="M376.0 300.0L319.0 300.0L319.0 114.0C319.0 112.89543 319.89542 112.0 321.0 112.0L374.0 112.0C375.10458 112.0 376.0 112.89543 376.0 114.0Z" fill-rule="nonzero"/><path fill="#4285f4" clip-path="url(#id_0)" d="M376.0 300.0L319.0 300.0L319.0 114.0C319.0 112.89543 319.89542 112.0 321.0 112.0L374.0 112.0C375.10458 112.0 376.0 112.89543 376.0 114.0Z" fill-rule="nonzero"/><path stroke="#000000" stroke-width="2.0" stroke-linecap="butt" stroke-opacity="0.0" clip-path="url(#id_0)" d="M463.0 300.0L406.0 300.0L406.0 140.0C406.0 138.89543 406.89542 138.0 408.0 138.0L461.0 138.0C462.10458 138.0 463.0 138.89543 463.0 140.0Z" fill-rule="nonzero"/><path fill="#4285f4" clip-path="url(#id_0)" d="M463.0 300.0L406.0 300.0L406.0 140.0C406.0 138.89543 406.89542 138.0 408.0 138.0L461.0 138.0C462.10458 138.0 463.0 138.89543 463.0 140.0Z" fill-rule="nonzero"/><path stroke="#000000" stroke-width="2.0" stroke-linecap="butt" stroke-opacity="0.0" clip-path="url(#id_0)" d="M551.0 300.0L494.0 300.0L494.0 143.0C494.0 141.89543 494.89542 141.0 496.0 141.0L549.0 141.0C550.10455 141.0 551.0 141.89543 551.0 143.0Z" fill-rule="nonzero"/><path fill="#4285f4" clip-path="url(#id_0)" d="M551.0 300.0L494.0 300.0L494.0 143.0C494.0 141.89543 494.89542 141.0 496.0 141.0L549.0 141.0C550.10455 141.0 551.0 141.89543 551.0 143.0Z" fill-rule="nonzero"/><path fill="#000000" d="M337.34375 349.45L337.34375 345.8094L334.03125 340.85626L335.42188 340.85626L337.10938 343.45Q337.57812 344.16876 337.98438 344.90314Q338.375 344.23126 338.92188 343.3875L340.59375 340.85626L341.90625 340.85626L338.48438 345.8094L338.48438 349.45L337.34375 349.45ZM346.04688 347.45L347.14062 347.575Q346.89062 348.52814 346.1875 349.0594Q345.48438 349.59064 344.40625 349.59064Q343.04688 349.59064 342.23438 348.7469Q341.4375 347.90314 341.4375 346.3875Q341.4375 344.825 342.25 343.96564Q343.0625 343.09064 344.34375 343.09064Q345.59375 343.09064 346.375 343.9344Q347.17188 344.77814 347.17188 346.325Q347.17188 346.41876 347.17188 346.60626L342.53125 346.60626Q342.59375 347.6375 343.10938 348.1844Q343.625 348.71564 344.40625 348.71564Q344.98438 348.71564 345.39062 348.41876Q345.8125 348.10626 346.04688 347.45ZM342.59375 345.7469L346.0625 345.7469Q346.0 344.95 345.67188 344.5594Q345.15625 343.95 344.35938 343.95Q343.625 343.95 343.125 344.4344Q342.64062 344.91876 342.59375 345.7469ZM352.85938 348.6844Q352.26562 349.1844 351.71875 349.3875Q351.1875 349.59064 350.5625 349.59064Q349.53125 349.59064 348.98438 349.09064Q348.4375 348.59064 348.4375 347.8094Q348.4375 347.35626 348.64062 346.98126Q348.84375 346.59064 349.1875 346.3719Q349.53125 346.1375 349.95312 346.02814Q350.25 345.9344 350.89062 345.85626Q352.15625 345.71564 352.76562 345.4969Q352.76562 345.27814 352.76562 345.23126Q352.76562 344.575 352.46875 344.3094Q352.0625 343.96564 351.26562 343.96564Q350.53125 343.96564 350.17188 344.23126Q349.8125 344.48126 349.64062 345.1375L348.60938 344.9969Q348.75 344.34064 349.07812 343.9344Q349.40625 343.52814 350.01562 343.3094Q350.625 343.09064 351.42188 343.09064Q352.21875 343.09064 352.71875 343.27814Q353.21875 343.46564 353.45312 343.7469Q353.6875 344.02814 353.78125 344.46564Q353.82812 344.73126 353.82812 345.4344L353.82812 346.84064Q353.82812 348.3094 353.89062 348.7Q353.96875 349.09064 354.17188 349.45L353.0625 349.45Q352.90625 349.1219 352.85938 348.6844ZM352.76562 346.325Q352.1875 346.5594 351.04688 346.73126Q350.39062 346.825 350.125 346.95Q349.85938 347.0594 349.70312 347.27814Q349.5625 347.4969 349.5625 347.77814Q349.5625 348.2 349.875 348.48126Q350.20312 348.7625 350.8125 348.7625Q351.42188 348.7625 351.89062 348.4969Q352.375 348.23126 352.59375 347.7625Q352.76562 347.40314 352.76562 346.71564L352.76562 346.325ZM355.78125 349.45L355.78125 343.23126L356.73438 343.23126L356.73438 344.16876Q357.09375 343.5125 357.39062 343.3094Q357.70312 343.09064 358.07812 343.09064Q358.60938 343.09064 359.15625 343.41876L358.79688 344.40314Q358.40625 344.16876 358.03125 344.16876Q357.67188 344.16876 357.39062 344.3875Q357.125 344.59064 357.01562 344.96564Q356.82812 345.52814 356.82812 346.1844L356.82812 349.45L355.78125 349.45Z" fill-rule="nonzero"/><path fill="#000000" d="M29.550013 275.24585L20.956263 275.24585L20.956263 271.43335Q20.956263 270.2771 21.190638 269.68335Q21.425013 269.0896 22.018763 268.73022Q22.596888 268.37085 23.300013 268.37085Q24.221888 268.37085 24.846888 268.9646Q25.471888 269.55835 25.643763 270.79272Q25.862513 270.3396 26.065638 270.10522Q26.518763 269.60522 27.206263 269.16772L29.550013 267.66772L29.550013 269.10522L27.768763 270.23022Q26.987513 270.73022 26.581263 271.05835Q26.175013 271.37085 26.018763 271.63647Q25.846888 271.88647 25.768763 272.1521Q25.737513 272.3396 25.737513 272.7771L25.737513 274.10522L29.550013 274.10522L29.550013 275.24585ZM24.753138 274.10522L24.753138 271.6521Q24.753138 270.88647 24.596888 270.44897Q24.425013 269.99585 24.081263 269.7771Q23.721888 269.54272 23.300013 269.54272Q22.690638 269.54272 22.300013 269.99585Q21.909388 270.43335 21.909388 271.38647L21.909388 274.10522L24.753138 274.10522ZM27.550013 262.13647L27.675013 261.04272Q28.628138 261.29272 29.159388 261.99585Q29.690638 262.69897 29.690638 263.7771Q29.690638 265.13647 28.846888 265.94897Q28.003138 266.74585 26.487513 266.74585Q24.925013 266.74585 24.065638 265.93335Q23.190638 265.12085 23.190638 263.8396Q23.190638 262.5896 24.034388 261.80835Q24.878138 261.01147 26.425013 261.01147Q26.518763 261.01147 26.706263 261.01147L26.706263 265.6521Q27.737513 265.5896 28.284388 265.07397Q28.815638 264.55835 28.815638 263.7771Q28.815638 263.19897 28.518763 262.79272Q28.206263 262.37085 27.550013 262.13647ZM25.846888 265.5896L25.846888 262.12085Q25.050013 262.18335 24.659388 262.51147Q24.050013 263.0271 24.050013 263.82397Q24.050013 264.55835 24.534388 265.05835Q25.018763 265.54272 25.846888 265.5896ZM28.784388 255.32396Q29.284388 255.91771 29.487513 256.4646Q29.690638 256.99585 29.690638 257.62085Q29.690638 258.6521 29.190638 259.19897Q28.690638 259.74585 27.909388 259.74585Q27.456263 259.74585 27.081263 259.54272Q26.690638 259.3396 26.471888 258.99585Q26.237513 258.6521 26.128138 258.23022Q26.034388 257.93335 25.956263 257.29272Q25.815638 256.0271 25.596888 255.41771Q25.378138 255.41771 25.331263 255.41771Q24.675013 255.41771 24.409388 255.71458Q24.065638 256.12085 24.065638 256.91772Q24.065638 257.6521 24.331263 258.01147Q24.581263 258.37085 25.237513 258.54272L25.096888 259.57397Q24.440638 259.43335 24.034388 259.10522Q23.628138 258.7771 23.409388 258.16772Q23.190638 257.55835 23.190638 256.76147Q23.190638 255.96458 23.378138 255.46458Q23.565638 254.96458 23.846888 254.73021Q24.128138 254.49583 24.565638 254.40208Q24.831263 254.35521 25.534388 254.35521L26.940638 254.35521Q28.409388 254.35521 28.800013 254.29271Q29.190638 254.21458 29.550013 254.01146L29.550013 255.12083Q29.221888 255.27708 28.784388 255.32396ZM26.425013 255.41771Q26.659388 255.99583 26.831263 257.13647Q26.925013 257.79272 27.050013 258.05835Q27.159388 258.32397 27.378138 258.48022Q27.596888 258.62085 27.878138 258.62085Q28.300013 258.62085 28.581263 258.30835Q28.862513 257.98022 28.862513 257.37085Q28.862513 256.76147 28.596888 256.29272Q28.331263 255.80833 27.862513 255.58958Q27.503138 255.41771 26.815638 255.41771L26.425013 255.41771ZM29.550013 252.41771L20.956263 252.41771L20.956263 251.35521L29.550013 251.35521L29.550013 252.41771ZM26.175013 242.23021L25.175013 242.23021L25.159388 238.60521L28.346888 238.60521Q29.018763 239.43333 29.362513 240.32396Q29.690638 241.21458 29.690638 242.15208Q29.690638 243.41771 29.159388 244.46458Q28.612513 245.49583 27.596888 246.02708Q26.565638 246.54271 25.300013 246.54271Q24.034388 246.54271 22.956263 246.02708Q21.862513 245.49583 21.346888 244.51146Q20.815638 243.52708 20.815638 242.24583Q20.815638 241.30833 21.112513 240.55833Q21.409388 239.80833 21.956263 239.38646Q22.487513 238.94896 23.362513 238.73021L23.643763 239.74583Q22.987513 239.94896 22.612513 240.24583Q22.237513 240.52708 22.018763 241.05833Q21.784388 241.58958 21.784388 242.23021Q21.784388 243.01146 22.018763 243.58958Q22.253138 244.15208 22.643763 244.51146Q23.034388 244.85521 23.503138 245.04271Q24.300013 245.37083 25.221888 245.37083Q26.378138 245.37083 27.159388 244.98021Q27.925013 244.57396 28.300013 243.82396Q28.675013 243.07396 28.675013 242.21458Q28.675013 241.48021 28.393763 240.77708Q28.096888 240.07396 27.784388 239.71458L26.175013 239.71458L26.175013 242.23021ZM29.550013 237.26146L20.956263 237.26146L20.956263 234.29271Q20.956263 233.29271 21.081263 232.76146Q21.253138 232.02708 21.690638 231.51146Q22.268763 230.82396 23.175013 230.49583Q24.065638 230.15208 25.206263 230.15208Q26.190638 230.15208 26.940638 230.38646Q27.690638 230.60521 28.190638 230.96458Q28.690638 231.32396 28.971888 231.76146Q29.253138 232.18333 29.409388 232.77708Q29.550013 233.37083 29.550013 234.15208L29.550013 237.26146ZM28.534388 236.12083L28.534388 234.29271Q28.534388 233.43333 28.378138 232.94896Q28.221888 232.46458 27.925013 232.18333Q27.534388 231.77708 26.846888 231.55833Q26.159388 231.32396 25.190638 231.32396Q23.846888 231.32396 23.128138 231.77708Q22.393763 232.21458 22.143763 232.83958Q21.971888 233.30833 21.971888 234.30833L21.971888 236.12083L28.534388 236.12083ZM29.550013 228.26146L20.956263 228.26146L20.956263 225.01146Q20.956263 224.16771 21.034388 223.71458Q21.143763 223.07396 21.440638 222.65208Q21.737513 222.21458 22.268763 221.96458Q22.800013 221.69896 23.440638 221.69896Q24.534388 221.69896 25.300013 222.40208Q26.050013 223.08958 26.050013 224.91771L26.050013 227.12083L29.550013 227.12083L29.550013 228.26146ZM25.050013 227.12083L25.050013 224.90208Q25.050013 223.79271 24.643763 223.33958Q24.221888 222.87083 23.471888 222.87083Q22.940638 222.87083 22.565638 223.15208Q22.175013 223.41771 22.050013 223.85521Q21.971888 224.15208 21.971888 224.91771L21.971888 227.12083L25.050013 227.12083ZM32.08126 215.37083Q30.971888 216.24583 29.503138 216.85521Q28.018763 217.44896 26.440638 217.44896Q25.050013 217.44896 23.768763 217.01146Q22.284388 216.48021 20.815638 215.37083L20.815638 214.62083Q22.034388 215.32396 22.550013 215.55833Q23.362513 215.91771 24.237513 216.12083Q25.331263 216.37083 26.440638 216.37083Q29.268763 216.37083 32.08126 214.62083L32.08126 215.37083ZM22.175013 213.38646L20.956263 213.38646L20.956263 212.32396L22.175013 212.32396L22.175013 213.38646ZM29.550013 213.38646L23.331263 213.38646L23.331263 212.32396L29.550013 212.32396L29.550013 213.38646ZM29.550013 210.38646L23.331263 210.38646L23.331263 209.44896L24.206263 209.44896Q23.190638 208.76146 23.190638 207.46458Q23.190638 206.90208 23.393763 206.43333Q23.596888 205.94896 23.925013 205.71458Q24.253138 205.48021 24.690638 205.38646Q24.987513 205.33958 25.721888 205.33958L29.550013 205.33958L29.550013 206.38646L25.768763 206.38646Q25.112513 206.38646 24.800013 206.51146Q24.487513 206.63646 24.300013 206.94896Q24.096888 207.26146 24.096888 207.68333Q24.096888 208.35521 24.534388 208.85521Q24.956263 209.33958 26.143763 209.33958L29.550013 209.33958L29.550013 210.38646ZM29.550013 200.38646L23.331263 200.38646L23.331263 199.44896L24.206263 199.44896Q23.737513 199.15208 23.471888 198.66771Q23.190638 198.18333 23.190638 197.55833Q23.190638 196.87083 23.471888 196.43333Q23.753138 195.98021 24.268763 195.80833Q23.190638 195.05833 23.190638 193.88646Q23.190638 192.94896 23.706263 192.46458Q24.206263 191.96458 25.284388 191.96458L29.550013 191.96458L29.550013 193.01146L25.628138 193.01146Q25.003138 193.01146 24.721888 193.12083Q24.440638 193.21458 24.268763 193.48021Q24.096888 193.74583 24.096888 194.12083Q24.096888 194.77708 24.534388 195.21458Q24.971888 195.63646 25.940638 195.63646L29.550013 195.63646L29.550013 196.69896L25.503138 196.69896Q24.800013 196.69896 24.456263 196.96458Q24.096888 197.21458 24.096888 197.79271Q24.096888 198.24583 24.331263 198.62083Q24.565638 198.99583 25.018763 199.16771Q25.471888 199.33958 26.315638 199.33958L29.550013 199.33958L29.550013 200.38646ZM22.175013 189.38646L20.956263 189.38646L20.956263 188.32396L22.175013 188.32396L22.175013 189.38646ZM29.550013 189.38646L23.331263 189.38646L23.331263 188.32396L29.550013 188.32396L29.550013 189.38646ZM29.550013 186.41771L20.956263 186.41771L20.956263 185.35521L29.550013 185.35521L29.550013 186.41771ZM29.550013 183.41771L20.956263 183.41771L20.956263 182.35521L29.550013 182.35521L29.550013 183.41771ZM22.175013 180.38646L20.956263 180.38646L20.956263 179.32396L22.175013 179.32396L22.175013 180.38646ZM29.550013 180.38646L23.331263 180.38646L23.331263 179.32396L29.550013 179.32396L29.550013 180.38646ZM26.440638 177.77708Q24.706263 177.77708 23.878138 176.82396Q23.190638 176.02708 23.190638 174.87083Q23.190638 173.58958 24.034388 172.77708Q24.862513 171.94896 26.346888 171.94896Q27.550013 171.94896 28.237513 172.30833Q28.925013 172.66771 29.315638 173.37083Q29.690638 174.05833 29.690638 174.87083Q29.690638 176.16771 28.862513 176.98021Q28.018763 177.77708 26.440638 177.77708ZM26.440638 176.69896Q27.628138 176.69896 28.221888 176.18333Q28.815638 175.65208 28.815638 174.87083Q28.815638 174.07396 28.221888 173.55833Q27.628138 173.04271 26.409388 173.04271Q25.253138 173.04271 24.659388 173.57396Q24.065638 174.08958 24.065638 174.87083Q24.065638 175.65208 24.659388 176.18333Q25.237513 176.69896 26.440638 176.69896ZM29.550013 170.38646L23.331263 170.38646L23.331263 169.44896L24.206263 169.44896Q23.190638 168.76146 23.190638 167.46458Q23.190638 166.90208 23.393763 166.43333Q23.596888 165.94896 23.925013 165.71458Q24.253138 165.48021 24.690638 165.38646Q24.987513 165.33958 25.721888 165.33958L29.550013 165.33958L29.550013 166.38646L25.768763 166.38646Q25.112513 166.38646 24.800013 166.51146Q24.487513 166.63646 24.300013 166.94896Q24.096888 167.26146 24.096888 167.68333Q24.096888 168.35521 24.534388 168.85521Q24.956263 169.33958 26.143763 169.33958L29.550013 169.33958L29.550013 170.38646ZM27.690638 163.80833L27.534388 162.77708Q28.159388 162.68333 28.487513 162.29271Q28.815638 161.88646 28.815638 161.15208Q28.815638 160.43333 28.534388 160.08958Q28.237513 159.73021 27.831263 159.73021Q27.471888 159.73021 27.268763 160.04271Q27.128138 160.26146 26.909388 161.12083Q26.612513 162.27708 26.409388 162.73021Q26.190638 163.16771 25.815638 163.40208Q25.440638 163.63646 24.971888 163.63646Q24.565638 163.63646 24.206263 163.44896Q23.846888 163.26146 23.612513 162.93333Q23.440638 162.68333 23.315638 162.26146Q23.190638 161.83958 23.190638 161.33958Q23.190638 160.62083 23.409388 160.07396Q23.612513 159.51146 23.971888 159.24583Q24.331263 158.98021 24.925013 158.88646L25.065638 159.91771Q24.596888 159.98021 24.331263 160.32396Q24.050013 160.65208 24.050013 161.27708Q24.050013 161.99583 24.300013 162.30833Q24.534388 162.62083 24.862513 162.62083Q25.065638 162.62083 25.221888 162.49583Q25.393763 162.35521 25.503138 162.08958Q25.565638 161.93333 25.768763 161.15208Q26.081263 160.02708 26.268763 159.58958Q26.456263 159.15208 26.815638 158.90208Q27.175013 158.65208 27.721888 158.65208Q28.253138 158.65208 28.721888 158.96458Q29.175013 159.26146 29.440638 159.83958Q29.690638 160.41771 29.690638 161.15208Q29.690638 162.37083 29.190638 163.01146Q28.675013 163.63646 27.690638 163.80833ZM26.440638 153.77708Q24.706263 153.77708 23.878138 152.82396Q23.190638 152.02708 23.190638 150.87083Q23.190638 149.58958 24.034388 148.77708Q24.862513 147.94896 26.346888 147.94896Q27.550013 147.94896 28.237513 148.30833Q28.925013 148.66771 29.315638 149.37083Q29.690638 150.05833 29.690638 150.87083Q29.690638 152.16771 28.862513 152.98021Q28.018763 153.77708 26.440638 153.77708ZM26.440638 152.69896Q27.628138 152.69896 28.221888 152.18333Q28.815638 151.65208 28.815638 150.87083Q28.815638 150.07396 28.221888 149.55833Q27.628138 149.04271 26.409388 149.04271Q25.253138 149.04271 24.659388 149.57396Q24.065638 150.08958 24.065638 150.87083Q24.065638 151.65208 24.659388 152.18333Q25.237513 152.69896 26.440638 152.69896ZM29.550013 146.13646L24.143763 146.13646L24.143763 147.07396L23.331263 147.07396L23.331263 146.13646L22.659388 146.13646Q22.034388 146.13646 21.737513 146.02708Q21.315638 145.87083 21.065638 145.49583Q20.815638 145.10521 20.815638 144.41771Q20.815638 143.96458 20.925013 143.43333L21.831263 143.58958Q21.784388 143.91771 21.784388 144.21458Q21.784388 144.69896 21.987513 144.90208Q22.190638 145.08958 22.753138 145.08958L23.331263 145.08958L23.331263 143.87083L24.143763 143.87083L24.143763 145.08958L29.550013 145.08958L29.550013 146.13646ZM29.550013 136.35521L28.768763 136.35521Q29.690638 136.94896 29.690638 138.08958Q29.690638 138.83958 29.284388 139.46458Q28.862513 140.08958 28.128138 140.43333Q27.393763 140.77708 26.440638 140.77708Q25.518763 140.77708 24.753138 140.46458Q23.987513 140.15208 23.596888 139.52708Q23.190638 138.90208 23.190638 138.13646Q23.190638 137.57396 23.425013 137.13646Q23.659388 136.69896 24.034388 136.41771L20.956263 136.41771L20.956263 135.37083L29.550013 135.37083L29.550013 136.35521ZM26.440638 139.68333Q27.643763 139.68333 28.237513 139.18333Q28.815638 138.68333 28.815638 137.99583Q28.815638 137.30833 28.253138 136.82396Q27.690638 136.33958 26.534388 136.33958Q25.253138 136.33958 24.659388 136.83958Q24.065638 137.32396 24.065638 138.04271Q24.065638 138.74583 24.643763 139.21458Q25.206263 139.68333 26.440638 139.68333ZM26.440638 133.77708Q24.706263 133.77708 23.878138 132.82396Q23.190638 132.02708 23.190638 130.87083Q23.190638 129.58958 24.034388 128.77708Q24.862513 127.94896 26.346888 127.94896Q27.550013 127.94896 28.237513 128.30833Q28.925013 128.66771 29.315638 129.37083Q29.690638 130.05833 29.690638 130.87083Q29.690638 132.16771 28.862513 132.98021Q28.018763 133.77708 26.440638 133.77708ZM26.440638 132.69896Q27.628138 132.69896 28.221888 132.18333Q28.815638 131.65208 28.815638 130.87083Q28.815638 130.07396 28.221888 129.55833Q27.628138 129.04271 26.409388 129.04271Q25.253138 129.04271 24.659388 129.57396Q24.065638 130.08958 24.065638 130.87083Q24.065638 131.65208 24.659388 132.18333Q25.237513 132.69896 26.440638 132.69896ZM29.550013 126.41771L20.956263 126.41771L20.956263 125.35521L29.550013 125.35521L29.550013 126.41771ZM29.550013 123.41771L20.956263 123.41771L20.956263 122.35521L29.550013 122.35521L29.550013 123.41771ZM28.784388 116.32396Q29.284388 116.91771 29.487513 117.464584Q29.690638 117.995834 29.690638 118.620834Q29.690638 119.652084 29.190638 120.19896Q28.690638 120.745834 27.909388 120.745834Q27.456263 120.745834 27.081263 120.54271Q26.690638 120.339584 26.471888 119.995834Q26.237513 119.652084 26.128138 119.23021Q26.034388 118.933334 25.956263 118.29271Q25.815638 117.027084 25.596888 116.41771Q25.378138 116.41771 25.331263 116.41771Q24.675013 116.41771 24.409388 116.714584Q24.065638 117.120834 24.065638 117.91771Q24.065638 118.652084 24.331263 119.01146Q24.581263 119.370834 25.237513 119.54271L25.096888 120.57396Q24.440638 120.433334 24.034388 120.10521Q23.628138 119.777084 23.409388 119.16771Q23.190638 118.558334 23.190638 117.76146Q23.190638 116.964584 23.378138 116.464584Q23.565638 115.964584 23.846888 115.73021Q24.128138 115.495834 24.565638 115.402084Q24.831263 115.35521 25.534388 115.35521L26.940638 115.35521Q28.409388 115.35521 28.800013 115.29271Q29.190638 115.214584 29.550013 115.01146L29.550013 116.120834Q29.221888 116.277084 28.784388 116.32396ZM26.425013 116.41771Q26.659388 116.995834 26.831263 118.13646Q26.925013 118.79271 27.050013 119.058334Q27.159388 119.32396 27.378138 119.48021Q27.596888 119.620834 27.878138 119.620834Q28.300013 119.620834 28.581263 119.308334Q28.862513 118.98021 28.862513 118.370834Q28.862513 117.76146 28.596888 117.29271Q28.331263 116.808334 27.862513 116.589584Q27.503138 116.41771 26.815638 116.41771L26.425013 116.41771ZM29.550013 113.402084L23.331263 113.402084L23.331263 112.44896L24.268763 112.44896Q23.612513 112.089584 23.409388 111.79271Q23.190638 111.48021 23.190638 111.10521Q23.190638 110.57396 23.518763 110.027084L24.503138 110.38646Q24.268763 110.777084 24.268763 111.152084Q24.268763 111.51146 24.487513 111.79271Q24.690638 112.058334 25.065638 112.16771Q25.628138 112.35521 26.284388 112.35521L29.550013 112.35521L29.550013 113.402084ZM27.690638 109.808334L27.534388 108.777084Q28.159388 108.683334 28.487513 108.29271Q28.815638 107.88646 28.815638 107.152084Q28.815638 106.433334 28.534388 106.089584Q28.237513 105.73021 27.831263 105.73021Q27.471888 105.73021 27.268763 106.04271Q27.128138 106.26146 26.909388 107.120834Q26.612513 108.277084 26.409388 108.73021Q26.190638 109.16771 25.815638 109.402084Q25.440638 109.63646 24.971888 109.63646Q24.565638 109.63646 24.206263 109.44896Q23.846888 109.26146 23.612513 108.933334Q23.440638 108.683334 23.315638 108.26146Q23.190638 107.839584 23.190638 107.339584Q23.190638 106.620834 23.409388 106.07396Q23.612513 105.51146 23.971888 105.245834Q24.331263 104.98021 24.925013 104.88646L25.065638 105.91771Q24.596888 105.98021 24.331263 106.32396Q24.050013 106.652084 24.050013 107.277084Q24.050013 107.995834 24.300013 108.308334Q24.534388 108.620834 24.862513 108.620834Q25.065638 108.620834 25.221888 108.495834Q25.393763 108.35521 25.503138 108.089584Q25.565638 107.933334 25.768763 107.152084Q26.081263 106.027084 26.268763 105.589584Q26.456263 105.152084 26.815638 104.902084Q27.175013 104.652084 27.721888 104.652084Q28.253138 104.652084 28.721888 104.964584Q29.175013 105.26146 29.440638 105.839584Q29.690638 106.41771 29.690638 107.152084Q29.690638 108.370834 29.190638 109.01146Q28.675013 109.63646 27.690638 109.808334ZM32.08126 101.69896L32.08126 102.44896Q29.268763 100.69896 26.440638 100.69896Q25.346888 100.69896 24.253138 100.94896Q23.378138 101.152084 22.565638 101.51146Q22.050013 101.745834 20.815638 102.44896L20.815638 101.69896Q22.284388 100.60521 23.768763 100.07396Q25.050013 99.620834 26.440638 99.620834Q28.018763 99.620834 29.503138 100.23021Q30.971888 100.839584 32.08126 101.69896Z" fill-rule="nonzero"/><path fill="#000000" d="M77.53438 305.6844L77.53438 304.6375Q76.75313 304.52814 76.25313 304.27814Q75.75313 304.02814 75.39375 303.46564Q75.03438 302.8875 74.97188 302.0594L76.03438 301.8719Q76.15938 302.71564 76.47188 303.10626Q76.925 303.66876 77.53438 303.7469L77.53438 300.3875Q76.89375 300.2625 76.20625 299.8719Q75.70625 299.59064 75.425 299.10626Q75.15938 298.60626 75.15938 297.96564Q75.15938 296.84064 75.95625 296.15314Q76.4875 295.6844 77.53438 295.575L77.53438 295.075L78.15938 295.075L78.15938 295.575Q79.08125 295.65314 79.6125 296.10626Q80.31563 296.6844 80.45625 297.6844L79.3625 297.85626Q79.26875 297.23126 78.97188 296.90314Q78.675 296.575 78.15938 296.46564L78.15938 299.4969Q78.95625 299.7 79.22188 299.8094Q79.70625 300.02814 80.01875 300.34064Q80.33125 300.65314 80.4875 301.09064Q80.65938 301.5125 80.65938 302.0125Q80.65938 303.10626 79.95625 303.84064Q79.26875 304.575 78.15938 304.6219L78.15938 305.6844L77.53438 305.6844ZM77.53438 296.45Q76.925 296.54376 76.56563 296.95Q76.22188 297.34064 76.22188 297.8875Q76.22188 298.41876 76.51875 298.79376Q76.81563 299.15314 77.53438 299.3719L77.53438 296.45ZM78.15938 303.7469Q78.76875 303.66876 79.175 303.21564Q79.58125 302.7469 79.58125 302.075Q79.58125 301.4969 79.28438 301.15314Q79.00313 300.8094 78.15938 300.52814L78.15938 303.7469ZM82.05 300.21564Q82.05 298.6844 82.3625 297.7625Q82.675 296.825 83.28438 296.325Q83.90938 295.825 84.84688 295.825Q85.53438 295.825 86.05 296.10626Q86.58125 296.3875 86.925 296.91876Q87.26875 297.4344 87.45625 298.1844Q87.64375 298.9344 87.64375 300.21564Q87.64375 301.73126 87.33125 302.65314Q87.03438 303.575 86.40938 304.09064Q85.8 304.59064 84.84688 304.59064Q83.6125 304.59064 82.89375 303.7Q82.05 302.6375 82.05 300.21564ZM83.12813 300.21564Q83.12813 302.325 83.62813 303.02814Q84.12813 303.73126 84.84688 303.73126Q85.58125 303.73126 86.06563 303.02814Q86.56563 302.325 86.56563 300.21564Q86.56563 298.09064 86.06563 297.40314Q85.58125 296.7 84.83125 296.7Q84.1125 296.7 83.675 297.3094Q83.12813 298.09064 83.12813 300.21564ZM89.64375 304.45L89.64375 303.2469L90.84688 303.2469L90.84688 304.45L89.64375 304.45ZM92.05 300.21564Q92.05 298.6844 92.3625 297.7625Q92.675 296.825 93.28438 296.325Q93.90938 295.825 94.84688 295.825Q95.53438 295.825 96.05 296.10626Q96.58125 296.3875 96.925 296.91876Q97.26875 297.4344 97.45625 298.1844Q97.64375 298.9344 97.64375 300.21564Q97.64375 301.73126 97.33125 302.65314Q97.03438 303.575 96.40938 304.09064Q95.8 304.59064 94.84688 304.59064Q93.6125 304.59064 92.89375 303.7Q92.05 302.6375 92.05 300.21564ZM93.12813 300.21564Q93.12813 302.325 93.62813 303.02814Q94.12813 303.73126 94.84688 303.73126Q95.58125 303.73126 96.06563 303.02814Q96.56563 302.325 96.56563 300.21564Q96.56563 298.09064 96.06563 297.40314Q95.58125 296.7 94.83125 296.7Q94.1125 296.7 93.675 297.3094Q93.12813 298.09064 93.12813 300.21564ZM99.05 300.21564Q99.05 298.6844 99.3625 297.7625Q99.675 296.825 100.28438 296.325Q100.90938 295.825 101.84688 295.825Q102.53438 295.825 103.05 296.10626Q103.58125 296.3875 103.925 296.91876Q104.26875 297.4344 104.45625 298.1844Q104.64375 298.9344 104.64375 300.21564Q104.64375 301.73126 104.33125 302.65314Q104.03438 303.575 103.40938 304.09064Q102.8 304.59064 101.84688 304.59064Q100.6125 304.59064 99.89375 303.7Q99.05 302.6375 99.05 300.21564ZM100.12813 300.21564Q100.12813 302.325 100.62813 303.02814Q101.12813 303.73126 101.84688 303.73126Q102.58125 303.73126 103.06563 303.02814Q103.56563 302.325 103.56563 300.21564Q103.56563 298.09064 103.06563 297.40314Q102.58125 296.7 101.83125 296.7Q101.1125 296.7 100.675 297.3094Q100.12813 298.09064 100.12813 300.21564Z" fill-rule="nonzero"/><path fill="#000000" d="M63.534374 246.05104L63.534374 245.00417Q62.753124 244.89479 62.253124 244.64479Q61.753124 244.39479 61.39375 243.83229Q61.034374 243.25417 60.971874 242.42604L62.034374 242.23854Q62.159374 243.08229 62.471874 243.47292Q62.925 244.03542 63.534374 244.11354L63.534374 240.75417Q62.89375 240.62917 62.20625 240.23854Q61.70625 239.95729 61.425 239.47292Q61.159374 238.97292 61.159374 238.33229Q61.159374 237.20729 61.95625 236.51979Q62.4875 236.05104 63.534374 235.94167L63.534374 235.44167L64.15938 235.44167L64.15938 235.94167Q65.08125 236.01979 65.6125 236.47292Q66.31563 237.05104 66.45625 238.05104L65.3625 238.22292Q65.26875 237.59792 64.97188 237.26979Q64.675 236.94167 64.15938 236.83229L64.15938 239.86354Q64.95625 240.06667 65.22188 240.17604Q65.70625 240.39479 66.01875 240.70729Q66.33125 241.01979 66.4875 241.45729Q66.65938 241.87917 66.65938 242.37917Q66.65938 243.47292 65.95625 244.20729Q65.26875 244.94167 64.15938 244.98854L64.15938 246.05104L63.534374 246.05104ZM63.534374 236.81667Q62.925 236.91042 62.565624 237.31667Q62.221874 237.70729 62.221874 238.25417Q62.221874 238.78542 62.51875 239.16042Q62.815624 239.51979 63.534374 239.73854L63.534374 236.81667ZM64.15938 244.11354Q64.76875 244.03542 65.175 243.58229Q65.58125 243.11354 65.58125 242.44167Q65.58125 241.86354 65.28438 241.51979Q65.00313 241.17604 64.15938 240.89479L64.15938 244.11354ZM73.59688 243.80104L73.59688 244.81667L67.90938 244.81667Q67.90938 244.44167 68.03438 244.08229Q68.25313 243.50417 68.72188 242.94167Q69.20625 242.37917 70.1125 241.64479Q71.51875 240.48854 72.00313 239.81667Q72.50313 239.14479 72.50313 238.55104Q72.50313 237.92604 72.05 237.50417Q71.59688 237.06667 70.87813 237.06667Q70.1125 237.06667 69.65938 237.51979Q69.20625 237.97292 69.19063 238.78542L68.1125 238.67604Q68.22188 237.45729 68.94063 236.83229Q69.675 236.19167 70.90938 236.19167Q72.14375 236.19167 72.8625 236.87917Q73.58125 237.56667 73.58125 238.58229Q73.58125 239.09792 73.3625 239.59792Q73.15938 240.08229 72.65938 240.64479Q72.175 241.19167 71.05 242.14479Q70.09688 242.94167 69.81563 243.23854Q69.55 243.51979 69.37813 243.80104L73.59688 243.80104ZM75.05 242.56667L76.15938 242.47292Q76.28438 243.28542 76.72188 243.69167Q77.175 244.09792 77.81563 244.09792Q78.56563 244.09792 79.09688 243.51979Q79.62813 242.94167 79.62813 242.00417Q79.62813 241.09792 79.1125 240.58229Q78.6125 240.05104 77.78438 240.05104Q77.28438 240.05104 76.8625 240.28542Q76.45625 240.51979 76.22188 240.87917L75.2375 240.75417L76.06563 236.34792L80.34688 236.34792L80.34688 237.34792L76.90938 237.34792L76.45625 239.66042Q77.22188 239.11354 78.06563 239.11354Q79.19063 239.11354 79.95625 239.89479Q80.7375 240.67604 80.7375 241.91042Q80.7375 243.06667 80.06563 243.92604Q79.2375 244.95729 77.81563 244.95729Q76.64375 244.95729 75.89375 244.30104Q75.15938 243.64479 75.05 242.56667ZM82.05 240.58229Q82.05 239.05104 82.3625 238.12917Q82.675 237.19167 83.28438 236.69167Q83.90938 236.19167 84.84688 236.19167Q85.53438 236.19167 86.05 236.47292Q86.58125 236.75417 86.925 237.28542Q87.26875 237.80104 87.45625 238.55104Q87.64375 239.30104 87.64375 240.58229Q87.64375 242.09792 87.33125 243.01979Q87.03438 243.94167 86.40938 244.45729Q85.8 244.95729 84.84688 244.95729Q83.6125 244.95729 82.89375 244.06667Q82.05 243.00417 82.05 240.58229ZM83.12813 240.58229Q83.12813 242.69167 83.62813 243.39479Q84.12813 244.09792 84.84688 244.09792Q85.58125 244.09792 86.06563 243.39479Q86.56563 242.69167 86.56563 240.58229Q86.56563 238.45729 86.06563 237.76979Q85.58125 237.06667 84.83125 237.06667Q84.1125 237.06667 83.675 237.67604Q83.12813 238.45729 83.12813 240.58229ZM89.64375 244.81667L89.64375 243.61354L90.84688 243.61354L90.84688 244.81667L89.64375 244.81667ZM92.05 240.58229Q92.05 239.05104 92.3625 238.12917Q92.675 237.19167 93.28438 236.69167Q93.90938 236.19167 94.84688 236.19167Q95.53438 236.19167 96.05 236.47292Q96.58125 236.75417 96.925 237.28542Q97.26875 237.80104 97.45625 238.55104Q97.64375 239.30104 97.64375 240.58229Q97.64375 242.09792 97.33125 243.01979Q97.03438 243.94167 96.40938 244.45729Q95.8 244.95729 94.84688 244.95729Q93.6125 244.95729 92.89375 244.06667Q92.05 243.00417 92.05 240.58229ZM93.12813 240.58229Q93.12813 242.69167 93.62813 243.39479Q94.12813 244.09792 94.84688 244.09792Q95.58125 244.09792 96.06563 243.39479Q96.56563 242.69167 96.56563 240.58229Q96.56563 238.45729 96.06563 237.76979Q95.58125 237.06667 94.83125 237.06667Q94.1125 237.06667 93.675 237.67604Q93.12813 238.45729 93.12813 240.58229ZM99.05 240.58229Q99.05 239.05104 99.3625 238.12917Q99.675 237.19167 100.28438 236.69167Q100.90938 236.19167 101.84688 236.19167Q102.53438 236.19167 103.05 236.47292Q103.58125 236.75417 103.925 237.28542Q104.26875 237.80104 104.45625 238.55104Q104.64375 239.30104 104.64375 240.58229Q104.64375 242.09792 104.33125 243.01979Q104.03438 243.94167 103.40938 244.45729Q102.8 244.95729 101.84688 244.95729Q100.6125 244.95729 99.89375 244.06667Q99.05 243.00417 99.05 240.58229ZM100.12813 240.58229Q100.12813 242.69167 100.62813 243.39479Q101.12813 244.09792 101.84688 244.09792Q102.58125 244.09792 103.06563 243.39479Q103.56563 242.69167 103.56563 240.58229Q103.56563 238.45729 103.06563 237.76979Q102.58125 237.06667 101.83125 237.06667Q101.1125 237.06667 100.675 237.67604Q100.12813 238.45729 100.12813 240.58229Z" fill-rule="nonzero"/><path fill="#000000" d="M63.534374 186.41771L63.534374 185.37083Q62.753124 185.26146 62.253124 185.01146Q61.753124 184.76146 61.39375 184.19896Q61.034374 183.62083 60.971874 182.79271L62.034374 182.60521Q62.159374 183.44896 62.471874 183.83958Q62.925 184.40208 63.534374 184.48021L63.534374 181.12083Q62.89375 180.99583 62.20625 180.60521Q61.70625 180.32396 61.425 179.83958Q61.159374 179.33958 61.159374 178.69896Q61.159374 177.57396 61.95625 176.88646Q62.4875 176.41771 63.534374 176.30833L63.534374 175.80833L64.15938 175.80833L64.15938 176.30833Q65.08125 176.38646 65.6125 176.83958Q66.31563 177.41771 66.45625 178.41771L65.3625 178.58958Q65.26875 177.96458 64.97188 177.63646Q64.675 177.30833 64.15938 177.19896L64.15938 180.23021Q64.95625 180.43333 65.22188 180.54271Q65.70625 180.76146 66.01875 181.07396Q66.33125 181.38646 66.4875 181.82396Q66.65938 182.24583 66.65938 182.74583Q66.65938 183.83958 65.95625 184.57396Q65.26875 185.30833 64.15938 185.35521L64.15938 186.41771L63.534374 186.41771ZM63.534374 177.18333Q62.925 177.27708 62.565624 177.68333Q62.221874 178.07396 62.221874 178.62083Q62.221874 179.15208 62.51875 179.52708Q62.815624 179.88646 63.534374 180.10521L63.534374 177.18333ZM64.15938 184.48021Q64.76875 184.40208 65.175 183.94896Q65.58125 183.48021 65.58125 182.80833Q65.58125 182.23021 65.28438 181.88646Q65.00313 181.54271 64.15938 181.26146L64.15938 184.48021ZM68.05 182.93333L69.15938 182.83958Q69.28438 183.65208 69.72188 184.05833Q70.175 184.46458 70.81563 184.46458Q71.56563 184.46458 72.09688 183.88646Q72.62813 183.30833 72.62813 182.37083Q72.62813 181.46458 72.1125 180.94896Q71.6125 180.41771 70.78438 180.41771Q70.28438 180.41771 69.8625 180.65208Q69.45625 180.88646 69.22188 181.24583L68.2375 181.12083L69.06563 176.71458L73.34688 176.71458L73.34688 177.71458L69.90938 177.71458L69.45625 180.02708Q70.22188 179.48021 71.06563 179.48021Q72.19063 179.48021 72.95625 180.26146Q73.7375 181.04271 73.7375 182.27708Q73.7375 183.43333 73.06563 184.29271Q72.2375 185.32396 70.81563 185.32396Q69.64375 185.32396 68.89375 184.66771Q68.15938 184.01146 68.05 182.93333ZM75.05 180.94896Q75.05 179.41771 75.3625 178.49583Q75.675 177.55833 76.28438 177.05833Q76.90938 176.55833 77.84688 176.55833Q78.53438 176.55833 79.05 176.83958Q79.58125 177.12083 79.925 177.65208Q80.26875 178.16771 80.45625 178.91771Q80.64375 179.66771 80.64375 180.94896Q80.64375 182.46458 80.33125 183.38646Q80.03438 184.30833 79.40938 184.82396Q78.8 185.32396 77.84688 185.32396Q76.6125 185.32396 75.89375 184.43333Q75.05 183.37083 75.05 180.94896ZM76.12813 180.94896Q76.12813 183.05833 76.62813 183.76146Q77.12813 184.46458 77.84688 184.46458Q78.58125 184.46458 79.06563 183.76146Q79.56563 183.05833 79.56563 180.94896Q79.56563 178.82396 79.06563 178.13646Q78.58125 177.43333 77.83125 177.43333Q77.1125 177.43333 76.675 178.04271Q76.12813 178.82396 76.12813 180.94896ZM82.05 180.94896Q82.05 179.41771 82.3625 178.49583Q82.675 177.55833 83.28438 177.05833Q83.90938 176.55833 84.84688 176.55833Q85.53438 176.55833 86.05 176.83958Q86.58125 177.12083 86.925 177.65208Q87.26875 178.16771 87.45625 178.91771Q87.64375 179.66771 87.64375 180.94896Q87.64375 182.46458 87.33125 183.38646Q87.03438 184.30833 86.40938 184.82396Q85.8 185.32396 84.84688 185.32396Q83.6125 185.32396 82.89375 184.43333Q82.05 183.37083 82.05 180.94896ZM83.12813 180.94896Q83.12813 183.05833 83.62813 183.76146Q84.12813 184.46458 84.84688 184.46458Q85.58125 184.46458 86.06563 183.76146Q86.56563 183.05833 86.56563 180.94896Q86.56563 178.82396 86.06563 178.13646Q85.58125 177.43333 84.83125 177.43333Q84.1125 177.43333 83.675 178.04271Q83.12813 178.82396 83.12813 180.94896ZM89.64375 185.18333L89.64375 183.98021L90.84688 183.98021L90.84688 185.18333L89.64375 185.18333ZM92.05 180.94896Q92.05 179.41771 92.3625 178.49583Q92.675 177.55833 93.28438 177.05833Q93.90938 176.55833 94.84688 176.55833Q95.53438 176.55833 96.05 176.83958Q96.58125 177.12083 96.925 177.65208Q97.26875 178.16771 97.45625 178.91771Q97.64375 179.66771 97.64375 180.94896Q97.64375 182.46458 97.33125 183.38646Q97.03438 184.30833 96.40938 184.82396Q95.8 185.32396 94.84688 185.32396Q93.6125 185.32396 92.89375 184.43333Q92.05 183.37083 92.05 180.94896ZM93.12813 180.94896Q93.12813 183.05833 93.62813 183.76146Q94.12813 184.46458 94.84688 184.46458Q95.58125 184.46458 96.06563 183.76146Q96.56563 183.05833 96.56563 180.94896Q96.56563 178.82396 96.06563 178.13646Q95.58125 177.43333 94.83125 177.43333Q94.1125 177.43333 93.675 178.04271Q93.12813 178.82396 93.12813 180.94896ZM99.05 180.94896Q99.05 179.41771 99.3625 178.49583Q99.675 177.55833 100.28438 177.05833Q100.90938 176.55833 101.84688 176.55833Q102.53438 176.55833 103.05 176.83958Q103.58125 177.12083 103.925 177.65208Q104.26875 178.16771 104.45625 178.91771Q104.64375 179.66771 104.64375 180.94896Q104.64375 182.46458 104.33125 183.38646Q104.03438 184.30833 103.40938 184.82396Q102.8 185.32396 101.84688 185.32396Q100.6125 185.32396 99.89375 184.43333Q99.05 183.37083 99.05 180.94896ZM100.12813 180.94896Q100.12813 183.05833 100.62813 183.76146Q101.12813 184.46458 101.84688 184.46458Q102.58125 184.46458 103.06563 183.76146Q103.56563 183.05833 103.56563 180.94896Q103.56563 178.82396 103.06563 178.13646Q102.58125 177.43333 101.83125 177.43333Q101.1125 177.43333 100.675 178.04271Q100.12813 178.82396 100.12813 180.94896Z" fill-rule="nonzero"/><path fill="#000000" d="M63.534374 126.78438L63.534374 125.7375Q62.753124 125.62813 62.253124 125.37813Q61.753124 125.12813 61.39375 124.56563Q61.034374 123.9875 60.971874 123.15938L62.034374 122.97188Q62.159374 123.81563 62.471874 124.20625Q62.925 124.76875 63.534374 124.84688L63.534374 121.4875Q62.89375 121.3625 62.20625 120.97188Q61.70625 120.69063 61.425 120.20625Q61.159374 119.70625 61.159374 119.06563Q61.159374 117.94063 61.95625 117.25313Q62.4875 116.78438 63.534374 116.675L63.534374 116.175L64.15938 116.175L64.15938 116.675Q65.08125 116.75313 65.6125 117.20625Q66.31563 117.78438 66.45625 118.78438L65.3625 118.95625Q65.26875 118.33125 64.97188 118.00313Q64.675 117.675 64.15938 117.56563L64.15938 120.59688Q64.95625 120.8 65.22188 120.90938Q65.70625 121.12813 66.01875 121.44063Q66.33125 121.75313 66.4875 122.19063Q66.65938 122.6125 66.65938 123.1125Q66.65938 124.20625 65.95625 124.94063Q65.26875 125.675 64.15938 125.72188L64.15938 126.78438L63.534374 126.78438ZM63.534374 117.55Q62.925 117.64375 62.565624 118.05Q62.221874 118.44063 62.221874 118.9875Q62.221874 119.51875 62.51875 119.89375Q62.815624 120.25313 63.534374 120.47188L63.534374 117.55ZM64.15938 124.84688Q64.76875 124.76875 65.175 124.31563Q65.58125 123.84688 65.58125 123.175Q65.58125 122.59688 65.28438 122.25313Q65.00313 121.90938 64.15938 121.62813L64.15938 124.84688ZM68.1125 118.08125L68.1125 117.06563L73.675 117.06563L73.675 117.89375Q72.8625 118.76875 72.05 120.22188Q71.25313 121.65938 70.81563 123.19063Q70.4875 124.26875 70.40938 125.55L69.31563 125.55Q69.33125 124.53438 69.70625 123.09688Q70.09688 121.65938 70.8 120.33125Q71.51875 119.00313 72.33125 118.08125L68.1125 118.08125ZM75.05 123.3L76.15938 123.20625Q76.28438 124.01875 76.72188 124.425Q77.175 124.83125 77.81563 124.83125Q78.56563 124.83125 79.09688 124.25313Q79.62813 123.675 79.62813 122.7375Q79.62813 121.83125 79.1125 121.31563Q78.6125 120.78438 77.78438 120.78438Q77.28438 120.78438 76.8625 121.01875Q76.45625 121.25313 76.22188 121.6125L75.2375 121.4875L76.06563 117.08125L80.34688 117.08125L80.34688 118.08125L76.90938 118.08125L76.45625 120.39375Q77.22188 119.84688 78.06563 119.84688Q79.19063 119.84688 79.95625 120.62813Q80.7375 121.40938 80.7375 122.64375Q80.7375 123.8 80.06563 124.65938Q79.2375 125.69063 77.81563 125.69063Q76.64375 125.69063 75.89375 125.03438Q75.15938 124.37813 75.05 123.3ZM82.05 121.31563Q82.05 119.78438 82.3625 118.8625Q82.675 117.925 83.28438 117.425Q83.90938 116.925 84.84688 116.925Q85.53438 116.925 86.05 117.20625Q86.58125 117.4875 86.925 118.01875Q87.26875 118.53438 87.45625 119.28438Q87.64375 120.03438 87.64375 121.31563Q87.64375 122.83125 87.33125 123.75313Q87.03438 124.675 86.40938 125.19063Q85.8 125.69063 84.84688 125.69063Q83.6125 125.69063 82.89375 124.8Q82.05 123.7375 82.05 121.31563ZM83.12813 121.31563Q83.12813 123.425 83.62813 124.12813Q84.12813 124.83125 84.84688 124.83125Q85.58125 124.83125 86.06563 124.12813Q86.56563 123.425 86.56563 121.31563Q86.56563 119.19063 86.06563 118.50313Q85.58125 117.8 84.83125 117.8Q84.1125 117.8 83.675 118.40938Q83.12813 119.19063 83.12813 121.31563ZM89.64375 125.55L89.64375 124.34688L90.84688 124.34688L90.84688 125.55L89.64375 125.55ZM92.05 121.31563Q92.05 119.78438 92.3625 118.8625Q92.675 117.925 93.28438 117.425Q93.90938 116.925 94.84688 116.925Q95.53438 116.925 96.05 117.20625Q96.58125 117.4875 96.925 118.01875Q97.26875 118.53438 97.45625 119.28438Q97.64375 120.03438 97.64375 121.31563Q97.64375 122.83125 97.33125 123.75313Q97.03438 124.675 96.40938 125.19063Q95.8 125.69063 94.84688 125.69063Q93.6125 125.69063 92.89375 124.8Q92.05 123.7375 92.05 121.31563ZM93.12813 121.31563Q93.12813 123.425 93.62813 124.12813Q94.12813 124.83125 94.84688 124.83125Q95.58125 124.83125 96.06563 124.12813Q96.56563 123.425 96.56563 121.31563Q96.56563 119.19063 96.06563 118.50313Q95.58125 117.8 94.83125 117.8Q94.1125 117.8 93.675 118.40938Q93.12813 119.19063 93.12813 121.31563ZM99.05 121.31563Q99.05 119.78438 99.3625 118.8625Q99.675 117.925 100.28438 117.425Q100.90938 116.925 101.84688 116.925Q102.53438 116.925 103.05 117.20625Q103.58125 117.4875 103.925 118.01875Q104.26875 118.53438 104.45625 119.28438Q104.64375 120.03438 104.64375 121.31563Q104.64375 122.83125 104.33125 123.75313Q104.03438 124.675 103.40938 125.19063Q102.8 125.69063 101.84688 125.69063Q100.6125 125.69063 99.89375 124.8Q99.05 123.7375 99.05 121.31563ZM100.12813 121.31563Q100.12813 123.425 100.62813 124.12813Q101.12813 124.83125 101.84688 124.83125Q102.58125 124.83125 103.06563 124.12813Q103.56563 123.425 103.56563 121.31563Q103.56563 119.19063 103.06563 118.50313Q102.58125 117.8 101.83125 117.8Q101.1125 117.8 100.675 118.40938Q100.12813 119.19063 100.12813 121.31563Z" fill-rule="nonzero"/><path fill="#000000" d="M53.534374 67.15104L53.534374 66.104164Q52.753124 65.99479 52.253124 65.74479Q51.753124 65.49479 51.39375 64.93229Q51.034374 64.354164 50.971874 63.52604L52.034374 63.33854Q52.159374 64.18229 52.471874 64.572914Q52.925 65.135414 53.534374 65.21354L53.534374 61.854164Q52.89375 61.729164 52.20625 61.33854Q51.70625 61.05729 51.425 60.572914Q51.159374 60.072914 51.159374 59.43229Q51.159374 58.30729 51.95625 57.61979Q52.4875 57.15104 53.534374 57.041664L53.534374 56.541664L54.159374 56.541664L54.159374 57.041664Q55.08125 57.11979 55.6125 57.572914Q56.315624 58.15104 56.45625 59.15104L55.3625 59.322914Q55.26875 58.697914 54.971874 58.36979Q54.675 58.041664 54.159374 57.93229L54.159374 60.96354Q54.95625 61.166664 55.221874 61.27604Q55.70625 61.49479 56.01875 61.80729Q56.33125 62.11979 56.4875 62.55729Q56.659374 62.979164 56.659374 63.479164Q56.659374 64.572914 55.95625 65.30729Q55.26875 66.041664 54.159374 66.08854L54.159374 67.15104L53.534374 67.15104ZM53.534374 57.916664Q52.925 58.010414 52.565624 58.416664Q52.221874 58.80729 52.221874 59.354164Q52.221874 59.885414 52.51875 60.260414Q52.815624 60.61979 53.534374 60.83854L53.534374 57.916664ZM54.159374 65.21354Q54.76875 65.135414 55.175 64.68229Q55.58125 64.21354 55.58125 63.541664Q55.58125 62.96354 55.284374 62.61979Q55.003124 62.27604 54.159374 61.99479L54.159374 65.21354ZM62.01875 65.916664L60.971874 65.916664L60.971874 59.197914Q60.58125 59.55729 59.95625 59.93229Q59.346874 60.291664 58.8625 60.46354L58.8625 59.447914Q59.7375 59.02604 60.39375 58.447914Q61.065624 57.854164 61.346874 57.291664L62.01875 57.291664L62.01875 65.916664ZM65.6125 65.916664L65.6125 64.71354L66.81563 64.71354L66.81563 65.916664Q66.81563 66.572914 66.58125 66.979164Q66.34688 67.40104 65.84688 67.61979L65.55 67.166664Q65.87813 67.02604 66.03438 66.729164Q66.19063 66.447914 66.22188 65.916664L65.6125 65.916664ZM68.05 61.68229Q68.05 60.15104 68.3625 59.229164Q68.675 58.291664 69.28438 57.791664Q69.90938 57.291664 70.84688 57.291664Q71.53438 57.291664 72.05 57.572914Q72.58125 57.854164 72.925 58.385414Q73.26875 58.90104 73.45625 59.65104Q73.64375 60.40104 73.64375 61.68229Q73.64375 63.197914 73.33125 64.11979Q73.03438 65.041664 72.40938 65.55729Q71.8 66.05729 70.84688 66.05729Q69.6125 66.05729 68.89375 65.166664Q68.05 64.104164 68.05 61.68229ZM69.12813 61.68229Q69.12813 63.791664 69.62813 64.49479Q70.12813 65.197914 70.84688 65.197914Q71.58125 65.197914 72.06563 64.49479Q72.56563 63.791664 72.56563 61.68229Q72.56563 59.55729 72.06563 58.86979Q71.58125 58.166664 70.83125 58.166664Q70.1125 58.166664 69.675 58.77604Q69.12813 59.55729 69.12813 61.68229ZM75.05 61.68229Q75.05 60.15104 75.3625 59.229164Q75.675 58.291664 76.28438 57.791664Q76.90938 57.291664 77.84688 57.291664Q78.53438 57.291664 79.05 57.572914Q79.58125 57.854164 79.925 58.385414Q80.26875 58.90104 80.45625 59.65104Q80.64375 60.40104 80.64375 61.68229Q80.64375 63.197914 80.33125 64.11979Q80.03438 65.041664 79.40938 65.55729Q78.8 66.05729 77.84688 66.05729Q76.6125 66.05729 75.89375 65.166664Q75.05 64.104164 75.05 61.68229ZM76.12813 61.68229Q76.12813 63.791664 76.62813 64.49479Q77.12813 65.197914 77.84688 65.197914Q78.58125 65.197914 79.06563 64.49479Q79.56563 63.791664 79.56563 61.68229Q79.56563 59.55729 79.06563 58.86979Q78.58125 58.166664 77.83125 58.166664Q77.1125 58.166664 76.675 58.77604Q76.12813 59.55729 76.12813 61.68229ZM82.05 61.68229Q82.05 60.15104 82.3625 59.229164Q82.675 58.291664 83.28438 57.791664Q83.90938 57.291664 84.84688 57.291664Q85.53438 57.291664 86.05 57.572914Q86.58125 57.854164 86.925 58.385414Q87.26875 58.90104 87.45625 59.65104Q87.64375 60.40104 87.64375 61.68229Q87.64375 63.197914 87.33125 64.11979Q87.03438 65.041664 86.40938 65.55729Q85.8 66.05729 84.84688 66.05729Q83.6125 66.05729 82.89375 65.166664Q82.05 64.104164 82.05 61.68229ZM83.12813 61.68229Q83.12813 63.791664 83.62813 64.49479Q84.12813 65.197914 84.84688 65.197914Q85.58125 65.197914 86.06563 64.49479Q86.56563 63.791664 86.56563 61.68229Q86.56563 59.55729 86.06563 58.86979Q85.58125 58.166664 84.83125 58.166664Q84.1125 58.166664 83.675 58.77604Q83.12813 59.55729 83.12813 61.68229ZM89.64375 65.916664L89.64375 64.71354L90.84688 64.71354L90.84688 65.916664L89.64375 65.916664ZM92.05 61.68229Q92.05 60.15104 92.3625 59.229164Q92.675 58.291664 93.28438 57.791664Q93.90938 57.291664 94.84688 57.291664Q95.53438 57.291664 96.05 57.572914Q96.58125 57.854164 96.925 58.385414Q97.26875 58.90104 97.45625 59.65104Q97.64375 60.40104 97.64375 61.68229Q97.64375 63.197914 97.33125 64.11979Q97.03438 65.041664 96.40938 65.55729Q95.8 66.05729 94.84688 66.05729Q93.6125 66.05729 92.89375 65.166664Q92.05 64.104164 92.05 61.68229ZM93.12813 61.68229Q93.12813 63.791664 93.62813 64.49479Q94.12813 65.197914 94.84688 65.197914Q95.58125 65.197914 96.06563 64.49479Q96.56563 63.791664 96.56563 61.68229Q96.56563 59.55729 96.06563 58.86979Q95.58125 58.166664 94.83125 58.166664Q94.1125 58.166664 93.675 58.77604Q93.12813 59.55729 93.12813 61.68229ZM99.05 61.68229Q99.05 60.15104 99.3625 59.229164Q99.675 58.291664 100.28438 57.791664Q100.90938 57.291664 101.84688 57.291664Q102.53438 57.291664 103.05 57.572914Q103.58125 57.854164 103.925 58.385414Q104.26875 58.90104 104.45625 59.65104Q104.64375 60.40104 104.64375 61.68229Q104.64375 63.197914 104.33125 64.11979Q104.03438 65.041664 103.40938 65.55729Q102.8 66.05729 101.84688 66.05729Q100.6125 66.05729 99.89375 65.166664Q99.05 64.104164 99.05 61.68229ZM100.12813 61.68229Q100.12813 63.791664 100.62813 64.49479Q101.12813 65.197914 101.84688 65.197914Q102.58125 65.197914 103.06563 64.49479Q103.56563 63.791664 103.56563 61.68229Q103.56563 59.55729 103.06563 58.86979Q102.58125 58.166664 101.83125 58.166664Q101.1125 58.166664 100.675 58.77604Q100.12813 59.55729 100.12813 61.68229Z" fill-rule="nonzero"/><path fill="#000000" d="M161.30519 317.45L160.25832 317.45L160.25832 310.73126Q159.86769 311.09064 159.24269 311.46564Q158.63332 311.825 158.14894 311.9969L158.14894 310.98126Q159.02394 310.5594 159.68019 309.98126Q160.35207 309.3875 160.63332 308.825L161.30519 308.825L161.30519 317.45ZM164.49269 315.46564L165.50832 315.3719Q165.63332 316.09064 165.99269 316.41876Q166.36769 316.73126 166.93019 316.73126Q167.41457 316.73126 167.77394 316.5125Q168.14894 316.27814 168.38332 315.91876Q168.61769 315.54376 168.77394 314.91876Q168.93019 314.27814 168.93019 313.6219Q168.93019 313.54376 168.93019 313.40314Q168.61769 313.90314 168.07082 314.23126Q167.52394 314.54376 166.88332 314.54376Q165.80519 314.54376 165.07082 313.77814Q164.33644 312.9969 164.33644 311.73126Q164.33644 310.41876 165.10207 309.6219Q165.88332 308.825 167.03957 308.825Q167.86769 308.825 168.55519 309.27814Q169.25832 309.73126 169.61769 310.575Q169.97707 311.40314 169.97707 312.98126Q169.97707 314.6219 169.61769 315.60626Q169.27394 316.575 168.55519 317.09064Q167.85207 317.59064 166.91457 317.59064Q165.89894 317.59064 165.25832 317.04376Q164.61769 316.48126 164.49269 315.46564ZM168.80519 311.66876Q168.80519 310.7625 168.32082 310.23126Q167.85207 309.7 167.16457 309.7Q166.46144 309.7 165.93019 310.27814Q165.41457 310.84064 165.41457 311.7625Q165.41457 312.575 165.91457 313.09064Q166.41457 313.60626 167.13332 313.60626Q167.86769 313.60626 168.33644 313.09064Q168.80519 312.575 168.80519 311.66876ZM176.88332 316.4344L176.88332 317.45L171.19582 317.45Q171.19582 317.075 171.32082 316.71564Q171.53957 316.1375 172.00832 315.575Q172.49269 315.0125 173.39894 314.27814Q174.80519 313.1219 175.28957 312.45Q175.78957 311.77814 175.78957 311.1844Q175.78957 310.5594 175.33644 310.1375Q174.88332 309.7 174.16457 309.7Q173.39894 309.7 172.94582 310.15314Q172.49269 310.60626 172.47707 311.41876L171.39894 311.3094Q171.50832 310.09064 172.22707 309.46564Q172.96144 308.825 174.19582 308.825Q175.43019 308.825 176.14894 309.5125Q176.86769 310.2 176.86769 311.21564Q176.86769 311.73126 176.64894 312.23126Q176.44582 312.71564 175.94582 313.27814Q175.46144 313.825 174.33644 314.77814Q173.38332 315.575 173.10207 315.8719Q172.83644 316.15314 172.66457 316.4344L176.88332 316.4344ZM178.49269 315.46564L179.50832 315.3719Q179.63332 316.09064 179.99269 316.41876Q180.36769 316.73126 180.93019 316.73126Q181.41457 316.73126 181.77394 316.5125Q182.14894 316.27814 182.38332 315.91876Q182.61769 315.54376 182.77394 314.91876Q182.93019 314.27814 182.93019 313.6219Q182.93019 313.54376 182.93019 313.40314Q182.61769 313.90314 182.07082 314.23126Q181.52394 314.54376 180.88332 314.54376Q179.80519 314.54376 179.07082 313.77814Q178.33644 312.9969 178.33644 311.73126Q178.33644 310.41876 179.10207 309.6219Q179.88332 308.825 181.03957 308.825Q181.86769 308.825 182.55519 309.27814Q183.25832 309.73126 183.61769 310.575Q183.97707 311.40314 183.97707 312.98126Q183.97707 314.6219 183.61769 315.60626Q183.27394 316.575 182.55519 317.09064Q181.85207 317.59064 180.91457 317.59064Q179.89894 317.59064 179.25832 317.04376Q178.61769 316.48126 178.49269 315.46564ZM182.80519 311.66876Q182.80519 310.7625 182.32082 310.23126Q181.85207 309.7 181.16457 309.7Q180.46144 309.7 179.93019 310.27814Q179.41457 310.84064 179.41457 311.7625Q179.41457 312.575 179.91457 313.09064Q180.41457 313.60626 181.13332 313.60626Q181.86769 313.60626 182.33644 313.09064Q182.80519 312.575 182.80519 311.66876Z" fill-rule="nonzero"/><path fill="#000000" d="M249.13698 317.45L248.0901 317.45L248.0901 310.73126Q247.69948 311.09064 247.07448 311.46564Q246.4651 311.825 245.98073 311.9969L245.98073 310.98126Q246.85573 310.5594 247.51198 309.98126Q248.18385 309.3875 248.4651 308.825L249.13698 308.825L249.13698 317.45ZM252.32448 315.46564L253.3401 315.3719Q253.4651 316.09064 253.82448 316.41876Q254.19948 316.73126 254.76198 316.73126Q255.24635 316.73126 255.60573 316.5125Q255.98073 316.27814 256.2151 315.91876Q256.44946 315.54376 256.6057 314.91876Q256.76196 314.27814 256.76196 313.6219Q256.76196 313.54376 256.76196 313.40314Q256.44946 313.90314 255.9026 314.23126Q255.35573 314.54376 254.7151 314.54376Q253.63698 314.54376 252.9026 313.77814Q252.16823 312.9969 252.16823 311.73126Q252.16823 310.41876 252.93385 309.6219Q253.7151 308.825 254.87135 308.825Q255.69948 308.825 256.38696 309.27814Q257.0901 309.73126 257.44946 310.575Q257.80884 311.40314 257.80884 312.98126Q257.80884 314.6219 257.44946 315.60626Q257.1057 316.575 256.38696 317.09064Q255.68385 317.59064 254.74635 317.59064Q253.73073 317.59064 253.0901 317.04376Q252.44948 316.48126 252.32448 315.46564ZM256.63696 311.66876Q256.63696 310.7625 256.1526 310.23126Q255.68385 309.7 254.99635 309.7Q254.29323 309.7 253.76198 310.27814Q253.24635 310.84064 253.24635 311.7625Q253.24635 312.575 253.74635 313.09064Q254.24635 313.60626 254.9651 313.60626Q255.69948 313.60626 256.1682 313.09064Q256.63696 312.575 256.63696 311.66876ZM259.1682 315.1844L260.2307 315.04376Q260.4026 315.9344 260.8401 316.34064Q261.2776 316.73126 261.9026 316.73126Q262.6526 316.73126 263.1682 316.21564Q263.68384 315.7 263.68384 314.9344Q263.68384 314.21564 263.19946 313.7469Q262.7307 313.2625 261.99634 313.2625Q261.69946 313.2625 261.24634 313.3875L261.37134 312.45Q261.4807 312.46564 261.5432 312.46564Q262.2151 312.46564 262.74634 312.1219Q263.2932 311.7625 263.2932 311.02814Q263.2932 310.45 262.9026 310.075Q262.51196 309.6844 261.88696 309.6844Q261.2776 309.6844 260.8557 310.075Q260.44946 310.46564 260.3401 311.23126L259.2776 311.04376Q259.4651 309.9969 260.1526 309.41876Q260.8401 308.825 261.8557 308.825Q262.55884 308.825 263.1526 309.1375Q263.74634 309.4344 264.05884 309.95Q264.37134 310.46564 264.37134 311.0594Q264.37134 311.60626 264.07446 312.075Q263.7776 312.52814 263.19946 312.79376Q263.94946 312.96564 264.37134 313.52814Q264.7932 314.075 264.7932 314.91876Q264.7932 316.04376 263.9651 316.825Q263.1526 317.60626 261.9026 317.60626Q260.7776 317.60626 260.0276 316.9344Q259.2776 316.2469 259.1682 315.1844ZM266.1682 313.21564Q266.1682 311.6844 266.4807 310.7625Q266.7932 309.825 267.4026 309.325Q268.0276 308.825 268.9651 308.825Q269.6526 308.825 270.1682 309.10626Q270.69946 309.3875 271.0432 309.91876Q271.38696 310.4344 271.57446 311.1844Q271.76196 311.9344 271.76196 313.21564Q271.76196 314.73126 271.44946 315.65314Q271.1526 316.575 270.5276 317.09064Q269.9182 317.59064 268.9651 317.59064Q267.7307 317.59064 267.01196 316.7Q266.1682 315.6375 266.1682 313.21564ZM267.24634 313.21564Q267.24634 315.325 267.74634 316.02814Q268.24634 316.73126 268.9651 316.73126Q269.69946 316.73126 270.18384 316.02814Q270.68384 315.325 270.68384 313.21564Q270.68384 311.09064 270.18384 310.40314Q269.69946 309.7 268.94946 309.7Q268.2307 309.7 267.7932 310.3094Q267.24634 311.09064 267.24634 313.21564Z" fill-rule="nonzero"/><path fill="#000000" d="M336.96875 317.45L335.92188 317.45L335.92188 310.73126Q335.53125 311.09064 334.90625 311.46564Q334.29688 311.825 333.8125 311.9969L333.8125 310.98126Q334.6875 310.5594 335.34375 309.98126Q336.01562 309.3875 336.29688 308.825L336.96875 308.825L336.96875 317.45ZM340.15625 315.46564L341.17188 315.3719Q341.29688 316.09064 341.65625 316.41876Q342.03125 316.73126 342.59375 316.73126Q343.07812 316.73126 343.4375 316.5125Q343.8125 316.27814 344.04688 315.91876Q344.28125 315.54376 344.4375 314.91876Q344.59375 314.27814 344.59375 313.6219Q344.59375 313.54376 344.59375 313.40314Q344.28125 313.90314 343.73438 314.23126Q343.1875 314.54376 342.54688 314.54376Q341.46875 314.54376 340.73438 313.77814Q340.0 312.9969 340.0 311.73126Q340.0 310.41876 340.76562 309.6219Q341.54688 308.825 342.70312 308.825Q343.53125 308.825 344.21875 309.27814Q344.92188 309.73126 345.28125 310.575Q345.64062 311.40314 345.64062 312.98126Q345.64062 314.6219 345.28125 315.60626Q344.9375 316.575 344.21875 317.09064Q343.51562 317.59064 342.57812 317.59064Q341.5625 317.59064 340.92188 317.04376Q340.28125 316.48126 340.15625 315.46564ZM344.46875 311.66876Q344.46875 310.7625 343.98438 310.23126Q343.51562 309.7 342.82812 309.7Q342.125 309.7 341.59375 310.27814Q341.07812 310.84064 341.07812 311.7625Q341.07812 312.575 341.57812 313.09064Q342.07812 313.60626 342.79688 313.60626Q343.53125 313.60626 344.0 313.09064Q344.46875 312.575 344.46875 311.66876ZM347.0 315.1844L348.0625 315.04376Q348.23438 315.9344 348.67188 316.34064Q349.10938 316.73126 349.73438 316.73126Q350.48438 316.73126 351.0 316.21564Q351.51562 315.7 351.51562 314.9344Q351.51562 314.21564 351.03125 313.7469Q350.5625 313.2625 349.82812 313.2625Q349.53125 313.2625 349.07812 313.3875L349.20312 312.45Q349.3125 312.46564 349.375 312.46564Q350.04688 312.46564 350.57812 312.1219Q351.125 311.7625 351.125 311.02814Q351.125 310.45 350.73438 310.075Q350.34375 309.6844 349.71875 309.6844Q349.10938 309.6844 348.6875 310.075Q348.28125 310.46564 348.17188 311.23126L347.10938 311.04376Q347.29688 309.9969 347.98438 309.41876Q348.67188 308.825 349.6875 308.825Q350.39062 308.825 350.98438 309.1375Q351.57812 309.4344 351.89062 309.95Q352.20312 310.46564 352.20312 311.0594Q352.20312 311.60626 351.90625 312.075Q351.60938 312.52814 351.03125 312.79376Q351.78125 312.96564 352.20312 313.52814Q352.625 314.075 352.625 314.91876Q352.625 316.04376 351.79688 316.825Q350.98438 317.60626 349.73438 317.60626Q348.60938 317.60626 347.85938 316.9344Q347.10938 316.2469 347.0 315.1844ZM357.96875 317.45L356.92188 317.45L356.92188 310.73126Q356.53125 311.09064 355.90625 311.46564Q355.29688 311.825 354.8125 311.9969L354.8125 310.98126Q355.6875 310.5594 356.34375 309.98126Q357.01562 309.3875 357.29688 308.825L357.96875 308.825L357.96875 317.45Z" fill-rule="nonzero"/><path fill="#000000" d="M424.80054 317.45L423.75366 317.45L423.75366 310.73126Q423.36304 311.09064 422.73804 311.46564Q422.12866 311.825 421.6443 311.9969L421.6443 310.98126Q422.5193 310.5594 423.17554 309.98126Q423.8474 309.3875 424.12866 308.825L424.80054 308.825L424.80054 317.45ZM427.98804 315.46564L429.00366 315.3719Q429.12866 316.09064 429.48804 316.41876Q429.86304 316.73126 430.42554 316.73126Q430.9099 316.73126 431.2693 316.5125Q431.6443 316.27814 431.87866 315.91876Q432.11304 315.54376 432.2693 314.91876Q432.42554 314.27814 432.42554 313.6219Q432.42554 313.54376 432.42554 313.40314Q432.11304 313.90314 431.56616 314.23126Q431.0193 314.54376 430.37866 314.54376Q429.30054 314.54376 428.56616 313.77814Q427.8318 312.9969 427.8318 311.73126Q427.8318 310.41876 428.5974 309.6219Q429.37866 308.825 430.5349 308.825Q431.36304 308.825 432.05054 309.27814Q432.75366 309.73126 433.11304 310.575Q433.4724 311.40314 433.4724 312.98126Q433.4724 314.6219 433.11304 315.60626Q432.7693 316.575 432.05054 317.09064Q431.3474 317.59064 430.4099 317.59064Q429.3943 317.59064 428.75366 317.04376Q428.11304 316.48126 427.98804 315.46564ZM432.30054 311.66876Q432.30054 310.7625 431.81616 310.23126Q431.3474 309.7 430.6599 309.7Q429.9568 309.7 429.42554 310.27814Q428.9099 310.84064 428.9099 311.7625Q428.9099 312.575 429.4099 313.09064Q429.9099 313.60626 430.62866 313.60626Q431.36304 313.60626 431.8318 313.09064Q432.30054 312.575 432.30054 311.66876ZM434.8318 315.1844L435.8943 315.04376Q436.06616 315.9344 436.50366 316.34064Q436.94116 316.73126 437.56616 316.73126Q438.31616 316.73126 438.8318 316.21564Q439.3474 315.7 439.3474 314.9344Q439.3474 314.21564 438.86304 313.7469Q438.3943 313.2625 437.6599 313.2625Q437.36304 313.2625 436.9099 313.3875L437.0349 312.45Q437.1443 312.46564 437.2068 312.46564Q437.87866 312.46564 438.4099 312.1219Q438.9568 311.7625 438.9568 311.02814Q438.9568 310.45 438.56616 310.075Q438.17554 309.6844 437.55054 309.6844Q436.94116 309.6844 436.5193 310.075Q436.11304 310.46564 436.00366 311.23126L434.94116 311.04376Q435.12866 309.9969 435.81616 309.41876Q436.50366 308.825 437.5193 308.825Q438.2224 308.825 438.81616 309.1375Q439.4099 309.4344 439.7224 309.95Q440.0349 310.46564 440.0349 311.0594Q440.0349 311.60626 439.73804 312.075Q439.44116 312.52814 438.86304 312.79376Q439.61304 312.96564 440.0349 313.52814Q440.4568 314.075 440.4568 314.91876Q440.4568 316.04376 439.62866 316.825Q438.81616 317.60626 437.56616 317.60626Q436.44116 317.60626 435.69116 316.9344Q434.94116 316.2469 434.8318 315.1844ZM447.37866 316.4344L447.37866 317.45L441.69116 317.45Q441.69116 317.075 441.81616 316.71564Q442.0349 316.1375 442.50366 315.575Q442.98804 315.0125 443.8943 314.27814Q445.30054 313.1219 445.7849 312.45Q446.2849 311.77814 446.2849 311.1844Q446.2849 310.5594 445.8318 310.1375Q445.37866 309.7 444.6599 309.7Q443.8943 309.7 443.44116 310.15314Q442.98804 310.60626 442.9724 311.41876L441.8943 311.3094Q442.00366 310.09064 442.7224 309.46564Q443.4568 308.825 444.69116 308.825Q445.92554 308.825 446.6443 309.5125Q447.36304 310.2 447.36304 311.21564Q447.36304 311.73126 447.1443 312.23126Q446.94116 312.71564 446.44116 313.27814Q445.9568 313.825 444.8318 314.77814Q443.87866 315.575 443.5974 315.8719Q443.3318 316.15314 443.1599 316.4344L447.37866 316.4344Z" fill-rule="nonzero"/><path fill="#000000" d="M512.6323 317.45L511.58542 317.45L511.58542 310.73126Q511.1948 311.09064 510.5698 311.46564Q509.96042 311.825 509.47604 311.9969L509.47604 310.98126Q510.35104 310.5594 511.0073 309.98126Q511.67917 309.3875 511.96042 308.825L512.6323 308.825L512.6323 317.45ZM515.8198 315.46564L516.83545 315.3719Q516.96045 316.09064 517.3198 316.41876Q517.6948 316.73126 518.2573 316.73126Q518.7417 316.73126 519.1011 316.5125Q519.4761 316.27814 519.71045 315.91876Q519.9448 315.54376 520.1011 314.91876Q520.2573 314.27814 520.2573 313.6219Q520.2573 313.54376 520.2573 313.40314Q519.9448 313.90314 519.39795 314.23126Q518.8511 314.54376 518.21045 314.54376Q517.1323 314.54376 516.39795 313.77814Q515.6636 312.9969 515.6636 311.73126Q515.6636 310.41876 516.4292 309.6219Q517.21045 308.825 518.3667 308.825Q519.1948 308.825 519.8823 309.27814Q520.58545 309.73126 520.9448 310.575Q521.3042 311.40314 521.3042 312.98126Q521.3042 314.6219 520.9448 315.60626Q520.6011 316.575 519.8823 317.09064Q519.1792 317.59064 518.2417 317.59064Q517.2261 317.59064 516.58545 317.04376Q515.9448 316.48126 515.8198 315.46564ZM520.1323 311.66876Q520.1323 310.7625 519.64795 310.23126Q519.1792 309.7 518.4917 309.7Q517.7886 309.7 517.2573 310.27814Q516.7417 310.84064 516.7417 311.7625Q516.7417 312.575 517.2417 313.09064Q517.7417 313.60626 518.46045 313.60626Q519.1948 313.60626 519.6636 313.09064Q520.1323 312.575 520.1323 311.66876ZM522.6636 315.1844L523.7261 315.04376Q523.89795 315.9344 524.33545 316.34064Q524.77295 316.73126 525.39795 316.73126Q526.14795 316.73126 526.6636 316.21564Q527.1792 315.7 527.1792 314.9344Q527.1792 314.21564 526.6948 313.7469Q526.2261 313.2625 525.4917 313.2625Q525.1948 313.2625 524.7417 313.3875L524.8667 312.45Q524.9761 312.46564 525.0386 312.46564Q525.71045 312.46564 526.2417 312.1219Q526.7886 311.7625 526.7886 311.02814Q526.7886 310.45 526.39795 310.075Q526.0073 309.6844 525.3823 309.6844Q524.77295 309.6844 524.3511 310.075Q523.9448 310.46564 523.83545 311.23126L522.77295 311.04376Q522.96045 309.9969 523.64795 309.41876Q524.33545 308.825 525.3511 308.825Q526.0542 308.825 526.64795 309.1375Q527.2417 309.4344 527.5542 309.95Q527.8667 310.46564 527.8667 311.0594Q527.8667 311.60626 527.5698 312.075Q527.27295 312.52814 526.6948 312.79376Q527.4448 312.96564 527.8667 313.52814Q528.2886 314.075 528.2886 314.91876Q528.2886 316.04376 527.46045 316.825Q526.64795 317.60626 525.39795 317.60626Q524.27295 317.60626 523.52295 316.9344Q522.77295 316.2469 522.6636 315.1844ZM529.6636 315.1844L530.7261 315.04376Q530.89795 315.9344 531.33545 316.34064Q531.77295 316.73126 532.39795 316.73126Q533.14795 316.73126 533.6636 316.21564Q534.1792 315.7 534.1792 314.9344Q534.1792 314.21564 533.6948 313.7469Q533.2261 313.2625 532.4917 313.2625Q532.1948 313.2625 531.7417 313.3875L531.8667 312.45Q531.9761 312.46564 532.0386 312.46564Q532.71045 312.46564 533.2417 312.1219Q533.7886 311.7625 533.7886 311.02814Q533.7886 310.45 533.39795 310.075Q533.0073 309.6844 532.3823 309.6844Q531.77295 309.6844 531.3511 310.075Q530.9448 310.46564 530.83545 311.23126L529.77295 311.04376Q529.96045 309.9969 530.64795 309.41876Q531.33545 308.825 532.3511 308.825Q533.0542 308.825 533.64795 309.1375Q534.2417 309.4344 534.5542 309.95Q534.8667 310.46564 534.8667 311.0594Q534.8667 311.60626 534.5698 312.075Q534.27295 312.52814 533.6948 312.79376Q534.4448 312.96564 534.8667 313.52814Q535.2886 314.075 535.2886 314.91876Q535.2886 316.04376 534.46045 316.825Q533.64795 317.60626 532.39795 317.60626Q531.27295 317.60626 530.52295 316.9344Q529.77295 316.2469 529.6636 315.1844Z" fill-rule="nonzero"/><path fill="#757575" d="M20.128124 37.55L20.128124 23.2375L26.471874 23.2375Q28.378124 23.2375 29.378124 23.628124Q30.378124 24.003124 30.971874 24.9875Q31.565624 25.95625 31.565624 27.14375Q31.565624 28.659374 30.58125 29.70625Q29.596874 30.753124 27.534374 31.034374Q28.284374 31.39375 28.675 31.753124Q29.503124 32.503124 30.253124 33.659374L32.7375 37.55L30.3625 37.55L28.45625 34.565624Q27.628124 33.284374 27.096874 32.596874Q26.565624 31.909374 26.128124 31.64375Q25.70625 31.3625 25.26875 31.253124Q24.940624 31.190624 24.221874 31.190624L22.01875 31.190624L22.01875 37.55L20.128124 37.55ZM22.01875 29.55L26.096874 29.55Q27.39375 29.55 28.1125 29.284374Q28.846874 29.01875 29.221874 28.425Q29.6125 27.83125 29.6125 27.14375Q29.6125 26.128124 28.878124 25.471874Q28.14375 24.815624 26.55 24.815624L22.01875 24.815624L22.01875 29.55ZM40.971874 34.20625L42.784374 34.440624Q42.3625 36.01875 41.190624 36.909374Q40.034374 37.784374 38.221874 37.784374Q35.95625 37.784374 34.6125 36.39375Q33.284374 34.9875 33.284374 32.45625Q33.284374 29.83125 34.628124 28.39375Q35.971874 26.940624 38.128124 26.940624Q40.20625 26.940624 41.51875 28.3625Q42.846874 29.76875 42.846874 32.346874Q42.846874 32.503124 42.83125 32.815624L35.096874 32.815624Q35.190624 34.51875 36.065624 35.425Q36.940624 36.33125 38.2375 36.33125Q39.20625 36.33125 39.878124 35.83125Q40.565624 35.315624 40.971874 34.20625ZM35.190624 31.3625L40.9875 31.3625Q40.878124 30.065624 40.33125 29.409374Q39.4875 28.39375 38.14375 28.39375Q36.940624 28.39375 36.1125 29.20625Q35.284374 30.003124 35.190624 31.3625ZM51.64375 36.26875Q50.659374 37.096874 49.753124 37.440624Q48.846874 37.784374 47.815624 37.784374Q46.1125 37.784374 45.190624 36.95625Q44.26875 36.1125 44.26875 34.815624Q44.26875 34.05 44.6125 33.425Q44.971874 32.8 45.534374 32.425Q46.096874 32.034374 46.8 31.83125Q47.315624 31.70625 48.3625 31.565624Q50.4875 31.315624 51.4875 30.971874Q51.503124 30.6125 51.503124 30.503124Q51.503124 29.440624 51.003124 28.9875Q50.33125 28.39375 49.003124 28.39375Q47.753124 28.39375 47.159374 28.83125Q46.58125 29.26875 46.3 30.378124L44.58125 30.14375Q44.815624 29.034374 45.346874 28.3625Q45.878124 27.675 46.89375 27.315624Q47.909374 26.940624 49.253124 26.940624Q50.58125 26.940624 51.409374 27.253124Q52.2375 27.565624 52.628124 28.05Q53.01875 28.51875 53.175 29.2375Q53.26875 29.690624 53.26875 30.8625L53.26875 33.20625Q53.26875 35.659374 53.378124 36.315624Q53.4875 36.95625 53.83125 37.55L51.9875 37.55Q51.721874 37.003124 51.64375 36.26875ZM51.4875 32.346874Q50.534374 32.7375 48.6125 33.003124Q47.534374 33.159374 47.08125 33.3625Q46.64375 33.55 46.39375 33.925Q46.14375 34.3 46.14375 34.76875Q46.14375 35.471874 46.675 35.940624Q47.20625 36.409374 48.2375 36.409374Q49.253124 36.409374 50.034374 35.971874Q50.83125 35.51875 51.20625 34.753124Q51.4875 34.14375 51.4875 32.9875L51.4875 32.346874ZM55.83125 37.55L55.83125 23.2375L57.58125 23.2375L57.58125 37.55L55.83125 37.55ZM72.8 31.940624L72.8 30.253124L78.8625 30.2375L78.8625 35.55Q77.45625 36.675 75.97188 37.2375Q74.4875 37.8 72.925 37.8Q70.81563 37.8 69.09688 36.89375Q67.37813 35.9875 66.4875 34.284374Q65.6125 32.565624 65.6125 30.45625Q65.6125 28.3625 66.4875 26.565624Q67.3625 24.753124 69.00313 23.878124Q70.64375 22.9875 72.78438 22.9875Q74.33125 22.9875 75.58125 23.4875Q76.84688 23.9875 77.55 24.89375Q78.26875 25.784374 78.64375 27.2375L76.94063 27.70625Q76.6125 26.6125 76.12813 25.9875Q75.65938 25.3625 74.76875 24.9875Q73.87813 24.6125 72.8 24.6125Q71.4875 24.6125 70.53438 25.003124Q69.59688 25.39375 69.01875 26.05Q68.44063 26.690624 68.1125 27.45625Q67.56563 28.784374 67.56563 30.346874Q67.56563 32.253124 68.22188 33.55Q68.89375 34.83125 70.14375 35.45625Q71.40938 36.08125 72.81563 36.08125Q74.05 36.08125 75.22188 35.6125Q76.39375 35.14375 77.00313 34.596874L77.00313 31.940624L72.8 31.940624ZM82.09688 37.55L82.09688 23.2375L87.01875 23.2375Q88.69063 23.2375 89.58125 23.440624Q90.8 23.721874 91.675 24.45625Q92.8 25.425 93.3625 26.909374Q93.925 28.39375 93.925 30.315624Q93.925 31.940624 93.55 33.20625Q93.175 34.45625 92.56563 35.284374Q91.97188 36.1125 91.26875 36.596874Q90.56563 37.065624 89.56563 37.315624Q88.56563 37.55 87.25313 37.55L82.09688 37.55ZM83.9875 35.8625L87.05 35.8625Q88.45625 35.8625 89.25313 35.596874Q90.06563 35.33125 90.55 34.846874Q91.22188 34.175 91.59688 33.05Q91.97188 31.909374 91.97188 30.284374Q91.97188 28.034374 91.2375 26.83125Q90.50313 25.628124 89.44063 25.221874Q88.69063 24.925 87.00313 24.925L83.9875 24.925L83.9875 35.8625ZM96.09688 37.55L96.09688 23.2375L101.4875 23.2375Q102.925 23.2375 103.675 23.3625Q104.72188 23.55 105.44063 24.05Q106.15938 24.534374 106.58125 25.425Q107.01875 26.315624 107.01875 27.378124Q107.01875 29.20625 105.84688 30.471874Q104.69063 31.721874 101.65938 31.721874L97.9875 31.721874L97.9875 37.55L96.09688 37.55ZM97.9875 30.034374L101.69063 30.034374Q103.51875 30.034374 104.28438 29.3625Q105.06563 28.675 105.06563 27.425Q105.06563 26.534374 104.6125 25.89375Q104.15938 25.253124 103.425 25.05Q102.94063 24.925 101.64375 24.925L97.9875 24.925L97.9875 30.034374ZM118.22188 41.753124Q116.76875 39.925 115.76875 37.471874Q114.76875 35.003124 114.76875 32.3625Q114.76875 30.034374 115.51875 27.909374Q116.39375 25.440624 118.22188 22.9875L119.4875 22.9875Q118.3 25.01875 117.925 25.89375Q117.33125 27.2375 116.9875 28.70625Q116.56563 30.534374 116.56563 32.378124Q116.56563 37.065624 119.4875 41.753124L118.22188 41.753124ZM121.87813 25.253124L121.87813 23.2375L123.64375 23.2375L123.64375 25.253124L121.87813 25.253124ZM121.87813 37.55L121.87813 27.175L123.64375 27.175L123.64375 37.55L121.87813 37.55ZM125.8625 37.55L125.8625 27.175L127.45625 27.175L127.45625 28.659374Q128.59688 26.940624 130.75313 26.940624Q131.69063 26.940624 132.47188 27.284374Q133.26875 27.6125 133.65938 28.159374Q134.05 28.70625 134.20625 29.45625Q134.3 29.95625 134.3 31.175L134.3 37.55L132.53438 37.55L132.53438 31.2375Q132.53438 30.159374 132.33125 29.628124Q132.12813 29.096874 131.59688 28.784374Q131.08125 28.471874 130.37813 28.471874Q129.25313 28.471874 128.44063 29.190624Q127.62813 29.89375 127.62813 31.878124L127.62813 37.55L125.8625 37.55ZM141.8625 37.55L141.8625 27.175L143.44063 27.175L143.44063 28.628124Q143.925 27.878124 144.7375 27.409374Q145.55 26.940624 146.58125 26.940624Q147.7375 26.940624 148.47188 27.425Q149.20625 27.89375 149.51875 28.753124Q150.75313 26.940624 152.72188 26.940624Q154.26875 26.940624 155.09688 27.8Q155.925 28.659374 155.925 30.425L155.925 37.55L154.175 37.55L154.175 31.01875Q154.175 29.95625 154.00313 29.503124Q153.83125 29.034374 153.37813 28.753124Q152.94063 28.471874 152.33125 28.471874Q151.2375 28.471874 150.50313 29.20625Q149.78438 29.925 149.78438 31.51875L149.78438 37.55L148.03438 37.55L148.03438 30.815624Q148.03438 29.64375 147.59688 29.065624Q147.175 28.471874 146.19063 28.471874Q145.45625 28.471874 144.81563 28.8625Q144.19063 29.253124 143.90938 30.003124Q143.62813 30.753124 143.62813 32.175L143.62813 37.55L141.8625 37.55ZM157.87813 25.253124L157.87813 23.2375L159.64375 23.2375L159.64375 25.253124L157.87813 25.253124ZM157.87813 37.55L157.87813 27.175L159.64375 27.175L159.64375 37.55L157.87813 37.55ZM161.83125 37.55L161.83125 23.2375L163.58125 23.2375L163.58125 37.55L161.83125 37.55ZM165.83125 37.55L165.83125 23.2375L167.58125 23.2375L167.58125 37.55L165.83125 37.55ZM169.87813 25.253124L169.87813 23.2375L171.64375 23.2375L171.64375 25.253124L169.87813 25.253124ZM169.87813 37.55L169.87813 27.175L171.64375 27.175L171.64375 37.55L169.87813 37.55ZM173.22188 32.3625Q173.22188 29.4875 174.81563 28.096874Q176.15938 26.940624 178.08125 26.940624Q180.22188 26.940624 181.56563 28.346874Q182.925 29.753124 182.925 32.221874Q182.925 34.221874 182.33125 35.378124Q181.7375 36.51875 180.58125 37.159374Q179.44063 37.784374 178.08125 37.784374Q175.89375 37.784374 174.55 36.39375Q173.22188 34.9875 173.22188 32.3625ZM175.01875 32.3625Q175.01875 34.3625 175.87813 35.346874Q176.75313 36.33125 178.08125 36.33125Q179.39375 36.33125 180.25313 35.346874Q181.12813 34.346874 181.12813 32.3Q181.12813 30.378124 180.25313 29.39375Q179.37813 28.39375 178.08125 28.39375Q176.75313 28.39375 175.87813 29.39375Q175.01875 30.378124 175.01875 32.3625ZM184.8625 37.55L184.8625 27.175L186.45625 27.175L186.45625 28.659374Q187.59688 26.940624 189.75313 26.940624Q190.69063 26.940624 191.47188 27.284374Q192.26875 27.6125 192.65938 28.159374Q193.05 28.70625 193.20625 29.45625Q193.3 29.95625 193.3 31.175L193.3 37.55L191.53438 37.55L191.53438 31.2375Q191.53438 30.159374 191.33125 29.628124Q191.12813 29.096874 190.59688 28.784374Q190.08125 28.471874 189.37813 28.471874Q188.25313 28.471874 187.44063 29.190624Q186.62813 29.89375 186.62813 31.878124L186.62813 37.55L184.8625 37.55ZM194.15938 34.45625L195.90938 34.175Q196.05 35.221874 196.72188 35.784374Q197.39375 36.33125 198.59688 36.33125Q199.8 36.33125 200.37813 35.846874Q200.97188 35.346874 200.97188 34.690624Q200.97188 34.096874 200.45625 33.753124Q200.09688 33.51875 198.65938 33.159374Q196.72188 32.659374 195.97188 32.315624Q195.2375 31.95625 194.84688 31.33125Q194.45625 30.690624 194.45625 29.925Q194.45625 29.2375 194.76875 28.64375Q195.09688 28.05 195.64375 27.659374Q196.05 27.3625 196.75313 27.159374Q197.47188 26.940624 198.28438 26.940624Q199.50313 26.940624 200.425 27.3Q201.34688 27.64375 201.78438 28.253124Q202.22188 28.846874 202.39375 29.846874L200.675 30.08125Q200.55 29.284374 199.9875 28.846874Q199.425 28.39375 198.40938 28.39375Q197.19063 28.39375 196.675 28.8Q196.15938 29.190624 196.15938 29.721874Q196.15938 30.065624 196.37813 30.346874Q196.58125 30.628124 197.05 30.815624Q197.31563 30.909374 198.59688 31.253124Q200.47188 31.753124 201.20625 32.08125Q201.94063 32.39375 202.3625 33.003124Q202.78438 33.596874 202.78438 34.503124Q202.78438 35.378124 202.26875 36.159374Q201.75313 36.940624 200.78438 37.3625Q199.81563 37.784374 198.59688 37.784374Q196.58125 37.784374 195.51875 36.940624Q194.45625 36.096874 194.15938 34.45625ZM210.22188 32.3625Q210.22188 29.4875 211.81563 28.096874Q213.15938 26.940624 215.08125 26.940624Q217.22188 26.940624 218.56563 28.346874Q219.925 29.753124 219.925 32.221874Q219.925 34.221874 219.33125 35.378124Q218.7375 36.51875 217.58125 37.159374Q216.44063 37.784374 215.08125 37.784374Q212.89375 37.784374 211.55 36.39375Q210.22188 34.9875 210.22188 32.3625ZM212.01875 32.3625Q212.01875 34.3625 212.87813 35.346874Q213.75313 36.33125 215.08125 36.33125Q216.39375 36.33125 217.25313 35.346874Q218.12813 34.346874 218.12813 32.3Q218.12813 30.378124 217.25313 29.39375Q216.37813 28.39375 215.08125 28.39375Q213.75313 28.39375 212.87813 29.39375Q212.01875 30.378124 212.01875 32.3625ZM222.28438 37.55L222.28438 28.55L220.7375 28.55L220.7375 27.175L222.28438 27.175L222.28438 26.08125Q222.28438 25.034374 222.47188 24.51875Q222.72188 23.83125 223.3625 23.409374Q224.00313 22.9875 225.15938 22.9875Q225.90938 22.9875 226.8 23.159374L226.53438 24.690624Q225.9875 24.596874 225.50313 24.596874Q224.70625 24.596874 224.3625 24.940624Q224.03438 25.284374 224.03438 26.221874L224.03438 27.175L226.06563 27.175L226.06563 28.55L224.03438 28.55L224.03438 37.55L222.28438 37.55ZM240.59688 37.55L240.59688 36.2375Q239.6125 37.784374 237.69063 37.784374Q236.45625 37.784374 235.40938 37.096874Q234.37813 36.409374 233.8 35.190624Q233.2375 33.971874 233.2375 32.378124Q233.2375 30.815624 233.75313 29.55Q234.26875 28.284374 235.3 27.6125Q236.34688 26.940624 237.6125 26.940624Q238.55 26.940624 239.28438 27.346874Q240.01875 27.7375 240.4875 28.3625L240.4875 23.2375L242.22188 23.2375L242.22188 37.55L240.59688 37.55ZM235.03438 32.378124Q235.03438 34.3625 235.87813 35.346874Q236.72188 36.33125 237.8625 36.33125Q239.01875 36.33125 239.81563 35.39375Q240.62813 34.45625 240.62813 32.51875Q240.62813 30.39375 239.8 29.39375Q238.9875 28.39375 237.78438 28.39375Q236.6125 28.39375 235.81563 29.3625Q235.03438 30.315624 235.03438 32.378124ZM244.22188 32.3625Q244.22188 29.4875 245.81563 28.096874Q247.15938 26.940624 249.08125 26.940624Q251.22188 26.940624 252.56563 28.346874Q253.925 29.753124 253.925 32.221874Q253.925 34.221874 253.33125 35.378124Q252.7375 36.51875 251.58125 37.159374Q250.44063 37.784374 249.08125 37.784374Q246.89375 37.784374 245.55 36.39375Q244.22188 34.9875 244.22188 32.3625ZM246.01875 32.3625Q246.01875 34.3625 246.87813 35.346874Q247.75313 36.33125 249.08125 36.33125Q250.39375 36.33125 251.25313 35.346874Q252.12813 34.346874 252.12813 32.3Q252.12813 30.378124 251.25313 29.39375Q250.37813 28.39375 249.08125 28.39375Q247.75313 28.39375 246.87813 29.39375Q246.01875 30.378124 246.01875 32.3625ZM255.83125 37.55L255.83125 23.2375L257.58124 23.2375L257.58124 37.55L255.83125 37.55ZM259.83124 37.55L259.83124 23.2375L261.58124 23.2375L261.58124 37.55L259.83124 37.55ZM270.64374 36.26875Q269.65936 37.096874 268.7531 37.440624Q267.84686 37.784374 266.8156 37.784374Q265.1125 37.784374 264.1906 36.95625Q263.26874 36.1125 263.26874 34.815624Q263.26874 34.05 263.6125 33.425Q263.97186 32.8 264.53436 32.425Q265.09686 32.034374 265.8 31.83125Q266.3156 31.70625 267.3625 31.565624Q269.4875 31.315624 270.4875 30.971874Q270.5031 30.6125 270.5031 30.503124Q270.5031 29.440624 270.0031 28.9875Q269.33124 28.39375 268.0031 28.39375Q266.7531 28.39375 266.15936 28.83125Q265.58124 29.26875 265.3 30.378124L263.58124 30.14375Q263.8156 29.034374 264.34686 28.3625Q264.8781 27.675 265.89374 27.315624Q266.90936 26.940624 268.2531 26.940624Q269.58124 26.940624 270.40936 27.253124Q271.2375 27.565624 271.6281 28.05Q272.01874 28.51875 272.175 29.2375Q272.26874 29.690624 272.26874 30.8625L272.26874 33.20625Q272.26874 35.659374 272.3781 36.315624Q272.4875 36.95625 272.83124 37.55L270.9875 37.55Q270.72186 37.003124 270.64374 36.26875ZM270.4875 32.346874Q269.53436 32.7375 267.6125 33.003124Q266.53436 33.159374 266.08124 33.3625Q265.64374 33.55 265.39374 33.925Q265.14374 34.3 265.14374 34.76875Q265.14374 35.471874 265.675 35.940624Q266.20624 36.409374 267.2375 36.409374Q268.2531 36.409374 269.03436 35.971874Q269.83124 35.51875 270.20624 34.753124Q270.4875 34.14375 270.4875 32.9875L270.4875 32.346874ZM274.84686 37.55L274.84686 27.175L276.425 27.175L276.425 28.753124Q277.03436 27.64375 277.55 27.3Q278.0656 26.940624 278.675 26.940624Q279.5656 26.940624 280.4875 27.503124L279.8781 29.14375Q279.2375 28.753124 278.59686 28.753124Q278.01874 28.753124 277.55 29.1125Q277.09686 29.45625 276.89374 30.065624Q276.6125 31.003124 276.6125 32.1125L276.6125 37.55L274.84686 37.55ZM281.15936 34.45625L282.90936 34.175Q283.05 35.221874 283.72186 35.784374Q284.39374 36.33125 285.59686 36.33125Q286.8 36.33125 287.3781 35.846874Q287.97186 35.346874 287.97186 34.690624Q287.97186 34.096874 287.45624 33.753124Q287.09686 33.51875 285.65936 33.159374Q283.72186 32.659374 282.97186 32.315624Q282.2375 31.95625 281.84686 31.33125Q281.45624 30.690624 281.45624 29.925Q281.45624 29.2375 281.76874 28.64375Q282.09686 28.05 282.64374 27.659374Q283.05 27.3625 283.7531 27.159374Q284.47186 26.940624 285.28436 26.940624Q286.5031 26.940624 287.425 27.3Q288.34686 27.64375 288.78436 28.253124Q289.22186 28.846874 289.39374 29.846874L287.675 30.08125Q287.55 29.284374 286.9875 28.846874Q286.425 28.39375 285.40936 28.39375Q284.1906 28.39375 283.675 28.8Q283.15936 29.190624 283.15936 29.721874Q283.15936 30.065624 283.3781 30.346874Q283.58124 30.628124 284.05 30.815624Q284.3156 30.909374 285.59686 31.253124Q287.47186 31.753124 288.20624 32.08125Q288.9406 32.39375 289.3625 33.003124Q289.78436 33.596874 289.78436 34.503124Q289.78436 35.378124 289.26874 36.159374Q288.7531 36.940624 287.78436 37.3625Q286.8156 37.784374 285.59686 37.784374Q283.58124 37.784374 282.51874 36.940624Q281.45624 36.096874 281.15936 34.45625ZM293.01874 41.753124L291.76874 41.753124Q294.675 37.065624 294.675 32.378124Q294.675 30.534374 294.26874 28.7375Q293.925 27.26875 293.33124 25.925Q292.95624 25.034374 291.76874 22.9875L293.01874 22.9875Q294.8625 25.440624 295.7375 27.909374Q296.4875 30.034374 296.4875 32.3625Q296.4875 35.003124 295.47186 37.471874Q294.47186 39.925 293.01874 41.753124ZM307.7531 37.55L303.8 27.175L305.65936 27.175L307.89374 33.39375Q308.2531 34.39375 308.55 35.471874Q308.78436 34.659374 309.20624 33.503124L311.5031 27.175L313.3156 27.175L309.39374 37.55L307.7531 37.55ZM313.15936 34.45625L314.90936 34.175Q315.05 35.221874 315.72186 35.784374Q316.39374 36.33125 317.59686 36.33125Q318.8 36.33125 319.3781 35.846874Q319.97186 35.346874 319.97186 34.690624Q319.97186 34.096874 319.45624 33.753124Q319.09686 33.51875 317.65936 33.159374Q315.72186 32.659374 314.97186 32.315624Q314.2375 31.95625 313.84686 31.33125Q313.45624 30.690624 313.45624 29.925Q313.45624 29.2375 313.76874 28.64375Q314.09686 28.05 314.64374 27.659374Q315.05 27.3625 315.7531 27.159374Q316.47186 26.940624 317.28436 26.940624Q318.5031 26.940624 319.425 27.3Q320.34686 27.64375 320.78436 28.253124Q321.22186 28.846874 321.39374 29.846874L319.675 30.08125Q319.55 29.284374 318.9875 28.846874Q318.425 28.39375 317.40936 28.39375Q316.1906 28.39375 315.675 28.8Q315.15936 29.190624 315.15936 29.721874Q315.15936 30.065624 315.3781 30.346874Q315.58124 30.628124 316.05 30.815624Q316.3156 30.909374 317.59686 31.253124Q319.47186 31.753124 320.20624 32.08125Q320.9406 32.39375 321.3625 33.003124Q321.78436 33.596874 321.78436 34.503124Q321.78436 35.378124 321.26874 36.159374Q320.7531 36.940624 319.78436 37.3625Q318.8156 37.784374 317.59686 37.784374Q315.58124 37.784374 314.51874 36.940624Q313.45624 36.096874 313.15936 34.45625ZM324.3625 37.55L324.3625 35.55L326.3625 35.55L326.3625 37.55L324.3625 37.55ZM340.1281 37.55L340.1281 31.4875L334.6125 23.2375L336.90936 23.2375L339.7375 27.55Q340.51874 28.753124 341.1906 29.971874Q341.83124 28.846874 342.7531 27.440624L345.53436 23.2375L347.7375 23.2375L342.01874 31.4875L342.01874 37.55L340.1281 37.55ZM356.97186 34.20625L358.78436 34.440624Q358.3625 36.01875 357.1906 36.909374Q356.03436 37.784374 354.22186 37.784374Q351.95624 37.784374 350.6125 36.39375Q349.28436 34.9875 349.28436 32.45625Q349.28436 29.83125 350.6281 28.39375Q351.97186 26.940624 354.1281 26.940624Q356.20624 26.940624 357.51874 28.3625Q358.84686 29.76875 358.84686 32.346874Q358.84686 32.503124 358.83124 32.815624L351.09686 32.815624Q351.1906 34.51875 352.0656 35.425Q352.9406 36.33125 354.2375 36.33125Q355.20624 36.33125 355.8781 35.83125Q356.5656 35.315624 356.97186 34.20625ZM351.1906 31.3625L356.9875 31.3625Q356.8781 30.065624 356.33124 29.409374Q355.4875 28.39375 354.14374 28.39375Q352.9406 28.39375 352.1125 29.20625Q351.28436 30.003124 351.1906 31.3625ZM367.64374 36.26875Q366.65936 37.096874 365.7531 37.440624Q364.84686 37.784374 363.8156 37.784374Q362.1125 37.784374 361.1906 36.95625Q360.26874 36.1125 360.26874 34.815624Q360.26874 34.05 360.6125 33.425Q360.97186 32.8 361.53436 32.425Q362.09686 32.034374 362.8 31.83125Q363.3156 31.70625 364.3625 31.565624Q366.4875 31.315624 367.4875 30.971874Q367.5031 30.6125 367.5031 30.503124Q367.5031 29.440624 367.0031 28.9875Q366.33124 28.39375 365.0031 28.39375Q363.7531 28.39375 363.15936 28.83125Q362.58124 29.26875 362.3 30.378124L360.58124 30.14375Q360.8156 29.034374 361.34686 28.3625Q361.8781 27.675 362.89374 27.315624Q363.90936 26.940624 365.2531 26.940624Q366.58124 26.940624 367.40936 27.253124Q368.2375 27.565624 368.6281 28.05Q369.01874 28.51875 369.175 29.2375Q369.26874 29.690624 369.26874 30.8625L369.26874 33.20625Q369.26874 35.659374 369.3781 36.315624Q369.4875 36.95625 369.83124 37.55L367.9875 37.55Q367.72186 37.003124 367.64374 36.26875ZM367.4875 32.346874Q366.53436 32.7375 364.6125 33.003124Q363.53436 33.159374 363.08124 33.3625Q362.64374 33.55 362.39374 33.925Q362.14374 34.3 362.14374 34.76875Q362.14374 35.471874 362.675 35.940624Q363.20624 36.409374 364.2375 36.409374Q365.2531 36.409374 366.03436 35.971874Q366.83124 35.51875 367.20624 34.753124Q367.4875 34.14375 367.4875 32.9875L367.4875 32.346874ZM371.84686 37.55L371.84686 27.175L373.425 27.175L373.425 28.753124Q374.03436 27.64375 374.55 27.3Q375.0656 26.940624 375.675 26.940624Q376.5656 26.940624 377.4875 27.503124L376.8781 29.14375Q376.2375 28.753124 375.59686 28.753124Q375.01874 28.753124 374.55 29.1125Q374.09686 29.45625 373.89374 30.065624Q373.6125 31.003124 373.6125 32.1125L373.6125 37.55L371.84686 37.55Z" fill-rule="nonzero"/></svg>