<svg version="1.1" viewBox="0.0 0.0 600.0 371.0" fill="none" stroke="none" stroke-linecap="square" stroke-miterlimit="10" width="600" height="371" xmlns:xlink="http://www.w3.org/1999/xlink" xmlns="http://www.w3.org/2000/svg"><path fill="#ffffff" d="M0 0L600.0 0L600.0 371.0L0 371.0L0 0Z" fill-rule="nonzero"/><path stroke="#333333" stroke-width="1.0" stroke-linecap="butt" d="M98.5 300.5L581.5 300.5" fill-rule="nonzero"/><path stroke="#cccccc" stroke-width="1.0" stroke-linecap="butt" d="M98.5 220.5L581.5 220.5" fill-rule="nonzero"/><path stroke="#cccccc" stroke-width="1.0" stroke-linecap="butt" d="M98.5 141.5L581.5 141.5" fill-rule="nonzero"/><path stroke="#cccccc" stroke-width="1.0" stroke-linecap="butt" d="M98.5 61.5L581.5 61.5" fill-rule="nonzero"/><clipPath id="id_0"><path d="M98.55 61.916668L581.45 61.916668L581.45 300.45L98.55 300.45L98.55 61.916668Z" clip-rule="nonzero"/></clipPath><path stroke="#000000" stroke-width="2.0" stroke-linecap="butt" stroke-opacity="0.0" clip-path="url(#id_0)" d="M189.0 300.0L130.0 300.0L130.0 277.0C130.0 275.89542 130.89543 275.0 132.0 275.0L187.0 275.0C188.10457 275.0 189.0 275.89542 189.0 277.0Z" fill-rule="nonzero"/><path fill="#4285f4" clip-path="url(#id_0)" d="M189.0 300.0L130.0 300.0L130.0 277.0C130.0 275.89542 130.89543 275.0 132.0 275.0L187.0 275.0C188.10457 275.0 189.0 275.89542 189.0 277.0Z" fill-rule="nonzero"/><path stroke="#000000" stroke-width="2.0" stroke-linecap="butt" stroke-opacity="0.0" clip-path="url(#id_0)" d="M280.0 300.0L221.0 300.0L221.0 232.0C221.0 230.89543 221.89543 230.0 223.0 230.0L278.0 230.0C279.10458 230.0 280.0 230.89543 280.0 232.0Z" fill-rule="nonzero"/><path fill="#4285f4" clip-path="url(#id_0)" d="M280.0 300.0L221.0 300.0L221.0 232.0C221.0 230.89543 221.89543 230.0 223.0 230.0L278.0 230.0C279.10458 230.0 280.0 230.89543 280.0 232.0Z" fill-rule="nonzero"/><path stroke="#000000" stroke-width="2.0" stroke-linecap="butt" stroke-opacity="0.0" clip-path="url(#id_0)" d="M370.0 300.0L311.0 300.0L311.0 173.0C311.0 171.89543 311.89542 171.0 313.0 171.0L368.0 171.0C369.10458 171.0 370.0 171.89543 370.0 173.0Z" fill-rule="nonzero"/><path fill="#4285f4" clip-path="url(#id_0)" d="M370.0 300.0L311.0 300.0L311.0 173.0C311.0 171.89543 311.89542 171.0 313.0 171.0L368.0 171.0C369.10458 171.0 370.0 171.89543 370.0 173.0Z" fill-rule="nonzero"/><path stroke="#000000" stroke-width="2.0" stroke-linecap="butt" stroke-opacity="0.0" clip-path="url(#id_0)" d="M460.0 300.0L401.0 300.0L401.0 111.0C401.0 109.89543 401.89542 109.0 403.0 109.0L458.0 109.0C459.10458 109.0 460.0 109.89543 460.0 111.0Z" fill-rule="nonzero"/><path fill="#4285f4" clip-path="url(#id_0)" d="M460.0 300.0L401.0 300.0L401.0 111.0C401.0 109.89543 401.89542 109.0 403.0 109.0L458.0 109.0C459.10458 109.0 460.0 109.89543 460.0 111.0Z" fill-rule="nonzero"/><path stroke="#000000" stroke-width="2.0" stroke-linecap="butt" stroke-opacity="0.0" clip-path="url(#id_0)" d="M551.0 300.0L492.0 300.0L492.0 102.0C492.0 100.89543 492.89542 100.0 494.0 100.0L549.0 100.0C550.10455 100.0 551.0 100.89543 551.0 102.0Z" fill-rule="nonzero"/><path fill="#4285f4" clip-path="url(#id_0)" d="M551.0 300.0L492.0 300.0L492.0 102.0C492.0 100.89543 492.89542 100.0 494.0 100.0L549.0 100.0C550.10455 100.0 551.0 100.89543 551.0 102.0Z" fill-rule="nonzero"/><path fill="#000000" d="M330.84375 349.45L330.84375 345.8094L327.53125 340.85626L328.92188 340.85626L330.60938 343.45Q331.07812 344.16876 331.48438 344.90314Q331.875 344.23126 332.42188 343.3875L334.09375 340.85626L335.40625 340.85626L331.98438 345.8094L331.98438 349.45L330.84375 349.45ZM339.54688 347.45L340.64062 347.575Q340.39062 348.52814 339.6875 349.0594Q338.98438 349.59064 337.90625 349.59064Q336.54688 349.59064 335.73438 348.7469Q334.9375 347.90314 334.9375 346.3875Q334.9375 344.825 335.75 343.96564Q336.5625 343.09064 337.84375 343.09064Q339.09375 343.09064 339.875 343.9344Q340.67188 344.77814 340.67188 346.325Q340.67188 346.41876 340.67188 346.60626L336.03125 346.60626Q336.09375 347.6375 336.60938 348.1844Q337.125 348.71564 337.90625 348.71564Q338.48438 348.71564 338.89062 348.41876Q339.3125 348.10626 339.54688 347.45ZM336.09375 345.7469L339.5625 345.7469Q339.5 344.95 339.17188 344.5594Q338.65625 343.95 337.85938 343.95Q337.125 343.95 336.625 344.4344Q336.14062 344.91876 336.09375 345.7469ZM346.35938 348.6844Q345.76562 349.1844 345.21875 349.3875Q344.6875 349.59064 344.0625 349.59064Q343.03125 349.59064 342.48438 349.09064Q341.9375 348.59064 341.9375 347.8094Q341.9375 347.35626 342.14062 346.98126Q342.34375 346.59064 342.6875 346.3719Q343.03125 346.1375 343.45312 346.02814Q343.75 345.9344 344.39062 345.85626Q345.65625 345.71564 346.26562 345.4969Q346.26562 345.27814 346.26562 345.23126Q346.26562 344.575 345.96875 344.3094Q345.5625 343.96564 344.76562 343.96564Q344.03125 343.96564 343.67188 344.23126Q343.3125 344.48126 343.14062 345.1375L342.10938 344.9969Q342.25 344.34064 342.57812 343.9344Q342.90625 343.52814 343.51562 343.3094Q344.125 343.09064 344.92188 343.09064Q345.71875 343.09064 346.21875 343.27814Q346.71875 343.46564 346.95312 343.7469Q347.1875 344.02814 347.28125 344.46564Q347.32812 344.73126 347.32812 345.4344L347.32812 346.84064Q347.32812 348.3094 347.39062 348.7Q347.46875 349.09064 347.67188 349.45L346.5625 349.45Q346.40625 349.1219 346.35938 348.6844ZM346.26562 346.325Q345.6875 346.5594 344.54688 346.73126Q343.89062 346.825 343.625 346.95Q343.35938 347.0594 343.20312 347.27814Q343.0625 347.4969 343.0625 347.77814Q343.0625 348.2 343.375 348.48126Q343.70312 348.7625 344.3125 348.7625Q344.92188 348.7625 345.39062 348.4969Q345.875 348.23126 346.09375 347.7625Q346.26562 347.40314 346.26562 346.71564L346.26562 346.325ZM349.28125 349.45L349.28125 343.23126L350.23438 343.23126L350.23438 344.16876Q350.59375 343.5125 350.89062 343.3094Q351.20312 343.09064 351.57812 343.09064Q352.10938 343.09064 352.65625 343.41876L352.29688 344.40314Q351.90625 344.16876 351.53125 344.16876Q351.17188 344.16876 350.89062 344.3875Q350.625 344.59064 350.51562 344.96564Q350.32812 345.52814 350.32812 346.1844L350.32812 349.45L349.28125 349.45Z" fill-rule="nonzero"/><path fill="#000000" d="M20.956263 237.62083L20.956263 236.48021L25.925013 236.48021Q27.221888 236.48021 27.987513 236.77708Q28.737513 237.07396 29.221888 237.83958Q29.690638 238.60521 29.690638 239.83958Q29.690638 241.04271 29.284388 241.82396Q28.862513 242.58958 28.081263 242.91771Q27.284388 243.24583 25.925013 243.24583L20.956263 243.24583L20.956263 242.10521L25.909388 242.10521Q27.034388 242.10521 27.565638 241.90208Q28.096888 241.68333 28.393763 241.18333Q28.675013 240.66771 28.675013 239.93333Q28.675013 238.68333 28.112513 238.15208Q27.534388 237.62083 25.909388 237.62083L20.956263 237.62083ZM29.550013 234.38646L23.331263 234.38646L23.331263 233.44896L24.206263 233.44896Q23.190638 232.76146 23.190638 231.46458Q23.190638 230.90208 23.393763 230.43333Q23.596888 229.94896 23.925013 229.71458Q24.253138 229.48021 24.690638 229.38646Q24.987513 229.33958 25.721888 229.33958L29.550013 229.33958L29.550013 230.38646L25.768763 230.38646Q25.112513 230.38646 24.800013 230.51146Q24.487513 230.63646 24.300013 230.94896Q24.096888 231.26146 24.096888 231.68333Q24.096888 232.35521 24.534388 232.85521Q24.956263 233.33958 26.143763 233.33958L29.550013 233.33958L29.550013 234.38646ZM27.550013 223.13646L27.675013 222.04271Q28.628138 222.29271 29.159388 222.99583Q29.690638 223.69896 29.690638 224.77708Q29.690638 226.13646 28.846888 226.94896Q28.003138 227.74583 26.487513 227.74583Q24.925013 227.74583 24.065638 226.93333Q23.190638 226.12083 23.190638 224.83958Q23.190638 223.58958 24.034388 222.80833Q24.878138 222.01146 26.425013 222.01146Q26.518763 222.01146 26.706263 222.01146L26.706263 226.65208Q27.737513 226.58958 28.284388 226.07396Q28.815638 225.55833 28.815638 224.77708Q28.815638 224.19896 28.518763 223.79271Q28.206263 223.37083 27.550013 223.13646ZM25.846888 226.58958L25.846888 223.12083Q25.050013 223.18333 24.659388 223.51146Q24.050013 224.02708 24.050013 224.82396Q24.050013 225.55833 24.534388 226.05833Q25.018763 226.54271 25.846888 226.58958ZM29.550013 220.38646L23.331263 220.38646L23.331263 219.44896L24.206263 219.44896Q23.737513 219.15208 23.471888 218.66771Q23.190638 218.18333 23.190638 217.55833Q23.190638 216.87083 23.471888 216.43333Q23.753138 215.98021 24.268763 215.80833Q23.190638 215.05833 23.190638 213.88646Q23.190638 212.94896 23.706263 212.46458Q24.206263 211.96458 25.284388 211.96458L29.550013 211.96458L29.550013 213.01146L25.628138 213.01146Q25.003138 213.01146 24.721888 213.12083Q24.440638 213.21458 24.268763 213.48021Q24.096888 213.74583 24.096888 214.12083Q24.096888 214.77708 24.534388 215.21458Q24.971888 215.63646 25.940638 215.63646L29.550013 215.63646L29.550013 216.69896L25.503138 216.69896Q24.800013 216.69896 24.456263 216.96458Q24.096888 217.21458 24.096888 217.79271Q24.096888 218.24583 24.331263 218.62083Q24.565638 218.99583 25.018763 219.16771Q25.471888 219.33958 26.315638 219.33958L29.550013 219.33958L29.550013 220.38646ZM31.940638 209.38646L23.331263 209.38646L23.331263 208.43333L24.128138 208.43333Q23.659388 208.08958 23.425013 207.66771Q23.190638 207.23021 23.190638 206.62083Q23.190638 205.82396 23.596888 205.21458Q24.003138 204.60521 24.753138 204.30833Q25.503138 203.99583 26.393763 203.99583Q27.346888 203.99583 28.112513 204.33958Q28.878138 204.66771 29.284388 205.32396Q29.690638 205.98021 29.690638 206.69896Q29.690638 207.23021 29.471888 207.65208Q29.237513 208.07396 28.909388 208.33958L31.940638 208.33958L31.940638 209.38646ZM26.471888 208.43333Q27.675013 208.43333 28.253138 207.94896Q28.815638 207.46458 28.815638 206.77708Q28.815638 206.07396 28.221888 205.57396Q27.628138 205.07396 26.378138 205.07396Q25.190638 205.07396 24.612513 205.55833Q24.018763 206.04271 24.018763 206.73021Q24.018763 207.40208 24.643763 207.91771Q25.268763 208.43333 26.471888 208.43333ZM29.550013 202.41771L20.956263 202.41771L20.956263 201.35521L29.550013 201.35521L29.550013 202.41771ZM26.440638 199.77708Q24.706263 199.77708 23.878138 198.82396Q23.190638 198.02708 23.190638 196.87083Q23.190638 195.58958 24.034388 194.77708Q24.862513 193.94896 26.346888 193.94896Q27.550013 193.94896 28.237513 194.30833Q28.925013 194.66771 29.315638 195.37083Q29.690638 196.05833 29.690638 196.87083Q29.690638 198.16771 28.862513 198.98021Q28.018763 199.77708 26.440638 199.77708ZM26.440638 198.69896Q27.628138 198.69896 28.221888 198.18333Q28.815638 197.65208 28.815638 196.87083Q28.815638 196.07396 28.221888 195.55833Q27.628138 195.04271 26.409388 195.04271Q25.253138 195.04271 24.659388 195.57396Q24.065638 196.08958 24.065638 196.87083Q24.065638 197.65208 24.659388 198.18333Q25.237513 198.69896 26.440638 198.69896ZM31.940638 192.43333L30.956263 192.55833Q31.050013 192.21458 31.050013 191.94896Q31.050013 191.60521 30.925013 191.40208Q30.815638 191.18333 30.612513 191.04271Q30.440638 190.94896 29.815638 190.71458Q29.737513 190.69896 29.565638 190.62083L23.331263 192.99583L23.331263 191.85521L26.925013 190.55833Q27.612513 190.30833 28.378138 190.10521Q27.643763 189.91771 26.956263 189.66771L23.331263 188.33958L23.331263 187.29271L29.659388 189.65208Q30.675013 190.04271 31.065638 190.24583Q31.596888 190.52708 31.831263 190.90208Q32.08126 191.26146 32.08126 191.76146Q32.08126 192.05833 31.940638 192.43333ZM29.550013 187.38646L23.331263 187.38646L23.331263 186.44896L24.206263 186.44896Q23.737513 186.15208 23.471888 185.66771Q23.190638 185.18333 23.190638 184.55833Q23.190638 183.87083 23.471888 183.43333Q23.753138 182.98021 24.268763 182.80833Q23.190638 182.05833 23.190638 180.88646Q23.190638 179.94896 23.706263 179.46458Q24.206263 178.96458 25.284388 178.96458L29.550013 178.96458L29.550013 180.01146L25.628138 180.01146Q25.003138 180.01146 24.721888 180.12083Q24.440638 180.21458 24.268763 180.48021Q24.096888 180.74583 24.096888 181.12083Q24.096888 181.77708 24.534388 182.21458Q24.971888 182.63646 25.940638 182.63646L29.550013 182.63646L29.550013 183.69896L25.503138 183.69896Q24.800013 183.69896 24.456263 183.96458Q24.096888 184.21458 24.096888 184.79271Q24.096888 185.24583 24.331263 185.62083Q24.565638 185.99583 25.018763 186.16771Q25.471888 186.33958 26.315638 186.33958L29.550013 186.33958L29.550013 187.38646ZM27.550013 172.13646L27.675013 171.04271Q28.628138 171.29271 29.159388 171.99583Q29.690638 172.69896 29.690638 173.77708Q29.690638 175.13646 28.846888 175.94896Q28.003138 176.74583 26.487513 176.74583Q24.925013 176.74583 24.065638 175.93333Q23.190638 175.12083 23.190638 173.83958Q23.190638 172.58958 24.034388 171.80833Q24.878138 171.01146 26.425013 171.01146Q26.518763 171.01146 26.706263 171.01146L26.706263 175.65208Q27.737513 175.58958 28.284388 175.07396Q28.815638 174.55833 28.815638 173.77708Q28.815638 173.19896 28.518763 172.79271Q28.206263 172.37083 27.550013 172.13646ZM25.846888 175.58958L25.846888 172.12083Q25.050013 172.18333 24.659388 172.51146Q24.050013 173.02708 24.050013 173.82396Q24.050013 174.55833 24.534388 175.05833Q25.018763 175.54271 25.846888 175.58958ZM29.550013 169.38646L23.331263 169.38646L23.331263 168.44896L24.206263 168.44896Q23.190638 167.76146 23.190638 166.46458Q23.190638 165.90208 23.393763 165.43333Q23.596888 164.94896 23.925013 164.71458Q24.253138 164.48021 24.690638 164.38646Q24.987513 164.33958 25.721888 164.33958L29.550013 164.33958L29.550013 165.38646L25.768763 165.38646Q25.112513 165.38646 24.800013 165.51146Q24.487513 165.63646 24.300013 165.94896Q24.096888 166.26146 24.096888 166.68333Q24.096888 167.35521 24.534388 167.85521Q24.956263 168.33958 26.143763 168.33958L29.550013 168.33958L29.550013 169.38646ZM28.612513 160.08958L29.534388 159.93333Q29.628138 160.38646 29.628138 160.73021Q29.628138 161.30833 29.456263 161.62083Q29.268763 161.93333 28.971888 162.07396Q28.675013 162.19896 27.721888 162.19896L24.143763 162.19896L24.143763 162.96458L23.331263 162.96458L23.331263 162.19896L21.784388 162.19896L21.159388 161.15208L23.331263 161.15208L23.331263 160.08958L24.143763 160.08958L24.143763 161.15208L27.784388 161.15208Q28.237513 161.15208 28.362513 161.10521Q28.487513 161.04271 28.565638 160.91771Q28.643763 160.79271 28.643763 160.55833Q28.643763 160.37083 28.612513 160.08958ZM29.550013 156.24583L20.956263 156.24583L20.956263 152.43333Q20.956263 151.27708 21.190638 150.68333Q21.425013 150.08958 22.018763 149.73021Q22.596888 149.37083 23.300013 149.37083Q24.221888 149.37083 24.846888 149.96458Q25.471888 150.55833 25.643763 151.79271Q25.862513 151.33958 26.065638 151.10521Q26.518763 150.60521 27.206263 150.16771L29.550013 148.66771L29.550013 150.10521L27.768763 151.23021Q26.987513 151.73021 26.581263 152.05833Q26.175013 152.37083 26.018763 152.63646Q25.846888 152.88646 25.768763 153.15208Q25.737513 153.33958 25.737513 153.77708L25.737513 155.10521L29.550013 155.10521L29.550013 156.24583ZM24.753138 155.10521L24.753138 152.65208Q24.753138 151.88646 24.596888 151.44896Q24.425013 150.99583 24.081263 150.77708Q23.721888 150.54271 23.300013 150.54271Q22.690638 150.54271 22.300013 150.99583Q21.909388 151.43333 21.909388 152.38646L21.909388 155.10521L24.753138 155.10521ZM28.784388 143.32396Q29.284388 143.91771 29.487513 144.46458Q29.690638 144.99583 29.690638 145.62083Q29.690638 146.65208 29.190638 147.19896Q28.690638 147.74583 27.909388 147.74583Q27.456263 147.74583 27.081263 147.54271Q26.690638 147.33958 26.471888 146.99583Q26.237513 146.65208 26.128138 146.23021Q26.034388 145.93333 25.956263 145.29271Q25.815638 144.02708 25.596888 143.41771Q25.378138 143.41771 25.331263 143.41771Q24.675013 143.41771 24.409388 143.71458Q24.065638 144.12083 24.065638 144.91771Q24.065638 145.65208 24.331263 146.01146Q24.581263 146.37083 25.237513 146.54271L25.096888 147.57396Q24.440638 147.43333 24.034388 147.10521Q23.628138 146.77708 23.409388 146.16771Q23.190638 145.55833 23.190638 144.76146Q23.190638 143.96458 23.378138 143.46458Q23.565638 142.96458 23.846888 142.73021Q24.128138 142.49583 24.565638 142.40208Q24.831263 142.35521 25.534388 142.35521L26.940638 142.35521Q28.409388 142.35521 28.800013 142.29271Q29.190638 142.21458 29.550013 142.01146L29.550013 143.12083Q29.221888 143.27708 28.784388 143.32396ZM26.425013 143.41771Q26.659388 143.99583 26.831263 145.13646Q26.925013 145.79271 27.050013 146.05833Q27.159388 146.32396 27.378138 146.48021Q27.596888 146.62083 27.878138 146.62083Q28.300013 146.62083 28.581263 146.30833Q28.862513 145.98021 28.862513 145.37083Q28.862513 144.76146 28.596888 144.29271Q28.331263 143.80833 27.862513 143.58958Q27.503138 143.41771 26.815638 143.41771L26.425013 143.41771ZM28.612513 138.08958L29.534388 137.93333Q29.628138 138.38646 29.628138 138.73021Q29.628138 139.30833 29.456263 139.62083Q29.268763 139.93333 28.971888 140.07396Q28.675013 140.19896 27.721888 140.19896L24.143763 140.19896L24.143763 140.96458L23.331263 140.96458L23.331263 140.19896L21.784388 140.19896L21.159388 139.15208L23.331263 139.15208L23.331263 138.08958L24.143763 138.08958L24.143763 139.15208L27.784388 139.15208Q28.237513 139.15208 28.362513 139.10521Q28.487513 139.04271 28.565638 138.91771Q28.643763 138.79271 28.643763 138.55833Q28.643763 138.37083 28.612513 138.08958ZM27.550013 133.13646L27.675013 132.04271Q28.628138 132.29271 29.159388 132.99583Q29.690638 133.69896 29.690638 134.77708Q29.690638 136.13646 28.846888 136.94896Q28.003138 137.74583 26.487513 137.74583Q24.925013 137.74583 24.065638 136.93333Q23.190638 136.12083 23.190638 134.83958Q23.190638 133.58958 24.034388 132.80833Q24.878138 132.01146 26.425013 132.01146Q26.518763 132.01146 26.706263 132.01146L26.706263 136.65208Q27.737513 136.58958 28.284388 136.07396Q28.815638 135.55833 28.815638 134.77708Q28.815638 134.19896 28.518763 133.79271Q28.206263 133.37083 27.550013 133.13646ZM25.846888 136.58958L25.846888 133.12083Q25.050013 133.18333 24.659388 133.51146Q24.050013 134.02708 24.050013 134.82396Q24.050013 135.55833 24.534388 136.05833Q25.018763 136.54271 25.846888 136.58958Z" fill-rule="nonzero"/><path fill="#000000" d="M58.05 300.21564Q58.05 298.6844 58.3625 297.7625Q58.675 296.825 59.284374 296.325Q59.909374 295.825 60.846874 295.825Q61.534374 295.825 62.05 296.10626Q62.58125 296.3875 62.925 296.91876Q63.26875 297.4344 63.45625 298.1844Q63.64375 298.9344 63.64375 300.21564Q63.64375 301.73126 63.33125 302.65314Q63.034374 303.575 62.409374 304.09064Q61.8 304.59064 60.846874 304.59064Q59.6125 304.59064 58.89375 303.7Q58.05 302.6375 58.05 300.21564ZM59.128124 300.21564Q59.128124 302.325 59.628124 303.02814Q60.128124 303.73126 60.846874 303.73126Q61.58125 303.73126 62.065624 303.02814Q62.565624 302.325 62.565624 300.21564Q62.565624 298.09064 62.065624 297.40314Q61.58125 296.7 60.83125 296.7Q60.1125 296.7 59.675 297.3094Q59.128124 298.09064 59.128124 300.21564ZM65.64375 304.45L65.64375 303.2469L66.84688 303.2469L66.84688 304.45L65.64375 304.45ZM68.05 300.21564Q68.05 298.6844 68.3625 297.7625Q68.675 296.825 69.28438 296.325Q69.90938 295.825 70.84688 295.825Q71.53438 295.825 72.05 296.10626Q72.58125 296.3875 72.925 296.91876Q73.26875 297.4344 73.45625 298.1844Q73.64375 298.9344 73.64375 300.21564Q73.64375 301.73126 73.33125 302.65314Q73.03438 303.575 72.40938 304.09064Q71.8 304.59064 70.84688 304.59064Q69.6125 304.59064 68.89375 303.7Q68.05 302.6375 68.05 300.21564ZM69.12813 300.21564Q69.12813 302.325 69.62813 303.02814Q70.12813 303.73126 70.84688 303.73126Q71.58125 303.73126 72.06563 303.02814Q72.56563 302.325 72.56563 300.21564Q72.56563 298.09064 72.06563 297.40314Q71.58125 296.7 70.83125 296.7Q70.1125 296.7 69.675 297.3094Q69.12813 298.09064 69.12813 300.21564ZM75.05 300.21564Q75.05 298.6844 75.3625 297.7625Q75.675 296.825 76.28438 296.325Q76.90938 295.825 77.84688 295.825Q78.53438 295.825 79.05 296.10626Q79.58125 296.3875 79.925 296.91876Q80.26875 297.4344 80.45625 298.1844Q80.64375 298.9344 80.64375 300.21564Q80.64375 301.73126 80.33125 302.65314Q80.03438 303.575 79.40938 304.09064Q78.8 304.59064 77.84688 304.59064Q76.6125 304.59064 75.89375 303.7Q75.05 302.6375 75.05 300.21564ZM76.12813 300.21564Q76.12813 302.325 76.62813 303.02814Q77.12813 303.73126 77.84688 303.73126Q78.58125 303.73126 79.06563 303.02814Q79.56563 302.325 79.56563 300.21564Q79.56563 298.09064 79.06563 297.40314Q78.58125 296.7 77.83125 296.7Q77.1125 296.7 76.675 297.3094Q76.12813 298.09064 76.12813 300.21564ZM82.25313 297.91876Q82.25313 296.9969 82.70625 296.35626Q83.175 295.71564 84.05 295.71564Q84.8625 295.71564 85.39375 296.29376Q85.925 296.8719 85.925 297.98126Q85.925 299.075 85.37813 299.66876Q84.84688 300.2469 84.06563 300.2469Q83.28438 300.2469 82.76875 299.66876Q82.25313 299.09064 82.25313 297.91876ZM84.08125 296.4344Q83.69063 296.4344 83.425 296.77814Q83.175 297.1219 83.175 298.02814Q83.175 298.85626 83.425 299.2Q83.69063 299.52814 84.08125 299.52814Q84.4875 299.52814 84.7375 299.1844Q85.00313 298.84064 85.00313 297.95Q85.00313 297.10626 84.7375 296.77814Q84.47188 296.4344 84.08125 296.4344ZM84.08125 304.7625L88.78438 295.71564L89.64375 295.71564L84.95625 304.7625L84.08125 304.7625ZM87.8 302.4344Q87.8 301.5125 88.25313 300.8719Q88.72188 300.23126 89.6125 300.23126Q90.425 300.23126 90.95625 300.8094Q91.4875 301.3719 91.4875 302.4969Q91.4875 303.59064 90.94063 304.1844Q90.40938 304.7625 89.6125 304.7625Q88.84688 304.7625 88.31563 304.1844Q87.8 303.60626 87.8 302.4344ZM89.64375 300.95Q89.2375 300.95 88.97188 301.29376Q88.72188 301.6375 88.72188 302.54376Q88.72188 303.35626 88.9875 303.7Q89.25313 304.04376 89.64375 304.04376Q90.03438 304.04376 90.3 303.7Q90.56563 303.35626 90.56563 302.45Q90.56563 301.6219 90.3 301.29376Q90.03438 300.95 89.64375 300.95Z" fill-rule="nonzero"/><path fill="#000000" d="M55.01875 224.93889L53.971874 224.93889L53.971874 218.22014Q53.58125 218.57951 52.95625 218.95451Q52.346874 219.31389 51.8625 219.48576L51.8625 218.47014Q52.7375 218.04826 53.39375 217.47014Q54.065624 216.87639 54.346874 216.31389L55.01875 216.31389L55.01875 224.93889ZM58.05 220.70451Q58.05 219.17326 58.3625 218.25139Q58.675 217.31389 59.284374 216.81389Q59.909374 216.31389 60.846874 216.31389Q61.534374 216.31389 62.05 216.59514Q62.58125 216.87639 62.925 217.40764Q63.26875 217.92326 63.45625 218.67326Q63.64375 219.42326 63.64375 220.70451Q63.64375 222.22014 63.33125 223.14201Q63.034374 224.06389 62.409374 224.57951Q61.8 225.07951 60.846874 225.07951Q59.6125 225.07951 58.89375 224.18889Q58.05 223.12639 58.05 220.70451ZM59.128124 220.70451Q59.128124 222.81389 59.628124 223.51701Q60.128124 224.22014 60.846874 224.22014Q61.58125 224.22014 62.065624 223.51701Q62.565624 222.81389 62.565624 220.70451Q62.565624 218.57951 62.065624 217.89201Q61.58125 217.18889 60.83125 217.18889Q60.1125 217.18889 59.675 217.79826Q59.128124 218.57951 59.128124 220.70451ZM65.64375 224.93889L65.64375 223.73576L66.84688 223.73576L66.84688 224.93889L65.64375 224.93889ZM68.05 220.70451Q68.05 219.17326 68.3625 218.25139Q68.675 217.31389 69.28438 216.81389Q69.90938 216.31389 70.84688 216.31389Q71.53438 216.31389 72.05 216.59514Q72.58125 216.87639 72.925 217.40764Q73.26875 217.92326 73.45625 218.67326Q73.64375 219.42326 73.64375 220.70451Q73.64375 222.22014 73.33125 223.14201Q73.03438 224.06389 72.40938 224.57951Q71.8 225.07951 70.84688 225.07951Q69.6125 225.07951 68.89375 224.18889Q68.05 223.12639 68.05 220.70451ZM69.12813 220.70451Q69.12813 222.81389 69.62813 223.51701Q70.12813 224.22014 70.84688 224.22014Q71.58125 224.22014 72.06563 223.51701Q72.56563 222.81389 72.56563 220.70451Q72.56563 218.57951 72.06563 217.89201Q71.58125 217.18889 70.83125 217.18889Q70.1125 217.18889 69.675 217.79826Q69.12813 218.57951 69.12813 220.70451ZM75.05 220.70451Q75.05 219.17326 75.3625 218.25139Q75.675 217.31389 76.28438 216.81389Q76.90938 216.31389 77.84688 216.31389Q78.53438 216.31389 79.05 216.59514Q79.58125 216.87639 79.925 217.40764Q80.26875 217.92326 80.45625 218.67326Q80.64375 219.42326 80.64375 220.70451Q80.64375 222.22014 80.33125 223.14201Q80.03438 224.06389 79.40938 224.57951Q78.8 225.07951 77.84688 225.07951Q76.6125 225.07951 75.89375 224.18889Q75.05 223.12639 75.05 220.70451ZM76.12813 220.70451Q76.12813 222.81389 76.62813 223.51701Q77.12813 224.22014 77.84688 224.22014Q78.58125 224.22014 79.06563 223.51701Q79.56563 222.81389 79.56563 220.70451Q79.56563 218.57951 79.06563 217.89201Q78.58125 217.18889 77.83125 217.18889Q77.1125 217.18889 76.675 217.79826Q76.12813 218.57951 76.12813 220.70451ZM82.25313 218.40764Q82.25313 217.48576 82.70625 216.84514Q83.175 216.20451 84.05 216.20451Q84.8625 216.20451 85.39375 216.78264Q85.925 217.36076 85.925 218.47014Q85.925 219.56389 85.37813 220.15764Q84.84688 220.73576 84.06563 220.73576Q83.28438 220.73576 82.76875 220.15764Q82.25313 219.57951 82.25313 218.40764ZM84.08125 216.92326Q83.69063 216.92326 83.425 217.26701Q83.175 217.61076 83.175 218.51701Q83.175 219.34514 83.425 219.68889Q83.69063 220.01701 84.08125 220.01701Q84.4875 220.01701 84.7375 219.67326Q85.00313 219.32951 85.00313 218.43889Q85.00313 217.59514 84.7375 217.26701Q84.47188 216.92326 84.08125 216.92326ZM84.08125 225.25139L88.78438 216.20451L89.64375 216.20451L84.95625 225.25139L84.08125 225.25139ZM87.8 222.92326Q87.8 222.00139 88.25313 221.36076Q88.72188 220.72014 89.6125 220.72014Q90.425 220.72014 90.95625 221.29826Q91.4875 221.86076 91.4875 222.98576Q91.4875 224.07951 90.94063 224.67326Q90.40938 225.25139 89.6125 225.25139Q88.84688 225.25139 88.31563 224.67326Q87.8 224.09514 87.8 222.92326ZM89.64375 221.43889Q89.2375 221.43889 88.97188 221.78264Q88.72188 222.12639 88.72188 223.03264Q88.72188 223.84514 88.9875 224.18889Q89.25313 224.53264 89.64375 224.53264Q90.03438 224.53264 90.3 224.18889Q90.56563 223.84514 90.56563 222.93889Q90.56563 222.11076 90.3 221.78264Q90.03438 221.43889 89.64375 221.43889Z" fill-rule="nonzero"/><path fill="#000000" d="M56.596874 144.41216L56.596874 145.42778L50.909374 145.42778Q50.909374 145.05278 51.034374 144.6934Q51.253124 144.11528 51.721874 143.55278Q52.20625 142.99028 53.1125 142.2559Q54.51875 141.09966 55.003124 140.42778Q55.503124 139.7559 55.503124 139.16216Q55.503124 138.53716 55.05 138.11528Q54.596874 137.67778 53.878124 137.67778Q53.1125 137.67778 52.659374 138.1309Q52.20625 138.58403 52.190624 139.39653L51.1125 139.28716Q51.221874 138.0684 51.940624 137.4434Q52.675 136.80278 53.909374 136.80278Q55.14375 136.80278 55.8625 137.49028Q56.58125 138.17778 56.58125 139.1934Q56.58125 139.70903 56.3625 140.20903Q56.159374 140.6934 55.659374 141.2559Q55.175 141.80278 54.05 142.7559Q53.096874 143.55278 52.815624 143.84966Q52.55 144.1309 52.378124 144.41216L56.596874 144.41216ZM58.05 141.1934Q58.05 139.66216 58.3625 138.74028Q58.675 137.80278 59.284374 137.30278Q59.909374 136.80278 60.846874 136.80278Q61.534374 136.80278 62.05 137.08403Q62.58125 137.36528 62.925 137.89653Q63.26875 138.41216 63.45625 139.16216Q63.64375 139.91216 63.64375 141.1934Q63.64375 142.70903 63.33125 143.6309Q63.034374 144.55278 62.409374 145.0684Q61.8 145.5684 60.846874 145.5684Q59.6125 145.5684 58.89375 144.67778Q58.05 143.61528 58.05 141.1934ZM59.128124 141.1934Q59.128124 143.30278 59.628124 144.0059Q60.128124 144.70903 60.846874 144.70903Q61.58125 144.70903 62.065624 144.0059Q62.565624 143.30278 62.565624 141.1934Q62.565624 139.0684 62.065624 138.3809Q61.58125 137.67778 60.83125 137.67778Q60.1125 137.67778 59.675 138.28716Q59.128124 139.0684 59.128124 141.1934ZM65.64375 145.42778L65.64375 144.22466L66.84688 144.22466L66.84688 145.42778L65.64375 145.42778ZM68.05 141.1934Q68.05 139.66216 68.3625 138.74028Q68.675 137.80278 69.28438 137.30278Q69.90938 136.80278 70.84688 136.80278Q71.53438 136.80278 72.05 137.08403Q72.58125 137.36528 72.925 137.89653Q73.26875 138.41216 73.45625 139.16216Q73.64375 139.91216 73.64375 141.1934Q73.64375 142.70903 73.33125 143.6309Q73.03438 144.55278 72.40938 145.0684Q71.8 145.5684 70.84688 145.5684Q69.6125 145.5684 68.89375 144.67778Q68.05 143.61528 68.05 141.1934ZM69.12813 141.1934Q69.12813 143.30278 69.62813 144.0059Q70.12813 144.70903 70.84688 144.70903Q71.58125 144.70903 72.06563 144.0059Q72.56563 143.30278 72.56563 141.1934Q72.56563 139.0684 72.06563 138.3809Q71.58125 137.67778 70.83125 137.67778Q70.1125 137.67778 69.675 138.28716Q69.12813 139.0684 69.12813 141.1934ZM75.05 141.1934Q75.05 139.66216 75.3625 138.74028Q75.675 137.80278 76.28438 137.30278Q76.90938 136.80278 77.84688 136.80278Q78.53438 136.80278 79.05 137.08403Q79.58125 137.36528 79.925 137.89653Q80.26875 138.41216 80.45625 139.16216Q80.64375 139.91216 80.64375 141.1934Q80.64375 142.70903 80.33125 143.6309Q80.03438 144.55278 79.40938 145.0684Q78.8 145.5684 77.84688 145.5684Q76.6125 145.5684 75.89375 144.67778Q75.05 143.61528 75.05 141.1934ZM76.12813 141.1934Q76.12813 143.30278 76.62813 144.0059Q77.12813 144.70903 77.84688 144.70903Q78.58125 144.70903 79.06563 144.0059Q79.56563 143.30278 79.56563 141.1934Q79.56563 139.0684 79.06563 138.3809Q78.58125 137.67778 77.83125 137.67778Q77.1125 137.67778 76.675 138.28716Q76.12813 139.0684 76.12813 141.1934ZM82.25313 138.89653Q82.25313 137.97466 82.70625 137.33403Q83.175 136.6934 84.05 136.6934Q84.8625 136.6934 85.39375 137.27153Q85.925 137.84966 85.925 138.95903Q85.925 140.05278 85.37813 140.64653Q84.84688 141.22466 84.06563 141.22466Q83.28438 141.22466 82.76875 140.64653Q82.25313 140.0684 82.25313 138.89653ZM84.08125 137.41216Q83.69063 137.41216 83.425 137.7559Q83.175 138.09966 83.175 139.0059Q83.175 139.83403 83.425 140.17778Q83.69063 140.5059 84.08125 140.5059Q84.4875 140.5059 84.7375 140.16216Q85.00313 139.8184 85.00313 138.92778Q85.00313 138.08403 84.7375 137.7559Q84.47188 137.41216 84.08125 137.41216ZM84.08125 145.74028L88.78438 136.6934L89.64375 136.6934L84.95625 145.74028L84.08125 145.74028ZM87.8 143.41216Q87.8 142.49028 88.25313 141.84966Q88.72188 141.20903 89.6125 141.20903Q90.425 141.20903 90.95625 141.78716Q91.4875 142.34966 91.4875 143.47466Q91.4875 144.5684 90.94063 145.16216Q90.40938 145.74028 89.6125 145.74028Q88.84688 145.74028 88.31563 145.16216Q87.8 144.58403 87.8 143.41216ZM89.64375 141.92778Q89.2375 141.92778 88.97188 142.27153Q88.72188 142.61528 88.72188 143.52153Q88.72188 144.33403 88.9875 144.67778Q89.25313 145.02153 89.64375 145.02153Q90.03438 145.02153 90.3 144.67778Q90.56563 144.33403 90.56563 143.42778Q90.56563 142.59966 90.3 142.27153Q90.03438 141.92778 89.64375 141.92778Z" fill-rule="nonzero"/><path fill="#000000" d="M51.05 63.65104L52.1125 63.510414Q52.284374 64.40104 52.721874 64.80729Q53.159374 65.197914 53.784374 65.197914Q54.534374 65.197914 55.05 64.68229Q55.565624 64.166664 55.565624 63.40104Q55.565624 62.68229 55.08125 62.21354Q54.6125 61.729164 53.878124 61.729164Q53.58125 61.729164 53.128124 61.854164L53.253124 60.916664Q53.3625 60.93229 53.425 60.93229Q54.096874 60.93229 54.628124 60.58854Q55.175 60.229164 55.175 59.49479Q55.175 58.916664 54.784374 58.541664Q54.39375 58.15104 53.76875 58.15104Q53.159374 58.15104 52.7375 58.541664Q52.33125 58.93229 52.221874 59.697914L51.159374 59.510414Q51.346874 58.46354 52.034374 57.885414Q52.721874 57.291664 53.7375 57.291664Q54.440624 57.291664 55.034374 57.604164Q55.628124 57.90104 55.940624 58.416664Q56.253124 58.93229 56.253124 59.52604Q56.253124 60.072914 55.95625 60.541664Q55.659374 60.99479 55.08125 61.260414Q55.83125 61.43229 56.253124 61.99479Q56.675 62.541664 56.675 63.385414Q56.675 64.510414 55.846874 65.291664Q55.034374 66.072914 53.784374 66.072914Q52.659374 66.072914 51.909374 65.40104Q51.159374 64.71354 51.05 63.65104ZM58.05 61.68229Q58.05 60.15104 58.3625 59.229164Q58.675 58.291664 59.284374 57.791664Q59.909374 57.291664 60.846874 57.291664Q61.534374 57.291664 62.05 57.572914Q62.58125 57.854164 62.925 58.385414Q63.26875 58.90104 63.45625 59.65104Q63.64375 60.40104 63.64375 61.68229Q63.64375 63.197914 63.33125 64.11979Q63.034374 65.041664 62.409374 65.55729Q61.8 66.05729 60.846874 66.05729Q59.6125 66.05729 58.89375 65.166664Q58.05 64.104164 58.05 61.68229ZM59.128124 61.68229Q59.128124 63.791664 59.628124 64.49479Q60.128124 65.197914 60.846874 65.197914Q61.58125 65.197914 62.065624 64.49479Q62.565624 63.791664 62.565624 61.68229Q62.565624 59.55729 62.065624 58.86979Q61.58125 58.166664 60.83125 58.166664Q60.1125 58.166664 59.675 58.77604Q59.128124 59.55729 59.128124 61.68229ZM65.64375 65.916664L65.64375 64.71354L66.84688 64.71354L66.84688 65.916664L65.64375 65.916664ZM68.05 61.68229Q68.05 60.15104 68.3625 59.229164Q68.675 58.291664 69.28438 57.791664Q69.90938 57.291664 70.84688 57.291664Q71.53438 57.291664 72.05 57.572914Q72.58125 57.854164 72.925 58.385414Q73.26875 58.90104 73.45625 59.65104Q73.64375 60.40104 73.64375 61.68229Q73.64375 63.197914 73.33125 64.11979Q73.03438 65.041664 72.40938 65.55729Q71.8 66.05729 70.84688 66.05729Q69.6125 66.05729 68.89375 65.166664Q68.05 64.104164 68.05 61.68229ZM69.12813 61.68229Q69.12813 63.791664 69.62813 64.49479Q70.12813 65.197914 70.84688 65.197914Q71.58125 65.197914 72.06563 64.49479Q72.56563 63.791664 72.56563 61.68229Q72.56563 59.55729 72.06563 58.86979Q71.58125 58.166664 70.83125 58.166664Q70.1125 58.166664 69.675 58.77604Q69.12813 59.55729 69.12813 61.68229ZM75.05 61.68229Q75.05 60.15104 75.3625 59.229164Q75.675 58.291664 76.28438 57.791664Q76.90938 57.291664 77.84688 57.291664Q78.53438 57.291664 79.05 57.572914Q79.58125 57.854164 79.925 58.385414Q80.26875 58.90104 80.45625 59.65104Q80.64375 60.40104 80.64375 61.68229Q80.64375 63.197914 80.33125 64.11979Q80.03438 65.041664 79.40938 65.55729Q78.8 66.05729 77.84688 66.05729Q76.6125 66.05729 75.89375 65.166664Q75.05 64.104164 75.05 61.68229ZM76.12813 61.68229Q76.12813 63.791664 76.62813 64.49479Q77.12813 65.197914 77.84688 65.197914Q78.58125 65.197914 79.06563 64.49479Q79.56563 63.791664 79.56563 61.68229Q79.56563 59.55729 79.06563 58.86979Q78.58125 58.166664 77.83125 58.166664Q77.1125 58.166664 76.675 58.77604Q76.12813 59.55729 76.12813 61.68229ZM82.25313 59.385414Q82.25313 58.46354 82.70625 57.822914Q83.175 57.18229 84.05 57.18229Q84.8625 57.18229 85.39375 57.760414Q85.925 58.33854 85.925 59.447914Q85.925 60.541664 85.37813 61.135414Q84.84688 61.71354 84.06563 61.71354Q83.28438 61.71354 82.76875 61.135414Q82.25313 60.55729 82.25313 59.385414ZM84.08125 57.90104Q83.69063 57.90104 83.425 58.24479Q83.175 58.58854 83.175 59.49479Q83.175 60.322914 83.425 60.666664Q83.69063 60.99479 84.08125 60.99479Q84.4875 60.99479 84.7375 60.65104Q85.00313 60.30729 85.00313 59.416664Q85.00313 58.572914 84.7375 58.24479Q84.47188 57.90104 84.08125 57.90104ZM84.08125 66.229164L88.78438 57.18229L89.64375 57.18229L84.95625 66.229164L84.08125 66.229164ZM87.8 63.90104Q87.8 62.979164 88.25313 62.33854Q88.72188 61.697914 89.6125 61.697914Q90.425 61.697914 90.95625 62.27604Q91.4875 62.83854 91.4875 63.96354Q91.4875 65.05729 90.94063 65.65104Q90.40938 66.229164 89.6125 66.229164Q88.84688 66.229164 88.31563 65.65104Q87.8 65.072914 87.8 63.90104ZM89.64375 62.416664Q89.2375 62.416664 88.97188 62.760414Q88.72188 63.104164 88.72188 64.010414Q88.72188 64.822914 88.9875 65.166664Q89.25313 65.510414 89.64375 65.510414Q90.03438 65.510414 90.3 65.166664Q90.56563 64.822914 90.56563 63.916664Q90.56563 63.08854 90.3 62.760414Q90.03438 62.416664 89.64375 62.416664Z" fill-rule="nonzero"/><path fill="#000000" d="M149.94539 317.45L148.89851 317.45L148.89851 310.73126Q148.50789 311.09064 147.88289 311.46564Q147.27351 311.825 146.78914 311.9969L146.78914 310.98126Q147.66414 310.5594 148.32039 309.98126Q148.99226 309.3875 149.27351 308.825L149.94539 308.825L149.94539 317.45ZM153.13289 315.46564L154.14851 315.3719Q154.27351 316.09064 154.63289 316.41876Q155.00789 316.73126 155.57039 316.73126Q156.05476 316.73126 156.41414 316.5125Q156.78914 316.27814 157.02351 315.91876Q157.25789 315.54376 157.41414 314.91876Q157.57039 314.27814 157.57039 313.6219Q157.57039 313.54376 157.57039 313.40314Q157.25789 313.90314 156.71101 314.23126Q156.16414 314.54376 155.52351 314.54376Q154.44539 314.54376 153.71101 313.77814Q152.97664 312.9969 152.97664 311.73126Q152.97664 310.41876 153.74226 309.6219Q154.52351 308.825 155.67976 308.825Q156.50789 308.825 157.19539 309.27814Q157.89851 309.73126 158.25789 310.575Q158.61726 311.40314 158.61726 312.98126Q158.61726 314.6219 158.25789 315.60626Q157.91414 316.575 157.19539 317.09064Q156.49226 317.59064 155.55476 317.59064Q154.53914 317.59064 153.89851 317.04376Q153.25789 316.48126 153.13289 315.46564ZM157.44539 311.66876Q157.44539 310.7625 156.96101 310.23126Q156.49226 309.7 155.80476 309.7Q155.10164 309.7 154.57039 310.27814Q154.05476 310.84064 154.05476 311.7625Q154.05476 312.575 154.55476 313.09064Q155.05476 313.60626 155.77351 313.60626Q156.50789 313.60626 156.97664 313.09064Q157.44539 312.575 157.44539 311.66876ZM165.52351 316.4344L165.52351 317.45L159.83601 317.45Q159.83601 317.075 159.96101 316.71564Q160.17976 316.1375 160.64851 315.575Q161.13289 315.0125 162.03914 314.27814Q163.44539 313.1219 163.92976 312.45Q164.42976 311.77814 164.42976 311.1844Q164.42976 310.5594 163.97664 310.1375Q163.52351 309.7 162.80476 309.7Q162.03914 309.7 161.58601 310.15314Q161.13289 310.60626 161.11726 311.41876L160.03914 311.3094Q160.14851 310.09064 160.86726 309.46564Q161.60164 308.825 162.83601 308.825Q164.07039 308.825 164.78914 309.5125Q165.50789 310.2 165.50789 311.21564Q165.50789 311.73126 165.28914 312.23126Q165.08601 312.71564 164.58601 313.27814Q164.10164 313.825 162.97664 314.77814Q162.02351 315.575 161.74226 315.8719Q161.47664 316.15314 161.30476 316.4344L165.52351 316.4344ZM167.13289 315.46564L168.14851 315.3719Q168.27351 316.09064 168.63289 316.41876Q169.00789 316.73126 169.57039 316.73126Q170.05476 316.73126 170.41414 316.5125Q170.78914 316.27814 171.02351 315.91876Q171.25789 315.54376 171.41414 314.91876Q171.57039 314.27814 171.57039 313.6219Q171.57039 313.54376 171.57039 313.40314Q171.25789 313.90314 170.71101 314.23126Q170.16414 314.54376 169.52351 314.54376Q168.44539 314.54376 167.71101 313.77814Q166.97664 312.9969 166.97664 311.73126Q166.97664 310.41876 167.74226 309.6219Q168.52351 308.825 169.67976 308.825Q170.50789 308.825 171.19539 309.27814Q171.89851 309.73126 172.25789 310.575Q172.61726 311.40314 172.61726 312.98126Q172.61726 314.6219 172.25789 315.60626Q171.91414 316.575 171.19539 317.09064Q170.49226 317.59064 169.55476 317.59064Q168.53914 317.59064 167.89851 317.04376Q167.25789 316.48126 167.13289 315.46564ZM171.44539 311.66876Q171.44539 310.7625 170.96101 310.23126Q170.49226 309.7 169.80476 309.7Q169.10164 309.7 168.57039 310.27814Q168.05476 310.84064 168.05476 311.7625Q168.05476 312.575 168.55476 313.09064Q169.05476 313.60626 169.77351 313.60626Q170.50789 313.60626 170.97664 313.09064Q171.44539 312.575 171.44539 311.66876Z" fill-rule="nonzero"/><path fill="#000000" d="M240.20706 317.45L239.16019 317.45L239.16019 310.73126Q238.76956 311.09064 238.14456 311.46564Q237.53519 311.825 237.05081 311.9969L237.05081 310.98126Q237.92581 310.5594 238.58206 309.98126Q239.25394 309.3875 239.53519 308.825L240.20706 308.825L240.20706 317.45ZM243.39456 315.46564L244.41019 315.3719Q244.53519 316.09064 244.89456 316.41876Q245.26956 316.73126 245.83206 316.73126Q246.31644 316.73126 246.67581 316.5125Q247.05081 316.27814 247.28519 315.91876Q247.51956 315.54376 247.67581 314.91876Q247.83206 314.27814 247.83206 313.6219Q247.83206 313.54376 247.83206 313.40314Q247.51956 313.90314 246.97269 314.23126Q246.42581 314.54376 245.78519 314.54376Q244.70706 314.54376 243.97269 313.77814Q243.23831 312.9969 243.23831 311.73126Q243.23831 310.41876 244.00394 309.6219Q244.78519 308.825 245.94144 308.825Q246.76956 308.825 247.45706 309.27814Q248.16019 309.73126 248.51956 310.575Q248.87894 311.40314 248.87894 312.98126Q248.87894 314.6219 248.51956 315.60626Q248.17581 316.575 247.45706 317.09064Q246.75394 317.59064 245.81644 317.59064Q244.80081 317.59064 244.16019 317.04376Q243.51956 316.48126 243.39456 315.46564ZM247.70706 311.66876Q247.70706 310.7625 247.22269 310.23126Q246.75394 309.7 246.06644 309.7Q245.36331 309.7 244.83206 310.27814Q244.31644 310.84064 244.31644 311.7625Q244.31644 312.575 244.81644 313.09064Q245.31644 313.60626 246.03519 313.60626Q246.76956 313.60626 247.23831 313.09064Q247.70706 312.575 247.70706 311.66876ZM250.23831 315.1844L251.30081 315.04376Q251.47269 315.9344 251.91019 316.34064Q252.34769 316.73126 252.97269 316.73126Q253.72269 316.73126 254.23831 316.21564Q254.75394 315.7 254.75394 314.9344Q254.75394 314.21564 254.26956 313.7469Q253.80081 313.2625 253.06644 313.2625Q252.76956 313.2625 252.31644 313.3875L252.44144 312.45Q252.55081 312.46564 252.61331 312.46564Q253.28519 312.46564 253.81644 312.1219Q254.36331 311.7625 254.36331 311.02814Q254.36331 310.45 253.97269 310.075Q253.58206 309.6844 252.95706 309.6844Q252.34769 309.6844 251.92581 310.075Q251.51956 310.46564 251.41019 311.23126L250.34769 311.04376Q250.53519 309.9969 251.22269 309.41876Q251.91019 308.825 252.92581 308.825Q253.62894 308.825 254.22269 309.1375Q254.81644 309.4344 255.12894 309.95Q255.44144 310.46564 255.44144 311.0594Q255.44144 311.60626 255.14456 312.075Q254.84769 312.52814 254.26956 312.79376Q255.01956 312.96564 255.44144 313.52814Q255.86331 314.075 255.86331 314.91876Q255.86331 316.04376 255.03519 316.825Q254.22269 317.60626 252.97269 317.60626Q251.84769 317.60626 251.09769 316.9344Q250.34769 316.2469 250.23831 315.1844ZM257.2383 313.21564Q257.2383 311.6844 257.5508 310.7625Q257.8633 309.825 258.4727 309.325Q259.0977 308.825 260.0352 308.825Q260.7227 308.825 261.2383 309.10626Q261.76956 309.3875 262.1133 309.91876Q262.45706 310.4344 262.64456 311.1844Q262.83206 311.9344 262.83206 313.21564Q262.83206 314.73126 262.51956 315.65314Q262.2227 316.575 261.5977 317.09064Q260.9883 317.59064 260.0352 317.59064Q258.8008 317.59064 258.08206 316.7Q257.2383 315.6375 257.2383 313.21564ZM258.31644 313.21564Q258.31644 315.325 258.81644 316.02814Q259.31644 316.73126 260.0352 316.73126Q260.76956 316.73126 261.25394 316.02814Q261.75394 315.325 261.75394 313.21564Q261.75394 311.09064 261.25394 310.40314Q260.76956 309.7 260.01956 309.7Q259.3008 309.7 258.8633 310.3094Q258.31644 311.09064 258.31644 313.21564Z" fill-rule="nonzero"/><path fill="#000000" d="M330.46875 317.45L329.42188 317.45L329.42188 310.73126Q329.03125 311.09064 328.40625 311.46564Q327.79688 311.825 327.3125 311.9969L327.3125 310.98126Q328.1875 310.5594 328.84375 309.98126Q329.51562 309.3875 329.79688 308.825L330.46875 308.825L330.46875 317.45ZM333.65625 315.46564L334.67188 315.3719Q334.79688 316.09064 335.15625 316.41876Q335.53125 316.73126 336.09375 316.73126Q336.57812 316.73126 336.9375 316.5125Q337.3125 316.27814 337.54688 315.91876Q337.78125 315.54376 337.9375 314.91876Q338.09375 314.27814 338.09375 313.6219Q338.09375 313.54376 338.09375 313.40314Q337.78125 313.90314 337.23438 314.23126Q336.6875 314.54376 336.04688 314.54376Q334.96875 314.54376 334.23438 313.77814Q333.5 312.9969 333.5 311.73126Q333.5 310.41876 334.26562 309.6219Q335.04688 308.825 336.20312 308.825Q337.03125 308.825 337.71875 309.27814Q338.42188 309.73126 338.78125 310.575Q339.14062 311.40314 339.14062 312.98126Q339.14062 314.6219 338.78125 315.60626Q338.4375 316.575 337.71875 317.09064Q337.01562 317.59064 336.07812 317.59064Q335.0625 317.59064 334.42188 317.04376Q333.78125 316.48126 333.65625 315.46564ZM337.96875 311.66876Q337.96875 310.7625 337.48438 310.23126Q337.01562 309.7 336.32812 309.7Q335.625 309.7 335.09375 310.27814Q334.57812 310.84064 334.57812 311.7625Q334.57812 312.575 335.07812 313.09064Q335.57812 313.60626 336.29688 313.60626Q337.03125 313.60626 337.5 313.09064Q337.96875 312.575 337.96875 311.66876ZM340.5 315.1844L341.5625 315.04376Q341.73438 315.9344 342.17188 316.34064Q342.60938 316.73126 343.23438 316.73126Q343.98438 316.73126 344.5 316.21564Q345.01562 315.7 345.01562 314.9344Q345.01562 314.21564 344.53125 313.7469Q344.0625 313.2625 343.32812 313.2625Q343.03125 313.2625 342.57812 313.3875L342.70312 312.45Q342.8125 312.46564 342.875 312.46564Q343.54688 312.46564 344.07812 312.1219Q344.625 311.7625 344.625 311.02814Q344.625 310.45 344.23438 310.075Q343.84375 309.6844 343.21875 309.6844Q342.60938 309.6844 342.1875 310.075Q341.78125 310.46564 341.67188 311.23126L340.60938 311.04376Q340.79688 309.9969 341.48438 309.41876Q342.17188 308.825 343.1875 308.825Q343.89062 308.825 344.48438 309.1375Q345.07812 309.4344 345.39062 309.95Q345.70312 310.46564 345.70312 311.0594Q345.70312 311.60626 345.40625 312.075Q345.10938 312.52814 344.53125 312.79376Q345.28125 312.96564 345.70312 313.52814Q346.125 314.075 346.125 314.91876Q346.125 316.04376 345.29688 316.825Q344.48438 317.60626 343.23438 317.60626Q342.10938 317.60626 341.35938 316.9344Q340.60938 316.2469 340.5 315.1844ZM351.46875 317.45L350.42188 317.45L350.42188 310.73126Q350.03125 311.09064 349.40625 311.46564Q348.79688 311.825 348.3125 311.9969L348.3125 310.98126Q349.1875 310.5594 349.84375 309.98126Q350.51562 309.3875 350.79688 308.825L351.46875 308.825L351.46875 317.45Z" fill-rule="nonzero"/><path fill="#000000" d="M420.73044 317.45L419.68356 317.45L419.68356 310.73126Q419.29294 311.09064 418.66794 311.46564Q418.05856 311.825 417.5742 311.9969L417.5742 310.98126Q418.4492 310.5594 419.10544 309.98126Q419.7773 309.3875 420.05856 308.825L420.73044 308.825L420.73044 317.45ZM423.91794 315.46564L424.93356 315.3719Q425.05856 316.09064 425.41794 316.41876Q425.79294 316.73126 426.35544 316.73126Q426.8398 316.73126 427.1992 316.5125Q427.5742 316.27814 427.80856 315.91876Q428.04294 315.54376 428.1992 314.91876Q428.35544 314.27814 428.35544 313.6219Q428.35544 313.54376 428.35544 313.40314Q428.04294 313.90314 427.49606 314.23126Q426.9492 314.54376 426.30856 314.54376Q425.23044 314.54376 424.49606 313.77814Q423.7617 312.9969 423.7617 311.73126Q423.7617 310.41876 424.5273 309.6219Q425.30856 308.825 426.4648 308.825Q427.29294 308.825 427.98044 309.27814Q428.68356 309.73126 429.04294 310.575Q429.4023 311.40314 429.4023 312.98126Q429.4023 314.6219 429.04294 315.60626Q428.6992 316.575 427.98044 317.09064Q427.2773 317.59064 426.3398 317.59064Q425.3242 317.59064 424.68356 317.04376Q424.04294 316.48126 423.91794 315.46564ZM428.23044 311.66876Q428.23044 310.7625 427.74606 310.23126Q427.2773 309.7 426.5898 309.7Q425.8867 309.7 425.35544 310.27814Q424.8398 310.84064 424.8398 311.7625Q424.8398 312.575 425.3398 313.09064Q425.8398 313.60626 426.55856 313.60626Q427.29294 313.60626 427.7617 313.09064Q428.23044 312.575 428.23044 311.66876ZM430.7617 315.1844L431.8242 315.04376Q431.99606 315.9344 432.43356 316.34064Q432.87106 316.73126 433.49606 316.73126Q434.24606 316.73126 434.7617 316.21564Q435.2773 315.7 435.2773 314.9344Q435.2773 314.21564 434.79294 313.7469Q434.3242 313.2625 433.5898 313.2625Q433.29294 313.2625 432.8398 313.3875L432.9648 312.45Q433.0742 312.46564 433.1367 312.46564Q433.80856 312.46564 434.3398 312.1219Q434.8867 311.7625 434.8867 311.02814Q434.8867 310.45 434.49606 310.075Q434.10544 309.6844 433.48044 309.6844Q432.87106 309.6844 432.4492 310.075Q432.04294 310.46564 431.93356 311.23126L430.87106 311.04376Q431.05856 309.9969 431.74606 309.41876Q432.43356 308.825 433.4492 308.825Q434.1523 308.825 434.74606 309.1375Q435.3398 309.4344 435.6523 309.95Q435.9648 310.46564 435.9648 311.0594Q435.9648 311.60626 435.66794 312.075Q435.37106 312.52814 434.79294 312.79376Q435.54294 312.96564 435.9648 313.52814Q436.3867 314.075 436.3867 314.91876Q436.3867 316.04376 435.55856 316.825Q434.74606 317.60626 433.49606 317.60626Q432.37106 317.60626 431.62106 316.9344Q430.87106 316.2469 430.7617 315.1844ZM443.30856 316.4344L443.30856 317.45L437.62106 317.45Q437.62106 317.075 437.74606 316.71564Q437.9648 316.1375 438.43356 315.575Q438.91794 315.0125 439.8242 314.27814Q441.23044 313.1219 441.7148 312.45Q442.2148 311.77814 442.2148 311.1844Q442.2148 310.5594 441.7617 310.1375Q441.30856 309.7 440.5898 309.7Q439.8242 309.7 439.37106 310.15314Q438.91794 310.60626 438.9023 311.41876L437.8242 311.3094Q437.93356 310.09064 438.6523 309.46564Q439.3867 308.825 440.62106 308.825Q441.85544 308.825 442.5742 309.5125Q443.29294 310.2 443.29294 311.21564Q443.29294 311.73126 443.0742 312.23126Q442.87106 312.71564 442.37106 313.27814Q441.8867 313.825 440.7617 314.77814Q439.80856 315.575 439.5273 315.8719Q439.2617 316.15314 439.0898 316.4344L443.30856 316.4344Z" fill-rule="nonzero"/><path fill="#000000" d="M510.99213 317.45L509.94525 317.45L509.94525 310.73126Q509.55463 311.09064 508.92963 311.46564Q508.32025 311.825 507.83588 311.9969L507.83588 310.98126Q508.71088 310.5594 509.36713 309.98126Q510.039 309.3875 510.32025 308.825L510.99213 308.825L510.99213 317.45ZM514.1796 315.46564L515.19525 315.3719Q515.32025 316.09064 515.6796 316.41876Q516.0546 316.73126 516.6171 316.73126Q517.1015 316.73126 517.4609 316.5125Q517.8359 316.27814 518.07025 315.91876Q518.3046 315.54376 518.4609 314.91876Q518.6171 314.27814 518.6171 313.6219Q518.6171 313.54376 518.6171 313.40314Q518.3046 313.90314 517.75775 314.23126Q517.2109 314.54376 516.57025 314.54376Q515.4921 314.54376 514.75775 313.77814Q514.0234 312.9969 514.0234 311.73126Q514.0234 310.41876 514.789 309.6219Q515.57025 308.825 516.7265 308.825Q517.5546 308.825 518.2421 309.27814Q518.94525 309.73126 519.3046 310.575Q519.664 311.40314 519.664 312.98126Q519.664 314.6219 519.3046 315.60626Q518.9609 316.575 518.2421 317.09064Q517.539 317.59064 516.6015 317.59064Q515.5859 317.59064 514.94525 317.04376Q514.3046 316.48126 514.1796 315.46564ZM518.4921 311.66876Q518.4921 310.7625 518.00775 310.23126Q517.539 309.7 516.8515 309.7Q516.1484 309.7 515.6171 310.27814Q515.1015 310.84064 515.1015 311.7625Q515.1015 312.575 515.6015 313.09064Q516.1015 313.60626 516.82025 313.60626Q517.5546 313.60626 518.0234 313.09064Q518.4921 312.575 518.4921 311.66876ZM521.0234 315.1844L522.0859 315.04376Q522.25775 315.9344 522.69525 316.34064Q523.13275 316.73126 523.75775 316.73126Q524.50775 316.73126 525.0234 316.21564Q525.539 315.7 525.539 314.9344Q525.539 314.21564 525.0546 313.7469Q524.5859 313.2625 523.8515 313.2625Q523.5546 313.2625 523.1015 313.3875L523.2265 312.45Q523.3359 312.46564 523.3984 312.46564Q524.07025 312.46564 524.6015 312.1219Q525.1484 311.7625 525.1484 311.02814Q525.1484 310.45 524.75775 310.075Q524.3671 309.6844 523.7421 309.6844Q523.13275 309.6844 522.7109 310.075Q522.3046 310.46564 522.19525 311.23126L521.13275 311.04376Q521.32025 309.9969 522.00775 309.41876Q522.69525 308.825 523.7109 308.825Q524.414 308.825 525.00775 309.1375Q525.6015 309.4344 525.914 309.95Q526.2265 310.46564 526.2265 311.0594Q526.2265 311.60626 525.9296 312.075Q525.63275 312.52814 525.0546 312.79376Q525.8046 312.96564 526.2265 313.52814Q526.6484 314.075 526.6484 314.91876Q526.6484 316.04376 525.82025 316.825Q525.00775 317.60626 523.75775 317.60626Q522.63275 317.60626 521.88275 316.9344Q521.13275 316.2469 521.0234 315.1844ZM528.0234 315.1844L529.0859 315.04376Q529.25775 315.9344 529.69525 316.34064Q530.13275 316.73126 530.75775 316.73126Q531.50775 316.73126 532.0234 316.21564Q532.539 315.7 532.539 314.9344Q532.539 314.21564 532.0546 313.7469Q531.5859 313.2625 530.8515 313.2625Q530.5546 313.2625 530.1015 313.3875L530.2265 312.45Q530.3359 312.46564 530.3984 312.46564Q531.07025 312.46564 531.6015 312.1219Q532.1484 311.7625 532.1484 311.02814Q532.1484 310.45 531.75775 310.075Q531.3671 309.6844 530.7421 309.6844Q530.13275 309.6844 529.7109 310.075Q529.3046 310.46564 529.19525 311.23126L528.13275 311.04376Q528.32025 309.9969 529.00775 309.41876Q529.69525 308.825 530.7109 308.825Q531.414 308.825 532.00775 309.1375Q532.6015 309.4344 532.914 309.95Q533.2265 310.46564 533.2265 311.0594Q533.2265 311.60626 532.9296 312.075Q532.63275 312.52814 532.0546 312.79376Q532.8046 312.96564 533.2265 313.52814Q533.6484 314.075 533.6484 314.91876Q533.6484 316.04376 532.82025 316.825Q532.00775 317.60626 530.75775 317.60626Q529.63275 317.60626 528.88275 316.9344Q528.13275 316.2469 528.0234 315.1844Z" fill-rule="nonzero"/><path fill="#757575" d="M29.4875 23.2375L31.378124 23.2375L31.378124 31.503124Q31.378124 33.659374 30.89375 34.940624Q30.409374 36.20625 29.128124 37.003124Q27.8625 37.8 25.784374 37.8Q23.76875 37.8 22.4875 37.1125Q21.221874 36.409374 20.675 35.096874Q20.128124 33.784374 20.128124 31.503124L20.128124 23.2375L22.01875 23.2375L22.01875 31.4875Q22.01875 33.3625 22.3625 34.253124Q22.70625 35.128124 23.55 35.6125Q24.39375 36.08125 25.628124 36.08125Q27.70625 36.08125 28.596874 35.14375Q29.4875 34.190624 29.4875 31.4875L29.4875 23.2375ZM32.8625 37.55L32.8625 27.175L34.45625 27.175L34.45625 28.659374Q35.596874 26.940624 37.753124 26.940624Q38.690624 26.940624 39.471874 27.284374Q40.26875 27.6125 40.659374 28.159374Q41.05 28.70625 41.20625 29.45625Q41.3 29.95625 41.3 31.175L41.3 37.55L39.534374 37.55L39.534374 31.2375Q39.534374 30.159374 39.33125 29.628124Q39.128124 29.096874 38.596874 28.784374Q38.08125 28.471874 37.378124 28.471874Q36.253124 28.471874 35.440624 29.190624Q34.628124 29.89375 34.628124 31.878124L34.628124 37.55L32.8625 37.55ZM49.971874 34.20625L51.784374 34.440624Q51.3625 36.01875 50.190624 36.909374Q49.034374 37.784374 47.221874 37.784374Q44.95625 37.784374 43.6125 36.39375Q42.284374 34.9875 42.284374 32.45625Q42.284374 29.83125 43.628124 28.39375Q44.971874 26.940624 47.128124 26.940624Q49.20625 26.940624 50.51875 28.3625Q51.846874 29.76875 51.846874 32.346874Q51.846874 32.503124 51.83125 32.815624L44.096874 32.815624Q44.190624 34.51875 45.065624 35.425Q45.940624 36.33125 47.2375 36.33125Q48.20625 36.33125 48.878124 35.83125Q49.565624 35.315624 49.971874 34.20625ZM44.190624 31.3625L49.9875 31.3625Q49.878124 30.065624 49.33125 29.409374Q48.4875 28.39375 47.14375 28.39375Q45.940624 28.39375 45.1125 29.20625Q44.284374 30.003124 44.190624 31.3625ZM53.8625 37.55L53.8625 27.175L55.440624 27.175L55.440624 28.628124Q55.925 27.878124 56.7375 27.409374Q57.55 26.940624 58.58125 26.940624Q59.7375 26.940624 60.471874 27.425Q61.20625 27.89375 61.51875 28.753124Q62.753124 26.940624 64.72188 26.940624Q66.26875 26.940624 67.09688 27.8Q67.925 28.659374 67.925 30.425L67.925 37.55L66.175 37.55L66.175 31.01875Q66.175 29.95625 66.00313 29.503124Q65.83125 29.034374 65.37813 28.753124Q64.94063 28.471874 64.33125 28.471874Q63.2375 28.471874 62.503124 29.20625Q61.784374 29.925 61.784374 31.51875L61.784374 37.55L60.034374 37.55L60.034374 30.815624Q60.034374 29.64375 59.596874 29.065624Q59.175 28.471874 58.190624 28.471874Q57.45625 28.471874 56.815624 28.8625Q56.190624 29.253124 55.909374 30.003124Q55.628124 30.753124 55.628124 32.175L55.628124 37.55L53.8625 37.55ZM69.8625 41.51875L69.8625 27.175L71.47188 27.175L71.47188 28.51875Q72.03438 27.7375 72.7375 27.346874Q73.45625 26.940624 74.47188 26.940624Q75.8 26.940624 76.81563 27.628124Q77.83125 28.315624 78.34688 29.565624Q78.87813 30.8 78.87813 32.284374Q78.87813 33.878124 78.3 35.159374Q77.7375 36.425 76.64375 37.1125Q75.55 37.784374 74.34688 37.784374Q73.47188 37.784374 72.76875 37.409374Q72.08125 37.034374 71.62813 36.471874L71.62813 41.51875L69.8625 41.51875ZM71.45625 32.425Q71.45625 34.425 72.26875 35.378124Q73.08125 36.33125 74.2375 36.33125Q75.40938 36.33125 76.2375 35.346874Q77.08125 34.3625 77.08125 32.26875Q77.08125 30.3 76.25313 29.315624Q75.44063 28.315624 74.31563 28.315624Q73.19063 28.315624 72.31563 29.378124Q71.45625 30.425 71.45625 32.425ZM80.83125 37.55L80.83125 23.2375L82.58125 23.2375L82.58125 37.55L80.83125 37.55ZM84.22188 32.3625Q84.22188 29.4875 85.81563 28.096874Q87.15938 26.940624 89.08125 26.940624Q91.22188 26.940624 92.56563 28.346874Q93.925 29.753124 93.925 32.221874Q93.925 34.221874 93.33125 35.378124Q92.7375 36.51875 91.58125 37.159374Q90.44063 37.784374 89.08125 37.784374Q86.89375 37.784374 85.55 36.39375Q84.22188 34.9875 84.22188 32.3625ZM86.01875 32.3625Q86.01875 34.3625 86.87813 35.346874Q87.75313 36.33125 89.08125 36.33125Q90.39375 36.33125 91.25313 35.346874Q92.12813 34.346874 92.12813 32.3Q92.12813 30.378124 91.25313 29.39375Q90.37813 28.39375 89.08125 28.39375Q87.75313 28.39375 86.87813 29.39375Q86.01875 30.378124 86.01875 32.3625ZM95.78438 41.55L95.59688 39.89375Q96.175 40.05 96.59688 40.05Q97.19063 40.05 97.53438 39.846874Q97.89375 39.659374 98.1125 39.315624Q98.28438 39.05 98.65938 38.003124Q98.70625 37.846874 98.81563 37.565624L94.87813 27.175L96.76875 27.175L98.925 33.190624Q99.34688 34.33125 99.675 35.58125Q99.9875 34.378124 100.39375 33.221874L102.6125 27.175L104.37813 27.175L100.425 37.721874Q99.8 39.440624 99.44063 40.08125Q98.97188 40.95625 98.3625 41.346874Q97.76875 41.753124 96.925 41.753124Q96.40938 41.753124 95.78438 41.55ZM105.8625 37.55L105.8625 27.175L107.44063 27.175L107.44063 28.628124Q107.925 27.878124 108.7375 27.409374Q109.55 26.940624 110.58125 26.940624Q111.7375 26.940624 112.47188 27.425Q113.20625 27.89375 113.51875 28.753124Q114.75313 26.940624 116.72188 26.940624Q118.26875 26.940624 119.09688 27.8Q119.925 28.659374 119.925 30.425L119.925 37.55L118.175 37.55L118.175 31.01875Q118.175 29.95625 118.00313 29.503124Q117.83125 29.034374 117.37813 28.753124Q116.94063 28.471874 116.33125 28.471874Q115.2375 28.471874 114.50313 29.20625Q113.78438 29.925 113.78438 31.51875L113.78438 37.55L112.03438 37.55L112.03438 30.815624Q112.03438 29.64375 111.59688 29.065624Q111.175 28.471874 110.19063 28.471874Q109.45625 28.471874 108.81563 28.8625Q108.19063 29.253124 107.90938 30.003124Q107.62813 30.753124 107.62813 32.175L107.62813 37.55L105.8625 37.55ZM128.97188 34.20625L130.78438 34.440624Q130.3625 36.01875 129.19063 36.909374Q128.03438 37.784374 126.22188 37.784374Q123.95625 37.784374 122.6125 36.39375Q121.28438 34.9875 121.28438 32.45625Q121.28438 29.83125 122.62813 28.39375Q123.97188 26.940624 126.12813 26.940624Q128.20625 26.940624 129.51875 28.3625Q130.84688 29.76875 130.84688 32.346874Q130.84688 32.503124 130.83125 32.815624L123.09688 32.815624Q123.19063 34.51875 124.06563 35.425Q124.94063 36.33125 126.2375 36.33125Q127.20625 36.33125 127.87813 35.83125Q128.56563 35.315624 128.97188 34.20625ZM123.19063 31.3625L128.9875 31.3625Q128.87813 30.065624 128.33125 29.409374Q127.4875 28.39375 126.14375 28.39375Q124.94063 28.39375 124.1125 29.20625Q123.28438 30.003124 123.19063 31.3625ZM132.8625 37.55L132.8625 27.175L134.45625 27.175L134.45625 28.659374Q135.59688 26.940624 137.75313 26.940624Q138.69063 26.940624 139.47188 27.284374Q140.26875 27.6125 140.65938 28.159374Q141.05 28.70625 141.20625 29.45625Q141.3 29.95625 141.3 31.175L141.3 37.55L139.53438 37.55L139.53438 31.2375Q139.53438 30.159374 139.33125 29.628124Q139.12813 29.096874 138.59688 28.784374Q138.08125 28.471874 137.37813 28.471874Q136.25313 28.471874 135.44063 29.190624Q134.62813 29.89375 134.62813 31.878124L134.62813 37.55L132.8625 37.55ZM146.70625 35.971874L146.95625 37.534374Q146.22188 37.690624 145.62813 37.690624Q144.675 37.690624 144.14375 37.39375Q143.62813 37.08125 143.40938 36.596874Q143.19063 36.096874 143.19063 34.51875L143.19063 28.55L141.90938 28.55L141.90938 27.175L143.19063 27.175L143.19063 24.6125L144.94063 23.55L144.94063 27.175L146.70625 27.175L146.70625 28.55L144.94063 28.55L144.94063 34.6125Q144.94063 35.3625 145.03438 35.58125Q145.12813 35.784374 145.33125 35.925Q145.55 36.05 145.94063 36.05Q146.22188 36.05 146.70625 35.971874ZM155.12813 37.55L155.12813 23.2375L161.47188 23.2375Q163.37813 23.2375 164.37813 23.628124Q165.37813 24.003124 165.97188 24.9875Q166.56563 25.95625 166.56563 27.14375Q166.56563 28.659374 165.58125 29.70625Q164.59688 30.753124 162.53438 31.034374Q163.28438 31.39375 163.675 31.753124Q164.50313 32.503124 165.25313 33.659374L167.7375 37.55L165.3625 37.55L163.45625 34.565624Q162.62813 33.284374 162.09688 32.596874Q161.56563 31.909374 161.12813 31.64375Q160.70625 31.3625 160.26875 31.253124Q159.94063 31.190624 159.22188 31.190624L157.01875 31.190624L157.01875 37.55L155.12813 37.55ZM157.01875 29.55L161.09688 29.55Q162.39375 29.55 163.1125 29.284374Q163.84688 29.01875 164.22188 28.425Q164.6125 27.83125 164.6125 27.14375Q164.6125 26.128124 163.87813 25.471874Q163.14375 24.815624 161.55 24.815624L157.01875 24.815624L157.01875 29.55ZM175.64375 36.26875Q174.65938 37.096874 173.75313 37.440624Q172.84688 37.784374 171.81563 37.784374Q170.1125 37.784374 169.19063 36.95625Q168.26875 36.1125 168.26875 34.815624Q168.26875 34.05 168.6125 33.425Q168.97188 32.8 169.53438 32.425Q170.09688 32.034374 170.8 31.83125Q171.31563 31.70625 172.3625 31.565624Q174.4875 31.315624 175.4875 30.971874Q175.50313 30.6125 175.50313 30.503124Q175.50313 29.440624 175.00313 28.9875Q174.33125 28.39375 173.00313 28.39375Q171.75313 28.39375 171.15938 28.83125Q170.58125 29.26875 170.3 30.378124L168.58125 30.14375Q168.81563 29.034374 169.34688 28.3625Q169.87813 27.675 170.89375 27.315624Q171.90938 26.940624 173.25313 26.940624Q174.58125 26.940624 175.40938 27.253124Q176.2375 27.565624 176.62813 28.05Q177.01875 28.51875 177.175 29.2375Q177.26875 29.690624 177.26875 30.8625L177.26875 33.20625Q177.26875 35.659374 177.37813 36.315624Q177.4875 36.95625 177.83125 37.55L175.9875 37.55Q175.72188 37.003124 175.64375 36.26875ZM175.4875 32.346874Q174.53438 32.7375 172.6125 33.003124Q171.53438 33.159374 171.08125 33.3625Q170.64375 33.55 170.39375 33.925Q170.14375 34.3 170.14375 34.76875Q170.14375 35.471874 170.675 35.940624Q171.20625 36.409374 172.2375 36.409374Q173.25313 36.409374 174.03438 35.971874Q174.83125 35.51875 175.20625 34.753124Q175.4875 34.14375 175.4875 32.9875L175.4875 32.346874ZM183.70625 35.971874L183.95625 37.534374Q183.22188 37.690624 182.62813 37.690624Q181.675 37.690624 181.14375 37.39375Q180.62813 37.08125 180.40938 36.596874Q180.19063 36.096874 180.19063 34.51875L180.19063 28.55L178.90938 28.55L178.90938 27.175L180.19063 27.175L180.19063 24.6125L181.94063 23.55L181.94063 27.175L183.70625 27.175L183.70625 28.55L181.94063 28.55L181.94063 34.6125Q181.94063 35.3625 182.03438 35.58125Q182.12813 35.784374 182.33125 35.925Q182.55 36.05 182.94063 36.05Q183.22188 36.05 183.70625 35.971874ZM192.97188 34.20625L194.78438 34.440624Q194.3625 36.01875 193.19063 36.909374Q192.03438 37.784374 190.22188 37.784374Q187.95625 37.784374 186.6125 36.39375Q185.28438 34.9875 185.28438 32.45625Q185.28438 29.83125 186.62813 28.39375Q187.97188 26.940624 190.12813 26.940624Q192.20625 26.940624 193.51875 28.3625Q194.84688 29.76875 194.84688 32.346874Q194.84688 32.503124 194.83125 32.815624L187.09688 32.815624Q187.19063 34.51875 188.06563 35.425Q188.94063 36.33125 190.2375 36.33125Q191.20625 36.33125 191.87813 35.83125Q192.56563 35.315624 192.97188 34.20625ZM187.19063 31.3625L192.9875 31.3625Q192.87813 30.065624 192.33125 29.409374Q191.4875 28.39375 190.14375 28.39375Q188.94063 28.39375 188.1125 29.20625Q187.28438 30.003124 187.19063 31.3625ZM205.75313 37.55L201.8 27.175L203.65938 27.175L205.89375 33.39375Q206.25313 34.39375 206.55 35.471874Q206.78438 34.659374 207.20625 33.503124L209.50313 27.175L211.31563 27.175L207.39375 37.55L205.75313 37.55ZM211.15938 34.45625L212.90938 34.175Q213.05 35.221874 213.72188 35.784374Q214.39375 36.33125 215.59688 36.33125Q216.8 36.33125 217.37813 35.846874Q217.97188 35.346874 217.97188 34.690624Q217.97188 34.096874 217.45625 33.753124Q217.09688 33.51875 215.65938 33.159374Q213.72188 32.659374 212.97188 32.315624Q212.2375 31.95625 211.84688 31.33125Q211.45625 30.690624 211.45625 29.925Q211.45625 29.2375 211.76875 28.64375Q212.09688 28.05 212.64375 27.659374Q213.05 27.3625 213.75313 27.159374Q214.47188 26.940624 215.28438 26.940624Q216.50313 26.940624 217.425 27.3Q218.34688 27.64375 218.78438 28.253124Q219.22188 28.846874 219.39375 29.846874L217.675 30.08125Q217.55 29.284374 216.9875 28.846874Q216.425 28.39375 215.40938 28.39375Q214.19063 28.39375 213.675 28.8Q213.15938 29.190624 213.15938 29.721874Q213.15938 30.065624 213.37813 30.346874Q213.58125 30.628124 214.05 30.815624Q214.31563 30.909374 215.59688 31.253124Q217.47188 31.753124 218.20625 32.08125Q218.94063 32.39375 219.3625 33.003124Q219.78438 33.596874 219.78438 34.503124Q219.78438 35.378124 219.26875 36.159374Q218.75313 36.940624 217.78438 37.3625Q216.81563 37.784374 215.59688 37.784374Q213.58125 37.784374 212.51875 36.940624Q211.45625 36.096874 211.15938 34.45625ZM222.3625 37.55L222.3625 35.55L224.3625 35.55L224.3625 37.55L222.3625 37.55ZM238.12813 37.55L238.12813 31.4875L232.6125 23.2375L234.90938 23.2375L237.7375 27.55Q238.51875 28.753124 239.19063 29.971874Q239.83125 28.846874 240.75313 27.440624L243.53438 23.2375L245.7375 23.2375L240.01875 31.4875L240.01875 37.55L238.12813 37.55ZM254.97188 34.20625L256.78436 34.440624Q256.3625 36.01875 255.19063 36.909374Q254.03438 37.784374 252.22188 37.784374Q249.95625 37.784374 248.6125 36.39375Q247.28438 34.9875 247.28438 32.45625Q247.28438 29.83125 248.62813 28.39375Q249.97188 26.940624 252.12813 26.940624Q254.20625 26.940624 255.51875 28.3625Q256.84686 29.76875 256.84686 32.346874Q256.84686 32.503124 256.83124 32.815624L249.09688 32.815624Q249.19063 34.51875 250.06563 35.425Q250.94063 36.33125 252.2375 36.33125Q253.20625 36.33125 253.87813 35.83125Q254.56563 35.315624 254.97188 34.20625ZM249.19063 31.3625L254.9875 31.3625Q254.87813 30.065624 254.33125 29.409374Q253.4875 28.39375 252.14375 28.39375Q250.94063 28.39375 250.1125 29.20625Q249.28438 30.003124 249.19063 31.3625ZM265.64374 36.26875Q264.65936 37.096874 263.7531 37.440624Q262.84686 37.784374 261.8156 37.784374Q260.1125 37.784374 259.1906 36.95625Q258.26874 36.1125 258.26874 34.815624Q258.26874 34.05 258.6125 33.425Q258.97186 32.8 259.53436 32.425Q260.09686 32.034374 260.8 31.83125Q261.3156 31.70625 262.3625 31.565624Q264.4875 31.315624 265.4875 30.971874Q265.5031 30.6125 265.5031 30.503124Q265.5031 29.440624 265.0031 28.9875Q264.33124 28.39375 263.0031 28.39375Q261.7531 28.39375 261.15936 28.83125Q260.58124 29.26875 260.3 30.378124L258.58124 30.14375Q258.8156 29.034374 259.34686 28.3625Q259.8781 27.675 260.89374 27.315624Q261.90936 26.940624 263.2531 26.940624Q264.58124 26.940624 265.40936 27.253124Q266.2375 27.565624 266.6281 28.05Q267.01874 28.51875 267.175 29.2375Q267.26874 29.690624 267.26874 30.8625L267.26874 33.20625Q267.26874 35.659374 267.3781 36.315624Q267.4875 36.95625 267.83124 37.55L265.9875 37.55Q265.72186 37.003124 265.64374 36.26875ZM265.4875 32.346874Q264.53436 32.7375 262.6125 33.003124Q261.53436 33.159374 261.08124 33.3625Q260.64374 33.55 260.39374 33.925Q260.14374 34.3 260.14374 34.76875Q260.14374 35.471874 260.675 35.940624Q261.20624 36.409374 262.2375 36.409374Q263.2531 36.409374 264.03436 35.971874Q264.83124 35.51875 265.20624 34.753124Q265.4875 34.14375 265.4875 32.9875L265.4875 32.346874ZM269.84686 37.55L269.84686 27.175L271.425 27.175L271.425 28.753124Q272.03436 27.64375 272.55 27.3Q273.0656 26.940624 273.675 26.940624Q274.5656 26.940624 275.4875 27.503124L274.8781 29.14375Q274.2375 28.753124 273.59686 28.753124Q273.01874 28.753124 272.55 29.1125Q272.09686 29.45625 271.89374 30.065624Q271.6125 31.003124 271.6125 32.1125L271.6125 37.55L269.84686 37.55Z" fill-rule="nonzero"/></svg>