<svg xmlns="http://www.w3.org/2000/svg" xmlns:xlink="http://www.w3.org/1999/xlink" width="2000" zoomAndPan="magnify" viewBox="0 0 1500 1499.999933" height="2000" preserveAspectRatio="xMidYMid meet" version="1.0"><path fill="#000000" d="M 1242.929688 347.875 C 1151.84375 304.4375 1025.730469 255.855469 870.1875 238.574219 C 714.648438 221.289062 529.675781 235.308594 380.679688 295.558594 C 231.675781 355.8125 118.640625 462.304688 60.71875 560.859375 C 2.796875 659.417969 -0.0078125 750.03125 30.359375 841.582031 C 60.71875 933.128906 124.242188 1025.617188 244.753906 1084.472656 C 365.261719 1143.328125 542.765625 1168.550781 710.449219 1166.679688 C 837.027344 1165.269531 958.007812 1148.417969 1061.152344 1119.347656 C 1177.574219 1191.882812 1407.378906 1332.824219 1404.972656 1313.539062 C 1402.507812 1293.84375 1315.507812 1110.699219 1274.429688 1025.054688 C 1331.773438 986.828125 1375.195312 943.140625 1406.414062 897.625 C 1456.390625 824.761719 1475.074219 747.222656 1476.476562 674.820312 C 1477.878906 602.425781 1461.996094 535.160156 1426.03125 482.382812 C 1390.066406 429.605469 1334.011719 391.296875 1242.929688 347.859375 Z M 1242.929688 347.875 " fill-opacity="1" fill-rule="evenodd"/><path fill="#ffffff" d="M 1257.082031 294.636719 C 1165.996094 251.199219 1039.882812 202.621094 884.34375 185.339844 C 728.804688 168.054688 543.828125 182.070312 394.835938 242.320312 C 245.832031 302.578125 132.796875 409.070312 74.875 507.625 C 16.953125 606.183594 14.148438 696.796875 44.515625 788.347656 C 74.875 879.894531 138.398438 972.382812 258.910156 1031.238281 C 379.417969 1090.089844 556.917969 1115.3125 724.605469 1113.441406 C 851.179688 1112.035156 972.164062 1095.183594 1075.308594 1066.113281 C 1191.730469 1138.644531 1421.535156 1279.589844 1419.128906 1260.304688 C 1416.664062 1240.605469 1329.664062 1057.464844 1288.585938 971.820312 C 1345.925781 933.59375 1389.351562 889.90625 1420.570312 844.390625 C 1470.546875 771.527344 1489.230469 693.988281 1490.632812 621.585938 C 1492.035156 549.191406 1476.152344 481.925781 1440.191406 429.148438 C 1404.226562 376.367188 1348.175781 338.0625 1257.089844 294.625 Z M 1257.082031 294.636719 " fill-opacity="1" fill-rule="evenodd"/><path fill="#82b1ff" d="M 1353.148438 921.460938 C 1379.996094 896.878906 1402.355469 870.957031 1420.5625 844.410156 C 1449.414062 802.347656 1467.835938 758.726562 1478.527344 715.441406 C 1473.15625 724.835938 1467.304688 734.171875 1460.960938 743.433594 C 1429.742188 788.949219 1386.316406 832.636719 1328.976562 870.863281 C 1335.929688 885.363281 1344.195312 902.652344 1353.148438 921.46875 Z M 1353.148438 921.460938 " fill-opacity="1" fill-rule="evenodd"/><path fill="#82b1ff" d="M 1353.628906 1109.113281 C 1278.445312 1065.855469 1179.855469 1005.109375 1115.699219 965.136719 C 1012.554688 994.207031 891.570312 1011.050781 764.996094 1012.46875 C 597.308594 1014.335938 419.8125 989.109375 299.300781 930.261719 C 178.792969 871.40625 115.261719 778.925781 84.902344 687.371094 C 65.511719 628.898438 59.648438 570.808594 73.035156 510.785156 C 16.898438 608.125 14.480469 697.78125 44.515625 788.351562 C 74.875 879.90625 138.398438 972.386719 258.910156 1031.242188 C 379.417969 1090.097656 556.921875 1115.320312 724.605469 1113.449219 C 851.179688 1112.042969 972.164062 1095.1875 1075.308594 1066.117188 C 1191.730469 1138.652344 1421.535156 1279.59375 1419.128906 1260.308594 C 1417.679688 1248.734375 1387.011719 1180.65625 1353.628906 1109.105469 Z M 1353.628906 1109.113281 " fill-opacity="1" fill-rule="evenodd"/><path fill="#000000" d="M 1253.359375 302.460938 C 1208.117188 280.886719 1154.1875 258.039062 1092.28125 238.441406 C 1030.378906 218.851562 960.5 202.507812 883.390625 193.941406 C 802.535156 184.953125 713.644531 184.5 626.054688 194.691406 C 546.574219 203.941406 468.226562 221.964844 398.039062 250.347656 C 328.585938 278.433594 267.015625 316.726562 215.335938 359.582031 C 157.644531 407.421875 112.382812 460.835938 82.3125 511.996094 C 54.027344 560.125 39.207031 606.214844 35.179688 651.363281 C 31.144531 696.546875 37.875 740.957031 52.699219 785.640625 C 68.671875 833.820312 94.019531 882.25 132.355469 925.671875 C 165.339844 963.039062 208.007812 996.746094 262.699219 1023.457031 C 319.550781 1051.214844 389.394531 1071.425781 464.980469 1084.769531 C 547.929688 1099.414062 637.59375 1105.789062 724.53125 1104.816406 C 786.859375 1104.121094 847.875 1099.652344 906.089844 1091.789062 C 965.15625 1083.816406 1021.304688 1072.347656 1072.96875 1057.789062 C 1075.402344 1057.105469 1077.878906 1057.535156 1079.871094 1058.773438 C 1137.90625 1094.925781 1224.269531 1148.179688 1296.136719 1190.160156 C 1359.421875 1227.132812 1410.96875 1264.945312 1410.519531 1261.359375 C 1409.660156 1254.492188 1395.617188 1221.71875 1376.457031 1179.378906 C 1346.613281 1113.421875 1305.371094 1026.808594 1280.796875 975.546875 C 1278.921875 971.621094 1280.277344 966.988281 1283.800781 964.644531 L 1283.78125 964.621094 C 1311.304688 946.273438 1335.507812 926.714844 1356.597656 906.351562 C 1378.84375 884.871094 1397.714844 862.433594 1413.429688 839.523438 C 1436.457031 805.953125 1452.6875 771.382812 1463.558594 736.808594 C 1475.800781 697.863281 1481.277344 658.941406 1482.003906 621.460938 C 1482.703125 585.289062 1479.007812 550.453125 1470.546875 518.191406 C 1462.492188 487.46875 1450.097656 459.058594 1433.050781 434.035156 C 1415.636719 408.472656 1393.3125 386.382812 1364.265625 365.398438 C 1334.90625 344.183594 1298.535156 323.992188 1253.367188 302.453125 Z M 1097.488281 221.925781 C 1160.292969 241.800781 1214.96875 264.960938 1260.804688 286.824219 C 1306.714844 308.71875 1343.917969 329.40625 1374.34375 351.398438 C 1405.085938 373.613281 1428.773438 397.074219 1447.328125 424.292969 C 1465.5 450.964844 1478.699219 481.199219 1487.257812 513.867188 C 1496.113281 547.652344 1499.988281 584.035156 1499.257812 621.746094 C 1498.503906 660.882812 1492.8125 701.457031 1480.074219 741.972656 C 1468.707031 778.117188 1451.75 814.242188 1427.710938 849.289062 C 1411.359375 873.125 1391.722656 896.46875 1368.578125 918.824219 C 1348.273438 938.425781 1325.332031 957.214844 1299.601562 974.855469 C 1324.785156 1027.421875 1364.195312 1110.308594 1392.238281 1172.285156 C 1412.042969 1216.039062 1426.625 1250.496094 1427.722656 1259.269531 C 1430.578125 1282.132812 1367.527344 1251.945312 1287.410156 1205.136719 C 1217.175781 1164.105469 1132.285156 1111.804688 1073.960938 1075.488281 C 1022.621094 1089.753906 966.941406 1101.035156 908.390625 1108.933594 C 849.585938 1116.867188 787.84375 1121.390625 724.664062 1122.089844 C 636.546875 1123.074219 545.800781 1116.636719 462 1101.839844 C 384.882812 1088.226562 313.46875 1067.535156 255.113281 1039.03125 C 198.308594 1011.289062 153.867188 976.152344 119.421875 937.125 C 79.417969 891.800781 52.96875 841.289062 36.316406 791.0625 C 20.78125 744.207031 13.730469 697.523438 17.984375 649.875 C 22.242188 602.195312 37.785156 553.695312 67.421875 503.261719 C 98.488281 450.398438 145.074219 395.351562 204.300781 346.242188 C 257.222656 302.359375 320.335938 263.113281 391.609375 234.296875 C 463.316406 205.296875 543.179688 186.90625 624.09375 177.484375 C 712.957031 167.136719 803.183594 167.605469 885.28125 176.730469 C 963.714844 185.445312 1034.675781 202.03125 1097.484375 221.914062 Z M 1097.488281 221.925781 " fill-opacity="1" fill-rule="nonzero"/><path fill="#000000" d="M 201.9375 865.984375 C 201.9375 865.984375 380.964844 989.320312 593.753906 1004.785156 C 593.753906 1004.785156 309.011719 998.496094 201.9375 865.984375 Z M 201.9375 865.984375 " fill-opacity="1" fill-rule="evenodd"/><path fill="#000000" d="M 116.507812 759.777344 C 116.507812 759.777344 135.289062 817.871094 173.859375 838.765625 Z M 116.507812 759.777344 " fill-opacity="1" fill-rule="evenodd"/><path fill="#000000" d="M 719.058594 1012.300781 C 719.058594 1012.300781 1006.925781 992.769531 1061.3125 978.953125 C 1061.3125 978.953125 913.125 1028.597656 719.058594 1012.300781 Z M 719.058594 1012.300781 " fill-opacity="1" fill-rule="evenodd"/><path fill="#000000" d="M 1242.929688 331 C 1151.84375 287.5625 1025.730469 238.980469 870.1875 221.699219 C 714.648438 204.414062 529.675781 218.433594 380.679688 278.683594 C 231.675781 338.9375 118.640625 445.429688 60.71875 543.984375 C 2.796875 642.542969 -0.0078125 733.15625 30.359375 824.707031 C 60.71875 916.253906 124.242188 1008.742188 244.753906 1067.597656 C 365.261719 1126.453125 542.765625 1151.675781 710.449219 1149.804688 C 837.027344 1148.394531 958.007812 1131.542969 1061.152344 1102.472656 C 1177.574219 1175.007812 1407.378906 1315.949219 1404.972656 1296.664062 C 1402.507812 1276.96875 1315.507812 1093.824219 1274.429688 1008.179688 C 1331.773438 969.953125 1375.195312 926.265625 1406.414062 880.75 C 1456.390625 807.886719 1475.074219 730.347656 1476.476562 657.945312 C 1477.878906 585.550781 1461.996094 518.285156 1426.03125 465.507812 C 1390.066406 412.730469 1334.011719 374.421875 1242.929688 330.984375 Z M 1242.929688 331 " fill-opacity="1" fill-rule="evenodd"/><path fill="#ffffff" d="M 1257.082031 277.761719 C 1165.996094 234.324219 1039.882812 185.746094 884.34375 168.464844 C 728.804688 151.179688 543.828125 165.195312 394.835938 225.445312 C 245.832031 285.703125 132.796875 392.195312 74.875 490.75 C 16.953125 589.308594 14.148438 679.921875 44.515625 771.472656 C 74.875 863.019531 138.398438 955.507812 258.910156 1014.363281 C 379.417969 1073.214844 556.917969 1098.4375 724.605469 1096.566406 C 851.179688 1095.160156 972.164062 1078.308594 1075.308594 1049.238281 C 1191.730469 1121.769531 1421.535156 1262.714844 1419.128906 1243.429688 C 1416.664062 1223.730469 1329.664062 1040.589844 1288.585938 954.945312 C 1345.925781 916.71875 1389.351562 873.03125 1420.570312 827.515625 C 1470.546875 754.652344 1489.230469 677.113281 1490.632812 604.710938 C 1492.035156 532.316406 1476.152344 465.050781 1440.191406 412.273438 C 1404.226562 359.492188 1348.175781 321.1875 1257.089844 277.75 Z M 1257.082031 277.761719 " fill-opacity="1" fill-rule="evenodd"/><path fill="#82b1ff" d="M 1353.148438 904.585938 C 1379.996094 880.003906 1402.355469 854.082031 1420.5625 827.535156 C 1449.414062 785.472656 1467.835938 741.851562 1478.527344 698.566406 C 1473.15625 707.960938 1467.304688 717.296875 1460.960938 726.558594 C 1429.742188 772.074219 1386.316406 815.761719 1328.976562 853.988281 C 1335.929688 868.488281 1344.195312 885.777344 1353.148438 904.59375 Z M 1353.148438 904.585938 " fill-opacity="1" fill-rule="evenodd"/><path fill="#82b1ff" d="M 1353.628906 1092.238281 C 1278.445312 1048.980469 1179.855469 988.234375 1115.699219 948.261719 C 1012.554688 977.332031 891.570312 994.175781 764.996094 995.59375 C 597.308594 997.460938 419.8125 972.234375 299.300781 913.386719 C 178.792969 854.53125 115.261719 762.050781 84.902344 670.496094 C 65.511719 612.023438 59.648438 553.933594 73.035156 493.910156 C 16.898438 591.25 14.480469 680.90625 44.515625 771.476562 C 74.875 863.03125 138.398438 955.511719 258.910156 1014.367188 C 379.417969 1073.222656 556.921875 1098.445312 724.605469 1096.574219 C 851.179688 1095.167969 972.164062 1078.3125 1075.308594 1049.242188 C 1191.730469 1121.777344 1421.535156 1262.71875 1419.128906 1243.433594 C 1417.679688 1231.859375 1387.011719 1163.78125 1353.628906 1092.230469 Z M 1353.628906 1092.238281 " fill-opacity="1" fill-rule="evenodd"/><path fill="#000000" d="M 1253.359375 285.585938 C 1208.117188 264.011719 1154.1875 241.164062 1092.28125 221.566406 C 1030.378906 201.976562 960.5 185.632812 883.390625 177.066406 C 802.535156 168.078125 713.644531 167.625 626.054688 177.816406 C 546.574219 187.066406 468.226562 205.089844 398.039062 233.472656 C 328.585938 261.558594 267.015625 299.851562 215.335938 342.707031 C 157.644531 390.546875 112.382812 443.960938 82.3125 495.121094 C 54.027344 543.25 39.207031 589.339844 35.179688 634.488281 C 31.144531 679.671875 37.875 724.082031 52.699219 768.765625 C 68.671875 816.945312 94.019531 865.375 132.355469 908.796875 C 165.339844 946.164062 208.007812 979.871094 262.699219 1006.582031 C 319.550781 1034.339844 389.394531 1054.550781 464.980469 1067.894531 C 547.929688 1082.539062 637.59375 1088.914062 724.53125 1087.941406 C 786.859375 1087.246094 847.875 1082.777344 906.089844 1074.914062 C 965.15625 1066.941406 1021.304688 1055.472656 1072.96875 1040.914062 C 1075.402344 1040.230469 1077.878906 1040.660156 1079.871094 1041.898438 C 1137.90625 1078.050781 1224.269531 1131.304688 1296.136719 1173.285156 C 1359.421875 1210.257812 1410.96875 1248.070312 1410.519531 1244.484375 C 1409.660156 1237.617188 1395.617188 1204.84375 1376.457031 1162.503906 C 1346.613281 1096.546875 1305.371094 1009.933594 1280.796875 958.671875 C 1278.921875 954.746094 1280.277344 950.113281 1283.800781 947.769531 L 1283.78125 947.746094 C 1311.304688 929.398438 1335.507812 909.839844 1356.597656 889.476562 C 1378.84375 867.996094 1397.714844 845.558594 1413.429688 822.648438 C 1436.457031 789.078125 1452.6875 754.507812 1463.558594 719.933594 C 1475.800781 680.988281 1481.277344 642.066406 1482.003906 604.585938 C 1482.703125 568.414062 1479.007812 533.578125 1470.546875 501.316406 C 1462.492188 470.59375 1450.097656 442.183594 1433.050781 417.160156 C 1415.636719 391.597656 1393.3125 369.507812 1364.265625 348.523438 C 1334.90625 327.308594 1298.535156 307.117188 1253.367188 285.578125 Z M 1097.488281 205.050781 C 1160.292969 224.925781 1214.96875 248.085938 1260.804688 269.949219 C 1306.714844 291.84375 1343.917969 312.53125 1374.34375 334.523438 C 1405.085938 356.738281 1428.773438 380.199219 1447.328125 407.417969 C 1465.5 434.089844 1478.699219 464.324219 1487.257812 496.992188 C 1496.113281 530.777344 1499.988281 567.160156 1499.257812 604.871094 C 1498.503906 644.007812 1492.8125 684.582031 1480.074219 725.097656 C 1468.707031 761.242188 1451.75 797.367188 1427.710938 832.414062 C 1411.359375 856.25 1391.722656 879.59375 1368.578125 901.949219 C 1348.273438 921.550781 1325.332031 940.339844 1299.601562 957.980469 C 1324.785156 1010.546875 1364.195312 1093.433594 1392.238281 1155.410156 C 1412.042969 1199.164062 1426.625 1233.621094 1427.722656 1242.394531 C 1430.578125 1265.257812 1367.527344 1235.070312 1287.410156 1188.261719 C 1217.175781 1147.230469 1132.285156 1094.929688 1073.960938 1058.613281 C 1022.621094 1072.878906 966.941406 1084.160156 908.390625 1092.058594 C 849.585938 1099.992188 787.84375 1104.515625 724.664062 1105.214844 C 636.546875 1106.199219 545.800781 1099.761719 462 1084.964844 C 384.882812 1071.351562 313.46875 1050.660156 255.113281 1022.15625 C 198.308594 994.414062 153.867188 959.277344 119.421875 920.25 C 79.417969 874.925781 52.96875 824.414062 36.316406 774.1875 C 20.78125 727.332031 13.730469 680.648438 17.984375 633 C 22.242188 585.320312 37.785156 536.820312 67.421875 486.386719 C 98.488281 433.523438 145.074219 378.476562 204.300781 329.367188 C 257.222656 285.484375 320.335938 246.238281 391.609375 217.421875 C 463.316406 188.421875 543.179688 170.03125 624.09375 160.609375 C 712.957031 150.261719 803.183594 150.730469 885.28125 159.855469 C 963.714844 168.570312 1034.675781 185.15625 1097.484375 205.039062 Z M 1097.488281 205.050781 " fill-opacity="1" fill-rule="nonzero"/><path fill="#000000" d="M 201.9375 849.109375 C 201.9375 849.109375 380.964844 972.445312 593.753906 987.910156 C 593.753906 987.910156 309.011719 981.621094 201.9375 849.109375 Z M 201.9375 849.109375 " fill-opacity="1" fill-rule="evenodd"/><path fill="#000000" d="M 116.507812 742.902344 C 116.507812 742.902344 135.289062 800.996094 173.859375 821.890625 Z M 116.507812 742.902344 " fill-opacity="1" fill-rule="evenodd"/><path fill="#000000" d="M 719.058594 995.425781 C 719.058594 995.425781 1006.925781 975.894531 1061.3125 962.078125 C 1061.3125 962.078125 913.125 1011.722656 719.058594 995.425781 Z M 719.058594 995.425781 " fill-opacity="1" fill-rule="evenodd"/></svg>