<svg xmlns="http://www.w3.org/2000/svg" xmlns:xlink="http://www.w3.org/1999/xlink" width="2000" zoomAndPan="magnify" viewBox="0 0 1500 1499.999933" height="2000" preserveAspectRatio="xMidYMid meet" version="1.0"><defs><clipPath id="98992b8ca6"><path d="M 403.125 828 L 1107.375 828 L 1107.375 1500 L 403.125 1500 Z M 403.125 828 " clip-rule="nonzero"/></clipPath><clipPath id="12b53daf85"><path d="M 403.125 828 L 1107.375 828 L 1107.375 1500 L 403.125 1500 Z M 403.125 828 " clip-rule="nonzero"/></clipPath></defs><path fill="#e5c368" d="M 1065.414062 1064.941406 C 1065.535156 1062.097656 1065.191406 1059.503906 1064.386719 1057.164062 C 1060.304688 1047.414062 1050.023438 1039.703125 1033.539062 1034.027344 C 1016.964844 1028.304688 990.140625 1023.316406 953.058594 1019.058594 C 925.476562 1016.21875 897.851562 1014.921875 870.179688 1015.167969 C 860.300781 989.390625 846.859375 959.992188 829.863281 926.972656 C 813.457031 896.539062 797.9375 872.023438 783.308594 853.421875 C 771.832031 840.074219 761.632812 833.476562 752.707031 833.636719 C 742.179688 834.507812 731.667969 841.90625 721.179688 855.835938 C 710.617188 869.835938 697.585938 893.816406 682.078125 927.777344 C 670.855469 953.140625 661.085938 979.023438 652.769531 1005.425781 C 625.210938 1006.859375 593.109375 1010.5625 556.464844 1016.527344 C 522.460938 1022.734375 494.355469 1029.921875 472.148438 1038.089844 C 455.914062 1044.882812 446.492188 1052.550781 443.882812 1061.089844 C 443.5 1062.722656 443.269531 1064.402344 443.199219 1066.132812 C 442.8125 1075.320312 446.828125 1085.925781 455.246094 1097.945312 C 465.292969 1112.320312 484.0625 1132.132812 511.558594 1157.378906 C 532.203125 1175.894531 553.792969 1193.1875 576.324219 1209.257812 L 576.324219 1209.261719 C 569.171875 1235.921875 562.769531 1267.605469 557.121094 1304.3125 C 554.238281 1325.757812 552.433594 1345.121094 551.707031 1362.410156 C 551.273438 1372.746094 551.226562 1382.339844 551.5625 1391.191406 C 553.007812 1408.738281 557.382812 1420.074219 564.699219 1425.191406 C 573.726562 1430.679688 586.578125 1430.871094 603.246094 1425.769531 C 620.019531 1420.65625 644.652344 1408.921875 677.152344 1390.5625 C 701.132812 1376.640625 724.242188 1361.445312 746.484375 1344.980469 L 746.484375 1344.972656 C 769.625 1360.019531 797.769531 1375.898438 830.925781 1392.621094 C 862.082031 1407.59375 889.042969 1418.304688 911.804688 1424.753906 C 928.933594 1428.804688 941.0625 1428.140625 948.1875 1422.765625 C 955.773438 1416.234375 959.902344 1404.976562 960.570312 1388.988281 C 960.609375 1388.097656 960.636719 1387.1875 960.652344 1386.269531 C 960.972656 1368.730469 957.425781 1341.667969 950.015625 1305.074219 C 944.191406 1277.957031 936.886719 1251.273438 928.101562 1225.023438 C 949.554688 1207.65625 973.351562 1185.785156 999.492188 1159.414062 C 1023.355469 1134.398438 1041.867188 1112.058594 1055.035156 1092.390625 C 1061.644531 1081.515625 1065.105469 1072.367188 1065.414062 1064.941406 Z M 1065.414062 1064.941406 " fill-opacity="1" fill-rule="nonzero"/><path fill="#e5c368" d="M 818.671875 784.566406 C 818.800781 822.3125 789.878906 854.914062 751.789062 855.042969 C 713.699219 855.171875 684.558594 822.765625 684.429688 785.019531 C 684.300781 747.273438 713.222656 714.671875 751.3125 714.542969 C 789.402344 714.414062 818.546875 746.820312 818.671875 784.566406 M 782.75 784.6875 C 782.683594 764.683594 767.644531 750.421875 751.433594 750.476562 C 735.222656 750.53125 720.285156 764.894531 720.351562 784.898438 C 720.417969 804.902344 735.457031 819.164062 751.667969 819.109375 C 767.878906 819.054688 782.820312 804.691406 782.75 784.6875 Z M 782.75 784.6875 " fill-opacity="1" fill-rule="nonzero"/><path fill="#fefefe" d="M 703.347656 811.621094 L 701.648438 808.613281 C 701.613281 808.546875 701.578125 808.480469 701.542969 808.410156 L 700.054688 805.296875 C 700.023438 805.226562 699.992188 805.160156 699.960938 805.085938 L 698.6875 801.878906 C 698.660156 801.808594 698.632812 801.734375 698.609375 801.664062 L 697.554688 798.375 C 697.53125 798.304688 697.511719 798.230469 697.492188 798.15625 L 696.664062 794.804688 C 696.644531 794.730469 696.628906 794.65625 696.617188 794.578125 L 696.015625 791.179688 C 696 791.105469 695.992188 791.027344 695.984375 790.953125 L 695.613281 787.519531 C 695.605469 787.445312 695.601562 787.367188 695.597656 787.292969 L 695.460938 783.839844 C 695.457031 783.765625 695.457031 783.6875 695.460938 783.613281 L 695.558594 780.160156 C 695.5625 780.085938 695.566406 780.007812 695.574219 779.933594 L 695.90625 776.496094 C 695.914062 776.421875 695.925781 776.34375 695.9375 776.269531 L 696.5 772.863281 C 696.515625 772.789062 696.527344 772.710938 696.546875 772.636719 L 697.339844 769.277344 C 697.359375 769.207031 697.378906 769.132812 697.398438 769.0625 L 698.378906 765.882812 C 698.402344 765.8125 698.425781 765.742188 698.449219 765.671875 L 699.636719 762.5625 C 699.664062 762.496094 699.691406 762.425781 699.722656 762.359375 L 701.105469 759.335938 C 701.136719 759.269531 701.171875 759.203125 701.207031 759.136719 L 702.785156 756.210938 C 702.820312 756.144531 702.859375 756.082031 702.898438 756.019531 L 704.664062 753.199219 C 704.703125 753.136719 704.746094 753.078125 704.789062 753.019531 L 706.738281 750.320312 C 706.78125 750.261719 706.824219 750.203125 706.871094 750.148438 L 708.992188 747.582031 C 709.039062 747.527344 709.085938 747.472656 709.136719 747.417969 L 711.421875 745 C 711.472656 744.945312 711.523438 744.894531 711.578125 744.84375 L 714.015625 742.578125 C 714.066406 742.527344 714.125 742.480469 714.179688 742.433594 L 716.761719 740.332031 C 716.816406 740.285156 716.875 740.242188 716.933594 740.199219 L 719.644531 738.269531 C 719.707031 738.226562 719.769531 738.1875 719.832031 738.148438 L 722.660156 736.402344 C 722.722656 736.363281 722.789062 736.328125 722.851562 736.292969 L 725.792969 734.734375 C 727.4375 733.863281 729.480469 734.488281 730.355469 736.136719 C 731.226562 737.785156 730.601562 739.828125 728.953125 740.703125 L 726.011719 742.257812 L 726.203125 742.148438 L 723.375 743.894531 L 723.558594 743.773438 L 720.847656 745.703125 L 721.023438 745.570312 L 718.445312 747.667969 L 718.609375 747.523438 L 716.171875 749.789062 L 716.332031 749.632812 L 714.046875 752.054688 L 714.191406 751.886719 L 712.074219 754.453125 L 712.207031 754.277344 L 710.257812 756.972656 L 710.382812 756.789062 L 708.613281 759.609375 L 708.726562 759.417969 L 707.144531 762.347656 L 707.242188 762.148438 L 705.859375 765.171875 L 705.945312 764.96875 L 704.757812 768.078125 L 704.832031 767.871094 L 703.851562 771.050781 L 703.910156 770.832031 L 703.117188 774.191406 L 703.160156 773.96875 L 702.597656 777.375 L 702.625 777.148438 L 702.292969 780.582031 L 702.308594 780.355469 L 702.207031 783.804688 L 702.207031 783.578125 L 702.34375 787.027344 L 702.324219 786.796875 L 702.695312 790.230469 L 702.664062 790.003906 L 703.261719 793.40625 L 703.214844 793.179688 L 704.046875 796.53125 L 703.984375 796.3125 L 705.039062 799.597656 L 704.960938 799.382812 L 706.234375 802.59375 L 706.144531 802.382812 L 707.632812 805.496094 L 707.527344 805.292969 L 709.226562 808.300781 C 710.140625 809.921875 709.570312 811.984375 707.945312 812.902344 C 706.324219 813.816406 704.265625 813.246094 703.347656 811.621094 Z M 703.347656 811.621094 " fill-opacity="1" fill-rule="nonzero"/><path fill="#fefefe" d="M 778.042969 829.988281 L 780.308594 828.582031 L 780.246094 828.621094 L 782.425781 827.082031 L 782.363281 827.128906 L 784.445312 825.460938 L 784.386719 825.507812 L 786.363281 823.71875 L 786.308594 823.769531 L 788.175781 821.863281 L 788.125 821.917969 L 789.871094 819.902344 L 789.824219 819.964844 L 791.445312 817.847656 L 791.402344 817.90625 L 792.894531 815.695312 L 792.855469 815.761719 L 794.214844 813.464844 L 794.175781 813.53125 L 795.394531 811.15625 L 795.363281 811.226562 L 796.433594 808.78125 L 796.40625 808.851562 L 797.339844 806.3125 L 797.316406 806.386719 L 798.097656 803.792969 L 798.078125 803.867188 L 798.695312 801.234375 L 798.679688 801.308594 L 799.136719 798.640625 L 799.128906 798.714844 L 799.421875 796.023438 L 799.414062 796.101562 L 799.546875 793.398438 L 799.542969 793.472656 L 799.507812 790.765625 L 799.511719 790.84375 L 799.3125 788.144531 L 799.320312 788.222656 L 798.953125 785.539062 L 798.964844 785.613281 L 798.4375 782.957031 L 798.457031 783.035156 L 797.765625 780.414062 C 797.589844 779.742188 797.992188 779.050781 798.664062 778.875 C 799.339844 778.695312 800.027344 779.097656 800.207031 779.773438 L 800.894531 782.390625 L 800.914062 782.464844 L 801.441406 785.121094 L 801.453125 785.199219 L 801.816406 787.878906 L 801.828125 787.957031 L 802.027344 790.65625 L 802.03125 790.734375 L 802.066406 793.441406 L 802.066406 793.519531 L 801.933594 796.222656 L 801.929688 796.300781 L 801.636719 798.992188 L 801.625 799.066406 L 801.167969 801.734375 L 801.152344 801.808594 L 800.53125 804.445312 L 800.511719 804.519531 L 799.734375 807.113281 L 799.707031 807.1875 L 798.773438 809.726562 L 798.742188 809.796875 L 797.671875 812.238281 L 797.636719 812.308594 L 796.421875 814.683594 L 796.382812 814.75 L 795.027344 817.046875 L 794.984375 817.109375 L 793.492188 819.320312 L 793.449219 819.382812 L 791.824219 821.5 L 791.777344 821.558594 L 790.027344 823.574219 L 789.976562 823.628906 L 788.113281 825.535156 L 788.058594 825.589844 L 786.078125 827.378906 L 786.023438 827.429688 L 783.941406 829.097656 L 783.878906 829.144531 L 781.703125 830.683594 L 781.640625 830.726562 L 779.371094 832.132812 C 778.78125 832.5 778.003906 832.316406 777.636719 831.726562 C 777.269531 831.132812 777.449219 830.355469 778.042969 829.988281 Z M 778.042969 829.988281 " fill-opacity="1" fill-rule="nonzero"/><path fill="#fefefe" d="M 889.207031 1027.601562 L 889.195312 1027.597656 L 889.203125 1027.601562 L 889.214844 1027.601562 C 913.214844 1028.425781 937.316406 1029.253906 961.03125 1031.488281 C 984.757812 1033.722656 1008.085938 1037.359375 1031.324219 1040.984375 C 1032.722656 1041.203125 1033.679688 1042.515625 1033.460938 1043.914062 C 1033.242188 1045.3125 1031.933594 1046.269531 1030.535156 1046.050781 C 1007.269531 1042.421875 984.101562 1038.8125 960.550781 1036.59375 C 937.011719 1034.375 913.066406 1033.550781 889.039062 1032.726562 L 889.050781 1032.726562 L 889.042969 1032.726562 C 887.617188 1032.675781 886.507812 1031.488281 886.558594 1030.074219 C 886.605469 1028.660156 887.792969 1027.550781 889.207031 1027.601562 Z M 889.207031 1027.601562 " fill-opacity="1" fill-rule="nonzero"/><path fill="#fefefe" d="M 788.25 870.570312 C 801.996094 892.835938 815.820312 915.230469 827.082031 938.28125 C 838.347656 961.332031 847.023438 985.007812 855.652344 1008.535156 C 856.136719 1009.867188 855.457031 1011.339844 854.128906 1011.828125 C 852.796875 1012.3125 851.324219 1011.632812 850.839844 1010.300781 C 842.199219 986.734375 833.605469 963.308594 822.476562 940.53125 C 811.347656 917.75 797.65625 895.570312 783.886719 873.265625 C 783.144531 872.0625 783.515625 870.480469 784.722656 869.738281 C 785.925781 868.992188 787.503906 869.367188 788.25 870.570312 Z M 788.25 870.570312 " fill-opacity="1" fill-rule="nonzero"/><path fill="#fefefe" d="M 984.429688 1157.277344 C 975.917969 1168.671875 967.253906 1180.28125 955.15625 1191.164062 C 943.101562 1202.011719 927.6875 1212.09375 912.492188 1222.035156 L 913.523438 1219.085938 C 918.378906 1233.753906 923.257812 1248.492188 927.621094 1263.910156 C 931.984375 1279.324219 935.832031 1295.414062 939.664062 1311.433594 C 939.996094 1312.808594 939.144531 1314.191406 937.769531 1314.523438 C 936.394531 1314.851562 935.011719 1314.003906 934.679688 1312.625 C 930.84375 1296.585938 927.019531 1280.601562 922.6875 1265.304688 C 918.359375 1250.011719 913.519531 1235.382812 908.65625 1220.695312 C 908.292969 1219.59375 908.714844 1218.382812 909.6875 1217.746094 C 924.96875 1207.746094 940.023438 1197.886719 951.730469 1187.351562 C 963.398438 1176.851562 971.785156 1165.636719 980.324219 1154.207031 C 981.171875 1153.074219 982.78125 1152.839844 983.914062 1153.691406 C 985.046875 1154.539062 985.277344 1156.144531 984.429688 1157.277344 Z M 984.429688 1157.277344 " fill-opacity="1" fill-rule="nonzero"/><g clip-path="url(#98992b8ca6)"><path fill="#e5c368" d="M 1107.003906 1164.152344 C 1107.003906 1350.410156 948.839844 1500.214844 755.234375 1500.214844 C 561.625 1500.214844 403.460938 1350.410156 403.460938 1164.152344 C 403.460938 977.894531 561.625 828.089844 755.234375 828.089844 C 948.839844 828.089844 1107.003906 977.894531 1107.003906 1164.152344 M 1077.800781 1164.152344 C 1077.800781 995.335938 934.050781 857.300781 755.234375 857.300781 C 576.414062 857.300781 432.664062 995.335938 432.664062 1164.152344 C 432.664062 1332.96875 576.414062 1471.003906 755.234375 1471.003906 C 934.050781 1471.003906 1077.800781 1332.96875 1077.800781 1164.152344 Z M 1077.800781 1164.152344 " fill-opacity="1" fill-rule="nonzero"/></g><path fill="#fefefe" d="M 1091.785156 1187.761719 L 1092.480469 1168.113281 L 1092.480469 1168.242188 L 1091.96875 1148.589844 L 1091.976562 1148.71875 L 1090.257812 1129.132812 L 1090.273438 1129.265625 L 1087.355469 1109.820312 L 1087.378906 1109.953125 L 1083.269531 1090.722656 L 1083.300781 1090.851562 L 1078.019531 1071.914062 L 1078.058594 1072.039062 L 1071.621094 1053.460938 L 1071.667969 1053.585938 L 1064.101562 1035.441406 L 1064.15625 1035.558594 L 1055.488281 1017.914062 L 1055.550781 1018.03125 L 1045.8125 1000.949219 L 1045.882812 1001.0625 L 1035.113281 984.613281 L 1035.1875 984.71875 L 1023.894531 969.546875 L 1023.972656 969.648438 L 1011.796875 955.171875 L 1011.882812 955.265625 L 998.875 941.535156 L 998.964844 941.625 L 985.167969 928.6875 L 985.261719 928.769531 L 970.722656 916.671875 L 970.824219 916.75 L 955.59375 905.535156 L 955.699219 905.605469 L 939.832031 895.3125 L 939.941406 895.375 L 923.496094 886.039062 L 923.609375 886.097656 L 906.636719 877.75 L 906.753906 877.800781 L 889.320312 870.472656 L 889.4375 870.515625 L 871.601562 864.234375 C 870.484375 863.839844 869.898438 862.613281 870.289062 861.496094 C 870.683594 860.378906 871.90625 859.792969 873.023438 860.1875 L 890.863281 866.472656 C 890.902344 866.484375 890.941406 866.5 890.980469 866.519531 L 908.414062 873.847656 C 908.453125 873.863281 908.492188 873.882812 908.53125 873.898438 L 925.5 882.25 C 925.539062 882.265625 925.574219 882.285156 925.613281 882.308594 L 942.058594 891.644531 C 942.09375 891.667969 942.132812 891.6875 942.167969 891.710938 L 958.03125 902.007812 C 958.066406 902.03125 958.101562 902.054688 958.136719 902.078125 L 973.367188 913.296875 C 973.398438 913.320312 973.433594 913.347656 973.464844 913.375 L 988.003906 925.472656 C 988.035156 925.5 988.066406 925.527344 988.097656 925.558594 L 1001.898438 938.492188 C 1001.925781 938.523438 1001.957031 938.554688 1001.988281 938.582031 L 1014.996094 952.316406 C 1015.023438 952.34375 1015.050781 952.378906 1015.078125 952.410156 L 1027.253906 966.886719 C 1027.28125 966.917969 1027.304688 966.953125 1027.332031 966.988281 L 1038.628906 982.160156 C 1038.652344 982.191406 1038.679688 982.230469 1038.703125 982.265625 L 1049.46875 998.714844 C 1049.492188 998.75 1049.515625 998.789062 1049.539062 998.824219 L 1059.273438 1015.90625 C 1059.296875 1015.945312 1059.316406 1015.984375 1059.335938 1016.023438 L 1068.003906 1033.667969 C 1068.023438 1033.707031 1068.042969 1033.75 1068.058594 1033.789062 L 1075.625 1051.933594 C 1075.640625 1051.976562 1075.65625 1052.015625 1075.671875 1052.058594 L 1082.109375 1070.636719 C 1082.125 1070.675781 1082.136719 1070.71875 1082.148438 1070.761719 L 1087.429688 1089.699219 C 1087.441406 1089.742188 1087.453125 1089.785156 1087.460938 1089.828125 L 1091.570312 1109.054688 C 1091.582031 1109.097656 1091.589844 1109.140625 1091.59375 1109.183594 L 1094.515625 1128.628906 C 1094.519531 1128.671875 1094.527344 1128.714844 1094.53125 1128.757812 L 1096.25 1148.34375 C 1096.253906 1148.390625 1096.253906 1148.433594 1096.257812 1148.476562 L 1096.765625 1168.132812 C 1096.769531 1168.175781 1096.769531 1168.21875 1096.765625 1168.265625 L 1096.070312 1187.914062 C 1096.027344 1189.097656 1095.035156 1190.023438 1093.851562 1189.980469 C 1092.667969 1189.9375 1091.742188 1188.945312 1091.785156 1187.761719 Z M 1091.785156 1187.761719 " fill-opacity="1" fill-rule="nonzero"/><path fill="#fefefe" d="M 672.304688 1472.515625 L 691.945312 1477.574219 L 691.808594 1477.542969 L 711.726562 1481.367188 L 711.585938 1481.34375 L 731.703125 1483.917969 L 731.5625 1483.902344 L 751.800781 1485.214844 L 751.660156 1485.210938 L 771.941406 1485.261719 L 771.796875 1485.265625 L 792.042969 1484.046875 L 791.902344 1484.0625 L 812.03125 1481.585938 L 811.890625 1481.605469 L 831.828125 1477.878906 L 831.6875 1477.910156 L 851.355469 1472.949219 L 851.21875 1472.988281 L 870.535156 1466.808594 L 870.402344 1466.855469 L 889.296875 1459.484375 L 889.167969 1459.539062 L 907.320312 1451.128906 L 907.195312 1451.191406 L 924.792969 1441.679688 L 924.671875 1441.75 L 941.65625 1431.175781 L 941.539062 1431.253906 L 957.839844 1419.652344 L 957.726562 1419.738281 L 973.285156 1407.15625 L 973.175781 1407.25 L 987.929688 1393.734375 L 987.828125 1393.832031 L 1001.726562 1379.4375 L 1001.632812 1379.542969 L 1014.617188 1364.320312 L 1014.527344 1364.429688 L 1026.550781 1348.4375 L 1026.46875 1348.550781 L 1037.488281 1331.847656 C 1038.1875 1330.792969 1039.605469 1330.5 1040.664062 1331.199219 C 1041.71875 1331.894531 1042.007812 1333.316406 1041.3125 1334.371094 L 1030.292969 1351.074219 C 1030.269531 1351.113281 1030.242188 1351.152344 1030.210938 1351.191406 L 1018.1875 1367.183594 C 1018.160156 1367.222656 1018.128906 1367.257812 1018.101562 1367.292969 L 1005.113281 1382.515625 C 1005.085938 1382.550781 1005.054688 1382.585938 1005.019531 1382.621094 L 991.125 1397.015625 C 991.09375 1397.050781 991.058594 1397.082031 991.023438 1397.113281 L 976.269531 1410.628906 C 976.234375 1410.660156 976.199219 1410.691406 976.164062 1410.722656 L 960.605469 1423.300781 C 960.570312 1423.332031 960.53125 1423.359375 960.492188 1423.386719 L 944.195312 1434.988281 C 944.15625 1435.015625 944.117188 1435.039062 944.074219 1435.066406 L 927.09375 1445.640625 C 927.054688 1445.667969 927.011719 1445.691406 926.972656 1445.710938 L 909.371094 1455.222656 C 909.328125 1455.246094 909.289062 1455.265625 909.246094 1455.285156 L 891.09375 1463.699219 C 891.050781 1463.71875 891.007812 1463.738281 890.960938 1463.753906 L 872.066406 1471.125 C 872.023438 1471.144531 871.976562 1471.160156 871.933594 1471.171875 L 852.613281 1477.351562 C 852.566406 1477.367188 852.523438 1477.378906 852.476562 1477.390625 L 832.808594 1482.355469 C 832.761719 1482.367188 832.714844 1482.375 832.671875 1482.382812 L 812.734375 1486.109375 C 812.6875 1486.121094 812.640625 1486.125 812.589844 1486.132812 L 792.460938 1488.609375 C 792.414062 1488.613281 792.367188 1488.617188 792.320312 1488.621094 L 772.074219 1489.835938 C 772.023438 1489.839844 771.976562 1489.84375 771.929688 1489.839844 L 751.648438 1489.792969 C 751.601562 1489.792969 751.550781 1489.792969 751.503906 1489.789062 L 731.265625 1488.476562 C 731.21875 1488.472656 731.171875 1488.46875 731.121094 1488.460938 L 711.003906 1485.886719 C 710.957031 1485.882812 710.910156 1485.875 710.863281 1485.867188 L 690.945312 1482.042969 C 690.898438 1482.035156 690.851562 1482.023438 690.804688 1482.011719 L 671.164062 1476.953125 C 669.9375 1476.640625 669.199219 1475.390625 669.515625 1474.164062 C 669.832031 1472.941406 671.078125 1472.203125 672.304688 1472.515625 Z M 672.304688 1472.515625 " fill-opacity="1" fill-rule="nonzero"/><path fill="#6e872f" d="M 958.644531 -6.257812 L 555.375 -4.894531 C 525.753906 -3.761719 507.761719 13.199219 501.394531 45.996094 L 503.101562 585.84375 L 621.632812 730.363281 L 887.121094 729.464844 L 1014.695312 573.917969 L 1012.394531 40.5 C 1010.007812 25.695312 1003.121094 13.863281 991.742188 5.003906 C 977.832031 -3.683594 966.800781 -7.4375 958.644531 -6.257812 Z M 958.644531 -6.257812 " fill-opacity="1" fill-rule="nonzero"/><path fill="#6e872f" d="M 958.703125 10.292969 L 555.433594 11.65625 L 556.007812 11.644531 C 535.125 12.441406 522.335938 24.945312 517.636719 49.148438 L 517.941406 45.941406 L 519.648438 585.792969 L 515.894531 575.347656 L 634.421875 719.863281 L 621.578125 713.8125 L 887.0625 712.914062 L 874.328125 718.964844 L 1001.902344 563.417969 L 998.148438 573.988281 L 995.851562 40.570312 L 996.0625 43.136719 C 994.363281 32.617188 989.539062 24.261719 981.578125 18.066406 L 982.976562 19.042969 C 972.496094 12.496094 965.175781 9.519531 961.015625 10.121094 C 951.972656 11.433594 943.578125 5.160156 942.269531 -3.886719 C 940.960938 -12.933594 947.234375 -21.328125 956.277344 -22.636719 C 968.429688 -24.398438 983.171875 -19.863281 1000.503906 -9.035156 C 1000.988281 -8.734375 1001.453125 -8.40625 1001.902344 -8.058594 C 1016.707031 3.46875 1025.652344 18.777344 1028.730469 37.863281 C 1028.867188 38.710938 1028.9375 39.570312 1028.941406 40.429688 L 1031.238281 573.847656 C 1031.253906 577.699219 1029.929688 581.4375 1027.484375 584.414062 L 899.910156 739.960938 C 896.78125 743.777344 892.109375 746 887.175781 746.015625 L 621.6875 746.914062 C 616.714844 746.929688 611.996094 744.707031 608.839844 740.863281 L 490.3125 596.34375 C 487.894531 593.394531 486.570312 589.707031 486.558594 585.894531 L 484.847656 46.046875 C 484.847656 44.972656 484.949219 43.898438 485.152344 42.839844 C 493.183594 1.457031 516.382812 -19.96875 554.746094 -21.433594 C 554.9375 -21.441406 555.128906 -21.445312 555.320312 -21.445312 L 958.589844 -22.808594 C 967.726562 -22.839844 975.160156 -15.453125 975.191406 -6.3125 C 975.222656 2.828125 967.839844 10.261719 958.703125 10.292969 Z M 958.703125 10.292969 " fill-opacity="1" fill-rule="nonzero"/><path fill="#e5c368" d="M 1013.1875 224.679688 L 758.945312 403.871094 L 502.054688 254.171875 L 502.238281 312.582031 L 502.519531 401.828125 L 730.167969 534.484375 C 740.097656 540.269531 751.164062 543.136719 762.203125 543.136719 C 775.078125 543.136719 787.914062 539.238281 798.871094 531.515625 L 1013.859375 379.992188 Z M 1013.1875 224.679688 " fill-opacity="1" fill-rule="nonzero"/><path fill="#e5c368" d="M 1012.441406 51.144531 L 755.410156 232.300781 L 501.515625 84.351562 L 501.984375 232.003906 L 726.632812 362.914062 C 736.5625 368.699219 747.628906 371.566406 758.667969 371.566406 C 771.539062 371.566406 784.378906 367.667969 795.332031 359.945312 L 1013.109375 206.457031 Z M 1012.441406 51.144531 " fill-opacity="1" fill-rule="nonzero"/><path fill="#e5c368" d="M 1013.941406 398.9375 L 766.019531 573.671875 L 502.578125 420.15625 L 503.046875 567.8125 L 737.242188 704.28125 C 747.171875 710.070312 758.238281 712.9375 769.277344 712.9375 C 782.148438 712.9375 794.984375 709.039062 805.941406 701.316406 L 1014.609375 554.25 Z M 1013.941406 398.9375 " fill-opacity="1" fill-rule="nonzero"/><path fill="#fefefe" d="M 763.585938 255.597656 L 974.457031 104.558594 C 976.960938 102.761719 980.449219 103.339844 982.242188 105.847656 C 984.035156 108.351562 983.457031 111.835938 980.953125 113.632812 L 770.082031 264.671875 C 767.578125 266.464844 764.09375 265.886719 762.296875 263.382812 C 760.503906 260.875 761.082031 257.390625 763.585938 255.597656 Z M 763.585938 255.597656 " fill-opacity="0.855" fill-rule="nonzero"/><path fill="#fefefe" d="M 771.03125 440.527344 L 981.902344 289.488281 C 984.070312 287.9375 987.082031 288.433594 988.632812 290.601562 C 990.183594 292.765625 989.683594 295.78125 987.519531 297.332031 L 776.648438 448.371094 C 774.480469 449.921875 771.46875 449.421875 769.917969 447.257812 C 768.367188 445.089844 768.867188 442.078125 771.03125 440.527344 Z M 771.03125 440.527344 " fill-opacity="0.843" fill-rule="nonzero"/><path fill="#fefefe" d="M 776.339844 598.617188 L 987.210938 447.578125 C 989.375 446.027344 992.386719 446.527344 993.9375 448.691406 C 995.488281 450.859375 994.992188 453.871094 992.824219 455.421875 L 781.953125 606.460938 C 779.789062 608.011719 776.777344 607.515625 775.226562 605.347656 C 773.675781 603.183594 774.175781 600.167969 776.339844 598.617188 Z M 776.339844 598.617188 " fill-opacity="0.839" fill-rule="nonzero"/><path fill="#fefefe" d="M 526.5 115 L 586.585938 153.492188 C 588.121094 154.476562 588.566406 156.515625 587.585938 158.050781 C 586.601562 159.585938 584.5625 160.03125 583.027344 159.050781 L 522.941406 120.554688 C 521.410156 119.574219 520.960938 117.535156 521.945312 116 C 522.925781 114.464844 524.964844 114.015625 526.5 115 Z M 526.5 115 " fill-opacity="1" fill-rule="nonzero"/><path fill="#fefefe" d="M 523.539062 283.183594 L 583.625 321.675781 C 585.160156 322.660156 585.605469 324.699219 584.625 326.234375 C 583.644531 327.769531 581.601562 328.214844 580.070312 327.234375 L 519.980469 288.742188 C 518.449219 287.757812 518 285.71875 518.984375 284.183594 C 519.964844 282.648438 522.003906 282.199219 523.539062 283.183594 Z M 523.539062 283.183594 " fill-opacity="1" fill-rule="nonzero"/><path fill="#fefefe" d="M 519.988281 441.300781 L 580.074219 479.792969 C 581.609375 480.777344 582.054688 482.816406 581.074219 484.351562 C 580.089844 485.886719 578.050781 486.332031 576.515625 485.351562 L 516.429688 446.855469 C 514.894531 445.875 514.449219 443.832031 515.429688 442.300781 C 516.414062 440.765625 518.453125 440.316406 519.988281 441.300781 Z M 519.988281 441.300781 " fill-opacity="1" fill-rule="nonzero"/><path fill="#e5c368" d="M 1065.414062 1064.941406 C 1065.535156 1062.097656 1065.191406 1059.503906 1064.386719 1057.164062 C 1060.304688 1047.414062 1050.023438 1039.703125 1033.539062 1034.027344 C 1016.964844 1028.304688 990.140625 1023.316406 953.058594 1019.058594 C 925.476562 1016.21875 897.851562 1014.921875 870.179688 1015.167969 C 860.300781 989.390625 846.859375 959.992188 829.863281 926.972656 C 813.457031 896.539062 797.9375 872.023438 783.308594 853.421875 C 771.832031 840.074219 761.632812 833.476562 752.707031 833.636719 C 742.179688 834.507812 731.667969 841.90625 721.179688 855.835938 C 710.617188 869.835938 697.585938 893.816406 682.078125 927.777344 C 670.855469 953.140625 661.085938 979.023438 652.769531 1005.425781 C 625.210938 1006.859375 593.109375 1010.5625 556.464844 1016.527344 C 522.460938 1022.734375 494.355469 1029.921875 472.148438 1038.089844 C 455.914062 1044.882812 446.492188 1052.550781 443.882812 1061.089844 C 443.5 1062.722656 443.269531 1064.402344 443.199219 1066.132812 C 442.8125 1075.320312 446.828125 1085.925781 455.246094 1097.945312 C 465.292969 1112.320312 484.0625 1132.132812 511.558594 1157.378906 C 532.203125 1175.894531 553.792969 1193.1875 576.324219 1209.257812 L 576.324219 1209.261719 C 569.171875 1235.921875 562.769531 1267.605469 557.121094 1304.3125 C 554.238281 1325.757812 552.433594 1345.121094 551.707031 1362.410156 C 551.273438 1372.746094 551.226562 1382.339844 551.5625 1391.191406 C 553.007812 1408.738281 557.382812 1420.074219 564.699219 1425.191406 C 573.726562 1430.679688 586.578125 1430.871094 603.246094 1425.769531 C 620.019531 1420.65625 644.652344 1408.921875 677.152344 1390.5625 C 701.132812 1376.640625 724.242188 1361.445312 746.484375 1344.980469 L 746.484375 1344.972656 C 769.625 1360.019531 797.769531 1375.898438 830.925781 1392.621094 C 862.082031 1407.59375 889.042969 1418.304688 911.804688 1424.753906 C 928.933594 1428.804688 941.0625 1428.140625 948.1875 1422.765625 C 955.773438 1416.234375 959.902344 1404.976562 960.570312 1388.988281 C 960.609375 1388.097656 960.636719 1387.1875 960.652344 1386.269531 C 960.972656 1368.730469 957.425781 1341.667969 950.015625 1305.074219 C 944.191406 1277.957031 936.886719 1251.273438 928.101562 1225.023438 C 949.554688 1207.65625 973.351562 1185.785156 999.492188 1159.414062 C 1023.355469 1134.398438 1041.867188 1112.058594 1055.035156 1092.390625 C 1061.644531 1081.515625 1065.105469 1072.367188 1065.414062 1064.941406 Z M 1065.414062 1064.941406 " fill-opacity="1" fill-rule="nonzero"/><path fill="#e5c368" d="M 818.671875 784.566406 C 818.800781 822.3125 789.878906 854.914062 751.789062 855.042969 C 713.699219 855.171875 684.558594 822.765625 684.429688 785.019531 C 684.300781 747.273438 713.222656 714.671875 751.3125 714.542969 C 789.402344 714.414062 818.546875 746.820312 818.671875 784.566406 M 782.75 784.6875 C 782.683594 764.683594 767.644531 750.421875 751.433594 750.476562 C 735.222656 750.53125 720.285156 764.894531 720.351562 784.898438 C 720.417969 804.902344 735.457031 819.164062 751.667969 819.109375 C 767.878906 819.054688 782.820312 804.691406 782.75 784.6875 Z M 782.75 784.6875 " fill-opacity="1" fill-rule="nonzero"/><path fill="#fefefe" d="M 703.347656 811.621094 L 701.648438 808.613281 C 701.613281 808.546875 701.578125 808.480469 701.542969 808.410156 L 700.054688 805.296875 C 700.023438 805.226562 699.992188 805.160156 699.960938 805.085938 L 698.6875 801.878906 C 698.660156 801.808594 698.632812 801.734375 698.609375 801.664062 L 697.554688 798.375 C 697.53125 798.304688 697.511719 798.230469 697.492188 798.15625 L 696.664062 794.804688 C 696.644531 794.730469 696.628906 794.65625 696.617188 794.578125 L 696.015625 791.179688 C 696 791.105469 695.992188 791.027344 695.984375 790.953125 L 695.613281 787.519531 C 695.605469 787.445312 695.601562 787.367188 695.597656 787.292969 L 695.460938 783.839844 C 695.457031 783.765625 695.457031 783.6875 695.460938 783.613281 L 695.558594 780.160156 C 695.5625 780.085938 695.566406 780.007812 695.574219 779.933594 L 695.90625 776.496094 C 695.914062 776.421875 695.925781 776.34375 695.9375 776.269531 L 696.5 772.863281 C 696.515625 772.789062 696.527344 772.710938 696.546875 772.636719 L 697.339844 769.277344 C 697.359375 769.207031 697.378906 769.132812 697.398438 769.0625 L 698.378906 765.882812 C 698.402344 765.8125 698.425781 765.742188 698.449219 765.671875 L 699.636719 762.5625 C 699.664062 762.496094 699.691406 762.425781 699.722656 762.359375 L 701.105469 759.335938 C 701.136719 759.269531 701.171875 759.203125 701.207031 759.136719 L 702.785156 756.210938 C 702.820312 756.144531 702.859375 756.082031 702.898438 756.019531 L 704.664062 753.199219 C 704.703125 753.136719 704.746094 753.078125 704.789062 753.019531 L 706.738281 750.320312 C 706.78125 750.261719 706.824219 750.203125 706.871094 750.148438 L 708.992188 747.582031 C 709.039062 747.527344 709.085938 747.472656 709.136719 747.417969 L 711.421875 745 C 711.472656 744.945312 711.523438 744.894531 711.578125 744.84375 L 714.015625 742.578125 C 714.066406 742.527344 714.125 742.480469 714.179688 742.433594 L 716.761719 740.332031 C 716.816406 740.285156 716.875 740.242188 716.933594 740.199219 L 719.644531 738.269531 C 719.707031 738.226562 719.769531 738.1875 719.832031 738.148438 L 722.660156 736.402344 C 722.722656 736.363281 722.789062 736.328125 722.851562 736.292969 L 725.792969 734.734375 C 727.4375 733.863281 729.480469 734.488281 730.355469 736.136719 C 731.226562 737.785156 730.601562 739.828125 728.953125 740.703125 L 726.011719 742.257812 L 726.203125 742.148438 L 723.375 743.894531 L 723.558594 743.773438 L 720.847656 745.703125 L 721.023438 745.570312 L 718.445312 747.667969 L 718.609375 747.523438 L 716.171875 749.789062 L 716.332031 749.632812 L 714.046875 752.054688 L 714.191406 751.886719 L 712.074219 754.453125 L 712.207031 754.277344 L 710.257812 756.972656 L 710.382812 756.789062 L 708.613281 759.609375 L 708.726562 759.417969 L 707.144531 762.347656 L 707.242188 762.148438 L 705.859375 765.171875 L 705.945312 764.96875 L 704.757812 768.078125 L 704.832031 767.871094 L 703.851562 771.050781 L 703.910156 770.832031 L 703.117188 774.191406 L 703.160156 773.96875 L 702.597656 777.375 L 702.625 777.148438 L 702.292969 780.582031 L 702.308594 780.355469 L 702.207031 783.804688 L 702.207031 783.578125 L 702.34375 787.027344 L 702.324219 786.796875 L 702.695312 790.230469 L 702.664062 790.003906 L 703.261719 793.40625 L 703.214844 793.179688 L 704.046875 796.53125 L 703.984375 796.3125 L 705.039062 799.597656 L 704.960938 799.382812 L 706.234375 802.59375 L 706.144531 802.382812 L 707.632812 805.496094 L 707.527344 805.292969 L 709.226562 808.300781 C 710.140625 809.921875 709.570312 811.984375 707.945312 812.902344 C 706.324219 813.816406 704.265625 813.246094 703.347656 811.621094 Z M 703.347656 811.621094 " fill-opacity="1" fill-rule="nonzero"/><path fill="#fefefe" d="M 778.042969 829.988281 L 780.308594 828.582031 L 780.246094 828.621094 L 782.425781 827.082031 L 782.363281 827.128906 L 784.445312 825.460938 L 784.386719 825.507812 L 786.363281 823.71875 L 786.308594 823.769531 L 788.175781 821.863281 L 788.125 821.917969 L 789.871094 819.902344 L 789.824219 819.964844 L 791.445312 817.847656 L 791.402344 817.90625 L 792.894531 815.695312 L 792.855469 815.761719 L 794.214844 813.464844 L 794.175781 813.53125 L 795.394531 811.15625 L 795.363281 811.226562 L 796.433594 808.78125 L 796.40625 808.851562 L 797.339844 806.3125 L 797.316406 806.386719 L 798.097656 803.792969 L 798.078125 803.867188 L 798.695312 801.234375 L 798.679688 801.308594 L 799.136719 798.640625 L 799.128906 798.714844 L 799.421875 796.023438 L 799.414062 796.101562 L 799.546875 793.398438 L 799.542969 793.472656 L 799.507812 790.765625 L 799.511719 790.84375 L 799.3125 788.144531 L 799.320312 788.222656 L 798.953125 785.539062 L 798.964844 785.613281 L 798.4375 782.957031 L 798.457031 783.035156 L 797.765625 780.414062 C 797.589844 779.742188 797.992188 779.050781 798.664062 778.875 C 799.339844 778.695312 800.027344 779.097656 800.207031 779.773438 L 800.894531 782.390625 L 800.914062 782.464844 L 801.441406 785.121094 L 801.453125 785.199219 L 801.816406 787.878906 L 801.828125 787.957031 L 802.027344 790.65625 L 802.03125 790.734375 L 802.066406 793.441406 L 802.066406 793.519531 L 801.933594 796.222656 L 801.929688 796.300781 L 801.636719 798.992188 L 801.625 799.066406 L 801.167969 801.734375 L 801.152344 801.808594 L 800.53125 804.445312 L 800.511719 804.519531 L 799.734375 807.113281 L 799.707031 807.1875 L 798.773438 809.726562 L 798.742188 809.796875 L 797.671875 812.238281 L 797.636719 812.308594 L 796.421875 814.683594 L 796.382812 814.75 L 795.027344 817.046875 L 794.984375 817.109375 L 793.492188 819.320312 L 793.449219 819.382812 L 791.824219 821.5 L 791.777344 821.558594 L 790.027344 823.574219 L 789.976562 823.628906 L 788.113281 825.535156 L 788.058594 825.589844 L 786.078125 827.378906 L 786.023438 827.429688 L 783.941406 829.097656 L 783.878906 829.144531 L 781.703125 830.683594 L 781.640625 830.726562 L 779.371094 832.132812 C 778.78125 832.5 778.003906 832.316406 777.636719 831.726562 C 777.269531 831.132812 777.449219 830.355469 778.042969 829.988281 Z M 778.042969 829.988281 " fill-opacity="1" fill-rule="nonzero"/><path fill="#fefefe" d="M 889.207031 1027.601562 L 889.195312 1027.597656 L 889.203125 1027.601562 L 889.214844 1027.601562 C 913.214844 1028.425781 937.316406 1029.253906 961.03125 1031.488281 C 984.757812 1033.722656 1008.085938 1037.359375 1031.324219 1040.984375 C 1032.722656 1041.203125 1033.679688 1042.515625 1033.460938 1043.914062 C 1033.242188 1045.3125 1031.933594 1046.269531 1030.535156 1046.050781 C 1007.269531 1042.421875 984.101562 1038.8125 960.550781 1036.59375 C 937.011719 1034.375 913.066406 1033.550781 889.039062 1032.726562 L 889.050781 1032.726562 L 889.042969 1032.726562 C 887.617188 1032.675781 886.507812 1031.488281 886.558594 1030.074219 C 886.605469 1028.660156 887.792969 1027.550781 889.207031 1027.601562 Z M 889.207031 1027.601562 " fill-opacity="1" fill-rule="nonzero"/><path fill="#fefefe" d="M 788.25 870.570312 C 801.996094 892.835938 815.820312 915.230469 827.082031 938.28125 C 838.347656 961.332031 847.023438 985.007812 855.652344 1008.535156 C 856.136719 1009.867188 855.457031 1011.339844 854.128906 1011.828125 C 852.796875 1012.3125 851.324219 1011.632812 850.839844 1010.300781 C 842.199219 986.734375 833.605469 963.308594 822.476562 940.53125 C 811.347656 917.75 797.65625 895.570312 783.886719 873.265625 C 783.144531 872.0625 783.515625 870.480469 784.722656 869.738281 C 785.925781 868.992188 787.503906 869.367188 788.25 870.570312 Z M 788.25 870.570312 " fill-opacity="1" fill-rule="nonzero"/><path fill="#fefefe" d="M 984.429688 1157.277344 C 975.917969 1168.671875 967.253906 1180.28125 955.15625 1191.164062 C 943.101562 1202.011719 927.6875 1212.09375 912.492188 1222.035156 L 913.523438 1219.085938 C 918.378906 1233.753906 923.257812 1248.492188 927.621094 1263.910156 C 931.984375 1279.324219 935.832031 1295.414062 939.664062 1311.433594 C 939.996094 1312.808594 939.144531 1314.191406 937.769531 1314.523438 C 936.394531 1314.851562 935.011719 1314.003906 934.679688 1312.625 C 930.84375 1296.585938 927.019531 1280.601562 922.6875 1265.304688 C 918.359375 1250.011719 913.519531 1235.382812 908.65625 1220.695312 C 908.292969 1219.59375 908.714844 1218.382812 909.6875 1217.746094 C 924.96875 1207.746094 940.023438 1197.886719 951.730469 1187.351562 C 963.398438 1176.851562 971.785156 1165.636719 980.324219 1154.207031 C 981.171875 1153.074219 982.78125 1152.839844 983.914062 1153.691406 C 985.046875 1154.539062 985.277344 1156.144531 984.429688 1157.277344 Z M 984.429688 1157.277344 " fill-opacity="1" fill-rule="nonzero"/><g clip-path="url(#12b53daf85)"><path fill="#e5c368" d="M 1107.003906 1164.152344 C 1107.003906 1350.410156 948.839844 1500.214844 755.234375 1500.214844 C 561.625 1500.214844 403.460938 1350.410156 403.460938 1164.152344 C 403.460938 977.894531 561.625 828.089844 755.234375 828.089844 C 948.839844 828.089844 1107.003906 977.894531 1107.003906 1164.152344 M 1077.800781 1164.152344 C 1077.800781 995.335938 934.050781 857.300781 755.234375 857.300781 C 576.414062 857.300781 432.664062 995.335938 432.664062 1164.152344 C 432.664062 1332.96875 576.414062 1471.003906 755.234375 1471.003906 C 934.050781 1471.003906 1077.800781 1332.96875 1077.800781 1164.152344 Z M 1077.800781 1164.152344 " fill-opacity="1" fill-rule="nonzero"/></g><path fill="#fefefe" d="M 1091.785156 1187.761719 L 1092.480469 1168.113281 L 1092.480469 1168.242188 L 1091.96875 1148.589844 L 1091.976562 1148.71875 L 1090.257812 1129.132812 L 1090.273438 1129.265625 L 1087.355469 1109.820312 L 1087.378906 1109.953125 L 1083.269531 1090.722656 L 1083.300781 1090.851562 L 1078.019531 1071.914062 L 1078.058594 1072.039062 L 1071.621094 1053.460938 L 1071.667969 1053.585938 L 1064.101562 1035.441406 L 1064.15625 1035.558594 L 1055.488281 1017.914062 L 1055.550781 1018.03125 L 1045.8125 1000.949219 L 1045.882812 1001.0625 L 1035.113281 984.613281 L 1035.1875 984.71875 L 1023.894531 969.546875 L 1023.972656 969.648438 L 1011.796875 955.171875 L 1011.882812 955.265625 L 998.875 941.535156 L 998.964844 941.625 L 985.167969 928.6875 L 985.261719 928.769531 L 970.722656 916.671875 L 970.824219 916.75 L 955.59375 905.535156 L 955.699219 905.605469 L 939.832031 895.3125 L 939.941406 895.375 L 923.496094 886.039062 L 923.609375 886.097656 L 906.636719 877.75 L 906.753906 877.800781 L 889.320312 870.472656 L 889.4375 870.515625 L 871.601562 864.234375 C 870.484375 863.839844 869.898438 862.613281 870.289062 861.496094 C 870.683594 860.378906 871.90625 859.792969 873.023438 860.1875 L 890.863281 866.472656 C 890.902344 866.484375 890.941406 866.5 890.980469 866.519531 L 908.414062 873.847656 C 908.453125 873.863281 908.492188 873.882812 908.53125 873.898438 L 925.5 882.25 C 925.539062 882.265625 925.574219 882.285156 925.613281 882.308594 L 942.058594 891.644531 C 942.09375 891.667969 942.132812 891.6875 942.167969 891.710938 L 958.03125 902.007812 C 958.066406 902.03125 958.101562 902.054688 958.136719 902.078125 L 973.367188 913.296875 C 973.398438 913.320312 973.433594 913.347656 973.464844 913.375 L 988.003906 925.472656 C 988.035156 925.5 988.066406 925.527344 988.097656 925.558594 L 1001.898438 938.492188 C 1001.925781 938.523438 1001.957031 938.554688 1001.988281 938.582031 L 1014.996094 952.316406 C 1015.023438 952.34375 1015.050781 952.378906 1015.078125 952.410156 L 1027.253906 966.886719 C 1027.28125 966.917969 1027.304688 966.953125 1027.332031 966.988281 L 1038.628906 982.160156 C 1038.652344 982.191406 1038.679688 982.230469 1038.703125 982.265625 L 1049.46875 998.714844 C 1049.492188 998.75 1049.515625 998.789062 1049.539062 998.824219 L 1059.273438 1015.90625 C 1059.296875 1015.945312 1059.316406 1015.984375 1059.335938 1016.023438 L 1068.003906 1033.667969 C 1068.023438 1033.707031 1068.042969 1033.75 1068.058594 1033.789062 L 1075.625 1051.933594 C 1075.640625 1051.976562 1075.65625 1052.015625 1075.671875 1052.058594 L 1082.109375 1070.636719 C 1082.125 1070.675781 1082.136719 1070.71875 1082.148438 1070.761719 L 1087.429688 1089.699219 C 1087.441406 1089.742188 1087.453125 1089.785156 1087.460938 1089.828125 L 1091.570312 1109.054688 C 1091.582031 1109.097656 1091.589844 1109.140625 1091.59375 1109.183594 L 1094.515625 1128.628906 C 1094.519531 1128.671875 1094.527344 1128.714844 1094.53125 1128.757812 L 1096.25 1148.34375 C 1096.253906 1148.390625 1096.253906 1148.433594 1096.257812 1148.476562 L 1096.765625 1168.132812 C 1096.769531 1168.175781 1096.769531 1168.21875 1096.765625 1168.265625 L 1096.070312 1187.914062 C 1096.027344 1189.097656 1095.035156 1190.023438 1093.851562 1189.980469 C 1092.667969 1189.9375 1091.742188 1188.945312 1091.785156 1187.761719 Z M 1091.785156 1187.761719 " fill-opacity="1" fill-rule="nonzero"/><path fill="#fefefe" d="M 672.304688 1472.515625 L 691.945312 1477.574219 L 691.808594 1477.542969 L 711.726562 1481.367188 L 711.585938 1481.34375 L 731.703125 1483.917969 L 731.5625 1483.902344 L 751.800781 1485.214844 L 751.660156 1485.210938 L 771.941406 1485.261719 L 771.796875 1485.265625 L 792.042969 1484.046875 L 791.902344 1484.0625 L 812.03125 1481.585938 L 811.890625 1481.605469 L 831.828125 1477.878906 L 831.6875 1477.910156 L 851.355469 1472.949219 L 851.21875 1472.988281 L 870.535156 1466.808594 L 870.402344 1466.855469 L 889.296875 1459.484375 L 889.167969 1459.539062 L 907.320312 1451.128906 L 907.195312 1451.191406 L 924.792969 1441.679688 L 924.671875 1441.75 L 941.65625 1431.175781 L 941.539062 1431.253906 L 957.839844 1419.652344 L 957.726562 1419.738281 L 973.285156 1407.15625 L 973.175781 1407.25 L 987.929688 1393.734375 L 987.828125 1393.832031 L 1001.726562 1379.4375 L 1001.632812 1379.542969 L 1014.617188 1364.320312 L 1014.527344 1364.429688 L 1026.550781 1348.4375 L 1026.46875 1348.550781 L 1037.488281 1331.847656 C 1038.1875 1330.792969 1039.605469 1330.5 1040.664062 1331.199219 C 1041.71875 1331.894531 1042.007812 1333.316406 1041.3125 1334.371094 L 1030.292969 1351.074219 C 1030.269531 1351.113281 1030.242188 1351.152344 1030.210938 1351.191406 L 1018.1875 1367.183594 C 1018.160156 1367.222656 1018.128906 1367.257812 1018.101562 1367.292969 L 1005.113281 1382.515625 C 1005.085938 1382.550781 1005.054688 1382.585938 1005.019531 1382.621094 L 991.125 1397.015625 C 991.09375 1397.050781 991.058594 1397.082031 991.023438 1397.113281 L 976.269531 1410.628906 C 976.234375 1410.660156 976.199219 1410.691406 976.164062 1410.722656 L 960.605469 1423.300781 C 960.570312 1423.332031 960.53125 1423.359375 960.492188 1423.386719 L 944.195312 1434.988281 C 944.15625 1435.015625 944.117188 1435.039062 944.074219 1435.066406 L 927.09375 1445.640625 C 927.054688 1445.667969 927.011719 1445.691406 926.972656 1445.710938 L 909.371094 1455.222656 C 909.328125 1455.246094 909.289062 1455.265625 909.246094 1455.285156 L 891.09375 1463.699219 C 891.050781 1463.71875 891.007812 1463.738281 890.960938 1463.753906 L 872.066406 1471.125 C 872.023438 1471.144531 871.976562 1471.160156 871.933594 1471.171875 L 852.613281 1477.351562 C 852.566406 1477.367188 852.523438 1477.378906 852.476562 1477.390625 L 832.808594 1482.355469 C 832.761719 1482.367188 832.714844 1482.375 832.671875 1482.382812 L 812.734375 1486.109375 C 812.6875 1486.121094 812.640625 1486.125 812.589844 1486.132812 L 792.460938 1488.609375 C 792.414062 1488.613281 792.367188 1488.617188 792.320312 1488.621094 L 772.074219 1489.835938 C 772.023438 1489.839844 771.976562 1489.84375 771.929688 1489.839844 L 751.648438 1489.792969 C 751.601562 1489.792969 751.550781 1489.792969 751.503906 1489.789062 L 731.265625 1488.476562 C 731.21875 1488.472656 731.171875 1488.46875 731.121094 1488.460938 L 711.003906 1485.886719 C 710.957031 1485.882812 710.910156 1485.875 710.863281 1485.867188 L 690.945312 1482.042969 C 690.898438 1482.035156 690.851562 1482.023438 690.804688 1482.011719 L 671.164062 1476.953125 C 669.9375 1476.640625 669.199219 1475.390625 669.515625 1474.164062 C 669.832031 1472.941406 671.078125 1472.203125 672.304688 1472.515625 Z M 672.304688 1472.515625 " fill-opacity="1" fill-rule="nonzero"/><path fill="#6e872f" d="M 958.644531 -6.257812 L 555.375 -4.894531 C 525.753906 -3.761719 507.761719 13.199219 501.394531 45.996094 L 503.101562 585.84375 L 621.632812 730.363281 L 887.121094 729.464844 L 1014.695312 573.917969 L 1012.394531 40.5 C 1010.007812 25.695312 1003.121094 13.863281 991.742188 5.003906 C 977.832031 -3.683594 966.800781 -7.4375 958.644531 -6.257812 Z M 958.644531 -6.257812 " fill-opacity="1" fill-rule="nonzero"/><path fill="#6e872f" d="M 958.703125 10.292969 L 555.433594 11.65625 L 556.007812 11.644531 C 535.125 12.441406 522.335938 24.945312 517.636719 49.148438 L 517.941406 45.941406 L 519.648438 585.792969 L 515.894531 575.347656 L 634.421875 719.863281 L 621.578125 713.8125 L 887.0625 712.914062 L 874.328125 718.964844 L 1001.902344 563.417969 L 998.148438 573.988281 L 995.851562 40.570312 L 996.0625 43.136719 C 994.363281 32.617188 989.539062 24.261719 981.578125 18.066406 L 982.976562 19.042969 C 972.496094 12.496094 965.175781 9.519531 961.015625 10.121094 C 951.972656 11.433594 943.578125 5.160156 942.269531 -3.886719 C 940.960938 -12.933594 947.234375 -21.328125 956.277344 -22.636719 C 968.429688 -24.398438 983.171875 -19.863281 1000.503906 -9.035156 C 1000.988281 -8.734375 1001.453125 -8.40625 1001.902344 -8.058594 C 1016.707031 3.46875 1025.652344 18.777344 1028.730469 37.863281 C 1028.867188 38.710938 1028.9375 39.570312 1028.941406 40.429688 L 1031.238281 573.847656 C 1031.253906 577.699219 1029.929688 581.4375 1027.484375 584.414062 L 899.910156 739.960938 C 896.78125 743.777344 892.109375 746 887.175781 746.015625 L 621.6875 746.914062 C 616.714844 746.929688 611.996094 744.707031 608.839844 740.863281 L 490.3125 596.34375 C 487.894531 593.394531 486.570312 589.707031 486.558594 585.894531 L 484.847656 46.046875 C 484.847656 44.972656 484.949219 43.898438 485.152344 42.839844 C 493.183594 1.457031 516.382812 -19.96875 554.746094 -21.433594 C 554.9375 -21.441406 555.128906 -21.445312 555.320312 -21.445312 L 958.589844 -22.808594 C 967.726562 -22.839844 975.160156 -15.453125 975.191406 -6.3125 C 975.222656 2.828125 967.839844 10.261719 958.703125 10.292969 Z M 958.703125 10.292969 " fill-opacity="1" fill-rule="nonzero"/><path fill="#e5c368" d="M 1013.1875 224.679688 L 758.945312 403.871094 L 502.054688 254.171875 L 502.238281 312.582031 L 502.519531 401.828125 L 730.167969 534.484375 C 740.097656 540.269531 751.164062 543.136719 762.203125 543.136719 C 775.078125 543.136719 787.914062 539.238281 798.871094 531.515625 L 1013.859375 379.992188 Z M 1013.1875 224.679688 " fill-opacity="1" fill-rule="nonzero"/><path fill="#e5c368" d="M 1012.441406 51.144531 L 755.410156 232.300781 L 501.515625 84.351562 L 501.984375 232.003906 L 726.632812 362.914062 C 736.5625 368.699219 747.628906 371.566406 758.667969 371.566406 C 771.539062 371.566406 784.378906 367.667969 795.332031 359.945312 L 1013.109375 206.457031 Z M 1012.441406 51.144531 " fill-opacity="1" fill-rule="nonzero"/><path fill="#e5c368" d="M 1013.941406 398.9375 L 766.019531 573.671875 L 502.578125 420.15625 L 503.046875 567.8125 L 737.242188 704.28125 C 747.171875 710.070312 758.238281 712.9375 769.277344 712.9375 C 782.148438 712.9375 794.984375 709.039062 805.941406 701.316406 L 1014.609375 554.25 Z M 1013.941406 398.9375 " fill-opacity="1" fill-rule="nonzero"/><path fill="#fefefe" d="M 763.585938 255.597656 L 974.457031 104.558594 C 976.960938 102.761719 980.449219 103.339844 982.242188 105.847656 C 984.035156 108.351562 983.457031 111.835938 980.953125 113.632812 L 770.082031 264.671875 C 767.578125 266.464844 764.09375 265.886719 762.296875 263.382812 C 760.503906 260.875 761.082031 257.390625 763.585938 255.597656 Z M 763.585938 255.597656 " fill-opacity="0.855" fill-rule="nonzero"/><path fill="#fefefe" d="M 771.03125 440.527344 L 981.902344 289.488281 C 984.070312 287.9375 987.082031 288.433594 988.632812 290.601562 C 990.183594 292.765625 989.683594 295.78125 987.519531 297.332031 L 776.648438 448.371094 C 774.480469 449.921875 771.46875 449.421875 769.917969 447.257812 C 768.367188 445.089844 768.867188 442.078125 771.03125 440.527344 Z M 771.03125 440.527344 " fill-opacity="0.843" fill-rule="nonzero"/><path fill="#fefefe" d="M 776.339844 598.617188 L 987.210938 447.578125 C 989.375 446.027344 992.386719 446.527344 993.9375 448.691406 C 995.488281 450.859375 994.992188 453.871094 992.824219 455.421875 L 781.953125 606.460938 C 779.789062 608.011719 776.777344 607.515625 775.226562 605.347656 C 773.675781 603.183594 774.175781 600.167969 776.339844 598.617188 Z M 776.339844 598.617188 " fill-opacity="0.839" fill-rule="nonzero"/><path fill="#fefefe" d="M 526.5 115 L 586.585938 153.492188 C 588.121094 154.476562 588.566406 156.515625 587.585938 158.050781 C 586.601562 159.585938 584.5625 160.03125 583.027344 159.050781 L 522.941406 120.554688 C 521.410156 119.574219 520.960938 117.535156 521.945312 116 C 522.925781 114.464844 524.964844 114.015625 526.5 115 Z M 526.5 115 " fill-opacity="1" fill-rule="nonzero"/><path fill="#fefefe" d="M 523.539062 283.183594 L 583.625 321.675781 C 585.160156 322.660156 585.605469 324.699219 584.625 326.234375 C 583.644531 327.769531 581.601562 328.214844 580.070312 327.234375 L 519.980469 288.742188 C 518.449219 287.757812 518 285.71875 518.984375 284.183594 C 519.964844 282.648438 522.003906 282.199219 523.539062 283.183594 Z M 523.539062 283.183594 " fill-opacity="1" fill-rule="nonzero"/><path fill="#fefefe" d="M 519.988281 441.300781 L 580.074219 479.792969 C 581.609375 480.777344 582.054688 482.816406 581.074219 484.351562 C 580.089844 485.886719 578.050781 486.332031 576.515625 485.351562 L 516.429688 446.855469 C 514.894531 445.875 514.449219 443.832031 515.429688 442.300781 C 516.414062 440.765625 518.453125 440.316406 519.988281 441.300781 Z M 519.988281 441.300781 " fill-opacity="1" fill-rule="nonzero"/></svg>