<svg xmlns="http://www.w3.org/2000/svg" xmlns:xlink="http://www.w3.org/1999/xlink" width="2000" zoomAndPan="magnify" viewBox="0 0 1500 1499.999933" height="2000" preserveAspectRatio="xMidYMid meet" version="1.0"><defs><clipPath id="a7896ae19a"><path d="M 973.539062 963.09375 L 1006.964844 963.09375 L 1006.964844 996.519531 L 973.539062 996.519531 Z M 973.539062 963.09375 " clip-rule="nonzero"/></clipPath><clipPath id="8f55a3340b"><path d="M 990.25 963.09375 C 981.019531 963.09375 973.539062 970.574219 973.539062 979.804688 C 973.539062 989.035156 981.019531 996.519531 990.25 996.519531 C 999.480469 996.519531 1006.964844 989.035156 1006.964844 979.804688 C 1006.964844 970.574219 999.480469 963.09375 990.25 963.09375 Z M 990.25 963.09375 " clip-rule="nonzero"/></clipPath><clipPath id="07e19326dc"><path d="M 0.539062 0.09375 L 33.964844 0.09375 L 33.964844 33.519531 L 0.539062 33.519531 Z M 0.539062 0.09375 " clip-rule="nonzero"/></clipPath><clipPath id="1cea718603"><path d="M 17.25 0.09375 C 8.019531 0.09375 0.539062 7.574219 0.539062 16.804688 C 0.539062 26.035156 8.019531 33.519531 17.25 33.519531 C 26.480469 33.519531 33.964844 26.035156 33.964844 16.804688 C 33.964844 7.574219 26.480469 0.09375 17.25 0.09375 Z M 17.25 0.09375 " clip-rule="nonzero"/></clipPath><clipPath id="2466594ff6"><rect x="0" width="34" y="0" height="34"/></clipPath></defs><g clip-path="url(#a7896ae19a)"><g clip-path="url(#8f55a3340b)"><g transform="matrix(1, 0, 0, 1, 973, 963)"><g clip-path="url(#2466594ff6)"><g clip-path="url(#07e19326dc)"><g clip-path="url(#1cea718603)"><path fill="#2d2726" d="M 0.539062 0.09375 L 33.964844 0.09375 L 33.964844 33.519531 L 0.539062 33.519531 Z M 0.539062 0.09375 " fill-opacity="1" fill-rule="nonzero"/></g></g></g></g></g></g><path fill="#1e2523" d="M 521.492188 137.253906 C 433.726562 107.339844 315.066406 116.273438 271.445312 214.714844 C 238.878906 288.207031 245.34375 407.484375 335.304688 464.769531 C 389.515625 499.289062 436.933594 501.378906 470.742188 495.964844 C 486.9375 493.367188 503.28125 490.121094 509.242188 500.195312 C 547.574219 564.964844 555.183594 607.367188 570.53125 607.429688 C 576.519531 607.453125 583.011719 602.589844 590.609375 599.394531 C 614.546875 589.328125 616.5625 613.613281 615.484375 620.042969 C 608.214844 663.359375 588.195312 750.308594 545.351562 802.492188 C 532.371094 799.886719 509.769531 811.539062 513.203125 832.324219 C 454.695312 871.644531 400.945312 891.527344 333.367188 912.996094 C 275.070312 931.515625 255.800781 959.457031 173.027344 990.21875 C 105.828125 1015.191406 88.542969 1040.558594 107.15625 1036.574219 C 119.964844 1033.832031 138.746094 1029.8125 140.046875 1033.082031 C 141.398438 1036.445312 112.1875 1047.675781 95.15625 1063.542969 C 49.960938 1105.65625 18.503906 1140.140625 36.566406 1130.492188 C 60.863281 1117.515625 84.089844 1096.246094 68.957031 1121.960938 C 44.25 1163.941406 0 1283.238281 23.542969 1262.78125 C 40.507812 1248.046875 71.847656 1203.515625 65.296875 1227.214844 C 54.660156 1265.6875 42.910156 1365.695312 63.589844 1341.570312 C 78.980469 1323.609375 89.695312 1280.726562 88.9375 1312.554688 C 87.796875 1360.34375 104.792969 1446.257812 112.625 1424.03125 C 116.160156 1413.984375 118.652344 1400.953125 120.027344 1415.800781 C 122.851562 1446.363281 135.667969 1471.621094 146.570312 1499.695312 L 1279.648438 1499.695312 C 1288.996094 1476.992188 1327.042969 1381.105469 1318.519531 1435.089844 C 1314.890625 1458.078125 1309.054688 1490.160156 1322.347656 1470.476562 C 1335.554688 1450.925781 1348.488281 1399.417969 1350.78125 1386.019531 C 1357.503906 1346.84375 1355.734375 1276.078125 1364.414062 1300.644531 C 1371.863281 1321.722656 1371.660156 1369.460938 1380.921875 1347.324219 C 1393.183594 1318.011719 1401.21875 1242.164062 1400.445312 1224.722656 C 1398.753906 1186.441406 1375.089844 1139.058594 1393.851562 1162.550781 C 1413.542969 1187.210938 1430.980469 1232.15625 1431.5 1208.722656 C 1431.957031 1188.210938 1425.257812 1150.515625 1415.828125 1114.824219 C 1404.628906 1072.417969 1382.546875 1038.488281 1392.882812 1045.925781 C 1421.378906 1066.433594 1451.265625 1133.28125 1450.828125 1108.332031 C 1450.234375 1074.121094 1435.164062 1032.515625 1418.148438 1007.496094 C 1365.34375 929.839844 1288.535156 910.605469 1319.738281 916.742188 C 1342.726562 921.261719 1381.355469 950.914062 1372.023438 934.359375 C 1358.457031 910.300781 1331.832031 893.226562 1345.878906 894.816406 C 1357.410156 896.125 1369.996094 893.816406 1356.410156 886.90625 C 1333.808594 875.398438 1290.085938 853.027344 1251.519531 837.253906 C 1213.386719 821.660156 1183.898438 817.789062 1193.191406 815.601562 C 1221.582031 808.914062 1255.035156 813.707031 1241.382812 804.53125 C 1190.632812 770.425781 1116.789062 791.101562 1121.257812 781.207031 C 1128.871094 764.347656 1170.148438 745.304688 1148.808594 748.800781 C 1084.027344 759.410156 1036.210938 795.101562 1039.078125 782.707031 C 1041.636719 771.617188 1057.777344 746.578125 1042.964844 755.589844 C 1017.972656 770.789062 961.527344 814.742188 969.753906 797.542969 C 978.339844 779.601562 1001.632812 755.457031 984.84375 762.585938 C 929.90625 785.902344 882.273438 840.554688 884.660156 826.613281 C 893.445312 775.28125 916.765625 705.058594 933.75 709.242188 C 983.621094 721.511719 1086.179688 741.355469 1098.515625 700.074219 C 1103.257812 684.210938 1097.878906 649.386719 1102.390625 644.597656 C 1116.851562 629.25 1119.164062 628.609375 1116.898438 603.511719 C 1136.976562 583.820312 1146.972656 588.050781 1131.773438 552.121094 C 1153.457031 536.152344 1191.628906 521.195312 1165.703125 484.910156 C 1133.113281 439.300781 1103.933594 395.890625 1103.234375 356.785156 C 1136.472656 308.394531 1175.074219 324.964844 1131.003906 255.582031 C 1137.820312 236.609375 1113.074219 220.539062 1086.902344 187.839844 C 1030.390625 117.230469 938.894531 50.929688 862.578125 37.023438 C 749.804688 16.472656 623.015625 23.554688 521.492188 137.253906 Z M 521.492188 137.253906 " fill-opacity="1" fill-rule="evenodd"/><path fill="#dfab53" d="M 610.070312 256.40625 C 588.285156 222.160156 562.5625 187.46875 530.253906 154.992188 C 647.519531 0.320312 862.601562 13.746094 1004.703125 126.835938 C 928.1875 146.71875 877.46875 183.390625 812.894531 224.429688 C 759.949219 258.074219 716.25 288.144531 698.753906 305.605469 C 676.214844 273.726562 645.335938 258.652344 610.066406 256.40625 Z M 610.070312 256.40625 " fill-opacity="1" fill-rule="evenodd"/><path fill="#b17022" d="M 704.265625 314.058594 C 760.722656 268.070312 908.886719 166.800781 1018.4375 140.265625 L 1071.089844 197.3125 C 1063.265625 202.179688 1001.695312 220.414062 970.097656 235.183594 C 865.265625 284.191406 781.175781 353.503906 698.125 410.023438 C 718.597656 372.730469 710.996094 346.929688 704.265625 314.058594 Z M 704.265625 314.058594 " fill-opacity="1" fill-rule="evenodd"/><path fill="#b5702c" d="M 551.566406 547.109375 C 624.40625 475.027344 921.46875 236.671875 1076.796875 208.8125 C 1098.148438 217.507812 1115.554688 230.183594 1118.480469 242.859375 C 966.367188 272.636719 734.835938 421.816406 570 588.238281 Z M 551.566406 547.109375 " fill-opacity="1" fill-rule="evenodd"/><path fill="#dda447" d="M 613.878906 271.164062 C 660.886719 271.164062 699 310.066406 699 358.0625 C 699 406.054688 660.886719 444.957031 613.878906 444.957031 C 566.867188 444.957031 528.753906 406.054688 528.753906 358.0625 C 528.753906 310.066406 566.867188 271.164062 613.878906 271.164062 Z M 613.878906 271.164062 " fill-opacity="1" fill-rule="evenodd"/><path fill="#1e2523" d="M 613.878906 290.421875 C 650.46875 290.421875 680.132812 320.265625 680.132812 357.078125 C 680.132812 393.890625 650.46875 423.730469 613.878906 423.730469 C 577.285156 423.730469 547.621094 393.890625 547.621094 357.078125 C 547.621094 320.265625 577.285156 290.421875 613.878906 290.421875 Z M 613.878906 290.421875 " fill-opacity="1" fill-rule="evenodd"/><path fill="#e1a44e" d="M 612.5625 299.695312 C 643.335938 299.695312 668.285156 324.792969 668.285156 355.753906 C 668.285156 386.710938 643.335938 411.8125 612.5625 411.8125 C 581.785156 411.8125 556.835938 386.710938 556.835938 355.753906 C 556.835938 324.792969 581.785156 299.695312 612.5625 299.695312 Z M 612.5625 299.695312 " fill-opacity="1" fill-rule="evenodd"/><path fill="#814218" d="M 573.257812 446.285156 L 522.609375 490.503906 L 544.546875 537.824219 L 627.480469 464.414062 C 626.75 461.320312 626.015625 458.222656 625.285156 455.128906 C 609.660156 457.671875 587.15625 452.988281 573.257812 446.285156 Z M 573.257812 446.285156 " fill-opacity="1" fill-rule="evenodd"/><path fill="#cb8637" d="M 492.171875 479.035156 L 548.394531 429.597656 L 564.171875 440.871094 L 520.285156 482.214844 Z M 492.171875 479.035156 " fill-opacity="1" fill-rule="evenodd"/><path fill="#cb8637" d="M 410.132812 481.632812 C 449.242188 465.351562 495.234375 438.078125 537.78125 416.300781 L 543.234375 422.660156 C 517.417969 444.726562 494.46875 468.820312 468.367188 486.257812 C 443.21875 487.03125 422.664062 485.777344 410.132812 481.632812 Z M 410.132812 481.632812 " fill-opacity="1" fill-rule="evenodd"/><path fill="#e1a44e" d="M 362.234375 466.019531 C 415.492188 446.652344 488.539062 406.472656 525.449219 397.511719 L 530.898438 405.027344 C 485.957031 434.511719 440.449219 454.75 395.222656 479.613281 C 380.496094 475.949219 368.929688 471.417969 362.234375 466.019531 Z M 362.234375 466.019531 " fill-opacity="1" fill-rule="evenodd"/><path fill="#cc8836" d="M 310.3125 425.261719 L 515.980469 381.03125 L 518.851562 387.96875 L 345.308594 456.773438 C 329.914062 447.425781 319.398438 437.789062 310.3125 425.261719 Z M 310.3125 425.261719 " fill-opacity="1" fill-rule="evenodd"/><path fill="#cb8637" d="M 299.414062 410.230469 C 292.628906 406.085938 286.984375 385.753906 282.492188 372.648438 C 357.929688 369.855469 443.984375 363.875 513.113281 364.261719 L 517.703125 372.070312 C 444.9375 384.789062 314.523438 411.675781 299.414062 410.230469 Z M 299.414062 410.230469 " fill-opacity="1" fill-rule="evenodd"/><path fill="#cb8637" d="M 513.113281 350.675781 C 441.6875 332.273438 351.90625 319.648438 271.304688 304.136719 C 269.867188 324.179688 273.597656 344.796875 279.050781 358.480469 C 351.046875 358 430.214844 351.738281 515.695312 357.90625 C 514.835938 355.496094 513.972656 353.085938 513.113281 350.675781 Z M 513.113281 350.675781 " fill-opacity="1" fill-rule="evenodd"/><path fill="#e1a44e" d="M 516.839844 330.730469 C 433.945312 300.953125 354.488281 277.539062 275.894531 253.542969 C 272.738281 263.753906 270.15625 278.597656 271.589844 288.523438 C 312.707031 303.460938 434.996094 319.265625 516.273438 341.136719 C 516.652344 337.28125 516.460938 334.582031 516.839844 330.730469 Z M 516.839844 330.730469 " fill-opacity="1" fill-rule="evenodd"/><path fill="#cb8637" d="M 524.011719 316.273438 C 470.085938 279.753906 367.109375 235.714844 301.136719 193.703125 C 293.871094 208.734375 286.605469 223.769531 279.335938 238.796875 C 359.941406 267.035156 449.433594 294.113281 521.144531 323.5 C 522.101562 321.09375 523.058594 318.683594 524.011719 316.273438 Z M 524.011719 316.273438 " fill-opacity="1" fill-rule="evenodd"/><path fill="#cb8637" d="M 528.601562 307.3125 C 462.914062 264.71875 373.421875 226.175781 310.027344 182.136719 C 317.96875 173.464844 332.5 160.164062 345.023438 156.121094 C 402.964844 212.394531 471.808594 251.328125 535.203125 298.929688 Z M 528.601562 307.3125 " fill-opacity="1" fill-rule="evenodd"/><path fill="#e1a44e" d="M 543.804688 291.992188 C 467.605469 236.96875 406.027344 196.976562 359.078125 149.472656 C 366.535156 144.074219 382.601562 141.855469 393.5 140.21875 C 418.835938 157.949219 498.101562 236.96875 550.40625 285.34375 Z M 543.804688 291.992188 " fill-opacity="1" fill-rule="evenodd"/><path fill="#cb8637" d="M 560.15625 275.222656 C 517.320312 241.59375 452.398438 179.34375 413.578125 137.90625 C 421.132812 136.171875 433.847656 135.304688 446.5625 136.171875 C 478.976562 167.78125 532.621094 223.957031 569.621094 270.019531 Z M 560.15625 275.222656 " fill-opacity="1" fill-rule="evenodd"/><path fill="#e1a44e" d="M 577.9375 265.394531 C 531.566406 205.941406 470.277344 143.882812 468.652344 137.90625 C 479.839844 140.027344 491.3125 142.4375 506.515625 149.472656 C 543.804688 183.292969 568.476562 216.824219 599.453125 257.878906 C 594.867188 261.832031 588.839844 264.914062 577.9375 265.394531 Z M 577.9375 265.394531 " fill-opacity="1" fill-rule="evenodd"/><path fill="#333333" d="M 824.480469 542.988281 C 902.683594 521.617188 886.644531 439.332031 846.75 398.324219 L 862.652344 386.703125 C 909.25 459.816406 913.207031 537.25 824.480469 542.988281 Z M 824.480469 542.988281 " fill-opacity="1" fill-rule="evenodd"/><path fill="#333333" d="M 787.109375 529.765625 C 832.832031 520.28125 863.847656 477.933594 833.628906 413.550781 L 840.785156 407.941406 C 889.773438 480.402344 832.304688 546.035156 787.109375 529.765625 Z M 787.109375 529.765625 " fill-opacity="1" fill-rule="evenodd"/><path fill="#333333" d="M 865.039062 553.003906 C 828.855469 578.253906 783.523438 570.640625 756.488281 549.398438 L 760.863281 540.183594 C 790.417969 566.902344 834.289062 561.15625 865.039062 553.003906 Z M 865.039062 553.003906 " fill-opacity="1" fill-rule="evenodd"/><path fill="#edc072" d="M 903.648438 423.996094 C 893.96875 397.410156 890.867188 375.707031 884.996094 360.984375 C 920.890625 332.070312 977.570312 307.691406 1014.503906 290.996094 C 1035.957031 294.75 1059.832031 294.667969 1087.171875 294.929688 C 1091.121094 315.703125 1086.933594 337.875 1086.152344 358.648438 C 1085.734375 369.785156 1108.742188 424.1875 1136.988281 467.679688 C 1145.855469 481.328125 1180.15625 503.132812 1152.8125 524.257812 C 1141.960938 532.644531 1129.175781 532.433594 1116.75 543.316406 C 1109.441406 549.71875 1115.488281 553.746094 1115.410156 560.683594 C 1102.601562 558.546875 1080.097656 593.757812 1065.558594 593.015625 C 1067.449219 603.082031 1073.25 609.53125 1079.476562 615.757812 C 1083.722656 620.007812 1091.984375 623.804688 1091.710938 629.28125 C 1083.011719 639.734375 1080.199219 647.792969 1084.792969 660.597656 C 1092.617188 682.421875 1087.171875 692.554688 1074.324219 705.421875 C 1065.867188 713.890625 1041.929688 711.488281 1020.492188 709.089844 C 1001.515625 706.96875 982.113281 706.746094 965.027344 702.871094 C 946.273438 698.613281 930.863281 692.242188 912.84375 685.441406 C 884.003906 674.566406 851.574219 659.984375 816.757812 644.636719 C 803.378906 638.738281 817.785156 651.132812 830.328125 663.359375 C 837.726562 670.570312 844.109375 677.585938 848.617188 682.585938 C 858.824219 693.910156 886.84375 691.765625 902.121094 702.121094 C 910.855469 708.042969 892.777344 717.300781 884.996094 751.742188 C 872.378906 805.015625 855.136719 854.96875 851.273438 900.691406 C 849.84375 917.652344 855.265625 896.308594 861.671875 885.972656 C 864.71875 881.058594 864.898438 888.417969 874.753906 891.671875 C 881 893.738281 888.019531 903.730469 869.335938 916.699219 C 860.070312 925.570312 863.277344 941.769531 844.660156 943.308594 C 840.992188 947.207031 839.75 951.449219 830.542969 954.996094 C 824.015625 947.964844 799.824219 943.722656 791.214844 960.078125 C 776.320312 938.289062 753.804688 941.628906 740.292969 957.535156 C 731.917969 934.515625 712.109375 931.042969 695.421875 938.738281 C 692.609375 917.800781 668.667969 913.265625 653.730469 918.859375 C 654.570312 904.339844 638.441406 886.675781 616.769531 889.957031 C 618.792969 876.453125 604.546875 863.296875 587.527344 862.007812 C 588.097656 848.3125 577.585938 838.113281 565.34375 835.585938 C 566.503906 822.757812 560.046875 817.609375 553.242188 809.671875 C 587.980469 761.335938 623.066406 692.0625 628.367188 603.933594 C 652.816406 604.988281 723.679688 585.796875 744.328125 618.613281 C 745.5 608.925781 740.160156 588.300781 740.988281 579.257812 C 741.121094 577.816406 744.214844 573.128906 749.28125 573.300781 C 770.957031 574.023438 799.027344 591.46875 839.015625 594.742188 C 908.671875 600.445312 964.28125 538.363281 945.695312 470.597656 C 941.839844 456.53125 918.996094 426.613281 903.648438 423.996094 Z M 903.648438 423.996094 " fill-opacity="1" fill-rule="evenodd"/><path fill="#ba7a2d" d="M 1086.761719 294.925781 C 1080.21875 314.121094 1013.765625 311.382812 994.644531 319.859375 C 963.136719 333.828125 925.585938 362.035156 898.546875 407.324219 L 898.050781 406.957031 C 892.449219 388.078125 889.554688 372.425781 884.996094 360.984375 C 920.890625 332.070312 977.570312 307.691406 1014.503906 290.996094 C 1035.851562 294.730469 1059.59375 294.667969 1086.761719 294.925781 Z M 1086.761719 294.925781 " fill-opacity="1" fill-rule="evenodd"/><path fill="#ba7a2d" d="M 801.78125 587.597656 C 807.226562 604.929688 822.882812 639.945312 854.082031 661.082031 C 842 655.800781 829.539062 650.273438 816.757812 644.636719 C 803.378906 638.738281 817.785156 651.132812 830.328125 663.359375 C 837.726562 670.570312 844.109375 677.585938 848.617188 682.585938 C 858.824219 693.910156 886.84375 691.765625 902.121094 702.121094 C 910.859375 708.042969 892.777344 717.300781 884.996094 751.742188 C 881.9375 764.644531 878.609375 777.351562 875.269531 789.851562 C 850.214844 749.445312 796.238281 726.21875 775.433594 692.183594 C 754.1875 657.429688 754.921875 671.648438 755.320312 701.125 C 756.304688 782.914062 745.527344 849.046875 757.613281 945.828125 C 751.191406 947.710938 745.160156 951.808594 740.292969 957.535156 C 731.917969 934.515625 712.109375 931.042969 695.421875 938.738281 C 692.609375 917.800781 668.667969 913.265625 653.730469 918.859375 C 654.570312 904.339844 638.441406 886.675781 616.769531 889.957031 C 618.796875 876.453125 604.546875 863.296875 587.527344 862.007812 C 588.097656 848.3125 577.585938 838.113281 565.34375 835.585938 C 566.503906 822.757812 560.046875 817.609375 553.242188 809.671875 C 587.980469 761.335938 623.066406 692.0625 628.367188 603.933594 C 652.820312 604.988281 723.683594 585.796875 744.328125 618.613281 C 745.503906 608.925781 740.160156 588.300781 740.992188 579.257812 C 741.121094 577.816406 744.214844 573.128906 749.28125 573.300781 C 763.507812 573.773438 780.488281 581.449219 801.78125 587.597656 Z M 801.78125 587.597656 " fill-opacity="1" fill-rule="evenodd"/><path fill="#1e2523" d="M 1070.9375 334.15625 C 1041.765625 306.960938 992.597656 309.101562 948.660156 343.292969 C 945.164062 346.011719 939.117188 350.578125 945.402344 343.261719 C 971.996094 312.28125 1013.820312 300.507812 1033.734375 302.144531 C 1057.804688 304.132812 1074.523438 309.328125 1081.164062 333.707031 C 1085.558594 349.84375 1079.332031 341.980469 1070.9375 334.15625 Z M 1070.9375 334.15625 " fill-opacity="1" fill-rule="evenodd"/><path fill="#ba7a2d" d="M 1044.246094 399.488281 C 1010.390625 405.5625 978.644531 399.984375 954.675781 393.558594 C 964.121094 383.738281 1020.207031 320.78125 1031.0625 330.328125 C 1049.121094 346.191406 1055.277344 381.3125 1044.246094 399.488281 Z M 1044.246094 399.488281 " fill-opacity="1" fill-rule="evenodd"/><path fill="#1e2523" d="M 992.542969 370.058594 C 1003.945312 358.976562 1020.492188 355.378906 1040.882812 355.757812 C 1053.046875 355.972656 1055.023438 386.960938 1051.023438 399.714844 C 1048.890625 406.515625 1072.8125 410.75 1078.03125 412.414062 C 1081.613281 413.558594 1083.898438 414.726562 1078.320312 415.316406 C 1069.847656 416.214844 1053 413.042969 1039.199219 413.265625 C 1038.710938 418.773438 1037.164062 423.433594 1035.203125 427.25 C 1041.203125 431.28125 1044.835938 433.507812 1047.578125 437.484375 C 1050.546875 441.796875 1042.195312 437.765625 1040.59375 437.285156 C 1038.597656 436.6875 1044.628906 442.972656 1042.164062 442.019531 C 1039.894531 441.148438 1022.289062 429.535156 1019.691406 428.410156 C 1015.09375 426.429688 1025.984375 438.457031 1021.746094 436.148438 C 1018.382812 434.316406 1009.296875 422.933594 1003.722656 420.203125 C 991.464844 414.199219 977.722656 406.890625 956.089844 397.78125 C 951.417969 395.816406 943.800781 389.949219 962.25 395.488281 C 983.058594 401.730469 1021.59375 404.15625 1043.824219 399.707031 C 1048.398438 392.0625 1048.953125 379.28125 1042.410156 364.046875 C 1040.804688 360.304688 1036.878906 360.796875 1030.5625 361.351562 C 1019.960938 362.28125 1004.949219 366.679688 995.992188 370.183594 C 992.246094 371.640625 987.285156 375.164062 992.542969 370.058594 Z M 992.542969 370.058594 " fill-opacity="1" fill-rule="evenodd"/><path fill="#f7ebd7" d="M 1010.132812 407.515625 C 1016.890625 407.425781 1019.347656 409.617188 1017.320312 412.84375 C 1015.847656 415.1875 1013.828125 415.613281 1011.359375 412.625 C 1011.320312 412.582031 1010.121094 411.28125 1008.96875 410.03125 C 1006.449219 407.316406 1005.65625 407.578125 1010.132812 407.515625 Z M 1010.132812 407.515625 " fill-opacity="1" fill-rule="evenodd"/><path fill="#808080" d="M 1003.007812 411.515625 C 1008.152344 413.964844 1017.464844 419.269531 1021.839844 423.050781 C 1026.652344 427.203125 1023.179688 428.347656 1019.332031 426.261719 C 1015.28125 424.066406 1005.988281 418.738281 1001.179688 414.75 C 995.640625 410.15625 997.902344 409.085938 1003.007812 411.515625 Z M 1003.007812 411.515625 " fill-opacity="1" fill-rule="evenodd"/><path fill="#1e2523" d="M 1105.363281 518.578125 C 1110.773438 514.285156 1127.589844 511.550781 1133.453125 513.324219 C 1143.613281 516.398438 1111.289062 530.792969 1104.660156 535.152344 C 1091.3125 543.933594 1093.488281 528.003906 1105.363281 518.578125 Z M 1105.363281 518.578125 " fill-opacity="1" fill-rule="evenodd"/><path fill="#813118" d="M 1091.5 583.03125 C 1091.117188 581.558594 1110.105469 563.667969 1114.179688 563.667969 C 1119.671875 563.667969 1120.578125 568.242188 1121.941406 572.183594 C 1126.941406 586.625 1094.222656 593.410156 1091.5 583.03125 Z M 1091.5 583.03125 " fill-opacity="1" fill-rule="evenodd"/><path fill="#813118" d="M 1065.753906 593.167969 C 1073.699219 599.78125 1077.824219 599.039062 1086.871094 600.617188 C 1119.46875 606.300781 1100.527344 625.59375 1091.800781 628.398438 C 1092.433594 622.320312 1069.9375 614.386719 1065.753906 593.167969 Z M 1065.753906 593.167969 " fill-opacity="1" fill-rule="evenodd"/><path fill="#f7ebd7" d="M 543.183594 839.074219 C 540.703125 841.511719 531.558594 838.386719 529.46875 835.769531 C 521.675781 826.003906 529.449219 811.855469 541.09375 812.261719 C 553.585938 812.691406 564.363281 825.609375 558.992188 832.847656 C 556.375 836.375 547.339844 834.988281 543.183594 839.074219 Z M 543.183594 839.074219 " fill-opacity="1" fill-rule="evenodd"/><path fill="#f7ebd7" d="M 563.574219 877.128906 C 557.703125 876.75 552.417969 875.09375 549.316406 871.109375 C 529.230469 845.308594 562.476562 828.832031 578.375 847.011719 C 581.078125 850.105469 585.816406 858.511719 581.480469 862.03125 C 577.605469 865.171875 575.214844 862.808594 571.640625 868.5 C 568.648438 873.265625 569.167969 877.488281 563.574219 877.128906 Z M 563.574219 877.128906 " fill-opacity="1" fill-rule="evenodd"/><path fill="#f7ebd7" d="M 593.644531 905.457031 C 587.777344 905.078125 582.585938 903.34375 579.386719 899.441406 C 559.433594 875.089844 591.503906 856.761719 607.398438 874.945312 C 610.105469 878.039062 615.882812 886.839844 611.546875 890.363281 C 607.675781 893.5 605.28125 892.980469 601.710938 898.675781 C 598.71875 903.441406 599.238281 905.816406 593.644531 905.457031 Z M 593.644531 905.457031 " fill-opacity="1" fill-rule="evenodd"/><path fill="#f7ebd7" d="M 606.398438 910.089844 C 608 891.980469 628.9375 889.472656 641.722656 901.761719 C 646.644531 906.496094 650.105469 916.46875 647.003906 923.378906 C 642.425781 933.582031 629.667969 937.582031 619.820312 934.140625 C 608.957031 930.347656 605.503906 920.195312 606.398438 910.089844 Z M 606.398438 910.089844 " fill-opacity="1" fill-rule="evenodd"/><path fill="#f7ebd7" d="M 649.277344 937.761719 C 650.878906 919.652344 672.867188 916.222656 685.648438 928.507812 C 690.570312 933.242188 691.285156 943.746094 688.183594 950.65625 C 683.605469 960.859375 671.640625 965.636719 661.785156 962.207031 C 649.75 958.019531 648.382812 947.863281 649.277344 937.761719 Z M 649.277344 937.761719 " fill-opacity="1" fill-rule="evenodd"/><path fill="#f7ebd7" d="M 692.292969 956.738281 C 693.894531 938.628906 716.210938 934.863281 728.660156 947.480469 C 734.628906 953.535156 734.554688 964.433594 731.457031 971.34375 C 726.882812 981.539062 715.308594 984.082031 705.453125 980.652344 C 693.417969 976.46875 691.398438 966.835938 692.292969 956.738281 Z M 692.292969 956.738281 " fill-opacity="1" fill-rule="evenodd"/><path fill="#f7ebd7" d="M 743.761719 970.882812 C 745.414062 951.492188 768.996094 946.683594 781.867188 960.195312 C 788.035156 966.671875 787.445312 979.125 784.246094 986.519531 C 779.515625 997.441406 767.546875 1000.15625 757.367188 996.488281 C 744.925781 992.003906 742.839844 981.691406 743.761719 970.882812 Z M 743.761719 970.882812 " fill-opacity="1" fill-rule="evenodd"/><path fill="#f7ebd7" d="M 794.195312 977.625 C 795.84375 958.238281 820.976562 952.910156 833.84375 966.417969 C 840.011719 972.894531 837.882812 985.867188 834.675781 993.261719 C 829.949219 1004.179688 817.984375 1006.902344 807.800781 1003.230469 C 795.359375 998.746094 793.273438 988.433594 794.195312 977.625 Z M 794.195312 977.625 " fill-opacity="1" fill-rule="evenodd"/><path fill="#f7ebd7" d="M 841.027344 966.472656 C 839.21875 961.4375 842.339844 957.894531 846.375 954.109375 C 850.359375 950.367188 853.941406 947.90625 859.855469 948.027344 C 865.277344 948.140625 870.730469 952.078125 874.761719 956.304688 C 880.925781 962.785156 879.570312 974.84375 876.105469 982.109375 C 871.894531 990.953125 858.667969 995.136719 848.457031 991.558594 C 836.535156 987.386719 847.113281 983.449219 841.027344 966.472656 Z M 841.027344 966.472656 " fill-opacity="1" fill-rule="evenodd"/><path fill="#f7ebd7" d="M 867.015625 944.429688 C 863.074219 940.847656 870.390625 929.882812 874.425781 926.097656 C 878.40625 922.363281 879.160156 918.34375 885.070312 918.464844 C 890.492188 918.574219 895.695312 921.476562 899.71875 925.703125 C 905.882812 932.179688 906.769531 940.996094 902.609375 947.878906 C 900.714844 951.011719 892.273438 961.257812 882.933594 955.773438 C 875.394531 951.34375 875.410156 952.0625 867.015625 944.429688 Z M 867.015625 944.429688 " fill-opacity="1" fill-rule="evenodd"/><path fill="#f7ebd7" d="M 885.285156 913.566406 C 883.402344 911.859375 890.480469 909.003906 889.734375 902.726562 C 889.078125 897.195312 879.273438 893.578125 881.371094 891.609375 C 885.347656 887.878906 886.105469 890.855469 892.019531 889.15625 C 897.230469 887.660156 901.101562 888.804688 905.121094 893.027344 C 911.285156 899.503906 911.933594 907.976562 907.496094 914.683594 C 902.835938 921.734375 899.578125 919.84375 894.730469 917.964844 C 891.683594 916.777344 888.097656 916.121094 885.285156 913.566406 Z M 885.285156 913.566406 " fill-opacity="1" fill-rule="evenodd"/><path fill="#f7ebd7" d="M 865.984375 882.972656 C 863.785156 881.078125 866.441406 876.597656 870.46875 870.816406 C 871.976562 868.652344 871.730469 865.058594 874.519531 864.261719 C 879.726562 862.769531 883.347656 862.617188 887.367188 866.835938 C 893.527344 873.3125 895.917969 879.9375 889.226562 884.34375 C 886.695312 886.007812 883.960938 884.042969 881.277344 885.152344 C 876.375 887.179688 870.460938 886.820312 865.984375 882.972656 Z M 865.984375 882.972656 " fill-opacity="1" fill-rule="evenodd"/><path fill="#edc072" d="M 903.667969 1284.25 C 828 1220.265625 728.453125 1138.527344 644.417969 1063.429688 C 555.332031 983.824219 482.628906 912.007812 436.023438 888.78125 C 462.011719 874.164062 496.125 863.132812 520.253906 840.484375 C 525.972656 843.5625 531.699219 846.640625 537.417969 849.71875 C 528.257812 873.648438 549.710938 890.113281 564.742188 887.917969 C 565.027344 905.300781 579.390625 918.453125 596.710938 916.925781 C 597.03125 940.582031 620.3125 950.804688 639.886719 942.363281 C 639.167969 967.714844 663.621094 981.125 683.632812 969.902344 C 691.140625 993.070312 719.878906 1001.5625 736.519531 981.9375 C 735.160156 1004.273438 769.347656 1018.398438 787.242188 996.695312 C 797.140625 1019.871094 836.214844 1019.476562 843.53125 996.605469 C 858.804688 1007.203125 892.273438 995.792969 883.898438 962.378906 C 902.539062 968.148438 916.738281 951.09375 908.898438 928.742188 C 915.347656 923.679688 919.566406 914.746094 917.925781 900.917969 C 925.984375 901.097656 937.53125 905.957031 947.347656 913.394531 C 957.15625 920.820312 971.417969 968.753906 968.070312 1033.328125 C 963.667969 1118.363281 932.230469 1211.972656 903.667969 1284.25 Z M 903.667969 1284.25 " fill-opacity="1" fill-rule="evenodd"/><path fill="#b47123" d="M 919.59375 1383.246094 C 821.019531 1285.410156 696.613281 1188.433594 594.863281 1089.25 C 521.792969 1018.027344 462.828125 941.160156 408.773438 903.796875 C 413.394531 902.195312 418.015625 900.585938 422.632812 898.984375 C 448.464844 908.960938 528.371094 981.632812 631.269531 1071.3125 C 721.554688 1150.003906 831.863281 1242.164062 907.382812 1311.542969 C 952.691406 1208.804688 1010.738281 1070.75 976.40625 926.273438 L 1003.484375 939.652344 C 1032.332031 1112.128906 967.734375 1280.332031 919.59375 1383.246094 Z M 919.59375 1383.246094 " fill-opacity="1" fill-rule="evenodd"/><path fill="#bd5629" d="M 812.039062 1499.695312 C 710.914062 1400.539062 573.183594 1240.976562 502.160156 1135.324219 C 484.855469 1109.582031 463.949219 1082.179688 446.867188 1059.753906 C 427.292969 1034.050781 413.304688 1012.605469 400.515625 990.597656 C 378.6875 953.015625 345.738281 933.164062 332.90625 927.878906 C 349.566406 912.207031 375.703125 914.480469 396.175781 907.011719 C 411.167969 921.503906 427.859375 934.402344 441.15625 950.484375 C 539.15625 1069.023438 654.027344 1165.632812 760.464844 1259.113281 C 816.191406 1312.976562 867.035156 1351.628906 927.648438 1420.703125 C 977.441406 1264.191406 1045.441406 1141.234375 1021.535156 949.816406 C 1050.652344 964.554688 1056.203125 983.269531 1061.644531 995.933594 C 1079.554688 1037.664062 1126.773438 1177.164062 1122.925781 1192.808594 C 1089.8125 1327.300781 1063.640625 1388.640625 999.101562 1499.695312 Z M 812.039062 1499.695312 " fill-opacity="1" fill-rule="evenodd"/><path fill="#872b08" d="M 377.605469 911.671875 L 377.882812 913.828125 C 451.304688 993.328125 552.132812 1117.253906 630.949219 1183.285156 C 706.289062 1246.382812 763.152344 1303.074219 853.1875 1344.75 C 853.058594 1344.15625 768.894531 1267.261719 760.464844 1259.113281 C 654.027344 1165.632812 539.15625 1069.023438 441.15625 950.484375 C 427.859375 934.402344 411.167969 921.503906 396.175781 907.011719 C 390.328125 909.140625 384.023438 910.484375 377.605469 911.671875 Z M 377.605469 911.671875 " fill-opacity="1" fill-rule="evenodd"/><path fill="#cd9146" d="M 1082.578125 992.390625 C 1108.40625 1088.15625 1135.792969 1178.757812 1174.929688 1284.285156 C 1179.507812 1160.445312 1141.734375 1049.949219 1082.578125 992.390625 Z M 1082.578125 992.390625 " fill-opacity="1" fill-rule="evenodd"/><path fill="#808080" d="M 1352.519531 919.804688 C 1319.230469 906.585938 1276.863281 895.808594 1243.574219 872.835938 C 1287.523438 878.628906 1311.019531 877.109375 1352.519531 919.804688 Z M 1352.519531 919.804688 " fill-opacity="1" fill-rule="evenodd"/><path fill="#808080" d="M 1201.8125 885.644531 C 1250.835938 924.679688 1291.996094 938.101562 1332.546875 980.796875 C 1258.824219 962.730469 1240.800781 941.558594 1201.8125 885.644531 Z M 1201.8125 885.644531 " fill-opacity="1" fill-rule="evenodd"/><path fill="#808080" d="M 1380.359375 1228.449219 C 1307.929688 1053.386719 1252.449219 1014.960938 1177.601562 944.8125 C 1288.019531 984.875 1345.683594 1067.449219 1380.359375 1228.449219 Z M 1380.359375 1228.449219 " fill-opacity="1" fill-rule="evenodd"/><path fill="#808080" d="M 1286.546875 1155.863281 C 1260.117188 1110.722656 1231.269531 1061.925781 1207.257812 1000.320312 C 1256.578125 1040.054688 1281.527344 1096.546875 1286.546875 1155.863281 Z M 1286.546875 1155.863281 " fill-opacity="1" fill-rule="evenodd"/><path fill="#808080" d="M 147.039062 1026.402344 C 168.074219 1013.210938 196.128906 1016.511719 225.582031 1006.613281 C 203.542969 1023.226562 180.945312 1032.277344 147.039062 1026.402344 Z M 147.039062 1026.402344 " fill-opacity="1" fill-rule="evenodd"/><path fill="#808080" d="M 119.453125 1112.160156 C 87.707031 1176.996094 87.519531 1181.308594 35.300781 1230.894531 C 66.675781 1160.078125 60.957031 1162.464844 119.453125 1112.160156 Z M 119.453125 1112.160156 " fill-opacity="1" fill-rule="evenodd"/><path fill="#808080" d="M 423.28125 1349.277344 C 353.222656 1333.71875 355.570312 1333.625 295.304688 1294.386719 C 371.039062 1308.152344 360.828125 1304.066406 423.28125 1349.277344 Z M 423.28125 1349.277344 " fill-opacity="1" fill-rule="evenodd"/><path fill="#808080" d="M 352.375 1481.117188 C 297.742188 1434.253906 288.496094 1430.1875 268.03125 1377.878906 C 317.285156 1418.300781 318.261719 1411.660156 352.375 1481.117188 Z M 352.375 1481.117188 " fill-opacity="1" fill-rule="evenodd"/><path fill="#808080" d="M 132.828125 1268.613281 C 118.421875 1335.4375 135.207031 1350.367188 109.355469 1400.027344 C 105.382812 1346.605469 96.21875 1336.769531 132.828125 1268.613281 Z M 132.828125 1268.613281 " fill-opacity="1" fill-rule="evenodd"/><path fill="#808080" d="M 163.304688 1300.828125 C 210.503906 1323.265625 199.398438 1393.910156 249.070312 1442.042969 C 170.085938 1411.496094 197.011719 1356.578125 163.304688 1300.828125 Z M 163.304688 1300.828125 " fill-opacity="1" fill-rule="evenodd"/><path fill="#9d3b13" d="M 1097.175781 1345.410156 C 1108.398438 1301.039062 1119.800781 1257.460938 1134.355469 1227.363281 C 1169.761719 1317.324219 1196.875 1362.65625 1166.894531 1460.019531 C 1148.921875 1426.8125 1121.964844 1374.867188 1097.175781 1345.410156 Z M 1097.175781 1345.410156 " fill-opacity="1" fill-rule="evenodd"/><path fill="#832e15" d="M 555.035156 1499.695312 C 579.609375 1458.800781 624.621094 1406.625 658.898438 1360.285156 L 702.152344 1408.363281 L 640.917969 1499.695312 Z M 555.035156 1499.695312 " fill-opacity="1" fill-rule="evenodd"/><path fill="#b15126" d="M 434.375 1067.976562 C 476.144531 1121.609375 510.914062 1172.039062 546.320312 1234.644531 C 534.660156 1303.230469 503.917969 1375.027344 480.808594 1421.179688 L 393.671875 1367.976562 C 446.855469 1386.621094 479.09375 1403.730469 480.167969 1396.824219 C 482.882812 1379.355469 460.894531 1370.859375 433.738281 1334 C 457.484375 1240.203125 450.703125 1175.882812 434.375 1067.976562 Z M 434.375 1067.976562 " fill-opacity="1" fill-rule="evenodd"/><path fill="#e5ae62" d="M 379.675781 1295.539062 C 352.75 1286.355469 308.019531 1259.214844 295.082031 1267.976562 C 338.546875 1286.355469 375.011719 1298.960938 415.933594 1326.949219 C 444.089844 1228.671875 432.917969 1173.328125 426.671875 1131.894531 C 417.652344 1072.042969 404.453125 1050.378906 386.945312 1009.804688 C 374.722656 981.488281 354.507812 956.09375 314.800781 937.851562 C 251.410156 964.988281 189.289062 1072.253906 199.039062 1188.492188 C 260.523438 1215.839844 332.1875 1242.550781 379.675781 1295.539062 Z M 379.675781 1295.539062 " fill-opacity="1" fill-rule="evenodd"/><path fill="#bc6f2d" d="M 312.707031 938.785156 C 263.367188 1017.964844 250.921875 1139.445312 258.195312 1212.847656 L 258.195312 1214.570312 C 238.179688 1205.402344 218.117188 1196.976562 199.039062 1188.492188 C 189.394531 1073.53125 250.050781 967.363281 312.707031 938.785156 Z M 312.707031 938.785156 " fill-opacity="1" fill-rule="evenodd"/></svg>