<svg xmlns="http://www.w3.org/2000/svg" xmlns:xlink="http://www.w3.org/1999/xlink" width="500" zoomAndPan="magnify" viewBox="0 0 375 374.999991" height="500" preserveAspectRatio="xMidYMid meet" version="1.0"><defs><clipPath id="624f053814"><path d="M 196.011719 171.464844 L 223.382812 171.464844 L 223.382812 198.832031 L 196.011719 198.832031 Z M 196.011719 171.464844 " clip-rule="nonzero"/></clipPath><clipPath id="75add6a388"><path d="M 209.695312 171.464844 C 202.140625 171.464844 196.011719 177.59375 196.011719 185.148438 C 196.011719 192.707031 202.140625 198.832031 209.695312 198.832031 C 217.253906 198.832031 223.382812 192.707031 223.382812 185.148438 C 223.382812 177.59375 217.253906 171.464844 209.695312 171.464844 Z M 209.695312 171.464844 " clip-rule="nonzero"/></clipPath><clipPath id="cbf2fe18b9"><path d="M 0.0117188 0.464844 L 27.382812 0.464844 L 27.382812 27.832031 L 0.0117188 27.832031 Z M 0.0117188 0.464844 " clip-rule="nonzero"/></clipPath><clipPath id="230843296b"><path d="M 13.695312 0.464844 C 6.140625 0.464844 0.0117188 6.59375 0.0117188 14.148438 C 0.0117188 21.707031 6.140625 27.832031 13.695312 27.832031 C 21.253906 27.832031 27.382812 21.707031 27.382812 14.148438 C 27.382812 6.59375 21.253906 0.464844 13.695312 0.464844 Z M 13.695312 0.464844 " clip-rule="nonzero"/></clipPath><clipPath id="8120cf69d2"><rect x="0" width="28" y="0" height="28"/></clipPath><clipPath id="19c2797cb3"><path d="M 41.25 316 L 337.5 316 L 337.5 375 L 41.25 375 Z M 41.25 316 " clip-rule="nonzero"/></clipPath></defs><g clip-path="url(#624f053814)"><g clip-path="url(#75add6a388)"><g transform="matrix(1, 0, 0, 1, 196, 171)"><g clip-path="url(#8120cf69d2)"><g clip-path="url(#cbf2fe18b9)"><g clip-path="url(#230843296b)"><path fill="#ffffff" d="M 0.0117188 0.464844 L 27.382812 0.464844 L 27.382812 27.832031 L 0.0117188 27.832031 Z M 0.0117188 0.464844 " fill-opacity="1" fill-rule="nonzero"/></g></g></g></g></g></g><path fill="#000000" d="M 193.539062 113.691406 L 198.453125 113.691406 L 200.230469 112.269531 L 193.539062 108.398438 Z M 193.539062 113.691406 " fill-opacity="1" fill-rule="nonzero"/><path fill="#000000" d="M 185.261719 113.691406 L 185.261719 103.605469 L 184.988281 103.449219 L 172.183594 113.691406 Z M 185.261719 113.691406 " fill-opacity="1" fill-rule="nonzero"/><path fill="#000000" d="M 126.566406 229.003906 L 129.371094 204.792969 L 129.371094 149.195312 L 123.953125 152.601562 L 123.953125 137.203125 L 161.375 113.695312 L 167.347656 113.695312 L 167.347656 87.117188 C 168.511719 87.550781 169.757812 88.054688 171.074219 88.621094 L 173.257812 85.226562 C 174.078125 83.945312 175.480469 83.183594 177 83.183594 C 177.664062 83.183594 178.304688 83.328125 178.90625 83.613281 L 184.765625 86.390625 C 186.191406 87.066406 187.105469 88.417969 187.277344 89.902344 L 208.9375 105.308594 L 210.453125 104.09375 C 212.53125 102.433594 213.671875 99.867188 213.519531 97.214844 C 213.367188 94.558594 211.9375 92.144531 209.683594 90.730469 C 203.90625 87.113281 174.386719 69.054688 160.574219 68.929688 C 160.546875 68.929688 160.523438 68.929688 160.496094 68.929688 C 160.324219 68.929688 160.15625 68.941406 159.988281 68.953125 C 159.800781 68.941406 159.613281 68.925781 159.421875 68.925781 L 150.605469 68.925781 C 151.988281 76.785156 155.402344 100.117188 148.242188 104.738281 C 147.804688 105.019531 147.40625 105.277344 147.011719 105.53125 L 143.738281 81.410156 C 142.40625 81.910156 141.011719 82.171875 139.613281 82.171875 C 139.609375 82.171875 139.605469 82.171875 139.605469 82.171875 C 138.203125 82.171875 136.804688 81.910156 135.472656 81.414062 L 132.203125 105.53125 C 131.804688 105.277344 131.40625 105.019531 130.96875 104.738281 C 123.8125 100.117188 127.226562 76.785156 128.605469 68.925781 L 125.269531 68.925781 L 82.855469 54.164062 C 84.992188 39.828125 89.734375 21.496094 95.511719 17.445312 C 96.035156 17.078125 96.164062 17.105469 96.441406 17.179688 C 100.835938 18.28125 105.296875 15.621094 106.402344 11.226562 C 107.511719 6.832031 104.84375 2.371094 100.449219 1.265625 C 95.421875 -0.00390625 90.453125 0.945312 86.089844 4.007812 C 70.910156 14.652344 66.460938 51.605469 65.722656 58.90625 C 65.339844 62.683594 67.601562 66.230469 71.1875 67.480469 L 111.867188 81.636719 L 111.867188 135.503906 L 100.230469 235.914062 C 105.292969 231.105469 112.128906 228.140625 119.648438 228.140625 C 122.035156 228.140625 124.351562 228.441406 126.566406 229.003906 Z M 126.566406 229.003906 " fill-opacity="1" fill-rule="nonzero"/><path fill="#000000" d="M 116.527344 40 C 116.527344 52.746094 126.859375 63.078125 139.605469 63.078125 C 152.355469 63.078125 162.683594 52.746094 162.683594 40 C 162.683594 27.253906 152.355469 16.921875 139.605469 16.921875 C 126.859375 16.921875 116.527344 27.253906 116.527344 40 Z M 148.636719 48.148438 C 138.652344 47.265625 129.042969 47.859375 128.066406 49.417969 L 125.457031 47.789062 C 128.011719 43.699219 142.707031 44.535156 148.90625 45.082031 Z M 148.636719 48.148438 " fill-opacity="1" fill-rule="nonzero"/><path fill="#000000" d="M 134.058594 77.085938 C 135.664062 78.421875 137.628906 79.09375 139.605469 79.09375 C 141.582031 79.09375 143.550781 78.421875 145.15625 77.082031 L 145.453125 76.613281 L 143.503906 68.921875 L 135.707031 68.921875 L 133.757812 76.613281 Z M 134.058594 77.085938 " fill-opacity="1" fill-rule="nonzero"/><path fill="#000000" d="M 191.179688 113.691406 L 191.179688 104.304688 L 204.324219 111.914062 L 207.410156 107.117188 L 184.839844 91.0625 C 185.164062 90.089844 184.734375 88.984375 183.757812 88.523438 L 177.894531 85.742188 C 176.945312 85.292969 175.808594 85.617188 175.242188 86.503906 L 172.21875 91.199219 C 171.652344 92.082031 171.828125 93.25 172.632812 93.929688 L 177.59375 98.109375 C 178.417969 98.804688 179.601562 98.738281 180.355469 98.039062 L 187.621094 102.246094 L 187.621094 113.691406 Z M 191.179688 113.691406 " fill-opacity="1" fill-rule="nonzero"/><path fill="#000000" d="M 147.855469 256.347656 C 147.855469 257.425781 147.785156 258.488281 147.667969 259.535156 C 149.523438 259.152344 151.441406 258.945312 153.410156 258.945312 C 154.804688 258.945312 156.175781 259.050781 157.519531 259.25 L 157.519531 127.878906 L 162.261719 124.902344 L 162.261719 248.664062 C 165.617188 236.835938 176.503906 228.140625 189.394531 228.140625 C 204.949219 228.140625 217.601562 240.796875 217.601562 256.347656 C 217.601562 257.628906 217.507812 258.886719 217.34375 260.121094 C 219.890625 259.359375 222.585938 258.945312 225.378906 258.945312 C 227.347656 258.945312 229.265625 259.152344 231.121094 259.535156 C 231.003906 258.488281 230.9375 257.425781 230.9375 256.347656 C 230.9375 253.453125 231.375 250.660156 232.191406 248.027344 L 232.191406 124.902344 L 237.691406 124.902344 L 237.691406 116.769531 L 162.261719 116.769531 L 127.027344 138.902344 L 127.027344 147.035156 L 132.449219 147.035156 L 132.449219 231.226562 C 141.582031 235.902344 147.855469 245.402344 147.855469 256.347656 Z M 147.855469 256.347656 " fill-opacity="1" fill-rule="nonzero"/><path fill="#000000" d="M 297 255.257812 L 297 249.101562 L 286.402344 249.101562 C 286.929688 251.078125 287.242188 253.136719 287.324219 255.257812 Z M 297 255.257812 " fill-opacity="1" fill-rule="nonzero"/><path fill="#000000" d="M 284.6875 244.402344 L 284.6875 214.207031 L 281.464844 220.320312 L 278.53125 217.074219 L 278.53125 235.890625 C 281.078125 238.304688 283.175781 241.1875 284.6875 244.402344 Z M 284.6875 244.402344 " fill-opacity="1" fill-rule="nonzero"/><path fill="#000000" d="M 280 33.976562 L 259.007812 174.917969 L 265.992188 182.191406 L 271.222656 170.089844 L 269.054688 194.089844 L 268.628906 202.027344 L 280.871094 215.582031 L 302.292969 174.917969 L 283.148438 34.09375 C 285.203125 33.488281 286.707031 31.589844 286.707031 29.339844 C 286.707031 26.597656 284.484375 24.378906 281.746094 24.378906 C 279.007812 24.378906 276.785156 26.597656 276.785156 29.339844 C 276.785156 31.460938 278.125 33.269531 280 33.976562 Z M 280 33.976562 " fill-opacity="1" fill-rule="nonzero"/><path fill="#000000" d="M 96.558594 310.949219 L 101.253906 310.949219 C 101.640625 310.949219 102.035156 310.96875 102.4375 311.003906 C 105.335938 311.132812 108.046875 312.164062 110.289062 314 C 112.035156 315.429688 114.71875 318.300781 117.425781 323.785156 C 120.128906 318.300781 122.816406 315.429688 124.5625 314 C 126.804688 312.164062 129.515625 311.132812 132.410156 311.003906 C 132.8125 310.96875 133.210938 310.949219 133.59375 310.949219 L 138.292969 310.949219 C 130.429688 305.9375 125.203125 297.148438 125.203125 287.152344 C 125.203125 286.519531 125.230469 285.894531 125.273438 285.269531 L 109.578125 285.269531 C 109.617188 285.894531 109.648438 286.519531 109.648438 287.152344 C 109.648438 297.148438 104.417969 305.9375 96.558594 310.949219 Z M 96.558594 310.949219 " fill-opacity="1" fill-rule="nonzero"/><path fill="#000000" d="M 246.378906 311.003906 C 249.277344 311.132812 251.984375 312.164062 254.226562 314 C 255.972656 315.429688 258.65625 318.300781 261.363281 323.785156 C 264.070312 318.300781 266.753906 315.429688 268.5 314 C 270.742188 312.164062 273.453125 311.132812 276.347656 311.003906 C 276.753906 310.964844 277.144531 310.949219 277.535156 310.949219 L 282.230469 310.949219 C 274.371094 305.9375 269.140625 297.148438 269.140625 287.152344 C 269.140625 286.519531 269.167969 285.894531 269.210938 285.269531 L 253.515625 285.269531 C 253.558594 285.894531 253.585938 286.519531 253.585938 287.152344 C 253.585938 297.148438 248.359375 305.9375 240.496094 310.949219 L 245.195312 310.949219 C 245.582031 310.949219 245.972656 310.964844 246.378906 311.003906 Z M 246.378906 311.003906 " fill-opacity="1" fill-rule="nonzero"/><path fill="#000000" d="M 174.410156 311.003906 C 177.304688 311.132812 180.015625 312.164062 182.257812 314 C 184.003906 315.429688 186.6875 318.300781 189.394531 323.785156 C 192.101562 318.300781 194.785156 315.429688 196.53125 314 C 198.773438 312.164062 201.480469 311.132812 204.378906 311.003906 C 204.785156 310.964844 205.175781 310.949219 205.566406 310.949219 L 210.261719 310.949219 C 202.402344 305.9375 197.171875 297.148438 197.171875 287.152344 C 197.171875 286.519531 197.199219 285.894531 197.242188 285.269531 L 181.546875 285.269531 C 181.589844 285.894531 181.617188 286.519531 181.617188 287.152344 C 181.617188 297.148438 176.390625 305.9375 168.527344 310.949219 L 173.222656 310.949219 C 173.613281 310.949219 174.003906 310.964844 174.410156 311.003906 Z M 174.410156 311.003906 " fill-opacity="1" fill-rule="nonzero"/><path fill="#000000" d="M 107.261719 275.816406 C 110.839844 278.097656 115.085938 279.425781 119.644531 279.425781 C 122.074219 279.425781 124.417969 279.046875 126.617188 278.351562 C 129.140625 270.691406 134.859375 264.472656 142.191406 261.28125 C 142.535156 259.691406 142.722656 258.042969 142.722656 256.347656 C 142.722656 243.601562 132.394531 233.269531 119.644531 233.269531 C 106.902344 233.269531 96.566406 243.601562 96.566406 256.347656 C 96.566406 259.152344 97.070312 261.84375 97.988281 264.332031 C 102.011719 267.253906 105.230469 271.214844 107.261719 275.816406 Z M 107.261719 275.816406 " fill-opacity="1" fill-rule="nonzero"/><path fill="#000000" d="M 179.863281 277.363281 C 182.769531 278.683594 185.996094 279.425781 189.394531 279.425781 C 192.792969 279.425781 196.019531 278.683594 198.925781 277.363281 C 201.269531 271.050781 205.816406 265.800781 211.625 262.539062 C 212.171875 260.570312 212.472656 258.492188 212.472656 256.347656 C 212.472656 243.601562 202.140625 233.269531 189.394531 233.269531 C 176.648438 233.269531 166.316406 243.601562 166.316406 256.347656 C 166.316406 258.492188 166.613281 260.570312 167.164062 262.539062 C 172.972656 265.796875 177.519531 271.050781 179.863281 277.363281 Z M 179.863281 277.363281 " fill-opacity="1" fill-rule="nonzero"/><path fill="#000000" d="M 252.171875 278.351562 C 254.371094 279.046875 256.714844 279.425781 259.144531 279.425781 C 263.703125 279.425781 267.949219 278.097656 271.527344 275.816406 C 273.554688 271.214844 276.777344 267.253906 280.800781 264.332031 C 281.71875 261.84375 282.222656 259.152344 282.222656 256.347656 C 282.222656 243.601562 271.890625 233.269531 259.144531 233.269531 C 246.398438 233.269531 236.0625 243.601562 236.0625 256.347656 C 236.0625 258.042969 236.25 259.691406 236.597656 261.28125 C 243.929688 264.472656 249.648438 270.691406 252.171875 278.351562 Z M 252.171875 278.351562 " fill-opacity="1" fill-rule="nonzero"/><g clip-path="url(#19c2797cb3)"><path fill="#000000" d="M 322.945312 317.96875 C 321.488281 316.773438 319.746094 316.175781 318 316.125 C 317.726562 316.09375 317.445312 316.078125 317.164062 316.078125 L 277.535156 316.078125 C 277.25 316.078125 276.972656 316.09375 276.695312 316.125 C 274.949219 316.175781 273.207031 316.773438 271.75 317.96875 C 270.113281 319.304688 265.0625 324.457031 261.363281 339.074219 C 257.664062 324.457031 252.613281 319.304688 250.976562 317.96875 C 249.519531 316.773438 247.777344 316.175781 246.03125 316.125 C 245.757812 316.09375 245.476562 316.078125 245.191406 316.078125 L 205.566406 316.078125 C 205.28125 316.078125 205 316.09375 204.726562 316.125 C 202.980469 316.175781 201.238281 316.773438 199.78125 317.96875 C 198.144531 319.304688 193.09375 324.457031 189.394531 339.074219 C 185.695312 324.457031 180.644531 319.304688 179.007812 317.96875 C 177.550781 316.773438 175.808594 316.175781 174.0625 316.125 C 173.785156 316.09375 173.507812 316.078125 173.222656 316.078125 L 133.59375 316.078125 C 133.3125 316.078125 133.03125 316.09375 132.757812 316.125 C 131.011719 316.175781 129.269531 316.773438 127.8125 317.96875 C 126.175781 319.304688 121.125 324.457031 117.425781 339.074219 C 113.726562 324.457031 108.675781 319.304688 107.039062 317.96875 C 105.582031 316.773438 103.839844 316.175781 102.09375 316.125 C 101.816406 316.09375 101.539062 316.078125 101.253906 316.078125 L 61.625 316.078125 C 61.34375 316.078125 61.0625 316.09375 60.789062 316.125 C 59.042969 316.175781 57.296875 316.773438 55.84375 317.96875 C 53.261719 320.082031 42.175781 331.679688 41.3125 375.027344 L 337.476562 375.027344 C 336.613281 331.679688 325.527344 320.082031 322.945312 317.96875 Z M 322.945312 317.96875 " fill-opacity="1" fill-rule="nonzero"/></g><path fill="#000000" d="M 104.519531 287.152344 C 104.519531 287.910156 104.480469 288.664062 104.40625 289.417969 C 104.332031 290.167969 104.222656 290.914062 104.074219 291.65625 C 103.929688 292.398438 103.746094 293.128906 103.523438 293.851562 C 103.304688 294.578125 103.050781 295.289062 102.761719 295.984375 C 102.472656 296.683594 102.148438 297.367188 101.792969 298.03125 C 101.4375 298.699219 101.050781 299.347656 100.628906 299.976562 C 100.210938 300.605469 99.761719 301.210938 99.28125 301.792969 C 98.800781 302.378906 98.292969 302.9375 97.757812 303.472656 C 97.226562 304.007812 96.664062 304.515625 96.082031 304.992188 C 95.496094 305.472656 94.890625 305.921875 94.261719 306.34375 C 93.632812 306.761719 92.984375 307.152344 92.320312 307.507812 C 91.652344 307.863281 90.96875 308.1875 90.273438 308.476562 C 89.574219 308.765625 88.863281 309.019531 88.140625 309.238281 C 87.417969 309.457031 86.683594 309.640625 85.941406 309.789062 C 85.203125 309.9375 84.453125 310.046875 83.703125 310.121094 C 82.949219 310.195312 82.195312 310.234375 81.441406 310.234375 C 80.683594 310.234375 79.929688 310.195312 79.179688 310.121094 C 78.425781 310.046875 77.679688 309.9375 76.9375 309.789062 C 76.195312 309.640625 75.464844 309.457031 74.742188 309.238281 C 74.019531 309.019531 73.308594 308.765625 72.609375 308.476562 C 71.910156 308.1875 71.226562 307.863281 70.5625 307.507812 C 69.894531 307.152344 69.246094 306.761719 68.617188 306.34375 C 67.992188 305.921875 67.382812 305.472656 66.800781 304.992188 C 66.214844 304.515625 65.65625 304.007812 65.121094 303.472656 C 64.585938 302.9375 64.078125 302.378906 63.601562 301.792969 C 63.121094 301.210938 62.671875 300.605469 62.25 299.976562 C 61.832031 299.347656 61.441406 298.699219 61.085938 298.03125 C 60.730469 297.367188 60.40625 296.683594 60.117188 295.984375 C 59.828125 295.289062 59.574219 294.578125 59.355469 293.851562 C 59.136719 293.128906 58.953125 292.398438 58.804688 291.65625 C 58.65625 290.914062 58.546875 290.167969 58.472656 289.417969 C 58.398438 288.664062 58.363281 287.910156 58.363281 287.152344 C 58.363281 286.398438 58.398438 285.644531 58.472656 284.890625 C 58.546875 284.140625 58.65625 283.394531 58.804688 282.652344 C 58.953125 281.910156 59.136719 281.179688 59.355469 280.453125 C 59.574219 279.730469 59.828125 279.019531 60.117188 278.320312 C 60.40625 277.625 60.730469 276.941406 61.085938 276.273438 C 61.441406 275.609375 61.832031 274.960938 62.25 274.332031 C 62.671875 273.703125 63.121094 273.097656 63.601562 272.511719 C 64.078125 271.929688 64.585938 271.371094 65.121094 270.835938 C 65.65625 270.300781 66.214844 269.792969 66.800781 269.3125 C 67.382812 268.835938 67.992188 268.386719 68.617188 267.964844 C 69.246094 267.546875 69.894531 267.15625 70.5625 266.800781 C 71.226562 266.445312 71.910156 266.121094 72.609375 265.832031 C 73.308594 265.542969 74.019531 265.289062 74.742188 265.070312 C 75.464844 264.851562 76.195312 264.667969 76.9375 264.519531 C 77.679688 264.371094 78.425781 264.261719 79.179688 264.1875 C 79.929688 264.113281 80.683594 264.074219 81.441406 264.074219 C 82.195312 264.074219 82.949219 264.113281 83.703125 264.1875 C 84.453125 264.261719 85.203125 264.371094 85.941406 264.519531 C 86.683594 264.667969 87.417969 264.851562 88.140625 265.070312 C 88.863281 265.289062 89.574219 265.542969 90.273438 265.832031 C 90.96875 266.121094 91.652344 266.445312 92.320312 266.800781 C 92.984375 267.15625 93.632812 267.546875 94.261719 267.964844 C 94.890625 268.386719 95.496094 268.835938 96.082031 269.3125 C 96.664062 269.792969 97.226562 270.300781 97.757812 270.835938 C 98.292969 271.371094 98.800781 271.929688 99.28125 272.511719 C 99.761719 273.097656 100.210938 273.703125 100.628906 274.332031 C 101.050781 274.960938 101.4375 275.609375 101.792969 276.273438 C 102.148438 276.941406 102.472656 277.625 102.761719 278.320312 C 103.050781 279.019531 103.304688 279.730469 103.523438 280.453125 C 103.746094 281.179688 103.929688 281.910156 104.074219 282.652344 C 104.222656 283.394531 104.332031 284.140625 104.40625 284.890625 C 104.480469 285.644531 104.519531 286.398438 104.519531 287.152344 Z M 104.519531 287.152344 " fill-opacity="1" fill-rule="nonzero"/><path fill="#000000" d="M 176.488281 287.152344 C 176.488281 287.910156 176.453125 288.664062 176.378906 289.417969 C 176.304688 290.167969 176.191406 290.914062 176.046875 291.65625 C 175.898438 292.398438 175.714844 293.128906 175.496094 293.851562 C 175.277344 294.578125 175.019531 295.289062 174.730469 295.984375 C 174.441406 296.683594 174.121094 297.367188 173.765625 298.03125 C 173.40625 298.699219 173.019531 299.347656 172.597656 299.976562 C 172.179688 300.605469 171.730469 301.210938 171.25 301.792969 C 170.769531 302.378906 170.265625 302.9375 169.730469 303.472656 C 169.195312 304.007812 168.636719 304.515625 168.050781 304.992188 C 167.46875 305.472656 166.859375 305.921875 166.230469 306.34375 C 165.605469 306.761719 164.957031 307.152344 164.289062 307.507812 C 163.621094 307.863281 162.941406 308.1875 162.242188 308.476562 C 161.542969 308.765625 160.832031 309.019531 160.109375 309.238281 C 159.386719 309.457031 158.652344 309.640625 157.914062 309.789062 C 157.171875 309.9375 156.425781 310.046875 155.671875 310.121094 C 154.921875 310.195312 154.167969 310.234375 153.410156 310.234375 C 152.65625 310.234375 151.902344 310.195312 151.148438 310.121094 C 150.394531 310.046875 149.648438 309.9375 148.90625 309.789062 C 148.167969 309.640625 147.433594 309.457031 146.710938 309.238281 C 145.988281 309.019531 145.277344 308.765625 144.578125 308.476562 C 143.878906 308.1875 143.199219 307.863281 142.53125 307.507812 C 141.863281 307.152344 141.21875 306.761719 140.589844 306.34375 C 139.960938 305.921875 139.355469 305.472656 138.769531 304.992188 C 138.183594 304.515625 137.625 304.007812 137.089844 303.472656 C 136.558594 302.9375 136.050781 302.378906 135.570312 301.792969 C 135.089844 301.210938 134.640625 300.605469 134.222656 299.976562 C 133.800781 299.347656 133.414062 298.699219 133.058594 298.03125 C 132.699219 297.367188 132.378906 296.683594 132.089844 295.984375 C 131.800781 295.289062 131.546875 294.578125 131.324219 293.851562 C 131.105469 293.128906 130.921875 292.398438 130.777344 291.65625 C 130.628906 290.914062 130.515625 290.167969 130.441406 289.417969 C 130.367188 288.664062 130.332031 287.910156 130.332031 287.152344 C 130.332031 286.398438 130.367188 285.644531 130.441406 284.890625 C 130.515625 284.140625 130.628906 283.394531 130.777344 282.652344 C 130.921875 281.910156 131.105469 281.179688 131.324219 280.453125 C 131.546875 279.730469 131.800781 279.019531 132.089844 278.320312 C 132.378906 277.625 132.699219 276.941406 133.058594 276.273438 C 133.414062 275.609375 133.800781 274.960938 134.222656 274.332031 C 134.640625 273.703125 135.089844 273.097656 135.570312 272.511719 C 136.050781 271.929688 136.558594 271.371094 137.089844 270.835938 C 137.625 270.300781 138.183594 269.792969 138.769531 269.3125 C 139.355469 268.835938 139.960938 268.386719 140.589844 267.964844 C 141.21875 267.546875 141.863281 267.15625 142.53125 266.800781 C 143.199219 266.445312 143.878906 266.121094 144.578125 265.832031 C 145.277344 265.542969 145.988281 265.289062 146.710938 265.070312 C 147.433594 264.851562 148.167969 264.667969 148.90625 264.519531 C 149.648438 264.371094 150.394531 264.261719 151.148438 264.1875 C 151.902344 264.113281 152.65625 264.074219 153.410156 264.074219 C 154.167969 264.074219 154.921875 264.113281 155.671875 264.1875 C 156.425781 264.261719 157.171875 264.371094 157.914062 264.519531 C 158.652344 264.667969 159.386719 264.851562 160.109375 265.070312 C 160.832031 265.289062 161.542969 265.542969 162.242188 265.832031 C 162.941406 266.121094 163.621094 266.445312 164.289062 266.800781 C 164.957031 267.15625 165.605469 267.546875 166.230469 267.964844 C 166.859375 268.386719 167.46875 268.835938 168.050781 269.3125 C 168.636719 269.792969 169.195312 270.300781 169.730469 270.835938 C 170.265625 271.371094 170.769531 271.929688 171.25 272.511719 C 171.730469 273.097656 172.179688 273.703125 172.597656 274.332031 C 173.019531 274.960938 173.40625 275.609375 173.765625 276.273438 C 174.121094 276.941406 174.441406 277.625 174.730469 278.320312 C 175.019531 279.019531 175.277344 279.730469 175.496094 280.453125 C 175.714844 281.179688 175.898438 281.910156 176.046875 282.652344 C 176.191406 283.394531 176.304688 284.140625 176.378906 284.890625 C 176.453125 285.644531 176.488281 286.398438 176.488281 287.152344 Z M 176.488281 287.152344 " fill-opacity="1" fill-rule="nonzero"/><path fill="#000000" d="M 248.457031 287.152344 C 248.457031 287.910156 248.421875 288.664062 248.347656 289.417969 C 248.273438 290.167969 248.160156 290.914062 248.015625 291.65625 C 247.867188 292.398438 247.683594 293.128906 247.464844 293.851562 C 247.246094 294.578125 246.992188 295.289062 246.703125 295.984375 C 246.410156 296.683594 246.089844 297.367188 245.734375 298.03125 C 245.375 298.699219 244.988281 299.347656 244.570312 299.976562 C 244.148438 300.605469 243.699219 301.210938 243.21875 301.792969 C 242.738281 302.378906 242.234375 302.9375 241.699219 303.472656 C 241.164062 304.007812 240.605469 304.515625 240.019531 304.992188 C 239.4375 305.472656 238.828125 305.921875 238.203125 306.34375 C 237.574219 306.761719 236.925781 307.152344 236.257812 307.507812 C 235.59375 307.863281 234.910156 308.1875 234.210938 308.476562 C 233.511719 308.765625 232.800781 309.019531 232.078125 309.238281 C 231.355469 309.457031 230.625 309.640625 229.882812 309.789062 C 229.140625 309.9375 228.394531 310.046875 227.640625 310.121094 C 226.890625 310.195312 226.136719 310.234375 225.378906 310.234375 C 224.625 310.234375 223.871094 310.195312 223.117188 310.121094 C 222.363281 310.046875 221.617188 309.9375 220.878906 309.789062 C 220.136719 309.640625 219.402344 309.457031 218.679688 309.238281 C 217.957031 309.019531 217.246094 308.765625 216.546875 308.476562 C 215.847656 308.1875 215.167969 307.863281 214.5 307.507812 C 213.832031 307.152344 213.1875 306.761719 212.558594 306.34375 C 211.929688 305.921875 211.324219 305.472656 210.738281 304.992188 C 210.15625 304.515625 209.59375 304.007812 209.058594 303.472656 C 208.527344 302.9375 208.019531 302.378906 207.539062 301.792969 C 207.058594 301.210938 206.609375 300.605469 206.191406 299.976562 C 205.769531 299.347656 205.382812 298.699219 205.027344 298.03125 C 204.667969 297.367188 204.347656 296.683594 204.058594 295.984375 C 203.769531 295.289062 203.515625 294.578125 203.292969 293.851562 C 203.074219 293.128906 202.890625 292.398438 202.746094 291.65625 C 202.597656 290.914062 202.484375 290.167969 202.414062 289.417969 C 202.339844 288.664062 202.300781 287.910156 202.300781 287.152344 C 202.300781 286.398438 202.339844 285.644531 202.414062 284.890625 C 202.484375 284.140625 202.597656 283.394531 202.746094 282.652344 C 202.890625 281.910156 203.074219 281.179688 203.292969 280.453125 C 203.515625 279.730469 203.769531 279.019531 204.058594 278.320312 C 204.347656 277.625 204.667969 276.941406 205.027344 276.273438 C 205.382812 275.609375 205.769531 274.960938 206.191406 274.332031 C 206.609375 273.703125 207.058594 273.097656 207.539062 272.511719 C 208.019531 271.929688 208.527344 271.371094 209.058594 270.835938 C 209.59375 270.300781 210.15625 269.792969 210.738281 269.3125 C 211.324219 268.835938 211.929688 268.386719 212.558594 267.964844 C 213.1875 267.546875 213.832031 267.15625 214.5 266.800781 C 215.167969 266.445312 215.847656 266.121094 216.546875 265.832031 C 217.246094 265.542969 217.957031 265.289062 218.679688 265.070312 C 219.402344 264.851562 220.136719 264.667969 220.878906 264.519531 C 221.617188 264.371094 222.363281 264.261719 223.117188 264.1875 C 223.871094 264.113281 224.625 264.074219 225.378906 264.074219 C 226.136719 264.074219 226.890625 264.113281 227.640625 264.1875 C 228.394531 264.261719 229.140625 264.371094 229.882812 264.519531 C 230.625 264.667969 231.355469 264.851562 232.078125 265.070312 C 232.800781 265.289062 233.511719 265.542969 234.210938 265.832031 C 234.910156 266.121094 235.59375 266.445312 236.257812 266.800781 C 236.925781 267.15625 237.574219 267.546875 238.203125 267.964844 C 238.828125 268.386719 239.4375 268.835938 240.019531 269.3125 C 240.605469 269.792969 241.164062 270.300781 241.699219 270.835938 C 242.234375 271.371094 242.738281 271.929688 243.21875 272.511719 C 243.699219 273.097656 244.148438 273.703125 244.570312 274.332031 C 244.988281 274.960938 245.375 275.609375 245.734375 276.273438 C 246.089844 276.941406 246.410156 277.625 246.703125 278.320312 C 246.992188 279.019531 247.246094 279.730469 247.464844 280.453125 C 247.683594 281.179688 247.867188 281.910156 248.015625 282.652344 C 248.160156 283.394531 248.273438 284.140625 248.347656 284.890625 C 248.421875 285.644531 248.457031 286.398438 248.457031 287.152344 Z M 248.457031 287.152344 " fill-opacity="1" fill-rule="nonzero"/><path fill="#000000" d="M 320.425781 287.152344 C 320.425781 287.910156 320.390625 288.664062 320.316406 289.417969 C 320.242188 290.167969 320.132812 290.914062 319.984375 291.65625 C 319.835938 292.398438 319.652344 293.128906 319.433594 293.851562 C 319.214844 294.578125 318.960938 295.289062 318.671875 295.984375 C 318.382812 296.683594 318.058594 297.367188 317.703125 298.03125 C 317.34375 298.699219 316.957031 299.347656 316.539062 299.976562 C 316.117188 300.605469 315.667969 301.210938 315.1875 301.792969 C 314.707031 302.378906 314.203125 302.9375 313.667969 303.472656 C 313.132812 304.007812 312.574219 304.515625 311.988281 304.992188 C 311.40625 305.472656 310.796875 305.921875 310.171875 306.34375 C 309.542969 306.761719 308.894531 307.152344 308.226562 307.507812 C 307.5625 307.863281 306.878906 308.1875 306.179688 308.476562 C 305.480469 308.765625 304.769531 309.019531 304.046875 309.238281 C 303.324219 309.457031 302.59375 309.640625 301.851562 309.789062 C 301.109375 309.9375 300.363281 310.046875 299.609375 310.121094 C 298.859375 310.195312 298.105469 310.234375 297.347656 310.234375 C 296.59375 310.234375 295.839844 310.195312 295.085938 310.121094 C 294.335938 310.046875 293.585938 309.9375 292.847656 309.789062 C 292.105469 309.640625 291.371094 309.457031 290.648438 309.238281 C 289.925781 309.019531 289.214844 308.765625 288.515625 308.476562 C 287.820312 308.1875 287.136719 307.863281 286.46875 307.507812 C 285.804688 307.152344 285.15625 306.761719 284.527344 306.34375 C 283.898438 305.921875 283.292969 305.472656 282.707031 304.992188 C 282.125 304.515625 281.5625 304.007812 281.03125 303.472656 C 280.496094 302.9375 279.988281 302.378906 279.507812 301.792969 C 279.027344 301.210938 278.578125 300.605469 278.160156 299.976562 C 277.738281 299.347656 277.351562 298.699219 276.996094 298.03125 C 276.640625 297.367188 276.316406 296.683594 276.027344 295.984375 C 275.738281 295.289062 275.484375 294.578125 275.265625 293.851562 C 275.042969 293.128906 274.859375 292.398438 274.714844 291.65625 C 274.566406 290.914062 274.457031 290.167969 274.382812 289.417969 C 274.308594 288.664062 274.269531 287.910156 274.269531 287.152344 C 274.269531 286.398438 274.308594 285.644531 274.382812 284.890625 C 274.457031 284.140625 274.566406 283.394531 274.714844 282.652344 C 274.859375 281.910156 275.042969 281.179688 275.265625 280.453125 C 275.484375 279.730469 275.738281 279.019531 276.027344 278.320312 C 276.316406 277.625 276.640625 276.941406 276.996094 276.273438 C 277.351562 275.609375 277.738281 274.960938 278.160156 274.332031 C 278.578125 273.703125 279.027344 273.097656 279.507812 272.511719 C 279.988281 271.929688 280.496094 271.371094 281.03125 270.835938 C 281.5625 270.300781 282.125 269.792969 282.707031 269.3125 C 283.292969 268.835938 283.898438 268.386719 284.527344 267.964844 C 285.15625 267.546875 285.804688 267.15625 286.46875 266.800781 C 287.136719 266.445312 287.820312 266.121094 288.515625 265.832031 C 289.214844 265.542969 289.925781 265.289062 290.648438 265.070312 C 291.371094 264.851562 292.105469 264.667969 292.847656 264.519531 C 293.585938 264.371094 294.335938 264.261719 295.085938 264.1875 C 295.839844 264.113281 296.59375 264.074219 297.347656 264.074219 C 298.105469 264.074219 298.859375 264.113281 299.609375 264.1875 C 300.363281 264.261719 301.109375 264.371094 301.851562 264.519531 C 302.59375 264.667969 303.324219 264.851562 304.046875 265.070312 C 304.769531 265.289062 305.480469 265.542969 306.179688 265.832031 C 306.878906 266.121094 307.5625 266.445312 308.226562 266.800781 C 308.894531 267.15625 309.542969 267.546875 310.171875 267.964844 C 310.796875 268.386719 311.40625 268.835938 311.988281 269.3125 C 312.574219 269.792969 313.132812 270.300781 313.667969 270.835938 C 314.203125 271.371094 314.707031 271.929688 315.1875 272.511719 C 315.667969 273.097656 316.117188 273.703125 316.539062 274.332031 C 316.957031 274.960938 317.34375 275.609375 317.703125 276.273438 C 318.058594 276.941406 318.382812 277.625 318.671875 278.320312 C 318.960938 279.019531 319.214844 279.730469 319.433594 280.453125 C 319.652344 281.179688 319.835938 281.910156 319.984375 282.652344 C 320.132812 283.394531 320.242188 284.140625 320.316406 284.890625 C 320.390625 285.644531 320.425781 286.398438 320.425781 287.152344 Z M 320.425781 287.152344 " fill-opacity="1" fill-rule="nonzero"/></svg>