<svg version="1.1" viewBox="0.0 0.0 600.0 371.0" fill="none" stroke="none" stroke-linecap="square" stroke-miterlimit="10" width="600" height="371" xmlns:xlink="http://www.w3.org/1999/xlink" xmlns="http://www.w3.org/2000/svg"><path fill="#ffffff" d="M0 0L600.0 0L600.0 371.0L0 371.0L0 0Z" fill-rule="nonzero"/><path stroke="#333333" stroke-width="1.0" stroke-linecap="butt" d="M84.5 300.5L581.5 300.5" fill-rule="nonzero"/><path stroke="#cccccc" stroke-width="1.0" stroke-linecap="butt" d="M84.5 240.5L581.5 240.5" fill-rule="nonzero"/><path stroke="#cccccc" stroke-width="1.0" stroke-linecap="butt" d="M84.5 181.5L581.5 181.5" fill-rule="nonzero"/><path stroke="#cccccc" stroke-width="1.0" stroke-linecap="butt" d="M84.5 121.5L581.5 121.5" fill-rule="nonzero"/><path stroke="#cccccc" stroke-width="1.0" stroke-linecap="butt" d="M84.5 61.5L581.5 61.5" fill-rule="nonzero"/><clipPath id="id_0"><path d="M84.55 61.916668L581.45 61.916668L581.45 300.45L84.55 300.45L84.55 61.916668Z" clip-rule="nonzero"/></clipPath><path stroke="#000000" stroke-width="2.0" stroke-linecap="butt" stroke-opacity="0.0" clip-path="url(#id_0)" d="M177.0 300.0L117.0 300.0L117.0 94.0C117.0 92.89543 117.89543 92.0 119.0 92.0L175.0 92.0C176.10457 92.0 177.0 92.89543 177.0 94.0Z" fill-rule="nonzero"/><path fill="#4285f4" clip-path="url(#id_0)" d="M177.0 300.0L117.0 300.0L117.0 94.0C117.0 92.89543 117.89543 92.0 119.0 92.0L175.0 92.0C176.10457 92.0 177.0 92.89543 177.0 94.0Z" fill-rule="nonzero"/><path stroke="#000000" stroke-width="2.0" stroke-linecap="butt" stroke-opacity="0.0" clip-path="url(#id_0)" d="M270.0 300.0L210.0 300.0L210.0 118.0C210.0 116.89543 210.89543 116.0 212.0 116.0L268.0 116.0C269.10458 116.0 270.0 116.89543 270.0 118.0Z" fill-rule="nonzero"/><path fill="#4285f4" clip-path="url(#id_0)" d="M270.0 300.0L210.0 300.0L210.0 118.0C210.0 116.89543 210.89543 116.0 212.0 116.0L268.0 116.0C269.10458 116.0 270.0 116.89543 270.0 118.0Z" fill-rule="nonzero"/><path stroke="#000000" stroke-width="2.0" stroke-linecap="butt" stroke-opacity="0.0" clip-path="url(#id_0)" d="M363.0 300.0L303.0 300.0L303.0 146.0C303.0 144.89543 303.89542 144.0 305.0 144.0L361.0 144.0C362.10458 144.0 363.0 144.89543 363.0 146.0Z" fill-rule="nonzero"/><path fill="#4285f4" clip-path="url(#id_0)" d="M363.0 300.0L303.0 300.0L303.0 146.0C303.0 144.89543 303.89542 144.0 305.0 144.0L361.0 144.0C362.10458 144.0 363.0 144.89543 363.0 146.0Z" fill-rule="nonzero"/><path stroke="#000000" stroke-width="2.0" stroke-linecap="butt" stroke-opacity="0.0" clip-path="url(#id_0)" d="M456.0 300.0L396.0 300.0L396.0 183.0C396.0 181.89543 396.89542 181.0 398.0 181.0L454.0 181.0C455.10458 181.0 456.0 181.89543 456.0 183.0Z" fill-rule="nonzero"/><path fill="#4285f4" clip-path="url(#id_0)" d="M456.0 300.0L396.0 300.0L396.0 183.0C396.0 181.89543 396.89542 181.0 398.0 181.0L454.0 181.0C455.10458 181.0 456.0 181.89543 456.0 183.0Z" fill-rule="nonzero"/><path stroke="#000000" stroke-width="2.0" stroke-linecap="butt" stroke-opacity="0.0" clip-path="url(#id_0)" d="M549.0 300.0L489.0 300.0L489.0 192.0C489.0 190.89543 489.89542 190.0 491.0 190.0L547.0 190.0C548.10455 190.0 549.0 190.89543 549.0 192.0Z" fill-rule="nonzero"/><path fill="#4285f4" clip-path="url(#id_0)" d="M549.0 300.0L489.0 300.0L489.0 192.0C489.0 190.89543 489.89542 190.0 491.0 190.0L547.0 190.0C548.10455 190.0 549.0 190.89543 549.0 192.0Z" fill-rule="nonzero"/><path fill="#000000" d="M323.84375 349.45L323.84375 345.8094L320.53125 340.85626L321.92188 340.85626L323.60938 343.45Q324.07812 344.16876 324.48438 344.90314Q324.875 344.23126 325.42188 343.3875L327.09375 340.85626L328.40625 340.85626L324.98438 345.8094L324.98438 349.45L323.84375 349.45ZM332.54688 347.45L333.64062 347.575Q333.39062 348.52814 332.6875 349.0594Q331.98438 349.59064 330.90625 349.59064Q329.54688 349.59064 328.73438 348.7469Q327.9375 347.90314 327.9375 346.3875Q327.9375 344.825 328.75 343.96564Q329.5625 343.09064 330.84375 343.09064Q332.09375 343.09064 332.875 343.9344Q333.67188 344.77814 333.67188 346.325Q333.67188 346.41876 333.67188 346.60626L329.03125 346.60626Q329.09375 347.6375 329.60938 348.1844Q330.125 348.71564 330.90625 348.71564Q331.48438 348.71564 331.89062 348.41876Q332.3125 348.10626 332.54688 347.45ZM329.09375 345.7469L332.5625 345.7469Q332.5 344.95 332.17188 344.5594Q331.65625 343.95 330.85938 343.95Q330.125 343.95 329.625 344.4344Q329.14062 344.91876 329.09375 345.7469ZM339.35938 348.6844Q338.76562 349.1844 338.21875 349.3875Q337.6875 349.59064 337.0625 349.59064Q336.03125 349.59064 335.48438 349.09064Q334.9375 348.59064 334.9375 347.8094Q334.9375 347.35626 335.14062 346.98126Q335.34375 346.59064 335.6875 346.3719Q336.03125 346.1375 336.45312 346.02814Q336.75 345.9344 337.39062 345.85626Q338.65625 345.71564 339.26562 345.4969Q339.26562 345.27814 339.26562 345.23126Q339.26562 344.575 338.96875 344.3094Q338.5625 343.96564 337.76562 343.96564Q337.03125 343.96564 336.67188 344.23126Q336.3125 344.48126 336.14062 345.1375L335.10938 344.9969Q335.25 344.34064 335.57812 343.9344Q335.90625 343.52814 336.51562 343.3094Q337.125 343.09064 337.92188 343.09064Q338.71875 343.09064 339.21875 343.27814Q339.71875 343.46564 339.95312 343.7469Q340.1875 344.02814 340.28125 344.46564Q340.32812 344.73126 340.32812 345.4344L340.32812 346.84064Q340.32812 348.3094 340.39062 348.7Q340.46875 349.09064 340.67188 349.45L339.5625 349.45Q339.40625 349.1219 339.35938 348.6844ZM339.26562 346.325Q338.6875 346.5594 337.54688 346.73126Q336.89062 346.825 336.625 346.95Q336.35938 347.0594 336.20312 347.27814Q336.0625 347.4969 336.0625 347.77814Q336.0625 348.2 336.375 348.48126Q336.70312 348.7625 337.3125 348.7625Q337.92188 348.7625 338.39062 348.4969Q338.875 348.23126 339.09375 347.7625Q339.26562 347.40314 339.26562 346.71564L339.26562 346.325ZM342.28125 349.45L342.28125 343.23126L343.23438 343.23126L343.23438 344.16876Q343.59375 343.5125 343.89062 343.3094Q344.20312 343.09064 344.57812 343.09064Q345.10938 343.09064 345.65625 343.41876L345.29688 344.40314Q344.90625 344.16876 344.53125 344.16876Q344.17188 344.16876 343.89062 344.3875Q343.625 344.59064 343.51562 344.96564Q343.32812 345.52814 343.32812 346.1844L343.32812 349.45L342.28125 349.45Z" fill-rule="nonzero"/><path fill="#000000" d="M29.550013 264.26147L20.956263 264.26147L20.956263 261.01147Q20.956263 260.16772 21.034388 259.7146Q21.143763 259.07397 21.440638 258.6521Q21.737513 258.2146 22.268763 257.9646Q22.800013 257.69897 23.440638 257.69897Q24.534388 257.69897 25.300013 258.4021Q26.050013 259.0896 26.050013 260.91772L26.050013 263.12085L29.550013 263.12085L29.550013 264.26147ZM25.050013 263.12085L25.050013 260.9021Q25.050013 259.79272 24.643763 259.3396Q24.221888 258.87085 23.471888 258.87085Q22.940638 258.87085 22.565638 259.1521Q22.175013 259.41772 22.050013 259.85522Q21.971888 260.1521 21.971888 260.91772L21.971888 263.12085L25.050013 263.12085ZM27.550013 252.13646L27.675013 251.04271Q28.628138 251.29271 29.159388 251.99583Q29.690638 252.69896 29.690638 253.77708Q29.690638 255.13646 28.846888 255.94896Q28.003138 256.74585 26.487513 256.74585Q24.925013 256.74585 24.065638 255.93333Q23.190638 255.12083 23.190638 253.83958Q23.190638 252.58958 24.034388 251.80833Q24.878138 251.01146 26.425013 251.01146Q26.518763 251.01146 26.706263 251.01146L26.706263 255.65208Q27.737513 255.58958 28.284388 255.07396Q28.815638 254.55833 28.815638 253.77708Q28.815638 253.19896 28.518763 252.79271Q28.206263 252.37083 27.550013 252.13646ZM25.846888 255.58958L25.846888 252.12083Q25.050013 252.18333 24.659388 252.51146Q24.050013 253.02708 24.050013 253.82396Q24.050013 254.55833 24.534388 255.05833Q25.018763 255.54271 25.846888 255.58958ZM29.550013 249.40208L23.331263 249.40208L23.331263 248.44896L24.268763 248.44896Q23.612513 248.08958 23.409388 247.79271Q23.190638 247.48021 23.190638 247.10521Q23.190638 246.57396 23.518763 246.02708L24.503138 246.38646Q24.268763 246.77708 24.268763 247.15208Q24.268763 247.51146 24.487513 247.79271Q24.690638 248.05833 25.065638 248.16771Q25.628138 248.35521 26.284388 248.35521L29.550013 248.35521L29.550013 249.40208ZM26.534388 236.12083L26.831263 234.99583Q28.221888 235.35521 28.956263 236.27708Q29.690638 237.19896 29.690638 238.54271Q29.690638 239.93333 29.128138 240.80833Q28.565638 241.68333 27.503138 242.13646Q26.425013 242.58958 25.190638 242.58958Q23.846888 242.58958 22.846888 242.07396Q21.846888 241.55833 21.331263 240.62083Q20.815638 239.66771 20.815638 238.52708Q20.815638 237.24583 21.471888 236.37083Q22.128138 235.48021 23.315638 235.13646L23.581263 236.26146Q22.643763 236.55833 22.221888 237.13646Q21.784388 237.69896 21.784388 238.55833Q21.784388 239.54271 22.268763 240.21458Q22.737513 240.87083 23.534388 241.15208Q24.331263 241.41771 25.190638 241.41771Q26.284388 241.41771 27.096888 241.10521Q27.909388 240.77708 28.315638 240.10521Q28.721888 239.43333 28.721888 238.63646Q28.721888 237.68333 28.175013 237.02708Q27.628138 236.35521 26.534388 236.12083ZM28.784388 229.32396Q29.284388 229.91771 29.487513 230.46458Q29.690638 230.99583 29.690638 231.62083Q29.690638 232.65208 29.190638 233.19896Q28.690638 233.74583 27.909388 233.74583Q27.456263 233.74583 27.081263 233.54271Q26.690638 233.33958 26.471888 232.99583Q26.237513 232.65208 26.128138 232.23021Q26.034388 231.93333 25.956263 231.29271Q25.815638 230.02708 25.596888 229.41771Q25.378138 229.41771 25.331263 229.41771Q24.675013 229.41771 24.409388 229.71458Q24.065638 230.12083 24.065638 230.91771Q24.065638 231.65208 24.331263 232.01146Q24.581263 232.37083 25.237513 232.54271L25.096888 233.57396Q24.440638 233.43333 24.034388 233.10521Q23.628138 232.77708 23.409388 232.16771Q23.190638 231.55833 23.190638 230.76146Q23.190638 229.96458 23.378138 229.46458Q23.565638 228.96458 23.846888 228.73021Q24.128138 228.49583 24.565638 228.40208Q24.831263 228.35521 25.534388 228.35521L26.940638 228.35521Q28.409388 228.35521 28.800013 228.29271Q29.190638 228.21458 29.550013 228.01146L29.550013 229.12083Q29.221888 229.27708 28.784388 229.32396ZM26.425013 229.41771Q26.659388 229.99583 26.831263 231.13646Q26.925013 231.79271 27.050013 232.05833Q27.159388 232.32396 27.378138 232.48021Q27.596888 232.62083 27.878138 232.62083Q28.300013 232.62083 28.581263 232.30833Q28.862513 231.98021 28.862513 231.37083Q28.862513 230.76146 28.596888 230.29271Q28.331263 229.80833 27.862513 229.58958Q27.503138 229.41771 26.815638 229.41771L26.425013 229.41771ZM31.940638 226.38646L23.331263 226.38646L23.331263 225.43333L24.128138 225.43333Q23.659388 225.08958 23.425013 224.66771Q23.190638 224.23021 23.190638 223.62083Q23.190638 222.82396 23.596888 222.21458Q24.003138 221.60521 24.753138 221.30833Q25.503138 220.99583 26.393763 220.99583Q27.346888 220.99583 28.112513 221.33958Q28.878138 221.66771 29.284388 222.32396Q29.690638 222.98021 29.690638 223.69896Q29.690638 224.23021 29.471888 224.65208Q29.237513 225.07396 28.909388 225.33958L31.940638 225.33958L31.940638 226.38646ZM26.471888 225.43333Q27.675013 225.43333 28.253138 224.94896Q28.815638 224.46458 28.815638 223.77708Q28.815638 223.07396 28.221888 222.57396Q27.628138 222.07396 26.378138 222.07396Q25.190638 222.07396 24.612513 222.55833Q24.018763 223.04271 24.018763 223.73021Q24.018763 224.40208 24.643763 224.91771Q25.268763 225.43333 26.471888 225.43333ZM22.175013 219.38646L20.956263 219.38646L20.956263 218.32396L22.175013 218.32396L22.175013 219.38646ZM29.550013 219.38646L23.331263 219.38646L23.331263 218.32396L29.550013 218.32396L29.550013 219.38646ZM28.612513 214.08958L29.534388 213.93333Q29.628138 214.38646 29.628138 214.73021Q29.628138 215.30833 29.456263 215.62083Q29.268763 215.93333 28.971888 216.07396Q28.675013 216.19896 27.721888 216.19896L24.143763 216.19896L24.143763 216.96458L23.331263 216.96458L23.331263 216.19896L21.784388 216.19896L21.159388 215.15208L23.331263 215.15208L23.331263 214.08958L24.143763 214.08958L24.143763 215.15208L27.784388 215.15208Q28.237513 215.15208 28.362513 215.10521Q28.487513 215.04271 28.565638 214.91771Q28.643763 214.79271 28.643763 214.55833Q28.643763 214.37083 28.612513 214.08958ZM28.784388 209.32396Q29.284388 209.91771 29.487513 210.46458Q29.690638 210.99583 29.690638 211.62083Q29.690638 212.65208 29.190638 213.19896Q28.690638 213.74583 27.909388 213.74583Q27.456263 213.74583 27.081263 213.54271Q26.690638 213.33958 26.471888 212.99583Q26.237513 212.65208 26.128138 212.23021Q26.034388 211.93333 25.956263 211.29271Q25.815638 210.02708 25.596888 209.41771Q25.378138 209.41771 25.331263 209.41771Q24.675013 209.41771 24.409388 209.71458Q24.065638 210.12083 24.065638 210.91771Q24.065638 211.65208 24.331263 212.01146Q24.581263 212.37083 25.237513 212.54271L25.096888 213.57396Q24.440638 213.43333 24.034388 213.10521Q23.628138 212.77708 23.409388 212.16771Q23.190638 211.55833 23.190638 210.76146Q23.190638 209.96458 23.378138 209.46458Q23.565638 208.96458 23.846888 208.73021Q24.128138 208.49583 24.565638 208.40208Q24.831263 208.35521 25.534388 208.35521L26.940638 208.35521Q28.409388 208.35521 28.800013 208.29271Q29.190638 208.21458 29.550013 208.01146L29.550013 209.12083Q29.221888 209.27708 28.784388 209.32396ZM26.425013 209.41771Q26.659388 209.99583 26.831263 211.13646Q26.925013 211.79271 27.050013 212.05833Q27.159388 212.32396 27.378138 212.48021Q27.596888 212.62083 27.878138 212.62083Q28.300013 212.62083 28.581263 212.30833Q28.862513 211.98021 28.862513 211.37083Q28.862513 210.76146 28.596888 210.29271Q28.331263 209.80833 27.862513 209.58958Q27.503138 209.41771 26.815638 209.41771L26.425013 209.41771ZM29.550013 203.26146L20.956263 203.26146L20.956263 200.01146Q20.956263 199.16771 21.034388 198.71458Q21.143763 198.07396 21.440638 197.65208Q21.737513 197.21458 22.268763 196.96458Q22.800013 196.69896 23.440638 196.69896Q24.534388 196.69896 25.300013 197.40208Q26.050013 198.08958 26.050013 199.91771L26.050013 202.12083L29.550013 202.12083L29.550013 203.26146ZM25.050013 202.12083L25.050013 199.90208Q25.050013 198.79271 24.643763 198.33958Q24.221888 197.87083 23.471888 197.87083Q22.940638 197.87083 22.565638 198.15208Q22.175013 198.41771 22.050013 198.85521Q21.971888 199.15208 21.971888 199.91771L21.971888 202.12083L25.050013 202.12083ZM27.550013 191.13646L27.675013 190.04271Q28.628138 190.29271 29.159388 190.99583Q29.690638 191.69896 29.690638 192.77708Q29.690638 194.13646 28.846888 194.94896Q28.003138 195.74583 26.487513 195.74583Q24.925013 195.74583 24.065638 194.93333Q23.190638 194.12083 23.190638 192.83958Q23.190638 191.58958 24.034388 190.80833Q24.878138 190.01146 26.425013 190.01146Q26.518763 190.01146 26.706263 190.01146L26.706263 194.65208Q27.737513 194.58958 28.284388 194.07396Q28.815638 193.55833 28.815638 192.77708Q28.815638 192.19896 28.518763 191.79271Q28.206263 191.37083 27.550013 191.13646ZM25.846888 194.58958L25.846888 191.12083Q25.050013 191.18333 24.659388 191.51146Q24.050013 192.02708 24.050013 192.82396Q24.050013 193.55833 24.534388 194.05833Q25.018763 194.54271 25.846888 194.58958ZM29.550013 188.40208L23.331263 188.40208L23.331263 187.44896L24.268763 187.44896Q23.612513 187.08958 23.409388 186.79271Q23.190638 186.48021 23.190638 186.10521Q23.190638 185.57396 23.518763 185.02708L24.503138 185.38646Q24.268763 185.77708 24.268763 186.15208Q24.268763 186.51146 24.487513 186.79271Q24.690638 187.05833 25.065638 187.16771Q25.628138 187.35521 26.284388 187.35521L29.550013 187.35521L29.550013 188.40208ZM27.690638 184.80833L27.534388 183.77708Q28.159388 183.68333 28.487513 183.29271Q28.815638 182.88646 28.815638 182.15208Q28.815638 181.43333 28.534388 181.08958Q28.237513 180.73021 27.831263 180.73021Q27.471888 180.73021 27.268763 181.04271Q27.128138 181.26146 26.909388 182.12083Q26.612513 183.27708 26.409388 183.73021Q26.190638 184.16771 25.815638 184.40208Q25.440638 184.63646 24.971888 184.63646Q24.565638 184.63646 24.206263 184.44896Q23.846888 184.26146 23.612513 183.93333Q23.440638 183.68333 23.315638 183.26146Q23.190638 182.83958 23.190638 182.33958Q23.190638 181.62083 23.409388 181.07396Q23.612513 180.51146 23.971888 180.24583Q24.331263 179.98021 24.925013 179.88646L25.065638 180.91771Q24.596888 180.98021 24.331263 181.32396Q24.050013 181.65208 24.050013 182.27708Q24.050013 182.99583 24.300013 183.30833Q24.534388 183.62083 24.862513 183.62083Q25.065638 183.62083 25.221888 183.49583Q25.393763 183.35521 25.503138 183.08958Q25.565638 182.93333 25.768763 182.15208Q26.081263 181.02708 26.268763 180.58958Q26.456263 180.15208 26.815638 179.90208Q27.175013 179.65208 27.721888 179.65208Q28.253138 179.65208 28.721888 179.96458Q29.175013 180.26146 29.440638 180.83958Q29.690638 181.41771 29.690638 182.15208Q29.690638 183.37083 29.190638 184.01146Q28.675013 184.63646 27.690638 184.80833ZM26.440638 177.77708Q24.706263 177.77708 23.878138 176.82396Q23.190638 176.02708 23.190638 174.87083Q23.190638 173.58958 24.034388 172.77708Q24.862513 171.94896 26.346888 171.94896Q27.550013 171.94896 28.237513 172.30833Q28.925013 172.66771 29.315638 173.37083Q29.690638 174.05833 29.690638 174.87083Q29.690638 176.16771 28.862513 176.98021Q28.018763 177.77708 26.440638 177.77708ZM26.440638 176.69896Q27.628138 176.69896 28.221888 176.18333Q28.815638 175.65208 28.815638 174.87083Q28.815638 174.07396 28.221888 173.55833Q27.628138 173.04271 26.409388 173.04271Q25.253138 173.04271 24.659388 173.57396Q24.065638 174.08958 24.065638 174.87083Q24.065638 175.65208 24.659388 176.18333Q25.237513 176.69896 26.440638 176.69896ZM29.550013 170.38646L23.331263 170.38646L23.331263 169.44896L24.206263 169.44896Q23.190638 168.76146 23.190638 167.46458Q23.190638 166.90208 23.393763 166.43333Q23.596888 165.94896 23.925013 165.71458Q24.253138 165.48021 24.690638 165.38646Q24.987513 165.33958 25.721888 165.33958L29.550013 165.33958L29.550013 166.38646L25.768763 166.38646Q25.112513 166.38646 24.800013 166.51146Q24.487513 166.63646 24.300013 166.94896Q24.096888 167.26146 24.096888 167.68333Q24.096888 168.35521 24.534388 168.85521Q24.956263 169.33958 26.143763 169.33958L29.550013 169.33958L29.550013 170.38646ZM28.784388 159.32396Q29.284388 159.91771 29.487513 160.46458Q29.690638 160.99583 29.690638 161.62083Q29.690638 162.65208 29.190638 163.19896Q28.690638 163.74583 27.909388 163.74583Q27.456263 163.74583 27.081263 163.54271Q26.690638 163.33958 26.471888 162.99583Q26.237513 162.65208 26.128138 162.23021Q26.034388 161.93333 25.956263 161.29271Q25.815638 160.02708 25.596888 159.41771Q25.378138 159.41771 25.331263 159.41771Q24.675013 159.41771 24.409388 159.71458Q24.065638 160.12083 24.065638 160.91771Q24.065638 161.65208 24.331263 162.01146Q24.581263 162.37083 25.237513 162.54271L25.096888 163.57396Q24.440638 163.43333 24.034388 163.10521Q23.628138 162.77708 23.409388 162.16771Q23.190638 161.55833 23.190638 160.76146Q23.190638 159.96458 23.378138 159.46458Q23.565638 158.96458 23.846888 158.73021Q24.128138 158.49583 24.565638 158.40208Q24.831263 158.35521 25.534388 158.35521L26.940638 158.35521Q28.409388 158.35521 28.800013 158.29271Q29.190638 158.21458 29.550013 158.01146L29.550013 159.12083Q29.221888 159.27708 28.784388 159.32396ZM26.425013 159.41771Q26.659388 159.99583 26.831263 161.13646Q26.925013 161.79271 27.050013 162.05833Q27.159388 162.32396 27.378138 162.48021Q27.596888 162.62083 27.878138 162.62083Q28.300013 162.62083 28.581263 162.30833Q28.862513 161.98021 28.862513 161.37083Q28.862513 160.76146 28.596888 160.29271Q28.331263 159.80833 27.862513 159.58958Q27.503138 159.41771 26.815638 159.41771L26.425013 159.41771ZM29.550013 156.41771L20.956263 156.41771L20.956263 155.35521L29.550013 155.35521L29.550013 156.41771ZM29.550013 150.05833L20.956263 150.05833L20.956263 148.93333L29.550013 148.93333L29.550013 150.05833ZM29.550013 147.38646L23.331263 147.38646L23.331263 146.44896L24.206263 146.44896Q23.190638 145.76146 23.190638 144.46458Q23.190638 143.90208 23.393763 143.43333Q23.596888 142.94896 23.925013 142.71458Q24.253138 142.48021 24.690638 142.38646Q24.987513 142.33958 25.721888 142.33958L29.550013 142.33958L29.550013 143.38646L25.768763 143.38646Q25.112513 143.38646 24.800013 143.51146Q24.487513 143.63646 24.300013 143.94896Q24.096888 144.26146 24.096888 144.68333Q24.096888 145.35521 24.534388 145.85521Q24.956263 146.33958 26.143763 146.33958L29.550013 146.33958L29.550013 147.38646ZM27.268763 136.32396L27.409388 135.29271Q28.471888 135.46458 29.081263 136.16771Q29.690638 136.87083 29.690638 137.88646Q29.690638 139.16771 28.862513 139.94896Q28.018763 140.71458 26.456263 140.71458Q25.456263 140.71458 24.706263 140.38646Q23.940638 140.04271 23.565638 139.37083Q23.190638 138.68333 23.190638 137.87083Q23.190638 136.87083 23.706263 136.23021Q24.206263 135.57396 25.159388 135.38646L25.315638 136.41771Q24.690638 136.55833 24.378138 136.93333Q24.050013 137.30833 24.050013 137.83958Q24.050013 138.63646 24.628138 139.13646Q25.190638 139.63646 26.425013 139.63646Q27.690638 139.63646 28.253138 139.15208Q28.815638 138.66771 28.815638 137.90208Q28.815638 137.27708 28.440638 136.87083Q28.065638 136.44896 27.268763 136.32396ZM26.440638 134.77708Q24.706263 134.77708 23.878138 133.82396Q23.190638 133.02708 23.190638 131.87083Q23.190638 130.58958 24.034388 129.77708Q24.862513 128.94896 26.346888 128.94896Q27.550013 128.94896 28.237513 129.30833Q28.925013 129.66771 29.315638 130.37083Q29.690638 131.05833 29.690638 131.87083Q29.690638 133.16771 28.862513 133.98021Q28.018763 134.77708 26.440638 134.77708ZM26.440638 133.69896Q27.628138 133.69896 28.221888 133.18333Q28.815638 132.65208 28.815638 131.87083Q28.815638 131.07396 28.221888 130.55833Q27.628138 130.04271 26.409388 130.04271Q25.253138 130.04271 24.659388 130.57396Q24.065638 131.08958 24.065638 131.87083Q24.065638 132.65208 24.659388 133.18333Q25.237513 133.69896 26.440638 133.69896ZM29.550013 127.38646L23.331263 127.38646L23.331263 126.44896L24.206263 126.44896Q23.737513 126.152084 23.471888 125.66771Q23.190638 125.183334 23.190638 124.558334Q23.190638 123.870834 23.471888 123.433334Q23.753138 122.98021 24.268763 122.808334Q23.190638 122.058334 23.190638 120.88646Q23.190638 119.94896 23.706263 119.464584Q24.206263 118.964584 25.284388 118.964584L29.550013 118.964584L29.550013 120.01146L25.628138 120.01146Q25.003138 120.01146 24.721888 120.120834Q24.440638 120.214584 24.268763 120.48021Q24.096888 120.745834 24.096888 121.120834Q24.096888 121.777084 24.534388 122.214584Q24.971888 122.63646 25.940638 122.63646L29.550013 122.63646L29.550013 123.69896L25.503138 123.69896Q24.800013 123.69896 24.456263 123.964584Q24.096888 124.214584 24.096888 124.79271Q24.096888 125.245834 24.331263 125.620834Q24.565638 125.995834 25.018763 126.16771Q25.471888 126.339584 26.315638 126.339584L29.550013 126.339584L29.550013 127.38646ZM27.550013 112.13646L27.675013 111.04271Q28.628138 111.29271 29.159388 111.995834Q29.690638 112.69896 29.690638 113.777084Q29.690638 115.13646 28.846888 115.94896Q28.003138 116.745834 26.487513 116.745834Q24.925013 116.745834 24.065638 115.933334Q23.190638 115.120834 23.190638 113.839584Q23.190638 112.589584 24.034388 111.808334Q24.878138 111.01146 26.425013 111.01146Q26.518763 111.01146 26.706263 111.01146L26.706263 115.652084Q27.737513 115.589584 28.284388 115.07396Q28.815638 114.558334 28.815638 113.777084Q28.815638 113.19896 28.518763 112.79271Q28.206263 112.370834 27.550013 112.13646ZM25.846888 115.589584L25.846888 112.120834Q25.050013 112.183334 24.659388 112.51146Q24.050013 113.027084 24.050013 113.82396Q24.050013 114.558334 24.534388 115.058334Q25.018763 115.54271 25.846888 115.589584Z" fill-rule="nonzero"/><path fill="#000000" d="M67.53438 305.6844L67.53438 304.6375Q66.75313 304.52814 66.25313 304.27814Q65.75313 304.02814 65.39375 303.46564Q65.03438 302.8875 64.97188 302.0594L66.03438 301.8719Q66.15938 302.71564 66.47188 303.10626Q66.925 303.66876 67.53438 303.7469L67.53438 300.3875Q66.89375 300.2625 66.20625 299.8719Q65.70625 299.59064 65.425 299.10626Q65.15938 298.60626 65.15938 297.96564Q65.15938 296.84064 65.95625 296.15314Q66.4875 295.6844 67.53438 295.575L67.53438 295.075L68.15938 295.075L68.15938 295.575Q69.08125 295.65314 69.6125 296.10626Q70.31563 296.6844 70.45625 297.6844L69.3625 297.85626Q69.26875 297.23126 68.97188 296.90314Q68.675 296.575 68.15938 296.46564L68.15938 299.4969Q68.95625 299.7 69.22188 299.8094Q69.70625 300.02814 70.01875 300.34064Q70.33125 300.65314 70.4875 301.09064Q70.65938 301.5125 70.65938 302.0125Q70.65938 303.10626 69.95625 303.84064Q69.26875 304.575 68.15938 304.6219L68.15938 305.6844L67.53438 305.6844ZM67.53438 296.45Q66.925 296.54376 66.56563 296.95Q66.22188 297.34064 66.22188 297.8875Q66.22188 298.41876 66.51875 298.79376Q66.81563 299.15314 67.53438 299.3719L67.53438 296.45ZM68.15938 303.7469Q68.76875 303.66876 69.175 303.21564Q69.58125 302.7469 69.58125 302.075Q69.58125 301.4969 69.28438 301.15314Q69.00313 300.8094 68.15938 300.52814L68.15938 303.7469ZM72.05 300.21564Q72.05 298.6844 72.3625 297.7625Q72.675 296.825 73.28438 296.325Q73.90938 295.825 74.84688 295.825Q75.53438 295.825 76.05 296.10626Q76.58125 296.3875 76.925 296.91876Q77.26875 297.4344 77.45625 298.1844Q77.64375 298.9344 77.64375 300.21564Q77.64375 301.73126 77.33125 302.65314Q77.03438 303.575 76.40938 304.09064Q75.8 304.59064 74.84688 304.59064Q73.6125 304.59064 72.89375 303.7Q72.05 302.6375 72.05 300.21564ZM73.12813 300.21564Q73.12813 302.325 73.62813 303.02814Q74.12813 303.73126 74.84688 303.73126Q75.58125 303.73126 76.06563 303.02814Q76.56563 302.325 76.56563 300.21564Q76.56563 298.09064 76.06563 297.40314Q75.58125 296.7 74.83125 296.7Q74.1125 296.7 73.675 297.3094Q73.12813 298.09064 73.12813 300.21564Z" fill-rule="nonzero"/><path fill="#000000" d="M53.534374 246.05104L53.534374 245.00417Q52.753124 244.89479 52.253124 244.64479Q51.753124 244.39479 51.39375 243.83229Q51.034374 243.25417 50.971874 242.42604L52.034374 242.23854Q52.159374 243.08229 52.471874 243.47292Q52.925 244.03542 53.534374 244.11354L53.534374 240.75417Q52.89375 240.62917 52.20625 240.23854Q51.70625 239.95729 51.425 239.47292Q51.159374 238.97292 51.159374 238.33229Q51.159374 237.20729 51.95625 236.51979Q52.4875 236.05104 53.534374 235.94167L53.534374 235.44167L54.159374 235.44167L54.159374 235.94167Q55.08125 236.01979 55.6125 236.47292Q56.315624 237.05104 56.45625 238.05104L55.3625 238.22292Q55.26875 237.59792 54.971874 237.26979Q54.675 236.94167 54.159374 236.83229L54.159374 239.86354Q54.95625 240.06667 55.221874 240.17604Q55.70625 240.39479 56.01875 240.70729Q56.33125 241.01979 56.4875 241.45729Q56.659374 241.87917 56.659374 242.37917Q56.659374 243.47292 55.95625 244.20729Q55.26875 244.94167 54.159374 244.98854L54.159374 246.05104L53.534374 246.05104ZM53.534374 236.81667Q52.925 236.91042 52.565624 237.31667Q52.221874 237.70729 52.221874 238.25417Q52.221874 238.78542 52.51875 239.16042Q52.815624 239.51979 53.534374 239.73854L53.534374 236.81667ZM54.159374 244.11354Q54.76875 244.03542 55.175 243.58229Q55.58125 243.11354 55.58125 242.44167Q55.58125 241.86354 55.284374 241.51979Q55.003124 241.17604 54.159374 240.89479L54.159374 244.11354ZM63.596874 243.80104L63.596874 244.81667L57.909374 244.81667Q57.909374 244.44167 58.034374 244.08229Q58.253124 243.50417 58.721874 242.94167Q59.20625 242.37917 60.1125 241.64479Q61.51875 240.48854 62.003124 239.81667Q62.503124 239.14479 62.503124 238.55104Q62.503124 237.92604 62.05 237.50417Q61.596874 237.06667 60.878124 237.06667Q60.1125 237.06667 59.659374 237.51979Q59.20625 237.97292 59.190624 238.78542L58.1125 238.67604Q58.221874 237.45729 58.940624 236.83229Q59.675 236.19167 60.909374 236.19167Q62.14375 236.19167 62.8625 236.87917Q63.58125 237.56667 63.58125 238.58229Q63.58125 239.09792 63.3625 239.59792Q63.159374 240.08229 62.659374 240.64479Q62.175 241.19167 61.05 242.14479Q60.096874 242.94167 59.815624 243.23854Q59.55 243.51979 59.378124 243.80104L63.596874 243.80104ZM65.05 240.58229Q65.05 239.05104 65.3625 238.12917Q65.675 237.19167 66.28438 236.69167Q66.90938 236.19167 67.84688 236.19167Q68.53438 236.19167 69.05 236.47292Q69.58125 236.75417 69.925 237.28542Q70.26875 237.80104 70.45625 238.55104Q70.64375 239.30104 70.64375 240.58229Q70.64375 242.09792 70.33125 243.01979Q70.03438 243.94167 69.40938 244.45729Q68.8 244.95729 67.84688 244.95729Q66.6125 244.95729 65.89375 244.06667Q65.05 243.00417 65.05 240.58229ZM66.12813 240.58229Q66.12813 242.69167 66.62813 243.39479Q67.12813 244.09792 67.84688 244.09792Q68.58125 244.09792 69.06563 243.39479Q69.56563 242.69167 69.56563 240.58229Q69.56563 238.45729 69.06563 237.76979Q68.58125 237.06667 67.83125 237.06667Q67.1125 237.06667 66.675 237.67604Q66.12813 238.45729 66.12813 240.58229ZM72.05 240.58229Q72.05 239.05104 72.3625 238.12917Q72.675 237.19167 73.28438 236.69167Q73.90938 236.19167 74.84688 236.19167Q75.53438 236.19167 76.05 236.47292Q76.58125 236.75417 76.925 237.28542Q77.26875 237.80104 77.45625 238.55104Q77.64375 239.30104 77.64375 240.58229Q77.64375 242.09792 77.33125 243.01979Q77.03438 243.94167 76.40938 244.45729Q75.8 244.95729 74.84688 244.95729Q73.6125 244.95729 72.89375 244.06667Q72.05 243.00417 72.05 240.58229ZM73.12813 240.58229Q73.12813 242.69167 73.62813 243.39479Q74.12813 244.09792 74.84688 244.09792Q75.58125 244.09792 76.06563 243.39479Q76.56563 242.69167 76.56563 240.58229Q76.56563 238.45729 76.06563 237.76979Q75.58125 237.06667 74.83125 237.06667Q74.1125 237.06667 73.675 237.67604Q73.12813 238.45729 73.12813 240.58229Z" fill-rule="nonzero"/><path fill="#000000" d="M53.534374 186.41771L53.534374 185.37083Q52.753124 185.26146 52.253124 185.01146Q51.753124 184.76146 51.39375 184.19896Q51.034374 183.62083 50.971874 182.79271L52.034374 182.60521Q52.159374 183.44896 52.471874 183.83958Q52.925 184.40208 53.534374 184.48021L53.534374 181.12083Q52.89375 180.99583 52.20625 180.60521Q51.70625 180.32396 51.425 179.83958Q51.159374 179.33958 51.159374 178.69896Q51.159374 177.57396 51.95625 176.88646Q52.4875 176.41771 53.534374 176.30833L53.534374 175.80833L54.159374 175.80833L54.159374 176.30833Q55.08125 176.38646 55.6125 176.83958Q56.315624 177.41771 56.45625 178.41771L55.3625 178.58958Q55.26875 177.96458 54.971874 177.63646Q54.675 177.30833 54.159374 177.19896L54.159374 180.23021Q54.95625 180.43333 55.221874 180.54271Q55.70625 180.76146 56.01875 181.07396Q56.33125 181.38646 56.4875 181.82396Q56.659374 182.24583 56.659374 182.74583Q56.659374 183.83958 55.95625 184.57396Q55.26875 185.30833 54.159374 185.35521L54.159374 186.41771L53.534374 186.41771ZM53.534374 177.18333Q52.925 177.27708 52.565624 177.68333Q52.221874 178.07396 52.221874 178.62083Q52.221874 179.15208 52.51875 179.52708Q52.815624 179.88646 53.534374 180.10521L53.534374 177.18333ZM54.159374 184.48021Q54.76875 184.40208 55.175 183.94896Q55.58125 183.48021 55.58125 182.80833Q55.58125 182.23021 55.284374 181.88646Q55.003124 181.54271 54.159374 181.26146L54.159374 184.48021ZM61.425 185.18333L61.425 183.12083L57.70625 183.12083L57.70625 182.15208L61.628124 176.58958L62.4875 176.58958L62.4875 182.15208L63.64375 182.15208L63.64375 183.12083L62.4875 183.12083L62.4875 185.18333L61.425 185.18333ZM61.425 182.15208L61.425 178.29271L58.7375 182.15208L61.425 182.15208ZM65.05 180.94896Q65.05 179.41771 65.3625 178.49583Q65.675 177.55833 66.28438 177.05833Q66.90938 176.55833 67.84688 176.55833Q68.53438 176.55833 69.05 176.83958Q69.58125 177.12083 69.925 177.65208Q70.26875 178.16771 70.45625 178.91771Q70.64375 179.66771 70.64375 180.94896Q70.64375 182.46458 70.33125 183.38646Q70.03438 184.30833 69.40938 184.82396Q68.8 185.32396 67.84688 185.32396Q66.6125 185.32396 65.89375 184.43333Q65.05 183.37083 65.05 180.94896ZM66.12813 180.94896Q66.12813 183.05833 66.62813 183.76146Q67.12813 184.46458 67.84688 184.46458Q68.58125 184.46458 69.06563 183.76146Q69.56563 183.05833 69.56563 180.94896Q69.56563 178.82396 69.06563 178.13646Q68.58125 177.43333 67.83125 177.43333Q67.1125 177.43333 66.675 178.04271Q66.12813 178.82396 66.12813 180.94896ZM72.05 180.94896Q72.05 179.41771 72.3625 178.49583Q72.675 177.55833 73.28438 177.05833Q73.90938 176.55833 74.84688 176.55833Q75.53438 176.55833 76.05 176.83958Q76.58125 177.12083 76.925 177.65208Q77.26875 178.16771 77.45625 178.91771Q77.64375 179.66771 77.64375 180.94896Q77.64375 182.46458 77.33125 183.38646Q77.03438 184.30833 76.40938 184.82396Q75.8 185.32396 74.84688 185.32396Q73.6125 185.32396 72.89375 184.43333Q72.05 183.37083 72.05 180.94896ZM73.12813 180.94896Q73.12813 183.05833 73.62813 183.76146Q74.12813 184.46458 74.84688 184.46458Q75.58125 184.46458 76.06563 183.76146Q76.56563 183.05833 76.56563 180.94896Q76.56563 178.82396 76.06563 178.13646Q75.58125 177.43333 74.83125 177.43333Q74.1125 177.43333 73.675 178.04271Q73.12813 178.82396 73.12813 180.94896Z" fill-rule="nonzero"/><path fill="#000000" d="M53.534374 126.78438L53.534374 125.7375Q52.753124 125.62813 52.253124 125.37813Q51.753124 125.12813 51.39375 124.56563Q51.034374 123.9875 50.971874 123.15938L52.034374 122.97188Q52.159374 123.81563 52.471874 124.20625Q52.925 124.76875 53.534374 124.84688L53.534374 121.4875Q52.89375 121.3625 52.20625 120.97188Q51.70625 120.69063 51.425 120.20625Q51.159374 119.70625 51.159374 119.06563Q51.159374 117.94063 51.95625 117.25313Q52.4875 116.78438 53.534374 116.675L53.534374 116.175L54.159374 116.175L54.159374 116.675Q55.08125 116.75313 55.6125 117.20625Q56.315624 117.78438 56.45625 118.78438L55.3625 118.95625Q55.26875 118.33125 54.971874 118.00313Q54.675 117.675 54.159374 117.56563L54.159374 120.59688Q54.95625 120.8 55.221874 120.90938Q55.70625 121.12813 56.01875 121.44063Q56.33125 121.75313 56.4875 122.19063Q56.659374 122.6125 56.659374 123.1125Q56.659374 124.20625 55.95625 124.94063Q55.26875 125.675 54.159374 125.72188L54.159374 126.78438L53.534374 126.78438ZM53.534374 117.55Q52.925 117.64375 52.565624 118.05Q52.221874 118.44063 52.221874 118.9875Q52.221874 119.51875 52.51875 119.89375Q52.815624 120.25313 53.534374 120.47188L53.534374 117.55ZM54.159374 124.84688Q54.76875 124.76875 55.175 124.31563Q55.58125 123.84688 55.58125 123.175Q55.58125 122.59688 55.284374 122.25313Q55.003124 121.90938 54.159374 121.62813L54.159374 124.84688ZM63.51875 119.06563L62.471874 119.14375Q62.33125 118.51875 62.08125 118.2375Q61.64375 117.78438 61.01875 117.78438Q60.51875 117.78438 60.128124 118.06563Q59.64375 118.44063 59.346874 119.14375Q59.065624 119.83125 59.05 121.1125Q59.425 120.53438 59.971874 120.25313Q60.534374 119.97188 61.14375 119.97188Q62.190624 119.97188 62.925 120.75313Q63.675 121.53438 63.675 122.75313Q63.675 123.56563 63.315624 124.26875Q62.971874 124.95625 62.3625 125.33125Q61.753124 125.69063 60.9875 125.69063Q59.659374 125.69063 58.83125 124.72188Q58.003124 123.75313 58.003124 121.53438Q58.003124 119.03438 58.925 117.90938Q59.721874 116.925 61.08125 116.925Q62.096874 116.925 62.7375 117.50313Q63.39375 118.06563 63.51875 119.06563ZM59.221874 122.76875Q59.221874 123.31563 59.440624 123.81563Q59.675 124.3 60.08125 124.56563Q60.503124 124.83125 60.971874 124.83125Q61.628124 124.83125 62.1125 124.3Q62.596874 123.75313 62.596874 122.83125Q62.596874 121.94063 62.1125 121.425Q61.64375 120.90938 60.925 120.90938Q60.20625 120.90938 59.70625 121.425Q59.221874 121.94063 59.221874 122.76875ZM65.05 121.31563Q65.05 119.78438 65.3625 118.8625Q65.675 117.925 66.28438 117.425Q66.90938 116.925 67.84688 116.925Q68.53438 116.925 69.05 117.20625Q69.58125 117.4875 69.925 118.01875Q70.26875 118.53438 70.45625 119.28438Q70.64375 120.03438 70.64375 121.31563Q70.64375 122.83125 70.33125 123.75313Q70.03438 124.675 69.40938 125.19063Q68.8 125.69063 67.84688 125.69063Q66.6125 125.69063 65.89375 124.8Q65.05 123.7375 65.05 121.31563ZM66.12813 121.31563Q66.12813 123.425 66.62813 124.12813Q67.12813 124.83125 67.84688 124.83125Q68.58125 124.83125 69.06563 124.12813Q69.56563 123.425 69.56563 121.31563Q69.56563 119.19063 69.06563 118.50313Q68.58125 117.8 67.83125 117.8Q67.1125 117.8 66.675 118.40938Q66.12813 119.19063 66.12813 121.31563ZM72.05 121.31563Q72.05 119.78438 72.3625 118.8625Q72.675 117.925 73.28438 117.425Q73.90938 116.925 74.84688 116.925Q75.53438 116.925 76.05 117.20625Q76.58125 117.4875 76.925 118.01875Q77.26875 118.53438 77.45625 119.28438Q77.64375 120.03438 77.64375 121.31563Q77.64375 122.83125 77.33125 123.75313Q77.03438 124.675 76.40938 125.19063Q75.8 125.69063 74.84688 125.69063Q73.6125 125.69063 72.89375 124.8Q72.05 123.7375 72.05 121.31563ZM73.12813 121.31563Q73.12813 123.425 73.62813 124.12813Q74.12813 124.83125 74.84688 124.83125Q75.58125 124.83125 76.06563 124.12813Q76.56563 123.425 76.56563 121.31563Q76.56563 119.19063 76.06563 118.50313Q75.58125 117.8 74.83125 117.8Q74.1125 117.8 73.675 118.40938Q73.12813 119.19063 73.12813 121.31563Z" fill-rule="nonzero"/><path fill="#000000" d="M53.534374 67.15104L53.534374 66.104164Q52.753124 65.99479 52.253124 65.74479Q51.753124 65.49479 51.39375 64.93229Q51.034374 64.354164 50.971874 63.52604L52.034374 63.33854Q52.159374 64.18229 52.471874 64.572914Q52.925 65.135414 53.534374 65.21354L53.534374 61.854164Q52.89375 61.729164 52.20625 61.33854Q51.70625 61.05729 51.425 60.572914Q51.159374 60.072914 51.159374 59.43229Q51.159374 58.30729 51.95625 57.61979Q52.4875 57.15104 53.534374 57.041664L53.534374 56.541664L54.159374 56.541664L54.159374 57.041664Q55.08125 57.11979 55.6125 57.572914Q56.315624 58.15104 56.45625 59.15104L55.3625 59.322914Q55.26875 58.697914 54.971874 58.36979Q54.675 58.041664 54.159374 57.93229L54.159374 60.96354Q54.95625 61.166664 55.221874 61.27604Q55.70625 61.49479 56.01875 61.80729Q56.33125 62.11979 56.4875 62.55729Q56.659374 62.979164 56.659374 63.479164Q56.659374 64.572914 55.95625 65.30729Q55.26875 66.041664 54.159374 66.08854L54.159374 67.15104L53.534374 67.15104ZM53.534374 57.916664Q52.925 58.010414 52.565624 58.416664Q52.221874 58.80729 52.221874 59.354164Q52.221874 59.885414 52.51875 60.260414Q52.815624 60.61979 53.534374 60.83854L53.534374 57.916664ZM54.159374 65.21354Q54.76875 65.135414 55.175 64.68229Q55.58125 64.21354 55.58125 63.541664Q55.58125 62.96354 55.284374 62.61979Q55.003124 62.27604 54.159374 61.99479L54.159374 65.21354ZM59.675 61.260414Q59.01875 61.010414 58.690624 60.572914Q58.378124 60.11979 58.378124 59.510414Q58.378124 58.572914 59.05 57.93229Q59.7375 57.291664 60.846874 57.291664Q61.971874 57.291664 62.659374 57.947914Q63.346874 58.604164 63.346874 59.541664Q63.346874 60.135414 63.034374 60.572914Q62.721874 61.010414 62.08125 61.260414Q62.878124 61.510414 63.284374 62.08854Q63.690624 62.666664 63.690624 63.46354Q63.690624 64.55729 62.909374 65.30729Q62.14375 66.05729 60.8625 66.05729Q59.596874 66.05729 58.815624 65.30729Q58.034374 64.55729 58.034374 63.43229Q58.034374 62.58854 58.45625 62.02604Q58.89375 61.46354 59.675 61.260414ZM59.45625 59.46354Q59.45625 60.072914 59.846874 60.46354Q60.253124 60.854164 60.878124 60.854164Q61.4875 60.854164 61.878124 60.479164Q62.26875 60.08854 62.26875 59.52604Q62.26875 58.947914 61.8625 58.55729Q61.45625 58.15104 60.8625 58.15104Q60.253124 58.15104 59.846874 58.541664Q59.45625 58.93229 59.45625 59.46354ZM59.128124 63.43229Q59.128124 63.885414 59.33125 64.30729Q59.55 64.729164 59.971874 64.96354Q60.39375 65.197914 60.878124 65.197914Q61.628124 65.197914 62.1125 64.71354Q62.6125 64.229164 62.6125 63.479164Q62.6125 62.71354 62.1125 62.21354Q61.6125 61.71354 60.846874 61.71354Q60.096874 61.71354 59.6125 62.21354Q59.128124 62.697914 59.128124 63.43229ZM65.05 61.68229Q65.05 60.15104 65.3625 59.229164Q65.675 58.291664 66.28438 57.791664Q66.90938 57.291664 67.84688 57.291664Q68.53438 57.291664 69.05 57.572914Q69.58125 57.854164 69.925 58.385414Q70.26875 58.90104 70.45625 59.65104Q70.64375 60.40104 70.64375 61.68229Q70.64375 63.197914 70.33125 64.11979Q70.03438 65.041664 69.40938 65.55729Q68.8 66.05729 67.84688 66.05729Q66.6125 66.05729 65.89375 65.166664Q65.05 64.104164 65.05 61.68229ZM66.12813 61.68229Q66.12813 63.791664 66.62813 64.49479Q67.12813 65.197914 67.84688 65.197914Q68.58125 65.197914 69.06563 64.49479Q69.56563 63.791664 69.56563 61.68229Q69.56563 59.55729 69.06563 58.86979Q68.58125 58.166664 67.83125 58.166664Q67.1125 58.166664 66.675 58.77604Q66.12813 59.55729 66.12813 61.68229ZM72.05 61.68229Q72.05 60.15104 72.3625 59.229164Q72.675 58.291664 73.28438 57.791664Q73.90938 57.291664 74.84688 57.291664Q75.53438 57.291664 76.05 57.572914Q76.58125 57.854164 76.925 58.385414Q77.26875 58.90104 77.45625 59.65104Q77.64375 60.40104 77.64375 61.68229Q77.64375 63.197914 77.33125 64.11979Q77.03438 65.041664 76.40938 65.55729Q75.8 66.05729 74.84688 66.05729Q73.6125 66.05729 72.89375 65.166664Q72.05 64.104164 72.05 61.68229ZM73.12813 61.68229Q73.12813 63.791664 73.62813 64.49479Q74.12813 65.197914 74.84688 65.197914Q75.58125 65.197914 76.06563 64.49479Q76.56563 63.791664 76.56563 61.68229Q76.56563 59.55729 76.06563 58.86979Q75.58125 58.166664 74.83125 58.166664Q74.1125 58.166664 73.675 58.77604Q73.12813 59.55729 73.12813 61.68229Z" fill-rule="nonzero"/><path fill="#000000" d="M137.71175 317.45L136.66487 317.45L136.66487 310.73126Q136.27425 311.09064 135.64925 311.46564Q135.03987 311.825 134.5555 311.9969L134.5555 310.98126Q135.4305 310.5594 136.08675 309.98126Q136.75862 309.3875 137.03987 308.825L137.71175 308.825L137.71175 317.45ZM140.89925 315.46564L141.91487 315.3719Q142.03987 316.09064 142.39925 316.41876Q142.77425 316.73126 143.33675 316.73126Q143.82112 316.73126 144.1805 316.5125Q144.5555 316.27814 144.78987 315.91876Q145.02425 315.54376 145.1805 314.91876Q145.33675 314.27814 145.33675 313.6219Q145.33675 313.54376 145.33675 313.40314Q145.02425 313.90314 144.47737 314.23126Q143.9305 314.54376 143.28987 314.54376Q142.21175 314.54376 141.47737 313.77814Q140.743 312.9969 140.743 311.73126Q140.743 310.41876 141.50862 309.6219Q142.28987 308.825 143.44612 308.825Q144.27425 308.825 144.96175 309.27814Q145.66487 309.73126 146.02425 310.575Q146.38362 311.40314 146.38362 312.98126Q146.38362 314.6219 146.02425 315.60626Q145.6805 316.575 144.96175 317.09064Q144.25862 317.59064 143.32112 317.59064Q142.3055 317.59064 141.66487 317.04376Q141.02425 316.48126 140.89925 315.46564ZM145.21175 311.66876Q145.21175 310.7625 144.72737 310.23126Q144.25862 309.7 143.57112 309.7Q142.868 309.7 142.33675 310.27814Q141.82112 310.84064 141.82112 311.7625Q141.82112 312.575 142.32112 313.09064Q142.82112 313.60626 143.53987 313.60626Q144.27425 313.60626 144.743 313.09064Q145.21175 312.575 145.21175 311.66876ZM153.28987 316.4344L153.28987 317.45L147.60237 317.45Q147.60237 317.075 147.72737 316.71564Q147.94612 316.1375 148.41487 315.575Q148.89925 315.0125 149.8055 314.27814Q151.21175 313.1219 151.69612 312.45Q152.19612 311.77814 152.19612 311.1844Q152.19612 310.5594 151.743 310.1375Q151.28987 309.7 150.57112 309.7Q149.8055 309.7 149.35237 310.15314Q148.89925 310.60626 148.88362 311.41876L147.8055 311.3094Q147.91487 310.09064 148.63362 309.46564Q149.368 308.825 150.60237 308.825Q151.83675 308.825 152.5555 309.5125Q153.27425 310.2 153.27425 311.21564Q153.27425 311.73126 153.0555 312.23126Q152.85237 312.71564 152.35237 313.27814Q151.868 313.825 150.743 314.77814Q149.78987 315.575 149.50862 315.8719Q149.243 316.15314 149.07112 316.4344L153.28987 316.4344ZM154.89925 315.46564L155.91487 315.3719Q156.03987 316.09064 156.39925 316.41876Q156.77425 316.73126 157.33675 316.73126Q157.82112 316.73126 158.1805 316.5125Q158.5555 316.27814 158.78987 315.91876Q159.02425 315.54376 159.1805 314.91876Q159.33675 314.27814 159.33675 313.6219Q159.33675 313.54376 159.33675 313.40314Q159.02425 313.90314 158.47737 314.23126Q157.9305 314.54376 157.28987 314.54376Q156.21175 314.54376 155.47737 313.77814Q154.743 312.9969 154.743 311.73126Q154.743 310.41876 155.50862 309.6219Q156.28987 308.825 157.44612 308.825Q158.27425 308.825 158.96175 309.27814Q159.66487 309.73126 160.02425 310.575Q160.38362 311.40314 160.38362 312.98126Q160.38362 314.6219 160.02425 315.60626Q159.6805 316.575 158.96175 317.09064Q158.25862 317.59064 157.32112 317.59064Q156.3055 317.59064 155.66487 317.04376Q155.02425 316.48126 154.89925 315.46564ZM159.21175 311.66876Q159.21175 310.7625 158.72737 310.23126Q158.25862 309.7 157.57112 309.7Q156.868 309.7 156.33675 310.27814Q155.82112 310.84064 155.82112 311.7625Q155.82112 312.575 156.32112 313.09064Q156.82112 313.60626 157.53987 313.60626Q158.27425 313.60626 158.743 313.09064Q159.21175 312.575 159.21175 311.66876Z" fill-rule="nonzero"/><path fill="#000000" d="M230.59024 317.45L229.54337 317.45L229.54337 310.73126Q229.15274 311.09064 228.52774 311.46564Q227.91837 311.825 227.43399 311.9969L227.43399 310.98126Q228.30899 310.5594 228.96524 309.98126Q229.63712 309.3875 229.91837 308.825L230.59024 308.825L230.59024 317.45ZM233.77774 315.46564L234.79337 315.3719Q234.91837 316.09064 235.27774 316.41876Q235.65274 316.73126 236.21524 316.73126Q236.69962 316.73126 237.05899 316.5125Q237.43399 316.27814 237.66837 315.91876Q237.90274 315.54376 238.05899 314.91876Q238.21524 314.27814 238.21524 313.6219Q238.21524 313.54376 238.21524 313.40314Q237.90274 313.90314 237.35587 314.23126Q236.80899 314.54376 236.16837 314.54376Q235.09024 314.54376 234.35587 313.77814Q233.62149 312.9969 233.62149 311.73126Q233.62149 310.41876 234.38712 309.6219Q235.16837 308.825 236.32462 308.825Q237.15274 308.825 237.84024 309.27814Q238.54337 309.73126 238.90274 310.575Q239.26212 311.40314 239.26212 312.98126Q239.26212 314.6219 238.90274 315.60626Q238.55899 316.575 237.84024 317.09064Q237.13712 317.59064 236.19962 317.59064Q235.18399 317.59064 234.54337 317.04376Q233.90274 316.48126 233.77774 315.46564ZM238.09024 311.66876Q238.09024 310.7625 237.60587 310.23126Q237.13712 309.7 236.44962 309.7Q235.74649 309.7 235.21524 310.27814Q234.69962 310.84064 234.69962 311.7625Q234.69962 312.575 235.19962 313.09064Q235.69962 313.60626 236.41837 313.60626Q237.15274 313.60626 237.62149 313.09064Q238.09024 312.575 238.09024 311.66876ZM240.62149 315.1844L241.68399 315.04376Q241.85587 315.9344 242.29337 316.34064Q242.73087 316.73126 243.35587 316.73126Q244.10587 316.73126 244.62149 316.21564Q245.13712 315.7 245.13712 314.9344Q245.13712 314.21564 244.65274 313.7469Q244.18399 313.2625 243.44962 313.2625Q243.15274 313.2625 242.69962 313.3875L242.82462 312.45Q242.93399 312.46564 242.99649 312.46564Q243.66837 312.46564 244.19962 312.1219Q244.74649 311.7625 244.74649 311.02814Q244.74649 310.45 244.35587 310.075Q243.96524 309.6844 243.34024 309.6844Q242.73087 309.6844 242.30899 310.075Q241.90274 310.46564 241.79337 311.23126L240.73087 311.04376Q240.91837 309.9969 241.60587 309.41876Q242.29337 308.825 243.30899 308.825Q244.01212 308.825 244.60587 309.1375Q245.19962 309.4344 245.51212 309.95Q245.82462 310.46564 245.82462 311.0594Q245.82462 311.60626 245.52774 312.075Q245.23087 312.52814 244.65274 312.79376Q245.40274 312.96564 245.82462 313.52814Q246.24649 314.075 246.24649 314.91876Q246.24649 316.04376 245.41837 316.825Q244.60587 317.60626 243.35587 317.60626Q242.23087 317.60626 241.48087 316.9344Q240.73087 316.2469 240.62149 315.1844ZM247.62149 313.21564Q247.62149 311.6844 247.93399 310.7625Q248.24649 309.825 248.85587 309.325Q249.48087 308.825 250.41837 308.825Q251.10587 308.825 251.62149 309.10626Q252.15274 309.3875 252.49649 309.91876Q252.84024 310.4344 253.02774 311.1844Q253.21524 311.9344 253.21524 313.21564Q253.21524 314.73126 252.90274 315.65314Q252.60587 316.575 251.98087 317.09064Q251.37149 317.59064 250.41837 317.59064Q249.18399 317.59064 248.46524 316.7Q247.62149 315.6375 247.62149 313.21564ZM248.69962 313.21564Q248.69962 315.325 249.19962 316.02814Q249.69962 316.73126 250.41837 316.73126Q251.15274 316.73126 251.63712 316.02814Q252.13712 315.325 252.13712 313.21564Q252.13712 311.09064 251.63712 310.40314Q251.15274 309.7 250.40274 309.7Q249.68399 309.7 249.24649 310.3094Q248.69962 311.09064 248.69962 313.21564Z" fill-rule="nonzero"/><path fill="#000000" d="M323.46875 317.45L322.42188 317.45L322.42188 310.73126Q322.03125 311.09064 321.40625 311.46564Q320.79688 311.825 320.3125 311.9969L320.3125 310.98126Q321.1875 310.5594 321.84375 309.98126Q322.51562 309.3875 322.79688 308.825L323.46875 308.825L323.46875 317.45ZM326.65625 315.46564L327.67188 315.3719Q327.79688 316.09064 328.15625 316.41876Q328.53125 316.73126 329.09375 316.73126Q329.57812 316.73126 329.9375 316.5125Q330.3125 316.27814 330.54688 315.91876Q330.78125 315.54376 330.9375 314.91876Q331.09375 314.27814 331.09375 313.6219Q331.09375 313.54376 331.09375 313.40314Q330.78125 313.90314 330.23438 314.23126Q329.6875 314.54376 329.04688 314.54376Q327.96875 314.54376 327.23438 313.77814Q326.5 312.9969 326.5 311.73126Q326.5 310.41876 327.26562 309.6219Q328.04688 308.825 329.20312 308.825Q330.03125 308.825 330.71875 309.27814Q331.42188 309.73126 331.78125 310.575Q332.14062 311.40314 332.14062 312.98126Q332.14062 314.6219 331.78125 315.60626Q331.4375 316.575 330.71875 317.09064Q330.01562 317.59064 329.07812 317.59064Q328.0625 317.59064 327.42188 317.04376Q326.78125 316.48126 326.65625 315.46564ZM330.96875 311.66876Q330.96875 310.7625 330.48438 310.23126Q330.01562 309.7 329.32812 309.7Q328.625 309.7 328.09375 310.27814Q327.57812 310.84064 327.57812 311.7625Q327.57812 312.575 328.07812 313.09064Q328.57812 313.60626 329.29688 313.60626Q330.03125 313.60626 330.5 313.09064Q330.96875 312.575 330.96875 311.66876ZM333.5 315.1844L334.5625 315.04376Q334.73438 315.9344 335.17188 316.34064Q335.60938 316.73126 336.23438 316.73126Q336.98438 316.73126 337.5 316.21564Q338.01562 315.7 338.01562 314.9344Q338.01562 314.21564 337.53125 313.7469Q337.0625 313.2625 336.32812 313.2625Q336.03125 313.2625 335.57812 313.3875L335.70312 312.45Q335.8125 312.46564 335.875 312.46564Q336.54688 312.46564 337.07812 312.1219Q337.625 311.7625 337.625 311.02814Q337.625 310.45 337.23438 310.075Q336.84375 309.6844 336.21875 309.6844Q335.60938 309.6844 335.1875 310.075Q334.78125 310.46564 334.67188 311.23126L333.60938 311.04376Q333.79688 309.9969 334.48438 309.41876Q335.17188 308.825 336.1875 308.825Q336.89062 308.825 337.48438 309.1375Q338.07812 309.4344 338.39062 309.95Q338.70312 310.46564 338.70312 311.0594Q338.70312 311.60626 338.40625 312.075Q338.10938 312.52814 337.53125 312.79376Q338.28125 312.96564 338.70312 313.52814Q339.125 314.075 339.125 314.91876Q339.125 316.04376 338.29688 316.825Q337.48438 317.60626 336.23438 317.60626Q335.10938 317.60626 334.35938 316.9344Q333.60938 316.2469 333.5 315.1844ZM344.46875 317.45L343.42188 317.45L343.42188 310.73126Q343.03125 311.09064 342.40625 311.46564Q341.79688 311.825 341.3125 311.9969L341.3125 310.98126Q342.1875 310.5594 342.84375 309.98126Q343.51562 309.3875 343.79688 308.825L344.46875 308.825L344.46875 317.45Z" fill-rule="nonzero"/><path fill="#000000" d="M416.34726 317.45L415.30038 317.45L415.30038 310.73126Q414.90976 311.09064 414.28476 311.46564Q413.67538 311.825 413.191 311.9969L413.191 310.98126Q414.066 310.5594 414.72226 309.98126Q415.39413 309.3875 415.67538 308.825L416.34726 308.825L416.34726 317.45ZM419.53476 315.46564L420.55038 315.3719Q420.67538 316.09064 421.03476 316.41876Q421.40976 316.73126 421.97226 316.73126Q422.45663 316.73126 422.816 316.5125Q423.191 316.27814 423.42538 315.91876Q423.65976 315.54376 423.816 314.91876Q423.97226 314.27814 423.97226 313.6219Q423.97226 313.54376 423.97226 313.40314Q423.65976 313.90314 423.11288 314.23126Q422.566 314.54376 421.92538 314.54376Q420.84726 314.54376 420.11288 313.77814Q419.3785 312.9969 419.3785 311.73126Q419.3785 310.41876 420.14413 309.6219Q420.92538 308.825 422.08163 308.825Q422.90976 308.825 423.59726 309.27814Q424.30038 309.73126 424.65976 310.575Q425.01913 311.40314 425.01913 312.98126Q425.01913 314.6219 424.65976 315.60626Q424.316 316.575 423.59726 317.09064Q422.89413 317.59064 421.95663 317.59064Q420.941 317.59064 420.30038 317.04376Q419.65976 316.48126 419.53476 315.46564ZM423.84726 311.66876Q423.84726 310.7625 423.36288 310.23126Q422.89413 309.7 422.20663 309.7Q421.5035 309.7 420.97226 310.27814Q420.45663 310.84064 420.45663 311.7625Q420.45663 312.575 420.95663 313.09064Q421.45663 313.60626 422.17538 313.60626Q422.90976 313.60626 423.3785 313.09064Q423.84726 312.575 423.84726 311.66876ZM426.3785 315.1844L427.441 315.04376Q427.61288 315.9344 428.05038 316.34064Q428.48788 316.73126 429.11288 316.73126Q429.86288 316.73126 430.3785 316.21564Q430.89413 315.7 430.89413 314.9344Q430.89413 314.21564 430.40976 313.7469Q429.941 313.2625 429.20663 313.2625Q428.90976 313.2625 428.45663 313.3875L428.58163 312.45Q428.691 312.46564 428.7535 312.46564Q429.42538 312.46564 429.95663 312.1219Q430.5035 311.7625 430.5035 311.02814Q430.5035 310.45 430.11288 310.075Q429.72226 309.6844 429.09726 309.6844Q428.48788 309.6844 428.066 310.075Q427.65976 310.46564 427.55038 311.23126L426.48788 311.04376Q426.67538 309.9969 427.36288 309.41876Q428.05038 308.825 429.066 308.825Q429.76913 308.825 430.36288 309.1375Q430.95663 309.4344 431.26913 309.95Q431.58163 310.46564 431.58163 311.0594Q431.58163 311.60626 431.28476 312.075Q430.98788 312.52814 430.40976 312.79376Q431.15976 312.96564 431.58163 313.52814Q432.0035 314.075 432.0035 314.91876Q432.0035 316.04376 431.17538 316.825Q430.36288 317.60626 429.11288 317.60626Q427.98788 317.60626 427.23788 316.9344Q426.48788 316.2469 426.3785 315.1844ZM438.92538 316.4344L438.92538 317.45L433.23788 317.45Q433.23788 317.075 433.36288 316.71564Q433.58163 316.1375 434.05038 315.575Q434.53476 315.0125 435.441 314.27814Q436.84726 313.1219 437.33163 312.45Q437.83163 311.77814 437.83163 311.1844Q437.83163 310.5594 437.3785 310.1375Q436.92538 309.7 436.20663 309.7Q435.441 309.7 434.98788 310.15314Q434.53476 310.60626 434.51913 311.41876L433.441 311.3094Q433.55038 310.09064 434.26913 309.46564Q435.0035 308.825 436.23788 308.825Q437.47226 308.825 438.191 309.5125Q438.90976 310.2 438.90976 311.21564Q438.90976 311.73126 438.691 312.23126Q438.48788 312.71564 437.98788 313.27814Q437.5035 313.825 436.3785 314.77814Q435.42538 315.575 435.14413 315.8719Q434.8785 316.15314 434.70663 316.4344L438.92538 316.4344Z" fill-rule="nonzero"/><path fill="#000000" d="M509.22577 317.45L508.1789 317.45L508.1789 310.73126Q507.78827 311.09064 507.16327 311.46564Q506.5539 311.825 506.06952 311.9969L506.06952 310.98126Q506.94452 310.5594 507.60077 309.98126Q508.27264 309.3875 508.5539 308.825L509.22577 308.825L509.22577 317.45ZM512.41327 315.46564L513.4289 315.3719Q513.5539 316.09064 513.91327 316.41876Q514.28827 316.73126 514.85077 316.73126Q515.33514 316.73126 515.6945 316.5125Q516.0695 316.27814 516.3039 315.91876Q516.53827 315.54376 516.6945 314.91876Q516.85077 314.27814 516.85077 313.6219Q516.85077 313.54376 516.85077 313.40314Q516.53827 313.90314 515.9914 314.23126Q515.4445 314.54376 514.8039 314.54376Q513.72577 314.54376 512.9914 313.77814Q512.257 312.9969 512.257 311.73126Q512.257 310.41876 513.02264 309.6219Q513.8039 308.825 514.96014 308.825Q515.78827 308.825 516.47577 309.27814Q517.1789 309.73126 517.53827 310.575Q517.89764 311.40314 517.89764 312.98126Q517.89764 314.6219 517.53827 315.60626Q517.1945 316.575 516.47577 317.09064Q515.77264 317.59064 514.83514 317.59064Q513.8195 317.59064 513.1789 317.04376Q512.53827 316.48126 512.41327 315.46564ZM516.72577 311.66876Q516.72577 310.7625 516.2414 310.23126Q515.77264 309.7 515.08514 309.7Q514.382 309.7 513.85077 310.27814Q513.33514 310.84064 513.33514 311.7625Q513.33514 312.575 513.83514 313.09064Q514.33514 313.60626 515.0539 313.60626Q515.78827 313.60626 516.257 313.09064Q516.72577 312.575 516.72577 311.66876ZM519.257 315.1844L520.3195 315.04376Q520.4914 315.9344 520.9289 316.34064Q521.3664 316.73126 521.9914 316.73126Q522.7414 316.73126 523.257 316.21564Q523.77264 315.7 523.77264 314.9344Q523.77264 314.21564 523.28827 313.7469Q522.8195 313.2625 522.08514 313.2625Q521.78827 313.2625 521.33514 313.3875L521.46014 312.45Q521.5695 312.46564 521.632 312.46564Q522.3039 312.46564 522.83514 312.1219Q523.382 311.7625 523.382 311.02814Q523.382 310.45 522.9914 310.075Q522.60077 309.6844 521.97577 309.6844Q521.3664 309.6844 520.9445 310.075Q520.53827 310.46564 520.4289 311.23126L519.3664 311.04376Q519.5539 309.9969 520.2414 309.41876Q520.9289 308.825 521.9445 308.825Q522.64764 308.825 523.2414 309.1375Q523.83514 309.4344 524.14764 309.95Q524.46014 310.46564 524.46014 311.0594Q524.46014 311.60626 524.16327 312.075Q523.8664 312.52814 523.28827 312.79376Q524.03827 312.96564 524.46014 313.52814Q524.882 314.075 524.882 314.91876Q524.882 316.04376 524.0539 316.825Q523.2414 317.60626 521.9914 317.60626Q520.8664 317.60626 520.1164 316.9344Q519.3664 316.2469 519.257 315.1844ZM526.257 315.1844L527.3195 315.04376Q527.4914 315.9344 527.9289 316.34064Q528.3664 316.73126 528.9914 316.73126Q529.7414 316.73126 530.257 316.21564Q530.77264 315.7 530.77264 314.9344Q530.77264 314.21564 530.28827 313.7469Q529.8195 313.2625 529.08514 313.2625Q528.78827 313.2625 528.33514 313.3875L528.46014 312.45Q528.5695 312.46564 528.632 312.46564Q529.3039 312.46564 529.83514 312.1219Q530.382 311.7625 530.382 311.02814Q530.382 310.45 529.9914 310.075Q529.60077 309.6844 528.97577 309.6844Q528.3664 309.6844 527.9445 310.075Q527.53827 310.46564 527.4289 311.23126L526.3664 311.04376Q526.5539 309.9969 527.2414 309.41876Q527.9289 308.825 528.9445 308.825Q529.64764 308.825 530.2414 309.1375Q530.83514 309.4344 531.14764 309.95Q531.46014 310.46564 531.46014 311.0594Q531.46014 311.60626 531.16327 312.075Q530.8664 312.52814 530.28827 312.79376Q531.03827 312.96564 531.46014 313.52814Q531.882 314.075 531.882 314.91876Q531.882 316.04376 531.0539 316.825Q530.2414 317.60626 528.9914 317.60626Q527.8664 317.60626 527.1164 316.9344Q526.3664 316.2469 526.257 315.1844Z" fill-rule="nonzero"/><path fill="#757575" d="M20.096874 37.55L20.096874 23.2375L25.4875 23.2375Q26.925 23.2375 27.675 23.3625Q28.721874 23.55 29.440624 24.05Q30.159374 24.534374 30.58125 25.425Q31.01875 26.315624 31.01875 27.378124Q31.01875 29.20625 29.846874 30.471874Q28.690624 31.721874 25.659374 31.721874L21.9875 31.721874L21.9875 37.55L20.096874 37.55ZM21.9875 30.034374L25.690624 30.034374Q27.51875 30.034374 28.284374 29.3625Q29.065624 28.675 29.065624 27.425Q29.065624 26.534374 28.6125 25.89375Q28.159374 25.253124 27.425 25.05Q26.940624 24.925 25.64375 24.925L21.9875 24.925L21.9875 30.034374ZM39.971874 34.20625L41.784374 34.440624Q41.3625 36.01875 40.190624 36.909374Q39.034374 37.784374 37.221874 37.784374Q34.95625 37.784374 33.6125 36.39375Q32.284374 34.9875 32.284374 32.45625Q32.284374 29.83125 33.628124 28.39375Q34.971874 26.940624 37.128124 26.940624Q39.20625 26.940624 40.51875 28.3625Q41.846874 29.76875 41.846874 32.346874Q41.846874 32.503124 41.83125 32.815624L34.096874 32.815624Q34.190624 34.51875 35.065624 35.425Q35.940624 36.33125 37.2375 36.33125Q38.20625 36.33125 38.878124 35.83125Q39.565624 35.315624 39.971874 34.20625ZM34.190624 31.3625L39.9875 31.3625Q39.878124 30.065624 39.33125 29.409374Q38.4875 28.39375 37.14375 28.39375Q35.940624 28.39375 35.1125 29.20625Q34.284374 30.003124 34.190624 31.3625ZM43.846874 37.55L43.846874 27.175L45.425 27.175L45.425 28.753124Q46.034374 27.64375 46.55 27.3Q47.065624 26.940624 47.675 26.940624Q48.565624 26.940624 49.4875 27.503124L48.878124 29.14375Q48.2375 28.753124 47.596874 28.753124Q47.01875 28.753124 46.55 29.1125Q46.096874 29.45625 45.89375 30.065624Q45.6125 31.003124 45.6125 32.1125L45.6125 37.55L43.846874 37.55ZM67.31563 32.534374L69.20625 33.003124Q68.6125 35.346874 67.06563 36.58125Q65.51875 37.8 63.26875 37.8Q60.95625 37.8 59.503124 36.8625Q58.065624 35.909374 57.3 34.128124Q56.55 32.33125 56.55 30.284374Q56.55 28.05 57.39375 26.39375Q58.253124 24.721874 59.83125 23.8625Q61.409374 22.9875 63.3 22.9875Q65.45625 22.9875 66.90938 24.08125Q68.37813 25.175 68.95625 27.159374L67.09688 27.596874Q66.59688 26.034374 65.64375 25.33125Q64.70625 24.6125 63.26875 24.6125Q61.6125 24.6125 60.503124 25.409374Q59.39375 26.190624 58.940624 27.534374Q58.503124 28.8625 58.503124 30.26875Q58.503124 32.096874 59.034374 33.471874Q59.565624 34.83125 60.690624 35.503124Q61.815624 36.175 63.1125 36.175Q64.70625 36.175 65.81563 35.253124Q66.925 34.33125 67.31563 32.534374ZM77.64375 36.26875Q76.65938 37.096874 75.75313 37.440624Q74.84688 37.784374 73.81563 37.784374Q72.1125 37.784374 71.19063 36.95625Q70.26875 36.1125 70.26875 34.815624Q70.26875 34.05 70.6125 33.425Q70.97188 32.8 71.53438 32.425Q72.09688 32.034374 72.8 31.83125Q73.31563 31.70625 74.3625 31.565624Q76.4875 31.315624 77.4875 30.971874Q77.50313 30.6125 77.50313 30.503124Q77.50313 29.440624 77.00313 28.9875Q76.33125 28.39375 75.00313 28.39375Q73.75313 28.39375 73.15938 28.83125Q72.58125 29.26875 72.3 30.378124L70.58125 30.14375Q70.81563 29.034374 71.34688 28.3625Q71.87813 27.675 72.89375 27.315624Q73.90938 26.940624 75.25313 26.940624Q76.58125 26.940624 77.40938 27.253124Q78.2375 27.565624 78.62813 28.05Q79.01875 28.51875 79.175 29.2375Q79.26875 29.690624 79.26875 30.8625L79.26875 33.20625Q79.26875 35.659374 79.37813 36.315624Q79.4875 36.95625 79.83125 37.55L77.9875 37.55Q77.72188 37.003124 77.64375 36.26875ZM77.4875 32.346874Q76.53438 32.7375 74.6125 33.003124Q73.53438 33.159374 73.08125 33.3625Q72.64375 33.55 72.39375 33.925Q72.14375 34.3 72.14375 34.76875Q72.14375 35.471874 72.675 35.940624Q73.20625 36.409374 74.2375 36.409374Q75.25313 36.409374 76.03438 35.971874Q76.83125 35.51875 77.20625 34.753124Q77.4875 34.14375 77.4875 32.9875L77.4875 32.346874ZM81.8625 41.51875L81.8625 27.175L83.47188 27.175L83.47188 28.51875Q84.03438 27.7375 84.7375 27.346874Q85.45625 26.940624 86.47188 26.940624Q87.8 26.940624 88.81563 27.628124Q89.83125 28.315624 90.34688 29.565624Q90.87813 30.8 90.87813 32.284374Q90.87813 33.878124 90.3 35.159374Q89.7375 36.425 88.64375 37.1125Q87.55 37.784374 86.34688 37.784374Q85.47188 37.784374 84.76875 37.409374Q84.08125 37.034374 83.62813 36.471874L83.62813 41.51875L81.8625 41.51875ZM83.45625 32.425Q83.45625 34.425 84.26875 35.378124Q85.08125 36.33125 86.2375 36.33125Q87.40938 36.33125 88.2375 35.346874Q89.08125 34.3625 89.08125 32.26875Q89.08125 30.3 88.25313 29.315624Q87.44063 28.315624 86.31563 28.315624Q85.19063 28.315624 84.31563 29.378124Q83.45625 30.425 83.45625 32.425ZM92.87813 25.253124L92.87813 23.2375L94.64375 23.2375L94.64375 25.253124L92.87813 25.253124ZM92.87813 37.55L92.87813 27.175L94.64375 27.175L94.64375 37.55L92.87813 37.55ZM100.70625 35.971874L100.95625 37.534374Q100.22188 37.690624 99.62813 37.690624Q98.675 37.690624 98.14375 37.39375Q97.62813 37.08125 97.40938 36.596874Q97.19063 36.096874 97.19063 34.51875L97.19063 28.55L95.90938 28.55L95.90938 27.175L97.19063 27.175L97.19063 24.6125L98.94063 23.55L98.94063 27.175L100.70625 27.175L100.70625 28.55L98.94063 28.55L98.94063 34.6125Q98.94063 35.3625 99.03438 35.58125Q99.12813 35.784374 99.33125 35.925Q99.55 36.05 99.94063 36.05Q100.22188 36.05 100.70625 35.971874ZM109.64375 36.26875Q108.65938 37.096874 107.75313 37.440624Q106.84688 37.784374 105.81563 37.784374Q104.1125 37.784374 103.19063 36.95625Q102.26875 36.1125 102.26875 34.815624Q102.26875 34.05 102.6125 33.425Q102.97188 32.8 103.53438 32.425Q104.09688 32.034374 104.8 31.83125Q105.31563 31.70625 106.3625 31.565624Q108.4875 31.315624 109.4875 30.971874Q109.50313 30.6125 109.50313 30.503124Q109.50313 29.440624 109.00313 28.9875Q108.33125 28.39375 107.00313 28.39375Q105.75313 28.39375 105.15938 28.83125Q104.58125 29.26875 104.3 30.378124L102.58125 30.14375Q102.81563 29.034374 103.34688 28.3625Q103.87813 27.675 104.89375 27.315624Q105.90938 26.940624 107.25313 26.940624Q108.58125 26.940624 109.40938 27.253124Q110.2375 27.565624 110.62813 28.05Q111.01875 28.51875 111.175 29.2375Q111.26875 29.690624 111.26875 30.8625L111.26875 33.20625Q111.26875 35.659374 111.37813 36.315624Q111.4875 36.95625 111.83125 37.55L109.9875 37.55Q109.72188 37.003124 109.64375 36.26875ZM109.4875 32.346874Q108.53438 32.7375 106.6125 33.003124Q105.53438 33.159374 105.08125 33.3625Q104.64375 33.55 104.39375 33.925Q104.14375 34.3 104.14375 34.76875Q104.14375 35.471874 104.675 35.940624Q105.20625 36.409374 106.2375 36.409374Q107.25313 36.409374 108.03438 35.971874Q108.83125 35.51875 109.20625 34.753124Q109.4875 34.14375 109.4875 32.9875L109.4875 32.346874ZM120.09688 37.55L120.09688 23.2375L125.4875 23.2375Q126.925 23.2375 127.675 23.3625Q128.72188 23.55 129.44063 24.05Q130.15938 24.534374 130.58125 25.425Q131.01875 26.315624 131.01875 27.378124Q131.01875 29.20625 129.84688 30.471874Q128.69063 31.721874 125.65938 31.721874L121.9875 31.721874L121.9875 37.55L120.09688 37.55ZM121.9875 30.034374L125.69063 30.034374Q127.51875 30.034374 128.28438 29.3625Q129.06563 28.675 129.06563 27.425Q129.06563 26.534374 128.6125 25.89375Q128.15938 25.253124 127.425 25.05Q126.94063 24.925 125.64375 24.925L121.9875 24.925L121.9875 30.034374ZM139.97188 34.20625L141.78438 34.440624Q141.3625 36.01875 140.19063 36.909374Q139.03438 37.784374 137.22188 37.784374Q134.95625 37.784374 133.6125 36.39375Q132.28438 34.9875 132.28438 32.45625Q132.28438 29.83125 133.62813 28.39375Q134.97188 26.940624 137.12813 26.940624Q139.20625 26.940624 140.51875 28.3625Q141.84688 29.76875 141.84688 32.346874Q141.84688 32.503124 141.83125 32.815624L134.09688 32.815624Q134.19063 34.51875 135.06563 35.425Q135.94063 36.33125 137.2375 36.33125Q138.20625 36.33125 138.87813 35.83125Q139.56563 35.315624 139.97188 34.20625ZM134.19063 31.3625L139.9875 31.3625Q139.87813 30.065624 139.33125 29.409374Q138.4875 28.39375 137.14375 28.39375Q135.94063 28.39375 135.1125 29.20625Q134.28438 30.003124 134.19063 31.3625ZM143.84688 37.55L143.84688 27.175L145.425 27.175L145.425 28.753124Q146.03438 27.64375 146.55 27.3Q147.06563 26.940624 147.675 26.940624Q148.56563 26.940624 149.4875 27.503124L148.87813 29.14375Q148.2375 28.753124 147.59688 28.753124Q147.01875 28.753124 146.55 29.1125Q146.09688 29.45625 145.89375 30.065624Q145.6125 31.003124 145.6125 32.1125L145.6125 37.55L143.84688 37.55ZM150.15938 34.45625L151.90938 34.175Q152.05 35.221874 152.72188 35.784374Q153.39375 36.33125 154.59688 36.33125Q155.8 36.33125 156.37813 35.846874Q156.97188 35.346874 156.97188 34.690624Q156.97188 34.096874 156.45625 33.753124Q156.09688 33.51875 154.65938 33.159374Q152.72188 32.659374 151.97188 32.315624Q151.2375 31.95625 150.84688 31.33125Q150.45625 30.690624 150.45625 29.925Q150.45625 29.2375 150.76875 28.64375Q151.09688 28.05 151.64375 27.659374Q152.05 27.3625 152.75313 27.159374Q153.47188 26.940624 154.28438 26.940624Q155.50313 26.940624 156.425 27.3Q157.34688 27.64375 157.78438 28.253124Q158.22188 28.846874 158.39375 29.846874L156.675 30.08125Q156.55 29.284374 155.9875 28.846874Q155.425 28.39375 154.40938 28.39375Q153.19063 28.39375 152.675 28.8Q152.15938 29.190624 152.15938 29.721874Q152.15938 30.065624 152.37813 30.346874Q152.58125 30.628124 153.05 30.815624Q153.31563 30.909374 154.59688 31.253124Q156.47188 31.753124 157.20625 32.08125Q157.94063 32.39375 158.3625 33.003124Q158.78438 33.596874 158.78438 34.503124Q158.78438 35.378124 158.26875 36.159374Q157.75313 36.940624 156.78438 37.3625Q155.81563 37.784374 154.59688 37.784374Q152.58125 37.784374 151.51875 36.940624Q150.45625 36.096874 150.15938 34.45625ZM160.22188 32.3625Q160.22188 29.4875 161.81563 28.096874Q163.15938 26.940624 165.08125 26.940624Q167.22188 26.940624 168.56563 28.346874Q169.925 29.753124 169.925 32.221874Q169.925 34.221874 169.33125 35.378124Q168.7375 36.51875 167.58125 37.159374Q166.44063 37.784374 165.08125 37.784374Q162.89375 37.784374 161.55 36.39375Q160.22188 34.9875 160.22188 32.3625ZM162.01875 32.3625Q162.01875 34.3625 162.87813 35.346874Q163.75313 36.33125 165.08125 36.33125Q166.39375 36.33125 167.25313 35.346874Q168.12813 34.346874 168.12813 32.3Q168.12813 30.378124 167.25313 29.39375Q166.37813 28.39375 165.08125 28.39375Q163.75313 28.39375 162.87813 29.39375Q162.01875 30.378124 162.01875 32.3625ZM171.8625 37.55L171.8625 27.175L173.45625 27.175L173.45625 28.659374Q174.59688 26.940624 176.75313 26.940624Q177.69063 26.940624 178.47188 27.284374Q179.26875 27.6125 179.65938 28.159374Q180.05 28.70625 180.20625 29.45625Q180.3 29.95625 180.3 31.175L180.3 37.55L178.53438 37.55L178.53438 31.2375Q178.53438 30.159374 178.33125 29.628124Q178.12813 29.096874 177.59688 28.784374Q177.08125 28.471874 176.37813 28.471874Q175.25313 28.471874 174.44063 29.190624Q173.62813 29.89375 173.62813 31.878124L173.62813 37.55L171.8625 37.55ZM188.64375 36.26875Q187.65938 37.096874 186.75313 37.440624Q185.84688 37.784374 184.81563 37.784374Q183.1125 37.784374 182.19063 36.95625Q181.26875 36.1125 181.26875 34.815624Q181.26875 34.05 181.6125 33.425Q181.97188 32.8 182.53438 32.425Q183.09688 32.034374 183.8 31.83125Q184.31563 31.70625 185.3625 31.565624Q187.4875 31.315624 188.4875 30.971874Q188.50313 30.6125 188.50313 30.503124Q188.50313 29.440624 188.00313 28.9875Q187.33125 28.39375 186.00313 28.39375Q184.75313 28.39375 184.15938 28.83125Q183.58125 29.26875 183.3 30.378124L181.58125 30.14375Q181.81563 29.034374 182.34688 28.3625Q182.87813 27.675 183.89375 27.315624Q184.90938 26.940624 186.25313 26.940624Q187.58125 26.940624 188.40938 27.253124Q189.2375 27.565624 189.62813 28.05Q190.01875 28.51875 190.175 29.2375Q190.26875 29.690624 190.26875 30.8625L190.26875 33.20625Q190.26875 35.659374 190.37813 36.315624Q190.4875 36.95625 190.83125 37.55L188.9875 37.55Q188.72188 37.003124 188.64375 36.26875ZM188.4875 32.346874Q187.53438 32.7375 185.6125 33.003124Q184.53438 33.159374 184.08125 33.3625Q183.64375 33.55 183.39375 33.925Q183.14375 34.3 183.14375 34.76875Q183.14375 35.471874 183.675 35.940624Q184.20625 36.409374 185.2375 36.409374Q186.25313 36.409374 187.03438 35.971874Q187.83125 35.51875 188.20625 34.753124Q188.4875 34.14375 188.4875 32.9875L188.4875 32.346874ZM192.83125 37.55L192.83125 23.2375L194.58125 23.2375L194.58125 37.55L192.83125 37.55ZM203.40938 37.55L203.40938 23.2375L205.31563 23.2375L205.31563 37.55L203.40938 37.55ZM208.8625 37.55L208.8625 27.175L210.45625 27.175L210.45625 28.659374Q211.59688 26.940624 213.75313 26.940624Q214.69063 26.940624 215.47188 27.284374Q216.26875 27.6125 216.65938 28.159374Q217.05 28.70625 217.20625 29.45625Q217.3 29.95625 217.3 31.175L217.3 37.55L215.53438 37.55L215.53438 31.2375Q215.53438 30.159374 215.33125 29.628124Q215.12813 29.096874 214.59688 28.784374Q214.08125 28.471874 213.37813 28.471874Q212.25313 28.471874 211.44063 29.190624Q210.62813 29.89375 210.62813 31.878124L210.62813 37.55L208.8625 37.55ZM225.64375 33.753124L227.3625 33.971874Q227.08125 35.76875 225.90938 36.784374Q224.75313 37.784374 223.05 37.784374Q220.925 37.784374 219.62813 36.39375Q218.33125 35.003124 218.33125 32.409374Q218.33125 30.721874 218.87813 29.471874Q219.44063 28.20625 220.58125 27.58125Q221.72188 26.940624 223.06563 26.940624Q224.75313 26.940624 225.81563 27.8Q226.89375 28.659374 227.20625 30.221874L225.4875 30.4875Q225.25313 29.440624 224.62813 28.925Q224.00313 28.39375 223.12813 28.39375Q221.8 28.39375 220.97188 29.346874Q220.14375 30.3 220.14375 32.346874Q220.14375 34.440624 220.94063 35.39375Q221.7375 36.33125 223.03438 36.33125Q224.06563 36.33125 224.75313 35.70625Q225.45625 35.065624 225.64375 33.753124ZM228.22188 32.3625Q228.22188 29.4875 229.81563 28.096874Q231.15938 26.940624 233.08125 26.940624Q235.22188 26.940624 236.56563 28.346874Q237.925 29.753124 237.925 32.221874Q237.925 34.221874 237.33125 35.378124Q236.7375 36.51875 235.58125 37.159374Q234.44063 37.784374 233.08125 37.784374Q230.89375 37.784374 229.55 36.39375Q228.22188 34.9875 228.22188 32.3625ZM230.01875 32.3625Q230.01875 34.3625 230.87813 35.346874Q231.75313 36.33125 233.08125 36.33125Q234.39375 36.33125 235.25313 35.346874Q236.12813 34.346874 236.12813 32.3Q236.12813 30.378124 235.25313 29.39375Q234.37813 28.39375 233.08125 28.39375Q231.75313 28.39375 230.87813 29.39375Q230.01875 30.378124 230.01875 32.3625ZM239.8625 37.55L239.8625 27.175L241.44063 27.175L241.44063 28.628124Q241.925 27.878124 242.7375 27.409374Q243.55 26.940624 244.58125 26.940624Q245.7375 26.940624 246.47188 27.425Q247.20625 27.89375 247.51875 28.753124Q248.75313 26.940624 250.72188 26.940624Q252.26875 26.940624 253.09688 27.8Q253.925 28.659374 253.925 30.425L253.925 37.55L252.175 37.55L252.175 31.01875Q252.175 29.95625 252.00313 29.503124Q251.83125 29.034374 251.37813 28.753124Q250.94063 28.471874 250.33125 28.471874Q249.2375 28.471874 248.50313 29.20625Q247.78438 29.925 247.78438 31.51875L247.78438 37.55L246.03438 37.55L246.03438 30.815624Q246.03438 29.64375 245.59688 29.065624Q245.175 28.471874 244.19063 28.471874Q243.45625 28.471874 242.81563 28.8625Q242.19063 29.253124 241.90938 30.003124Q241.62813 30.753124 241.62813 32.175L241.62813 37.55L239.8625 37.55ZM262.97186 34.20625L264.78436 34.440624Q264.3625 36.01875 263.1906 36.909374Q262.03436 37.784374 260.22186 37.784374Q257.95624 37.784374 256.6125 36.39375Q255.28438 34.9875 255.28438 32.45625Q255.28438 29.83125 256.6281 28.39375Q257.97186 26.940624 260.1281 26.940624Q262.20624 26.940624 263.51874 28.3625Q264.84686 29.76875 264.84686 32.346874Q264.84686 32.503124 264.83124 32.815624L257.09686 32.815624Q257.1906 34.51875 258.0656 35.425Q258.9406 36.33125 260.2375 36.33125Q261.20624 36.33125 261.8781 35.83125Q262.5656 35.315624 262.97186 34.20625ZM257.1906 31.3625L262.9875 31.3625Q262.8781 30.065624 262.33124 29.409374Q261.4875 28.39375 260.14374 28.39375Q258.9406 28.39375 258.1125 29.20625Q257.28436 30.003124 257.1906 31.3625ZM275.7531 37.55L271.8 27.175L273.65936 27.175L275.89374 33.39375Q276.2531 34.39375 276.55 35.471874Q276.78436 34.659374 277.20624 33.503124L279.5031 27.175L281.3156 27.175L277.39374 37.55L275.7531 37.55ZM281.15936 34.45625L282.90936 34.175Q283.05 35.221874 283.72186 35.784374Q284.39374 36.33125 285.59686 36.33125Q286.8 36.33125 287.3781 35.846874Q287.97186 35.346874 287.97186 34.690624Q287.97186 34.096874 287.45624 33.753124Q287.09686 33.51875 285.65936 33.159374Q283.72186 32.659374 282.97186 32.315624Q282.2375 31.95625 281.84686 31.33125Q281.45624 30.690624 281.45624 29.925Q281.45624 29.2375 281.76874 28.64375Q282.09686 28.05 282.64374 27.659374Q283.05 27.3625 283.7531 27.159374Q284.47186 26.940624 285.28436 26.940624Q286.5031 26.940624 287.425 27.3Q288.34686 27.64375 288.78436 28.253124Q289.22186 28.846874 289.39374 29.846874L287.675 30.08125Q287.55 29.284374 286.9875 28.846874Q286.425 28.39375 285.40936 28.39375Q284.1906 28.39375 283.675 28.8Q283.15936 29.190624 283.15936 29.721874Q283.15936 30.065624 283.3781 30.346874Q283.58124 30.628124 284.05 30.815624Q284.3156 30.909374 285.59686 31.253124Q287.47186 31.753124 288.20624 32.08125Q288.9406 32.39375 289.3625 33.003124Q289.78436 33.596874 289.78436 34.503124Q289.78436 35.378124 289.26874 36.159374Q288.7531 36.940624 287.78436 37.3625Q286.8156 37.784374 285.59686 37.784374Q283.58124 37.784374 282.51874 36.940624Q281.45624 36.096874 281.15936 34.45625ZM292.3625 37.55L292.3625 35.55L294.3625 35.55L294.3625 37.55L292.3625 37.55ZM308.1281 37.55L308.1281 31.4875L302.6125 23.2375L304.90936 23.2375L307.7375 27.55Q308.51874 28.753124 309.1906 29.971874Q309.83124 28.846874 310.7531 27.440624L313.53436 23.2375L315.7375 23.2375L310.01874 31.4875L310.01874 37.55L308.1281 37.55ZM324.97186 34.20625L326.78436 34.440624Q326.3625 36.01875 325.1906 36.909374Q324.03436 37.784374 322.22186 37.784374Q319.95624 37.784374 318.6125 36.39375Q317.28436 34.9875 317.28436 32.45625Q317.28436 29.83125 318.6281 28.39375Q319.97186 26.940624 322.1281 26.940624Q324.20624 26.940624 325.51874 28.3625Q326.84686 29.76875 326.84686 32.346874Q326.84686 32.503124 326.83124 32.815624L319.09686 32.815624Q319.1906 34.51875 320.0656 35.425Q320.9406 36.33125 322.2375 36.33125Q323.20624 36.33125 323.8781 35.83125Q324.5656 35.315624 324.97186 34.20625ZM319.1906 31.3625L324.9875 31.3625Q324.8781 30.065624 324.33124 29.409374Q323.4875 28.39375 322.14374 28.39375Q320.9406 28.39375 320.1125 29.20625Q319.28436 30.003124 319.1906 31.3625ZM335.64374 36.26875Q334.65936 37.096874 333.7531 37.440624Q332.84686 37.784374 331.8156 37.784374Q330.1125 37.784374 329.1906 36.95625Q328.26874 36.1125 328.26874 34.815624Q328.26874 34.05 328.6125 33.425Q328.97186 32.8 329.53436 32.425Q330.09686 32.034374 330.8 31.83125Q331.3156 31.70625 332.3625 31.565624Q334.4875 31.315624 335.4875 30.971874Q335.5031 30.6125 335.5031 30.503124Q335.5031 29.440624 335.0031 28.9875Q334.33124 28.39375 333.0031 28.39375Q331.7531 28.39375 331.15936 28.83125Q330.58124 29.26875 330.3 30.378124L328.58124 30.14375Q328.8156 29.034374 329.34686 28.3625Q329.8781 27.675 330.89374 27.315624Q331.90936 26.940624 333.2531 26.940624Q334.58124 26.940624 335.40936 27.253124Q336.2375 27.565624 336.6281 28.05Q337.01874 28.51875 337.175 29.2375Q337.26874 29.690624 337.26874 30.8625L337.26874 33.20625Q337.26874 35.659374 337.3781 36.315624Q337.4875 36.95625 337.83124 37.55L335.9875 37.55Q335.72186 37.003124 335.64374 36.26875ZM335.4875 32.346874Q334.53436 32.7375 332.6125 33.003124Q331.53436 33.159374 331.08124 33.3625Q330.64374 33.55 330.39374 33.925Q330.14374 34.3 330.14374 34.76875Q330.14374 35.471874 330.675 35.940624Q331.20624 36.409374 332.2375 36.409374Q333.2531 36.409374 334.03436 35.971874Q334.83124 35.51875 335.20624 34.753124Q335.4875 34.14375 335.4875 32.9875L335.4875 32.346874ZM339.84686 37.55L339.84686 27.175L341.425 27.175L341.425 28.753124Q342.03436 27.64375 342.55 27.3Q343.0656 26.940624 343.675 26.940624Q344.5656 26.940624 345.4875 27.503124L344.8781 29.14375Q344.2375 28.753124 343.59686 28.753124Q343.01874 28.753124 342.55 29.1125Q342.09686 29.45625 341.89374 30.065624Q341.6125 31.003124 341.6125 32.1125L341.6125 37.55L339.84686 37.55Z" fill-rule="nonzero"/></svg>