<svg xmlns="http://www.w3.org/2000/svg" xmlns:xlink="http://www.w3.org/1999/xlink" width="2000" zoomAndPan="magnify" viewBox="0 0 1500 1499.999933" height="2000" preserveAspectRatio="xMidYMid meet" version="1.0"><defs><filter x="0%" y="0%" width="100%" height="100%" id="59df252dcc"><feColorMatrix values="0 0 0 0 1 0 0 0 0 1 0 0 0 0 1 0 0 0 1 0" color-interpolation-filters="sRGB"/></filter><clipPath id="cd5a49e085"><path d="M 396.9375 996.519531 L 430.363281 996.519531 L 430.363281 1029.945312 L 396.9375 1029.945312 Z M 396.9375 996.519531 " clip-rule="nonzero"/></clipPath><clipPath id="25e5ded717"><path d="M 413.648438 996.519531 C 404.417969 996.519531 396.9375 1004 396.9375 1013.230469 C 396.9375 1022.460938 404.417969 1029.945312 413.648438 1029.945312 C 422.878906 1029.945312 430.363281 1022.460938 430.363281 1013.230469 C 430.363281 1004 422.878906 996.519531 413.648438 996.519531 Z M 413.648438 996.519531 " clip-rule="nonzero"/></clipPath><clipPath id="3d99da6188"><path d="M 0.9375 0.519531 L 34.363281 0.519531 L 34.363281 33.945312 L 0.9375 33.945312 Z M 0.9375 0.519531 " clip-rule="nonzero"/></clipPath><clipPath id="3251e16f64"><path d="M 17.648438 0.519531 C 8.417969 0.519531 0.9375 8 0.9375 17.230469 C 0.9375 26.460938 8.417969 33.945312 17.648438 33.945312 C 26.878906 33.945312 34.363281 26.460938 34.363281 17.230469 C 34.363281 8 26.878906 0.519531 17.648438 0.519531 Z M 17.648438 0.519531 " clip-rule="nonzero"/></clipPath><clipPath id="f0bc4a940c"><rect x="0" width="35" y="0" height="34"/></clipPath><mask id="e9f9a60317"><g filter="url(#59df252dcc)"><rect x="-150" width="1800" fill="#000000" y="-149.999993" height="1799.99992" fill-opacity="0.51"/></g></mask><clipPath id="976082e78e"><path d="M 87 13 L 1070 13 L 1070 1468 L 87 1468 Z M 87 13 " clip-rule="nonzero"/></clipPath><clipPath id="761f15905e"><path d="M 240 13 L 1070 13 L 1070 222 L 240 222 Z M 240 13 " clip-rule="nonzero"/></clipPath><clipPath id="7aefe518a8"><path d="M 87 221 L 1070 221 L 1070 1468 L 87 1468 Z M 87 221 " clip-rule="nonzero"/></clipPath><clipPath id="378b0a4f61"><path d="M 0.363281 1 L 1070 1 L 1070 1479.699219 L 0.363281 1479.699219 Z M 0.363281 1 " clip-rule="nonzero"/></clipPath><clipPath id="1f1d985cc2"><rect x="0" width="1070" y="0" height="1480"/></clipPath></defs><g clip-path="url(#cd5a49e085)"><g clip-path="url(#25e5ded717)"><g transform="matrix(1, 0, 0, 1, 396, 996)"><g clip-path="url(#f0bc4a940c)"><g clip-path="url(#3d99da6188)"><g clip-path="url(#3251e16f64)"><path fill="#2d2726" d="M 0.9375 0.519531 L 34.363281 0.519531 L 34.363281 33.945312 L 0.9375 33.945312 Z M 0.9375 0.519531 " fill-opacity="1" fill-rule="nonzero"/></g></g></g></g></g></g><g mask="url(#e9f9a60317)"><g transform="matrix(1, 0, 0, 1, 430, 20)"><g clip-path="url(#1f1d985cc2)"><g clip-path="url(#976082e78e)"><path fill="#f1c27d" d="M 240.339844 13.074219 C 197.167969 13.074219 162.148438 58.226562 162.148438 121.644531 L 162.148438 1316.808594 L 87.125 1467.335938 L 1097.617188 1467.335938 C 1173.167969 1467.335938 1234.375 1406.117188 1234.375 1330.617188 L 1234.375 221.597656 Z M 240.339844 13.074219 " fill-opacity="1" fill-rule="nonzero"/></g><g clip-path="url(#761f15905e)"><path fill="#ffdbac" d="M 1308.109375 43.625 C 1289.25 24.742188 1263.175781 13.074219 1234.375 13.074219 L 240.339844 13.074219 C 283.511719 13.074219 318.5 58.226562 318.5 121.644531 C 318.5 129.328125 318.148438 136.597656 317.472656 143.488281 L 262.011719 221.597656 L 1234.375 221.597656 C 1291.976562 221.597656 1338.667969 174.917969 1338.667969 117.335938 C 1338.667969 88.542969 1326.996094 62.476562 1308.109375 43.625 Z M 1308.109375 43.625 " fill-opacity="1" fill-rule="nonzero"/></g><path fill="#c68642" d="M 208.984375 143.488281 L 317.472656 143.488281 C 312.546875 193.390625 290.519531 221.597656 262.011719 221.597656 C 229.574219 221.597656 208.984375 173.953125 208.984375 143.488281 Z M 208.984375 143.488281 " fill-opacity="1" fill-rule="nonzero"/><path fill="#c68642" d="M 162.148438 1316.808594 L 162.148438 1392.335938 C 162.148438 1433.765625 128.566406 1467.335938 87.125 1467.335938 C 66.390625 1467.335938 47.648438 1458.953125 34.070312 1445.375 C 20.492188 1431.800781 12.101562 1413.035156 12.101562 1392.335938 L 12.101562 1316.808594 Z M 162.148438 1316.808594 " fill-opacity="1" fill-rule="nonzero"/><g clip-path="url(#7aefe518a8)"><path fill="#ddb278" d="M 1049.457031 804.179688 C 1147.445312 545.140625 1136.449219 298.53125 1136.449219 298.53125 L 289.960938 298.53125 C 339.9375 274.460938 318.5 221.597656 318.5 221.597656 L 1234.375 221.597656 L 1234.375 1330.617188 C 1234.375 1406.117188 1173.167969 1467.335938 1097.617188 1467.335938 L 87.125 1467.335938 C 128.566406 1467.335938 162.148438 1433.765625 162.148438 1392.335938 C 326.417969 1392.335938 463.03125 1364.160156 576.679688 1316.808594 C 650.414062 1286.082031 714.496094 1247.292969 770.160156 1202.902344 C 792.890625 1184.78125 814.214844 1165.753906 834.1875 1145.933594 C 852.75 1127.550781 870.171875 1108.519531 886.539062 1088.964844 C 902.050781 1070.40625 916.597656 1051.40625 930.238281 1032.027344 C 943.433594 1013.347656 955.78125 994.320312 967.339844 975.058594 C 978.628906 956.261719 989.160156 937.234375 998.984375 918.117188 C 1008.722656 899.234375 1017.753906 880.207031 1026.140625 861.148438 C 1034.558594 842.148438 1042.300781 823.121094 1049.457031 804.179688 Z M 1049.457031 804.179688 " fill-opacity="1" fill-rule="nonzero"/></g><g clip-path="url(#378b0a4f61)"><path fill="#3a322b" d="M 240.328125 1.339844 C 189.074219 1.339844 150.429688 53.058594 150.429688 121.640625 L 150.429688 1305.078125 L 12.09375 1305.078125 C 5.613281 1305.078125 0.363281 1310.328125 0.363281 1316.804688 L 0.363281 1392.328125 C 0.363281 1440.15625 39.285156 1479.066406 87.125 1479.066406 L 1097.628906 1479.066406 C 1179.503906 1479.066406 1246.109375 1412.472656 1246.109375 1330.625 L 1246.109375 232.742188 C 1304.601562 226.839844 1350.410156 177.335938 1350.410156 117.335938 C 1350.410156 53.375 1298.359375 1.339844 1234.378906 1.339844 Z M 23.824219 1392.328125 L 23.824219 1328.535156 L 150.429688 1328.535156 L 150.429688 1392.328125 C 150.429688 1427.222656 122.03125 1455.609375 87.128906 1455.609375 C 52.222656 1455.609375 23.824219 1427.222656 23.824219 1392.328125 Z M 1097.628906 1455.609375 L 146.375 1455.609375 C 163.292969 1439.769531 173.890625 1417.269531 173.890625 1392.328125 L 173.890625 121.640625 C 173.890625 66.429688 202.453125 24.796875 240.328125 24.796875 C 278.203125 24.796875 306.765625 66.429688 306.765625 121.640625 C 306.765625 125.089844 306.6875 128.464844 306.535156 131.757812 L 208.976562 131.757812 C 202.5 131.757812 197.246094 137.007812 197.246094 143.484375 C 197.246094 181.003906 221.886719 233.332031 262.015625 233.332031 L 1222.648438 233.332031 L 1222.648438 1330.625 C 1222.648438 1399.539062 1166.566406 1455.609375 1097.628906 1455.609375 Z M 262.019531 209.878906 C 241.769531 209.878906 225.824219 180.148438 221.730469 155.214844 L 304.003906 155.214844 C 297.988281 188.90625 282.601562 209.878906 262.019531 209.878906 Z M 1326.949219 117.335938 C 1326.949219 168.363281 1285.421875 209.878906 1234.378906 209.878906 L 306.921875 209.878906 C 321.738281 190.441406 330.230469 159.847656 330.230469 121.644531 C 330.230469 81.035156 316.679688 46.34375 294.984375 24.796875 L 1234.378906 24.796875 C 1285.421875 24.796875 1326.949219 66.308594 1326.949219 117.335938 Z M 331.542969 453.640625 C 331.570312 453.640625 331.601562 453.640625 331.628906 453.640625 C 357.292969 453.449219 405.828125 439.027344 405.828125 385.820312 C 405.828125 332.613281 357.292969 318.191406 331.628906 318 C 328.5625 317.839844 325.496094 319.199219 323.277344 321.402344 C 321.058594 323.605469 319.808594 326.597656 319.808594 329.726562 L 319.808594 441.910156 C 319.808594 445.035156 321.058594 448.03125 323.277344 450.234375 C 325.476562 452.417969 328.449219 453.640625 331.542969 453.640625 Z M 343.273438 342.757812 C 358.488281 345.6875 382.367188 355.164062 382.367188 385.820312 C 382.367188 416.480469 358.472656 425.957031 343.273438 428.882812 Z M 431.503906 441.910156 L 431.503906 329.726562 C 431.503906 323.25 436.753906 318 443.234375 318 L 487.261719 318 C 493.742188 318 498.992188 323.25 498.992188 329.726562 C 498.992188 336.203125 493.742188 341.457031 487.261719 341.457031 L 454.964844 341.457031 L 454.964844 374.089844 L 487.261719 374.089844 C 493.742188 374.089844 498.992188 379.34375 498.992188 385.820312 C 498.992188 392.296875 493.742188 397.546875 487.261719 397.546875 L 454.964844 397.546875 L 454.964844 430.183594 L 487.261719 430.183594 C 493.742188 430.183594 498.992188 435.433594 498.992188 441.910156 C 498.992188 448.386719 493.742188 453.640625 487.261719 453.640625 L 443.234375 453.640625 C 436.753906 453.640625 431.503906 448.386719 431.503906 441.910156 Z M 525.710938 385.820312 C 525.710938 347.789062 546.148438 318 572.238281 318 C 584.546875 318 596.058594 324.648438 604.652344 336.71875 C 608.410156 342 607.175781 349.320312 601.898438 353.074219 C 596.617188 356.832031 589.292969 355.597656 585.535156 350.320312 C 583.183594 347.007812 578.320312 341.457031 572.242188 341.457031 C 561.355469 341.457031 549.179688 360.429688 549.179688 385.824219 C 549.179688 411.214844 561.355469 430.1875 572.242188 430.1875 C 578.351562 430.1875 583.230469 424.585938 585.589844 421.246094 C 589.332031 415.957031 596.652344 414.707031 601.945312 418.445312 C 607.230469 422.1875 608.488281 429.507812 604.746094 434.796875 C 596.140625 446.949219 584.601562 453.640625 572.242188 453.640625 C 546.148438 453.640625 525.710938 423.851562 525.710938 385.820312 Z M 631.195312 441.910156 L 631.195312 330.195312 C 631.195312 323.71875 636.449219 318.46875 642.925781 318.46875 C 649.40625 318.46875 654.660156 323.71875 654.660156 330.195312 L 654.660156 430.183594 L 684.71875 430.183594 C 691.195312 430.183594 696.449219 435.433594 696.449219 441.910156 C 696.449219 448.386719 691.195312 453.640625 684.71875 453.640625 L 642.925781 453.640625 C 636.449219 453.640625 631.195312 448.386719 631.195312 441.910156 Z M 732.519531 452.921875 C 738.605469 455.15625 745.339844 452.027344 747.566406 445.941406 L 751.476562 435.261719 L 803.421875 435.261719 L 807.332031 445.941406 C 809.070312 450.695312 813.566406 453.640625 818.351562 453.640625 C 819.691406 453.640625 821.050781 453.410156 822.382812 452.921875 C 828.464844 450.699219 831.597656 443.964844 829.367188 437.878906 L 788.46875 326.164062 C 786.777344 321.542969 782.375 318.46875 777.453125 318.46875 C 772.527344 318.46875 768.128906 321.542969 766.4375 326.164062 L 725.535156 437.878906 C 723.304688 443.960938 726.433594 450.699219 732.519531 452.921875 Z M 777.449219 364.320312 L 794.835938 411.804688 L 760.0625 411.804688 Z M 979.199219 452.921875 C 980.53125 453.410156 981.890625 453.640625 983.230469 453.640625 C 988.015625 453.640625 992.511719 450.695312 994.25 445.941406 L 998.160156 435.261719 L 1050.105469 435.261719 L 1054.015625 445.941406 C 1056.246094 452.027344 1062.984375 455.15625 1069.066406 452.921875 C 1075.148438 450.699219 1078.277344 443.960938 1076.046875 437.878906 L 1035.144531 326.164062 C 1033.453125 321.542969 1029.050781 318.46875 1024.128906 318.46875 C 1019.207031 318.46875 1014.808594 321.542969 1013.113281 326.164062 L 972.214844 437.878906 C 969.988281 443.964844 973.117188 450.699219 979.199219 452.921875 Z M 1024.128906 364.320312 L 1041.515625 411.804688 L 1006.746094 411.804688 Z M 866.214844 453.640625 C 872.695312 453.640625 877.945312 448.386719 877.945312 441.910156 L 877.945312 397.546875 L 900.320312 397.546875 L 925.132812 447.15625 C 927.191406 451.265625 931.332031 453.640625 935.636719 453.640625 C 937.398438 453.640625 939.191406 453.242188 940.875 452.402344 C 946.671875 449.503906 949.015625 442.460938 946.121094 436.664062 L 924.613281 393.664062 C 938.035156 387.265625 947.359375 373.609375 947.359375 357.773438 C 947.359375 335.84375 929.511719 318.003906 907.574219 318.003906 L 866.214844 318.003906 C 859.738281 318.003906 854.484375 323.253906 854.484375 329.730469 L 854.484375 441.914062 C 854.484375 448.386719 859.738281 453.640625 866.214844 453.640625 Z M 877.945312 341.457031 L 907.574219 341.457031 C 916.574219 341.457031 923.894531 348.777344 923.894531 357.773438 C 923.894531 366.765625 916.574219 374.089844 907.574219 374.089844 L 877.945312 374.089844 Z M 719.113281 512.199219 L 695.414062 512.199219 C 688.933594 512.199219 683.683594 506.949219 683.683594 500.472656 C 683.683594 493.996094 688.933594 488.742188 695.414062 488.742188 L 766.273438 488.742188 C 772.75 488.742188 778.003906 493.996094 778.003906 500.472656 C 778.003906 506.949219 772.75 512.199219 766.273438 512.199219 L 742.574219 512.199219 L 742.574219 612.183594 C 742.574219 618.660156 737.320312 623.910156 730.84375 623.910156 C 724.363281 623.910156 719.113281 618.660156 719.113281 612.183594 Z M 831.339844 500.472656 L 831.339844 612.183594 C 831.339844 618.660156 826.089844 623.910156 819.609375 623.910156 C 813.128906 623.910156 807.878906 618.660156 807.878906 612.183594 L 807.878906 500.472656 C 807.878906 493.996094 813.128906 488.742188 819.609375 488.742188 C 826.089844 488.742188 831.339844 493.996094 831.339844 500.472656 Z M 1076.761719 500.472656 L 1076.761719 612.183594 C 1076.761719 617.441406 1073.257812 622.0625 1068.191406 623.480469 C 1067.144531 623.773438 1066.082031 623.910156 1065.03125 623.910156 C 1061.007812 623.910156 1057.167969 621.835938 1055.003906 618.265625 L 1008.957031 542.40625 L 1008.957031 612.183594 C 1008.957031 618.660156 1003.703125 623.910156 997.222656 623.910156 C 990.746094 623.910156 985.492188 618.660156 985.492188 612.183594 L 985.492188 500.472656 C 985.492188 495.210938 988.996094 490.59375 994.066406 489.175781 C 999.128906 487.765625 1004.523438 489.890625 1007.253906 494.386719 L 1053.304688 570.246094 L 1053.304688 500.46875 C 1053.304688 493.992188 1058.554688 488.742188 1065.035156 488.742188 C 1071.515625 488.742188 1076.761719 493.996094 1076.761719 500.472656 Z M 906.28125 488.742188 C 878.914062 488.742188 857.480469 518.429688 857.480469 556.328125 C 857.480469 594.226562 878.917969 623.910156 906.28125 623.910156 C 933.644531 623.910156 955.085938 594.226562 955.085938 556.328125 C 955.085938 518.429688 933.648438 488.742188 906.28125 488.742188 Z M 906.28125 600.457031 C 894.296875 600.457031 880.945312 582.332031 880.945312 556.328125 C 880.945312 530.320312 894.296875 512.199219 906.28125 512.199219 C 918.265625 512.199219 931.621094 530.320312 931.621094 556.328125 C 931.621094 582.332031 918.269531 600.457031 906.28125 600.457031 Z M 654.660156 500.472656 C 654.660156 506.949219 649.40625 512.199219 642.925781 512.199219 L 305.933594 512.199219 C 299.453125 512.199219 294.199219 506.949219 294.199219 500.472656 C 294.199219 493.996094 299.453125 488.742188 305.933594 488.742188 L 642.925781 488.742188 C 649.40625 488.742188 654.660156 493.996094 654.660156 500.472656 Z M 654.660156 576.367188 C 654.660156 582.84375 649.40625 588.09375 642.925781 588.09375 L 305.933594 588.09375 C 299.453125 588.09375 294.199219 582.84375 294.199219 576.367188 C 294.199219 569.890625 299.453125 564.636719 305.933594 564.636719 L 642.925781 564.636719 C 649.40625 564.636719 654.660156 569.890625 654.660156 576.367188 Z M 654.660156 633.324219 C 654.660156 639.800781 649.40625 645.050781 642.925781 645.050781 L 305.933594 645.050781 C 299.453125 645.050781 294.199219 639.800781 294.199219 633.324219 C 294.199219 626.847656 299.453125 621.59375 305.933594 621.59375 L 642.925781 621.59375 C 649.40625 621.59375 654.660156 626.847656 654.660156 633.324219 Z M 654.660156 690.28125 C 654.660156 696.757812 649.40625 702.007812 642.925781 702.007812 L 305.933594 702.007812 C 299.453125 702.007812 294.199219 696.757812 294.199219 690.28125 C 294.199219 683.800781 299.453125 678.550781 305.933594 678.550781 L 642.925781 678.550781 C 649.40625 678.550781 654.660156 683.800781 654.660156 690.28125 Z M 654.660156 747.234375 C 654.660156 753.714844 649.40625 758.964844 642.925781 758.964844 L 305.933594 758.964844 C 299.453125 758.964844 294.199219 753.714844 294.199219 747.234375 C 294.199219 740.757812 299.453125 735.507812 305.933594 735.507812 L 642.925781 735.507812 C 649.40625 735.507812 654.660156 740.757812 654.660156 747.234375 Z M 654.660156 804.191406 C 654.660156 810.667969 649.40625 815.921875 642.925781 815.921875 L 305.933594 815.921875 C 299.453125 815.921875 294.199219 810.667969 294.199219 804.191406 C 294.199219 797.714844 299.453125 792.464844 305.933594 792.464844 L 642.925781 792.464844 C 649.40625 792.464844 654.660156 797.714844 654.660156 804.191406 Z M 654.660156 861.148438 C 654.660156 867.625 649.40625 872.878906 642.925781 872.878906 L 305.933594 872.878906 C 299.453125 872.878906 294.199219 867.625 294.199219 861.148438 C 294.199219 854.671875 299.453125 849.421875 305.933594 849.421875 L 642.925781 849.421875 C 649.40625 849.421875 654.660156 854.671875 654.660156 861.148438 Z M 654.660156 918.109375 C 654.660156 924.585938 649.40625 929.835938 642.925781 929.835938 L 305.933594 929.835938 C 299.453125 929.835938 294.199219 924.585938 294.199219 918.109375 C 294.199219 911.632812 299.453125 906.382812 305.933594 906.382812 L 642.925781 906.382812 C 649.40625 906.382812 654.660156 911.632812 654.660156 918.109375 Z M 654.660156 975.0625 C 654.660156 981.539062 649.40625 986.789062 642.925781 986.789062 L 305.933594 986.789062 C 299.453125 986.789062 294.199219 981.539062 294.199219 975.0625 C 294.199219 968.585938 299.453125 963.335938 305.933594 963.335938 L 642.925781 963.335938 C 649.40625 963.335938 654.660156 968.589844 654.660156 975.0625 Z M 654.660156 1032.023438 C 654.660156 1038.5 649.40625 1043.75 642.925781 1043.75 L 305.933594 1043.75 C 299.453125 1043.75 294.199219 1038.5 294.199219 1032.023438 C 294.199219 1025.546875 299.453125 1020.292969 305.933594 1020.292969 L 642.925781 1020.292969 C 649.40625 1020.292969 654.660156 1025.546875 654.660156 1032.023438 Z M 654.660156 1088.980469 C 654.660156 1095.457031 649.40625 1100.707031 642.925781 1100.707031 L 305.933594 1100.707031 C 299.453125 1100.707031 294.199219 1095.457031 294.199219 1088.980469 C 294.199219 1082.503906 299.453125 1077.25 305.933594 1077.25 L 642.925781 1077.25 C 649.40625 1077.25 654.660156 1082.503906 654.660156 1088.980469 Z M 654.660156 1145.9375 C 654.660156 1152.414062 649.40625 1157.664062 642.925781 1157.664062 L 305.933594 1157.664062 C 299.453125 1157.664062 294.199219 1152.414062 294.199219 1145.9375 C 294.199219 1139.460938 299.453125 1134.207031 305.933594 1134.207031 L 642.925781 1134.207031 C 649.40625 1134.207031 654.660156 1139.460938 654.660156 1145.9375 Z M 654.660156 1202.894531 C 654.660156 1209.371094 649.40625 1214.625 642.925781 1214.625 L 305.933594 1214.625 C 299.453125 1214.625 294.199219 1209.371094 294.199219 1202.894531 C 294.199219 1196.417969 299.453125 1191.167969 305.933594 1191.167969 L 642.925781 1191.167969 C 649.40625 1191.167969 654.660156 1196.417969 654.660156 1202.894531 Z M 654.660156 1259.847656 C 654.660156 1266.328125 649.40625 1271.578125 642.925781 1271.578125 L 305.933594 1271.578125 C 299.453125 1271.578125 294.199219 1266.328125 294.199219 1259.847656 C 294.199219 1253.371094 299.453125 1248.121094 305.933594 1248.121094 L 642.925781 1248.121094 C 649.40625 1248.121094 654.660156 1253.371094 654.660156 1259.847656 Z M 654.660156 1316.804688 C 654.660156 1323.28125 649.40625 1328.535156 642.925781 1328.535156 L 305.933594 1328.535156 C 299.453125 1328.535156 294.199219 1323.28125 294.199219 1316.804688 C 294.199219 1310.328125 299.453125 1305.078125 305.933594 1305.078125 L 642.925781 1305.078125 C 649.40625 1305.078125 654.660156 1310.328125 654.660156 1316.804688 Z M 1076.761719 690.28125 C 1076.761719 696.757812 1071.511719 702.007812 1065.03125 702.007812 L 730.84375 702.007812 C 724.363281 702.007812 719.113281 696.757812 719.113281 690.28125 C 719.113281 683.800781 724.363281 678.550781 730.84375 678.550781 L 1065.03125 678.550781 C 1071.511719 678.550781 1076.761719 683.800781 1076.761719 690.28125 Z M 1076.761719 747.234375 C 1076.761719 753.714844 1071.511719 758.964844 1065.03125 758.964844 L 730.84375 758.964844 C 724.363281 758.964844 719.113281 753.714844 719.113281 747.234375 C 719.113281 740.757812 724.363281 735.507812 730.84375 735.507812 L 1065.03125 735.507812 C 1071.511719 735.507812 1076.761719 740.757812 1076.761719 747.234375 Z M 1076.761719 804.191406 C 1076.761719 810.667969 1071.511719 815.921875 1065.03125 815.921875 L 730.84375 815.921875 C 724.363281 815.921875 719.113281 810.667969 719.113281 804.191406 C 719.113281 797.714844 724.363281 792.464844 730.84375 792.464844 L 1065.03125 792.464844 C 1071.511719 792.464844 1076.761719 797.714844 1076.761719 804.191406 Z M 1076.761719 861.148438 C 1076.761719 867.625 1071.511719 872.878906 1065.03125 872.878906 L 730.84375 872.878906 C 724.363281 872.878906 719.113281 867.625 719.113281 861.148438 C 719.113281 854.671875 724.363281 849.421875 730.84375 849.421875 L 1065.03125 849.421875 C 1071.511719 849.421875 1076.761719 854.671875 1076.761719 861.148438 Z M 1076.761719 918.109375 C 1076.761719 924.585938 1071.511719 929.835938 1065.03125 929.835938 L 730.84375 929.835938 C 724.363281 929.835938 719.113281 924.585938 719.113281 918.109375 C 719.113281 911.632812 724.363281 906.382812 730.84375 906.382812 L 1065.03125 906.382812 C 1071.511719 906.382812 1076.761719 911.632812 1076.761719 918.109375 Z M 1076.761719 975.0625 C 1076.761719 981.539062 1071.511719 986.789062 1065.03125 986.789062 L 730.84375 986.789062 C 724.363281 986.789062 719.113281 981.539062 719.113281 975.0625 C 719.113281 968.585938 724.363281 963.335938 730.84375 963.335938 L 1065.03125 963.335938 C 1071.511719 963.335938 1076.761719 968.589844 1076.761719 975.0625 Z M 1076.761719 1032.023438 C 1076.761719 1038.5 1071.511719 1043.75 1065.03125 1043.75 L 730.84375 1043.75 C 724.363281 1043.75 719.113281 1038.5 719.113281 1032.023438 C 719.113281 1025.546875 724.363281 1020.292969 730.84375 1020.292969 L 1065.03125 1020.292969 C 1071.511719 1020.292969 1076.761719 1025.546875 1076.761719 1032.023438 Z M 1076.761719 1088.980469 C 1076.761719 1095.457031 1071.511719 1100.707031 1065.03125 1100.707031 L 730.84375 1100.707031 C 724.363281 1100.707031 719.113281 1095.457031 719.113281 1088.980469 C 719.113281 1082.503906 724.363281 1077.25 730.84375 1077.25 L 1065.03125 1077.25 C 1071.511719 1077.25 1076.761719 1082.503906 1076.761719 1088.980469 Z M 1076.761719 1145.9375 C 1076.761719 1152.414062 1071.511719 1157.664062 1065.03125 1157.664062 L 730.84375 1157.664062 C 724.363281 1157.664062 719.113281 1152.414062 719.113281 1145.9375 C 719.113281 1139.460938 724.363281 1134.207031 730.84375 1134.207031 L 1065.03125 1134.207031 C 1071.511719 1134.207031 1076.761719 1139.460938 1076.761719 1145.9375 Z M 1076.761719 1202.894531 C 1076.761719 1209.371094 1071.511719 1214.625 1065.03125 1214.625 L 730.84375 1214.625 C 724.363281 1214.625 719.113281 1209.371094 719.113281 1202.894531 C 719.113281 1196.417969 724.363281 1191.167969 730.84375 1191.167969 L 1065.03125 1191.167969 C 1071.511719 1191.167969 1076.761719 1196.417969 1076.761719 1202.894531 Z M 1076.761719 1259.847656 C 1076.761719 1266.328125 1071.511719 1271.578125 1065.03125 1271.578125 L 730.84375 1271.578125 C 724.363281 1271.578125 719.113281 1266.328125 719.113281 1259.847656 C 719.113281 1253.371094 724.363281 1248.121094 730.84375 1248.121094 L 1065.03125 1248.121094 C 1071.511719 1248.121094 1076.761719 1253.371094 1076.761719 1259.847656 Z M 1076.761719 1316.804688 C 1076.761719 1323.28125 1071.511719 1328.535156 1065.03125 1328.535156 L 730.84375 1328.535156 C 724.363281 1328.535156 719.113281 1323.28125 719.113281 1316.804688 C 719.113281 1310.328125 724.363281 1305.078125 730.84375 1305.078125 L 1065.03125 1305.078125 C 1071.511719 1305.078125 1076.761719 1310.328125 1076.761719 1316.804688 Z M 1076.761719 1316.804688 " fill-opacity="1" fill-rule="nonzero"/></g></g></g></g><path fill="#ffffff" d="M 0.00390625 136.84375 C 0.871094 237.113281 1.742188 337.378906 2.609375 437.648438 C 18.664062 408.253906 56.46875 368.804688 101.613281 371.503906 C 197.820312 382.230469 264.03125 491.417969 347.835938 496.992188 C 397.957031 498.496094 422.320312 464.234375 447.90625 431.679688 C 446.882812 331.925781 445.863281 232.175781 444.835938 132.421875 C 422.5 169.101562 383.109375 202.332031 340.386719 196.902344 C 280.726562 189.996094 173.429688 79.648438 102.140625 71.546875 C 51.878906 65.964844 22.242188 104.109375 0.00390625 136.84375 Z M 0.00390625 136.84375 " fill-opacity="1" fill-rule="evenodd"/><path fill="#c40006" d="M 1.949219 361.160156 L 2.183594 388.5 C 27.566406 354.308594 50.328125 321.304688 102.773438 323.363281 C 185.773438 331.8125 274.574219 450.105469 356.347656 449.027344 C 396.839844 446.71875 421.167969 421.332031 447.417969 384.015625 L 447.144531 357.363281 C 417.316406 398.953125 394.246094 416.996094 361.730469 422.015625 C 277.886719 426.882812 195.945312 311.917969 106.4375 296.851562 C 62.804688 290.234375 24.46875 323.394531 1.949219 361.160156 Z M 2.351562 407.59375 L 2.609375 437.648438 C 18.664062 408.253906 56.46875 368.804688 101.613281 371.503906 C 197.820312 382.230469 264.03125 491.417969 347.835938 496.992188 C 397.957031 498.496094 422.320312 464.234375 447.90625 431.679688 L 447.605469 402.253906 C 428.820312 431.328125 398.375 467.21875 356.96875 468.679688 C 279.023438 471.441406 180.933594 347.253906 103.402344 342.265625 C 59.171875 340.566406 26.78125 366.519531 2.351562 407.59375 Z M 2.351562 407.59375 " fill-opacity="1" fill-rule="evenodd"/><path fill="#c40006" d="M 0.00390625 136.84375 L 0.183594 157.519531 C 23.363281 123.085938 54.597656 92.605469 91.429688 92.78125 C 148.152344 92.589844 208.011719 147.195312 243.390625 171.015625 C 246.996094 174.023438 250.605469 177.03125 254.207031 180.039062 L 260.265625 158.113281 C 207.332031 123.164062 147.460938 76.699219 102.140625 71.546875 C 51.882812 65.964844 22.242188 104.109375 0.00390625 136.84375 Z M 0.351562 176.765625 L 0.578125 203.335938 C 27.941406 161.355469 67.375 130.453125 111.921875 140.472656 C 166.316406 153.316406 213.703125 198.710938 243.878906 216.953125 C 253.179688 211.398438 262.480469 205.847656 271.777344 200.296875 C 262.382812 196.886719 252.988281 193.480469 243.59375 190.070312 C 217.039062 173.109375 157.449219 120.003906 102.714844 111.945312 C 57.546875 108.351562 25.605469 137.835938 0.351562 176.765625 Z M 0.757812 223.558594 L 0.972656 248.765625 C 29.253906 208.394531 63.417969 178.652344 107.957031 185.949219 C 160.472656 196 213.261719 242.226562 244.375 263.683594 C 263.128906 269.308594 281.882812 274.933594 300.640625 280.554688 L 284.265625 251.023438 L 244.082031 236.25 C 199 202.734375 143.390625 159.539062 97.617188 158.316406 C 58.613281 157.574219 23.445312 184.789062 0.757812 223.558594 Z M 1.160156 270.082031 L 1.386719 296.539062 C 26.351562 258.46875 61.007812 226.246094 104.613281 232.289062 C 158.707031 237.644531 217.65625 292.46875 244.863281 310.105469 C 276.117188 312.335938 307.367188 314.5625 338.617188 316.789062 C 307.273438 305.484375 275.925781 294.175781 244.578125 282.867188 C 208.449219 256.59375 161.957031 216.617188 112.625 206.070312 C 70.617188 197.511719 27.535156 222.902344 1.160156 270.082031 Z M 1.546875 314.96875 L 1.777344 341.574219 C 16.25 323.636719 42.148438 274.066406 107.382812 278.148438 C 172.621094 282.230469 259.378906 388.378906 338.273438 401.507812 C 377.609375 408.839844 419.644531 384.863281 446.953125 338.710938 L 446.664062 310.53125 C 414.257812 359.980469 375.90625 383.621094 337.925781 374.992188 C 254.675781 359.699219 198.695312 271.484375 110.578125 251.136719 C 70.699219 245.183594 33.234375 264.785156 1.546875 314.96875 Z M 1.546875 314.96875 " fill-opacity="1" fill-rule="evenodd"/><path fill="#03203e" d="M 446.488281 293.316406 L 444.835938 132.421875 C 422.5 169.101562 383.109375 202.332031 340.386719 196.902344 C 314.617188 193.917969 279.949219 171.625 243.136719 146.613281 C 243.710938 201.113281 244.289062 255.609375 244.863281 310.105469 C 316.824219 361.640625 382.492188 389.652344 446.488281 293.316406 Z M 446.488281 293.316406 " fill-opacity="1" fill-rule="evenodd"/><path fill="#ffffff" d="M 344.96875 221.230469 L 343.324219 225.945312 L 338.339844 225.820312 L 342.308594 228.835938 L 340.652344 233.539062 L 344.746094 230.695312 L 348.707031 233.730469 L 347.265625 228.953125 L 351.375 226.121094 L 346.390625 226.015625 Z M 344.96875 221.230469 " fill-opacity="1" fill-rule="evenodd"/><path fill="#ffffff" d="M 345.03125 253.824219 L 343.441406 258.550781 L 338.449219 258.476562 L 342.453125 261.453125 L 340.84375 266.175781 L 344.914062 263.285156 L 348.902344 266.277344 L 347.414062 261.515625 L 351.492188 258.644531 L 346.503906 258.589844 Z M 345.03125 253.824219 " fill-opacity="1" fill-rule="evenodd"/><path fill="#ffffff" d="M 345.082031 286.355469 L 343.492188 291.082031 L 338.503906 291.007812 L 342.507812 293.984375 L 340.894531 298.707031 L 344.964844 295.816406 L 348.953125 298.808594 L 347.464844 294.050781 L 351.542969 291.175781 L 346.554688 291.121094 Z M 345.082031 286.355469 " fill-opacity="1" fill-rule="evenodd"/><path fill="#ffffff" d="M 345.953125 318.914062 L 344.359375 323.644531 L 339.371094 323.570312 L 343.375 326.546875 L 341.761719 331.269531 L 345.832031 328.378906 L 349.824219 331.371094 L 348.332031 326.609375 L 352.410156 323.738281 L 347.425781 323.683594 Z M 345.953125 318.914062 " fill-opacity="1" fill-rule="evenodd"/><path fill="#ffffff" d="M 330.261719 333.183594 L 328.644531 337.976562 L 324 337.074219 L 327.644531 340.914062 L 326.007812 345.691406 L 329.878906 343.277344 L 333.515625 347.128906 L 332.261719 341.796875 L 336.144531 339.398438 L 331.496094 338.519531 Z M 330.261719 333.183594 " fill-opacity="1" fill-rule="evenodd"/><path fill="#ffffff" d="M 329.960938 300.480469 L 328.339844 305.269531 L 323.695312 304.371094 L 327.339844 308.210938 L 325.707031 312.984375 L 329.578125 310.570312 L 333.214844 314.421875 L 331.960938 309.09375 L 335.84375 306.691406 L 331.195312 305.816406 Z M 329.960938 300.480469 " fill-opacity="1" fill-rule="evenodd"/><path fill="#ffffff" d="M 329.753906 268.300781 L 327.929688 272.570312 L 323.351562 271.328125 L 326.808594 275.1875 L 324.972656 279.441406 L 328.929688 277.5625 L 332.378906 281.429688 L 331.363281 276.410156 L 335.332031 274.542969 L 330.75 273.324219 Z M 329.753906 268.300781 " fill-opacity="1" fill-rule="evenodd"/><path fill="#ffffff" d="M 329.308594 235.25 L 327.691406 240.039062 L 323.046875 239.140625 L 326.691406 242.976562 L 325.058594 247.757812 L 328.929688 245.339844 L 332.5625 249.195312 L 331.308594 243.863281 L 335.191406 241.464844 L 330.546875 240.585938 Z M 329.308594 235.25 " fill-opacity="1" fill-rule="evenodd"/><path fill="#ffffff" d="M 328.902344 202.921875 L 327.285156 207.707031 L 322.640625 206.808594 L 326.285156 210.648438 L 324.652344 215.425781 L 328.523438 213.007812 L 332.15625 216.863281 L 330.902344 211.53125 L 334.785156 209.132812 L 330.140625 208.253906 Z M 328.902344 202.921875 " fill-opacity="1" fill-rule="evenodd"/><path fill="#ffffff" d="M 313.199219 213.765625 L 311.570312 218.582031 L 307.070312 217.324219 L 310.5625 221.535156 L 308.917969 226.339844 L 312.703125 224.125 L 316.183594 228.351562 L 315.035156 222.773438 L 318.828125 220.578125 L 314.332031 219.34375 Z M 313.199219 213.765625 " fill-opacity="1" fill-rule="evenodd"/><path fill="#ffffff" d="M 297.367188 223.367188 L 295.753906 228.246094 L 291.015625 226.175781 L 294.757812 231.234375 L 293.132812 236.09375 L 297.054688 234.34375 L 300.789062 239.417969 L 299.46875 233.277344 L 303.40625 231.550781 L 298.664062 229.507812 Z M 297.367188 223.367188 " fill-opacity="1" fill-rule="evenodd"/><path fill="#ffffff" d="M 296.691406 190.796875 L 295.078125 195.667969 L 290.285156 193.648438 L 294.089844 198.65625 L 292.464844 203.511719 L 296.421875 201.734375 L 300.21875 206.753906 L 298.859375 200.648438 L 302.828125 198.894531 L 298.03125 196.902344 Z M 296.691406 190.796875 " fill-opacity="1" fill-rule="evenodd"/><path fill="#ffffff" d="M 280.480469 198.367188 L 279.082031 202.699219 L 274.664062 200.363281 L 278.214844 205.351562 L 276.796875 209.667969 L 280.390625 208.425781 L 283.933594 213.429688 L 282.605469 207.664062 L 286.210938 206.441406 L 281.792969 204.125 Z M 280.480469 198.367188 " fill-opacity="1" fill-rule="evenodd"/><path fill="#ffffff" d="M 265.167969 206.109375 L 263.511719 209.894531 L 258.714844 207.882812 L 262.488281 212.214844 L 260.808594 215.984375 L 264.800781 214.878906 L 268.558594 219.226562 L 267.253906 214.207031 L 271.253906 213.121094 L 266.457031 211.125 Z M 265.167969 206.109375 " fill-opacity="1" fill-rule="evenodd"/><path fill="#ffffff" d="M 265.003906 173.105469 L 263.339844 176.875 L 258.429688 174.027344 L 262.3125 179.1875 L 260.632812 182.945312 L 264.691406 182.359375 L 268.566406 187.53125 L 267.191406 182.011719 L 271.265625 181.453125 L 266.355469 178.621094 Z M 265.003906 173.105469 " fill-opacity="1" fill-rule="evenodd"/><path fill="#ffffff" d="M 281.328125 230.703125 L 279.839844 235.015625 L 275.039062 232.195312 L 278.921875 237.65625 L 277.414062 241.949219 L 281.304688 241.015625 L 285.179688 246.492188 L 283.695312 240.449219 L 287.597656 239.539062 L 282.796875 236.742188 Z M 281.328125 230.703125 " fill-opacity="1" fill-rule="evenodd"/><path fill="#ffffff" d="M 265.296875 237.683594 L 263.808594 241.992188 L 259.007812 239.171875 L 262.890625 244.632812 L 261.386719 248.925781 L 265.273438 247.992188 L 269.148438 253.46875 L 267.667969 247.425781 L 271.566406 246.515625 L 266.761719 243.71875 Z M 265.296875 237.683594 " fill-opacity="1" fill-rule="evenodd"/><path fill="#ffffff" d="M 312.945312 246.9375 L 311.523438 251.261719 L 307.128906 249.75 L 310.640625 253.914062 L 309.199219 258.226562 L 312.796875 256.472656 L 316.296875 260.652344 L 315.007812 255.402344 L 318.613281 253.671875 L 314.222656 252.183594 Z M 312.945312 246.9375 " fill-opacity="1" fill-rule="evenodd"/><path fill="#ffffff" d="M 297.226562 256.425781 L 295.8125 260.785156 L 291.207031 258.773438 L 294.945312 263.464844 L 293.519531 267.8125 L 297.238281 266.347656 L 300.964844 271.046875 L 299.523438 265.453125 L 303.253906 264.011719 L 298.644531 262.019531 Z M 297.226562 256.425781 " fill-opacity="1" fill-rule="evenodd"/><path fill="#ffffff" d="M 314.175781 279.125 L 312.359375 283.386719 L 307.902344 281.839844 L 311.234375 286.003906 L 309.402344 290.253906 L 313.277344 288.5625 L 316.597656 292.738281 L 315.664062 287.53125 L 319.550781 285.863281 L 315.09375 284.332031 Z M 314.175781 279.125 " fill-opacity="1" fill-rule="evenodd"/><path fill="#ffffff" d="M 297.851562 289.546875 L 296.261719 293.503906 L 291.664062 291.464844 L 295.277344 295.933594 L 293.667969 299.878906 L 297.492188 298.683594 L 301.09375 303.164062 L 299.84375 297.957031 L 303.675781 296.78125 L 299.082031 294.753906 Z M 297.851562 289.546875 " fill-opacity="1" fill-rule="evenodd"/><path fill="#ffffff" d="M 313.085938 311.128906 L 312.023438 315.304688 L 307.414062 313.257812 L 311.363281 317.867188 L 310.285156 322.035156 L 313.789062 320.707031 L 317.730469 325.328125 L 315.945312 319.894531 L 319.460938 318.585938 L 314.855469 316.558594 Z M 313.085938 311.128906 " fill-opacity="1" fill-rule="evenodd"/><path fill="#ffffff" d="M 297.339844 321.617188 L 296.273438 325.796875 L 291.664062 323.746094 L 295.617188 328.359375 L 294.535156 332.523438 L 298.039062 331.199219 L 301.984375 335.820312 L 300.199219 330.386719 L 303.714844 329.078125 L 299.105469 327.050781 Z M 297.339844 321.617188 " fill-opacity="1" fill-rule="evenodd"/><path fill="#ffffff" d="M 281.878906 296.15625 L 280.296875 300.117188 L 275.703125 298.074219 L 279.316406 302.546875 L 277.714844 306.496094 L 281.53125 305.296875 L 285.136719 309.78125 L 283.882812 304.570312 L 287.714844 303.390625 L 283.117188 301.367188 Z M 281.878906 296.15625 " fill-opacity="1" fill-rule="evenodd"/><path fill="#ffffff" d="M 266.011719 302.804688 L 264.421875 306.769531 L 260.015625 304.28125 L 263.441406 309.203125 L 261.84375 313.152344 L 265.546875 312.230469 L 268.964844 317.164062 L 267.828125 311.667969 L 271.539062 310.765625 L 267.132812 308.292969 Z M 266.011719 302.804688 " fill-opacity="1" fill-rule="evenodd"/><path fill="#ffffff" d="M 280.761719 263.296875 L 279.675781 267.472656 L 275.195312 264.953125 L 279.003906 270.035156 L 277.898438 274.191406 L 281.339844 273.160156 L 285.136719 278.246094 L 283.457031 272.53125 L 286.90625 271.515625 L 282.429688 269.015625 Z M 280.761719 263.296875 " fill-opacity="1" fill-rule="evenodd"/><path fill="#ffffff" d="M 264.996094 271.070312 L 263.742188 274.777344 L 259.289062 272.324219 L 262.96875 277.050781 L 261.699219 280.742188 L 265.226562 279.957031 L 268.898438 284.691406 L 267.398438 279.480469 L 270.933594 278.714844 L 266.480469 276.28125 Z M 264.996094 271.070312 " fill-opacity="1" fill-rule="evenodd"/><path fill="#ffffff" d="M 360.742188 205.238281 L 359.105469 209.929688 L 353.972656 210.15625 L 358.097656 212.808594 L 356.445312 217.492188 L 360.628906 214.441406 L 364.738281 217.113281 L 363.199219 212.574219 L 367.390625 209.539062 L 362.261719 209.785156 Z M 360.742188 205.238281 " fill-opacity="1" fill-rule="evenodd"/><path fill="#ffffff" d="M 360.886719 237.894531 L 359.265625 242.558594 L 353.96875 243.175781 L 358.261719 245.421875 L 356.621094 250.082031 L 360.898438 246.808594 L 365.179688 249.066406 L 363.527344 244.796875 L 367.816406 241.535156 L 362.523438 242.171875 Z M 360.886719 237.894531 " fill-opacity="1" fill-rule="evenodd"/><path fill="#ffffff" d="M 361.300781 270.492188 L 359.640625 275.144531 L 354.894531 275.964844 L 358.617188 278 L 356.941406 282.652344 L 360.90625 279.257812 L 364.613281 281.3125 L 363.339844 277.179688 L 367.308594 273.796875 L 362.558594 274.636719 Z M 361.300781 270.492188 " fill-opacity="1" fill-rule="evenodd"/><path fill="#ffffff" d="M 361.914062 303.339844 L 360.261719 307.992188 L 355.511719 308.808594 L 359.234375 310.847656 L 357.5625 315.496094 L 361.519531 312.105469 L 365.234375 314.15625 L 363.957031 310.023438 L 367.925781 306.644531 L 363.179688 307.480469 Z M 361.914062 303.339844 " fill-opacity="1" fill-rule="evenodd"/><path fill="#ffffff" d="M 362.386719 335.757812 L 360.730469 340.410156 L 355.984375 341.230469 L 359.707031 343.265625 L 358.03125 347.917969 L 361.988281 344.523438 L 365.703125 346.578125 L 364.425781 342.441406 L 368.398438 339.0625 L 363.648438 339.902344 Z M 362.386719 335.757812 " fill-opacity="1" fill-rule="evenodd"/><path fill="#ffffff" d="M 377.734375 315.519531 L 376.0625 320.15625 L 371.5625 321.238281 L 375.027344 323.003906 L 373.339844 327.636719 L 377.15625 324.09375 L 380.613281 325.878906 L 379.507812 321.921875 L 383.332031 318.390625 L 378.828125 319.488281 Z M 377.734375 315.519531 " fill-opacity="1" fill-rule="evenodd"/><path fill="#ffffff" d="M 393.515625 325.28125 L 391.589844 330.335938 L 388.402344 332.683594 L 391.09375 333.347656 L 390.304688 337.554688 L 393.589844 334.148438 L 397.140625 334.246094 L 395.957031 331.515625 L 398.957031 326.632812 L 394.929688 328.113281 Z M 393.515625 325.28125 " fill-opacity="1" fill-rule="evenodd"/><path fill="#ffffff" d="M 409.109375 297.398438 L 406.960938 303.304688 L 403.28125 306.253906 L 406.523438 306.691406 L 406.289062 310.722656 L 409.726562 306.648438 L 413.148438 305.421875 L 411.410156 303.835938 L 414.539062 297.09375 L 409.847656 300.976562 Z M 409.109375 297.398438 " fill-opacity="1" fill-rule="evenodd"/><path fill="#ffffff" d="M 424.867188 298.742188 L 423.777344 304.535156 L 419.699219 309.289062 L 422.90625 308.347656 L 422.214844 312.992188 L 425.878906 307.402344 L 429.304688 306.171875 L 427.757812 304.167969 L 430.308594 297.433594 L 426 301.726562 Z M 424.867188 298.742188 " fill-opacity="1" fill-rule="evenodd"/><path fill="#ffffff" d="M 393.234375 292.824219 L 391.386719 297.996094 L 387.128906 300.148438 L 390.714844 301.945312 L 390.003906 306.027344 L 393.425781 302 L 397.625 301.699219 L 396.066406 298.824219 L 399.066406 293.847656 L 395.039062 295.527344 Z M 393.234375 292.824219 " fill-opacity="1" fill-rule="evenodd"/><path fill="#ffffff" d="M 376.339844 283.238281 L 375.292969 287.792969 L 370.675781 289.222656 L 374.644531 290.59375 L 373.578125 295.152344 L 377.082031 291.441406 L 381.039062 292.828125 L 379.234375 289.167969 L 382.746094 285.464844 L 378.128906 286.910156 Z M 376.339844 283.238281 " fill-opacity="1" fill-rule="evenodd"/><path fill="#ffffff" d="M 375.835938 250.847656 L 374.992188 255.484375 L 370.507812 256.96875 L 374.46875 258.335938 L 373.605469 262.976562 L 376.898438 259.183594 L 380.847656 260.566406 L 378.921875 256.855469 L 382.226562 253.070312 L 377.746094 254.570312 Z M 375.835938 250.847656 " fill-opacity="1" fill-rule="evenodd"/><path fill="#ffffff" d="M 392.910156 260.160156 L 390.820312 265.152344 L 386.410156 267.125 L 390.554688 267.996094 L 389.617188 272.71875 L 393.09375 268.53125 L 397.230469 269.421875 L 395.363281 266.203125 L 397.929688 261.945312 L 394.230469 263.21875 Z M 392.910156 260.160156 " fill-opacity="1" fill-rule="evenodd"/><path fill="#ffffff" d="M 408.683594 264.445312 L 407.308594 270.148438 L 402.386719 273.726562 L 406.542969 273.914062 L 405.835938 278.007812 L 408.976562 273.78125 L 413.066406 273.4375 L 411.722656 269.933594 L 414.226562 264.742188 L 410.066406 267.234375 Z M 408.683594 264.445312 " fill-opacity="1" fill-rule="evenodd"/><path fill="#ffffff" d="M 424.46875 266.421875 L 423.300781 272.753906 L 418.75 276.886719 L 422.253906 276.351562 L 421.519531 280.984375 L 425.542969 274.757812 L 429.121094 273.949219 L 427.777344 270.441406 L 430.476562 264.773438 L 426.125 268.453125 Z M 424.46875 266.421875 " fill-opacity="1" fill-rule="evenodd"/><path fill="#ffffff" d="M 423.652344 234.164062 L 422.71875 240.589844 L 418.378906 244.8125 L 421.808594 244.246094 L 421.242188 248.953125 L 425 242.609375 L 428.496094 241.769531 L 427.054688 238.222656 L 429.519531 232.457031 L 425.355469 236.214844 Z M 423.652344 234.164062 " fill-opacity="1" fill-rule="evenodd"/><path fill="#ffffff" d="M 423.546875 201.714844 L 422.613281 208.140625 L 418.269531 212.363281 L 421.703125 211.792969 L 421.136719 216.5 L 424.894531 210.160156 L 428.390625 209.316406 L 426.949219 205.769531 L 429.414062 200.007812 L 425.25 203.761719 Z M 423.546875 201.714844 " fill-opacity="1" fill-rule="evenodd"/><path fill="#ffffff" d="M 423.097656 168.777344 L 422.167969 175.207031 L 417.824219 179.425781 L 421.257812 178.859375 L 420.691406 183.570312 L 424.445312 177.222656 L 427.945312 176.382812 L 426.5 172.835938 L 428.964844 167.070312 L 424.804688 170.828125 Z M 423.097656 168.777344 " fill-opacity="1" fill-rule="evenodd"/><path fill="#ffffff" d="M 408.203125 232.191406 L 406.847656 237.851562 L 401.867188 241.5625 L 406.09375 241.589844 L 405.394531 245.640625 L 408.5625 241.367188 L 412.714844 240.871094 L 411.328125 237.476562 L 413.835938 232.265625 L 409.625 234.882812 Z M 408.203125 232.191406 " fill-opacity="1" fill-rule="evenodd"/><path fill="#ffffff" d="M 407.824219 199.472656 L 406.808594 205.277344 L 402.144531 209.113281 L 406.277344 209.101562 L 405.816406 213.253906 L 408.675781 208.851562 L 412.707031 208.304688 L 411.167969 204.84375 L 413.335938 199.496094 L 409.363281 202.210938 Z M 407.824219 199.472656 " fill-opacity="1" fill-rule="evenodd"/><path fill="#ffffff" d="M 392.921875 226.863281 L 390.910156 232.585938 L 385.835938 235.523438 L 389.714844 236.390625 L 388.53125 240.546875 L 392.015625 236.644531 L 395.902344 236.949219 L 395.082031 233.074219 L 398.089844 228.0625 L 393.863281 229.992188 Z M 392.921875 226.863281 " fill-opacity="1" fill-rule="evenodd"/><path fill="#ffffff" d="M 375.589844 218.417969 L 374.746094 223.054688 L 370.261719 224.539062 L 374.21875 225.90625 L 373.355469 230.546875 L 376.648438 226.753906 L 380.597656 228.136719 L 378.675781 224.425781 L 381.980469 220.640625 L 377.5 222.140625 Z M 375.589844 218.417969 " fill-opacity="1" fill-rule="evenodd"/><path fill="#ffffff" d="M 391.269531 195.84375 L 390.632812 200.371094 L 386.222656 202.464844 L 390.234375 203.148438 L 389.578125 207.675781 L 392.695312 203.574219 L 396.703125 204.277344 L 394.617188 201.058594 L 397.746094 196.964844 L 393.339844 199.074219 Z M 391.269531 195.84375 " fill-opacity="1" fill-rule="evenodd"/><path fill="#03203e" d="M 449.054688 740.878906 C 449.054688 740.878906 437.019531 727.71875 406.566406 729.597656 C 376.109375 731.480469 349.039062 763.4375 344.148438 774.339844 C 339.261719 785.246094 344.902344 799.347656 352.796875 801.035156 C 360.695312 802.726562 367.648438 802.539062 367.648438 802.539062 C 367.648438 802.539062 363.703125 805.171875 365.394531 813.257812 C 367.085938 821.34375 372.539062 828.671875 377.050781 828.296875 C 381.5625 827.921875 382.691406 826.226562 384.757812 826.605469 C 386.828125 826.980469 385.515625 842.207031 385.328125 845.59375 C 385.140625 848.976562 382.695312 851.417969 381.945312 852.738281 C 381.191406 854.050781 366.34375 864.199219 347.921875 865.332031 C 329.496094 866.457031 314.453125 877.363281 313.328125 889.769531 C 312.199219 902.179688 315.394531 944.664062 321.597656 957.449219 C 327.800781 970.234375 338.140625 981.132812 341.527344 992.414062 C 344.914062 1003.691406 346.414062 1019.109375 341.527344 1032.269531 C 336.640625 1045.425781 330.25 1083.027344 328.746094 1107.84375 C 327.242188 1132.660156 327.617188 1155.96875 327.617188 1155.96875 C 327.617188 1155.96875 340.777344 1153.902344 348.296875 1153.902344 C 355.816406 1153.902344 362.210938 1154.464844 362.210938 1154.464844 C 362.210938 1154.464844 366.53125 1193.378906 377.4375 1227.59375 C 388.339844 1261.8125 389.46875 1262.5625 389.84375 1265.949219 C 390.21875 1269.328125 383.078125 1280.609375 379.316406 1291.890625 C 375.558594 1303.167969 354.125 1330.992188 342.84375 1358.066406 C 331.5625 1385.136719 328.371094 1400.554688 329.121094 1404.5 C 329.875 1408.449219 333.070312 1409.199219 335.890625 1411.082031 C 338.710938 1412.960938 338.710938 1417.46875 334.574219 1423.859375 C 330.441406 1430.25 328.183594 1439.839844 328.558594 1443.597656 C 328.9375 1447.359375 337.019531 1453.375 339.277344 1454.503906 C 341.53125 1455.632812 346.796875 1455.628906 349.613281 1456.949219 C 352.4375 1458.265625 356.003906 1462.019531 355.441406 1466.722656 C 354.878906 1471.421875 360.894531 1477.4375 376.125 1478.191406 C 391.347656 1478.941406 396.992188 1477.625 399.058594 1476.871094 C 401.125 1476.121094 399.996094 1466.53125 395.488281 1460.707031 C 390.976562 1454.878906 384.585938 1448.671875 383.269531 1443.785156 C 381.953125 1438.898438 380.449219 1437.957031 381.578125 1434.949219 C 382.703125 1431.941406 385.339844 1431.753906 385.339844 1431.753906 C 385.339844 1431.753906 391.730469 1410.507812 394.550781 1402.984375 C 397.371094 1395.46875 401.132812 1389.453125 401.882812 1383.996094 C 402.636719 1378.546875 414.480469 1359.558594 414.480469 1359.558594 C 414.480469 1359.558594 416.734375 1387.007812 422.75 1400.542969 C 428.769531 1414.074219 431.398438 1426.484375 439.671875 1437.761719 C 447.941406 1449.042969 449.824219 1466.71875 450.574219 1474.234375 C 451.328125 1481.753906 446.4375 1488.898438 448.695312 1493.414062 C 450.953125 1497.921875 470.503906 1499.425781 478.773438 1497.546875 C 487.046875 1495.667969 490.054688 1492.28125 498.324219 1490.402344 C 506.597656 1488.523438 525.023438 1482.882812 524.269531 1471.980469 C 523.515625 1461.078125 499.828125 1462.582031 495.695312 1457.691406 C 491.558594 1452.800781 497.953125 1452.429688 499.828125 1444.15625 C 501.710938 1435.882812 486.296875 1383.996094 479.527344 1372.714844 C 472.761719 1361.433594 469.753906 1341.882812 469.753906 1330.601562 C 469.753906 1319.324219 468.246094 1296.011719 462.984375 1280.785156 C 457.722656 1265.554688 456.589844 1264.617188 456.589844 1261.234375 C 456.589844 1257.847656 468.816406 1234.535156 476.710938 1211.601562 C 484.609375 1188.664062 489.871094 1170.992188 489.871094 1170.992188 C 489.871094 1170.992188 510.175781 1163.472656 510.550781 1158.585938 C 510.925781 1153.695312 503.035156 1089.402344 497.773438 1069.097656 C 492.507812 1048.789062 490.25 1042.023438 491.003906 1039.015625 C 491.753906 1036.007812 495.890625 1020.589844 495.890625 1020.589844 C 495.890625 1020.589844 519.203125 1078.871094 527.851562 1092.40625 C 536.5 1105.945312 543.265625 1125.117188 545.523438 1126.625 C 547.777344 1128.128906 549.097656 1127.941406 550.128906 1128.597656 C 551.164062 1129.253906 550.695312 1140.25 551.351562 1141.570312 C 552.011719 1142.886719 554.550781 1141.851562 555.207031 1142.695312 C 555.867188 1143.542969 554.175781 1146.175781 553.890625 1147.960938 C 553.609375 1149.746094 555.773438 1151.15625 558.027344 1151.15625 C 560.285156 1151.15625 567.148438 1147.960938 571.285156 1147.023438 C 575.421875 1146.082031 578.242188 1140.628906 578.804688 1134.425781 C 579.371094 1128.222656 585.007812 1125.214844 583.878906 1122.015625 C 582.75 1118.820312 575.609375 1109.984375 574.667969 1105.660156 C 573.730469 1101.339844 566.777344 1050.203125 563.019531 1033.28125 C 559.257812 1016.363281 554.378906 997.371094 550.804688 993.234375 C 547.234375 989.097656 543.472656 985.527344 543.472656 985.527344 C 543.472656 985.527344 513.769531 891.339844 508.507812 883.070312 C 503.242188 874.796875 475.042969 868.027344 472.410156 866.527344 C 469.777344 865.023438 470.910156 861.632812 472.226562 860.128906 C 473.542969 858.625 475.609375 858.25 473.917969 855.992188 C 472.226562 853.738281 471.664062 852.609375 472.976562 850.355469 C 474.292969 848.097656 475.984375 844.148438 473.730469 842.644531 C 471.476562 841.140625 470.34375 844.148438 470.34375 840.199219 C 470.34375 836.253906 470.910156 835.3125 468.84375 832.679688 C 466.773438 830.050781 463.953125 827.980469 463.953125 827.980469 L 460.203125 100.996094 C 460.203125 100.996094 466.214844 95.351562 464.902344 90.84375 C 463.582031 86.328125 461.703125 86.707031 461.703125 86.707031 C 461.703125 86.707031 464.90625 81.257812 461.710938 76.929688 C 460.71875 75.597656 459.59375 74.601562 458.503906 73.863281 L 458.503906 61.832031 C 458.503906 61.832031 461.886719 59.578125 461.886719 52.996094 C 461.886719 46.414062 457.5625 48.671875 457.5625 48.671875 L 457.5625 44.722656 C 457.5625 44.722656 461.324219 43.785156 460.574219 40.023438 C 459.820312 36.265625 456.066406 27.996094 453.433594 15.964844 C 451.296875 6.1875 451.019531 1.871094 450.988281 0.597656 C 450.960938 1.871094 450.683594 6.1875 448.546875 15.964844 C 445.914062 27.996094 442.15625 36.265625 441.402344 40.023438 C 440.648438 43.785156 444.414062 44.722656 444.414062 44.722656 L 444.414062 48.671875 C 444.414062 48.671875 440.089844 46.414062 440.089844 52.996094 C 440.089844 59.578125 443.476562 61.832031 443.476562 61.832031 L 443.476562 72.957031 C 441.523438 73.75 437.191406 75.886719 436.902344 79.375 C 436.523438 83.886719 440.847656 88.964844 440.847656 88.964844 C 440.847656 88.964844 437.839844 91.125 437.652344 94.039062 C 437.464844 96.953125 442.445312 100.996094 442.445312 100.996094 Z M 566.144531 1124.605469 C 566.144531 1124.605469 562.535156 1123.703125 562.082031 1126.183594 C 561.632812 1128.667969 561.628906 1133.632812 560.957031 1135.660156 C 560.277344 1137.691406 559.488281 1139.722656 561.292969 1139.835938 C 563.097656 1139.949219 565.578125 1136.789062 565.804688 1133.519531 C 566.03125 1130.246094 567.382812 1131.035156 567.382812 1128.554688 C 567.382812 1126.070312 566.144531 1124.605469 566.144531 1124.605469 Z M 450.53125 782.710938 C 450.53125 782.710938 445.570312 786.546875 445.34375 789.707031 C 445.117188 792.863281 447.828125 795.570312 446.925781 800.535156 C 446.019531 805.496094 446.472656 823.769531 445.34375 828.285156 C 444.214844 832.796875 443.765625 836.628906 441.511719 838.886719 C 439.253906 841.140625 436.320312 842.949219 436.320312 842.949219 L 436.097656 849.714844 C 436.097656 849.714844 438.800781 849.488281 440.609375 846.554688 C 442.414062 843.625 444.441406 839.113281 448.503906 836.628906 C 452.566406 834.148438 452.566406 832.796875 452.566406 832.796875 L 452 783.554688 Z M 449.964844 759.589844 L 450.078125 772.226562 C 450.078125 772.226562 448.160156 770.980469 446.46875 768.390625 C 444.777344 765.792969 445.003906 762.972656 445.226562 761.394531 C 445.453125 759.816406 449.964844 759.589844 449.964844 759.589844 Z M 449.964844 759.589844 " fill-opacity="1" fill-rule="evenodd"/></svg>