<svg xmlns="http://www.w3.org/2000/svg" xmlns:xlink="http://www.w3.org/1999/xlink" width="2000" zoomAndPan="magnify" viewBox="0 0 1500 1499.999933" height="2000" preserveAspectRatio="xMidYMid meet" version="1.0"><defs><clipPath id="7353b28e94"><path d="M 1418.089844 771 L 1499.945312 771 L 1499.945312 1247.484375 L 1418.089844 1247.484375 Z M 1418.089844 771 " clip-rule="nonzero"/></clipPath><clipPath id="6fc4c626f7"><path d="M 0 179.347656 L 1387 179.347656 L 1387 1320.496094 L 0 1320.496094 Z M 0 179.347656 " clip-rule="nonzero"/></clipPath></defs><g clip-path="url(#7353b28e94)"><path fill="#000000" d="M 1418.78125 805.730469 L 1418.78125 1212.757812 L 1499.945312 1247.257812 L 1499.945312 771.222656 L 1418.78125 805.730469 " fill-opacity="1" fill-rule="nonzero"/></g><path fill="#000000" d="M 325.253906 350.28125 C 240.148438 350.28125 170.914062 419.5 170.914062 504.59375 C 170.914062 589.703125 240.148438 658.941406 325.253906 658.941406 C 410.335938 658.941406 479.5625 589.703125 479.5625 504.59375 C 479.5625 419.5 410.335938 350.28125 325.253906 350.28125 " fill-opacity="1" fill-rule="nonzero"/><g clip-path="url(#6fc4c626f7)"><path fill="#000000" d="M 975.796875 707.769531 C 863.753906 707.769531 772.605469 616.628906 772.605469 504.59375 C 772.605469 392.574219 863.753906 301.453125 975.796875 301.453125 C 1087.777344 301.453125 1178.882812 392.574219 1178.882812 504.59375 C 1178.882812 616.628906 1087.777344 707.769531 975.796875 707.769531 Z M 942.058594 920.296875 L 377.867188 920.296875 L 377.867188 871.175781 L 942.058594 871.175781 Z M 862.648438 1032.453125 L 457.324219 1032.453125 L 457.324219 986.035156 L 862.648438 986.035156 Z M 122.085938 504.59375 C 122.085938 392.574219 213.21875 301.453125 325.253906 301.453125 C 437.261719 301.453125 528.398438 392.574219 528.398438 504.59375 C 528.398438 616.628906 437.261719 707.769531 325.253906 707.769531 C 213.21875 707.769531 122.085938 616.628906 122.085938 504.59375 Z M 1133.804688 895.734375 L 1133.804688 788.738281 C 1233.488281 733.164062 1301 626.800781 1301 504.589844 C 1301 324.996094 1155.375 179.351562 975.796875 179.351562 C 796.109375 179.351562 650.484375 324.996094 650.484375 504.589844 C 650.484375 527.183594 652.808594 549.230469 657.195312 570.527344 L 643.777344 570.527344 C 648.15625 549.230469 650.484375 527.183594 650.484375 504.589844 C 650.484375 324.996094 504.894531 179.351562 325.238281 179.351562 C 145.589844 179.351562 0 324.996094 0 504.589844 C 0 641.164062 84.292969 757.90625 203.632812 806.097656 L 203.632812 960.433594 L 73.953125 960.433594 L 73.953125 1107.847656 L 203.632812 1107.847656 L 203.632812 1261.929688 C 203.632812 1294.28125 229.789062 1320.496094 262.144531 1320.496094 L 1075.199219 1320.496094 C 1107.515625 1320.496094 1133.804688 1294.28125 1133.804688 1261.929688 L 1133.804688 1122.753906 L 1207.050781 1122.753906 L 1386.292969 1198.949219 L 1386.292969 819.539062 L 1207.050781 895.734375 L 1133.804688 895.734375 " fill-opacity="1" fill-rule="nonzero"/></g><path fill="#000000" d="M 975.796875 350.28125 C 890.679688 350.28125 821.433594 419.5 821.433594 504.59375 C 821.433594 589.703125 890.679688 658.941406 975.796875 658.941406 C 1060.851562 658.941406 1130.046875 589.703125 1130.046875 504.59375 C 1130.046875 419.5 1060.851562 350.28125 975.796875 350.28125 " fill-opacity="1" fill-rule="nonzero"/></svg>