<svg xmlns="http://www.w3.org/2000/svg" xmlns:xlink="http://www.w3.org/1999/xlink" width="1024" zoomAndPan="magnify" viewBox="0 0 768 767.999994" height="1024" preserveAspectRatio="xMidYMid meet" version="1.0"><defs><clipPath id="3164e06484"><path d="M 329.757812 363.847656 L 335.839844 363.847656 L 335.839844 375.019531 L 329.757812 375.019531 Z M 329.757812 363.847656 " clip-rule="nonzero"/></clipPath><clipPath id="a8cc975542"><path d="M 332.800781 363.847656 C 334.480469 363.847656 335.839844 365.210938 335.839844 366.890625 L 335.839844 371.960938 C 335.839844 373.640625 334.480469 375.003906 332.800781 375.003906 C 331.121094 375.003906 329.757812 373.640625 329.757812 371.960938 L 329.757812 366.890625 C 329.757812 365.210938 331.121094 363.847656 332.800781 363.847656 Z M 332.800781 363.847656 " clip-rule="nonzero"/></clipPath><clipPath id="0b88e1842d"><path d="M 0.757812 0.847656 L 6.839844 0.847656 L 6.839844 12 L 0.757812 12 Z M 0.757812 0.847656 " clip-rule="nonzero"/></clipPath><clipPath id="84179d3f9f"><path d="M 3.800781 0.847656 C 5.480469 0.847656 6.839844 2.210938 6.839844 3.890625 L 6.839844 8.960938 C 6.839844 10.640625 5.480469 12.003906 3.800781 12.003906 C 2.121094 12.003906 0.757812 10.640625 0.757812 8.960938 L 0.757812 3.890625 C 0.757812 2.210938 2.121094 0.847656 3.800781 0.847656 Z M 3.800781 0.847656 " clip-rule="nonzero"/></clipPath><clipPath id="5088a35a05"><rect x="0" width="7" y="0" height="13"/></clipPath></defs><g clip-path="url(#3164e06484)"><g clip-path="url(#a8cc975542)"><g transform="matrix(1, 0, 0, 1, 329, 363)"><g clip-path="url(#5088a35a05)"><g clip-path="url(#0b88e1842d)"><g clip-path="url(#84179d3f9f)"><path fill="#ff00bf" d="M 0.757812 0.847656 L 6.839844 0.847656 L 6.839844 11.992188 L 0.757812 11.992188 Z M 0.757812 0.847656 " fill-opacity="1" fill-rule="nonzero"/></g></g></g></g></g></g><path fill="#ff00bf" d="M 9.144531 537.039062 C 8.160156 537.039062 7.171875 536.898438 6.1875 536.476562 C 2.671875 534.925781 1.125 530.707031 2.671875 527.191406 L 113.933594 281.601562 C 115.480469 278.082031 119.699219 276.535156 123.21875 278.082031 C 126.734375 279.628906 128.28125 283.851562 126.734375 287.367188 L 15.472656 532.957031 C 14.347656 535.488281 11.675781 537.039062 9.003906 537.039062 Z M 9.144531 537.039062 " fill-opacity="1" fill-rule="nonzero"/><path fill="#ff00bf" d="M 261.0625 537.039062 C 258.390625 537.039062 255.859375 535.488281 254.59375 532.957031 L 143.332031 287.648438 C 141.785156 284.132812 143.332031 279.914062 146.847656 278.363281 C 150.363281 276.816406 154.585938 278.363281 156.132812 281.882812 L 267.394531 527.191406 C 268.941406 530.707031 267.394531 534.925781 263.875 536.476562 C 262.890625 536.898438 261.90625 537.039062 260.921875 537.039062 Z M 261.0625 537.039062 " fill-opacity="1" fill-rule="nonzero"/><path fill="#ff00bf" d="M 218.867188 594.144531 L 51.339844 594.144531 C 24.195312 594.144531 2.109375 572.0625 2.109375 544.914062 L 2.109375 530.003906 C 2.109375 526.066406 5.203125 522.972656 9.144531 522.972656 L 261.0625 522.972656 C 265.003906 522.972656 268.097656 526.066406 268.097656 530.003906 L 268.097656 544.914062 C 268.097656 572.0625 246.011719 594.144531 218.867188 594.144531 Z M 16.175781 537.039062 L 16.175781 544.914062 C 16.175781 564.324219 31.929688 580.078125 51.339844 580.078125 L 218.867188 580.078125 C 238.277344 580.078125 254.03125 564.324219 254.03125 544.914062 L 254.03125 537.039062 Z M 16.175781 537.039062 " fill-opacity="1" fill-rule="nonzero"/><path fill="#ff00bf" d="M 221.398438 537.039062 C 218.867188 537.039062 216.476562 535.769531 215.207031 533.378906 L 195.515625 497.511719 C 193.40625 493.714844 190.03125 490.761719 185.953125 489.214844 C 177.511719 486.117188 170.761719 479.507812 167.382812 471.207031 L 166.679688 469.378906 C 164.992188 465.300781 161.898438 461.925781 157.960938 459.957031 L 153.320312 457.566406 C 143.332031 452.5 131.65625 452.078125 121.25 456.441406 L 113.230469 459.816406 C 110.980469 460.800781 108.730469 461.503906 106.480469 462.207031 C 93.257812 465.722656 82.847656 476.273438 79.472656 489.496094 L 78.066406 495.121094 C 75.957031 502.996094 69.484375 509.046875 61.46875 510.453125 C 58.234375 511.015625 55.839844 513.828125 55.839844 517.0625 L 55.839844 530.003906 C 55.839844 533.941406 52.746094 537.039062 48.808594 537.039062 C 44.871094 537.039062 41.777344 533.941406 41.777344 530.003906 L 41.777344 517.0625 C 41.777344 506.9375 49.089844 498.214844 59.078125 496.527344 C 61.75 496.105469 63.859375 494.136719 64.421875 491.605469 L 65.828125 485.976562 C 70.46875 467.832031 84.675781 453.484375 102.820312 448.5625 C 104.511719 448.140625 106.199219 447.578125 107.746094 446.875 L 115.761719 443.5 C 129.96875 437.449219 145.863281 438.011719 159.648438 445.046875 L 164.289062 447.4375 C 171.183594 450.953125 176.667969 456.863281 179.621094 464.035156 L 180.324219 465.863281 C 182.292969 470.503906 186.09375 474.304688 190.734375 475.992188 C 197.90625 478.664062 203.957031 484.007812 207.613281 490.761719 L 227.304688 526.628906 C 229.132812 530.003906 227.867188 534.363281 224.492188 536.195312 C 223.367188 536.757812 222.242188 537.039062 221.117188 537.039062 Z M 221.398438 537.039062 " fill-opacity="1" fill-rule="nonzero"/><path fill="#ff00bf" d="M 709.90625 214.503906 C 707.234375 214.503906 704.703125 212.957031 703.4375 210.425781 L 653.644531 101.835938 C 651.957031 98.320312 653.644531 94.101562 657.160156 92.554688 C 660.675781 91.007812 664.898438 92.554688 666.445312 96.070312 L 716.238281 204.660156 C 717.925781 208.175781 716.238281 212.394531 712.722656 213.941406 C 711.734375 214.363281 710.75 214.644531 709.765625 214.644531 Z M 709.90625 214.503906 " fill-opacity="1" fill-rule="nonzero"/><path fill="#ff00bf" d="M 580.359375 214.644531 C 579.375 214.644531 578.390625 214.503906 577.40625 213.941406 C 573.890625 212.253906 572.34375 208.175781 573.890625 204.660156 L 623.824219 95.929688 C 625.511719 92.414062 629.589844 90.867188 633.109375 92.414062 C 636.625 94.101562 638.171875 98.179688 636.625 101.695312 L 586.691406 210.425781 C 585.566406 212.957031 582.890625 214.503906 580.21875 214.503906 Z M 580.359375 214.644531 " fill-opacity="1" fill-rule="nonzero"/><path fill="#ff00bf" d="M 35.585938 318.453125 C 32.773438 318.453125 29.960938 316.625 28.976562 313.8125 L 14.207031 273.582031 C 13.503906 271.894531 13.644531 269.925781 14.488281 268.238281 C 15.332031 266.550781 16.738281 265.285156 18.425781 264.582031 L 99.023438 235.183594 C 103.382812 233.636719 108.589844 237.011719 108.589844 241.792969 C 108.589844 245.167969 106.339844 247.839844 103.242188 248.6875 L 29.960938 275.410156 L 39.945312 302.417969 L 114.074219 275.410156 C 117.730469 274.144531 121.8125 275.972656 123.078125 279.628906 C 124.34375 283.289062 122.515625 287.367188 118.855469 288.632812 L 38.117188 318.03125 C 37.273438 318.3125 36.570312 318.453125 35.726562 318.453125 Z M 35.585938 318.453125 " fill-opacity="1" fill-rule="nonzero"/><path fill="#ff00bf" d="M 440.125 171.183594 C 437.308594 171.183594 434.496094 169.355469 433.511719 166.539062 C 432.246094 162.882812 434.074219 158.804688 437.730469 157.539062 L 623.542969 89.882812 C 627.199219 88.617188 631.277344 90.445312 632.546875 94.101562 C 633.8125 97.757812 631.980469 101.835938 628.324219 103.101562 L 442.515625 170.761719 C 441.671875 171.042969 440.96875 171.183594 440.125 171.183594 Z M 440.125 171.183594 " fill-opacity="1" fill-rule="nonzero"/><path fill="#ff00bf" d="M 169.496094 269.785156 C 165.554688 269.785156 162.460938 266.691406 162.460938 262.75 C 162.460938 259.65625 164.289062 256.984375 167.101562 256 L 352.914062 188.34375 C 356.570312 187.078125 360.652344 188.90625 361.917969 192.5625 C 363.183594 196.21875 361.355469 200.300781 357.695312 201.566406 L 172.730469 268.941406 C 171.746094 269.503906 170.621094 269.785156 169.496094 269.785156 Z M 169.496094 269.785156 " fill-opacity="1" fill-rule="nonzero"/><path fill="#ff00bf" d="M 155.007812 229.414062 C 152.195312 229.414062 149.378906 227.585938 148.394531 224.773438 C 147.128906 221.117188 148.957031 217.039062 152.617188 215.769531 L 338.285156 148.113281 C 341.941406 146.847656 346.023438 148.675781 347.289062 152.335938 C 348.554688 155.992188 346.726562 160.070312 343.066406 161.335938 L 157.398438 228.992188 C 156.554688 229.273438 155.851562 229.414062 155.007812 229.414062 Z M 155.007812 229.414062 " fill-opacity="1" fill-rule="nonzero"/><path fill="#ff00bf" d="M 425.496094 130.953125 C 422.679688 130.953125 419.867188 129.125 418.882812 126.3125 C 417.617188 122.65625 419.445312 118.574219 423.101562 117.308594 L 608.773438 49.652344 C 612.429688 48.386719 616.511719 50.214844 617.777344 53.871094 C 619.042969 57.53125 617.214844 61.609375 613.554688 62.875 L 427.886719 130.53125 C 427.042969 130.8125 426.339844 130.953125 425.496094 130.953125 Z M 425.496094 130.953125 " fill-opacity="1" fill-rule="nonzero"/><path fill="#ff00bf" d="M 679.242188 84.113281 C 676.429688 84.113281 673.617188 82.285156 672.632812 79.472656 C 671.367188 75.816406 673.195312 71.734375 676.851562 70.46875 L 750.980469 43.464844 L 741.132812 16.457031 L 667.148438 43.464844 C 663.488281 44.730469 659.410156 42.902344 658.144531 39.242188 C 656.878906 35.585938 658.707031 31.507812 662.363281 30.242188 L 742.960938 0.84375 C 744.792969 0.28125 746.621094 0.28125 748.308594 1.125 C 749.996094 1.96875 751.261719 3.375 751.964844 5.0625 L 766.59375 45.292969 C 767.859375 48.949219 766.03125 53.027344 762.375 54.292969 L 681.636719 83.691406 C 680.792969 83.972656 680.085938 84.113281 679.242188 84.113281 Z M 679.242188 84.113281 " fill-opacity="1" fill-rule="nonzero"/><path fill="#ff00bf" d="M 645.34375 109.433594 C 627.902344 109.433594 611.445312 98.601562 605.117188 81.300781 C 597.097656 59.21875 608.492188 34.601562 630.714844 26.585938 C 641.40625 22.644531 653.082031 23.207031 663.347656 27.992188 C 673.757812 32.773438 681.496094 41.355469 685.433594 52.042969 C 689.371094 62.734375 688.808594 74.410156 684.027344 84.675781 C 679.242188 94.945312 670.664062 102.820312 659.972656 106.761719 C 655.191406 108.449219 650.269531 109.292969 645.34375 109.292969 Z M 645.34375 37.976562 C 641.96875 37.976562 638.734375 38.539062 635.5 39.664062 C 620.589844 45.011719 612.992188 61.609375 618.339844 76.378906 C 623.683594 91.289062 640.28125 98.882812 655.050781 93.539062 C 662.222656 90.867188 667.992188 85.660156 671.226562 78.769531 C 674.460938 71.875 674.742188 64 672.210938 56.828125 C 669.539062 49.652344 664.335938 43.886719 657.441406 40.652344 C 653.644531 38.820312 649.425781 37.976562 645.34375 37.976562 Z M 645.34375 37.976562 " fill-opacity="1" fill-rule="nonzero"/><path fill="#ff00bf" d="M 135.59375 294.960938 C 118.152344 294.960938 101.695312 284.132812 95.367188 266.832031 C 87.347656 244.746094 98.742188 220.132812 120.96875 212.113281 C 143.050781 204.097656 167.664062 215.488281 175.683594 237.714844 C 183.699219 259.796875 172.308594 284.414062 150.082031 292.429688 C 145.300781 294.117188 140.378906 294.960938 135.453125 294.960938 Z M 135.453125 223.507812 C 132.21875 223.507812 128.84375 224.070312 125.75 225.195312 C 110.839844 230.539062 103.242188 247.136719 108.589844 261.90625 C 113.933594 276.816406 130.53125 284.414062 145.300781 279.066406 C 160.210938 273.722656 167.804688 257.125 162.460938 242.355469 C 158.242188 230.679688 147.269531 223.507812 135.453125 223.507812 Z M 135.453125 223.507812 " fill-opacity="1" fill-rule="nonzero"/><path fill="#ff00bf" d="M 513.125 767.578125 L 267.535156 767.578125 C 263.59375 767.578125 260.5 764.484375 260.5 760.546875 L 260.5 717.785156 C 260.5 713.847656 263.59375 710.75 267.535156 710.75 L 513.125 710.75 C 517.0625 710.75 520.160156 713.847656 520.160156 717.785156 L 520.160156 760.546875 C 520.160156 764.484375 517.0625 767.578125 513.125 767.578125 Z M 274.707031 753.511719 L 506.234375 753.511719 L 506.234375 724.816406 L 274.707031 724.816406 Z M 274.707031 753.511719 " fill-opacity="1" fill-rule="nonzero"/><path fill="#ff00bf" d="M 478.664062 724.816406 C 474.726562 724.816406 471.628906 721.722656 471.628906 717.785156 L 471.628906 682.058594 L 309.308594 682.058594 L 309.308594 717.785156 C 309.308594 721.722656 306.214844 724.816406 302.277344 724.816406 C 298.339844 724.816406 295.242188 721.722656 295.242188 717.785156 L 295.242188 675.023438 C 295.242188 671.085938 298.339844 667.992188 302.277344 667.992188 L 478.664062 667.992188 C 482.601562 667.992188 485.695312 671.085938 485.695312 675.023438 L 485.695312 717.785156 C 485.695312 721.722656 482.601562 724.816406 478.664062 724.816406 Z M 478.664062 724.816406 " fill-opacity="1" fill-rule="nonzero"/><path fill="#ff00bf" d="M 368.949219 681.917969 C 365.011719 681.917969 361.917969 678.820312 361.917969 674.882812 L 361.917969 204.519531 C 361.917969 200.582031 365.011719 197.484375 368.949219 197.484375 C 372.886719 197.484375 375.980469 200.582031 375.980469 204.519531 L 375.980469 674.882812 C 375.980469 678.820312 372.886719 681.917969 368.949219 681.917969 Z M 368.949219 681.917969 " fill-opacity="1" fill-rule="nonzero"/><path fill="#ff00bf" d="M 411.851562 578.25 C 407.914062 578.25 404.816406 575.15625 404.816406 571.21875 L 404.816406 550.398438 C 404.816406 546.460938 407.914062 543.367188 411.851562 543.367188 C 415.789062 543.367188 418.882812 546.460938 418.882812 550.398438 L 418.882812 571.21875 C 418.882812 575.15625 415.789062 578.25 411.851562 578.25 Z M 411.851562 578.25 " fill-opacity="1" fill-rule="nonzero"/><path fill="#ff00bf" d="M 411.851562 681.917969 C 407.914062 681.917969 404.816406 678.820312 404.816406 674.882812 L 404.816406 619.746094 C 404.816406 615.808594 407.914062 612.710938 411.851562 612.710938 C 415.789062 612.710938 418.882812 615.808594 418.882812 619.746094 L 418.882812 674.882812 C 418.882812 678.820312 415.789062 681.917969 411.851562 681.917969 Z M 411.851562 681.917969 " fill-opacity="1" fill-rule="nonzero"/><path fill="#ff00bf" d="M 411.851562 508.90625 C 407.914062 508.90625 404.816406 505.8125 404.816406 501.871094 L 404.816406 204.519531 C 404.816406 200.582031 407.914062 197.484375 411.851562 197.484375 C 415.789062 197.484375 418.882812 200.582031 418.882812 204.519531 L 418.882812 501.871094 C 418.882812 505.8125 415.789062 508.90625 411.851562 508.90625 Z M 411.851562 508.90625 " fill-opacity="1" fill-rule="nonzero"/><path fill="#ff00bf" d="M 390.46875 216.476562 C 359.101562 216.476562 333.503906 190.875 333.503906 159.507812 C 333.503906 128.140625 359.101562 102.539062 390.46875 102.539062 C 421.835938 102.539062 447.4375 128.140625 447.4375 159.507812 C 447.4375 190.875 421.835938 216.476562 390.46875 216.476562 Z M 390.46875 116.464844 C 366.839844 116.464844 347.570312 135.734375 347.570312 159.367188 C 347.570312 182.996094 366.839844 202.269531 390.46875 202.269531 C 414.101562 202.269531 433.371094 182.996094 433.371094 159.367188 C 433.371094 135.734375 414.101562 116.464844 390.46875 116.464844 Z M 390.46875 116.464844 " fill-opacity="1" fill-rule="nonzero"/><path fill="#ff00bf" d="M 645.34375 475.007812 C 600.757812 475.007812 561.371094 452.5 537.742188 418.179688 C 555.324219 460.378906 596.816406 490.199219 645.34375 490.199219 C 693.871094 490.199219 735.226562 460.378906 752.808594 418.179688 C 729.320312 452.5 689.933594 475.007812 645.34375 475.007812 Z M 645.34375 228.148438 C 581.203125 228.148438 528.878906 280.335938 528.878906 344.476562 C 528.878906 408.617188 581.203125 460.941406 645.34375 460.941406 C 709.484375 460.941406 761.671875 408.617188 761.671875 344.476562 C 761.671875 280.335938 709.484375 228.148438 645.34375 228.148438 Z M 679.664062 320 C 679.664062 323.9375 676.429688 327.03125 672.632812 327.03125 C 668.835938 327.03125 665.601562 323.9375 665.601562 320 L 665.601562 315.78125 C 665.601562 308.324219 659.691406 302.277344 652.378906 301.574219 L 652.378906 340.535156 L 665.882812 348.835938 C 674.320312 354.039062 679.664062 363.324219 679.664062 373.167969 C 679.664062 388.5 667.429688 401.019531 652.378906 401.722656 L 652.378906 415.789062 C 652.378906 419.726562 649.144531 422.820312 645.34375 422.820312 C 641.546875 422.820312 638.3125 419.726562 638.3125 415.789062 L 638.3125 401.722656 C 623.121094 401.019531 611.023438 388.5 611.023438 373.167969 L 611.023438 369.089844 C 611.023438 365.152344 614.117188 362.058594 618.058594 362.058594 C 621.996094 362.058594 625.089844 365.152344 625.089844 369.089844 L 625.089844 373.167969 C 625.089844 380.765625 630.855469 386.8125 638.3125 387.515625 L 638.3125 348.414062 L 624.667969 340.253906 C 616.230469 335.050781 611.023438 325.625 611.023438 315.78125 C 611.023438 300.449219 623.121094 288.070312 638.3125 287.367188 L 638.3125 273.300781 C 638.3125 269.363281 641.40625 266.269531 645.34375 266.269531 C 649.285156 266.269531 652.378906 269.363281 652.378906 273.300781 L 652.378906 287.367188 C 667.429688 288.070312 679.664062 300.449219 679.664062 315.78125 Z M 652.378906 387.515625 C 659.691406 386.8125 665.601562 380.765625 665.601562 373.167969 C 665.601562 368.246094 662.925781 363.464844 658.566406 360.933594 L 652.378906 356.992188 Z M 625.089844 315.78125 C 625.089844 320.84375 627.761719 325.625 631.984375 328.160156 L 638.3125 331.957031 L 638.3125 301.574219 C 630.855469 302.277344 625.089844 308.324219 625.089844 315.78125 Z M 625.089844 315.78125 " fill-opacity="1" fill-rule="nonzero"/></svg>